%TF.GenerationSoftware,KiCad,Pcbnew,7.0.11-7.0.11~ubuntu22.04.1*%
%TF.CreationDate,2024-10-26T23:49:30+02:00*%
%TF.ProjectId,C6-40-Flash-test,43362d34-302d-4466-9c61-73682d746573,1.0*%
%TF.SameCoordinates,Original*%
%TF.FileFunction,Copper,L3,Inr*%
%TF.FilePolarity,Positive*%
%FSLAX46Y46*%
G04 Gerber Fmt 4.6, Leading zero omitted, Abs format (unit mm)*
G04 Created by KiCad (PCBNEW 7.0.11-7.0.11~ubuntu22.04.1) date 2024-10-26 23:49:30*
%MOMM*%
%LPD*%
G01*
G04 APERTURE LIST*
%TA.AperFunction,ComponentPad*%
%ADD10R,1.700000X1.700000*%
%TD*%
%TA.AperFunction,ComponentPad*%
%ADD11O,1.700000X1.700000*%
%TD*%
%TA.AperFunction,ComponentPad*%
%ADD12O,1.000000X1.600000*%
%TD*%
%TA.AperFunction,ComponentPad*%
%ADD13O,1.000000X2.100000*%
%TD*%
%TA.AperFunction,ViaPad*%
%ADD14C,0.450000*%
%TD*%
%TA.AperFunction,ViaPad*%
%ADD15C,0.600000*%
%TD*%
%TA.AperFunction,Conductor*%
%ADD16C,0.400000*%
%TD*%
G04 APERTURE END LIST*
D10*
%TO.N,IO0*%
%TO.C,J2*%
X134190000Y-84505000D03*
D11*
%TO.N,IO1*%
X134190000Y-87045000D03*
%TO.N,IO2*%
X134190000Y-89585000D03*
%TO.N,IO3*%
X134190000Y-92125000D03*
%TO.N,IO4*%
X134190000Y-94665000D03*
%TO.N,IO5*%
X134190000Y-97205000D03*
%TO.N,IO6*%
X134190000Y-99745000D03*
%TD*%
D10*
%TO.N,VBUS*%
%TO.C,J3*%
X150100000Y-84505000D03*
D11*
%TO.N,GND*%
X150100000Y-87045000D03*
%TO.N,+3V3*%
X150100000Y-89585000D03*
%TO.N,SPIVDD*%
X150100000Y-92125000D03*
%TO.N,RX*%
X150100000Y-94665000D03*
%TO.N,TX*%
X150100000Y-97205000D03*
%TO.N,IO7*%
X150100000Y-99745000D03*
%TD*%
D12*
%TO.N,GND*%
%TO.C,J1*%
X137870000Y-82935000D03*
D13*
X137870000Y-87115000D03*
D12*
X146510000Y-82935000D03*
D13*
X146510000Y-87115000D03*
%TD*%
D14*
%TO.N,IO6*%
X148025000Y-106725000D03*
X145700000Y-104200000D03*
D15*
%TO.N,+3V3*%
X149050000Y-106800000D03*
%TO.N,GND*%
X150750000Y-108150000D03*
D14*
%TO.N,SPICS0*%
X139200000Y-110350000D03*
D15*
%TO.N,GND*%
X142450000Y-111850000D03*
D14*
%TO.N,SPI_D2*%
X141750000Y-109050000D03*
%TO.N,SPI_D0*%
X146600000Y-106600000D03*
%TO.N,SPICLK*%
X145775000Y-107061789D03*
X146940000Y-97155000D03*
D15*
%TO.N,SPIVDD*%
X150017880Y-104975000D03*
D14*
%TO.N,BOOT*%
X141911527Y-106709762D03*
X146785000Y-103028067D03*
D15*
%TO.N,GND*%
X135780000Y-105350000D03*
X143740000Y-99255000D03*
X135780000Y-108380000D03*
X135770000Y-107640000D03*
X135770000Y-106850000D03*
X136570000Y-105235000D03*
X135790000Y-104580000D03*
X136550000Y-102165000D03*
D14*
X137150000Y-93425000D03*
X139694000Y-107851587D03*
D15*
X143750000Y-99935000D03*
X143740000Y-100605000D03*
X136550000Y-96735000D03*
X138050000Y-110435000D03*
D14*
X147370000Y-96080000D03*
D15*
X135940000Y-111045000D03*
X135780000Y-106130000D03*
D14*
X144210000Y-92305000D03*
D15*
%TO.N,+3V3*%
X139844620Y-98760380D03*
X140940000Y-97125000D03*
X139530000Y-96315000D03*
D14*
X141144872Y-102000407D03*
D15*
X139960000Y-105545000D03*
X140440000Y-94145000D03*
X137930000Y-102295000D03*
X150910000Y-103215000D03*
X145540000Y-96605000D03*
D14*
%TO.N,SPICS0*%
X146875000Y-100225009D03*
%TO.N,SPI_D1*%
X141780000Y-108135000D03*
X147165000Y-99583857D03*
%TO.N,SPI_D2*%
X147380000Y-98875000D03*
%TO.N,SPI_D0*%
X146210000Y-96815000D03*
%TO.N,SPI_D3*%
X146680000Y-97695000D03*
X145966594Y-105715233D03*
%TO.N,SPIVDD*%
X146988413Y-98246587D03*
%TO.N,/USB_D+*%
X142480000Y-89415000D03*
X141460000Y-90155000D03*
%TO.N,IO0*%
X140450000Y-102085000D03*
%TO.N,IO1*%
X140590000Y-102985000D03*
%TO.N,IO2*%
X141153307Y-103484121D03*
%TO.N,IO3*%
X140850000Y-104115000D03*
%TO.N,IO4*%
X140660000Y-104685000D03*
%TO.N,IO5*%
X137980000Y-105870000D03*
%TO.N,IO6*%
X137400000Y-106060000D03*
%TO.N,TX*%
X144810000Y-96170000D03*
%TO.N,RX*%
X144200000Y-95750000D03*
%TO.N,GND*%
X134900000Y-102200000D03*
%TD*%
D16*
%TO.N,SPIVDD*%
X150130000Y-101472057D02*
X150130000Y-104862880D01*
X150130000Y-104862880D02*
X150017880Y-104975000D01*
X148000000Y-98681827D02*
X148000000Y-99342057D01*
X148000000Y-99342057D02*
X150130000Y-101472057D01*
X147393173Y-98075000D02*
X148000000Y-98681827D01*
%TO.N,+3V3*%
X137930000Y-103515000D02*
X139960000Y-105545000D01*
X137930000Y-102295000D02*
X137930000Y-103515000D01*
%TO.N,SPIVDD*%
X147690000Y-96714595D02*
X148575000Y-95829595D01*
X148575000Y-93650000D02*
X150100000Y-92125000D01*
X147690000Y-97778173D02*
X147690000Y-96714595D01*
X148575000Y-95829595D02*
X148575000Y-93650000D01*
X147393173Y-98075000D02*
X147120000Y-98075000D01*
X147393173Y-98075000D02*
X147690000Y-97778173D01*
%TD*%
%TA.AperFunction,Conductor*%
%TO.N,+3V3*%
G36*
X136861401Y-88039878D02*
G01*
X136928342Y-88059889D01*
X136969214Y-88103699D01*
X136996605Y-88153048D01*
X137039566Y-88230449D01*
X137044592Y-88239503D01*
X137044592Y-88239504D01*
X137177132Y-88393893D01*
X137177134Y-88393895D01*
X137338037Y-88518445D01*
X137338038Y-88518445D01*
X137338042Y-88518448D01*
X137520729Y-88608060D01*
X137717715Y-88659063D01*
X137920936Y-88669369D01*
X138122071Y-88638556D01*
X138312887Y-88567886D01*
X138485571Y-88460252D01*
X138633053Y-88320059D01*
X138749295Y-88153049D01*
X138761420Y-88124792D01*
X138805944Y-88070950D01*
X138872512Y-88049725D01*
X138875904Y-88049693D01*
X145524828Y-88082087D01*
X145591770Y-88102098D01*
X145632642Y-88145908D01*
X145636605Y-88153048D01*
X145679566Y-88230449D01*
X145684592Y-88239503D01*
X145684592Y-88239504D01*
X145817132Y-88393893D01*
X145817134Y-88393895D01*
X145978037Y-88518445D01*
X145978038Y-88518445D01*
X145978042Y-88518448D01*
X146160729Y-88608060D01*
X146357715Y-88659063D01*
X146560936Y-88669369D01*
X146762071Y-88638556D01*
X146952887Y-88567886D01*
X147125571Y-88460252D01*
X147273053Y-88320059D01*
X147389295Y-88153049D01*
X147389295Y-88153048D01*
X147392887Y-88147888D01*
X147394514Y-88149020D01*
X147437661Y-88106459D01*
X147496944Y-88091695D01*
X149213761Y-88100060D01*
X149280704Y-88120071D01*
X149284280Y-88122484D01*
X149414594Y-88213730D01*
X149458219Y-88268307D01*
X149465413Y-88337805D01*
X149433890Y-88400160D01*
X149414595Y-88416880D01*
X149228922Y-88546890D01*
X149228920Y-88546891D01*
X149061891Y-88713920D01*
X149061886Y-88713926D01*
X148926400Y-88907420D01*
X148926399Y-88907422D01*
X148826570Y-89121507D01*
X148826567Y-89121513D01*
X148769364Y-89334999D01*
X148769364Y-89335000D01*
X149666314Y-89335000D01*
X149640507Y-89375156D01*
X149600000Y-89513111D01*
X149600000Y-89656889D01*
X149640507Y-89794844D01*
X149666314Y-89835000D01*
X148769364Y-89835000D01*
X148826567Y-90048486D01*
X148826570Y-90048492D01*
X148926399Y-90262578D01*
X149061894Y-90456082D01*
X149228917Y-90623105D01*
X149414595Y-90753119D01*
X149458219Y-90807696D01*
X149465412Y-90877195D01*
X149433890Y-90939549D01*
X149414595Y-90956269D01*
X149228594Y-91086508D01*
X149061505Y-91253597D01*
X148925965Y-91447169D01*
X148925964Y-91447171D01*
X148826098Y-91661335D01*
X148826094Y-91661344D01*
X148764938Y-91889586D01*
X148764936Y-91889596D01*
X148744341Y-92124999D01*
X148744341Y-92125000D01*
X148764937Y-92360409D01*
X148764937Y-92360410D01*
X148769442Y-92377225D01*
X148767776Y-92447075D01*
X148737347Y-92496994D01*
X148097290Y-93137051D01*
X148091838Y-93142183D01*
X148046819Y-93182068D01*
X148012649Y-93231569D01*
X148008213Y-93237597D01*
X147971124Y-93284938D01*
X147971119Y-93284948D01*
X147966960Y-93294188D01*
X147955942Y-93313723D01*
X147950187Y-93322061D01*
X147950179Y-93322076D01*
X147928853Y-93378305D01*
X147925989Y-93385220D01*
X147901305Y-93440068D01*
X147899477Y-93450042D01*
X147893453Y-93471653D01*
X147889860Y-93481127D01*
X147889860Y-93481128D01*
X147882610Y-93540827D01*
X147881483Y-93548227D01*
X147870642Y-93607389D01*
X147870642Y-93607395D01*
X147874274Y-93667432D01*
X147874500Y-93674920D01*
X147874500Y-95315804D01*
X147854815Y-95382843D01*
X147802011Y-95428598D01*
X147732853Y-95438542D01*
X147693580Y-95424125D01*
X147693048Y-95425231D01*
X147686780Y-95422212D01*
X147532455Y-95368212D01*
X147370004Y-95349909D01*
X147369996Y-95349909D01*
X147207544Y-95368212D01*
X147053225Y-95422210D01*
X146914795Y-95509192D01*
X146799192Y-95624795D01*
X146712210Y-95763225D01*
X146658212Y-95917544D01*
X146644657Y-96037854D01*
X146617590Y-96102268D01*
X146559996Y-96141823D01*
X146490159Y-96143960D01*
X146480483Y-96141012D01*
X146372455Y-96103212D01*
X146210004Y-96084909D01*
X146209996Y-96084909D01*
X146047544Y-96103212D01*
X145893225Y-96157210D01*
X145754796Y-96244192D01*
X145751412Y-96247576D01*
X145690087Y-96281057D01*
X145620395Y-96276068D01*
X145564464Y-96234193D01*
X145540516Y-96173772D01*
X145521787Y-96007544D01*
X145521786Y-96007542D01*
X145521786Y-96007539D01*
X145467789Y-95853225D01*
X145380808Y-95714796D01*
X145265204Y-95599192D01*
X145246658Y-95587539D01*
X145126774Y-95512210D01*
X145026457Y-95477108D01*
X144972461Y-95458214D01*
X144958856Y-95456681D01*
X144925286Y-95452898D01*
X144860873Y-95425830D01*
X144834179Y-95395650D01*
X144770807Y-95294795D01*
X144655204Y-95179192D01*
X144516774Y-95092210D01*
X144362455Y-95038212D01*
X144200004Y-95019909D01*
X144199996Y-95019909D01*
X144037544Y-95038212D01*
X143883225Y-95092210D01*
X143744795Y-95179192D01*
X143629192Y-95294795D01*
X143542210Y-95433225D01*
X143488212Y-95587544D01*
X143469909Y-95749996D01*
X143469909Y-95750003D01*
X143488212Y-95912455D01*
X143542210Y-96066774D01*
X143542211Y-96066775D01*
X143629192Y-96205204D01*
X143744796Y-96320808D01*
X143883225Y-96407789D01*
X144037539Y-96461786D01*
X144037543Y-96461786D01*
X144037545Y-96461787D01*
X144084708Y-96467101D01*
X144149123Y-96494167D01*
X144175819Y-96524348D01*
X144239190Y-96625202D01*
X144239192Y-96625204D01*
X144354796Y-96740808D01*
X144493225Y-96827789D01*
X144647539Y-96881786D01*
X144647542Y-96881786D01*
X144647544Y-96881787D01*
X144809996Y-96900091D01*
X144810000Y-96900091D01*
X144810004Y-96900091D01*
X144972455Y-96881787D01*
X144972456Y-96881786D01*
X144972461Y-96881786D01*
X145126775Y-96827789D01*
X145265204Y-96740808D01*
X145268580Y-96737431D01*
X145329898Y-96703945D01*
X145399590Y-96708926D01*
X145455526Y-96750794D01*
X145479483Y-96811226D01*
X145498212Y-96977455D01*
X145552210Y-97131774D01*
X145552211Y-97131775D01*
X145639192Y-97270204D01*
X145754796Y-97385808D01*
X145802205Y-97415597D01*
X145899121Y-97476494D01*
X145898174Y-97477999D01*
X145943326Y-97518762D01*
X145961642Y-97586188D01*
X145960888Y-97597547D01*
X145949909Y-97694995D01*
X145949909Y-97695003D01*
X145968212Y-97857455D01*
X146022210Y-98011774D01*
X146109192Y-98150204D01*
X146229720Y-98270732D01*
X146228613Y-98271838D01*
X146263993Y-98322241D01*
X146269761Y-98348119D01*
X146276625Y-98409042D01*
X146276626Y-98409047D01*
X146276627Y-98409048D01*
X146278230Y-98413630D01*
X146330623Y-98563361D01*
X146416014Y-98699259D01*
X146417605Y-98701791D01*
X146533209Y-98817395D01*
X146601252Y-98860149D01*
X146647543Y-98912484D01*
X146658500Y-98951257D01*
X146663266Y-98993549D01*
X146651213Y-99062371D01*
X146627728Y-99095115D01*
X146594194Y-99128649D01*
X146507210Y-99267082D01*
X146453212Y-99421401D01*
X146434909Y-99583853D01*
X146434909Y-99587726D01*
X146434200Y-99590137D01*
X146434129Y-99590776D01*
X146434017Y-99590763D01*
X146415224Y-99654765D01*
X146398590Y-99675407D01*
X146304192Y-99769804D01*
X146217210Y-99908234D01*
X146163212Y-100062553D01*
X146144909Y-100225005D01*
X146144909Y-100225012D01*
X146163212Y-100387464D01*
X146217210Y-100541783D01*
X146217211Y-100541784D01*
X146304192Y-100680213D01*
X146419796Y-100795817D01*
X146558225Y-100882798D01*
X146712539Y-100936795D01*
X146712542Y-100936795D01*
X146712544Y-100936796D01*
X146874996Y-100955100D01*
X146875000Y-100955100D01*
X146875004Y-100955100D01*
X147037455Y-100936796D01*
X147037456Y-100936795D01*
X147037461Y-100936795D01*
X147191775Y-100882798D01*
X147330204Y-100795817D01*
X147445808Y-100680213D01*
X147532789Y-100541784D01*
X147586786Y-100387470D01*
X147593797Y-100325245D01*
X147605345Y-100222758D01*
X147632411Y-100158344D01*
X147690006Y-100118788D01*
X147759843Y-100116651D01*
X147816246Y-100148960D01*
X149393181Y-101725895D01*
X149426666Y-101787218D01*
X149429500Y-101813576D01*
X149429500Y-104379940D01*
X149409815Y-104446979D01*
X149393181Y-104467621D01*
X149388064Y-104472737D01*
X149292091Y-104625476D01*
X149232511Y-104795745D01*
X149232510Y-104795750D01*
X149212315Y-104974996D01*
X149212315Y-104975003D01*
X149232510Y-105154249D01*
X149232511Y-105154254D01*
X149292091Y-105324523D01*
X149337498Y-105396787D01*
X149388064Y-105477262D01*
X149515618Y-105604816D01*
X149605960Y-105661582D01*
X149666341Y-105699522D01*
X149668358Y-105700789D01*
X149780417Y-105740000D01*
X149838625Y-105760368D01*
X149838630Y-105760369D01*
X150017876Y-105780565D01*
X150017880Y-105780565D01*
X150017884Y-105780565D01*
X150197129Y-105760369D01*
X150197132Y-105760368D01*
X150197135Y-105760368D01*
X150367402Y-105700789D01*
X150520142Y-105604816D01*
X150647696Y-105477262D01*
X150743669Y-105324522D01*
X150803248Y-105154255D01*
X150804356Y-105144426D01*
X150819529Y-105009752D01*
X150823445Y-104975000D01*
X150823445Y-104974996D01*
X150824055Y-104969580D01*
X150825476Y-104953951D01*
X150827153Y-104944800D01*
X150834358Y-104905486D01*
X150830847Y-104847455D01*
X150830726Y-104845445D01*
X150830500Y-104837958D01*
X150830500Y-101496977D01*
X150830726Y-101489489D01*
X150834358Y-101429451D01*
X150823514Y-101370278D01*
X150822387Y-101362872D01*
X150821420Y-101354909D01*
X150815140Y-101303185D01*
X150811548Y-101293713D01*
X150805521Y-101272091D01*
X150803695Y-101262128D01*
X150803693Y-101262120D01*
X150779008Y-101207276D01*
X150776153Y-101200386D01*
X150754818Y-101144127D01*
X150749063Y-101135790D01*
X150738036Y-101116239D01*
X150733879Y-101107003D01*
X150733878Y-101107000D01*
X150733874Y-101106995D01*
X150729996Y-101100579D01*
X150731133Y-101099891D01*
X150708204Y-101042317D01*
X150721549Y-100973733D01*
X150769855Y-100923252D01*
X150776517Y-100919792D01*
X150777823Y-100919037D01*
X150777830Y-100919035D01*
X150971401Y-100783495D01*
X151138495Y-100616401D01*
X151274035Y-100422830D01*
X151373903Y-100208663D01*
X151425725Y-100015257D01*
X151462090Y-99955597D01*
X151524936Y-99925068D01*
X151594312Y-99933362D01*
X151648190Y-99977848D01*
X151669465Y-100044399D01*
X151669500Y-100047351D01*
X151669500Y-107678353D01*
X151649815Y-107745392D01*
X151597011Y-107791147D01*
X151527853Y-107801091D01*
X151464297Y-107772066D01*
X151440507Y-107744325D01*
X151379820Y-107647743D01*
X151379815Y-107647737D01*
X151252262Y-107520184D01*
X151099523Y-107424211D01*
X150929254Y-107364631D01*
X150929249Y-107364630D01*
X150750004Y-107344435D01*
X150749996Y-107344435D01*
X150570750Y-107364630D01*
X150570745Y-107364631D01*
X150400476Y-107424211D01*
X150247737Y-107520184D01*
X150120184Y-107647737D01*
X150024211Y-107800476D01*
X149964631Y-107970745D01*
X149964630Y-107970750D01*
X149944435Y-108149996D01*
X149944435Y-108150003D01*
X149964630Y-108329249D01*
X149964631Y-108329254D01*
X150024211Y-108499523D01*
X150093880Y-108610399D01*
X150120184Y-108652262D01*
X150247738Y-108779816D01*
X150400478Y-108875789D01*
X150570745Y-108935368D01*
X150570750Y-108935369D01*
X150749996Y-108955565D01*
X150750000Y-108955565D01*
X150750004Y-108955565D01*
X150929249Y-108935369D01*
X150929252Y-108935368D01*
X150929255Y-108935368D01*
X151099522Y-108875789D01*
X151252262Y-108779816D01*
X151379816Y-108652262D01*
X151440506Y-108555673D01*
X151492841Y-108509383D01*
X151561894Y-108498735D01*
X151625743Y-108527110D01*
X151664115Y-108585499D01*
X151669500Y-108621646D01*
X151669500Y-111567727D01*
X151649815Y-111634766D01*
X151597011Y-111680521D01*
X151548080Y-111691700D01*
X143370303Y-111861909D01*
X143302869Y-111843624D01*
X143256025Y-111791783D01*
X143244503Y-111751819D01*
X143235369Y-111670750D01*
X143235368Y-111670745D01*
X143175788Y-111500476D01*
X143079815Y-111347737D01*
X142952262Y-111220184D01*
X142799523Y-111124211D01*
X142629254Y-111064631D01*
X142629249Y-111064630D01*
X142450004Y-111044435D01*
X142449996Y-111044435D01*
X142270750Y-111064630D01*
X142270745Y-111064631D01*
X142100476Y-111124211D01*
X141947737Y-111220184D01*
X141820184Y-111347737D01*
X141724211Y-111500476D01*
X141664631Y-111670745D01*
X141664630Y-111670749D01*
X141651182Y-111790112D01*
X141624115Y-111854526D01*
X141566521Y-111894081D01*
X141530543Y-111900201D01*
X141389972Y-111903127D01*
X141322537Y-111884842D01*
X141275693Y-111833002D01*
X141270331Y-111820053D01*
X140302850Y-109050003D01*
X141019909Y-109050003D01*
X141038212Y-109212455D01*
X141092210Y-109366774D01*
X141092211Y-109366775D01*
X141179192Y-109505204D01*
X141294796Y-109620808D01*
X141433225Y-109707789D01*
X141587539Y-109761786D01*
X141587542Y-109761786D01*
X141587544Y-109761787D01*
X141749996Y-109780091D01*
X141750000Y-109780091D01*
X141750004Y-109780091D01*
X141912455Y-109761787D01*
X141912456Y-109761786D01*
X141912461Y-109761786D01*
X142066775Y-109707789D01*
X142205204Y-109620808D01*
X142320808Y-109505204D01*
X142407789Y-109366775D01*
X142461786Y-109212461D01*
X142461787Y-109212455D01*
X142480091Y-109050003D01*
X142480091Y-109049996D01*
X142461787Y-108887544D01*
X142461786Y-108887542D01*
X142461786Y-108887539D01*
X142407789Y-108733225D01*
X142375818Y-108682343D01*
X142356818Y-108615106D01*
X142375818Y-108550400D01*
X142437789Y-108451775D01*
X142491786Y-108297461D01*
X142491787Y-108297455D01*
X142510091Y-108135003D01*
X142510091Y-108134996D01*
X142491787Y-107972544D01*
X142491786Y-107972542D01*
X142491786Y-107972539D01*
X142437789Y-107818225D01*
X142350808Y-107679796D01*
X142235204Y-107564192D01*
X142235201Y-107564190D01*
X142230881Y-107560745D01*
X142190741Y-107503556D01*
X142187891Y-107433745D01*
X142223237Y-107373475D01*
X142242218Y-107358806D01*
X142366731Y-107280570D01*
X142482335Y-107164966D01*
X142569316Y-107026537D01*
X142623313Y-106872223D01*
X142641618Y-106709762D01*
X142625030Y-106562544D01*
X142623314Y-106547306D01*
X142623313Y-106547304D01*
X142623313Y-106547301D01*
X142569316Y-106392987D01*
X142482335Y-106254558D01*
X142366731Y-106138954D01*
X142352481Y-106130000D01*
X142228301Y-106051972D01*
X142073982Y-105997974D01*
X141911531Y-105979671D01*
X141911523Y-105979671D01*
X141749071Y-105997974D01*
X141594752Y-106051972D01*
X141456322Y-106138954D01*
X141340719Y-106254557D01*
X141253737Y-106392987D01*
X141199739Y-106547306D01*
X141181436Y-106709758D01*
X141181436Y-106709765D01*
X141199739Y-106872217D01*
X141253737Y-107026536D01*
X141324905Y-107139799D01*
X141340719Y-107164966D01*
X141456323Y-107280570D01*
X141456328Y-107280573D01*
X141460644Y-107284015D01*
X141500785Y-107341203D01*
X141503635Y-107411015D01*
X141468290Y-107471285D01*
X141449305Y-107485956D01*
X141324798Y-107564190D01*
X141324795Y-107564192D01*
X141209192Y-107679795D01*
X141122210Y-107818225D01*
X141068212Y-107972544D01*
X141049909Y-108134996D01*
X141049909Y-108135003D01*
X141068212Y-108297455D01*
X141122210Y-108451775D01*
X141154181Y-108502656D01*
X141173181Y-108569893D01*
X141154181Y-108634600D01*
X141092210Y-108733225D01*
X141038212Y-108887544D01*
X141019909Y-109049996D01*
X141019909Y-109050003D01*
X140302850Y-109050003D01*
X140126291Y-108544488D01*
X140122770Y-108474709D01*
X140155673Y-108415925D01*
X140264808Y-108306791D01*
X140351789Y-108168362D01*
X140405786Y-108014048D01*
X140407139Y-108002042D01*
X140424091Y-107851590D01*
X140424091Y-107851583D01*
X140405787Y-107689131D01*
X140405786Y-107689129D01*
X140405786Y-107689126D01*
X140351789Y-107534812D01*
X140264808Y-107396383D01*
X140149204Y-107280779D01*
X140059239Y-107224250D01*
X140010774Y-107193797D01*
X139856455Y-107139799D01*
X139704114Y-107122635D01*
X139639700Y-107095569D01*
X139600933Y-107040303D01*
X139405539Y-106480861D01*
X139398882Y-106448234D01*
X139288726Y-104795900D01*
X139303907Y-104727703D01*
X139353551Y-104678537D01*
X139411183Y-104663661D01*
X139814964Y-104659541D01*
X139882197Y-104678540D01*
X139928489Y-104730874D01*
X139939446Y-104769650D01*
X139948212Y-104847455D01*
X140002210Y-105001774D01*
X140037190Y-105057444D01*
X140089192Y-105140204D01*
X140204796Y-105255808D01*
X140343225Y-105342789D01*
X140497539Y-105396786D01*
X140497542Y-105396786D01*
X140497544Y-105396787D01*
X140659996Y-105415091D01*
X140660000Y-105415091D01*
X140660004Y-105415091D01*
X140822455Y-105396787D01*
X140822456Y-105396786D01*
X140822461Y-105396786D01*
X140976775Y-105342789D01*
X141115204Y-105255808D01*
X141230808Y-105140204D01*
X141317789Y-105001775D01*
X141371786Y-104847461D01*
X141377613Y-104795750D01*
X141390091Y-104685002D01*
X141390091Y-104684998D01*
X141388263Y-104668776D01*
X141400317Y-104599954D01*
X141417285Y-104576300D01*
X141416467Y-104575648D01*
X141420807Y-104570205D01*
X141450758Y-104522539D01*
X141507789Y-104431775D01*
X141561786Y-104277461D01*
X141570514Y-104200003D01*
X144969909Y-104200003D01*
X144988212Y-104362455D01*
X145042210Y-104516774D01*
X145075783Y-104570204D01*
X145129192Y-104655204D01*
X145244796Y-104770808D01*
X145383225Y-104857789D01*
X145515515Y-104904079D01*
X145572289Y-104944800D01*
X145598037Y-105009752D01*
X145584581Y-105078314D01*
X145540533Y-105126113D01*
X145511388Y-105144426D01*
X145395786Y-105260028D01*
X145308804Y-105398458D01*
X145254806Y-105552777D01*
X145236503Y-105715229D01*
X145236503Y-105715236D01*
X145254806Y-105877688D01*
X145308804Y-106032007D01*
X145395786Y-106170437D01*
X145453367Y-106228018D01*
X145486852Y-106289341D01*
X145481868Y-106359033D01*
X145439996Y-106414966D01*
X145431658Y-106420693D01*
X145319795Y-106490981D01*
X145204192Y-106606584D01*
X145117210Y-106745014D01*
X145063212Y-106899333D01*
X145044909Y-107061785D01*
X145044909Y-107061792D01*
X145063212Y-107224244D01*
X145117210Y-107378563D01*
X145153794Y-107436786D01*
X145204192Y-107516993D01*
X145319796Y-107632597D01*
X145458225Y-107719578D01*
X145612539Y-107773575D01*
X145612542Y-107773575D01*
X145612544Y-107773576D01*
X145774996Y-107791880D01*
X145775000Y-107791880D01*
X145775004Y-107791880D01*
X145937455Y-107773576D01*
X145937456Y-107773575D01*
X145937461Y-107773575D01*
X146091775Y-107719578D01*
X146230204Y-107632597D01*
X146345808Y-107516993D01*
X146430836Y-107381672D01*
X146483170Y-107335382D01*
X146549713Y-107324425D01*
X146599998Y-107330091D01*
X146600000Y-107330091D01*
X146600004Y-107330091D01*
X146762455Y-107311787D01*
X146762456Y-107311786D01*
X146762461Y-107311786D01*
X146916775Y-107257789D01*
X147055204Y-107170808D01*
X147170808Y-107055204D01*
X147170811Y-107055198D01*
X147175151Y-107049758D01*
X147177190Y-107051384D01*
X147220540Y-107013021D01*
X147289591Y-107002355D01*
X147353446Y-107030714D01*
X147378222Y-107059299D01*
X147401012Y-107095569D01*
X147454192Y-107180204D01*
X147569796Y-107295808D01*
X147708225Y-107382789D01*
X147862539Y-107436786D01*
X147862542Y-107436786D01*
X147862544Y-107436787D01*
X148024996Y-107455091D01*
X148025000Y-107455091D01*
X148025004Y-107455091D01*
X148187455Y-107436787D01*
X148187456Y-107436786D01*
X148187461Y-107436786D01*
X148341775Y-107382789D01*
X148480204Y-107295808D01*
X148595808Y-107180204D01*
X148682789Y-107041775D01*
X148736786Y-106887461D01*
X148747788Y-106789820D01*
X148755091Y-106725003D01*
X148755091Y-106724996D01*
X148736787Y-106562544D01*
X148736786Y-106562542D01*
X148736786Y-106562539D01*
X148682789Y-106408225D01*
X148595808Y-106269796D01*
X148480204Y-106154192D01*
X148441703Y-106130000D01*
X148341774Y-106067210D01*
X148187455Y-106013212D01*
X148025004Y-105994909D01*
X148024996Y-105994909D01*
X147862544Y-106013212D01*
X147708225Y-106067210D01*
X147569795Y-106154192D01*
X147454192Y-106269795D01*
X147449849Y-106275242D01*
X147447819Y-106273623D01*
X147404386Y-106312012D01*
X147335329Y-106322633D01*
X147271491Y-106294233D01*
X147246777Y-106265700D01*
X147239776Y-106254558D01*
X147170808Y-106144796D01*
X147055204Y-106029192D01*
X146916775Y-105942211D01*
X146773765Y-105892169D01*
X146716990Y-105851448D01*
X146691243Y-105786495D01*
X146691501Y-105761244D01*
X146696685Y-105715235D01*
X146696685Y-105715229D01*
X146678381Y-105552777D01*
X146678380Y-105552775D01*
X146678380Y-105552772D01*
X146624383Y-105398458D01*
X146537402Y-105260029D01*
X146421798Y-105144425D01*
X146392655Y-105126113D01*
X146283368Y-105057443D01*
X146151080Y-105011154D01*
X146094303Y-104970432D01*
X146068556Y-104905479D01*
X146082012Y-104836918D01*
X146126061Y-104789119D01*
X146155204Y-104770808D01*
X146270808Y-104655204D01*
X146357789Y-104516775D01*
X146411786Y-104362461D01*
X146411787Y-104362455D01*
X146430091Y-104200003D01*
X146430091Y-104199996D01*
X146411787Y-104037544D01*
X146411786Y-104037542D01*
X146411786Y-104037539D01*
X146357789Y-103883225D01*
X146357789Y-103883224D01*
X146356238Y-103880756D01*
X146355722Y-103878931D01*
X146354769Y-103876952D01*
X146355115Y-103876785D01*
X146337235Y-103813520D01*
X146357600Y-103746684D01*
X146410867Y-103701468D01*
X146480123Y-103692228D01*
X146502175Y-103697735D01*
X146622539Y-103739853D01*
X146622545Y-103739853D01*
X146622546Y-103739854D01*
X146784996Y-103758158D01*
X146785000Y-103758158D01*
X146785004Y-103758158D01*
X146947455Y-103739854D01*
X146947456Y-103739853D01*
X146947461Y-103739853D01*
X147101775Y-103685856D01*
X147240204Y-103598875D01*
X147355808Y-103483271D01*
X147442789Y-103344842D01*
X147496786Y-103190528D01*
X147499398Y-103167346D01*
X147515091Y-103028070D01*
X147515091Y-103028063D01*
X147496787Y-102865611D01*
X147496786Y-102865609D01*
X147496786Y-102865606D01*
X147442789Y-102711292D01*
X147355808Y-102572863D01*
X147240204Y-102457259D01*
X147123284Y-102383793D01*
X147101774Y-102370277D01*
X146947455Y-102316279D01*
X146785004Y-102297976D01*
X146784996Y-102297976D01*
X146622544Y-102316279D01*
X146468225Y-102370277D01*
X146329795Y-102457259D01*
X146214192Y-102572862D01*
X146127210Y-102711292D01*
X146073212Y-102865611D01*
X146054909Y-103028063D01*
X146054909Y-103028070D01*
X146073212Y-103190522D01*
X146127210Y-103344841D01*
X146128764Y-103347314D01*
X146129280Y-103349140D01*
X146130231Y-103351115D01*
X146129885Y-103351281D01*
X146147764Y-103414550D01*
X146127396Y-103481386D01*
X146074129Y-103526600D01*
X146004872Y-103535838D01*
X145982816Y-103530328D01*
X145862455Y-103488212D01*
X145700004Y-103469909D01*
X145699996Y-103469909D01*
X145537544Y-103488212D01*
X145383225Y-103542210D01*
X145244795Y-103629192D01*
X145129192Y-103744795D01*
X145042210Y-103883225D01*
X144988212Y-104037544D01*
X144969909Y-104199996D01*
X144969909Y-104200003D01*
X141570514Y-104200003D01*
X141579252Y-104122447D01*
X141606318Y-104058033D01*
X141614791Y-104048649D01*
X141625901Y-104037539D01*
X141724115Y-103939325D01*
X141811096Y-103800896D01*
X141865093Y-103646582D01*
X141865094Y-103646576D01*
X141883398Y-103484124D01*
X141883398Y-103484117D01*
X141865094Y-103321665D01*
X141865093Y-103321663D01*
X141865093Y-103321660D01*
X141811096Y-103167346D01*
X141724115Y-103028917D01*
X141608511Y-102913313D01*
X141470081Y-102826331D01*
X141336181Y-102779478D01*
X141279405Y-102738756D01*
X141260093Y-102703389D01*
X141247789Y-102668225D01*
X141247789Y-102668224D01*
X141160807Y-102529795D01*
X141143441Y-102512429D01*
X141109956Y-102451106D01*
X141114081Y-102383793D01*
X141118810Y-102370278D01*
X141161786Y-102247461D01*
X141161786Y-102247459D01*
X141161787Y-102247457D01*
X141180091Y-102085003D01*
X141180091Y-102084996D01*
X141161787Y-101922544D01*
X141161786Y-101922542D01*
X141161786Y-101922539D01*
X141107789Y-101768225D01*
X141086895Y-101734972D01*
X141067895Y-101667735D01*
X141088263Y-101600900D01*
X141141531Y-101555686D01*
X141191889Y-101545000D01*
X141200000Y-101545000D01*
X141200000Y-101544999D01*
X141174866Y-100605003D01*
X142934435Y-100605003D01*
X142954630Y-100784249D01*
X142954631Y-100784254D01*
X143014211Y-100954523D01*
X143069376Y-101042317D01*
X143110184Y-101107262D01*
X143237738Y-101234816D01*
X143281192Y-101262120D01*
X143346546Y-101303185D01*
X143390478Y-101330789D01*
X143472344Y-101359435D01*
X143560745Y-101390368D01*
X143560750Y-101390369D01*
X143739996Y-101410565D01*
X143740000Y-101410565D01*
X143740004Y-101410565D01*
X143919249Y-101390369D01*
X143919252Y-101390368D01*
X143919255Y-101390368D01*
X144089522Y-101330789D01*
X144242262Y-101234816D01*
X144369816Y-101107262D01*
X144465789Y-100954522D01*
X144525368Y-100784255D01*
X144525369Y-100784249D01*
X144545565Y-100605003D01*
X144545565Y-100604996D01*
X144525369Y-100425753D01*
X144525368Y-100425746D01*
X144524348Y-100422830D01*
X144490199Y-100325240D01*
X144486637Y-100255466D01*
X144490193Y-100243355D01*
X144535368Y-100114255D01*
X144550737Y-99977848D01*
X144555565Y-99935003D01*
X144555565Y-99934996D01*
X144535369Y-99755750D01*
X144535366Y-99755737D01*
X144488451Y-99621664D01*
X144484888Y-99551886D01*
X144488443Y-99539778D01*
X144525368Y-99434255D01*
X144529802Y-99394900D01*
X144545565Y-99255003D01*
X144545565Y-99254996D01*
X144525369Y-99075750D01*
X144525368Y-99075745D01*
X144507989Y-99026079D01*
X144465789Y-98905478D01*
X144369816Y-98752738D01*
X144242262Y-98625184D01*
X144170429Y-98580048D01*
X144089523Y-98529211D01*
X143919254Y-98469631D01*
X143919249Y-98469630D01*
X143740004Y-98449435D01*
X143739996Y-98449435D01*
X143560750Y-98469630D01*
X143560745Y-98469631D01*
X143390476Y-98529211D01*
X143237737Y-98625184D01*
X143110184Y-98752737D01*
X143014211Y-98905476D01*
X142954631Y-99075745D01*
X142954630Y-99075750D01*
X142934435Y-99254996D01*
X142934435Y-99255003D01*
X142954630Y-99434249D01*
X142954631Y-99434254D01*
X143001548Y-99568333D01*
X143005109Y-99638112D01*
X143001548Y-99650242D01*
X142964631Y-99755747D01*
X142944435Y-99934996D01*
X142944435Y-99935003D01*
X142964630Y-100114249D01*
X142964632Y-100114257D01*
X142999798Y-100214756D01*
X143003359Y-100284535D01*
X142999798Y-100296664D01*
X142954631Y-100425747D01*
X142934435Y-100604996D01*
X142934435Y-100605003D01*
X141174866Y-100605003D01*
X141150000Y-99675000D01*
X138725687Y-99394900D01*
X138661350Y-99367651D01*
X138621958Y-99309944D01*
X138619479Y-99301219D01*
X138608157Y-99254996D01*
X137377998Y-94232581D01*
X137381169Y-94162784D01*
X137421572Y-94105781D01*
X137457486Y-94086040D01*
X137466772Y-94082790D01*
X137466771Y-94082790D01*
X137466775Y-94082789D01*
X137605204Y-93995808D01*
X137720808Y-93880204D01*
X137807789Y-93741775D01*
X137861786Y-93587461D01*
X137866207Y-93548227D01*
X137880091Y-93425003D01*
X137880091Y-93424996D01*
X137861787Y-93262544D01*
X137861786Y-93262542D01*
X137861786Y-93262539D01*
X137807789Y-93108225D01*
X137720808Y-92969796D01*
X137605204Y-92854192D01*
X137466774Y-92767210D01*
X137312455Y-92713212D01*
X137150004Y-92694909D01*
X137149996Y-92694909D01*
X137113736Y-92698994D01*
X137044914Y-92686939D01*
X136993536Y-92639589D01*
X136979416Y-92605280D01*
X136905868Y-92305003D01*
X143479909Y-92305003D01*
X143498212Y-92467455D01*
X143552210Y-92621774D01*
X143552211Y-92621775D01*
X143639192Y-92760204D01*
X143754796Y-92875808D01*
X143893225Y-92962789D01*
X144047539Y-93016786D01*
X144047542Y-93016786D01*
X144047544Y-93016787D01*
X144209996Y-93035091D01*
X144210000Y-93035091D01*
X144210004Y-93035091D01*
X144372455Y-93016787D01*
X144372456Y-93016786D01*
X144372461Y-93016786D01*
X144526775Y-92962789D01*
X144665204Y-92875808D01*
X144780808Y-92760204D01*
X144867789Y-92621775D01*
X144921786Y-92467461D01*
X144924162Y-92446372D01*
X144940091Y-92305003D01*
X144940091Y-92304996D01*
X144921787Y-92142544D01*
X144921786Y-92142542D01*
X144921786Y-92142539D01*
X144867789Y-91988225D01*
X144780808Y-91849796D01*
X144665204Y-91734192D01*
X144526774Y-91647210D01*
X144372455Y-91593212D01*
X144210004Y-91574909D01*
X144209996Y-91574909D01*
X144047544Y-91593212D01*
X143893225Y-91647210D01*
X143754795Y-91734192D01*
X143639192Y-91849795D01*
X143552210Y-91988225D01*
X143498212Y-92142544D01*
X143479909Y-92304996D01*
X143479909Y-92305003D01*
X136905868Y-92305003D01*
X136379260Y-90155003D01*
X140729909Y-90155003D01*
X140748212Y-90317455D01*
X140802210Y-90471774D01*
X140802211Y-90471775D01*
X140889192Y-90610204D01*
X141004796Y-90725808D01*
X141143225Y-90812789D01*
X141297539Y-90866786D01*
X141297542Y-90866786D01*
X141297544Y-90866787D01*
X141459996Y-90885091D01*
X141460000Y-90885091D01*
X141460004Y-90885091D01*
X141622455Y-90866787D01*
X141622456Y-90866786D01*
X141622461Y-90866786D01*
X141776775Y-90812789D01*
X141915204Y-90725808D01*
X142030808Y-90610204D01*
X142117789Y-90471775D01*
X142171786Y-90317461D01*
X142180944Y-90236182D01*
X142208010Y-90171767D01*
X142265604Y-90132212D01*
X142318047Y-90126844D01*
X142479996Y-90145091D01*
X142480000Y-90145091D01*
X142480004Y-90145091D01*
X142642455Y-90126787D01*
X142642456Y-90126786D01*
X142642461Y-90126786D01*
X142796775Y-90072789D01*
X142935204Y-89985808D01*
X143050808Y-89870204D01*
X143137789Y-89731775D01*
X143191786Y-89577461D01*
X143201551Y-89490798D01*
X143210091Y-89415003D01*
X143210091Y-89414996D01*
X143191787Y-89252544D01*
X143191786Y-89252542D01*
X143191786Y-89252539D01*
X143137789Y-89098225D01*
X143050808Y-88959796D01*
X142935204Y-88844192D01*
X142796774Y-88757210D01*
X142642455Y-88703212D01*
X142480004Y-88684909D01*
X142479996Y-88684909D01*
X142317544Y-88703212D01*
X142163225Y-88757210D01*
X142024795Y-88844192D01*
X141909192Y-88959795D01*
X141822210Y-89098225D01*
X141768212Y-89252544D01*
X141759055Y-89333819D01*
X141731988Y-89398233D01*
X141674393Y-89437788D01*
X141621952Y-89443155D01*
X141460004Y-89424909D01*
X141459996Y-89424909D01*
X141297544Y-89443212D01*
X141143225Y-89497210D01*
X141004795Y-89584192D01*
X140889192Y-89699795D01*
X140802210Y-89838225D01*
X140748212Y-89992544D01*
X140729909Y-90154996D01*
X140729909Y-90155003D01*
X136379260Y-90155003D01*
X135897786Y-88189270D01*
X135900957Y-88119474D01*
X135941360Y-88062471D01*
X136006167Y-88036360D01*
X136018813Y-88035773D01*
X136861401Y-88039878D01*
G37*
%TD.AperFunction*%
%TD*%
M02*
