%TF.GenerationSoftware,KiCad,Pcbnew,7.0.11-7.0.11~ubuntu22.04.1*%
%TF.CreationDate,2024-10-26T23:49:30+02:00*%
%TF.ProjectId,C6-40-Flash-test,43362d34-302d-4466-9c61-73682d746573,1.0*%
%TF.SameCoordinates,Original*%
%TF.FileFunction,Legend,Top*%
%TF.FilePolarity,Positive*%
%FSLAX46Y46*%
G04 Gerber Fmt 4.6, Leading zero omitted, Abs format (unit mm)*
G04 Created by KiCad (PCBNEW 7.0.11-7.0.11~ubuntu22.04.1) date 2024-10-26 23:49:30*
%MOMM*%
%LPD*%
G01*
G04 APERTURE LIST*
%ADD10C,0.100000*%
%ADD11C,0.254000*%
%ADD12C,0.150000*%
%ADD13C,0.140000*%
%ADD14C,0.120000*%
%ADD15C,0.200000*%
%ADD16C,0.152400*%
G04 APERTURE END LIST*
D10*
X142501503Y-108584657D02*
X141987217Y-108584657D01*
X142244360Y-108584657D02*
X142244360Y-107684657D01*
X142244360Y-107684657D02*
X142158646Y-107813228D01*
X142158646Y-107813228D02*
X142072931Y-107898942D01*
X142072931Y-107898942D02*
X141987217Y-107941800D01*
X143272932Y-107684657D02*
X143101503Y-107684657D01*
X143101503Y-107684657D02*
X143015789Y-107727514D01*
X143015789Y-107727514D02*
X142972932Y-107770371D01*
X142972932Y-107770371D02*
X142887217Y-107898942D01*
X142887217Y-107898942D02*
X142844360Y-108070371D01*
X142844360Y-108070371D02*
X142844360Y-108413228D01*
X142844360Y-108413228D02*
X142887217Y-108498942D01*
X142887217Y-108498942D02*
X142930074Y-108541800D01*
X142930074Y-108541800D02*
X143015789Y-108584657D01*
X143015789Y-108584657D02*
X143187217Y-108584657D01*
X143187217Y-108584657D02*
X143272932Y-108541800D01*
X143272932Y-108541800D02*
X143315789Y-108498942D01*
X143315789Y-108498942D02*
X143358646Y-108413228D01*
X143358646Y-108413228D02*
X143358646Y-108198942D01*
X143358646Y-108198942D02*
X143315789Y-108113228D01*
X143315789Y-108113228D02*
X143272932Y-108070371D01*
X143272932Y-108070371D02*
X143187217Y-108027514D01*
X143187217Y-108027514D02*
X143015789Y-108027514D01*
X143015789Y-108027514D02*
X142930074Y-108070371D01*
X142930074Y-108070371D02*
X142887217Y-108113228D01*
X142887217Y-108113228D02*
X142844360Y-108198942D01*
X143744360Y-108584657D02*
X143744360Y-107684657D01*
X143744360Y-107684657D02*
X144044360Y-108327514D01*
X144044360Y-108327514D02*
X144344360Y-107684657D01*
X144344360Y-107684657D02*
X144344360Y-108584657D01*
X144772931Y-108584657D02*
X144772931Y-107684657D01*
X144772931Y-108027514D02*
X144858646Y-107984657D01*
X144858646Y-107984657D02*
X145030074Y-107984657D01*
X145030074Y-107984657D02*
X145115788Y-108027514D01*
X145115788Y-108027514D02*
X145158646Y-108070371D01*
X145158646Y-108070371D02*
X145201503Y-108156085D01*
X145201503Y-108156085D02*
X145201503Y-108413228D01*
X145201503Y-108413228D02*
X145158646Y-108498942D01*
X145158646Y-108498942D02*
X145115788Y-108541800D01*
X145115788Y-108541800D02*
X145030074Y-108584657D01*
X145030074Y-108584657D02*
X144858646Y-108584657D01*
X144858646Y-108584657D02*
X144772931Y-108541800D01*
X146918169Y-91978800D02*
X147032455Y-92016895D01*
X147032455Y-92016895D02*
X147222931Y-92016895D01*
X147222931Y-92016895D02*
X147299122Y-91978800D01*
X147299122Y-91978800D02*
X147337217Y-91940704D01*
X147337217Y-91940704D02*
X147375312Y-91864514D01*
X147375312Y-91864514D02*
X147375312Y-91788323D01*
X147375312Y-91788323D02*
X147337217Y-91712133D01*
X147337217Y-91712133D02*
X147299122Y-91674038D01*
X147299122Y-91674038D02*
X147222931Y-91635942D01*
X147222931Y-91635942D02*
X147070550Y-91597847D01*
X147070550Y-91597847D02*
X146994360Y-91559752D01*
X146994360Y-91559752D02*
X146956265Y-91521657D01*
X146956265Y-91521657D02*
X146918169Y-91445466D01*
X146918169Y-91445466D02*
X146918169Y-91369276D01*
X146918169Y-91369276D02*
X146956265Y-91293085D01*
X146956265Y-91293085D02*
X146994360Y-91254990D01*
X146994360Y-91254990D02*
X147070550Y-91216895D01*
X147070550Y-91216895D02*
X147261027Y-91216895D01*
X147261027Y-91216895D02*
X147375312Y-91254990D01*
X147718170Y-92016895D02*
X147718170Y-91216895D01*
X147718170Y-91216895D02*
X148022932Y-91216895D01*
X148022932Y-91216895D02*
X148099122Y-91254990D01*
X148099122Y-91254990D02*
X148137217Y-91293085D01*
X148137217Y-91293085D02*
X148175313Y-91369276D01*
X148175313Y-91369276D02*
X148175313Y-91483561D01*
X148175313Y-91483561D02*
X148137217Y-91559752D01*
X148137217Y-91559752D02*
X148099122Y-91597847D01*
X148099122Y-91597847D02*
X148022932Y-91635942D01*
X148022932Y-91635942D02*
X147718170Y-91635942D01*
X148518170Y-92016895D02*
X148518170Y-91216895D01*
X136330074Y-96772419D02*
X135853884Y-96772419D01*
X135853884Y-96772419D02*
X135806265Y-97248609D01*
X135806265Y-97248609D02*
X135853884Y-97200990D01*
X135853884Y-97200990D02*
X135949122Y-97153371D01*
X135949122Y-97153371D02*
X136187217Y-97153371D01*
X136187217Y-97153371D02*
X136282455Y-97200990D01*
X136282455Y-97200990D02*
X136330074Y-97248609D01*
X136330074Y-97248609D02*
X136377693Y-97343847D01*
X136377693Y-97343847D02*
X136377693Y-97581942D01*
X136377693Y-97581942D02*
X136330074Y-97677180D01*
X136330074Y-97677180D02*
X136282455Y-97724800D01*
X136282455Y-97724800D02*
X136187217Y-97772419D01*
X136187217Y-97772419D02*
X135949122Y-97772419D01*
X135949122Y-97772419D02*
X135853884Y-97724800D01*
X135853884Y-97724800D02*
X135806265Y-97677180D01*
X146640074Y-89346895D02*
X147135312Y-89346895D01*
X147135312Y-89346895D02*
X146868646Y-89651657D01*
X146868646Y-89651657D02*
X146982931Y-89651657D01*
X146982931Y-89651657D02*
X147059122Y-89689752D01*
X147059122Y-89689752D02*
X147097217Y-89727847D01*
X147097217Y-89727847D02*
X147135312Y-89804038D01*
X147135312Y-89804038D02*
X147135312Y-89994514D01*
X147135312Y-89994514D02*
X147097217Y-90070704D01*
X147097217Y-90070704D02*
X147059122Y-90108800D01*
X147059122Y-90108800D02*
X146982931Y-90146895D01*
X146982931Y-90146895D02*
X146754360Y-90146895D01*
X146754360Y-90146895D02*
X146678169Y-90108800D01*
X146678169Y-90108800D02*
X146640074Y-90070704D01*
X147363884Y-89346895D02*
X147630551Y-90146895D01*
X147630551Y-90146895D02*
X147897217Y-89346895D01*
X148087693Y-89346895D02*
X148582931Y-89346895D01*
X148582931Y-89346895D02*
X148316265Y-89651657D01*
X148316265Y-89651657D02*
X148430550Y-89651657D01*
X148430550Y-89651657D02*
X148506741Y-89689752D01*
X148506741Y-89689752D02*
X148544836Y-89727847D01*
X148544836Y-89727847D02*
X148582931Y-89804038D01*
X148582931Y-89804038D02*
X148582931Y-89994514D01*
X148582931Y-89994514D02*
X148544836Y-90070704D01*
X148544836Y-90070704D02*
X148506741Y-90108800D01*
X148506741Y-90108800D02*
X148430550Y-90146895D01*
X148430550Y-90146895D02*
X148201979Y-90146895D01*
X148201979Y-90146895D02*
X148125788Y-90108800D01*
X148125788Y-90108800D02*
X148087693Y-90070704D01*
X147785312Y-97736895D02*
X147328169Y-97736895D01*
X147556741Y-97736895D02*
X147556741Y-96936895D01*
X147556741Y-96936895D02*
X147480550Y-97051180D01*
X147480550Y-97051180D02*
X147404360Y-97127371D01*
X147404360Y-97127371D02*
X147328169Y-97165466D01*
X148471027Y-96936895D02*
X148318646Y-96936895D01*
X148318646Y-96936895D02*
X148242455Y-96974990D01*
X148242455Y-96974990D02*
X148204360Y-97013085D01*
X148204360Y-97013085D02*
X148128170Y-97127371D01*
X148128170Y-97127371D02*
X148090074Y-97279752D01*
X148090074Y-97279752D02*
X148090074Y-97584514D01*
X148090074Y-97584514D02*
X148128170Y-97660704D01*
X148128170Y-97660704D02*
X148166265Y-97698800D01*
X148166265Y-97698800D02*
X148242455Y-97736895D01*
X148242455Y-97736895D02*
X148394836Y-97736895D01*
X148394836Y-97736895D02*
X148471027Y-97698800D01*
X148471027Y-97698800D02*
X148509122Y-97660704D01*
X148509122Y-97660704D02*
X148547217Y-97584514D01*
X148547217Y-97584514D02*
X148547217Y-97394038D01*
X148547217Y-97394038D02*
X148509122Y-97317847D01*
X148509122Y-97317847D02*
X148471027Y-97279752D01*
X148471027Y-97279752D02*
X148394836Y-97241657D01*
X148394836Y-97241657D02*
X148242455Y-97241657D01*
X148242455Y-97241657D02*
X148166265Y-97279752D01*
X148166265Y-97279752D02*
X148128170Y-97317847D01*
X148128170Y-97317847D02*
X148090074Y-97394038D01*
X140405074Y-107063228D02*
X140105074Y-107063228D01*
X140105074Y-107534657D02*
X140105074Y-106634657D01*
X140105074Y-106634657D02*
X140533646Y-106634657D01*
X141305075Y-107534657D02*
X140876503Y-107534657D01*
X140876503Y-107534657D02*
X140876503Y-106634657D01*
X141562217Y-107277514D02*
X141990789Y-107277514D01*
X141476503Y-107534657D02*
X141776503Y-106634657D01*
X141776503Y-106634657D02*
X142076503Y-107534657D01*
X142333646Y-107491800D02*
X142462218Y-107534657D01*
X142462218Y-107534657D02*
X142676503Y-107534657D01*
X142676503Y-107534657D02*
X142762218Y-107491800D01*
X142762218Y-107491800D02*
X142805075Y-107448942D01*
X142805075Y-107448942D02*
X142847932Y-107363228D01*
X142847932Y-107363228D02*
X142847932Y-107277514D01*
X142847932Y-107277514D02*
X142805075Y-107191800D01*
X142805075Y-107191800D02*
X142762218Y-107148942D01*
X142762218Y-107148942D02*
X142676503Y-107106085D01*
X142676503Y-107106085D02*
X142505075Y-107063228D01*
X142505075Y-107063228D02*
X142419360Y-107020371D01*
X142419360Y-107020371D02*
X142376503Y-106977514D01*
X142376503Y-106977514D02*
X142333646Y-106891800D01*
X142333646Y-106891800D02*
X142333646Y-106806085D01*
X142333646Y-106806085D02*
X142376503Y-106720371D01*
X142376503Y-106720371D02*
X142419360Y-106677514D01*
X142419360Y-106677514D02*
X142505075Y-106634657D01*
X142505075Y-106634657D02*
X142719360Y-106634657D01*
X142719360Y-106634657D02*
X142847932Y-106677514D01*
X143233646Y-107534657D02*
X143233646Y-106634657D01*
X143233646Y-107063228D02*
X143747932Y-107063228D01*
X143747932Y-107534657D02*
X143747932Y-106634657D01*
X147504990Y-87524687D02*
X147466895Y-87600877D01*
X147466895Y-87600877D02*
X147466895Y-87715163D01*
X147466895Y-87715163D02*
X147504990Y-87829449D01*
X147504990Y-87829449D02*
X147581180Y-87905639D01*
X147581180Y-87905639D02*
X147657371Y-87943734D01*
X147657371Y-87943734D02*
X147809752Y-87981830D01*
X147809752Y-87981830D02*
X147924038Y-87981830D01*
X147924038Y-87981830D02*
X148076419Y-87943734D01*
X148076419Y-87943734D02*
X148152609Y-87905639D01*
X148152609Y-87905639D02*
X148228800Y-87829449D01*
X148228800Y-87829449D02*
X148266895Y-87715163D01*
X148266895Y-87715163D02*
X148266895Y-87638972D01*
X148266895Y-87638972D02*
X148228800Y-87524687D01*
X148228800Y-87524687D02*
X148190704Y-87486591D01*
X148190704Y-87486591D02*
X147924038Y-87486591D01*
X147924038Y-87486591D02*
X147924038Y-87638972D01*
X148266895Y-87143734D02*
X147466895Y-87143734D01*
X147466895Y-87143734D02*
X148266895Y-86686591D01*
X148266895Y-86686591D02*
X147466895Y-86686591D01*
X148266895Y-86305639D02*
X147466895Y-86305639D01*
X147466895Y-86305639D02*
X147466895Y-86115163D01*
X147466895Y-86115163D02*
X147504990Y-86000877D01*
X147504990Y-86000877D02*
X147581180Y-85924687D01*
X147581180Y-85924687D02*
X147657371Y-85886592D01*
X147657371Y-85886592D02*
X147809752Y-85848496D01*
X147809752Y-85848496D02*
X147924038Y-85848496D01*
X147924038Y-85848496D02*
X148076419Y-85886592D01*
X148076419Y-85886592D02*
X148152609Y-85924687D01*
X148152609Y-85924687D02*
X148228800Y-86000877D01*
X148228800Y-86000877D02*
X148266895Y-86115163D01*
X148266895Y-86115163D02*
X148266895Y-86305639D01*
X135680074Y-91946895D02*
X136175312Y-91946895D01*
X136175312Y-91946895D02*
X135908646Y-92251657D01*
X135908646Y-92251657D02*
X136022931Y-92251657D01*
X136022931Y-92251657D02*
X136099122Y-92289752D01*
X136099122Y-92289752D02*
X136137217Y-92327847D01*
X136137217Y-92327847D02*
X136175312Y-92404038D01*
X136175312Y-92404038D02*
X136175312Y-92594514D01*
X136175312Y-92594514D02*
X136137217Y-92670704D01*
X136137217Y-92670704D02*
X136099122Y-92708800D01*
X136099122Y-92708800D02*
X136022931Y-92746895D01*
X136022931Y-92746895D02*
X135794360Y-92746895D01*
X135794360Y-92746895D02*
X135718169Y-92708800D01*
X135718169Y-92708800D02*
X135680074Y-92670704D01*
X135791265Y-89252657D02*
X135838884Y-89205038D01*
X135838884Y-89205038D02*
X135934122Y-89157419D01*
X135934122Y-89157419D02*
X136172217Y-89157419D01*
X136172217Y-89157419D02*
X136267455Y-89205038D01*
X136267455Y-89205038D02*
X136315074Y-89252657D01*
X136315074Y-89252657D02*
X136362693Y-89347895D01*
X136362693Y-89347895D02*
X136362693Y-89443133D01*
X136362693Y-89443133D02*
X136315074Y-89585990D01*
X136315074Y-89585990D02*
X135743646Y-90157419D01*
X135743646Y-90157419D02*
X136362693Y-90157419D01*
X146651979Y-92186895D02*
X146918646Y-92986895D01*
X146918646Y-92986895D02*
X147185312Y-92186895D01*
X147794836Y-92986895D02*
X147794836Y-92186895D01*
X147794836Y-92948800D02*
X147718645Y-92986895D01*
X147718645Y-92986895D02*
X147566264Y-92986895D01*
X147566264Y-92986895D02*
X147490074Y-92948800D01*
X147490074Y-92948800D02*
X147451979Y-92910704D01*
X147451979Y-92910704D02*
X147413883Y-92834514D01*
X147413883Y-92834514D02*
X147413883Y-92605942D01*
X147413883Y-92605942D02*
X147451979Y-92529752D01*
X147451979Y-92529752D02*
X147490074Y-92491657D01*
X147490074Y-92491657D02*
X147566264Y-92453561D01*
X147566264Y-92453561D02*
X147718645Y-92453561D01*
X147718645Y-92453561D02*
X147794836Y-92491657D01*
X148518646Y-92986895D02*
X148518646Y-92186895D01*
X148518646Y-92948800D02*
X148442455Y-92986895D01*
X148442455Y-92986895D02*
X148290074Y-92986895D01*
X148290074Y-92986895D02*
X148213884Y-92948800D01*
X148213884Y-92948800D02*
X148175789Y-92910704D01*
X148175789Y-92910704D02*
X148137693Y-92834514D01*
X148137693Y-92834514D02*
X148137693Y-92605942D01*
X148137693Y-92605942D02*
X148175789Y-92529752D01*
X148175789Y-92529752D02*
X148213884Y-92491657D01*
X148213884Y-92491657D02*
X148290074Y-92453561D01*
X148290074Y-92453561D02*
X148442455Y-92453561D01*
X148442455Y-92453561D02*
X148518646Y-92491657D01*
X147845312Y-94956895D02*
X147388169Y-94956895D01*
X147616741Y-94956895D02*
X147616741Y-94156895D01*
X147616741Y-94156895D02*
X147540550Y-94271180D01*
X147540550Y-94271180D02*
X147464360Y-94347371D01*
X147464360Y-94347371D02*
X147388169Y-94385466D01*
X148111979Y-94156895D02*
X148645313Y-94156895D01*
X148645313Y-94156895D02*
X148302455Y-94956895D01*
X135969360Y-84047419D02*
X136064598Y-84047419D01*
X136064598Y-84047419D02*
X136159836Y-84095038D01*
X136159836Y-84095038D02*
X136207455Y-84142657D01*
X136207455Y-84142657D02*
X136255074Y-84237895D01*
X136255074Y-84237895D02*
X136302693Y-84428371D01*
X136302693Y-84428371D02*
X136302693Y-84666466D01*
X136302693Y-84666466D02*
X136255074Y-84856942D01*
X136255074Y-84856942D02*
X136207455Y-84952180D01*
X136207455Y-84952180D02*
X136159836Y-84999800D01*
X136159836Y-84999800D02*
X136064598Y-85047419D01*
X136064598Y-85047419D02*
X135969360Y-85047419D01*
X135969360Y-85047419D02*
X135874122Y-84999800D01*
X135874122Y-84999800D02*
X135826503Y-84952180D01*
X135826503Y-84952180D02*
X135778884Y-84856942D01*
X135778884Y-84856942D02*
X135731265Y-84666466D01*
X135731265Y-84666466D02*
X135731265Y-84428371D01*
X135731265Y-84428371D02*
X135778884Y-84237895D01*
X135778884Y-84237895D02*
X135826503Y-84142657D01*
X135826503Y-84142657D02*
X135874122Y-84095038D01*
X135874122Y-84095038D02*
X135969360Y-84047419D01*
X136302693Y-87567419D02*
X135731265Y-87567419D01*
X136016979Y-87567419D02*
X136016979Y-86567419D01*
X136016979Y-86567419D02*
X135921741Y-86710276D01*
X135921741Y-86710276D02*
X135826503Y-86805514D01*
X135826503Y-86805514D02*
X135731265Y-86853133D01*
G36*
X143062837Y-104853939D02*
G01*
X143113267Y-104904369D01*
X143166265Y-105010364D01*
X143166265Y-105296282D01*
X143113267Y-105402278D01*
X143062838Y-105452706D01*
X142956843Y-105505704D01*
X142732831Y-105505704D01*
X142626832Y-105452705D01*
X142576405Y-105402278D01*
X142523408Y-105296281D01*
X142523408Y-105010363D01*
X142576405Y-104904368D01*
X142626834Y-104853940D01*
X142732830Y-104800942D01*
X142956843Y-104800942D01*
X143062837Y-104853939D01*
G37*
G36*
X143451979Y-105791418D02*
G01*
X140937694Y-105791418D01*
X140937694Y-104998561D01*
X141123408Y-104998561D01*
X141125834Y-105004417D01*
X141124901Y-105010688D01*
X141186805Y-105258307D01*
X141190188Y-105262873D01*
X141190591Y-105268541D01*
X141252496Y-105392351D01*
X141258712Y-105397742D01*
X141261862Y-105405345D01*
X141385672Y-105529155D01*
X141396423Y-105533608D01*
X141405216Y-105541234D01*
X141590930Y-105603138D01*
X141599138Y-105602554D01*
X141606741Y-105605704D01*
X141730550Y-105605704D01*
X141738152Y-105602554D01*
X141746361Y-105603138D01*
X141932076Y-105541234D01*
X141940867Y-105533609D01*
X141951621Y-105529155D01*
X142013524Y-105467250D01*
X142028168Y-105431895D01*
X142013524Y-105396540D01*
X141978168Y-105381896D01*
X141942813Y-105396540D01*
X141889255Y-105450098D01*
X141722437Y-105505704D01*
X141614855Y-105505704D01*
X141448035Y-105450098D01*
X141338309Y-105340372D01*
X141322165Y-105308085D01*
X142423408Y-105308085D01*
X142427861Y-105318835D01*
X142428686Y-105330445D01*
X142490590Y-105454255D01*
X142496807Y-105459647D01*
X142499957Y-105467250D01*
X142561862Y-105529155D01*
X142569464Y-105532303D01*
X142574857Y-105538522D01*
X142698666Y-105600425D01*
X142710273Y-105601249D01*
X142721027Y-105605704D01*
X142968646Y-105605704D01*
X142979398Y-105601250D01*
X142991007Y-105600425D01*
X143114815Y-105538522D01*
X143120207Y-105532304D01*
X143127810Y-105529155D01*
X143189715Y-105467250D01*
X143192864Y-105459647D01*
X143199081Y-105454256D01*
X143260986Y-105330445D01*
X143261810Y-105318837D01*
X143266265Y-105308085D01*
X143266265Y-104998561D01*
X143261811Y-104987808D01*
X143260986Y-104976200D01*
X143199081Y-104852391D01*
X143192864Y-104846999D01*
X143189715Y-104839397D01*
X143127810Y-104777492D01*
X143120207Y-104774342D01*
X143114816Y-104768126D01*
X142991007Y-104706221D01*
X142979398Y-104705395D01*
X142968646Y-104700942D01*
X142721027Y-104700942D01*
X142710274Y-104705396D01*
X142698667Y-104706221D01*
X142574856Y-104768126D01*
X142569464Y-104774342D01*
X142561862Y-104777492D01*
X142524426Y-104814927D01*
X142581718Y-104585756D01*
X142697980Y-104411365D01*
X142750644Y-104358701D01*
X142856639Y-104305704D01*
X143092455Y-104305704D01*
X143127810Y-104291059D01*
X143142455Y-104255704D01*
X143127810Y-104220349D01*
X143092455Y-104205704D01*
X142844836Y-104205704D01*
X142834083Y-104210157D01*
X142822475Y-104210983D01*
X142698666Y-104272888D01*
X142693274Y-104279104D01*
X142685672Y-104282254D01*
X142623767Y-104344159D01*
X142621797Y-104348914D01*
X142617520Y-104351779D01*
X142493710Y-104537493D01*
X142492012Y-104546072D01*
X142486805Y-104553101D01*
X142424901Y-104800720D01*
X142425834Y-104806990D01*
X142423408Y-104812847D01*
X142423408Y-105308085D01*
X141322165Y-105308085D01*
X141282487Y-105228728D01*
X141223408Y-104992406D01*
X141223408Y-104819001D01*
X141282487Y-104582679D01*
X141338309Y-104471036D01*
X141448035Y-104361310D01*
X141614855Y-104305704D01*
X141722437Y-104305704D01*
X141889254Y-104361309D01*
X141942813Y-104414869D01*
X141978168Y-104429513D01*
X142013524Y-104414869D01*
X142028168Y-104379514D01*
X142013524Y-104344159D01*
X141951621Y-104282254D01*
X141940868Y-104277800D01*
X141932077Y-104270175D01*
X141746361Y-104208270D01*
X141738153Y-104208853D01*
X141730550Y-104205704D01*
X141606741Y-104205704D01*
X141599138Y-104208853D01*
X141590930Y-104208270D01*
X141405216Y-104270175D01*
X141396424Y-104277800D01*
X141385672Y-104282254D01*
X141261862Y-104406064D01*
X141258712Y-104413666D01*
X141252496Y-104419058D01*
X141190591Y-104542867D01*
X141190188Y-104548534D01*
X141186805Y-104553101D01*
X141124901Y-104800720D01*
X141125834Y-104806990D01*
X141123408Y-104812847D01*
X141123408Y-104998561D01*
X140937694Y-104998561D01*
X140937694Y-104019990D01*
X143451979Y-104019990D01*
X143451979Y-105791418D01*
G37*
X147598646Y-100152419D02*
X148265312Y-100152419D01*
X148265312Y-100152419D02*
X147836741Y-101152419D01*
X136282455Y-99172419D02*
X136091979Y-99172419D01*
X136091979Y-99172419D02*
X135996741Y-99220038D01*
X135996741Y-99220038D02*
X135949122Y-99267657D01*
X135949122Y-99267657D02*
X135853884Y-99410514D01*
X135853884Y-99410514D02*
X135806265Y-99600990D01*
X135806265Y-99600990D02*
X135806265Y-99981942D01*
X135806265Y-99981942D02*
X135853884Y-100077180D01*
X135853884Y-100077180D02*
X135901503Y-100124800D01*
X135901503Y-100124800D02*
X135996741Y-100172419D01*
X135996741Y-100172419D02*
X136187217Y-100172419D01*
X136187217Y-100172419D02*
X136282455Y-100124800D01*
X136282455Y-100124800D02*
X136330074Y-100077180D01*
X136330074Y-100077180D02*
X136377693Y-99981942D01*
X136377693Y-99981942D02*
X136377693Y-99743847D01*
X136377693Y-99743847D02*
X136330074Y-99648609D01*
X136330074Y-99648609D02*
X136282455Y-99600990D01*
X136282455Y-99600990D02*
X136187217Y-99553371D01*
X136187217Y-99553371D02*
X135996741Y-99553371D01*
X135996741Y-99553371D02*
X135901503Y-99600990D01*
X135901503Y-99600990D02*
X135853884Y-99648609D01*
X135853884Y-99648609D02*
X135806265Y-99743847D01*
G36*
X139073753Y-111911017D02*
G01*
X139109897Y-111947162D01*
X139148609Y-112024585D01*
X139148609Y-112296115D01*
X138772419Y-112296115D01*
X138772419Y-112024585D01*
X138811130Y-111947161D01*
X138847275Y-111911017D01*
X138924699Y-111872306D01*
X138996330Y-111872306D01*
X139073753Y-111911017D01*
G37*
G36*
X139597561Y-111863398D02*
G01*
X139633708Y-111899544D01*
X139672419Y-111976966D01*
X139672419Y-112296115D01*
X139248609Y-112296115D01*
X139248609Y-112020895D01*
X139289929Y-111896933D01*
X139323465Y-111863398D01*
X139400889Y-111824687D01*
X139520139Y-111824687D01*
X139597561Y-111863398D01*
G37*
G36*
X139553998Y-110819835D02*
G01*
X139633707Y-110899544D01*
X139672419Y-110976966D01*
X139672419Y-111143835D01*
X139633707Y-111221257D01*
X139553998Y-111300966D01*
X139382930Y-111343734D01*
X139061907Y-111343734D01*
X138890837Y-111300966D01*
X138811131Y-111221260D01*
X138772419Y-111143836D01*
X138772419Y-110976966D01*
X138811131Y-110899542D01*
X138890837Y-110819835D01*
X139061907Y-110777068D01*
X139382930Y-110777068D01*
X139553998Y-110819835D01*
G37*
G36*
X139553998Y-109772216D02*
G01*
X139633707Y-109851925D01*
X139672419Y-109929347D01*
X139672419Y-110096216D01*
X139633707Y-110173638D01*
X139553998Y-110253347D01*
X139382930Y-110296115D01*
X139061907Y-110296115D01*
X138890837Y-110253347D01*
X138811131Y-110173641D01*
X138772419Y-110096217D01*
X138772419Y-109929347D01*
X138811131Y-109851923D01*
X138890837Y-109772216D01*
X139061907Y-109729449D01*
X139382930Y-109729449D01*
X139553998Y-109772216D01*
G37*
G36*
X139915276Y-112538972D02*
G01*
X138529562Y-112538972D01*
X138529562Y-112346115D01*
X138672419Y-112346115D01*
X138687064Y-112381470D01*
X138722419Y-112396115D01*
X139198609Y-112396115D01*
X139722419Y-112396115D01*
X139757774Y-112381470D01*
X139772419Y-112346115D01*
X139772419Y-111965163D01*
X139767965Y-111954410D01*
X139767140Y-111942802D01*
X139719521Y-111847564D01*
X139713304Y-111842172D01*
X139710155Y-111834569D01*
X139662535Y-111786950D01*
X139654931Y-111783800D01*
X139649540Y-111777584D01*
X139554303Y-111729966D01*
X139542694Y-111729140D01*
X139531942Y-111724687D01*
X139389085Y-111724687D01*
X139378332Y-111729140D01*
X139366724Y-111729966D01*
X139271486Y-111777585D01*
X139266094Y-111783801D01*
X139258491Y-111786951D01*
X139210873Y-111834570D01*
X139206419Y-111845322D01*
X139198794Y-111854114D01*
X139188057Y-111886323D01*
X139186345Y-111882188D01*
X139138726Y-111834570D01*
X139131123Y-111831420D01*
X139125731Y-111825203D01*
X139030494Y-111777585D01*
X139018885Y-111776759D01*
X139008133Y-111772306D01*
X138912895Y-111772306D01*
X138902142Y-111776759D01*
X138890534Y-111777585D01*
X138795296Y-111825204D01*
X138789904Y-111831420D01*
X138782301Y-111834570D01*
X138734683Y-111882189D01*
X138731533Y-111889791D01*
X138725316Y-111895184D01*
X138677698Y-111990421D01*
X138676872Y-112002029D01*
X138672419Y-112012782D01*
X138672419Y-112346115D01*
X138529562Y-112346115D01*
X138529562Y-111155639D01*
X138672419Y-111155639D01*
X138676872Y-111166391D01*
X138677698Y-111178000D01*
X138725316Y-111273237D01*
X138731533Y-111278629D01*
X138734683Y-111286232D01*
X138829921Y-111381470D01*
X138842343Y-111386615D01*
X138853149Y-111394622D01*
X139043625Y-111442241D01*
X139049895Y-111441307D01*
X139055752Y-111443734D01*
X139389085Y-111443734D01*
X139394941Y-111441307D01*
X139401212Y-111442241D01*
X139591688Y-111394622D01*
X139602491Y-111386617D01*
X139614916Y-111381471D01*
X139710155Y-111286232D01*
X139713304Y-111278629D01*
X139719521Y-111273238D01*
X139767140Y-111178000D01*
X139767965Y-111166391D01*
X139772419Y-111155639D01*
X139772419Y-110965163D01*
X139767965Y-110954410D01*
X139767140Y-110942802D01*
X139719521Y-110847564D01*
X139713304Y-110842172D01*
X139710155Y-110834570D01*
X139614916Y-110739331D01*
X139602491Y-110734184D01*
X139591688Y-110726180D01*
X139401212Y-110678561D01*
X139394941Y-110679494D01*
X139389085Y-110677068D01*
X139055752Y-110677068D01*
X139049895Y-110679494D01*
X139043625Y-110678561D01*
X138853149Y-110726180D01*
X138842343Y-110734186D01*
X138829921Y-110739332D01*
X138734683Y-110834570D01*
X138731533Y-110842172D01*
X138725316Y-110847565D01*
X138677698Y-110942802D01*
X138676872Y-110954410D01*
X138672419Y-110965163D01*
X138672419Y-111155639D01*
X138529562Y-111155639D01*
X138529562Y-110108020D01*
X138672419Y-110108020D01*
X138676872Y-110118772D01*
X138677698Y-110130381D01*
X138725316Y-110225618D01*
X138731533Y-110231010D01*
X138734683Y-110238613D01*
X138829921Y-110333851D01*
X138842343Y-110338996D01*
X138853149Y-110347003D01*
X139043625Y-110394622D01*
X139049895Y-110393688D01*
X139055752Y-110396115D01*
X139389085Y-110396115D01*
X139394941Y-110393688D01*
X139401212Y-110394622D01*
X139591688Y-110347003D01*
X139602491Y-110338998D01*
X139614916Y-110333852D01*
X139710155Y-110238613D01*
X139713304Y-110231010D01*
X139719521Y-110225619D01*
X139767140Y-110130381D01*
X139767965Y-110118772D01*
X139772419Y-110108020D01*
X139772419Y-109917544D01*
X139767965Y-109906791D01*
X139767140Y-109895183D01*
X139719521Y-109799945D01*
X139713304Y-109794553D01*
X139710155Y-109786951D01*
X139614916Y-109691712D01*
X139602491Y-109686565D01*
X139591688Y-109678561D01*
X139401212Y-109630942D01*
X139394941Y-109631875D01*
X139389085Y-109629449D01*
X139055752Y-109629449D01*
X139049895Y-109631875D01*
X139043625Y-109630942D01*
X138853149Y-109678561D01*
X138842343Y-109686567D01*
X138829921Y-109691713D01*
X138734683Y-109786951D01*
X138731533Y-109794553D01*
X138725316Y-109799946D01*
X138677698Y-109895183D01*
X138676872Y-109906791D01*
X138672419Y-109917544D01*
X138672419Y-110108020D01*
X138529562Y-110108020D01*
X138529562Y-109393734D01*
X138672419Y-109393734D01*
X138687064Y-109429089D01*
X138722419Y-109443734D01*
X138757774Y-109429089D01*
X138772419Y-109393734D01*
X138772419Y-109158020D01*
X139722419Y-109158020D01*
X139757774Y-109143375D01*
X139772419Y-109108020D01*
X139757774Y-109072665D01*
X139722419Y-109058020D01*
X138772419Y-109058020D01*
X138772419Y-108822306D01*
X138757774Y-108786951D01*
X138722419Y-108772306D01*
X138687064Y-108786951D01*
X138672419Y-108822306D01*
X138672419Y-109393734D01*
X138529562Y-109393734D01*
X138529562Y-108629449D01*
X139915276Y-108629449D01*
X139915276Y-112538972D01*
G37*
X149837217Y-81776895D02*
X149456265Y-81776895D01*
X149456265Y-81776895D02*
X149418169Y-82157847D01*
X149418169Y-82157847D02*
X149456265Y-82119752D01*
X149456265Y-82119752D02*
X149532455Y-82081657D01*
X149532455Y-82081657D02*
X149722931Y-82081657D01*
X149722931Y-82081657D02*
X149799122Y-82119752D01*
X149799122Y-82119752D02*
X149837217Y-82157847D01*
X149837217Y-82157847D02*
X149875312Y-82234038D01*
X149875312Y-82234038D02*
X149875312Y-82424514D01*
X149875312Y-82424514D02*
X149837217Y-82500704D01*
X149837217Y-82500704D02*
X149799122Y-82538800D01*
X149799122Y-82538800D02*
X149722931Y-82576895D01*
X149722931Y-82576895D02*
X149532455Y-82576895D01*
X149532455Y-82576895D02*
X149456265Y-82538800D01*
X149456265Y-82538800D02*
X149418169Y-82500704D01*
X150103884Y-81776895D02*
X150370551Y-82576895D01*
X150370551Y-82576895D02*
X150637217Y-81776895D01*
X136232455Y-94355752D02*
X136232455Y-95022419D01*
X135994360Y-93974800D02*
X135756265Y-94689085D01*
X135756265Y-94689085D02*
X136375312Y-94689085D01*
D11*
X147933667Y-110242688D02*
X147933667Y-111149831D01*
X147933667Y-111149831D02*
X147873190Y-111331259D01*
X147873190Y-111331259D02*
X147752238Y-111452212D01*
X147752238Y-111452212D02*
X147570809Y-111512688D01*
X147570809Y-111512688D02*
X147449857Y-111512688D01*
X149082714Y-110666021D02*
X149082714Y-111512688D01*
X148780333Y-110182212D02*
X148477952Y-111089354D01*
X148477952Y-111089354D02*
X149264143Y-111089354D01*
D12*
X139936666Y-103367295D02*
X139555714Y-103367295D01*
X139555714Y-103367295D02*
X139555714Y-102567295D01*
X140622380Y-103367295D02*
X140165237Y-103367295D01*
X140393809Y-103367295D02*
X140393809Y-102567295D01*
X140393809Y-102567295D02*
X140317618Y-102681580D01*
X140317618Y-102681580D02*
X140241428Y-102757771D01*
X140241428Y-102757771D02*
X140165237Y-102795866D01*
X148526667Y-103037295D02*
X148260000Y-102656342D01*
X148069524Y-103037295D02*
X148069524Y-102237295D01*
X148069524Y-102237295D02*
X148374286Y-102237295D01*
X148374286Y-102237295D02*
X148450476Y-102275390D01*
X148450476Y-102275390D02*
X148488571Y-102313485D01*
X148488571Y-102313485D02*
X148526667Y-102389676D01*
X148526667Y-102389676D02*
X148526667Y-102503961D01*
X148526667Y-102503961D02*
X148488571Y-102580152D01*
X148488571Y-102580152D02*
X148450476Y-102618247D01*
X148450476Y-102618247D02*
X148374286Y-102656342D01*
X148374286Y-102656342D02*
X148069524Y-102656342D01*
X148793333Y-102237295D02*
X149288571Y-102237295D01*
X149288571Y-102237295D02*
X149021905Y-102542057D01*
X149021905Y-102542057D02*
X149136190Y-102542057D01*
X149136190Y-102542057D02*
X149212381Y-102580152D01*
X149212381Y-102580152D02*
X149250476Y-102618247D01*
X149250476Y-102618247D02*
X149288571Y-102694438D01*
X149288571Y-102694438D02*
X149288571Y-102884914D01*
X149288571Y-102884914D02*
X149250476Y-102961104D01*
X149250476Y-102961104D02*
X149212381Y-102999200D01*
X149212381Y-102999200D02*
X149136190Y-103037295D01*
X149136190Y-103037295D02*
X148907619Y-103037295D01*
X148907619Y-103037295D02*
X148831428Y-102999200D01*
X148831428Y-102999200D02*
X148793333Y-102961104D01*
X137308333Y-96384580D02*
X137260714Y-96432200D01*
X137260714Y-96432200D02*
X137117857Y-96479819D01*
X137117857Y-96479819D02*
X137022619Y-96479819D01*
X137022619Y-96479819D02*
X136879762Y-96432200D01*
X136879762Y-96432200D02*
X136784524Y-96336961D01*
X136784524Y-96336961D02*
X136736905Y-96241723D01*
X136736905Y-96241723D02*
X136689286Y-96051247D01*
X136689286Y-96051247D02*
X136689286Y-95908390D01*
X136689286Y-95908390D02*
X136736905Y-95717914D01*
X136736905Y-95717914D02*
X136784524Y-95622676D01*
X136784524Y-95622676D02*
X136879762Y-95527438D01*
X136879762Y-95527438D02*
X137022619Y-95479819D01*
X137022619Y-95479819D02*
X137117857Y-95479819D01*
X137117857Y-95479819D02*
X137260714Y-95527438D01*
X137260714Y-95527438D02*
X137308333Y-95575057D01*
X138213095Y-95479819D02*
X137736905Y-95479819D01*
X137736905Y-95479819D02*
X137689286Y-95956009D01*
X137689286Y-95956009D02*
X137736905Y-95908390D01*
X137736905Y-95908390D02*
X137832143Y-95860771D01*
X137832143Y-95860771D02*
X138070238Y-95860771D01*
X138070238Y-95860771D02*
X138165476Y-95908390D01*
X138165476Y-95908390D02*
X138213095Y-95956009D01*
X138213095Y-95956009D02*
X138260714Y-96051247D01*
X138260714Y-96051247D02*
X138260714Y-96289342D01*
X138260714Y-96289342D02*
X138213095Y-96384580D01*
X138213095Y-96384580D02*
X138165476Y-96432200D01*
X138165476Y-96432200D02*
X138070238Y-96479819D01*
X138070238Y-96479819D02*
X137832143Y-96479819D01*
X137832143Y-96479819D02*
X137736905Y-96432200D01*
X137736905Y-96432200D02*
X137689286Y-96384580D01*
D13*
X137366667Y-107136624D02*
X137328571Y-107174720D01*
X137328571Y-107174720D02*
X137214286Y-107212815D01*
X137214286Y-107212815D02*
X137138095Y-107212815D01*
X137138095Y-107212815D02*
X137023809Y-107174720D01*
X137023809Y-107174720D02*
X136947619Y-107098529D01*
X136947619Y-107098529D02*
X136909524Y-107022339D01*
X136909524Y-107022339D02*
X136871428Y-106869958D01*
X136871428Y-106869958D02*
X136871428Y-106755672D01*
X136871428Y-106755672D02*
X136909524Y-106603291D01*
X136909524Y-106603291D02*
X136947619Y-106527100D01*
X136947619Y-106527100D02*
X137023809Y-106450910D01*
X137023809Y-106450910D02*
X137138095Y-106412815D01*
X137138095Y-106412815D02*
X137214286Y-106412815D01*
X137214286Y-106412815D02*
X137328571Y-106450910D01*
X137328571Y-106450910D02*
X137366667Y-106489005D01*
X138128571Y-107212815D02*
X137671428Y-107212815D01*
X137900000Y-107212815D02*
X137900000Y-106412815D01*
X137900000Y-106412815D02*
X137823809Y-106527100D01*
X137823809Y-106527100D02*
X137747619Y-106603291D01*
X137747619Y-106603291D02*
X137671428Y-106641386D01*
D12*
X150106667Y-104297295D02*
X149840000Y-103916342D01*
X149649524Y-104297295D02*
X149649524Y-103497295D01*
X149649524Y-103497295D02*
X149954286Y-103497295D01*
X149954286Y-103497295D02*
X150030476Y-103535390D01*
X150030476Y-103535390D02*
X150068571Y-103573485D01*
X150068571Y-103573485D02*
X150106667Y-103649676D01*
X150106667Y-103649676D02*
X150106667Y-103763961D01*
X150106667Y-103763961D02*
X150068571Y-103840152D01*
X150068571Y-103840152D02*
X150030476Y-103878247D01*
X150030476Y-103878247D02*
X149954286Y-103916342D01*
X149954286Y-103916342D02*
X149649524Y-103916342D01*
X150830476Y-103497295D02*
X150449524Y-103497295D01*
X150449524Y-103497295D02*
X150411428Y-103878247D01*
X150411428Y-103878247D02*
X150449524Y-103840152D01*
X150449524Y-103840152D02*
X150525714Y-103802057D01*
X150525714Y-103802057D02*
X150716190Y-103802057D01*
X150716190Y-103802057D02*
X150792381Y-103840152D01*
X150792381Y-103840152D02*
X150830476Y-103878247D01*
X150830476Y-103878247D02*
X150868571Y-103954438D01*
X150868571Y-103954438D02*
X150868571Y-104144914D01*
X150868571Y-104144914D02*
X150830476Y-104221104D01*
X150830476Y-104221104D02*
X150792381Y-104259200D01*
X150792381Y-104259200D02*
X150716190Y-104297295D01*
X150716190Y-104297295D02*
X150525714Y-104297295D01*
X150525714Y-104297295D02*
X150449524Y-104259200D01*
X150449524Y-104259200D02*
X150411428Y-104221104D01*
D14*
%TO.C,R7*%
X148296359Y-105770000D02*
X148603641Y-105770000D01*
X148296359Y-106530000D02*
X148603641Y-106530000D01*
%TO.C,R2*%
X150553641Y-106530000D02*
X150246359Y-106530000D01*
X150553641Y-105770000D02*
X150246359Y-105770000D01*
D11*
%TO.C,J4*%
X145535000Y-107644370D02*
X145535000Y-110624370D01*
X145535000Y-107644370D02*
X146564000Y-107644370D01*
X146629000Y-112494370D02*
X150438000Y-112494370D01*
X151535000Y-107644370D02*
X150472000Y-107644370D01*
X151535000Y-107644370D02*
X151535000Y-110624370D01*
X146297370Y-106852370D02*
G75*
G03*
X146176630Y-106852370I-60370J0D01*
G01*
X146176630Y-106852370D02*
G75*
G03*
X146297370Y-106852370I60370J0D01*
G01*
D14*
%TO.C,L1*%
X137777221Y-102555000D02*
X138102779Y-102555000D01*
X137777221Y-103575000D02*
X138102779Y-103575000D01*
%TO.C,C7*%
X137799420Y-104095000D02*
X138080580Y-104095000D01*
X137799420Y-105115000D02*
X138080580Y-105115000D01*
%TO.C,R3*%
X146806359Y-102265000D02*
X147113641Y-102265000D01*
X146806359Y-103025000D02*
X147113641Y-103025000D01*
%TO.C,R1*%
X144582742Y-89562500D02*
X145057258Y-89562500D01*
X144582742Y-90607500D02*
X145057258Y-90607500D01*
%TO.C,C5*%
X138461252Y-98240000D02*
X137938748Y-98240000D01*
X138461252Y-96770000D02*
X137938748Y-96770000D01*
%TO.C,R6*%
X140350000Y-104241359D02*
X140350000Y-104548641D01*
X139590000Y-104241359D02*
X139590000Y-104548641D01*
%TO.C,C1*%
X137682164Y-107425000D02*
X137897836Y-107425000D01*
X137682164Y-108145000D02*
X137897836Y-108145000D01*
%TO.C,R4*%
X142350593Y-95293334D02*
X142015060Y-95628867D01*
X141611666Y-94554407D02*
X141276133Y-94889940D01*
%TO.C,U2*%
X140027431Y-99856472D02*
X139624380Y-99792832D01*
X139963791Y-99453421D01*
X140027431Y-99856472D01*
G36*
X140027431Y-99856472D02*
G01*
X139624380Y-99792832D01*
X139963791Y-99453421D01*
X140027431Y-99856472D01*
G37*
X147409625Y-99856472D02*
X147109105Y-99555952D01*
X143718528Y-96165375D02*
X144019048Y-96465895D01*
X147109105Y-100156992D02*
X147409625Y-99856472D01*
X143418008Y-96465895D02*
X143718528Y-96165375D01*
X144019048Y-103247049D02*
X143718528Y-103547569D01*
X140327951Y-99555952D02*
X140239563Y-99644340D01*
X143718528Y-103547569D02*
X143418008Y-103247049D01*
X140327951Y-100156992D02*
X140197136Y-100026178D01*
%TO.C,J2*%
X132860000Y-85775000D02*
X132860000Y-101075000D01*
X132860000Y-85775000D02*
X135520000Y-85775000D01*
X132860000Y-101075000D02*
X135520000Y-101075000D01*
X134190000Y-83175000D02*
X135520000Y-83175000D01*
X135520000Y-83175000D02*
X135520000Y-84505000D01*
X135520000Y-85775000D02*
X135520000Y-101075000D01*
%TO.C,J3*%
X148770000Y-85775000D02*
X148770000Y-101075000D01*
X148770000Y-85775000D02*
X151430000Y-85775000D01*
X148770000Y-101075000D02*
X151430000Y-101075000D01*
X150100000Y-83175000D02*
X151430000Y-83175000D01*
X151430000Y-83175000D02*
X151430000Y-84505000D01*
X151430000Y-85775000D02*
X151430000Y-101075000D01*
%TO.C,L2*%
X137687221Y-99490000D02*
X138012779Y-99490000D01*
X137687221Y-100510000D02*
X138012779Y-100510000D01*
D10*
%TO.C,IC1*%
X140350000Y-109900000D02*
X140350000Y-109900000D01*
X140450000Y-109900000D02*
X140450000Y-109900000D01*
X140450000Y-109900000D02*
G75*
G03*
X140350000Y-109900000I-50000J0D01*
G01*
X140350000Y-109900000D02*
G75*
G03*
X140450000Y-109900000I50000J0D01*
G01*
D14*
%TO.C,C4*%
X137235543Y-90890010D02*
X137605010Y-90520543D01*
X138274990Y-91929457D02*
X138644457Y-91559990D01*
D15*
%TO.C,SW1*%
X133430000Y-109965000D02*
X133430000Y-109965000D01*
X133430000Y-109965000D02*
X133430000Y-109965000D01*
X133530000Y-109965000D02*
X133530000Y-109965000D01*
D10*
X135430000Y-109515000D02*
X135430000Y-109515000D01*
X135430000Y-109515000D02*
X136430000Y-109515000D01*
X135430000Y-111465000D02*
X135430000Y-111465000D01*
X135430000Y-111465000D02*
X136430000Y-111465000D01*
X136430000Y-109515000D02*
X135430000Y-109515000D01*
X136430000Y-109515000D02*
X136430000Y-109515000D01*
X136430000Y-111465000D02*
X135430000Y-111465000D01*
X136430000Y-111465000D02*
X136430000Y-111465000D01*
D15*
X133530000Y-109965000D02*
G75*
G03*
X133430000Y-109965000I-50000J0D01*
G01*
X133430000Y-109965000D02*
G75*
G03*
X133530000Y-109965000I50000J0D01*
G01*
X133430000Y-109965000D02*
G75*
G03*
X133530000Y-109965000I50000J0D01*
G01*
D14*
%TO.C,C6*%
X137799420Y-101025000D02*
X138080580Y-101025000D01*
X137799420Y-102045000D02*
X138080580Y-102045000D01*
D16*
%TO.C,X1*%
X142884420Y-95207581D02*
G75*
G03*
X142630420Y-95207581I-127000J0D01*
G01*
X142630420Y-95207581D02*
G75*
G03*
X142884420Y-95207581I127000J0D01*
G01*
D14*
%TO.C,J1*%
X137490000Y-81985000D02*
X137490000Y-80085000D01*
X137490000Y-85885000D02*
X137490000Y-83885000D01*
X146890000Y-80085000D02*
X137490000Y-80085000D01*
X146890000Y-81985000D02*
X146890000Y-80085000D01*
X146890000Y-85885000D02*
X146890000Y-83885000D01*
%TO.C,R5*%
X147752742Y-103412500D02*
X148227258Y-103412500D01*
X147752742Y-104457500D02*
X148227258Y-104457500D01*
%TO.C,U3*%
X138318074Y-92707249D02*
X137858455Y-93166869D01*
X138318074Y-92707249D02*
X138777694Y-92247630D01*
X140524248Y-94913423D02*
X140064628Y-95373042D01*
X140524248Y-94913423D02*
X140983867Y-94453803D01*
X137531418Y-93564616D02*
X137128367Y-93500977D01*
X137467779Y-93161566D01*
X137531418Y-93564616D01*
G36*
X137531418Y-93564616D02*
G01*
X137128367Y-93500977D01*
X137467779Y-93161566D01*
X137531418Y-93564616D01*
G37*
%TO.C,C2*%
X143570810Y-92563307D02*
X143418307Y-92715810D01*
X143061693Y-92054190D02*
X142909190Y-92206693D01*
%TO.C,C3*%
X147160810Y-95803307D02*
X147008307Y-95955810D01*
X146651693Y-95294190D02*
X146499190Y-95446693D01*
%TD*%
M02*
