M48
; DRILL file {KiCad 7.0.11-7.0.11~ubuntu22.04.1} date Sat Oct 26 23:49:21 2024
; FORMAT={-:-/ absolute / metric / decimal}
; #@! TF.CreationDate,2024-10-26T23:49:21+02:00
; #@! TF.GenerationSoftware,Kicad,Pcbnew,7.0.11-7.0.11~ubuntu22.04.1
; #@! TF.FileFunction,Plated,1,4,PTH
FMAT,2
METRIC
; #@! TA.AperFunction,Plated,PTH,ViaDrill
T1C0.200
; #@! TA.AperFunction,Plated,PTH,ViaDrill
T2C0.300
; #@! TA.AperFunction,Plated,PTH,ComponentDrill
T3C0.600
; #@! TA.AperFunction,Plated,PTH,ComponentDrill
T4C1.000
%
G90
G05
T1
X134.9Y-102.2
X137.15Y-93.425
X137.4Y-106.06
X137.98Y-105.87
X139.2Y-110.35
X139.694Y-107.852
X140.45Y-102.085
X140.59Y-102.985
X140.66Y-104.685
X140.85Y-104.115
X141.145Y-102.0
X141.153Y-103.484
X141.46Y-90.155
X141.75Y-109.05
X141.78Y-108.135
X141.912Y-106.71
X142.48Y-89.415
X144.2Y-95.75
X144.21Y-92.305
X144.81Y-96.17
X145.7Y-104.2
X145.775Y-107.062
X145.967Y-105.715
X146.21Y-96.815
X146.6Y-106.6
X146.68Y-97.695
X146.785Y-103.028
X146.875Y-100.225
X146.94Y-97.155
X146.988Y-98.247
X147.165Y-99.584
X147.37Y-96.08
X147.38Y-98.875
X148.025Y-106.725
T2
X135.77Y-106.85
X135.77Y-107.64
X135.78Y-105.35
X135.78Y-106.13
X135.78Y-108.38
X135.79Y-104.58
X135.94Y-111.045
X136.55Y-96.735
X136.55Y-102.165
X136.57Y-105.235
X137.93Y-102.295
X138.05Y-110.435
X139.53Y-96.315
X139.845Y-98.76
X139.96Y-105.545
X140.44Y-94.145
X140.94Y-97.125
X142.45Y-111.85
X143.74Y-99.255
X143.74Y-100.605
X143.75Y-99.935
X145.54Y-96.605
X149.05Y-106.8
X150.018Y-104.975
X150.75Y-108.15
X150.91Y-103.215
T4
X134.19Y-84.505
X134.19Y-87.045
X134.19Y-89.585
X134.19Y-92.125
X134.19Y-94.665
X134.19Y-97.205
X134.19Y-99.745
X150.1Y-84.505
X150.1Y-87.045
X150.1Y-89.585
X150.1Y-92.125
X150.1Y-94.665
X150.1Y-97.205
X150.1Y-99.745
T3
X137.87Y-83.235G85X137.87Y-82.635
G05
X137.87Y-87.665G85X137.87Y-86.565
G05
X146.51Y-83.235G85X146.51Y-82.635
G05
X146.51Y-87.665G85X146.51Y-86.565
G05
M30
