%TF.GenerationSoftware,KiCad,Pcbnew,7.0.11-7.0.11~ubuntu22.04.1*%
%TF.CreationDate,2024-10-26T23:49:30+02:00*%
%TF.ProjectId,C6-40-Flash-test,43362d34-302d-4466-9c61-73682d746573,1.0*%
%TF.SameCoordinates,Original*%
%TF.FileFunction,Soldermask,Top*%
%TF.FilePolarity,Negative*%
%FSLAX46Y46*%
G04 Gerber Fmt 4.6, Leading zero omitted, Abs format (unit mm)*
G04 Created by KiCad (PCBNEW 7.0.11-7.0.11~ubuntu22.04.1) date 2024-10-26 23:49:30*
%MOMM*%
%LPD*%
G01*
G04 APERTURE LIST*
G04 Aperture macros list*
%AMRoundRect*
0 Rectangle with rounded corners*
0 $1 Rounding radius*
0 $2 $3 $4 $5 $6 $7 $8 $9 X,Y pos of 4 corners*
0 Add a 4 corners polygon primitive as box body*
4,1,4,$2,$3,$4,$5,$6,$7,$8,$9,$2,$3,0*
0 Add four circle primitives for the rounded corners*
1,1,$1+$1,$2,$3*
1,1,$1+$1,$4,$5*
1,1,$1+$1,$6,$7*
1,1,$1+$1,$8,$9*
0 Add four rect primitives between the rounded corners*
20,1,$1+$1,$2,$3,$4,$5,0*
20,1,$1+$1,$4,$5,$6,$7,0*
20,1,$1+$1,$6,$7,$8,$9,0*
20,1,$1+$1,$8,$9,$2,$3,0*%
%AMRotRect*
0 Rectangle, with rotation*
0 The origin of the aperture is its center*
0 $1 length*
0 $2 width*
0 $3 Rotation angle, in degrees counterclockwise*
0 Add horizontal line*
21,1,$1,$2,0,0,$3*%
G04 Aperture macros list end*
%ADD10RoundRect,0.135000X-0.135000X-0.185000X0.135000X-0.185000X0.135000X0.185000X-0.135000X0.185000X0*%
%ADD11RoundRect,0.135000X0.135000X0.185000X-0.135000X0.185000X-0.135000X-0.185000X0.135000X-0.185000X0*%
%ADD12R,0.600000X1.550000*%
%ADD13R,1.200000X1.800000*%
%ADD14RoundRect,0.218750X-0.218750X-0.256250X0.218750X-0.256250X0.218750X0.256250X-0.218750X0.256250X0*%
%ADD15RoundRect,0.225000X-0.225000X-0.250000X0.225000X-0.250000X0.225000X0.250000X-0.225000X0.250000X0*%
%ADD16RoundRect,0.200000X-0.200000X-0.275000X0.200000X-0.275000X0.200000X0.275000X-0.200000X0.275000X0*%
%ADD17RoundRect,0.250000X0.250000X0.475000X-0.250000X0.475000X-0.250000X-0.475000X0.250000X-0.475000X0*%
%ADD18RoundRect,0.135000X-0.185000X0.135000X-0.185000X-0.135000X0.185000X-0.135000X0.185000X0.135000X0*%
%ADD19RoundRect,0.140000X-0.140000X-0.170000X0.140000X-0.170000X0.140000X0.170000X-0.140000X0.170000X0*%
%ADD20RoundRect,0.200000X-0.053033X0.335876X-0.335876X0.053033X0.053033X-0.335876X0.335876X-0.053033X0*%
%ADD21RotRect,3.600000X3.600000X45.000000*%
%ADD22RoundRect,0.062500X0.203293X-0.291682X0.291682X-0.203293X-0.203293X0.291682X-0.291682X0.203293X0*%
%ADD23RoundRect,0.062500X-0.203293X-0.291682X0.291682X0.203293X0.203293X0.291682X-0.291682X-0.203293X0*%
%ADD24R,1.700000X1.700000*%
%ADD25O,1.700000X1.700000*%
%ADD26R,0.300000X0.250000*%
%ADD27R,0.200000X1.600000*%
%ADD28RoundRect,0.250000X0.159099X-0.512652X0.512652X-0.159099X-0.159099X0.512652X-0.512652X0.159099X0*%
%ADD29R,0.550000X0.570000*%
%ADD30RotRect,0.990600X1.193800X45.000000*%
%ADD31O,1.000000X1.600000*%
%ADD32O,1.000000X2.100000*%
%ADD33R,0.600000X1.450000*%
%ADD34R,0.300000X1.450000*%
%ADD35C,0.650000*%
%ADD36RoundRect,0.150000X-0.309359X-0.521491X0.521491X0.309359X0.309359X0.521491X-0.521491X-0.309359X0*%
%ADD37RoundRect,0.140000X-0.021213X0.219203X-0.219203X0.021213X0.021213X-0.219203X0.219203X-0.021213X0*%
G04 APERTURE END LIST*
D10*
%TO.C,R7*%
X147940000Y-106150000D03*
X148960000Y-106150000D03*
%TD*%
D11*
%TO.C,R2*%
X150910000Y-106150000D03*
X149890000Y-106150000D03*
%TD*%
D12*
%TO.C,J4*%
X147035000Y-107833370D03*
X148035000Y-107833370D03*
X149035000Y-107833370D03*
X150035000Y-107833370D03*
D13*
X145735000Y-111708370D03*
X151335000Y-111708370D03*
%TD*%
D14*
%TO.C,L1*%
X137152500Y-103065000D03*
X138727500Y-103065000D03*
%TD*%
D15*
%TO.C,C7*%
X137165000Y-104605000D03*
X138715000Y-104605000D03*
%TD*%
D10*
%TO.C,R3*%
X146450000Y-102645000D03*
X147470000Y-102645000D03*
%TD*%
D16*
%TO.C,R1*%
X143995000Y-90085000D03*
X145645000Y-90085000D03*
%TD*%
D17*
%TO.C,C5*%
X139150000Y-97505000D03*
X137250000Y-97505000D03*
%TD*%
D18*
%TO.C,R6*%
X139970000Y-103885000D03*
X139970000Y-104905000D03*
%TD*%
D19*
%TO.C,C1*%
X137310000Y-107785000D03*
X138270000Y-107785000D03*
%TD*%
D20*
%TO.C,R4*%
X142396726Y-94508274D03*
X141230000Y-95675000D03*
%TD*%
D21*
%TO.C,U2*%
X143718528Y-99856472D03*
D22*
X140722163Y-99405691D03*
X141005006Y-99122849D03*
X141287848Y-98840006D03*
X141570691Y-98557163D03*
X141853534Y-98274321D03*
X142136377Y-97991478D03*
X142419219Y-97708635D03*
X142702062Y-97425792D03*
X142984905Y-97142950D03*
X143267747Y-96860107D03*
D23*
X144169309Y-96860107D03*
X144452151Y-97142950D03*
X144734994Y-97425792D03*
X145017837Y-97708635D03*
X145300679Y-97991478D03*
X145583522Y-98274321D03*
X145866365Y-98557163D03*
X146149208Y-98840006D03*
X146432050Y-99122849D03*
X146714893Y-99405691D03*
D22*
X146714893Y-100307253D03*
X146432050Y-100590095D03*
X146149208Y-100872938D03*
X145866365Y-101155781D03*
X145583522Y-101438623D03*
X145300679Y-101721466D03*
X145017837Y-102004309D03*
X144734994Y-102287152D03*
X144452151Y-102569994D03*
X144169309Y-102852837D03*
D23*
X143267747Y-102852837D03*
X142984905Y-102569994D03*
X142702062Y-102287152D03*
X142419219Y-102004309D03*
X142136377Y-101721466D03*
X141853534Y-101438623D03*
X141570691Y-101155781D03*
X141287848Y-100872938D03*
X141005006Y-100590095D03*
X140722163Y-100307253D03*
%TD*%
D24*
%TO.C,J2*%
X134190000Y-84505000D03*
D25*
X134190000Y-87045000D03*
X134190000Y-89585000D03*
X134190000Y-92125000D03*
X134190000Y-94665000D03*
X134190000Y-97205000D03*
X134190000Y-99745000D03*
%TD*%
D24*
%TO.C,J3*%
X150100000Y-84505000D03*
D25*
X150100000Y-87045000D03*
X150100000Y-89585000D03*
X150100000Y-92125000D03*
X150100000Y-94665000D03*
X150100000Y-97205000D03*
X150100000Y-99745000D03*
%TD*%
D14*
%TO.C,L2*%
X137062500Y-100000000D03*
X138637500Y-100000000D03*
%TD*%
D26*
%TO.C,IC1*%
X141250000Y-109900000D03*
X141250000Y-110400000D03*
X141250000Y-110900000D03*
X141250000Y-111400000D03*
X143650000Y-111400000D03*
X143650000Y-110900000D03*
X143650000Y-110400000D03*
X143650000Y-109900000D03*
D27*
X142450000Y-110650000D03*
%TD*%
D28*
%TO.C,C4*%
X137268249Y-91896751D03*
X138611751Y-90553249D03*
%TD*%
D29*
%TO.C,SW1*%
X134655000Y-109885000D03*
X134655000Y-111045000D03*
X137205000Y-109885000D03*
X137205000Y-111045000D03*
%TD*%
D15*
%TO.C,C6*%
X137165000Y-101535000D03*
X138715000Y-101535000D03*
%TD*%
D30*
%TO.C,X1*%
X144130763Y-93834237D03*
X145332846Y-95036320D03*
X146252083Y-94117083D03*
X145050000Y-92915000D03*
%TD*%
D31*
%TO.C,J1*%
X137870000Y-82935000D03*
D32*
X137870000Y-87115000D03*
D31*
X146510000Y-82935000D03*
D32*
X146510000Y-87115000D03*
D33*
X145440000Y-88030000D03*
X144640000Y-88030000D03*
D34*
X143940000Y-88030000D03*
X142940000Y-88030000D03*
X141440000Y-88030000D03*
X140440000Y-88030000D03*
D33*
X139740000Y-88030000D03*
X138940000Y-88030000D03*
X138940000Y-88030000D03*
X139740000Y-88030000D03*
D34*
X140940000Y-88030000D03*
X141940000Y-88030000D03*
X142440000Y-88030000D03*
X143440000Y-88030000D03*
D33*
X144640000Y-88030000D03*
X145440000Y-88030000D03*
D35*
X139300000Y-86585000D03*
X145080000Y-86585000D03*
%TD*%
D16*
%TO.C,R5*%
X147165000Y-103935000D03*
X148815000Y-103935000D03*
%TD*%
D36*
%TO.C,U3*%
X138086497Y-93801497D03*
X139430000Y-95145000D03*
X140084074Y-93147423D03*
%TD*%
D37*
%TO.C,C2*%
X143579411Y-92045589D03*
X142900589Y-92724411D03*
%TD*%
%TO.C,C3*%
X147169411Y-95285589D03*
X146490589Y-95964411D03*
%TD*%
M02*
