%TF.GenerationSoftware,KiCad,Pcbnew,7.0.11-7.0.11~ubuntu22.04.1*%
%TF.CreationDate,2024-10-26T23:49:30+02:00*%
%TF.ProjectId,C6-40-Flash-test,43362d34-302d-4466-9c61-73682d746573,1.0*%
%TF.SameCoordinates,Original*%
%TF.FileFunction,Copper,L4,Bot*%
%TF.FilePolarity,Positive*%
%FSLAX46Y46*%
G04 Gerber Fmt 4.6, Leading zero omitted, Abs format (unit mm)*
G04 Created by KiCad (PCBNEW 7.0.11-7.0.11~ubuntu22.04.1) date 2024-10-26 23:49:30*
%MOMM*%
%LPD*%
G01*
G04 APERTURE LIST*
%TA.AperFunction,ComponentPad*%
%ADD10R,1.700000X1.700000*%
%TD*%
%TA.AperFunction,ComponentPad*%
%ADD11O,1.700000X1.700000*%
%TD*%
%TA.AperFunction,ComponentPad*%
%ADD12O,1.000000X1.600000*%
%TD*%
%TA.AperFunction,ComponentPad*%
%ADD13O,1.000000X2.100000*%
%TD*%
%TA.AperFunction,SMDPad,CuDef*%
%ADD14R,1.650000X0.650000*%
%TD*%
%TA.AperFunction,ViaPad*%
%ADD15C,0.450000*%
%TD*%
%TA.AperFunction,ViaPad*%
%ADD16C,0.600000*%
%TD*%
%TA.AperFunction,Conductor*%
%ADD17C,0.200000*%
%TD*%
G04 APERTURE END LIST*
D10*
%TO.P,J2,1,Pin_1*%
%TO.N,IO0*%
X134190000Y-84505000D03*
D11*
%TO.P,J2,2,Pin_2*%
%TO.N,IO1*%
X134190000Y-87045000D03*
%TO.P,J2,3,Pin_3*%
%TO.N,IO2*%
X134190000Y-89585000D03*
%TO.P,J2,4,Pin_4*%
%TO.N,IO3*%
X134190000Y-92125000D03*
%TO.P,J2,5,Pin_5*%
%TO.N,IO4*%
X134190000Y-94665000D03*
%TO.P,J2,6,Pin_6*%
%TO.N,IO5*%
X134190000Y-97205000D03*
%TO.P,J2,7,Pin_7*%
%TO.N,IO6*%
X134190000Y-99745000D03*
%TD*%
D10*
%TO.P,J3,1,Pin_1*%
%TO.N,VBUS*%
X150100000Y-84505000D03*
D11*
%TO.P,J3,2,Pin_2*%
%TO.N,GND*%
X150100000Y-87045000D03*
%TO.P,J3,3,Pin_3*%
%TO.N,+3V3*%
X150100000Y-89585000D03*
%TO.P,J3,4,Pin_4*%
%TO.N,SPIVDD*%
X150100000Y-92125000D03*
%TO.P,J3,5,Pin_5*%
%TO.N,RX*%
X150100000Y-94665000D03*
%TO.P,J3,6,Pin_6*%
%TO.N,TX*%
X150100000Y-97205000D03*
%TO.P,J3,7,Pin_7*%
%TO.N,IO7*%
X150100000Y-99745000D03*
%TD*%
D12*
%TO.P,J1,S1,SHIELD*%
%TO.N,GND*%
X137870000Y-82935000D03*
D13*
X137870000Y-87115000D03*
D12*
X146510000Y-82935000D03*
D13*
X146510000Y-87115000D03*
%TD*%
D14*
%TO.P,IC2,1,/CS*%
%TO.N,SPICS0*%
X140580000Y-111620000D03*
%TO.P,IC2,2,DO_(IO1)*%
%TO.N,SPI_D1*%
X140580000Y-110350000D03*
%TO.P,IC2,3,/WP_(IO2)*%
%TO.N,SPI_D2*%
X140580000Y-109080000D03*
%TO.P,IC2,4,GND*%
%TO.N,GND*%
X140580000Y-107810000D03*
%TO.P,IC2,5,DI_(IO0)*%
%TO.N,SPI_D0*%
X147780000Y-107810000D03*
%TO.P,IC2,6,CLK*%
%TO.N,SPICLK*%
X147780000Y-109080000D03*
%TO.P,IC2,7,/HOLD_OR_/RESET_(IO3)*%
%TO.N,SPI_D3*%
X147780000Y-110350000D03*
%TO.P,IC2,8,VCC*%
%TO.N,SPIVDD*%
X147780000Y-111620000D03*
%TD*%
D15*
%TO.N,IO6*%
X148025000Y-106725000D03*
X145700000Y-104200000D03*
D16*
%TO.N,+3V3*%
X149050000Y-106800000D03*
%TO.N,GND*%
X150750000Y-108150000D03*
D15*
%TO.N,SPICS0*%
X139200000Y-110350000D03*
D16*
%TO.N,GND*%
X142450000Y-111850000D03*
D15*
%TO.N,SPI_D2*%
X141750000Y-109050000D03*
%TO.N,SPI_D0*%
X146600000Y-106600000D03*
%TO.N,SPICLK*%
X145775000Y-107061789D03*
X146940000Y-97155000D03*
D16*
%TO.N,SPIVDD*%
X150017880Y-104975000D03*
D15*
%TO.N,BOOT*%
X141911527Y-106709762D03*
X146785000Y-103028067D03*
D16*
%TO.N,GND*%
X135780000Y-105350000D03*
X143740000Y-99255000D03*
X135780000Y-108380000D03*
X135770000Y-107640000D03*
X135770000Y-106850000D03*
X136570000Y-105235000D03*
X135790000Y-104580000D03*
X136550000Y-102165000D03*
D15*
X137150000Y-93425000D03*
X139694000Y-107851587D03*
D16*
X143750000Y-99935000D03*
X143740000Y-100605000D03*
X136550000Y-96735000D03*
X138050000Y-110435000D03*
D15*
X147370000Y-96080000D03*
D16*
X135940000Y-111045000D03*
X135780000Y-106130000D03*
D15*
X144210000Y-92305000D03*
D16*
%TO.N,+3V3*%
X139844620Y-98760380D03*
X140940000Y-97125000D03*
X139530000Y-96315000D03*
D15*
X141144872Y-102000407D03*
D16*
X139960000Y-105545000D03*
X140440000Y-94145000D03*
X137930000Y-102295000D03*
X150910000Y-103215000D03*
X145540000Y-96605000D03*
D15*
%TO.N,SPICS0*%
X146875000Y-100225009D03*
%TO.N,SPI_D1*%
X141780000Y-108135000D03*
X147165000Y-99583857D03*
%TO.N,SPI_D2*%
X147380000Y-98875000D03*
%TO.N,SPI_D0*%
X146210000Y-96815000D03*
%TO.N,SPI_D3*%
X146680000Y-97695000D03*
X145966594Y-105715233D03*
%TO.N,SPIVDD*%
X146988413Y-98246587D03*
%TO.N,/USB_D+*%
X142480000Y-89415000D03*
X141460000Y-90155000D03*
%TO.N,IO0*%
X140450000Y-102085000D03*
%TO.N,IO1*%
X140590000Y-102985000D03*
%TO.N,IO2*%
X141153307Y-103484121D03*
%TO.N,IO3*%
X140850000Y-104115000D03*
%TO.N,IO4*%
X140660000Y-104685000D03*
%TO.N,IO5*%
X137980000Y-105870000D03*
%TO.N,IO6*%
X137400000Y-106060000D03*
%TO.N,TX*%
X144810000Y-96170000D03*
%TO.N,RX*%
X144200000Y-95750000D03*
%TO.N,GND*%
X134900000Y-102200000D03*
%TD*%
D17*
%TO.N,SPIVDD*%
X150130000Y-109770000D02*
X150130000Y-105450000D01*
X150017880Y-105337880D02*
X150017880Y-104975000D01*
X150130000Y-105450000D02*
X150017880Y-105337880D01*
X147780000Y-111620000D02*
X148280000Y-111620000D01*
X148280000Y-111620000D02*
X150130000Y-109770000D01*
%TO.N,BOOT*%
X141911527Y-106709762D02*
X142477065Y-106709762D01*
X146158760Y-103028067D02*
X146785000Y-103028067D01*
X142477065Y-106709762D02*
X146158760Y-103028067D01*
%TO.N,SPICS0*%
X138820000Y-107240000D02*
X138820000Y-109970000D01*
X138820000Y-109970000D02*
X139200000Y-110350000D01*
X139820000Y-111620000D02*
X139200000Y-111000000D01*
X139200000Y-111000000D02*
X139200000Y-110350000D01*
X140580000Y-111620000D02*
X139820000Y-111620000D01*
X138820000Y-107240000D02*
X139935000Y-106125000D01*
X146875000Y-101790000D02*
X146875000Y-100225009D01*
X139935000Y-106125000D02*
X142540000Y-106125000D01*
X142540000Y-106125000D02*
X146875000Y-101790000D01*
%TO.N,SPI_D2*%
X140580000Y-109080000D02*
X141750000Y-109050000D01*
X141750000Y-109050000D02*
X141770000Y-109080000D01*
X147710000Y-99205000D02*
X147380000Y-98875000D01*
X147710000Y-103476853D02*
X147710000Y-99205000D01*
X146046620Y-105140233D02*
X147710000Y-103476853D01*
X145728421Y-105140233D02*
X146046620Y-105140233D01*
X145728421Y-105141579D02*
X145728421Y-105140233D01*
X141780000Y-109090000D02*
X145728421Y-105141579D01*
X141770000Y-109080000D02*
X141780000Y-109090000D01*
%TO.N,SPICLK*%
X148410000Y-104085000D02*
X145775000Y-106720000D01*
%TO.N,SPI_D3*%
X145200000Y-108270000D02*
X145200000Y-106481827D01*
%TO.N,SPICLK*%
X145775000Y-106720000D02*
X145775000Y-107061789D01*
X147780000Y-109080000D02*
X147280000Y-109080000D01*
%TO.N,SPI_D3*%
X147780000Y-110350000D02*
X147280000Y-110350000D01*
%TO.N,SPICLK*%
X147135026Y-97155000D02*
X148410000Y-98429974D01*
X145775000Y-107575000D02*
X145775000Y-107061789D01*
X147280000Y-109080000D02*
X145775000Y-107575000D01*
X146940000Y-97155000D02*
X147135026Y-97155000D01*
%TO.N,SPI_D3*%
X145200000Y-106481827D02*
X145966594Y-105715233D01*
%TO.N,SPICLK*%
X148410000Y-98429974D02*
X148410000Y-104085000D01*
%TO.N,SPI_D3*%
X147280000Y-110350000D02*
X145200000Y-108270000D01*
%TO.N,SPI_D0*%
X146600000Y-106600000D02*
X146600000Y-107550000D01*
X146600000Y-107550000D02*
X146860000Y-107810000D01*
X147780000Y-107810000D02*
X146860000Y-107810000D01*
X148705000Y-104495000D02*
X146600000Y-106600000D01*
X148800000Y-104495000D02*
X148705000Y-104495000D01*
%TO.N,GND*%
X140580000Y-107810000D02*
X139735587Y-107810000D01*
X139735587Y-107810000D02*
X139694000Y-107851587D01*
%TO.N,SPI_D1*%
X147360000Y-103315000D02*
X147360000Y-99778857D01*
X141628000Y-107210000D02*
X139360000Y-107210000D01*
X139169000Y-107401000D02*
X139169000Y-109439000D01*
X139360000Y-107210000D02*
X139169000Y-107401000D01*
X147360000Y-99778857D02*
X147165000Y-99583857D01*
X139169000Y-109439000D02*
X140080000Y-110350000D01*
X145583447Y-104790233D02*
X145884767Y-104790233D01*
X145884767Y-104790233D02*
X147360000Y-103315000D01*
X140080000Y-110350000D02*
X140580000Y-110350000D01*
X141780000Y-107362000D02*
X141628000Y-107210000D01*
X141780000Y-108135000D02*
X142238680Y-108135000D01*
X141780000Y-108135000D02*
X141780000Y-107362000D01*
X142238680Y-108135000D02*
X145583447Y-104790233D01*
%TO.N,SPI_D0*%
X146345000Y-96680000D02*
X147155000Y-96680000D01*
X146210000Y-96815000D02*
X146345000Y-96680000D01*
X147155000Y-96680000D02*
X148800000Y-98325000D01*
X148800000Y-98325000D02*
X148800000Y-104495000D01*
%TO.N,SPI_D3*%
X148060000Y-103621827D02*
X145966594Y-105715233D01*
X148060000Y-98574948D02*
X148060000Y-103621827D01*
X146680000Y-97695000D02*
X147180052Y-97695000D01*
X147180052Y-97695000D02*
X148060000Y-98574948D01*
%TO.N,/USB_D+*%
X142480000Y-89415000D02*
X142200000Y-89415000D01*
X142200000Y-89415000D02*
X141460000Y-90155000D01*
%TO.N,IO0*%
X140450000Y-100185052D02*
X138880000Y-98615052D01*
X138970000Y-84505000D02*
X134190000Y-84505000D01*
X138880000Y-89025000D02*
X140540000Y-87365000D01*
X140450000Y-102085000D02*
X140450000Y-100185052D01*
X138880000Y-98615052D02*
X138880000Y-89025000D01*
X140540000Y-86075000D02*
X138970000Y-84505000D01*
X140540000Y-87365000D02*
X140540000Y-86075000D01*
%TO.N,IO1*%
X138440000Y-91295000D02*
X134190000Y-87045000D01*
X140590000Y-102985000D02*
X140590000Y-102896752D01*
X140590000Y-102896752D02*
X139975000Y-102281752D01*
X139975000Y-102281752D02*
X139975000Y-100205026D01*
X138440000Y-98670026D02*
X138440000Y-91295000D01*
X139975000Y-100205026D02*
X138440000Y-98670026D01*
%TO.N,IO2*%
X139625000Y-102691752D02*
X140417369Y-103484121D01*
X134190000Y-89585000D02*
X138080000Y-93475000D01*
X138080000Y-93475000D02*
X138080000Y-98805000D01*
X139625000Y-100350000D02*
X139625000Y-102691752D01*
X138080000Y-98805000D02*
X139625000Y-100350000D01*
X140417369Y-103484121D02*
X141153307Y-103484121D01*
%TO.N,IO3*%
X137640000Y-95575000D02*
X134190000Y-92125000D01*
X137640000Y-98905000D02*
X137640000Y-95575000D01*
X140540000Y-104115000D02*
X139240000Y-102815000D01*
X139240000Y-100505000D02*
X137640000Y-98905000D01*
X139240000Y-102815000D02*
X139240000Y-100505000D01*
X140850000Y-104115000D02*
X140540000Y-104115000D01*
%TO.N,IO4*%
X138828000Y-101874440D02*
X135960000Y-99006440D01*
X140615026Y-104685000D02*
X138828000Y-102897974D01*
X135960000Y-99006440D02*
X135960000Y-96435000D01*
X135960000Y-96435000D02*
X134190000Y-94665000D01*
X140660000Y-104685000D02*
X140615026Y-104685000D01*
X138828000Y-102897974D02*
X138828000Y-101874440D01*
%TO.N,IO5*%
X137980000Y-103021404D02*
X138479000Y-102522404D01*
X138479000Y-102522404D02*
X138479000Y-102019000D01*
X137980000Y-105870000D02*
X137980000Y-103021404D01*
X138479000Y-102019000D02*
X134190000Y-97730000D01*
X134190000Y-97730000D02*
X134190000Y-97205000D01*
%TO.N,IO6*%
X134925000Y-99745000D02*
X134190000Y-99745000D01*
X137381000Y-102201000D02*
X134925000Y-99745000D01*
X137400000Y-106060000D02*
X137381000Y-106041000D01*
X137381000Y-106041000D02*
X137381000Y-102201000D01*
%TO.N,TX*%
X148385000Y-95490000D02*
X150100000Y-97205000D01*
X144810000Y-96170000D02*
X145490000Y-95490000D01*
X145490000Y-95490000D02*
X148385000Y-95490000D01*
%TO.N,RX*%
X145285000Y-94665000D02*
X150100000Y-94665000D01*
X144200000Y-95750000D02*
X145285000Y-94665000D01*
%TD*%
M02*
