%TF.GenerationSoftware,KiCad,Pcbnew,7.0.11-7.0.11~ubuntu22.04.1*%
%TF.CreationDate,2024-10-26T23:49:30+02:00*%
%TF.ProjectId,C6-40-Flash-test,43362d34-302d-4466-9c61-73682d746573,1.0*%
%TF.SameCoordinates,Original*%
%TF.FileFunction,Copper,L2,Inr*%
%TF.FilePolarity,Positive*%
%FSLAX46Y46*%
G04 Gerber Fmt 4.6, Leading zero omitted, Abs format (unit mm)*
G04 Created by KiCad (PCBNEW 7.0.11-7.0.11~ubuntu22.04.1) date 2024-10-26 23:49:30*
%MOMM*%
%LPD*%
G01*
G04 APERTURE LIST*
%TA.AperFunction,ComponentPad*%
%ADD10R,1.700000X1.700000*%
%TD*%
%TA.AperFunction,ComponentPad*%
%ADD11O,1.700000X1.700000*%
%TD*%
%TA.AperFunction,ComponentPad*%
%ADD12O,1.000000X1.600000*%
%TD*%
%TA.AperFunction,ComponentPad*%
%ADD13O,1.000000X2.100000*%
%TD*%
%TA.AperFunction,ViaPad*%
%ADD14C,0.450000*%
%TD*%
%TA.AperFunction,ViaPad*%
%ADD15C,0.600000*%
%TD*%
%TA.AperFunction,Conductor*%
%ADD16C,0.200000*%
%TD*%
G04 APERTURE END LIST*
D10*
%TO.N,IO0*%
%TO.C,J2*%
X134190000Y-84505000D03*
D11*
%TO.N,IO1*%
X134190000Y-87045000D03*
%TO.N,IO2*%
X134190000Y-89585000D03*
%TO.N,IO3*%
X134190000Y-92125000D03*
%TO.N,IO4*%
X134190000Y-94665000D03*
%TO.N,IO5*%
X134190000Y-97205000D03*
%TO.N,IO6*%
X134190000Y-99745000D03*
%TD*%
D10*
%TO.N,VBUS*%
%TO.C,J3*%
X150100000Y-84505000D03*
D11*
%TO.N,GND*%
X150100000Y-87045000D03*
%TO.N,+3V3*%
X150100000Y-89585000D03*
%TO.N,SPIVDD*%
X150100000Y-92125000D03*
%TO.N,RX*%
X150100000Y-94665000D03*
%TO.N,TX*%
X150100000Y-97205000D03*
%TO.N,IO7*%
X150100000Y-99745000D03*
%TD*%
D12*
%TO.N,GND*%
%TO.C,J1*%
X137870000Y-82935000D03*
D13*
X137870000Y-87115000D03*
D12*
X146510000Y-82935000D03*
D13*
X146510000Y-87115000D03*
%TD*%
D14*
%TO.N,IO6*%
X148025000Y-106725000D03*
X145700000Y-104200000D03*
D15*
%TO.N,+3V3*%
X149050000Y-106800000D03*
%TO.N,GND*%
X150750000Y-108150000D03*
D14*
%TO.N,SPICS0*%
X139200000Y-110350000D03*
D15*
%TO.N,GND*%
X142450000Y-111850000D03*
D14*
%TO.N,SPI_D2*%
X141750000Y-109050000D03*
%TO.N,SPI_D0*%
X146600000Y-106600000D03*
%TO.N,SPICLK*%
X145775000Y-107061789D03*
X146940000Y-97155000D03*
D15*
%TO.N,SPIVDD*%
X150017880Y-104975000D03*
D14*
%TO.N,BOOT*%
X141911527Y-106709762D03*
X146785000Y-103028067D03*
D15*
%TO.N,GND*%
X135780000Y-105350000D03*
X143740000Y-99255000D03*
X135780000Y-108380000D03*
X135770000Y-107640000D03*
X135770000Y-106850000D03*
X136570000Y-105235000D03*
X135790000Y-104580000D03*
X136550000Y-102165000D03*
D14*
X137150000Y-93425000D03*
X139694000Y-107851587D03*
D15*
X143750000Y-99935000D03*
X143740000Y-100605000D03*
X136550000Y-96735000D03*
X138050000Y-110435000D03*
D14*
X147370000Y-96080000D03*
D15*
X135940000Y-111045000D03*
X135780000Y-106130000D03*
D14*
X144210000Y-92305000D03*
D15*
%TO.N,+3V3*%
X139844620Y-98760380D03*
X140940000Y-97125000D03*
X139530000Y-96315000D03*
D14*
X141144872Y-102000407D03*
D15*
X139960000Y-105545000D03*
X140440000Y-94145000D03*
X137930000Y-102295000D03*
X150910000Y-103215000D03*
X145540000Y-96605000D03*
D14*
%TO.N,SPICS0*%
X146875000Y-100225009D03*
%TO.N,SPI_D1*%
X141780000Y-108135000D03*
X147165000Y-99583857D03*
%TO.N,SPI_D2*%
X147380000Y-98875000D03*
%TO.N,SPI_D0*%
X146210000Y-96815000D03*
%TO.N,SPI_D3*%
X146680000Y-97695000D03*
X145966594Y-105715233D03*
%TO.N,SPIVDD*%
X146988413Y-98246587D03*
%TO.N,/USB_D+*%
X142480000Y-89415000D03*
X141460000Y-90155000D03*
%TO.N,IO0*%
X140450000Y-102085000D03*
%TO.N,IO1*%
X140590000Y-102985000D03*
%TO.N,IO2*%
X141153307Y-103484121D03*
%TO.N,IO3*%
X140850000Y-104115000D03*
%TO.N,IO4*%
X140660000Y-104685000D03*
%TO.N,IO5*%
X137980000Y-105870000D03*
%TO.N,IO6*%
X137400000Y-106060000D03*
%TO.N,TX*%
X144810000Y-96170000D03*
%TO.N,RX*%
X144200000Y-95750000D03*
%TO.N,GND*%
X134900000Y-102200000D03*
%TD*%
D16*
%TO.N,IO6*%
X145700000Y-104200000D02*
X148025000Y-106525000D01*
X148025000Y-106525000D02*
X148025000Y-106725000D01*
%TD*%
%TA.AperFunction,Conductor*%
%TO.N,GND*%
G36*
X136917967Y-82055185D02*
G01*
X136963722Y-82107989D01*
X136973666Y-82177147D01*
X136964879Y-82208400D01*
X136910940Y-82334092D01*
X136870000Y-82533309D01*
X136870000Y-82685000D01*
X137570000Y-82685000D01*
X137570000Y-83185000D01*
X136870000Y-83185000D01*
X136870000Y-83285713D01*
X136885418Y-83437338D01*
X136946299Y-83631381D01*
X136946304Y-83631391D01*
X137045005Y-83809215D01*
X137045005Y-83809216D01*
X137177478Y-83963530D01*
X137177479Y-83963531D01*
X137338304Y-84088018D01*
X137520907Y-84177589D01*
X137620000Y-84203244D01*
X137620000Y-83401110D01*
X137644457Y-83440610D01*
X137733962Y-83508201D01*
X137841840Y-83538895D01*
X137953521Y-83528546D01*
X138053922Y-83478552D01*
X138120000Y-83406069D01*
X138120000Y-84208365D01*
X138121944Y-84208069D01*
X138121945Y-84208069D01*
X138312660Y-84137436D01*
X138312664Y-84137434D01*
X138485267Y-84029850D01*
X138632668Y-83889735D01*
X138632669Y-83889733D01*
X138748856Y-83722804D01*
X138829059Y-83535907D01*
X138870000Y-83336690D01*
X138870000Y-83185000D01*
X138170000Y-83185000D01*
X138170000Y-82685000D01*
X138870000Y-82685000D01*
X138870000Y-82584286D01*
X138854581Y-82432661D01*
X138793700Y-82238618D01*
X138793695Y-82238606D01*
X138783188Y-82219676D01*
X138767866Y-82151508D01*
X138791831Y-82085876D01*
X138847474Y-82043620D01*
X138891608Y-82035500D01*
X145490928Y-82035500D01*
X145557967Y-82055185D01*
X145603722Y-82107989D01*
X145613666Y-82177147D01*
X145604879Y-82208400D01*
X145550940Y-82334092D01*
X145510000Y-82533309D01*
X145510000Y-82685000D01*
X146210000Y-82685000D01*
X146210000Y-83185000D01*
X145510000Y-83185000D01*
X145510000Y-83285713D01*
X145525418Y-83437338D01*
X145586299Y-83631381D01*
X145586304Y-83631391D01*
X145685005Y-83809215D01*
X145685005Y-83809216D01*
X145817478Y-83963530D01*
X145817479Y-83963531D01*
X145978304Y-84088018D01*
X146160907Y-84177589D01*
X146260000Y-84203244D01*
X146260000Y-83401110D01*
X146284457Y-83440610D01*
X146373962Y-83508201D01*
X146481840Y-83538895D01*
X146593521Y-83528546D01*
X146693922Y-83478552D01*
X146760000Y-83406069D01*
X146760000Y-84208366D01*
X146761944Y-84208069D01*
X146761945Y-84208069D01*
X146952660Y-84137436D01*
X146952664Y-84137434D01*
X147125267Y-84029850D01*
X147272668Y-83889735D01*
X147272669Y-83889733D01*
X147388856Y-83722804D01*
X147469059Y-83535907D01*
X147510000Y-83336690D01*
X147510000Y-83185000D01*
X146810000Y-83185000D01*
X146810000Y-82685000D01*
X147510000Y-82685000D01*
X147510000Y-82584286D01*
X147494581Y-82432661D01*
X147433700Y-82238618D01*
X147433695Y-82238606D01*
X147423188Y-82219676D01*
X147407866Y-82151508D01*
X147431831Y-82085876D01*
X147487474Y-82043620D01*
X147531608Y-82035500D01*
X151545500Y-82035500D01*
X151612539Y-82055185D01*
X151658294Y-82107989D01*
X151669500Y-82159500D01*
X151669500Y-83464574D01*
X151649815Y-83531613D01*
X151597011Y-83577368D01*
X151527853Y-83587312D01*
X151464297Y-83558287D01*
X151429318Y-83507907D01*
X151393797Y-83412671D01*
X151393793Y-83412664D01*
X151307547Y-83297455D01*
X151307544Y-83297452D01*
X151192335Y-83211206D01*
X151192328Y-83211202D01*
X151057482Y-83160908D01*
X151057483Y-83160908D01*
X150997883Y-83154501D01*
X150997881Y-83154500D01*
X150997873Y-83154500D01*
X150997864Y-83154500D01*
X149202129Y-83154500D01*
X149202123Y-83154501D01*
X149142516Y-83160908D01*
X149007671Y-83211202D01*
X149007664Y-83211206D01*
X148892455Y-83297452D01*
X148892452Y-83297455D01*
X148806206Y-83412664D01*
X148806202Y-83412671D01*
X148755908Y-83547517D01*
X148751630Y-83587312D01*
X148749501Y-83607123D01*
X148749500Y-83607135D01*
X148749500Y-85402870D01*
X148749501Y-85402876D01*
X148755908Y-85462483D01*
X148806202Y-85597328D01*
X148806206Y-85597335D01*
X148892452Y-85712544D01*
X148892455Y-85712547D01*
X149007664Y-85798793D01*
X149007671Y-85798797D01*
X149007674Y-85798798D01*
X149139598Y-85848002D01*
X149195531Y-85889873D01*
X149219949Y-85955337D01*
X149205098Y-86023610D01*
X149183947Y-86051865D01*
X149061886Y-86173926D01*
X148926400Y-86367420D01*
X148926399Y-86367422D01*
X148826570Y-86581507D01*
X148826567Y-86581513D01*
X148769364Y-86794999D01*
X148769364Y-86795000D01*
X149666314Y-86795000D01*
X149640507Y-86835156D01*
X149600000Y-86973111D01*
X149600000Y-87116889D01*
X149640507Y-87254844D01*
X149666314Y-87295000D01*
X148769364Y-87295000D01*
X148826567Y-87508486D01*
X148826570Y-87508492D01*
X148926399Y-87722578D01*
X149061894Y-87916082D01*
X149228917Y-88083105D01*
X149414595Y-88213119D01*
X149458219Y-88267696D01*
X149465412Y-88337195D01*
X149433890Y-88399549D01*
X149414595Y-88416269D01*
X149228594Y-88546508D01*
X149061505Y-88713597D01*
X148925965Y-88907169D01*
X148925964Y-88907171D01*
X148826098Y-89121335D01*
X148826094Y-89121344D01*
X148764938Y-89349586D01*
X148764936Y-89349596D01*
X148744341Y-89584999D01*
X148744341Y-89585000D01*
X148764936Y-89820403D01*
X148764938Y-89820413D01*
X148826094Y-90048655D01*
X148826096Y-90048659D01*
X148826097Y-90048663D01*
X148883502Y-90171767D01*
X148925965Y-90262830D01*
X148925967Y-90262834D01*
X149061501Y-90456395D01*
X149061506Y-90456402D01*
X149228597Y-90623493D01*
X149228603Y-90623498D01*
X149414158Y-90753425D01*
X149457783Y-90808002D01*
X149464977Y-90877500D01*
X149433454Y-90939855D01*
X149414158Y-90956575D01*
X149228597Y-91086505D01*
X149061505Y-91253597D01*
X148925965Y-91447169D01*
X148925964Y-91447171D01*
X148826098Y-91661335D01*
X148826094Y-91661344D01*
X148764938Y-91889586D01*
X148764936Y-91889596D01*
X148744341Y-92124999D01*
X148744341Y-92125000D01*
X148764936Y-92360403D01*
X148764938Y-92360413D01*
X148826094Y-92588655D01*
X148826096Y-92588659D01*
X148826097Y-92588663D01*
X148925965Y-92802830D01*
X148925967Y-92802834D01*
X149061501Y-92996395D01*
X149061506Y-92996402D01*
X149228597Y-93163493D01*
X149228603Y-93163498D01*
X149414158Y-93293425D01*
X149457783Y-93348002D01*
X149464977Y-93417500D01*
X149433454Y-93479855D01*
X149414158Y-93496575D01*
X149228597Y-93626505D01*
X149061505Y-93793597D01*
X148925965Y-93987169D01*
X148925964Y-93987171D01*
X148826098Y-94201335D01*
X148826094Y-94201344D01*
X148764938Y-94429586D01*
X148764936Y-94429596D01*
X148744341Y-94664999D01*
X148744341Y-94665000D01*
X148764936Y-94900403D01*
X148764938Y-94900413D01*
X148826094Y-95128655D01*
X148826096Y-95128659D01*
X148826097Y-95128663D01*
X148903566Y-95294795D01*
X148925965Y-95342830D01*
X148925967Y-95342834D01*
X149061501Y-95536395D01*
X149061506Y-95536402D01*
X149228597Y-95703493D01*
X149228603Y-95703498D01*
X149414158Y-95833425D01*
X149457783Y-95888002D01*
X149464977Y-95957500D01*
X149433454Y-96019855D01*
X149414158Y-96036575D01*
X149228597Y-96166505D01*
X149061505Y-96333597D01*
X148925965Y-96527169D01*
X148925964Y-96527171D01*
X148826098Y-96741335D01*
X148826094Y-96741344D01*
X148764938Y-96969586D01*
X148764936Y-96969596D01*
X148744341Y-97204999D01*
X148744341Y-97205000D01*
X148764936Y-97440403D01*
X148764938Y-97440413D01*
X148826094Y-97668655D01*
X148826096Y-97668659D01*
X148826097Y-97668663D01*
X148911024Y-97850788D01*
X148925965Y-97882830D01*
X148925967Y-97882834D01*
X149061501Y-98076395D01*
X149061506Y-98076402D01*
X149228597Y-98243493D01*
X149228603Y-98243498D01*
X149414158Y-98373425D01*
X149457783Y-98428002D01*
X149464977Y-98497500D01*
X149433454Y-98559855D01*
X149414158Y-98576575D01*
X149228597Y-98706505D01*
X149061505Y-98873597D01*
X148925965Y-99067169D01*
X148925964Y-99067171D01*
X148826098Y-99281335D01*
X148826094Y-99281344D01*
X148764938Y-99509586D01*
X148764936Y-99509596D01*
X148744341Y-99744999D01*
X148744341Y-99745000D01*
X148764936Y-99980403D01*
X148764938Y-99980413D01*
X148826094Y-100208655D01*
X148826096Y-100208659D01*
X148826097Y-100208663D01*
X148833721Y-100225012D01*
X148925965Y-100422830D01*
X148925967Y-100422834D01*
X149034281Y-100577521D01*
X149061505Y-100616401D01*
X149228599Y-100783495D01*
X149246197Y-100795817D01*
X149422165Y-100919032D01*
X149422167Y-100919033D01*
X149422170Y-100919035D01*
X149636337Y-101018903D01*
X149864592Y-101080063D01*
X150052918Y-101096539D01*
X150099999Y-101100659D01*
X150100000Y-101100659D01*
X150100001Y-101100659D01*
X150139234Y-101097226D01*
X150335408Y-101080063D01*
X150563663Y-101018903D01*
X150777830Y-100919035D01*
X150971401Y-100783495D01*
X151138495Y-100616401D01*
X151274035Y-100422830D01*
X151373903Y-100208663D01*
X151425725Y-100015257D01*
X151462090Y-99955597D01*
X151524936Y-99925068D01*
X151594312Y-99933362D01*
X151648190Y-99977848D01*
X151669465Y-100044399D01*
X151669500Y-100047351D01*
X151669500Y-102543060D01*
X151649815Y-102610099D01*
X151597011Y-102655854D01*
X151527853Y-102665798D01*
X151464297Y-102636773D01*
X151457819Y-102630741D01*
X151412262Y-102585184D01*
X151259523Y-102489211D01*
X151089254Y-102429631D01*
X151089249Y-102429630D01*
X150910004Y-102409435D01*
X150909996Y-102409435D01*
X150730750Y-102429630D01*
X150730745Y-102429631D01*
X150560476Y-102489211D01*
X150407737Y-102585184D01*
X150280184Y-102712737D01*
X150184211Y-102865476D01*
X150124631Y-103035745D01*
X150124630Y-103035750D01*
X150104435Y-103214996D01*
X150104435Y-103215003D01*
X150124630Y-103394249D01*
X150124631Y-103394254D01*
X150184211Y-103564523D01*
X150260450Y-103685856D01*
X150280184Y-103717262D01*
X150407738Y-103844816D01*
X150560478Y-103940789D01*
X150730745Y-104000368D01*
X150730750Y-104000369D01*
X150909996Y-104020565D01*
X150910000Y-104020565D01*
X150910004Y-104020565D01*
X151089249Y-104000369D01*
X151089252Y-104000368D01*
X151089255Y-104000368D01*
X151259522Y-103940789D01*
X151412262Y-103844816D01*
X151457819Y-103799259D01*
X151519142Y-103765774D01*
X151588834Y-103770758D01*
X151644767Y-103812630D01*
X151669184Y-103878094D01*
X151669500Y-103886940D01*
X151669500Y-112170500D01*
X151649815Y-112237539D01*
X151597011Y-112283294D01*
X151545500Y-112294500D01*
X132874500Y-112294500D01*
X132807461Y-112274815D01*
X132761706Y-112222011D01*
X132750500Y-112170500D01*
X132750500Y-110350003D01*
X138469909Y-110350003D01*
X138488212Y-110512455D01*
X138542210Y-110666774D01*
X138542211Y-110666775D01*
X138629192Y-110805204D01*
X138744796Y-110920808D01*
X138883225Y-111007789D01*
X139037539Y-111061786D01*
X139037542Y-111061786D01*
X139037544Y-111061787D01*
X139199996Y-111080091D01*
X139200000Y-111080091D01*
X139200004Y-111080091D01*
X139362455Y-111061787D01*
X139362456Y-111061786D01*
X139362461Y-111061786D01*
X139516775Y-111007789D01*
X139655204Y-110920808D01*
X139770808Y-110805204D01*
X139857789Y-110666775D01*
X139911786Y-110512461D01*
X139930091Y-110350000D01*
X139911786Y-110187539D01*
X139857789Y-110033225D01*
X139770808Y-109894796D01*
X139655204Y-109779192D01*
X139627503Y-109761786D01*
X139516774Y-109692210D01*
X139362455Y-109638212D01*
X139200004Y-109619909D01*
X139199996Y-109619909D01*
X139037544Y-109638212D01*
X138883225Y-109692210D01*
X138744795Y-109779192D01*
X138629192Y-109894795D01*
X138542210Y-110033225D01*
X138488212Y-110187544D01*
X138469909Y-110349996D01*
X138469909Y-110350003D01*
X132750500Y-110350003D01*
X132750500Y-109474000D01*
X132770185Y-109406961D01*
X132822989Y-109361206D01*
X132874500Y-109350000D01*
X135700000Y-109350000D01*
X135700000Y-109050003D01*
X141019909Y-109050003D01*
X141038212Y-109212455D01*
X141092210Y-109366774D01*
X141159585Y-109474000D01*
X141179192Y-109505204D01*
X141294796Y-109620808D01*
X141433225Y-109707789D01*
X141587539Y-109761786D01*
X141587542Y-109761786D01*
X141587544Y-109761787D01*
X141749996Y-109780091D01*
X141750000Y-109780091D01*
X141750004Y-109780091D01*
X141912455Y-109761787D01*
X141912456Y-109761786D01*
X141912461Y-109761786D01*
X142066775Y-109707789D01*
X142205204Y-109620808D01*
X142320808Y-109505204D01*
X142407789Y-109366775D01*
X142461786Y-109212461D01*
X142480091Y-109050000D01*
X142461786Y-108887539D01*
X142407789Y-108733225D01*
X142375818Y-108682343D01*
X142356818Y-108615106D01*
X142375818Y-108550400D01*
X142437789Y-108451775D01*
X142491786Y-108297461D01*
X142510091Y-108135000D01*
X142491786Y-107972539D01*
X142437789Y-107818225D01*
X142350808Y-107679796D01*
X142235204Y-107564192D01*
X142235201Y-107564190D01*
X142230881Y-107560745D01*
X142190741Y-107503556D01*
X142187891Y-107433745D01*
X142223237Y-107373475D01*
X142242218Y-107358806D01*
X142366731Y-107280570D01*
X142482335Y-107164966D01*
X142569316Y-107026537D01*
X142623313Y-106872223D01*
X142623314Y-106872217D01*
X142641618Y-106709765D01*
X142641618Y-106709758D01*
X142623314Y-106547306D01*
X142623313Y-106547304D01*
X142623313Y-106547301D01*
X142569316Y-106392987D01*
X142482335Y-106254558D01*
X142366731Y-106138954D01*
X142344342Y-106124886D01*
X142228301Y-106051972D01*
X142073982Y-105997974D01*
X141911531Y-105979671D01*
X141911523Y-105979671D01*
X141749071Y-105997974D01*
X141594752Y-106051972D01*
X141456322Y-106138954D01*
X141340719Y-106254557D01*
X141253737Y-106392987D01*
X141199739Y-106547306D01*
X141181436Y-106709758D01*
X141181436Y-106709765D01*
X141199739Y-106872217D01*
X141253737Y-107026536D01*
X141274324Y-107059299D01*
X141340719Y-107164966D01*
X141456323Y-107280570D01*
X141456328Y-107280573D01*
X141460644Y-107284015D01*
X141500785Y-107341203D01*
X141503635Y-107411015D01*
X141468290Y-107471285D01*
X141449305Y-107485956D01*
X141324798Y-107564190D01*
X141324795Y-107564192D01*
X141209192Y-107679795D01*
X141122210Y-107818225D01*
X141068212Y-107972544D01*
X141049909Y-108134996D01*
X141049909Y-108135003D01*
X141068212Y-108297455D01*
X141122210Y-108451775D01*
X141154181Y-108502656D01*
X141173181Y-108569893D01*
X141154181Y-108634600D01*
X141092210Y-108733225D01*
X141038212Y-108887544D01*
X141019909Y-109049996D01*
X141019909Y-109050003D01*
X135700000Y-109050003D01*
X135700000Y-106060003D01*
X136669909Y-106060003D01*
X136688212Y-106222455D01*
X136688213Y-106222460D01*
X136688214Y-106222461D01*
X136695379Y-106242939D01*
X136742210Y-106376774D01*
X136788522Y-106450478D01*
X136829192Y-106515204D01*
X136944796Y-106630808D01*
X137083225Y-106717789D01*
X137237539Y-106771786D01*
X137237542Y-106771786D01*
X137237544Y-106771787D01*
X137399996Y-106790091D01*
X137400000Y-106790091D01*
X137400004Y-106790091D01*
X137562455Y-106771787D01*
X137562456Y-106771786D01*
X137562461Y-106771786D01*
X137716775Y-106717789D01*
X137855204Y-106630808D01*
X137855205Y-106630807D01*
X137860648Y-106626467D01*
X137861910Y-106628050D01*
X137914525Y-106599308D01*
X137954787Y-106597250D01*
X137980000Y-106600091D01*
X137980004Y-106600091D01*
X138142455Y-106581787D01*
X138142456Y-106581786D01*
X138142461Y-106581786D01*
X138296775Y-106527789D01*
X138435204Y-106440808D01*
X138550808Y-106325204D01*
X138637789Y-106186775D01*
X138691786Y-106032461D01*
X138710091Y-105870000D01*
X138700014Y-105780565D01*
X138691787Y-105707544D01*
X138691786Y-105707542D01*
X138691786Y-105707539D01*
X138637789Y-105553225D01*
X138632623Y-105545003D01*
X139154435Y-105545003D01*
X139174630Y-105724249D01*
X139174631Y-105724254D01*
X139234211Y-105894523D01*
X139309681Y-106014632D01*
X139330184Y-106047262D01*
X139457738Y-106174816D01*
X139476769Y-106186774D01*
X139584646Y-106254558D01*
X139610478Y-106270789D01*
X139654066Y-106286041D01*
X139780745Y-106330368D01*
X139780750Y-106330369D01*
X139959996Y-106350565D01*
X139960000Y-106350565D01*
X139960004Y-106350565D01*
X140139249Y-106330369D01*
X140139252Y-106330368D01*
X140139255Y-106330368D01*
X140309522Y-106270789D01*
X140462262Y-106174816D01*
X140589816Y-106047262D01*
X140685789Y-105894522D01*
X140745368Y-105724255D01*
X140746385Y-105715236D01*
X140765565Y-105545002D01*
X140765565Y-105545000D01*
X140762728Y-105519826D01*
X140774781Y-105451008D01*
X140822129Y-105399627D01*
X140844991Y-105388902D01*
X140976775Y-105342789D01*
X141115204Y-105255808D01*
X141230808Y-105140204D01*
X141317789Y-105001775D01*
X141371786Y-104847461D01*
X141377613Y-104795750D01*
X141390091Y-104685002D01*
X141390091Y-104684998D01*
X141388263Y-104668776D01*
X141400317Y-104599954D01*
X141417285Y-104576300D01*
X141416467Y-104575648D01*
X141420807Y-104570205D01*
X141420808Y-104570204D01*
X141507789Y-104431775D01*
X141561786Y-104277461D01*
X141570514Y-104200003D01*
X144969909Y-104200003D01*
X144988212Y-104362455D01*
X145042210Y-104516774D01*
X145045836Y-104522544D01*
X145129192Y-104655204D01*
X145244796Y-104770808D01*
X145383225Y-104857789D01*
X145515515Y-104904079D01*
X145572289Y-104944800D01*
X145598037Y-105009752D01*
X145584581Y-105078314D01*
X145540533Y-105126113D01*
X145511388Y-105144426D01*
X145395786Y-105260028D01*
X145308804Y-105398458D01*
X145254806Y-105552777D01*
X145236503Y-105715229D01*
X145236503Y-105715236D01*
X145254806Y-105877688D01*
X145308804Y-106032007D01*
X145395786Y-106170437D01*
X145453367Y-106228018D01*
X145486852Y-106289341D01*
X145481868Y-106359033D01*
X145439996Y-106414966D01*
X145431658Y-106420693D01*
X145319795Y-106490981D01*
X145204192Y-106606584D01*
X145117210Y-106745014D01*
X145063212Y-106899333D01*
X145044909Y-107061785D01*
X145044909Y-107061792D01*
X145063212Y-107224244D01*
X145117210Y-107378563D01*
X145153794Y-107436786D01*
X145204192Y-107516993D01*
X145319796Y-107632597D01*
X145458225Y-107719578D01*
X145612539Y-107773575D01*
X145612542Y-107773575D01*
X145612544Y-107773576D01*
X145774996Y-107791880D01*
X145775000Y-107791880D01*
X145775004Y-107791880D01*
X145937455Y-107773576D01*
X145937456Y-107773575D01*
X145937461Y-107773575D01*
X146091775Y-107719578D01*
X146230204Y-107632597D01*
X146345808Y-107516993D01*
X146430836Y-107381672D01*
X146483170Y-107335382D01*
X146549713Y-107324425D01*
X146599998Y-107330091D01*
X146600000Y-107330091D01*
X146600004Y-107330091D01*
X146762455Y-107311787D01*
X146762456Y-107311786D01*
X146762461Y-107311786D01*
X146916775Y-107257789D01*
X147055204Y-107170808D01*
X147170808Y-107055204D01*
X147170811Y-107055198D01*
X147175151Y-107049758D01*
X147177190Y-107051384D01*
X147220540Y-107013021D01*
X147289591Y-107002355D01*
X147353446Y-107030714D01*
X147378222Y-107059299D01*
X147434913Y-107149522D01*
X147454192Y-107180204D01*
X147569796Y-107295808D01*
X147708225Y-107382789D01*
X147862539Y-107436786D01*
X147862542Y-107436786D01*
X147862544Y-107436787D01*
X148024996Y-107455091D01*
X148025000Y-107455091D01*
X148025004Y-107455091D01*
X148187457Y-107436787D01*
X148187459Y-107436786D01*
X148187461Y-107436786D01*
X148341775Y-107382789D01*
X148355648Y-107374071D01*
X148422883Y-107355069D01*
X148489719Y-107375434D01*
X148509304Y-107391382D01*
X148547738Y-107429816D01*
X148700478Y-107525789D01*
X148810233Y-107564194D01*
X148870745Y-107585368D01*
X148870750Y-107585369D01*
X149049996Y-107605565D01*
X149050000Y-107605565D01*
X149050004Y-107605565D01*
X149229249Y-107585369D01*
X149229252Y-107585368D01*
X149229255Y-107585368D01*
X149399522Y-107525789D01*
X149552262Y-107429816D01*
X149679816Y-107302262D01*
X149775789Y-107149522D01*
X149835368Y-106979255D01*
X149845711Y-106887461D01*
X149855565Y-106800003D01*
X149855565Y-106799996D01*
X149835369Y-106620750D01*
X149835368Y-106620745D01*
X149821736Y-106581786D01*
X149775789Y-106450478D01*
X149769712Y-106440807D01*
X149679815Y-106297737D01*
X149552262Y-106170184D01*
X149399523Y-106074211D01*
X149229254Y-106014631D01*
X149229249Y-106014630D01*
X149050004Y-105994435D01*
X149049996Y-105994435D01*
X148870750Y-106014630D01*
X148870745Y-106014631D01*
X148700476Y-106074211D01*
X148617651Y-106126254D01*
X148550414Y-106145254D01*
X148483579Y-106124886D01*
X148459235Y-106102258D01*
X148459029Y-106102465D01*
X148453387Y-106096823D01*
X148453302Y-106096744D01*
X148453282Y-106096718D01*
X148453281Y-106096717D01*
X148428228Y-106077493D01*
X148416034Y-106066799D01*
X147324238Y-104975003D01*
X149212315Y-104975003D01*
X149232510Y-105154249D01*
X149232511Y-105154254D01*
X149292091Y-105324523D01*
X149388064Y-105477262D01*
X149515618Y-105604816D01*
X149668358Y-105700789D01*
X149735420Y-105724255D01*
X149838625Y-105760368D01*
X149838630Y-105760369D01*
X150017876Y-105780565D01*
X150017880Y-105780565D01*
X150017884Y-105780565D01*
X150197129Y-105760369D01*
X150197132Y-105760368D01*
X150197135Y-105760368D01*
X150367402Y-105700789D01*
X150520142Y-105604816D01*
X150647696Y-105477262D01*
X150743669Y-105324522D01*
X150803248Y-105154255D01*
X150803249Y-105154249D01*
X150823445Y-104975003D01*
X150823445Y-104974996D01*
X150803249Y-104795750D01*
X150803248Y-104795745D01*
X150794522Y-104770807D01*
X150743669Y-104625478D01*
X150647696Y-104472738D01*
X150520142Y-104345184D01*
X150412362Y-104277461D01*
X150367403Y-104249211D01*
X150197134Y-104189631D01*
X150197129Y-104189630D01*
X150017884Y-104169435D01*
X150017876Y-104169435D01*
X149838630Y-104189630D01*
X149838625Y-104189631D01*
X149668356Y-104249211D01*
X149515617Y-104345184D01*
X149388064Y-104472737D01*
X149292091Y-104625476D01*
X149232511Y-104795745D01*
X149232510Y-104795750D01*
X149212315Y-104974996D01*
X149212315Y-104975003D01*
X147324238Y-104975003D01*
X146444443Y-104095208D01*
X146415861Y-104043489D01*
X146414085Y-104044111D01*
X146411786Y-104037541D01*
X146411786Y-104037539D01*
X146357789Y-103883225D01*
X146357789Y-103883224D01*
X146356238Y-103880756D01*
X146355722Y-103878931D01*
X146354769Y-103876952D01*
X146355115Y-103876785D01*
X146337235Y-103813520D01*
X146357600Y-103746684D01*
X146410867Y-103701468D01*
X146480123Y-103692228D01*
X146502175Y-103697735D01*
X146622539Y-103739853D01*
X146622545Y-103739853D01*
X146622546Y-103739854D01*
X146784996Y-103758158D01*
X146785000Y-103758158D01*
X146785004Y-103758158D01*
X146947455Y-103739854D01*
X146947456Y-103739853D01*
X146947461Y-103739853D01*
X147101775Y-103685856D01*
X147240204Y-103598875D01*
X147355808Y-103483271D01*
X147442789Y-103344842D01*
X147496786Y-103190528D01*
X147499398Y-103167346D01*
X147515091Y-103028070D01*
X147515091Y-103028063D01*
X147496787Y-102865611D01*
X147496786Y-102865609D01*
X147496786Y-102865606D01*
X147442789Y-102711292D01*
X147355808Y-102572863D01*
X147240204Y-102457259D01*
X147196236Y-102429632D01*
X147101774Y-102370277D01*
X146947455Y-102316279D01*
X146785004Y-102297976D01*
X146784996Y-102297976D01*
X146622544Y-102316279D01*
X146468225Y-102370277D01*
X146329795Y-102457259D01*
X146214192Y-102572862D01*
X146127210Y-102711292D01*
X146073212Y-102865611D01*
X146054909Y-103028063D01*
X146054909Y-103028070D01*
X146073212Y-103190522D01*
X146127210Y-103344841D01*
X146128764Y-103347314D01*
X146129280Y-103349140D01*
X146130231Y-103351115D01*
X146129885Y-103351281D01*
X146147764Y-103414550D01*
X146127396Y-103481386D01*
X146074129Y-103526600D01*
X146004872Y-103535838D01*
X145982816Y-103530328D01*
X145862455Y-103488212D01*
X145700004Y-103469909D01*
X145699996Y-103469909D01*
X145537544Y-103488212D01*
X145383225Y-103542210D01*
X145244795Y-103629192D01*
X145129192Y-103744795D01*
X145042210Y-103883225D01*
X144988212Y-104037544D01*
X144969909Y-104199996D01*
X144969909Y-104200003D01*
X141570514Y-104200003D01*
X141579252Y-104122447D01*
X141606318Y-104058033D01*
X141614791Y-104048649D01*
X141663072Y-104000368D01*
X141724115Y-103939325D01*
X141811096Y-103800896D01*
X141865093Y-103646582D01*
X141865094Y-103646576D01*
X141883398Y-103484124D01*
X141883398Y-103484117D01*
X141865094Y-103321665D01*
X141865093Y-103321663D01*
X141865093Y-103321660D01*
X141811096Y-103167346D01*
X141724115Y-103028917D01*
X141608511Y-102913313D01*
X141608508Y-102913311D01*
X141499167Y-102844606D01*
X141452876Y-102792271D01*
X141442229Y-102723218D01*
X141470604Y-102659369D01*
X141499164Y-102634622D01*
X141600076Y-102571215D01*
X141715680Y-102455611D01*
X141802661Y-102317182D01*
X141856658Y-102162868D01*
X141861967Y-102115750D01*
X141874963Y-102000410D01*
X141874963Y-102000403D01*
X141856659Y-101837951D01*
X141856658Y-101837949D01*
X141856658Y-101837946D01*
X141802661Y-101683632D01*
X141715680Y-101545203D01*
X141600076Y-101429599D01*
X141570054Y-101410735D01*
X141461646Y-101342617D01*
X141307327Y-101288619D01*
X141144876Y-101270316D01*
X141144868Y-101270316D01*
X140982416Y-101288619D01*
X140828095Y-101342618D01*
X140770248Y-101378965D01*
X140703011Y-101397964D01*
X140663324Y-101391012D01*
X140612455Y-101373212D01*
X140450004Y-101354909D01*
X140449996Y-101354909D01*
X140287544Y-101373212D01*
X140133225Y-101427210D01*
X139994795Y-101514192D01*
X139879192Y-101629795D01*
X139792210Y-101768225D01*
X139738212Y-101922544D01*
X139719909Y-102084996D01*
X139719909Y-102085003D01*
X139738212Y-102247455D01*
X139792210Y-102401774D01*
X139879192Y-102540204D01*
X139896558Y-102557570D01*
X139930043Y-102618893D01*
X139925919Y-102686205D01*
X139878212Y-102822544D01*
X139859909Y-102984996D01*
X139859909Y-102985003D01*
X139878212Y-103147455D01*
X139932210Y-103301774D01*
X139990320Y-103394255D01*
X140019192Y-103440204D01*
X140134796Y-103555808D01*
X140180170Y-103584319D01*
X140226461Y-103636653D01*
X140237109Y-103705706D01*
X140219192Y-103755283D01*
X140192211Y-103798222D01*
X140138212Y-103952544D01*
X140119909Y-104114996D01*
X140119909Y-104115000D01*
X140121737Y-104131230D01*
X140109680Y-104200051D01*
X140092719Y-104223704D01*
X140093533Y-104224353D01*
X140089192Y-104229796D01*
X140002210Y-104368225D01*
X139948212Y-104522544D01*
X139934381Y-104645303D01*
X139907314Y-104709717D01*
X139849719Y-104749272D01*
X139825047Y-104754639D01*
X139780750Y-104759630D01*
X139610478Y-104819210D01*
X139457737Y-104915184D01*
X139330184Y-105042737D01*
X139234211Y-105195476D01*
X139174631Y-105365745D01*
X139174630Y-105365750D01*
X139154435Y-105544996D01*
X139154435Y-105545003D01*
X138632623Y-105545003D01*
X138550808Y-105414796D01*
X138435204Y-105299192D01*
X138366159Y-105255808D01*
X138296774Y-105212210D01*
X138142455Y-105158212D01*
X137980004Y-105139909D01*
X137979996Y-105139909D01*
X137817544Y-105158212D01*
X137663225Y-105212210D01*
X137524796Y-105299192D01*
X137519353Y-105303533D01*
X137518095Y-105301955D01*
X137465434Y-105330700D01*
X137425215Y-105332749D01*
X137400000Y-105329909D01*
X137399998Y-105329909D01*
X137399996Y-105329909D01*
X137237544Y-105348212D01*
X137083225Y-105402210D01*
X136944795Y-105489192D01*
X136829192Y-105604795D01*
X136742210Y-105743225D01*
X136688212Y-105897544D01*
X136669909Y-106059996D01*
X136669909Y-106060003D01*
X135700000Y-106060003D01*
X135700000Y-102513612D01*
X135719685Y-102446573D01*
X135727301Y-102435989D01*
X135737006Y-102423899D01*
X135840473Y-102295003D01*
X137124435Y-102295003D01*
X137144630Y-102474249D01*
X137144631Y-102474254D01*
X137204211Y-102644523D01*
X137253659Y-102723218D01*
X137300184Y-102797262D01*
X137427738Y-102924816D01*
X137580478Y-103020789D01*
X137750745Y-103080368D01*
X137750750Y-103080369D01*
X137929996Y-103100565D01*
X137930000Y-103100565D01*
X137930004Y-103100565D01*
X138109249Y-103080369D01*
X138109252Y-103080368D01*
X138109255Y-103080368D01*
X138279522Y-103020789D01*
X138432262Y-102924816D01*
X138559816Y-102797262D01*
X138655789Y-102644522D01*
X138715368Y-102474255D01*
X138721042Y-102423899D01*
X138735565Y-102295003D01*
X138735565Y-102294996D01*
X138715369Y-102115750D01*
X138715368Y-102115745D01*
X138704608Y-102084996D01*
X138655789Y-101945478D01*
X138641375Y-101922539D01*
X138559815Y-101792737D01*
X138432262Y-101665184D01*
X138279523Y-101569211D01*
X138109254Y-101509631D01*
X138109249Y-101509630D01*
X137930004Y-101489435D01*
X137929996Y-101489435D01*
X137750750Y-101509630D01*
X137750745Y-101509631D01*
X137580476Y-101569211D01*
X137427737Y-101665184D01*
X137300184Y-101792737D01*
X137204211Y-101945476D01*
X137144631Y-102115745D01*
X137144630Y-102115750D01*
X137124435Y-102294996D01*
X137124435Y-102295003D01*
X135840473Y-102295003D01*
X136842896Y-101046221D01*
X136900211Y-101006266D01*
X136939268Y-100999846D01*
X140750000Y-100990000D01*
X140200000Y-100125000D01*
X140199999Y-100124999D01*
X136500000Y-100099999D01*
X135250000Y-101074999D01*
X135249999Y-101075000D01*
X135262165Y-101792737D01*
X135270728Y-102297976D01*
X135272863Y-102423899D01*
X135254318Y-102491262D01*
X135202297Y-102537905D01*
X135148881Y-102550000D01*
X134735597Y-102550000D01*
X134668558Y-102530315D01*
X134622803Y-102477511D01*
X134612404Y-102440123D01*
X134561995Y-102000410D01*
X134467738Y-101178205D01*
X134479659Y-101109363D01*
X134526908Y-101057891D01*
X134558834Y-101044311D01*
X134624035Y-101026841D01*
X134653653Y-101018906D01*
X134653654Y-101018905D01*
X134653663Y-101018903D01*
X134867830Y-100919035D01*
X135061401Y-100783495D01*
X135228495Y-100616401D01*
X135364035Y-100422830D01*
X135463903Y-100208663D01*
X135525063Y-99980408D01*
X135545659Y-99745000D01*
X135525063Y-99509592D01*
X135463903Y-99281337D01*
X135364035Y-99067171D01*
X135282872Y-98951257D01*
X135228494Y-98873597D01*
X135115279Y-98760383D01*
X139039055Y-98760383D01*
X139059250Y-98939629D01*
X139059251Y-98939634D01*
X139118831Y-99109903D01*
X139170275Y-99191775D01*
X139214804Y-99262642D01*
X139342358Y-99390196D01*
X139425835Y-99442648D01*
X139461891Y-99465304D01*
X139495098Y-99486169D01*
X139665365Y-99545748D01*
X139665370Y-99545749D01*
X139844616Y-99565945D01*
X139844620Y-99565945D01*
X139844624Y-99565945D01*
X140023869Y-99545749D01*
X140023872Y-99545748D01*
X140023875Y-99545748D01*
X140194142Y-99486169D01*
X140346882Y-99390196D01*
X140474436Y-99262642D01*
X140570409Y-99109902D01*
X140629988Y-98939635D01*
X140635364Y-98891920D01*
X140650185Y-98760383D01*
X140650185Y-98760376D01*
X140629989Y-98581130D01*
X140629988Y-98581125D01*
X140621975Y-98558225D01*
X140570409Y-98410858D01*
X140474436Y-98258118D01*
X140346882Y-98130564D01*
X140194143Y-98034591D01*
X140023874Y-97975011D01*
X140023869Y-97975010D01*
X139844624Y-97954815D01*
X139844616Y-97954815D01*
X139665370Y-97975010D01*
X139665365Y-97975011D01*
X139495096Y-98034591D01*
X139342357Y-98130564D01*
X139214804Y-98258117D01*
X139118831Y-98410856D01*
X139059251Y-98581125D01*
X139059250Y-98581130D01*
X139039055Y-98760376D01*
X139039055Y-98760383D01*
X135115279Y-98760383D01*
X135061402Y-98706506D01*
X135061396Y-98706501D01*
X134875842Y-98576575D01*
X134832217Y-98521998D01*
X134825023Y-98452500D01*
X134856546Y-98390145D01*
X134875842Y-98373425D01*
X134948940Y-98322241D01*
X135061401Y-98243495D01*
X135228495Y-98076401D01*
X135364035Y-97882830D01*
X135463903Y-97668663D01*
X135525063Y-97440408D01*
X135545659Y-97205000D01*
X135525063Y-96969592D01*
X135463903Y-96741337D01*
X135364035Y-96527171D01*
X135362059Y-96524348D01*
X135228494Y-96333597D01*
X135209900Y-96315003D01*
X138724435Y-96315003D01*
X138744630Y-96494249D01*
X138744631Y-96494254D01*
X138804211Y-96664523D01*
X138873928Y-96775476D01*
X138900184Y-96817262D01*
X139027738Y-96944816D01*
X139067169Y-96969592D01*
X139140138Y-97015442D01*
X139180478Y-97040789D01*
X139217153Y-97053622D01*
X139350745Y-97100368D01*
X139350750Y-97100369D01*
X139529996Y-97120565D01*
X139530000Y-97120565D01*
X139530004Y-97120565D01*
X139709249Y-97100369D01*
X139709252Y-97100368D01*
X139709255Y-97100368D01*
X139879522Y-97040789D01*
X139946048Y-96998987D01*
X140013281Y-96979988D01*
X140080116Y-97000355D01*
X140125331Y-97053622D01*
X140135239Y-97117861D01*
X140134435Y-97124998D01*
X140134435Y-97125003D01*
X140154630Y-97304249D01*
X140154631Y-97304254D01*
X140214211Y-97474523D01*
X140284375Y-97586188D01*
X140310184Y-97627262D01*
X140437738Y-97754816D01*
X140590478Y-97850789D01*
X140760745Y-97910368D01*
X140760750Y-97910369D01*
X140939996Y-97930565D01*
X140940000Y-97930565D01*
X140940004Y-97930565D01*
X141119249Y-97910369D01*
X141119252Y-97910368D01*
X141119255Y-97910368D01*
X141289522Y-97850789D01*
X141442262Y-97754816D01*
X141569816Y-97627262D01*
X141665789Y-97474522D01*
X141725368Y-97304255D01*
X141733192Y-97234815D01*
X141745565Y-97125003D01*
X141745565Y-97124996D01*
X141725369Y-96945750D01*
X141725368Y-96945745D01*
X141665788Y-96775476D01*
X141596071Y-96664523D01*
X141569816Y-96622738D01*
X141442262Y-96495184D01*
X141389111Y-96461787D01*
X141289523Y-96399211D01*
X141119254Y-96339631D01*
X141119249Y-96339630D01*
X140940004Y-96319435D01*
X140939996Y-96319435D01*
X140760750Y-96339630D01*
X140760745Y-96339631D01*
X140590476Y-96399211D01*
X140523953Y-96441011D01*
X140456716Y-96460011D01*
X140389881Y-96439643D01*
X140344667Y-96386375D01*
X140334761Y-96322131D01*
X140335565Y-96315000D01*
X140318834Y-96166505D01*
X140315369Y-96135750D01*
X140315368Y-96135745D01*
X140274816Y-96019855D01*
X140255789Y-95965478D01*
X140236638Y-95935000D01*
X140216582Y-95903080D01*
X140159816Y-95812738D01*
X140097081Y-95750003D01*
X143469909Y-95750003D01*
X143488212Y-95912455D01*
X143542210Y-96066774D01*
X143542211Y-96066775D01*
X143629192Y-96205204D01*
X143744796Y-96320808D01*
X143883225Y-96407789D01*
X144037539Y-96461786D01*
X144037543Y-96461786D01*
X144037545Y-96461787D01*
X144084708Y-96467101D01*
X144149123Y-96494167D01*
X144175819Y-96524348D01*
X144239190Y-96625202D01*
X144239192Y-96625204D01*
X144354796Y-96740808D01*
X144493225Y-96827789D01*
X144493227Y-96827790D01*
X144647531Y-96881784D01*
X144647535Y-96881785D01*
X144647536Y-96881785D01*
X144647539Y-96881786D01*
X144718634Y-96889796D01*
X144783046Y-96916861D01*
X144808908Y-96949629D01*
X144810506Y-96948626D01*
X144868416Y-97040789D01*
X144910184Y-97107262D01*
X145037738Y-97234816D01*
X145128080Y-97291582D01*
X145169266Y-97317461D01*
X145190478Y-97330789D01*
X145347713Y-97385808D01*
X145360745Y-97390368D01*
X145360750Y-97390369D01*
X145539996Y-97410565D01*
X145540000Y-97410565D01*
X145540003Y-97410565D01*
X145646159Y-97398603D01*
X145712428Y-97391137D01*
X145781250Y-97403191D01*
X145792285Y-97409364D01*
X145899122Y-97476495D01*
X145898175Y-97478000D01*
X145943326Y-97518762D01*
X145961642Y-97586188D01*
X145960888Y-97597547D01*
X145949909Y-97694995D01*
X145949909Y-97695003D01*
X145968212Y-97857455D01*
X146022210Y-98011774D01*
X146109192Y-98150204D01*
X146229720Y-98270732D01*
X146228613Y-98271838D01*
X146263993Y-98322241D01*
X146269761Y-98348119D01*
X146276625Y-98409042D01*
X146330623Y-98563361D01*
X146330624Y-98563362D01*
X146417605Y-98701791D01*
X146533209Y-98817395D01*
X146601252Y-98860149D01*
X146647543Y-98912484D01*
X146658500Y-98951257D01*
X146663266Y-98993549D01*
X146651213Y-99062371D01*
X146627728Y-99095115D01*
X146594194Y-99128649D01*
X146507210Y-99267082D01*
X146453212Y-99421401D01*
X146434909Y-99583853D01*
X146434909Y-99587726D01*
X146434200Y-99590137D01*
X146434129Y-99590776D01*
X146434017Y-99590763D01*
X146415224Y-99654765D01*
X146398590Y-99675407D01*
X146304192Y-99769804D01*
X146217210Y-99908234D01*
X146163212Y-100062553D01*
X146144909Y-100225005D01*
X146144909Y-100225012D01*
X146163212Y-100387464D01*
X146217210Y-100541783D01*
X146217211Y-100541784D01*
X146304192Y-100680213D01*
X146419796Y-100795817D01*
X146558225Y-100882798D01*
X146712539Y-100936795D01*
X146712542Y-100936795D01*
X146712544Y-100936796D01*
X146874996Y-100955100D01*
X146875000Y-100955100D01*
X146875004Y-100955100D01*
X147037455Y-100936796D01*
X147037456Y-100936795D01*
X147037461Y-100936795D01*
X147191775Y-100882798D01*
X147330204Y-100795817D01*
X147445808Y-100680213D01*
X147532789Y-100541784D01*
X147586786Y-100387470D01*
X147605091Y-100225009D01*
X147605091Y-100225005D01*
X147605091Y-100221140D01*
X147605799Y-100218728D01*
X147605871Y-100218090D01*
X147605982Y-100218102D01*
X147624776Y-100154101D01*
X147641410Y-100133459D01*
X147674870Y-100099999D01*
X147735808Y-100039061D01*
X147822789Y-99900632D01*
X147876786Y-99746318D01*
X147887165Y-99654201D01*
X147895091Y-99583860D01*
X147895091Y-99583854D01*
X147883117Y-99477583D01*
X147881733Y-99465303D01*
X147893787Y-99396482D01*
X147917270Y-99363741D01*
X147950808Y-99330204D01*
X148037789Y-99191775D01*
X148091786Y-99037461D01*
X148101499Y-98951257D01*
X148110091Y-98875003D01*
X148110091Y-98874996D01*
X148091787Y-98712544D01*
X148091786Y-98712542D01*
X148091786Y-98712539D01*
X148037789Y-98558225D01*
X147950808Y-98419796D01*
X147835204Y-98304192D01*
X147835202Y-98304190D01*
X147767158Y-98261435D01*
X147720868Y-98209100D01*
X147709911Y-98170324D01*
X147700200Y-98084134D01*
X147700199Y-98084128D01*
X147700199Y-98084126D01*
X147646202Y-97929812D01*
X147559221Y-97791383D01*
X147529499Y-97761661D01*
X147496014Y-97700338D01*
X147500998Y-97630646D01*
X147512181Y-97608017D01*
X147597789Y-97471775D01*
X147651786Y-97317461D01*
X147661098Y-97234815D01*
X147670091Y-97155003D01*
X147670091Y-97154996D01*
X147651787Y-96992544D01*
X147651786Y-96992542D01*
X147651786Y-96992539D01*
X147597789Y-96838225D01*
X147510808Y-96699796D01*
X147395204Y-96584192D01*
X147304453Y-96527169D01*
X147256774Y-96497210D01*
X147102455Y-96443212D01*
X146940004Y-96424909D01*
X146940003Y-96424909D01*
X146940001Y-96424909D01*
X146940000Y-96424909D01*
X146917328Y-96427463D01*
X146906963Y-96428631D01*
X146838141Y-96416574D01*
X146788089Y-96371383D01*
X146780809Y-96359798D01*
X146780807Y-96359795D01*
X146665204Y-96244192D01*
X146526774Y-96157210D01*
X146372455Y-96103212D01*
X146210004Y-96084909D01*
X146203349Y-96084909D01*
X146136310Y-96065224D01*
X146115668Y-96048590D01*
X146042262Y-95975184D01*
X145889523Y-95879211D01*
X145719254Y-95819631D01*
X145719249Y-95819630D01*
X145540004Y-95799435D01*
X145540001Y-95799435D01*
X145540000Y-95799435D01*
X145534408Y-95800064D01*
X145518420Y-95801866D01*
X145449598Y-95789809D01*
X145399547Y-95744618D01*
X145380809Y-95714798D01*
X145380807Y-95714795D01*
X145265204Y-95599192D01*
X145126774Y-95512210D01*
X145026457Y-95477108D01*
X144972461Y-95458214D01*
X144958856Y-95456681D01*
X144925286Y-95452898D01*
X144860873Y-95425830D01*
X144834179Y-95395650D01*
X144770807Y-95294795D01*
X144655204Y-95179192D01*
X144516774Y-95092210D01*
X144362455Y-95038212D01*
X144200004Y-95019909D01*
X144199996Y-95019909D01*
X144037544Y-95038212D01*
X143883225Y-95092210D01*
X143744795Y-95179192D01*
X143629192Y-95294795D01*
X143542210Y-95433225D01*
X143488212Y-95587544D01*
X143469909Y-95749996D01*
X143469909Y-95750003D01*
X140097081Y-95750003D01*
X140032262Y-95685184D01*
X139879523Y-95589211D01*
X139709254Y-95529631D01*
X139709249Y-95529630D01*
X139530004Y-95509435D01*
X139529996Y-95509435D01*
X139350750Y-95529630D01*
X139350745Y-95529631D01*
X139180476Y-95589211D01*
X139027737Y-95685184D01*
X138900184Y-95812737D01*
X138804211Y-95965476D01*
X138744631Y-96135745D01*
X138744630Y-96135750D01*
X138724435Y-96314996D01*
X138724435Y-96315003D01*
X135209900Y-96315003D01*
X135061402Y-96166506D01*
X135061396Y-96166501D01*
X134875842Y-96036575D01*
X134832217Y-95981998D01*
X134825023Y-95912500D01*
X134856546Y-95850145D01*
X134875842Y-95833425D01*
X134920913Y-95801866D01*
X135061401Y-95703495D01*
X135228495Y-95536401D01*
X135364035Y-95342830D01*
X135463903Y-95128663D01*
X135525063Y-94900408D01*
X135545659Y-94665000D01*
X135525063Y-94429592D01*
X135463903Y-94201337D01*
X135437634Y-94145003D01*
X139634435Y-94145003D01*
X139654630Y-94324249D01*
X139654631Y-94324254D01*
X139714211Y-94494523D01*
X139810184Y-94647262D01*
X139937738Y-94774816D01*
X140090478Y-94870789D01*
X140175139Y-94900413D01*
X140260745Y-94930368D01*
X140260750Y-94930369D01*
X140439996Y-94950565D01*
X140440000Y-94950565D01*
X140440004Y-94950565D01*
X140619249Y-94930369D01*
X140619252Y-94930368D01*
X140619255Y-94930368D01*
X140789522Y-94870789D01*
X140942262Y-94774816D01*
X141069816Y-94647262D01*
X141165789Y-94494522D01*
X141225368Y-94324255D01*
X141239217Y-94201344D01*
X141245565Y-94145003D01*
X141245565Y-94144996D01*
X141225369Y-93965750D01*
X141225368Y-93965745D01*
X141165788Y-93795476D01*
X141069815Y-93642737D01*
X140942262Y-93515184D01*
X140789523Y-93419211D01*
X140619254Y-93359631D01*
X140619249Y-93359630D01*
X140440004Y-93339435D01*
X140439996Y-93339435D01*
X140260750Y-93359630D01*
X140260745Y-93359631D01*
X140090476Y-93419211D01*
X139937737Y-93515184D01*
X139810184Y-93642737D01*
X139714211Y-93795476D01*
X139654631Y-93965745D01*
X139654630Y-93965750D01*
X139634435Y-94144996D01*
X139634435Y-94145003D01*
X135437634Y-94145003D01*
X135364035Y-93987171D01*
X135349033Y-93965745D01*
X135228494Y-93793597D01*
X135061402Y-93626506D01*
X135061396Y-93626501D01*
X134875842Y-93496575D01*
X134832217Y-93441998D01*
X134825023Y-93372500D01*
X134856546Y-93310145D01*
X134875842Y-93293425D01*
X134898026Y-93277891D01*
X135061401Y-93163495D01*
X135228495Y-92996401D01*
X135364035Y-92802830D01*
X135463903Y-92588663D01*
X135525063Y-92360408D01*
X135545659Y-92125000D01*
X135525063Y-91889592D01*
X135463903Y-91661337D01*
X135364035Y-91447171D01*
X135228495Y-91253599D01*
X135228494Y-91253597D01*
X135061402Y-91086506D01*
X135061396Y-91086501D01*
X134875842Y-90956575D01*
X134832217Y-90901998D01*
X134825023Y-90832500D01*
X134856546Y-90770145D01*
X134875842Y-90753425D01*
X134915284Y-90725807D01*
X135061401Y-90623495D01*
X135228495Y-90456401D01*
X135364035Y-90262830D01*
X135414316Y-90155003D01*
X140729909Y-90155003D01*
X140748212Y-90317455D01*
X140802210Y-90471774D01*
X140802211Y-90471775D01*
X140889192Y-90610204D01*
X141004796Y-90725808D01*
X141143225Y-90812789D01*
X141297539Y-90866786D01*
X141297542Y-90866786D01*
X141297544Y-90866787D01*
X141459996Y-90885091D01*
X141460000Y-90885091D01*
X141460004Y-90885091D01*
X141622455Y-90866787D01*
X141622456Y-90866786D01*
X141622461Y-90866786D01*
X141776775Y-90812789D01*
X141915204Y-90725808D01*
X142030808Y-90610204D01*
X142117789Y-90471775D01*
X142171786Y-90317461D01*
X142177942Y-90262830D01*
X142180944Y-90236182D01*
X142208010Y-90171767D01*
X142265604Y-90132212D01*
X142318047Y-90126844D01*
X142479996Y-90145091D01*
X142480000Y-90145091D01*
X142480004Y-90145091D01*
X142642455Y-90126787D01*
X142642456Y-90126786D01*
X142642461Y-90126786D01*
X142796775Y-90072789D01*
X142935204Y-89985808D01*
X143050808Y-89870204D01*
X143137789Y-89731775D01*
X143191786Y-89577461D01*
X143206912Y-89443214D01*
X143210091Y-89415003D01*
X143210091Y-89414996D01*
X143191787Y-89252544D01*
X143191786Y-89252542D01*
X143191786Y-89252539D01*
X143137789Y-89098225D01*
X143050808Y-88959796D01*
X142935204Y-88844192D01*
X142796774Y-88757210D01*
X142642455Y-88703212D01*
X142480004Y-88684909D01*
X142479996Y-88684909D01*
X142317544Y-88703212D01*
X142163225Y-88757210D01*
X142024795Y-88844192D01*
X141909192Y-88959795D01*
X141822210Y-89098225D01*
X141768212Y-89252544D01*
X141759055Y-89333819D01*
X141731988Y-89398233D01*
X141674393Y-89437788D01*
X141621952Y-89443155D01*
X141460004Y-89424909D01*
X141459996Y-89424909D01*
X141297544Y-89443212D01*
X141143225Y-89497210D01*
X141004795Y-89584192D01*
X140889192Y-89699795D01*
X140802210Y-89838225D01*
X140748212Y-89992544D01*
X140729909Y-90154996D01*
X140729909Y-90155003D01*
X135414316Y-90155003D01*
X135463903Y-90048663D01*
X135525063Y-89820408D01*
X135545659Y-89585000D01*
X135525063Y-89349592D01*
X135463903Y-89121337D01*
X135364035Y-88907171D01*
X135259033Y-88757211D01*
X135228494Y-88713597D01*
X135061402Y-88546506D01*
X135061396Y-88546501D01*
X134875842Y-88416575D01*
X134832217Y-88361998D01*
X134825023Y-88292500D01*
X134856546Y-88230145D01*
X134875842Y-88213425D01*
X134898026Y-88197891D01*
X135061401Y-88083495D01*
X135228495Y-87916401D01*
X135364035Y-87722830D01*
X135367354Y-87715713D01*
X136870000Y-87715713D01*
X136885418Y-87867338D01*
X136946299Y-88061381D01*
X136946304Y-88061391D01*
X137045005Y-88239215D01*
X137045005Y-88239216D01*
X137177478Y-88393530D01*
X137177479Y-88393531D01*
X137338304Y-88518018D01*
X137520907Y-88607589D01*
X137620000Y-88633244D01*
X137620000Y-87831110D01*
X137644457Y-87870610D01*
X137733962Y-87938201D01*
X137841840Y-87968895D01*
X137953521Y-87958546D01*
X138053922Y-87908552D01*
X138120000Y-87836069D01*
X138120000Y-88638365D01*
X138121944Y-88638069D01*
X138121945Y-88638069D01*
X138312660Y-88567436D01*
X138312664Y-88567434D01*
X138485267Y-88459850D01*
X138632668Y-88319735D01*
X138632669Y-88319733D01*
X138748856Y-88152804D01*
X138829059Y-87965907D01*
X138870000Y-87766690D01*
X138870000Y-87215384D01*
X138889685Y-87148345D01*
X138942489Y-87102590D01*
X139011647Y-87092646D01*
X139041454Y-87100823D01*
X139149764Y-87145687D01*
X139262280Y-87160500D01*
X139262287Y-87160500D01*
X139337713Y-87160500D01*
X139337720Y-87160500D01*
X139450236Y-87145687D01*
X139590233Y-87087698D01*
X139710451Y-86995451D01*
X139802698Y-86875233D01*
X139860687Y-86735236D01*
X139880466Y-86585000D01*
X144499534Y-86585000D01*
X144519312Y-86735234D01*
X144519313Y-86735236D01*
X144550951Y-86811618D01*
X144577302Y-86875233D01*
X144669549Y-86995451D01*
X144789767Y-87087698D01*
X144929764Y-87145687D01*
X145042280Y-87160500D01*
X145042287Y-87160500D01*
X145117713Y-87160500D01*
X145117720Y-87160500D01*
X145230236Y-87145687D01*
X145338547Y-87100823D01*
X145408017Y-87093354D01*
X145470496Y-87124629D01*
X145506148Y-87184718D01*
X145510000Y-87215384D01*
X145510000Y-87715713D01*
X145525418Y-87867338D01*
X145586299Y-88061381D01*
X145586304Y-88061391D01*
X145685005Y-88239215D01*
X145685005Y-88239216D01*
X145817478Y-88393530D01*
X145817479Y-88393531D01*
X145978304Y-88518018D01*
X146160907Y-88607589D01*
X146260000Y-88633244D01*
X146260000Y-87831110D01*
X146284457Y-87870610D01*
X146373962Y-87938201D01*
X146481840Y-87968895D01*
X146593521Y-87958546D01*
X146693922Y-87908552D01*
X146760000Y-87836069D01*
X146760000Y-88638366D01*
X146761944Y-88638069D01*
X146761945Y-88638069D01*
X146952660Y-88567436D01*
X146952664Y-88567434D01*
X147125267Y-88459850D01*
X147272668Y-88319735D01*
X147272669Y-88319733D01*
X147388856Y-88152804D01*
X147469059Y-87965907D01*
X147510000Y-87766690D01*
X147510000Y-87365000D01*
X146810000Y-87365000D01*
X146810000Y-86865000D01*
X147510000Y-86865000D01*
X147510000Y-86514286D01*
X147494581Y-86362661D01*
X147433700Y-86168618D01*
X147433695Y-86168608D01*
X147334994Y-85990784D01*
X147334994Y-85990783D01*
X147202521Y-85836469D01*
X147202520Y-85836468D01*
X147041695Y-85711981D01*
X146859093Y-85622411D01*
X146760000Y-85596753D01*
X146760000Y-86398889D01*
X146735543Y-86359390D01*
X146646038Y-86291799D01*
X146538160Y-86261105D01*
X146426479Y-86271454D01*
X146326078Y-86321448D01*
X146260000Y-86393930D01*
X146260000Y-85591633D01*
X146258053Y-85591931D01*
X146258047Y-85591933D01*
X146067342Y-85662562D01*
X146067335Y-85662565D01*
X145894732Y-85770149D01*
X145747331Y-85910264D01*
X145747330Y-85910266D01*
X145631142Y-86077197D01*
X145631140Y-86077200D01*
X145627760Y-86085078D01*
X145583232Y-86138921D01*
X145516663Y-86160142D01*
X145449189Y-86142005D01*
X145438332Y-86134556D01*
X145370233Y-86082302D01*
X145370232Y-86082301D01*
X145370230Y-86082300D01*
X145279731Y-86044814D01*
X145230236Y-86024313D01*
X145216171Y-86022461D01*
X145117727Y-86009500D01*
X145117720Y-86009500D01*
X145042280Y-86009500D01*
X145042272Y-86009500D01*
X144929764Y-86024313D01*
X144929763Y-86024313D01*
X144789770Y-86082300D01*
X144789767Y-86082301D01*
X144789767Y-86082302D01*
X144669549Y-86174549D01*
X144579580Y-86291799D01*
X144577300Y-86294770D01*
X144519313Y-86434763D01*
X144519312Y-86434765D01*
X144499534Y-86584999D01*
X144499534Y-86585000D01*
X139880466Y-86585000D01*
X139879983Y-86581335D01*
X139860687Y-86434765D01*
X139860687Y-86434764D01*
X139802698Y-86294767D01*
X139710451Y-86174549D01*
X139590233Y-86082302D01*
X139590229Y-86082300D01*
X139516288Y-86051673D01*
X139450236Y-86024313D01*
X139436171Y-86022461D01*
X139337727Y-86009500D01*
X139337720Y-86009500D01*
X139262280Y-86009500D01*
X139262272Y-86009500D01*
X139149764Y-86024313D01*
X139149763Y-86024313D01*
X139009769Y-86082300D01*
X138987821Y-86099142D01*
X138938743Y-86136800D01*
X138873575Y-86161994D01*
X138805131Y-86147956D01*
X138755141Y-86099142D01*
X138754839Y-86098602D01*
X138694994Y-85990784D01*
X138694994Y-85990783D01*
X138562521Y-85836469D01*
X138562520Y-85836468D01*
X138401695Y-85711981D01*
X138219093Y-85622411D01*
X138120000Y-85596753D01*
X138120000Y-86398889D01*
X138095543Y-86359390D01*
X138006038Y-86291799D01*
X137898160Y-86261105D01*
X137786479Y-86271454D01*
X137686078Y-86321448D01*
X137620000Y-86393930D01*
X137620000Y-85591633D01*
X137618053Y-85591931D01*
X137618047Y-85591933D01*
X137427342Y-85662562D01*
X137427335Y-85662565D01*
X137254732Y-85770149D01*
X137107331Y-85910264D01*
X137107330Y-85910266D01*
X136991143Y-86077195D01*
X136910940Y-86264092D01*
X136870000Y-86463309D01*
X136870000Y-86865000D01*
X137570000Y-86865000D01*
X137570000Y-87365000D01*
X136870000Y-87365000D01*
X136870000Y-87715713D01*
X135367354Y-87715713D01*
X135463903Y-87508663D01*
X135525063Y-87280408D01*
X135545659Y-87045000D01*
X135525063Y-86809592D01*
X135474275Y-86620048D01*
X135463905Y-86581344D01*
X135463904Y-86581343D01*
X135463903Y-86581337D01*
X135364035Y-86367171D01*
X135313339Y-86294770D01*
X135228496Y-86173600D01*
X135189447Y-86134551D01*
X135106567Y-86051671D01*
X135073084Y-85990351D01*
X135078068Y-85920659D01*
X135119939Y-85864725D01*
X135150915Y-85847810D01*
X135282331Y-85798796D01*
X135397546Y-85712546D01*
X135483796Y-85597331D01*
X135534091Y-85462483D01*
X135540500Y-85402873D01*
X135540499Y-83607128D01*
X135534091Y-83547517D01*
X135530875Y-83538895D01*
X135483797Y-83412671D01*
X135483793Y-83412664D01*
X135397547Y-83297455D01*
X135397544Y-83297452D01*
X135282335Y-83211206D01*
X135282328Y-83211202D01*
X135147482Y-83160908D01*
X135147483Y-83160908D01*
X135087883Y-83154501D01*
X135087881Y-83154500D01*
X135087873Y-83154500D01*
X135087864Y-83154500D01*
X133292129Y-83154500D01*
X133292123Y-83154501D01*
X133232516Y-83160908D01*
X133097671Y-83211202D01*
X133097664Y-83211206D01*
X132982455Y-83297452D01*
X132973766Y-83309060D01*
X132917832Y-83350930D01*
X132848140Y-83355914D01*
X132786818Y-83322428D01*
X132753333Y-83261105D01*
X132750500Y-83234748D01*
X132750500Y-82159500D01*
X132770185Y-82092461D01*
X132822989Y-82046706D01*
X132874500Y-82035500D01*
X136850928Y-82035500D01*
X136917967Y-82055185D01*
G37*
%TD.AperFunction*%
%TD*%
M02*
