%TF.GenerationSoftware,KiCad,Pcbnew,7.0.11-7.0.11~ubuntu22.04.1*%
%TF.CreationDate,2024-10-26T23:49:20+02:00*%
%TF.ProjectId,C6-40-Flash-test,43362d34-302d-4466-9c61-73682d746573,1.0*%
%TF.SameCoordinates,Original*%
%TF.FileFunction,Drillmap*%
%TF.FilePolarity,Positive*%
%FSLAX45Y45*%
G04 Gerber Fmt 4.5, Leading zero omitted, Abs format (unit mm)*
G04 Created by KiCad (PCBNEW 7.0.11-7.0.11~ubuntu22.04.1) date 2024-10-26 23:49:20*
%MOMM*%
%LPD*%
G01*
G04 APERTURE LIST*
%ADD10C,0.050000*%
%ADD11C,0.200000*%
%ADD12C,0.100000*%
G04 APERTURE END LIST*
D10*
X13235000Y-11269500D02*
X13235000Y-8163500D01*
X15207000Y-8163500D02*
X15207000Y-11269500D01*
X15207000Y-11269500D02*
X13235000Y-11269500D01*
X13235000Y-8163500D02*
X15207000Y-8163500D01*
D11*
D12*
X13480000Y-10210000D02*
X13500000Y-10230000D01*
X13500000Y-10210000D02*
X13480000Y-10230000D01*
X13705000Y-9332500D02*
X13725000Y-9352500D01*
X13725000Y-9332500D02*
X13705000Y-9352500D01*
X13730000Y-10596000D02*
X13750000Y-10616000D01*
X13750000Y-10596000D02*
X13730000Y-10616000D01*
X13788000Y-10577000D02*
X13808000Y-10597000D01*
X13808000Y-10577000D02*
X13788000Y-10597000D01*
X13910000Y-11025000D02*
X13930000Y-11045000D01*
X13930000Y-11025000D02*
X13910000Y-11045000D01*
X13959400Y-10775159D02*
X13979400Y-10795159D01*
X13979400Y-10775159D02*
X13959400Y-10795159D01*
X14035000Y-10198500D02*
X14055000Y-10218500D01*
X14055000Y-10198500D02*
X14035000Y-10218500D01*
X14049000Y-10288500D02*
X14069000Y-10308500D01*
X14069000Y-10288500D02*
X14049000Y-10308500D01*
X14056000Y-10458500D02*
X14076000Y-10478500D01*
X14076000Y-10458500D02*
X14056000Y-10478500D01*
X14075000Y-10401500D02*
X14095000Y-10421500D01*
X14095000Y-10401500D02*
X14075000Y-10421500D01*
X14104487Y-10190041D02*
X14124487Y-10210041D01*
X14124487Y-10190041D02*
X14104487Y-10210041D01*
X14105331Y-10338412D02*
X14125331Y-10358412D01*
X14125331Y-10338412D02*
X14105331Y-10358412D01*
X14136000Y-9005500D02*
X14156000Y-9025500D01*
X14156000Y-9005500D02*
X14136000Y-9025500D01*
X14165000Y-10895000D02*
X14185000Y-10915000D01*
X14185000Y-10895000D02*
X14165000Y-10915000D01*
X14168000Y-10803500D02*
X14188000Y-10823500D01*
X14188000Y-10803500D02*
X14168000Y-10823500D01*
X14181153Y-10660976D02*
X14201153Y-10680976D01*
X14201153Y-10660976D02*
X14181153Y-10680976D01*
X14238000Y-8931500D02*
X14258000Y-8951500D01*
X14258000Y-8931500D02*
X14238000Y-8951500D01*
X14410000Y-9565000D02*
X14430000Y-9585000D01*
X14430000Y-9565000D02*
X14410000Y-9585000D01*
X14411000Y-9220500D02*
X14431000Y-9240500D01*
X14431000Y-9220500D02*
X14411000Y-9240500D01*
X14471000Y-9607000D02*
X14491000Y-9627000D01*
X14491000Y-9607000D02*
X14471000Y-9627000D01*
X14560000Y-10410000D02*
X14580000Y-10430000D01*
X14580000Y-10410000D02*
X14560000Y-10430000D01*
X14567500Y-10696179D02*
X14587500Y-10716179D01*
X14587500Y-10696179D02*
X14567500Y-10716179D01*
X14586659Y-10561523D02*
X14606659Y-10581523D01*
X14606659Y-10561523D02*
X14586659Y-10581523D01*
X14611000Y-9671500D02*
X14631000Y-9691500D01*
X14631000Y-9671500D02*
X14611000Y-9691500D01*
X14650000Y-10650000D02*
X14670000Y-10670000D01*
X14670000Y-10650000D02*
X14650000Y-10670000D01*
X14658000Y-9759500D02*
X14678000Y-9779500D01*
X14678000Y-9759500D02*
X14658000Y-9779500D01*
X14668500Y-10292807D02*
X14688500Y-10312807D01*
X14688500Y-10292807D02*
X14668500Y-10312807D01*
X14677500Y-10012501D02*
X14697500Y-10032501D01*
X14697500Y-10012501D02*
X14677500Y-10032501D01*
X14684000Y-9705500D02*
X14704000Y-9725500D01*
X14704000Y-9705500D02*
X14684000Y-9725500D01*
X14688841Y-9814659D02*
X14708841Y-9834659D01*
X14708841Y-9814659D02*
X14688841Y-9834659D01*
X14706500Y-9948386D02*
X14726500Y-9968386D01*
X14726500Y-9948386D02*
X14706500Y-9968386D01*
X14727000Y-9598000D02*
X14747000Y-9618000D01*
X14747000Y-9598000D02*
X14727000Y-9618000D01*
X14728000Y-9877500D02*
X14748000Y-9897500D01*
X14748000Y-9877500D02*
X14728000Y-9897500D01*
X14792500Y-10662500D02*
X14812500Y-10682500D01*
X14812500Y-10662500D02*
X14792500Y-10682500D01*
X13592000Y-10685000D02*
G75*
G03*
X13562000Y-10685000I-15000J0D01*
G01*
X13562000Y-10685000D02*
G75*
G03*
X13592000Y-10685000I15000J0D01*
G01*
X13592000Y-10764000D02*
G75*
G03*
X13562000Y-10764000I-15000J0D01*
G01*
X13562000Y-10764000D02*
G75*
G03*
X13592000Y-10764000I15000J0D01*
G01*
X13593000Y-10535000D02*
G75*
G03*
X13563000Y-10535000I-15000J0D01*
G01*
X13563000Y-10535000D02*
G75*
G03*
X13593000Y-10535000I15000J0D01*
G01*
X13593000Y-10613000D02*
G75*
G03*
X13563000Y-10613000I-15000J0D01*
G01*
X13563000Y-10613000D02*
G75*
G03*
X13593000Y-10613000I15000J0D01*
G01*
X13593000Y-10838000D02*
G75*
G03*
X13563000Y-10838000I-15000J0D01*
G01*
X13563000Y-10838000D02*
G75*
G03*
X13593000Y-10838000I15000J0D01*
G01*
X13594000Y-10458000D02*
G75*
G03*
X13564000Y-10458000I-15000J0D01*
G01*
X13564000Y-10458000D02*
G75*
G03*
X13594000Y-10458000I15000J0D01*
G01*
X13609000Y-11104500D02*
G75*
G03*
X13579000Y-11104500I-15000J0D01*
G01*
X13579000Y-11104500D02*
G75*
G03*
X13609000Y-11104500I15000J0D01*
G01*
X13670000Y-9673500D02*
G75*
G03*
X13640000Y-9673500I-15000J0D01*
G01*
X13640000Y-9673500D02*
G75*
G03*
X13670000Y-9673500I15000J0D01*
G01*
X13670000Y-10216500D02*
G75*
G03*
X13640000Y-10216500I-15000J0D01*
G01*
X13640000Y-10216500D02*
G75*
G03*
X13670000Y-10216500I15000J0D01*
G01*
X13672000Y-10523500D02*
G75*
G03*
X13642000Y-10523500I-15000J0D01*
G01*
X13642000Y-10523500D02*
G75*
G03*
X13672000Y-10523500I15000J0D01*
G01*
X13808000Y-10229500D02*
G75*
G03*
X13778000Y-10229500I-15000J0D01*
G01*
X13778000Y-10229500D02*
G75*
G03*
X13808000Y-10229500I15000J0D01*
G01*
X13820000Y-11043500D02*
G75*
G03*
X13790000Y-11043500I-15000J0D01*
G01*
X13790000Y-11043500D02*
G75*
G03*
X13820000Y-11043500I15000J0D01*
G01*
X13968000Y-9631500D02*
G75*
G03*
X13938000Y-9631500I-15000J0D01*
G01*
X13938000Y-9631500D02*
G75*
G03*
X13968000Y-9631500I15000J0D01*
G01*
X13999462Y-9876038D02*
G75*
G03*
X13969462Y-9876038I-15000J0D01*
G01*
X13969462Y-9876038D02*
G75*
G03*
X13999462Y-9876038I15000J0D01*
G01*
X14011000Y-10554500D02*
G75*
G03*
X13981000Y-10554500I-15000J0D01*
G01*
X13981000Y-10554500D02*
G75*
G03*
X14011000Y-10554500I15000J0D01*
G01*
X14059000Y-9414500D02*
G75*
G03*
X14029000Y-9414500I-15000J0D01*
G01*
X14029000Y-9414500D02*
G75*
G03*
X14059000Y-9414500I15000J0D01*
G01*
X14109000Y-9712500D02*
G75*
G03*
X14079000Y-9712500I-15000J0D01*
G01*
X14079000Y-9712500D02*
G75*
G03*
X14109000Y-9712500I15000J0D01*
G01*
X14260000Y-11185000D02*
G75*
G03*
X14230000Y-11185000I-15000J0D01*
G01*
X14230000Y-11185000D02*
G75*
G03*
X14260000Y-11185000I15000J0D01*
G01*
X14389000Y-9925500D02*
G75*
G03*
X14359000Y-9925500I-15000J0D01*
G01*
X14359000Y-9925500D02*
G75*
G03*
X14389000Y-9925500I15000J0D01*
G01*
X14389000Y-10060500D02*
G75*
G03*
X14359000Y-10060500I-15000J0D01*
G01*
X14359000Y-10060500D02*
G75*
G03*
X14389000Y-10060500I15000J0D01*
G01*
X14390000Y-9993500D02*
G75*
G03*
X14360000Y-9993500I-15000J0D01*
G01*
X14360000Y-9993500D02*
G75*
G03*
X14390000Y-9993500I15000J0D01*
G01*
X14569000Y-9660500D02*
G75*
G03*
X14539000Y-9660500I-15000J0D01*
G01*
X14539000Y-9660500D02*
G75*
G03*
X14569000Y-9660500I15000J0D01*
G01*
X14920000Y-10680000D02*
G75*
G03*
X14890000Y-10680000I-15000J0D01*
G01*
X14890000Y-10680000D02*
G75*
G03*
X14920000Y-10680000I15000J0D01*
G01*
X15016788Y-10497500D02*
G75*
G03*
X14986788Y-10497500I-15000J0D01*
G01*
X14986788Y-10497500D02*
G75*
G03*
X15016788Y-10497500I15000J0D01*
G01*
X15090000Y-10815000D02*
G75*
G03*
X15060000Y-10815000I-15000J0D01*
G01*
X15060000Y-10815000D02*
G75*
G03*
X15090000Y-10815000I15000J0D01*
G01*
X15106000Y-10321500D02*
G75*
G03*
X15076000Y-10321500I-15000J0D01*
G01*
X15076000Y-10321500D02*
G75*
G03*
X15106000Y-10321500I15000J0D01*
G01*
X13787000Y-8263500D02*
X13787000Y-8323500D01*
X13757000Y-8293500D02*
X13817000Y-8293500D01*
X13817000Y-8323500D02*
X13817000Y-8263500D01*
X13817000Y-8263500D02*
G75*
G03*
X13757000Y-8263500I-30000J0D01*
G01*
X13757000Y-8263500D02*
X13757000Y-8323500D01*
X13757000Y-8323500D02*
G75*
G03*
X13817000Y-8323500I30000J0D01*
G01*
X13787000Y-8681500D02*
X13787000Y-8741500D01*
X13757000Y-8711500D02*
X13817000Y-8711500D01*
X13817000Y-8766500D02*
X13817000Y-8656500D01*
X13817000Y-8656500D02*
G75*
G03*
X13757000Y-8656500I-30000J0D01*
G01*
X13757000Y-8656500D02*
X13757000Y-8766500D01*
X13757000Y-8766500D02*
G75*
G03*
X13817000Y-8766500I30000J0D01*
G01*
X14651000Y-8263500D02*
X14651000Y-8323500D01*
X14621000Y-8293500D02*
X14681000Y-8293500D01*
X14681000Y-8323500D02*
X14681000Y-8263500D01*
X14681000Y-8263500D02*
G75*
G03*
X14621000Y-8263500I-30000J0D01*
G01*
X14621000Y-8263500D02*
X14621000Y-8323500D01*
X14621000Y-8323500D02*
G75*
G03*
X14681000Y-8323500I30000J0D01*
G01*
X14651000Y-8681500D02*
X14651000Y-8741500D01*
X14621000Y-8711500D02*
X14681000Y-8711500D01*
X14681000Y-8766500D02*
X14681000Y-8656500D01*
X14681000Y-8656500D02*
G75*
G03*
X14621000Y-8656500I-30000J0D01*
G01*
X14621000Y-8656500D02*
X14621000Y-8766500D01*
X14621000Y-8766500D02*
G75*
G03*
X14681000Y-8766500I30000J0D01*
G01*
X13454356Y-8485856D02*
X13454356Y-8415144D01*
X13383644Y-8415144D01*
X13383644Y-8485856D01*
X13454356Y-8485856D01*
X13454356Y-8739856D02*
X13454356Y-8669144D01*
X13383644Y-8669144D01*
X13383644Y-8739856D01*
X13454356Y-8739856D01*
X13454356Y-8993856D02*
X13454356Y-8923144D01*
X13383644Y-8923144D01*
X13383644Y-8993856D01*
X13454356Y-8993856D01*
X13454356Y-9247856D02*
X13454356Y-9177144D01*
X13383644Y-9177144D01*
X13383644Y-9247856D01*
X13454356Y-9247856D01*
X13454356Y-9501856D02*
X13454356Y-9431144D01*
X13383644Y-9431144D01*
X13383644Y-9501856D01*
X13454356Y-9501856D01*
X13454356Y-9755856D02*
X13454356Y-9685144D01*
X13383644Y-9685144D01*
X13383644Y-9755856D01*
X13454356Y-9755856D01*
X13454356Y-10009856D02*
X13454356Y-9939144D01*
X13383644Y-9939144D01*
X13383644Y-10009856D01*
X13454356Y-10009856D01*
X15045356Y-8485856D02*
X15045356Y-8415144D01*
X14974644Y-8415144D01*
X14974644Y-8485856D01*
X15045356Y-8485856D01*
X15045356Y-8739856D02*
X15045356Y-8669144D01*
X14974644Y-8669144D01*
X14974644Y-8739856D01*
X15045356Y-8739856D01*
X15045356Y-8993856D02*
X15045356Y-8923144D01*
X14974644Y-8923144D01*
X14974644Y-8993856D01*
X15045356Y-8993856D01*
X15045356Y-9247856D02*
X15045356Y-9177144D01*
X14974644Y-9177144D01*
X14974644Y-9247856D01*
X15045356Y-9247856D01*
X15045356Y-9501856D02*
X15045356Y-9431144D01*
X14974644Y-9431144D01*
X14974644Y-9501856D01*
X15045356Y-9501856D01*
X15045356Y-9755856D02*
X15045356Y-9685144D01*
X14974644Y-9685144D01*
X14974644Y-9755856D01*
X15045356Y-9755856D01*
X15045356Y-10009856D02*
X15045356Y-9939144D01*
X14974644Y-9939144D01*
X14974644Y-10009856D01*
X15045356Y-10009856D01*
D11*
X13493277Y-11583484D02*
X13493277Y-11383484D01*
X13493277Y-11383484D02*
X13540896Y-11383484D01*
X13540896Y-11383484D02*
X13569467Y-11393008D01*
X13569467Y-11393008D02*
X13588515Y-11412055D01*
X13588515Y-11412055D02*
X13598039Y-11431103D01*
X13598039Y-11431103D02*
X13607562Y-11469198D01*
X13607562Y-11469198D02*
X13607562Y-11497769D01*
X13607562Y-11497769D02*
X13598039Y-11535865D01*
X13598039Y-11535865D02*
X13588515Y-11554912D01*
X13588515Y-11554912D02*
X13569467Y-11573960D01*
X13569467Y-11573960D02*
X13540896Y-11583484D01*
X13540896Y-11583484D02*
X13493277Y-11583484D01*
X13693277Y-11583484D02*
X13693277Y-11450150D01*
X13693277Y-11488246D02*
X13702801Y-11469198D01*
X13702801Y-11469198D02*
X13712324Y-11459674D01*
X13712324Y-11459674D02*
X13731372Y-11450150D01*
X13731372Y-11450150D02*
X13750420Y-11450150D01*
X13817086Y-11583484D02*
X13817086Y-11450150D01*
X13817086Y-11383484D02*
X13807562Y-11393008D01*
X13807562Y-11393008D02*
X13817086Y-11402531D01*
X13817086Y-11402531D02*
X13826610Y-11393008D01*
X13826610Y-11393008D02*
X13817086Y-11383484D01*
X13817086Y-11383484D02*
X13817086Y-11402531D01*
X13940896Y-11583484D02*
X13921848Y-11573960D01*
X13921848Y-11573960D02*
X13912324Y-11554912D01*
X13912324Y-11554912D02*
X13912324Y-11383484D01*
X14045658Y-11583484D02*
X14026610Y-11573960D01*
X14026610Y-11573960D02*
X14017086Y-11554912D01*
X14017086Y-11554912D02*
X14017086Y-11383484D01*
X14274229Y-11583484D02*
X14274229Y-11383484D01*
X14274229Y-11383484D02*
X14340896Y-11526341D01*
X14340896Y-11526341D02*
X14407562Y-11383484D01*
X14407562Y-11383484D02*
X14407562Y-11583484D01*
X14588515Y-11583484D02*
X14588515Y-11478722D01*
X14588515Y-11478722D02*
X14578991Y-11459674D01*
X14578991Y-11459674D02*
X14559943Y-11450150D01*
X14559943Y-11450150D02*
X14521848Y-11450150D01*
X14521848Y-11450150D02*
X14502801Y-11459674D01*
X14588515Y-11573960D02*
X14569467Y-11583484D01*
X14569467Y-11583484D02*
X14521848Y-11583484D01*
X14521848Y-11583484D02*
X14502801Y-11573960D01*
X14502801Y-11573960D02*
X14493277Y-11554912D01*
X14493277Y-11554912D02*
X14493277Y-11535865D01*
X14493277Y-11535865D02*
X14502801Y-11516817D01*
X14502801Y-11516817D02*
X14521848Y-11507293D01*
X14521848Y-11507293D02*
X14569467Y-11507293D01*
X14569467Y-11507293D02*
X14588515Y-11497769D01*
X14683753Y-11450150D02*
X14683753Y-11650150D01*
X14683753Y-11459674D02*
X14702801Y-11450150D01*
X14702801Y-11450150D02*
X14740896Y-11450150D01*
X14740896Y-11450150D02*
X14759943Y-11459674D01*
X14759943Y-11459674D02*
X14769467Y-11469198D01*
X14769467Y-11469198D02*
X14778991Y-11488246D01*
X14778991Y-11488246D02*
X14778991Y-11545388D01*
X14778991Y-11545388D02*
X14769467Y-11564436D01*
X14769467Y-11564436D02*
X14759943Y-11573960D01*
X14759943Y-11573960D02*
X14740896Y-11583484D01*
X14740896Y-11583484D02*
X14702801Y-11583484D01*
X14702801Y-11583484D02*
X14683753Y-11573960D01*
X14864705Y-11564436D02*
X14874229Y-11573960D01*
X14874229Y-11573960D02*
X14864705Y-11583484D01*
X14864705Y-11583484D02*
X14855182Y-11573960D01*
X14855182Y-11573960D02*
X14864705Y-11564436D01*
X14864705Y-11564436D02*
X14864705Y-11583484D01*
X14864705Y-11459674D02*
X14874229Y-11469198D01*
X14874229Y-11469198D02*
X14864705Y-11478722D01*
X14864705Y-11478722D02*
X14855182Y-11469198D01*
X14855182Y-11469198D02*
X14864705Y-11459674D01*
X14864705Y-11459674D02*
X14864705Y-11478722D01*
D12*
X13212500Y-11902000D02*
X13232500Y-11922000D01*
X13232500Y-11902000D02*
X13212500Y-11922000D01*
D11*
X13531372Y-11803484D02*
X13550420Y-11803484D01*
X13550420Y-11803484D02*
X13569467Y-11813008D01*
X13569467Y-11813008D02*
X13578991Y-11822531D01*
X13578991Y-11822531D02*
X13588515Y-11841579D01*
X13588515Y-11841579D02*
X13598039Y-11879674D01*
X13598039Y-11879674D02*
X13598039Y-11927293D01*
X13598039Y-11927293D02*
X13588515Y-11965388D01*
X13588515Y-11965388D02*
X13578991Y-11984436D01*
X13578991Y-11984436D02*
X13569467Y-11993960D01*
X13569467Y-11993960D02*
X13550420Y-12003484D01*
X13550420Y-12003484D02*
X13531372Y-12003484D01*
X13531372Y-12003484D02*
X13512324Y-11993960D01*
X13512324Y-11993960D02*
X13502801Y-11984436D01*
X13502801Y-11984436D02*
X13493277Y-11965388D01*
X13493277Y-11965388D02*
X13483753Y-11927293D01*
X13483753Y-11927293D02*
X13483753Y-11879674D01*
X13483753Y-11879674D02*
X13493277Y-11841579D01*
X13493277Y-11841579D02*
X13502801Y-11822531D01*
X13502801Y-11822531D02*
X13512324Y-11813008D01*
X13512324Y-11813008D02*
X13531372Y-11803484D01*
X13683753Y-11984436D02*
X13693277Y-11993960D01*
X13693277Y-11993960D02*
X13683753Y-12003484D01*
X13683753Y-12003484D02*
X13674229Y-11993960D01*
X13674229Y-11993960D02*
X13683753Y-11984436D01*
X13683753Y-11984436D02*
X13683753Y-12003484D01*
X13769467Y-11822531D02*
X13778991Y-11813008D01*
X13778991Y-11813008D02*
X13798039Y-11803484D01*
X13798039Y-11803484D02*
X13845658Y-11803484D01*
X13845658Y-11803484D02*
X13864705Y-11813008D01*
X13864705Y-11813008D02*
X13874229Y-11822531D01*
X13874229Y-11822531D02*
X13883753Y-11841579D01*
X13883753Y-11841579D02*
X13883753Y-11860627D01*
X13883753Y-11860627D02*
X13874229Y-11889198D01*
X13874229Y-11889198D02*
X13759943Y-12003484D01*
X13759943Y-12003484D02*
X13883753Y-12003484D01*
X14007562Y-11803484D02*
X14026610Y-11803484D01*
X14026610Y-11803484D02*
X14045658Y-11813008D01*
X14045658Y-11813008D02*
X14055182Y-11822531D01*
X14055182Y-11822531D02*
X14064705Y-11841579D01*
X14064705Y-11841579D02*
X14074229Y-11879674D01*
X14074229Y-11879674D02*
X14074229Y-11927293D01*
X14074229Y-11927293D02*
X14064705Y-11965388D01*
X14064705Y-11965388D02*
X14055182Y-11984436D01*
X14055182Y-11984436D02*
X14045658Y-11993960D01*
X14045658Y-11993960D02*
X14026610Y-12003484D01*
X14026610Y-12003484D02*
X14007562Y-12003484D01*
X14007562Y-12003484D02*
X13988515Y-11993960D01*
X13988515Y-11993960D02*
X13978991Y-11984436D01*
X13978991Y-11984436D02*
X13969467Y-11965388D01*
X13969467Y-11965388D02*
X13959943Y-11927293D01*
X13959943Y-11927293D02*
X13959943Y-11879674D01*
X13959943Y-11879674D02*
X13969467Y-11841579D01*
X13969467Y-11841579D02*
X13978991Y-11822531D01*
X13978991Y-11822531D02*
X13988515Y-11813008D01*
X13988515Y-11813008D02*
X14007562Y-11803484D01*
X14198039Y-11803484D02*
X14217086Y-11803484D01*
X14217086Y-11803484D02*
X14236134Y-11813008D01*
X14236134Y-11813008D02*
X14245658Y-11822531D01*
X14245658Y-11822531D02*
X14255182Y-11841579D01*
X14255182Y-11841579D02*
X14264705Y-11879674D01*
X14264705Y-11879674D02*
X14264705Y-11927293D01*
X14264705Y-11927293D02*
X14255182Y-11965388D01*
X14255182Y-11965388D02*
X14245658Y-11984436D01*
X14245658Y-11984436D02*
X14236134Y-11993960D01*
X14236134Y-11993960D02*
X14217086Y-12003484D01*
X14217086Y-12003484D02*
X14198039Y-12003484D01*
X14198039Y-12003484D02*
X14178991Y-11993960D01*
X14178991Y-11993960D02*
X14169467Y-11984436D01*
X14169467Y-11984436D02*
X14159943Y-11965388D01*
X14159943Y-11965388D02*
X14150420Y-11927293D01*
X14150420Y-11927293D02*
X14150420Y-11879674D01*
X14150420Y-11879674D02*
X14159943Y-11841579D01*
X14159943Y-11841579D02*
X14169467Y-11822531D01*
X14169467Y-11822531D02*
X14178991Y-11813008D01*
X14178991Y-11813008D02*
X14198039Y-11803484D01*
X14350420Y-12003484D02*
X14350420Y-11870150D01*
X14350420Y-11889198D02*
X14359943Y-11879674D01*
X14359943Y-11879674D02*
X14378991Y-11870150D01*
X14378991Y-11870150D02*
X14407563Y-11870150D01*
X14407563Y-11870150D02*
X14426610Y-11879674D01*
X14426610Y-11879674D02*
X14436134Y-11898722D01*
X14436134Y-11898722D02*
X14436134Y-12003484D01*
X14436134Y-11898722D02*
X14445658Y-11879674D01*
X14445658Y-11879674D02*
X14464705Y-11870150D01*
X14464705Y-11870150D02*
X14493277Y-11870150D01*
X14493277Y-11870150D02*
X14512324Y-11879674D01*
X14512324Y-11879674D02*
X14521848Y-11898722D01*
X14521848Y-11898722D02*
X14521848Y-12003484D01*
X14617086Y-12003484D02*
X14617086Y-11870150D01*
X14617086Y-11889198D02*
X14626610Y-11879674D01*
X14626610Y-11879674D02*
X14645658Y-11870150D01*
X14645658Y-11870150D02*
X14674229Y-11870150D01*
X14674229Y-11870150D02*
X14693277Y-11879674D01*
X14693277Y-11879674D02*
X14702801Y-11898722D01*
X14702801Y-11898722D02*
X14702801Y-12003484D01*
X14702801Y-11898722D02*
X14712324Y-11879674D01*
X14712324Y-11879674D02*
X14731372Y-11870150D01*
X14731372Y-11870150D02*
X14759943Y-11870150D01*
X14759943Y-11870150D02*
X14778991Y-11879674D01*
X14778991Y-11879674D02*
X14788515Y-11898722D01*
X14788515Y-11898722D02*
X14788515Y-12003484D01*
X15178991Y-11793960D02*
X15007563Y-12051103D01*
X15436134Y-11803484D02*
X15455182Y-11803484D01*
X15455182Y-11803484D02*
X15474229Y-11813008D01*
X15474229Y-11813008D02*
X15483753Y-11822531D01*
X15483753Y-11822531D02*
X15493277Y-11841579D01*
X15493277Y-11841579D02*
X15502801Y-11879674D01*
X15502801Y-11879674D02*
X15502801Y-11927293D01*
X15502801Y-11927293D02*
X15493277Y-11965388D01*
X15493277Y-11965388D02*
X15483753Y-11984436D01*
X15483753Y-11984436D02*
X15474229Y-11993960D01*
X15474229Y-11993960D02*
X15455182Y-12003484D01*
X15455182Y-12003484D02*
X15436134Y-12003484D01*
X15436134Y-12003484D02*
X15417086Y-11993960D01*
X15417086Y-11993960D02*
X15407563Y-11984436D01*
X15407563Y-11984436D02*
X15398039Y-11965388D01*
X15398039Y-11965388D02*
X15388515Y-11927293D01*
X15388515Y-11927293D02*
X15388515Y-11879674D01*
X15388515Y-11879674D02*
X15398039Y-11841579D01*
X15398039Y-11841579D02*
X15407563Y-11822531D01*
X15407563Y-11822531D02*
X15417086Y-11813008D01*
X15417086Y-11813008D02*
X15436134Y-11803484D01*
X15588515Y-11984436D02*
X15598039Y-11993960D01*
X15598039Y-11993960D02*
X15588515Y-12003484D01*
X15588515Y-12003484D02*
X15578991Y-11993960D01*
X15578991Y-11993960D02*
X15588515Y-11984436D01*
X15588515Y-11984436D02*
X15588515Y-12003484D01*
X15721848Y-11803484D02*
X15740896Y-11803484D01*
X15740896Y-11803484D02*
X15759944Y-11813008D01*
X15759944Y-11813008D02*
X15769467Y-11822531D01*
X15769467Y-11822531D02*
X15778991Y-11841579D01*
X15778991Y-11841579D02*
X15788515Y-11879674D01*
X15788515Y-11879674D02*
X15788515Y-11927293D01*
X15788515Y-11927293D02*
X15778991Y-11965388D01*
X15778991Y-11965388D02*
X15769467Y-11984436D01*
X15769467Y-11984436D02*
X15759944Y-11993960D01*
X15759944Y-11993960D02*
X15740896Y-12003484D01*
X15740896Y-12003484D02*
X15721848Y-12003484D01*
X15721848Y-12003484D02*
X15702801Y-11993960D01*
X15702801Y-11993960D02*
X15693277Y-11984436D01*
X15693277Y-11984436D02*
X15683753Y-11965388D01*
X15683753Y-11965388D02*
X15674229Y-11927293D01*
X15674229Y-11927293D02*
X15674229Y-11879674D01*
X15674229Y-11879674D02*
X15683753Y-11841579D01*
X15683753Y-11841579D02*
X15693277Y-11822531D01*
X15693277Y-11822531D02*
X15702801Y-11813008D01*
X15702801Y-11813008D02*
X15721848Y-11803484D01*
X15912325Y-11803484D02*
X15931372Y-11803484D01*
X15931372Y-11803484D02*
X15950420Y-11813008D01*
X15950420Y-11813008D02*
X15959944Y-11822531D01*
X15959944Y-11822531D02*
X15969467Y-11841579D01*
X15969467Y-11841579D02*
X15978991Y-11879674D01*
X15978991Y-11879674D02*
X15978991Y-11927293D01*
X15978991Y-11927293D02*
X15969467Y-11965388D01*
X15969467Y-11965388D02*
X15959944Y-11984436D01*
X15959944Y-11984436D02*
X15950420Y-11993960D01*
X15950420Y-11993960D02*
X15931372Y-12003484D01*
X15931372Y-12003484D02*
X15912325Y-12003484D01*
X15912325Y-12003484D02*
X15893277Y-11993960D01*
X15893277Y-11993960D02*
X15883753Y-11984436D01*
X15883753Y-11984436D02*
X15874229Y-11965388D01*
X15874229Y-11965388D02*
X15864706Y-11927293D01*
X15864706Y-11927293D02*
X15864706Y-11879674D01*
X15864706Y-11879674D02*
X15874229Y-11841579D01*
X15874229Y-11841579D02*
X15883753Y-11822531D01*
X15883753Y-11822531D02*
X15893277Y-11813008D01*
X15893277Y-11813008D02*
X15912325Y-11803484D01*
X16045658Y-11803484D02*
X16178991Y-11803484D01*
X16178991Y-11803484D02*
X16093277Y-12003484D01*
X16264706Y-12003484D02*
X16302801Y-12003484D01*
X16302801Y-12003484D02*
X16321848Y-11993960D01*
X16321848Y-11993960D02*
X16331372Y-11984436D01*
X16331372Y-11984436D02*
X16350420Y-11955865D01*
X16350420Y-11955865D02*
X16359944Y-11917769D01*
X16359944Y-11917769D02*
X16359944Y-11841579D01*
X16359944Y-11841579D02*
X16350420Y-11822531D01*
X16350420Y-11822531D02*
X16340896Y-11813008D01*
X16340896Y-11813008D02*
X16321848Y-11803484D01*
X16321848Y-11803484D02*
X16283753Y-11803484D01*
X16283753Y-11803484D02*
X16264706Y-11813008D01*
X16264706Y-11813008D02*
X16255182Y-11822531D01*
X16255182Y-11822531D02*
X16245658Y-11841579D01*
X16245658Y-11841579D02*
X16245658Y-11889198D01*
X16245658Y-11889198D02*
X16255182Y-11908246D01*
X16255182Y-11908246D02*
X16264706Y-11917769D01*
X16264706Y-11917769D02*
X16283753Y-11927293D01*
X16283753Y-11927293D02*
X16321848Y-11927293D01*
X16321848Y-11927293D02*
X16340896Y-11917769D01*
X16340896Y-11917769D02*
X16350420Y-11908246D01*
X16350420Y-11908246D02*
X16359944Y-11889198D01*
X16436134Y-11803484D02*
X16436134Y-11841579D01*
X16512325Y-11803484D02*
X16512325Y-11841579D01*
X16807563Y-12079674D02*
X16798039Y-12070150D01*
X16798039Y-12070150D02*
X16778991Y-12041579D01*
X16778991Y-12041579D02*
X16769468Y-12022531D01*
X16769468Y-12022531D02*
X16759944Y-11993960D01*
X16759944Y-11993960D02*
X16750420Y-11946341D01*
X16750420Y-11946341D02*
X16750420Y-11908246D01*
X16750420Y-11908246D02*
X16759944Y-11860627D01*
X16759944Y-11860627D02*
X16769468Y-11832055D01*
X16769468Y-11832055D02*
X16778991Y-11813008D01*
X16778991Y-11813008D02*
X16798039Y-11784436D01*
X16798039Y-11784436D02*
X16807563Y-11774912D01*
X16864706Y-11803484D02*
X16988515Y-11803484D01*
X16988515Y-11803484D02*
X16921849Y-11879674D01*
X16921849Y-11879674D02*
X16950420Y-11879674D01*
X16950420Y-11879674D02*
X16969468Y-11889198D01*
X16969468Y-11889198D02*
X16978991Y-11898722D01*
X16978991Y-11898722D02*
X16988515Y-11917769D01*
X16988515Y-11917769D02*
X16988515Y-11965388D01*
X16988515Y-11965388D02*
X16978991Y-11984436D01*
X16978991Y-11984436D02*
X16969468Y-11993960D01*
X16969468Y-11993960D02*
X16950420Y-12003484D01*
X16950420Y-12003484D02*
X16893277Y-12003484D01*
X16893277Y-12003484D02*
X16874230Y-11993960D01*
X16874230Y-11993960D02*
X16864706Y-11984436D01*
X17159944Y-11870150D02*
X17159944Y-12003484D01*
X17112325Y-11793960D02*
X17064706Y-11936817D01*
X17064706Y-11936817D02*
X17188515Y-11936817D01*
X17417087Y-12003484D02*
X17417087Y-11803484D01*
X17502801Y-12003484D02*
X17502801Y-11898722D01*
X17502801Y-11898722D02*
X17493277Y-11879674D01*
X17493277Y-11879674D02*
X17474230Y-11870150D01*
X17474230Y-11870150D02*
X17445658Y-11870150D01*
X17445658Y-11870150D02*
X17426611Y-11879674D01*
X17426611Y-11879674D02*
X17417087Y-11889198D01*
X17626611Y-12003484D02*
X17607563Y-11993960D01*
X17607563Y-11993960D02*
X17598039Y-11984436D01*
X17598039Y-11984436D02*
X17588515Y-11965388D01*
X17588515Y-11965388D02*
X17588515Y-11908246D01*
X17588515Y-11908246D02*
X17598039Y-11889198D01*
X17598039Y-11889198D02*
X17607563Y-11879674D01*
X17607563Y-11879674D02*
X17626611Y-11870150D01*
X17626611Y-11870150D02*
X17655182Y-11870150D01*
X17655182Y-11870150D02*
X17674230Y-11879674D01*
X17674230Y-11879674D02*
X17683753Y-11889198D01*
X17683753Y-11889198D02*
X17693277Y-11908246D01*
X17693277Y-11908246D02*
X17693277Y-11965388D01*
X17693277Y-11965388D02*
X17683753Y-11984436D01*
X17683753Y-11984436D02*
X17674230Y-11993960D01*
X17674230Y-11993960D02*
X17655182Y-12003484D01*
X17655182Y-12003484D02*
X17626611Y-12003484D01*
X17807563Y-12003484D02*
X17788515Y-11993960D01*
X17788515Y-11993960D02*
X17778992Y-11974912D01*
X17778992Y-11974912D02*
X17778992Y-11803484D01*
X17959944Y-11993960D02*
X17940896Y-12003484D01*
X17940896Y-12003484D02*
X17902801Y-12003484D01*
X17902801Y-12003484D02*
X17883753Y-11993960D01*
X17883753Y-11993960D02*
X17874230Y-11974912D01*
X17874230Y-11974912D02*
X17874230Y-11898722D01*
X17874230Y-11898722D02*
X17883753Y-11879674D01*
X17883753Y-11879674D02*
X17902801Y-11870150D01*
X17902801Y-11870150D02*
X17940896Y-11870150D01*
X17940896Y-11870150D02*
X17959944Y-11879674D01*
X17959944Y-11879674D02*
X17969468Y-11898722D01*
X17969468Y-11898722D02*
X17969468Y-11917769D01*
X17969468Y-11917769D02*
X17874230Y-11936817D01*
X18045658Y-11993960D02*
X18064706Y-12003484D01*
X18064706Y-12003484D02*
X18102801Y-12003484D01*
X18102801Y-12003484D02*
X18121849Y-11993960D01*
X18121849Y-11993960D02*
X18131373Y-11974912D01*
X18131373Y-11974912D02*
X18131373Y-11965388D01*
X18131373Y-11965388D02*
X18121849Y-11946341D01*
X18121849Y-11946341D02*
X18102801Y-11936817D01*
X18102801Y-11936817D02*
X18074230Y-11936817D01*
X18074230Y-11936817D02*
X18055182Y-11927293D01*
X18055182Y-11927293D02*
X18045658Y-11908246D01*
X18045658Y-11908246D02*
X18045658Y-11898722D01*
X18045658Y-11898722D02*
X18055182Y-11879674D01*
X18055182Y-11879674D02*
X18074230Y-11870150D01*
X18074230Y-11870150D02*
X18102801Y-11870150D01*
X18102801Y-11870150D02*
X18121849Y-11879674D01*
X18198039Y-12079674D02*
X18207563Y-12070150D01*
X18207563Y-12070150D02*
X18226611Y-12041579D01*
X18226611Y-12041579D02*
X18236134Y-12022531D01*
X18236134Y-12022531D02*
X18245658Y-11993960D01*
X18245658Y-11993960D02*
X18255182Y-11946341D01*
X18255182Y-11946341D02*
X18255182Y-11908246D01*
X18255182Y-11908246D02*
X18245658Y-11860627D01*
X18245658Y-11860627D02*
X18236134Y-11832055D01*
X18236134Y-11832055D02*
X18226611Y-11813008D01*
X18226611Y-11813008D02*
X18207563Y-11784436D01*
X18207563Y-11784436D02*
X18198039Y-11774912D01*
D12*
X13232500Y-12176000D02*
G75*
G03*
X13202500Y-12176000I-15000J0D01*
G01*
X13202500Y-12176000D02*
G75*
G03*
X13232500Y-12176000I15000J0D01*
G01*
D11*
X13531372Y-12067484D02*
X13550420Y-12067484D01*
X13550420Y-12067484D02*
X13569467Y-12077008D01*
X13569467Y-12077008D02*
X13578991Y-12086531D01*
X13578991Y-12086531D02*
X13588515Y-12105579D01*
X13588515Y-12105579D02*
X13598039Y-12143674D01*
X13598039Y-12143674D02*
X13598039Y-12191293D01*
X13598039Y-12191293D02*
X13588515Y-12229388D01*
X13588515Y-12229388D02*
X13578991Y-12248436D01*
X13578991Y-12248436D02*
X13569467Y-12257960D01*
X13569467Y-12257960D02*
X13550420Y-12267484D01*
X13550420Y-12267484D02*
X13531372Y-12267484D01*
X13531372Y-12267484D02*
X13512324Y-12257960D01*
X13512324Y-12257960D02*
X13502801Y-12248436D01*
X13502801Y-12248436D02*
X13493277Y-12229388D01*
X13493277Y-12229388D02*
X13483753Y-12191293D01*
X13483753Y-12191293D02*
X13483753Y-12143674D01*
X13483753Y-12143674D02*
X13493277Y-12105579D01*
X13493277Y-12105579D02*
X13502801Y-12086531D01*
X13502801Y-12086531D02*
X13512324Y-12077008D01*
X13512324Y-12077008D02*
X13531372Y-12067484D01*
X13683753Y-12248436D02*
X13693277Y-12257960D01*
X13693277Y-12257960D02*
X13683753Y-12267484D01*
X13683753Y-12267484D02*
X13674229Y-12257960D01*
X13674229Y-12257960D02*
X13683753Y-12248436D01*
X13683753Y-12248436D02*
X13683753Y-12267484D01*
X13759943Y-12067484D02*
X13883753Y-12067484D01*
X13883753Y-12067484D02*
X13817086Y-12143674D01*
X13817086Y-12143674D02*
X13845658Y-12143674D01*
X13845658Y-12143674D02*
X13864705Y-12153198D01*
X13864705Y-12153198D02*
X13874229Y-12162722D01*
X13874229Y-12162722D02*
X13883753Y-12181769D01*
X13883753Y-12181769D02*
X13883753Y-12229388D01*
X13883753Y-12229388D02*
X13874229Y-12248436D01*
X13874229Y-12248436D02*
X13864705Y-12257960D01*
X13864705Y-12257960D02*
X13845658Y-12267484D01*
X13845658Y-12267484D02*
X13788515Y-12267484D01*
X13788515Y-12267484D02*
X13769467Y-12257960D01*
X13769467Y-12257960D02*
X13759943Y-12248436D01*
X14007562Y-12067484D02*
X14026610Y-12067484D01*
X14026610Y-12067484D02*
X14045658Y-12077008D01*
X14045658Y-12077008D02*
X14055182Y-12086531D01*
X14055182Y-12086531D02*
X14064705Y-12105579D01*
X14064705Y-12105579D02*
X14074229Y-12143674D01*
X14074229Y-12143674D02*
X14074229Y-12191293D01*
X14074229Y-12191293D02*
X14064705Y-12229388D01*
X14064705Y-12229388D02*
X14055182Y-12248436D01*
X14055182Y-12248436D02*
X14045658Y-12257960D01*
X14045658Y-12257960D02*
X14026610Y-12267484D01*
X14026610Y-12267484D02*
X14007562Y-12267484D01*
X14007562Y-12267484D02*
X13988515Y-12257960D01*
X13988515Y-12257960D02*
X13978991Y-12248436D01*
X13978991Y-12248436D02*
X13969467Y-12229388D01*
X13969467Y-12229388D02*
X13959943Y-12191293D01*
X13959943Y-12191293D02*
X13959943Y-12143674D01*
X13959943Y-12143674D02*
X13969467Y-12105579D01*
X13969467Y-12105579D02*
X13978991Y-12086531D01*
X13978991Y-12086531D02*
X13988515Y-12077008D01*
X13988515Y-12077008D02*
X14007562Y-12067484D01*
X14198039Y-12067484D02*
X14217086Y-12067484D01*
X14217086Y-12067484D02*
X14236134Y-12077008D01*
X14236134Y-12077008D02*
X14245658Y-12086531D01*
X14245658Y-12086531D02*
X14255182Y-12105579D01*
X14255182Y-12105579D02*
X14264705Y-12143674D01*
X14264705Y-12143674D02*
X14264705Y-12191293D01*
X14264705Y-12191293D02*
X14255182Y-12229388D01*
X14255182Y-12229388D02*
X14245658Y-12248436D01*
X14245658Y-12248436D02*
X14236134Y-12257960D01*
X14236134Y-12257960D02*
X14217086Y-12267484D01*
X14217086Y-12267484D02*
X14198039Y-12267484D01*
X14198039Y-12267484D02*
X14178991Y-12257960D01*
X14178991Y-12257960D02*
X14169467Y-12248436D01*
X14169467Y-12248436D02*
X14159943Y-12229388D01*
X14159943Y-12229388D02*
X14150420Y-12191293D01*
X14150420Y-12191293D02*
X14150420Y-12143674D01*
X14150420Y-12143674D02*
X14159943Y-12105579D01*
X14159943Y-12105579D02*
X14169467Y-12086531D01*
X14169467Y-12086531D02*
X14178991Y-12077008D01*
X14178991Y-12077008D02*
X14198039Y-12067484D01*
X14350420Y-12267484D02*
X14350420Y-12134150D01*
X14350420Y-12153198D02*
X14359943Y-12143674D01*
X14359943Y-12143674D02*
X14378991Y-12134150D01*
X14378991Y-12134150D02*
X14407563Y-12134150D01*
X14407563Y-12134150D02*
X14426610Y-12143674D01*
X14426610Y-12143674D02*
X14436134Y-12162722D01*
X14436134Y-12162722D02*
X14436134Y-12267484D01*
X14436134Y-12162722D02*
X14445658Y-12143674D01*
X14445658Y-12143674D02*
X14464705Y-12134150D01*
X14464705Y-12134150D02*
X14493277Y-12134150D01*
X14493277Y-12134150D02*
X14512324Y-12143674D01*
X14512324Y-12143674D02*
X14521848Y-12162722D01*
X14521848Y-12162722D02*
X14521848Y-12267484D01*
X14617086Y-12267484D02*
X14617086Y-12134150D01*
X14617086Y-12153198D02*
X14626610Y-12143674D01*
X14626610Y-12143674D02*
X14645658Y-12134150D01*
X14645658Y-12134150D02*
X14674229Y-12134150D01*
X14674229Y-12134150D02*
X14693277Y-12143674D01*
X14693277Y-12143674D02*
X14702801Y-12162722D01*
X14702801Y-12162722D02*
X14702801Y-12267484D01*
X14702801Y-12162722D02*
X14712324Y-12143674D01*
X14712324Y-12143674D02*
X14731372Y-12134150D01*
X14731372Y-12134150D02*
X14759943Y-12134150D01*
X14759943Y-12134150D02*
X14778991Y-12143674D01*
X14778991Y-12143674D02*
X14788515Y-12162722D01*
X14788515Y-12162722D02*
X14788515Y-12267484D01*
X15178991Y-12057960D02*
X15007563Y-12315103D01*
X15436134Y-12067484D02*
X15455182Y-12067484D01*
X15455182Y-12067484D02*
X15474229Y-12077008D01*
X15474229Y-12077008D02*
X15483753Y-12086531D01*
X15483753Y-12086531D02*
X15493277Y-12105579D01*
X15493277Y-12105579D02*
X15502801Y-12143674D01*
X15502801Y-12143674D02*
X15502801Y-12191293D01*
X15502801Y-12191293D02*
X15493277Y-12229388D01*
X15493277Y-12229388D02*
X15483753Y-12248436D01*
X15483753Y-12248436D02*
X15474229Y-12257960D01*
X15474229Y-12257960D02*
X15455182Y-12267484D01*
X15455182Y-12267484D02*
X15436134Y-12267484D01*
X15436134Y-12267484D02*
X15417086Y-12257960D01*
X15417086Y-12257960D02*
X15407563Y-12248436D01*
X15407563Y-12248436D02*
X15398039Y-12229388D01*
X15398039Y-12229388D02*
X15388515Y-12191293D01*
X15388515Y-12191293D02*
X15388515Y-12143674D01*
X15388515Y-12143674D02*
X15398039Y-12105579D01*
X15398039Y-12105579D02*
X15407563Y-12086531D01*
X15407563Y-12086531D02*
X15417086Y-12077008D01*
X15417086Y-12077008D02*
X15436134Y-12067484D01*
X15588515Y-12248436D02*
X15598039Y-12257960D01*
X15598039Y-12257960D02*
X15588515Y-12267484D01*
X15588515Y-12267484D02*
X15578991Y-12257960D01*
X15578991Y-12257960D02*
X15588515Y-12248436D01*
X15588515Y-12248436D02*
X15588515Y-12267484D01*
X15721848Y-12067484D02*
X15740896Y-12067484D01*
X15740896Y-12067484D02*
X15759944Y-12077008D01*
X15759944Y-12077008D02*
X15769467Y-12086531D01*
X15769467Y-12086531D02*
X15778991Y-12105579D01*
X15778991Y-12105579D02*
X15788515Y-12143674D01*
X15788515Y-12143674D02*
X15788515Y-12191293D01*
X15788515Y-12191293D02*
X15778991Y-12229388D01*
X15778991Y-12229388D02*
X15769467Y-12248436D01*
X15769467Y-12248436D02*
X15759944Y-12257960D01*
X15759944Y-12257960D02*
X15740896Y-12267484D01*
X15740896Y-12267484D02*
X15721848Y-12267484D01*
X15721848Y-12267484D02*
X15702801Y-12257960D01*
X15702801Y-12257960D02*
X15693277Y-12248436D01*
X15693277Y-12248436D02*
X15683753Y-12229388D01*
X15683753Y-12229388D02*
X15674229Y-12191293D01*
X15674229Y-12191293D02*
X15674229Y-12143674D01*
X15674229Y-12143674D02*
X15683753Y-12105579D01*
X15683753Y-12105579D02*
X15693277Y-12086531D01*
X15693277Y-12086531D02*
X15702801Y-12077008D01*
X15702801Y-12077008D02*
X15721848Y-12067484D01*
X15978991Y-12267484D02*
X15864706Y-12267484D01*
X15921848Y-12267484D02*
X15921848Y-12067484D01*
X15921848Y-12067484D02*
X15902801Y-12096055D01*
X15902801Y-12096055D02*
X15883753Y-12115103D01*
X15883753Y-12115103D02*
X15864706Y-12124627D01*
X16169467Y-12267484D02*
X16055182Y-12267484D01*
X16112325Y-12267484D02*
X16112325Y-12067484D01*
X16112325Y-12067484D02*
X16093277Y-12096055D01*
X16093277Y-12096055D02*
X16074229Y-12115103D01*
X16074229Y-12115103D02*
X16055182Y-12124627D01*
X16283753Y-12153198D02*
X16264706Y-12143674D01*
X16264706Y-12143674D02*
X16255182Y-12134150D01*
X16255182Y-12134150D02*
X16245658Y-12115103D01*
X16245658Y-12115103D02*
X16245658Y-12105579D01*
X16245658Y-12105579D02*
X16255182Y-12086531D01*
X16255182Y-12086531D02*
X16264706Y-12077008D01*
X16264706Y-12077008D02*
X16283753Y-12067484D01*
X16283753Y-12067484D02*
X16321848Y-12067484D01*
X16321848Y-12067484D02*
X16340896Y-12077008D01*
X16340896Y-12077008D02*
X16350420Y-12086531D01*
X16350420Y-12086531D02*
X16359944Y-12105579D01*
X16359944Y-12105579D02*
X16359944Y-12115103D01*
X16359944Y-12115103D02*
X16350420Y-12134150D01*
X16350420Y-12134150D02*
X16340896Y-12143674D01*
X16340896Y-12143674D02*
X16321848Y-12153198D01*
X16321848Y-12153198D02*
X16283753Y-12153198D01*
X16283753Y-12153198D02*
X16264706Y-12162722D01*
X16264706Y-12162722D02*
X16255182Y-12172246D01*
X16255182Y-12172246D02*
X16245658Y-12191293D01*
X16245658Y-12191293D02*
X16245658Y-12229388D01*
X16245658Y-12229388D02*
X16255182Y-12248436D01*
X16255182Y-12248436D02*
X16264706Y-12257960D01*
X16264706Y-12257960D02*
X16283753Y-12267484D01*
X16283753Y-12267484D02*
X16321848Y-12267484D01*
X16321848Y-12267484D02*
X16340896Y-12257960D01*
X16340896Y-12257960D02*
X16350420Y-12248436D01*
X16350420Y-12248436D02*
X16359944Y-12229388D01*
X16359944Y-12229388D02*
X16359944Y-12191293D01*
X16359944Y-12191293D02*
X16350420Y-12172246D01*
X16350420Y-12172246D02*
X16340896Y-12162722D01*
X16340896Y-12162722D02*
X16321848Y-12153198D01*
X16436134Y-12067484D02*
X16436134Y-12105579D01*
X16512325Y-12067484D02*
X16512325Y-12105579D01*
X16807563Y-12343674D02*
X16798039Y-12334150D01*
X16798039Y-12334150D02*
X16778991Y-12305579D01*
X16778991Y-12305579D02*
X16769468Y-12286531D01*
X16769468Y-12286531D02*
X16759944Y-12257960D01*
X16759944Y-12257960D02*
X16750420Y-12210341D01*
X16750420Y-12210341D02*
X16750420Y-12172246D01*
X16750420Y-12172246D02*
X16759944Y-12124627D01*
X16759944Y-12124627D02*
X16769468Y-12096055D01*
X16769468Y-12096055D02*
X16778991Y-12077008D01*
X16778991Y-12077008D02*
X16798039Y-12048436D01*
X16798039Y-12048436D02*
X16807563Y-12038912D01*
X16874230Y-12086531D02*
X16883753Y-12077008D01*
X16883753Y-12077008D02*
X16902801Y-12067484D01*
X16902801Y-12067484D02*
X16950420Y-12067484D01*
X16950420Y-12067484D02*
X16969468Y-12077008D01*
X16969468Y-12077008D02*
X16978991Y-12086531D01*
X16978991Y-12086531D02*
X16988515Y-12105579D01*
X16988515Y-12105579D02*
X16988515Y-12124627D01*
X16988515Y-12124627D02*
X16978991Y-12153198D01*
X16978991Y-12153198D02*
X16864706Y-12267484D01*
X16864706Y-12267484D02*
X16988515Y-12267484D01*
X17159944Y-12067484D02*
X17121849Y-12067484D01*
X17121849Y-12067484D02*
X17102801Y-12077008D01*
X17102801Y-12077008D02*
X17093277Y-12086531D01*
X17093277Y-12086531D02*
X17074230Y-12115103D01*
X17074230Y-12115103D02*
X17064706Y-12153198D01*
X17064706Y-12153198D02*
X17064706Y-12229388D01*
X17064706Y-12229388D02*
X17074230Y-12248436D01*
X17074230Y-12248436D02*
X17083753Y-12257960D01*
X17083753Y-12257960D02*
X17102801Y-12267484D01*
X17102801Y-12267484D02*
X17140896Y-12267484D01*
X17140896Y-12267484D02*
X17159944Y-12257960D01*
X17159944Y-12257960D02*
X17169468Y-12248436D01*
X17169468Y-12248436D02*
X17178991Y-12229388D01*
X17178991Y-12229388D02*
X17178991Y-12181769D01*
X17178991Y-12181769D02*
X17169468Y-12162722D01*
X17169468Y-12162722D02*
X17159944Y-12153198D01*
X17159944Y-12153198D02*
X17140896Y-12143674D01*
X17140896Y-12143674D02*
X17102801Y-12143674D01*
X17102801Y-12143674D02*
X17083753Y-12153198D01*
X17083753Y-12153198D02*
X17074230Y-12162722D01*
X17074230Y-12162722D02*
X17064706Y-12181769D01*
X17417087Y-12267484D02*
X17417087Y-12067484D01*
X17502801Y-12267484D02*
X17502801Y-12162722D01*
X17502801Y-12162722D02*
X17493277Y-12143674D01*
X17493277Y-12143674D02*
X17474230Y-12134150D01*
X17474230Y-12134150D02*
X17445658Y-12134150D01*
X17445658Y-12134150D02*
X17426611Y-12143674D01*
X17426611Y-12143674D02*
X17417087Y-12153198D01*
X17626611Y-12267484D02*
X17607563Y-12257960D01*
X17607563Y-12257960D02*
X17598039Y-12248436D01*
X17598039Y-12248436D02*
X17588515Y-12229388D01*
X17588515Y-12229388D02*
X17588515Y-12172246D01*
X17588515Y-12172246D02*
X17598039Y-12153198D01*
X17598039Y-12153198D02*
X17607563Y-12143674D01*
X17607563Y-12143674D02*
X17626611Y-12134150D01*
X17626611Y-12134150D02*
X17655182Y-12134150D01*
X17655182Y-12134150D02*
X17674230Y-12143674D01*
X17674230Y-12143674D02*
X17683753Y-12153198D01*
X17683753Y-12153198D02*
X17693277Y-12172246D01*
X17693277Y-12172246D02*
X17693277Y-12229388D01*
X17693277Y-12229388D02*
X17683753Y-12248436D01*
X17683753Y-12248436D02*
X17674230Y-12257960D01*
X17674230Y-12257960D02*
X17655182Y-12267484D01*
X17655182Y-12267484D02*
X17626611Y-12267484D01*
X17807563Y-12267484D02*
X17788515Y-12257960D01*
X17788515Y-12257960D02*
X17778992Y-12238912D01*
X17778992Y-12238912D02*
X17778992Y-12067484D01*
X17959944Y-12257960D02*
X17940896Y-12267484D01*
X17940896Y-12267484D02*
X17902801Y-12267484D01*
X17902801Y-12267484D02*
X17883753Y-12257960D01*
X17883753Y-12257960D02*
X17874230Y-12238912D01*
X17874230Y-12238912D02*
X17874230Y-12162722D01*
X17874230Y-12162722D02*
X17883753Y-12143674D01*
X17883753Y-12143674D02*
X17902801Y-12134150D01*
X17902801Y-12134150D02*
X17940896Y-12134150D01*
X17940896Y-12134150D02*
X17959944Y-12143674D01*
X17959944Y-12143674D02*
X17969468Y-12162722D01*
X17969468Y-12162722D02*
X17969468Y-12181769D01*
X17969468Y-12181769D02*
X17874230Y-12200817D01*
X18045658Y-12257960D02*
X18064706Y-12267484D01*
X18064706Y-12267484D02*
X18102801Y-12267484D01*
X18102801Y-12267484D02*
X18121849Y-12257960D01*
X18121849Y-12257960D02*
X18131373Y-12238912D01*
X18131373Y-12238912D02*
X18131373Y-12229388D01*
X18131373Y-12229388D02*
X18121849Y-12210341D01*
X18121849Y-12210341D02*
X18102801Y-12200817D01*
X18102801Y-12200817D02*
X18074230Y-12200817D01*
X18074230Y-12200817D02*
X18055182Y-12191293D01*
X18055182Y-12191293D02*
X18045658Y-12172246D01*
X18045658Y-12172246D02*
X18045658Y-12162722D01*
X18045658Y-12162722D02*
X18055182Y-12143674D01*
X18055182Y-12143674D02*
X18074230Y-12134150D01*
X18074230Y-12134150D02*
X18102801Y-12134150D01*
X18102801Y-12134150D02*
X18121849Y-12143674D01*
X18198039Y-12343674D02*
X18207563Y-12334150D01*
X18207563Y-12334150D02*
X18226611Y-12305579D01*
X18226611Y-12305579D02*
X18236134Y-12286531D01*
X18236134Y-12286531D02*
X18245658Y-12257960D01*
X18245658Y-12257960D02*
X18255182Y-12210341D01*
X18255182Y-12210341D02*
X18255182Y-12172246D01*
X18255182Y-12172246D02*
X18245658Y-12124627D01*
X18245658Y-12124627D02*
X18236134Y-12096055D01*
X18236134Y-12096055D02*
X18226611Y-12077008D01*
X18226611Y-12077008D02*
X18207563Y-12048436D01*
X18207563Y-12048436D02*
X18198039Y-12038912D01*
D12*
X13202500Y-12410000D02*
X13202500Y-12470000D01*
X13172500Y-12440000D02*
X13232500Y-12440000D01*
D11*
X13531372Y-12331484D02*
X13550420Y-12331484D01*
X13550420Y-12331484D02*
X13569467Y-12341008D01*
X13569467Y-12341008D02*
X13578991Y-12350531D01*
X13578991Y-12350531D02*
X13588515Y-12369579D01*
X13588515Y-12369579D02*
X13598039Y-12407674D01*
X13598039Y-12407674D02*
X13598039Y-12455293D01*
X13598039Y-12455293D02*
X13588515Y-12493388D01*
X13588515Y-12493388D02*
X13578991Y-12512436D01*
X13578991Y-12512436D02*
X13569467Y-12521960D01*
X13569467Y-12521960D02*
X13550420Y-12531484D01*
X13550420Y-12531484D02*
X13531372Y-12531484D01*
X13531372Y-12531484D02*
X13512324Y-12521960D01*
X13512324Y-12521960D02*
X13502801Y-12512436D01*
X13502801Y-12512436D02*
X13493277Y-12493388D01*
X13493277Y-12493388D02*
X13483753Y-12455293D01*
X13483753Y-12455293D02*
X13483753Y-12407674D01*
X13483753Y-12407674D02*
X13493277Y-12369579D01*
X13493277Y-12369579D02*
X13502801Y-12350531D01*
X13502801Y-12350531D02*
X13512324Y-12341008D01*
X13512324Y-12341008D02*
X13531372Y-12331484D01*
X13683753Y-12512436D02*
X13693277Y-12521960D01*
X13693277Y-12521960D02*
X13683753Y-12531484D01*
X13683753Y-12531484D02*
X13674229Y-12521960D01*
X13674229Y-12521960D02*
X13683753Y-12512436D01*
X13683753Y-12512436D02*
X13683753Y-12531484D01*
X13864705Y-12331484D02*
X13826610Y-12331484D01*
X13826610Y-12331484D02*
X13807562Y-12341008D01*
X13807562Y-12341008D02*
X13798039Y-12350531D01*
X13798039Y-12350531D02*
X13778991Y-12379103D01*
X13778991Y-12379103D02*
X13769467Y-12417198D01*
X13769467Y-12417198D02*
X13769467Y-12493388D01*
X13769467Y-12493388D02*
X13778991Y-12512436D01*
X13778991Y-12512436D02*
X13788515Y-12521960D01*
X13788515Y-12521960D02*
X13807562Y-12531484D01*
X13807562Y-12531484D02*
X13845658Y-12531484D01*
X13845658Y-12531484D02*
X13864705Y-12521960D01*
X13864705Y-12521960D02*
X13874229Y-12512436D01*
X13874229Y-12512436D02*
X13883753Y-12493388D01*
X13883753Y-12493388D02*
X13883753Y-12445769D01*
X13883753Y-12445769D02*
X13874229Y-12426722D01*
X13874229Y-12426722D02*
X13864705Y-12417198D01*
X13864705Y-12417198D02*
X13845658Y-12407674D01*
X13845658Y-12407674D02*
X13807562Y-12407674D01*
X13807562Y-12407674D02*
X13788515Y-12417198D01*
X13788515Y-12417198D02*
X13778991Y-12426722D01*
X13778991Y-12426722D02*
X13769467Y-12445769D01*
X14007562Y-12331484D02*
X14026610Y-12331484D01*
X14026610Y-12331484D02*
X14045658Y-12341008D01*
X14045658Y-12341008D02*
X14055182Y-12350531D01*
X14055182Y-12350531D02*
X14064705Y-12369579D01*
X14064705Y-12369579D02*
X14074229Y-12407674D01*
X14074229Y-12407674D02*
X14074229Y-12455293D01*
X14074229Y-12455293D02*
X14064705Y-12493388D01*
X14064705Y-12493388D02*
X14055182Y-12512436D01*
X14055182Y-12512436D02*
X14045658Y-12521960D01*
X14045658Y-12521960D02*
X14026610Y-12531484D01*
X14026610Y-12531484D02*
X14007562Y-12531484D01*
X14007562Y-12531484D02*
X13988515Y-12521960D01*
X13988515Y-12521960D02*
X13978991Y-12512436D01*
X13978991Y-12512436D02*
X13969467Y-12493388D01*
X13969467Y-12493388D02*
X13959943Y-12455293D01*
X13959943Y-12455293D02*
X13959943Y-12407674D01*
X13959943Y-12407674D02*
X13969467Y-12369579D01*
X13969467Y-12369579D02*
X13978991Y-12350531D01*
X13978991Y-12350531D02*
X13988515Y-12341008D01*
X13988515Y-12341008D02*
X14007562Y-12331484D01*
X14198039Y-12331484D02*
X14217086Y-12331484D01*
X14217086Y-12331484D02*
X14236134Y-12341008D01*
X14236134Y-12341008D02*
X14245658Y-12350531D01*
X14245658Y-12350531D02*
X14255182Y-12369579D01*
X14255182Y-12369579D02*
X14264705Y-12407674D01*
X14264705Y-12407674D02*
X14264705Y-12455293D01*
X14264705Y-12455293D02*
X14255182Y-12493388D01*
X14255182Y-12493388D02*
X14245658Y-12512436D01*
X14245658Y-12512436D02*
X14236134Y-12521960D01*
X14236134Y-12521960D02*
X14217086Y-12531484D01*
X14217086Y-12531484D02*
X14198039Y-12531484D01*
X14198039Y-12531484D02*
X14178991Y-12521960D01*
X14178991Y-12521960D02*
X14169467Y-12512436D01*
X14169467Y-12512436D02*
X14159943Y-12493388D01*
X14159943Y-12493388D02*
X14150420Y-12455293D01*
X14150420Y-12455293D02*
X14150420Y-12407674D01*
X14150420Y-12407674D02*
X14159943Y-12369579D01*
X14159943Y-12369579D02*
X14169467Y-12350531D01*
X14169467Y-12350531D02*
X14178991Y-12341008D01*
X14178991Y-12341008D02*
X14198039Y-12331484D01*
X14350420Y-12531484D02*
X14350420Y-12398150D01*
X14350420Y-12417198D02*
X14359943Y-12407674D01*
X14359943Y-12407674D02*
X14378991Y-12398150D01*
X14378991Y-12398150D02*
X14407563Y-12398150D01*
X14407563Y-12398150D02*
X14426610Y-12407674D01*
X14426610Y-12407674D02*
X14436134Y-12426722D01*
X14436134Y-12426722D02*
X14436134Y-12531484D01*
X14436134Y-12426722D02*
X14445658Y-12407674D01*
X14445658Y-12407674D02*
X14464705Y-12398150D01*
X14464705Y-12398150D02*
X14493277Y-12398150D01*
X14493277Y-12398150D02*
X14512324Y-12407674D01*
X14512324Y-12407674D02*
X14521848Y-12426722D01*
X14521848Y-12426722D02*
X14521848Y-12531484D01*
X14617086Y-12531484D02*
X14617086Y-12398150D01*
X14617086Y-12417198D02*
X14626610Y-12407674D01*
X14626610Y-12407674D02*
X14645658Y-12398150D01*
X14645658Y-12398150D02*
X14674229Y-12398150D01*
X14674229Y-12398150D02*
X14693277Y-12407674D01*
X14693277Y-12407674D02*
X14702801Y-12426722D01*
X14702801Y-12426722D02*
X14702801Y-12531484D01*
X14702801Y-12426722D02*
X14712324Y-12407674D01*
X14712324Y-12407674D02*
X14731372Y-12398150D01*
X14731372Y-12398150D02*
X14759943Y-12398150D01*
X14759943Y-12398150D02*
X14778991Y-12407674D01*
X14778991Y-12407674D02*
X14788515Y-12426722D01*
X14788515Y-12426722D02*
X14788515Y-12531484D01*
X15178991Y-12321960D02*
X15007563Y-12579103D01*
X15436134Y-12331484D02*
X15455182Y-12331484D01*
X15455182Y-12331484D02*
X15474229Y-12341008D01*
X15474229Y-12341008D02*
X15483753Y-12350531D01*
X15483753Y-12350531D02*
X15493277Y-12369579D01*
X15493277Y-12369579D02*
X15502801Y-12407674D01*
X15502801Y-12407674D02*
X15502801Y-12455293D01*
X15502801Y-12455293D02*
X15493277Y-12493388D01*
X15493277Y-12493388D02*
X15483753Y-12512436D01*
X15483753Y-12512436D02*
X15474229Y-12521960D01*
X15474229Y-12521960D02*
X15455182Y-12531484D01*
X15455182Y-12531484D02*
X15436134Y-12531484D01*
X15436134Y-12531484D02*
X15417086Y-12521960D01*
X15417086Y-12521960D02*
X15407563Y-12512436D01*
X15407563Y-12512436D02*
X15398039Y-12493388D01*
X15398039Y-12493388D02*
X15388515Y-12455293D01*
X15388515Y-12455293D02*
X15388515Y-12407674D01*
X15388515Y-12407674D02*
X15398039Y-12369579D01*
X15398039Y-12369579D02*
X15407563Y-12350531D01*
X15407563Y-12350531D02*
X15417086Y-12341008D01*
X15417086Y-12341008D02*
X15436134Y-12331484D01*
X15588515Y-12512436D02*
X15598039Y-12521960D01*
X15598039Y-12521960D02*
X15588515Y-12531484D01*
X15588515Y-12531484D02*
X15578991Y-12521960D01*
X15578991Y-12521960D02*
X15588515Y-12512436D01*
X15588515Y-12512436D02*
X15588515Y-12531484D01*
X15721848Y-12331484D02*
X15740896Y-12331484D01*
X15740896Y-12331484D02*
X15759944Y-12341008D01*
X15759944Y-12341008D02*
X15769467Y-12350531D01*
X15769467Y-12350531D02*
X15778991Y-12369579D01*
X15778991Y-12369579D02*
X15788515Y-12407674D01*
X15788515Y-12407674D02*
X15788515Y-12455293D01*
X15788515Y-12455293D02*
X15778991Y-12493388D01*
X15778991Y-12493388D02*
X15769467Y-12512436D01*
X15769467Y-12512436D02*
X15759944Y-12521960D01*
X15759944Y-12521960D02*
X15740896Y-12531484D01*
X15740896Y-12531484D02*
X15721848Y-12531484D01*
X15721848Y-12531484D02*
X15702801Y-12521960D01*
X15702801Y-12521960D02*
X15693277Y-12512436D01*
X15693277Y-12512436D02*
X15683753Y-12493388D01*
X15683753Y-12493388D02*
X15674229Y-12455293D01*
X15674229Y-12455293D02*
X15674229Y-12407674D01*
X15674229Y-12407674D02*
X15683753Y-12369579D01*
X15683753Y-12369579D02*
X15693277Y-12350531D01*
X15693277Y-12350531D02*
X15702801Y-12341008D01*
X15702801Y-12341008D02*
X15721848Y-12331484D01*
X15864706Y-12350531D02*
X15874229Y-12341008D01*
X15874229Y-12341008D02*
X15893277Y-12331484D01*
X15893277Y-12331484D02*
X15940896Y-12331484D01*
X15940896Y-12331484D02*
X15959944Y-12341008D01*
X15959944Y-12341008D02*
X15969467Y-12350531D01*
X15969467Y-12350531D02*
X15978991Y-12369579D01*
X15978991Y-12369579D02*
X15978991Y-12388627D01*
X15978991Y-12388627D02*
X15969467Y-12417198D01*
X15969467Y-12417198D02*
X15855182Y-12531484D01*
X15855182Y-12531484D02*
X15978991Y-12531484D01*
X16045658Y-12331484D02*
X16169467Y-12331484D01*
X16169467Y-12331484D02*
X16102801Y-12407674D01*
X16102801Y-12407674D02*
X16131372Y-12407674D01*
X16131372Y-12407674D02*
X16150420Y-12417198D01*
X16150420Y-12417198D02*
X16159944Y-12426722D01*
X16159944Y-12426722D02*
X16169467Y-12445769D01*
X16169467Y-12445769D02*
X16169467Y-12493388D01*
X16169467Y-12493388D02*
X16159944Y-12512436D01*
X16159944Y-12512436D02*
X16150420Y-12521960D01*
X16150420Y-12521960D02*
X16131372Y-12531484D01*
X16131372Y-12531484D02*
X16074229Y-12531484D01*
X16074229Y-12531484D02*
X16055182Y-12521960D01*
X16055182Y-12521960D02*
X16045658Y-12512436D01*
X16340896Y-12331484D02*
X16302801Y-12331484D01*
X16302801Y-12331484D02*
X16283753Y-12341008D01*
X16283753Y-12341008D02*
X16274229Y-12350531D01*
X16274229Y-12350531D02*
X16255182Y-12379103D01*
X16255182Y-12379103D02*
X16245658Y-12417198D01*
X16245658Y-12417198D02*
X16245658Y-12493388D01*
X16245658Y-12493388D02*
X16255182Y-12512436D01*
X16255182Y-12512436D02*
X16264706Y-12521960D01*
X16264706Y-12521960D02*
X16283753Y-12531484D01*
X16283753Y-12531484D02*
X16321848Y-12531484D01*
X16321848Y-12531484D02*
X16340896Y-12521960D01*
X16340896Y-12521960D02*
X16350420Y-12512436D01*
X16350420Y-12512436D02*
X16359944Y-12493388D01*
X16359944Y-12493388D02*
X16359944Y-12445769D01*
X16359944Y-12445769D02*
X16350420Y-12426722D01*
X16350420Y-12426722D02*
X16340896Y-12417198D01*
X16340896Y-12417198D02*
X16321848Y-12407674D01*
X16321848Y-12407674D02*
X16283753Y-12407674D01*
X16283753Y-12407674D02*
X16264706Y-12417198D01*
X16264706Y-12417198D02*
X16255182Y-12426722D01*
X16255182Y-12426722D02*
X16245658Y-12445769D01*
X16436134Y-12331484D02*
X16436134Y-12369579D01*
X16512325Y-12331484D02*
X16512325Y-12369579D01*
X16807563Y-12607674D02*
X16798039Y-12598150D01*
X16798039Y-12598150D02*
X16778991Y-12569579D01*
X16778991Y-12569579D02*
X16769468Y-12550531D01*
X16769468Y-12550531D02*
X16759944Y-12521960D01*
X16759944Y-12521960D02*
X16750420Y-12474341D01*
X16750420Y-12474341D02*
X16750420Y-12436246D01*
X16750420Y-12436246D02*
X16759944Y-12388627D01*
X16759944Y-12388627D02*
X16769468Y-12360055D01*
X16769468Y-12360055D02*
X16778991Y-12341008D01*
X16778991Y-12341008D02*
X16798039Y-12312436D01*
X16798039Y-12312436D02*
X16807563Y-12302912D01*
X16921849Y-12331484D02*
X16940896Y-12331484D01*
X16940896Y-12331484D02*
X16959944Y-12341008D01*
X16959944Y-12341008D02*
X16969468Y-12350531D01*
X16969468Y-12350531D02*
X16978991Y-12369579D01*
X16978991Y-12369579D02*
X16988515Y-12407674D01*
X16988515Y-12407674D02*
X16988515Y-12455293D01*
X16988515Y-12455293D02*
X16978991Y-12493388D01*
X16978991Y-12493388D02*
X16969468Y-12512436D01*
X16969468Y-12512436D02*
X16959944Y-12521960D01*
X16959944Y-12521960D02*
X16940896Y-12531484D01*
X16940896Y-12531484D02*
X16921849Y-12531484D01*
X16921849Y-12531484D02*
X16902801Y-12521960D01*
X16902801Y-12521960D02*
X16893277Y-12512436D01*
X16893277Y-12512436D02*
X16883753Y-12493388D01*
X16883753Y-12493388D02*
X16874230Y-12455293D01*
X16874230Y-12455293D02*
X16874230Y-12407674D01*
X16874230Y-12407674D02*
X16883753Y-12369579D01*
X16883753Y-12369579D02*
X16893277Y-12350531D01*
X16893277Y-12350531D02*
X16902801Y-12341008D01*
X16902801Y-12341008D02*
X16921849Y-12331484D01*
X17226611Y-12531484D02*
X17226611Y-12331484D01*
X17312325Y-12531484D02*
X17312325Y-12426722D01*
X17312325Y-12426722D02*
X17302801Y-12407674D01*
X17302801Y-12407674D02*
X17283753Y-12398150D01*
X17283753Y-12398150D02*
X17255182Y-12398150D01*
X17255182Y-12398150D02*
X17236134Y-12407674D01*
X17236134Y-12407674D02*
X17226611Y-12417198D01*
X17436134Y-12531484D02*
X17417087Y-12521960D01*
X17417087Y-12521960D02*
X17407563Y-12512436D01*
X17407563Y-12512436D02*
X17398039Y-12493388D01*
X17398039Y-12493388D02*
X17398039Y-12436246D01*
X17398039Y-12436246D02*
X17407563Y-12417198D01*
X17407563Y-12417198D02*
X17417087Y-12407674D01*
X17417087Y-12407674D02*
X17436134Y-12398150D01*
X17436134Y-12398150D02*
X17464706Y-12398150D01*
X17464706Y-12398150D02*
X17483753Y-12407674D01*
X17483753Y-12407674D02*
X17493277Y-12417198D01*
X17493277Y-12417198D02*
X17502801Y-12436246D01*
X17502801Y-12436246D02*
X17502801Y-12493388D01*
X17502801Y-12493388D02*
X17493277Y-12512436D01*
X17493277Y-12512436D02*
X17483753Y-12521960D01*
X17483753Y-12521960D02*
X17464706Y-12531484D01*
X17464706Y-12531484D02*
X17436134Y-12531484D01*
X17617087Y-12531484D02*
X17598039Y-12521960D01*
X17598039Y-12521960D02*
X17588515Y-12502912D01*
X17588515Y-12502912D02*
X17588515Y-12331484D01*
X17769468Y-12521960D02*
X17750420Y-12531484D01*
X17750420Y-12531484D02*
X17712325Y-12531484D01*
X17712325Y-12531484D02*
X17693277Y-12521960D01*
X17693277Y-12521960D02*
X17683753Y-12502912D01*
X17683753Y-12502912D02*
X17683753Y-12426722D01*
X17683753Y-12426722D02*
X17693277Y-12407674D01*
X17693277Y-12407674D02*
X17712325Y-12398150D01*
X17712325Y-12398150D02*
X17750420Y-12398150D01*
X17750420Y-12398150D02*
X17769468Y-12407674D01*
X17769468Y-12407674D02*
X17778992Y-12426722D01*
X17778992Y-12426722D02*
X17778992Y-12445769D01*
X17778992Y-12445769D02*
X17683753Y-12464817D01*
X17855182Y-12521960D02*
X17874230Y-12531484D01*
X17874230Y-12531484D02*
X17912325Y-12531484D01*
X17912325Y-12531484D02*
X17931373Y-12521960D01*
X17931373Y-12521960D02*
X17940896Y-12502912D01*
X17940896Y-12502912D02*
X17940896Y-12493388D01*
X17940896Y-12493388D02*
X17931373Y-12474341D01*
X17931373Y-12474341D02*
X17912325Y-12464817D01*
X17912325Y-12464817D02*
X17883753Y-12464817D01*
X17883753Y-12464817D02*
X17864706Y-12455293D01*
X17864706Y-12455293D02*
X17855182Y-12436246D01*
X17855182Y-12436246D02*
X17855182Y-12426722D01*
X17855182Y-12426722D02*
X17864706Y-12407674D01*
X17864706Y-12407674D02*
X17883753Y-12398150D01*
X17883753Y-12398150D02*
X17912325Y-12398150D01*
X17912325Y-12398150D02*
X17931373Y-12407674D01*
X18178992Y-12455293D02*
X18331373Y-12455293D01*
X18255182Y-12531484D02*
X18255182Y-12379103D01*
X18664706Y-12398150D02*
X18664706Y-12531484D01*
X18617087Y-12321960D02*
X18569468Y-12464817D01*
X18569468Y-12464817D02*
X18693277Y-12464817D01*
X18912325Y-12521960D02*
X18931373Y-12531484D01*
X18931373Y-12531484D02*
X18969468Y-12531484D01*
X18969468Y-12531484D02*
X18988516Y-12521960D01*
X18988516Y-12521960D02*
X18998039Y-12502912D01*
X18998039Y-12502912D02*
X18998039Y-12493388D01*
X18998039Y-12493388D02*
X18988516Y-12474341D01*
X18988516Y-12474341D02*
X18969468Y-12464817D01*
X18969468Y-12464817D02*
X18940896Y-12464817D01*
X18940896Y-12464817D02*
X18921849Y-12455293D01*
X18921849Y-12455293D02*
X18912325Y-12436246D01*
X18912325Y-12436246D02*
X18912325Y-12426722D01*
X18912325Y-12426722D02*
X18921849Y-12407674D01*
X18921849Y-12407674D02*
X18940896Y-12398150D01*
X18940896Y-12398150D02*
X18969468Y-12398150D01*
X18969468Y-12398150D02*
X18988516Y-12407674D01*
X19112325Y-12531484D02*
X19093277Y-12521960D01*
X19093277Y-12521960D02*
X19083754Y-12502912D01*
X19083754Y-12502912D02*
X19083754Y-12331484D01*
X19217087Y-12531484D02*
X19198039Y-12521960D01*
X19198039Y-12521960D02*
X19188516Y-12512436D01*
X19188516Y-12512436D02*
X19178992Y-12493388D01*
X19178992Y-12493388D02*
X19178992Y-12436246D01*
X19178992Y-12436246D02*
X19188516Y-12417198D01*
X19188516Y-12417198D02*
X19198039Y-12407674D01*
X19198039Y-12407674D02*
X19217087Y-12398150D01*
X19217087Y-12398150D02*
X19245658Y-12398150D01*
X19245658Y-12398150D02*
X19264706Y-12407674D01*
X19264706Y-12407674D02*
X19274230Y-12417198D01*
X19274230Y-12417198D02*
X19283754Y-12436246D01*
X19283754Y-12436246D02*
X19283754Y-12493388D01*
X19283754Y-12493388D02*
X19274230Y-12512436D01*
X19274230Y-12512436D02*
X19264706Y-12521960D01*
X19264706Y-12521960D02*
X19245658Y-12531484D01*
X19245658Y-12531484D02*
X19217087Y-12531484D01*
X19340897Y-12398150D02*
X19417087Y-12398150D01*
X19369468Y-12331484D02*
X19369468Y-12502912D01*
X19369468Y-12502912D02*
X19378992Y-12521960D01*
X19378992Y-12521960D02*
X19398039Y-12531484D01*
X19398039Y-12531484D02*
X19417087Y-12531484D01*
X19474230Y-12521960D02*
X19493277Y-12531484D01*
X19493277Y-12531484D02*
X19531373Y-12531484D01*
X19531373Y-12531484D02*
X19550420Y-12521960D01*
X19550420Y-12521960D02*
X19559944Y-12502912D01*
X19559944Y-12502912D02*
X19559944Y-12493388D01*
X19559944Y-12493388D02*
X19550420Y-12474341D01*
X19550420Y-12474341D02*
X19531373Y-12464817D01*
X19531373Y-12464817D02*
X19502801Y-12464817D01*
X19502801Y-12464817D02*
X19483754Y-12455293D01*
X19483754Y-12455293D02*
X19474230Y-12436246D01*
X19474230Y-12436246D02*
X19474230Y-12426722D01*
X19474230Y-12426722D02*
X19483754Y-12407674D01*
X19483754Y-12407674D02*
X19502801Y-12398150D01*
X19502801Y-12398150D02*
X19531373Y-12398150D01*
X19531373Y-12398150D02*
X19550420Y-12407674D01*
X19626611Y-12607674D02*
X19636135Y-12598150D01*
X19636135Y-12598150D02*
X19655182Y-12569579D01*
X19655182Y-12569579D02*
X19664706Y-12550531D01*
X19664706Y-12550531D02*
X19674230Y-12521960D01*
X19674230Y-12521960D02*
X19683754Y-12474341D01*
X19683754Y-12474341D02*
X19683754Y-12436246D01*
X19683754Y-12436246D02*
X19674230Y-12388627D01*
X19674230Y-12388627D02*
X19664706Y-12360055D01*
X19664706Y-12360055D02*
X19655182Y-12341008D01*
X19655182Y-12341008D02*
X19636135Y-12312436D01*
X19636135Y-12312436D02*
X19626611Y-12302912D01*
D12*
X13217856Y-12739356D02*
X13217856Y-12668644D01*
X13147144Y-12668644D01*
X13147144Y-12739356D01*
X13217856Y-12739356D01*
D11*
X13598039Y-12795484D02*
X13483753Y-12795484D01*
X13540896Y-12795484D02*
X13540896Y-12595484D01*
X13540896Y-12595484D02*
X13521848Y-12624055D01*
X13521848Y-12624055D02*
X13502801Y-12643103D01*
X13502801Y-12643103D02*
X13483753Y-12652627D01*
X13683753Y-12776436D02*
X13693277Y-12785960D01*
X13693277Y-12785960D02*
X13683753Y-12795484D01*
X13683753Y-12795484D02*
X13674229Y-12785960D01*
X13674229Y-12785960D02*
X13683753Y-12776436D01*
X13683753Y-12776436D02*
X13683753Y-12795484D01*
X13817086Y-12595484D02*
X13836134Y-12595484D01*
X13836134Y-12595484D02*
X13855182Y-12605008D01*
X13855182Y-12605008D02*
X13864705Y-12614531D01*
X13864705Y-12614531D02*
X13874229Y-12633579D01*
X13874229Y-12633579D02*
X13883753Y-12671674D01*
X13883753Y-12671674D02*
X13883753Y-12719293D01*
X13883753Y-12719293D02*
X13874229Y-12757388D01*
X13874229Y-12757388D02*
X13864705Y-12776436D01*
X13864705Y-12776436D02*
X13855182Y-12785960D01*
X13855182Y-12785960D02*
X13836134Y-12795484D01*
X13836134Y-12795484D02*
X13817086Y-12795484D01*
X13817086Y-12795484D02*
X13798039Y-12785960D01*
X13798039Y-12785960D02*
X13788515Y-12776436D01*
X13788515Y-12776436D02*
X13778991Y-12757388D01*
X13778991Y-12757388D02*
X13769467Y-12719293D01*
X13769467Y-12719293D02*
X13769467Y-12671674D01*
X13769467Y-12671674D02*
X13778991Y-12633579D01*
X13778991Y-12633579D02*
X13788515Y-12614531D01*
X13788515Y-12614531D02*
X13798039Y-12605008D01*
X13798039Y-12605008D02*
X13817086Y-12595484D01*
X14007562Y-12595484D02*
X14026610Y-12595484D01*
X14026610Y-12595484D02*
X14045658Y-12605008D01*
X14045658Y-12605008D02*
X14055182Y-12614531D01*
X14055182Y-12614531D02*
X14064705Y-12633579D01*
X14064705Y-12633579D02*
X14074229Y-12671674D01*
X14074229Y-12671674D02*
X14074229Y-12719293D01*
X14074229Y-12719293D02*
X14064705Y-12757388D01*
X14064705Y-12757388D02*
X14055182Y-12776436D01*
X14055182Y-12776436D02*
X14045658Y-12785960D01*
X14045658Y-12785960D02*
X14026610Y-12795484D01*
X14026610Y-12795484D02*
X14007562Y-12795484D01*
X14007562Y-12795484D02*
X13988515Y-12785960D01*
X13988515Y-12785960D02*
X13978991Y-12776436D01*
X13978991Y-12776436D02*
X13969467Y-12757388D01*
X13969467Y-12757388D02*
X13959943Y-12719293D01*
X13959943Y-12719293D02*
X13959943Y-12671674D01*
X13959943Y-12671674D02*
X13969467Y-12633579D01*
X13969467Y-12633579D02*
X13978991Y-12614531D01*
X13978991Y-12614531D02*
X13988515Y-12605008D01*
X13988515Y-12605008D02*
X14007562Y-12595484D01*
X14198039Y-12595484D02*
X14217086Y-12595484D01*
X14217086Y-12595484D02*
X14236134Y-12605008D01*
X14236134Y-12605008D02*
X14245658Y-12614531D01*
X14245658Y-12614531D02*
X14255182Y-12633579D01*
X14255182Y-12633579D02*
X14264705Y-12671674D01*
X14264705Y-12671674D02*
X14264705Y-12719293D01*
X14264705Y-12719293D02*
X14255182Y-12757388D01*
X14255182Y-12757388D02*
X14245658Y-12776436D01*
X14245658Y-12776436D02*
X14236134Y-12785960D01*
X14236134Y-12785960D02*
X14217086Y-12795484D01*
X14217086Y-12795484D02*
X14198039Y-12795484D01*
X14198039Y-12795484D02*
X14178991Y-12785960D01*
X14178991Y-12785960D02*
X14169467Y-12776436D01*
X14169467Y-12776436D02*
X14159943Y-12757388D01*
X14159943Y-12757388D02*
X14150420Y-12719293D01*
X14150420Y-12719293D02*
X14150420Y-12671674D01*
X14150420Y-12671674D02*
X14159943Y-12633579D01*
X14159943Y-12633579D02*
X14169467Y-12614531D01*
X14169467Y-12614531D02*
X14178991Y-12605008D01*
X14178991Y-12605008D02*
X14198039Y-12595484D01*
X14350420Y-12795484D02*
X14350420Y-12662150D01*
X14350420Y-12681198D02*
X14359943Y-12671674D01*
X14359943Y-12671674D02*
X14378991Y-12662150D01*
X14378991Y-12662150D02*
X14407563Y-12662150D01*
X14407563Y-12662150D02*
X14426610Y-12671674D01*
X14426610Y-12671674D02*
X14436134Y-12690722D01*
X14436134Y-12690722D02*
X14436134Y-12795484D01*
X14436134Y-12690722D02*
X14445658Y-12671674D01*
X14445658Y-12671674D02*
X14464705Y-12662150D01*
X14464705Y-12662150D02*
X14493277Y-12662150D01*
X14493277Y-12662150D02*
X14512324Y-12671674D01*
X14512324Y-12671674D02*
X14521848Y-12690722D01*
X14521848Y-12690722D02*
X14521848Y-12795484D01*
X14617086Y-12795484D02*
X14617086Y-12662150D01*
X14617086Y-12681198D02*
X14626610Y-12671674D01*
X14626610Y-12671674D02*
X14645658Y-12662150D01*
X14645658Y-12662150D02*
X14674229Y-12662150D01*
X14674229Y-12662150D02*
X14693277Y-12671674D01*
X14693277Y-12671674D02*
X14702801Y-12690722D01*
X14702801Y-12690722D02*
X14702801Y-12795484D01*
X14702801Y-12690722D02*
X14712324Y-12671674D01*
X14712324Y-12671674D02*
X14731372Y-12662150D01*
X14731372Y-12662150D02*
X14759943Y-12662150D01*
X14759943Y-12662150D02*
X14778991Y-12671674D01*
X14778991Y-12671674D02*
X14788515Y-12690722D01*
X14788515Y-12690722D02*
X14788515Y-12795484D01*
X15178991Y-12585960D02*
X15007563Y-12843103D01*
X15436134Y-12595484D02*
X15455182Y-12595484D01*
X15455182Y-12595484D02*
X15474229Y-12605008D01*
X15474229Y-12605008D02*
X15483753Y-12614531D01*
X15483753Y-12614531D02*
X15493277Y-12633579D01*
X15493277Y-12633579D02*
X15502801Y-12671674D01*
X15502801Y-12671674D02*
X15502801Y-12719293D01*
X15502801Y-12719293D02*
X15493277Y-12757388D01*
X15493277Y-12757388D02*
X15483753Y-12776436D01*
X15483753Y-12776436D02*
X15474229Y-12785960D01*
X15474229Y-12785960D02*
X15455182Y-12795484D01*
X15455182Y-12795484D02*
X15436134Y-12795484D01*
X15436134Y-12795484D02*
X15417086Y-12785960D01*
X15417086Y-12785960D02*
X15407563Y-12776436D01*
X15407563Y-12776436D02*
X15398039Y-12757388D01*
X15398039Y-12757388D02*
X15388515Y-12719293D01*
X15388515Y-12719293D02*
X15388515Y-12671674D01*
X15388515Y-12671674D02*
X15398039Y-12633579D01*
X15398039Y-12633579D02*
X15407563Y-12614531D01*
X15407563Y-12614531D02*
X15417086Y-12605008D01*
X15417086Y-12605008D02*
X15436134Y-12595484D01*
X15588515Y-12776436D02*
X15598039Y-12785960D01*
X15598039Y-12785960D02*
X15588515Y-12795484D01*
X15588515Y-12795484D02*
X15578991Y-12785960D01*
X15578991Y-12785960D02*
X15588515Y-12776436D01*
X15588515Y-12776436D02*
X15588515Y-12795484D01*
X15721848Y-12595484D02*
X15740896Y-12595484D01*
X15740896Y-12595484D02*
X15759944Y-12605008D01*
X15759944Y-12605008D02*
X15769467Y-12614531D01*
X15769467Y-12614531D02*
X15778991Y-12633579D01*
X15778991Y-12633579D02*
X15788515Y-12671674D01*
X15788515Y-12671674D02*
X15788515Y-12719293D01*
X15788515Y-12719293D02*
X15778991Y-12757388D01*
X15778991Y-12757388D02*
X15769467Y-12776436D01*
X15769467Y-12776436D02*
X15759944Y-12785960D01*
X15759944Y-12785960D02*
X15740896Y-12795484D01*
X15740896Y-12795484D02*
X15721848Y-12795484D01*
X15721848Y-12795484D02*
X15702801Y-12785960D01*
X15702801Y-12785960D02*
X15693277Y-12776436D01*
X15693277Y-12776436D02*
X15683753Y-12757388D01*
X15683753Y-12757388D02*
X15674229Y-12719293D01*
X15674229Y-12719293D02*
X15674229Y-12671674D01*
X15674229Y-12671674D02*
X15683753Y-12633579D01*
X15683753Y-12633579D02*
X15693277Y-12614531D01*
X15693277Y-12614531D02*
X15702801Y-12605008D01*
X15702801Y-12605008D02*
X15721848Y-12595484D01*
X15855182Y-12595484D02*
X15978991Y-12595484D01*
X15978991Y-12595484D02*
X15912325Y-12671674D01*
X15912325Y-12671674D02*
X15940896Y-12671674D01*
X15940896Y-12671674D02*
X15959944Y-12681198D01*
X15959944Y-12681198D02*
X15969467Y-12690722D01*
X15969467Y-12690722D02*
X15978991Y-12709769D01*
X15978991Y-12709769D02*
X15978991Y-12757388D01*
X15978991Y-12757388D02*
X15969467Y-12776436D01*
X15969467Y-12776436D02*
X15959944Y-12785960D01*
X15959944Y-12785960D02*
X15940896Y-12795484D01*
X15940896Y-12795484D02*
X15883753Y-12795484D01*
X15883753Y-12795484D02*
X15864706Y-12785960D01*
X15864706Y-12785960D02*
X15855182Y-12776436D01*
X16074229Y-12795484D02*
X16112325Y-12795484D01*
X16112325Y-12795484D02*
X16131372Y-12785960D01*
X16131372Y-12785960D02*
X16140896Y-12776436D01*
X16140896Y-12776436D02*
X16159944Y-12747865D01*
X16159944Y-12747865D02*
X16169467Y-12709769D01*
X16169467Y-12709769D02*
X16169467Y-12633579D01*
X16169467Y-12633579D02*
X16159944Y-12614531D01*
X16159944Y-12614531D02*
X16150420Y-12605008D01*
X16150420Y-12605008D02*
X16131372Y-12595484D01*
X16131372Y-12595484D02*
X16093277Y-12595484D01*
X16093277Y-12595484D02*
X16074229Y-12605008D01*
X16074229Y-12605008D02*
X16064706Y-12614531D01*
X16064706Y-12614531D02*
X16055182Y-12633579D01*
X16055182Y-12633579D02*
X16055182Y-12681198D01*
X16055182Y-12681198D02*
X16064706Y-12700246D01*
X16064706Y-12700246D02*
X16074229Y-12709769D01*
X16074229Y-12709769D02*
X16093277Y-12719293D01*
X16093277Y-12719293D02*
X16131372Y-12719293D01*
X16131372Y-12719293D02*
X16150420Y-12709769D01*
X16150420Y-12709769D02*
X16159944Y-12700246D01*
X16159944Y-12700246D02*
X16169467Y-12681198D01*
X16340896Y-12662150D02*
X16340896Y-12795484D01*
X16293277Y-12585960D02*
X16245658Y-12728817D01*
X16245658Y-12728817D02*
X16369467Y-12728817D01*
X16436134Y-12595484D02*
X16436134Y-12633579D01*
X16512325Y-12595484D02*
X16512325Y-12633579D01*
X16807563Y-12871674D02*
X16798039Y-12862150D01*
X16798039Y-12862150D02*
X16778991Y-12833579D01*
X16778991Y-12833579D02*
X16769468Y-12814531D01*
X16769468Y-12814531D02*
X16759944Y-12785960D01*
X16759944Y-12785960D02*
X16750420Y-12738341D01*
X16750420Y-12738341D02*
X16750420Y-12700246D01*
X16750420Y-12700246D02*
X16759944Y-12652627D01*
X16759944Y-12652627D02*
X16769468Y-12624055D01*
X16769468Y-12624055D02*
X16778991Y-12605008D01*
X16778991Y-12605008D02*
X16798039Y-12576436D01*
X16798039Y-12576436D02*
X16807563Y-12566912D01*
X16988515Y-12795484D02*
X16874230Y-12795484D01*
X16931372Y-12795484D02*
X16931372Y-12595484D01*
X16931372Y-12595484D02*
X16912325Y-12624055D01*
X16912325Y-12624055D02*
X16893277Y-12643103D01*
X16893277Y-12643103D02*
X16874230Y-12652627D01*
X17159944Y-12662150D02*
X17159944Y-12795484D01*
X17112325Y-12585960D02*
X17064706Y-12728817D01*
X17064706Y-12728817D02*
X17188515Y-12728817D01*
X17417087Y-12795484D02*
X17417087Y-12595484D01*
X17502801Y-12795484D02*
X17502801Y-12690722D01*
X17502801Y-12690722D02*
X17493277Y-12671674D01*
X17493277Y-12671674D02*
X17474230Y-12662150D01*
X17474230Y-12662150D02*
X17445658Y-12662150D01*
X17445658Y-12662150D02*
X17426611Y-12671674D01*
X17426611Y-12671674D02*
X17417087Y-12681198D01*
X17626611Y-12795484D02*
X17607563Y-12785960D01*
X17607563Y-12785960D02*
X17598039Y-12776436D01*
X17598039Y-12776436D02*
X17588515Y-12757388D01*
X17588515Y-12757388D02*
X17588515Y-12700246D01*
X17588515Y-12700246D02*
X17598039Y-12681198D01*
X17598039Y-12681198D02*
X17607563Y-12671674D01*
X17607563Y-12671674D02*
X17626611Y-12662150D01*
X17626611Y-12662150D02*
X17655182Y-12662150D01*
X17655182Y-12662150D02*
X17674230Y-12671674D01*
X17674230Y-12671674D02*
X17683753Y-12681198D01*
X17683753Y-12681198D02*
X17693277Y-12700246D01*
X17693277Y-12700246D02*
X17693277Y-12757388D01*
X17693277Y-12757388D02*
X17683753Y-12776436D01*
X17683753Y-12776436D02*
X17674230Y-12785960D01*
X17674230Y-12785960D02*
X17655182Y-12795484D01*
X17655182Y-12795484D02*
X17626611Y-12795484D01*
X17807563Y-12795484D02*
X17788515Y-12785960D01*
X17788515Y-12785960D02*
X17778992Y-12766912D01*
X17778992Y-12766912D02*
X17778992Y-12595484D01*
X17959944Y-12785960D02*
X17940896Y-12795484D01*
X17940896Y-12795484D02*
X17902801Y-12795484D01*
X17902801Y-12795484D02*
X17883753Y-12785960D01*
X17883753Y-12785960D02*
X17874230Y-12766912D01*
X17874230Y-12766912D02*
X17874230Y-12690722D01*
X17874230Y-12690722D02*
X17883753Y-12671674D01*
X17883753Y-12671674D02*
X17902801Y-12662150D01*
X17902801Y-12662150D02*
X17940896Y-12662150D01*
X17940896Y-12662150D02*
X17959944Y-12671674D01*
X17959944Y-12671674D02*
X17969468Y-12690722D01*
X17969468Y-12690722D02*
X17969468Y-12709769D01*
X17969468Y-12709769D02*
X17874230Y-12728817D01*
X18045658Y-12785960D02*
X18064706Y-12795484D01*
X18064706Y-12795484D02*
X18102801Y-12795484D01*
X18102801Y-12795484D02*
X18121849Y-12785960D01*
X18121849Y-12785960D02*
X18131373Y-12766912D01*
X18131373Y-12766912D02*
X18131373Y-12757388D01*
X18131373Y-12757388D02*
X18121849Y-12738341D01*
X18121849Y-12738341D02*
X18102801Y-12728817D01*
X18102801Y-12728817D02*
X18074230Y-12728817D01*
X18074230Y-12728817D02*
X18055182Y-12719293D01*
X18055182Y-12719293D02*
X18045658Y-12700246D01*
X18045658Y-12700246D02*
X18045658Y-12690722D01*
X18045658Y-12690722D02*
X18055182Y-12671674D01*
X18055182Y-12671674D02*
X18074230Y-12662150D01*
X18074230Y-12662150D02*
X18102801Y-12662150D01*
X18102801Y-12662150D02*
X18121849Y-12671674D01*
X18198039Y-12871674D02*
X18207563Y-12862150D01*
X18207563Y-12862150D02*
X18226611Y-12833579D01*
X18226611Y-12833579D02*
X18236134Y-12814531D01*
X18236134Y-12814531D02*
X18245658Y-12785960D01*
X18245658Y-12785960D02*
X18255182Y-12738341D01*
X18255182Y-12738341D02*
X18255182Y-12700246D01*
X18255182Y-12700246D02*
X18245658Y-12652627D01*
X18245658Y-12652627D02*
X18236134Y-12624055D01*
X18236134Y-12624055D02*
X18226611Y-12605008D01*
X18226611Y-12605008D02*
X18207563Y-12576436D01*
X18207563Y-12576436D02*
X18198039Y-12566912D01*
M02*
