%TF.GenerationSoftware,KiCad,Pcbnew,7.0.11-7.0.11~ubuntu22.04.1*%
%TF.CreationDate,2024-10-26T23:49:20+02:00*%
%TF.ProjectId,C6-40-Flash-test,43362d34-302d-4466-9c61-73682d746573,1.0*%
%TF.SameCoordinates,Original*%
%TF.FileFunction,Drillmap*%
%TF.FilePolarity,Positive*%
%FSLAX45Y45*%
G04 Gerber Fmt 4.5, Leading zero omitted, Abs format (unit mm)*
G04 Created by KiCad (PCBNEW 7.0.11-7.0.11~ubuntu22.04.1) date 2024-10-26 23:49:20*
%MOMM*%
%LPD*%
G01*
G04 APERTURE LIST*
%ADD10C,0.050000*%
%ADD11C,0.200000*%
%ADD12C,0.100000*%
G04 APERTURE END LIST*
D10*
X13235000Y-11269500D02*
X13235000Y-8163500D01*
X15207000Y-8163500D02*
X15207000Y-11269500D01*
X15207000Y-11269500D02*
X13235000Y-11269500D01*
X13235000Y-8163500D02*
X15207000Y-8163500D01*
D11*
D12*
X13897500Y-8626000D02*
X13962500Y-8691000D01*
X13962500Y-8626000D02*
X13897500Y-8691000D01*
X14475500Y-8626000D02*
X14540500Y-8691000D01*
X14540500Y-8626000D02*
X14475500Y-8691000D01*
D11*
X13493277Y-11583484D02*
X13493277Y-11383484D01*
X13493277Y-11383484D02*
X13540896Y-11383484D01*
X13540896Y-11383484D02*
X13569467Y-11393008D01*
X13569467Y-11393008D02*
X13588515Y-11412055D01*
X13588515Y-11412055D02*
X13598039Y-11431103D01*
X13598039Y-11431103D02*
X13607562Y-11469198D01*
X13607562Y-11469198D02*
X13607562Y-11497769D01*
X13607562Y-11497769D02*
X13598039Y-11535865D01*
X13598039Y-11535865D02*
X13588515Y-11554912D01*
X13588515Y-11554912D02*
X13569467Y-11573960D01*
X13569467Y-11573960D02*
X13540896Y-11583484D01*
X13540896Y-11583484D02*
X13493277Y-11583484D01*
X13693277Y-11583484D02*
X13693277Y-11450150D01*
X13693277Y-11488246D02*
X13702801Y-11469198D01*
X13702801Y-11469198D02*
X13712324Y-11459674D01*
X13712324Y-11459674D02*
X13731372Y-11450150D01*
X13731372Y-11450150D02*
X13750420Y-11450150D01*
X13817086Y-11583484D02*
X13817086Y-11450150D01*
X13817086Y-11383484D02*
X13807562Y-11393008D01*
X13807562Y-11393008D02*
X13817086Y-11402531D01*
X13817086Y-11402531D02*
X13826610Y-11393008D01*
X13826610Y-11393008D02*
X13817086Y-11383484D01*
X13817086Y-11383484D02*
X13817086Y-11402531D01*
X13940896Y-11583484D02*
X13921848Y-11573960D01*
X13921848Y-11573960D02*
X13912324Y-11554912D01*
X13912324Y-11554912D02*
X13912324Y-11383484D01*
X14045658Y-11583484D02*
X14026610Y-11573960D01*
X14026610Y-11573960D02*
X14017086Y-11554912D01*
X14017086Y-11554912D02*
X14017086Y-11383484D01*
X14274229Y-11583484D02*
X14274229Y-11383484D01*
X14274229Y-11383484D02*
X14340896Y-11526341D01*
X14340896Y-11526341D02*
X14407562Y-11383484D01*
X14407562Y-11383484D02*
X14407562Y-11583484D01*
X14588515Y-11583484D02*
X14588515Y-11478722D01*
X14588515Y-11478722D02*
X14578991Y-11459674D01*
X14578991Y-11459674D02*
X14559943Y-11450150D01*
X14559943Y-11450150D02*
X14521848Y-11450150D01*
X14521848Y-11450150D02*
X14502801Y-11459674D01*
X14588515Y-11573960D02*
X14569467Y-11583484D01*
X14569467Y-11583484D02*
X14521848Y-11583484D01*
X14521848Y-11583484D02*
X14502801Y-11573960D01*
X14502801Y-11573960D02*
X14493277Y-11554912D01*
X14493277Y-11554912D02*
X14493277Y-11535865D01*
X14493277Y-11535865D02*
X14502801Y-11516817D01*
X14502801Y-11516817D02*
X14521848Y-11507293D01*
X14521848Y-11507293D02*
X14569467Y-11507293D01*
X14569467Y-11507293D02*
X14588515Y-11497769D01*
X14683753Y-11450150D02*
X14683753Y-11650150D01*
X14683753Y-11459674D02*
X14702801Y-11450150D01*
X14702801Y-11450150D02*
X14740896Y-11450150D01*
X14740896Y-11450150D02*
X14759943Y-11459674D01*
X14759943Y-11459674D02*
X14769467Y-11469198D01*
X14769467Y-11469198D02*
X14778991Y-11488246D01*
X14778991Y-11488246D02*
X14778991Y-11545388D01*
X14778991Y-11545388D02*
X14769467Y-11564436D01*
X14769467Y-11564436D02*
X14759943Y-11573960D01*
X14759943Y-11573960D02*
X14740896Y-11583484D01*
X14740896Y-11583484D02*
X14702801Y-11583484D01*
X14702801Y-11583484D02*
X14683753Y-11573960D01*
X14864705Y-11564436D02*
X14874229Y-11573960D01*
X14874229Y-11573960D02*
X14864705Y-11583484D01*
X14864705Y-11583484D02*
X14855182Y-11573960D01*
X14855182Y-11573960D02*
X14864705Y-11564436D01*
X14864705Y-11564436D02*
X14864705Y-11583484D01*
X14864705Y-11459674D02*
X14874229Y-11469198D01*
X14874229Y-11469198D02*
X14864705Y-11478722D01*
X14864705Y-11478722D02*
X14855182Y-11469198D01*
X14855182Y-11469198D02*
X14864705Y-11459674D01*
X14864705Y-11459674D02*
X14864705Y-11478722D01*
D12*
X13167500Y-11879500D02*
X13232500Y-11944500D01*
X13232500Y-11879500D02*
X13167500Y-11944500D01*
D11*
X13531372Y-11803484D02*
X13550420Y-11803484D01*
X13550420Y-11803484D02*
X13569467Y-11813008D01*
X13569467Y-11813008D02*
X13578991Y-11822531D01*
X13578991Y-11822531D02*
X13588515Y-11841579D01*
X13588515Y-11841579D02*
X13598039Y-11879674D01*
X13598039Y-11879674D02*
X13598039Y-11927293D01*
X13598039Y-11927293D02*
X13588515Y-11965388D01*
X13588515Y-11965388D02*
X13578991Y-11984436D01*
X13578991Y-11984436D02*
X13569467Y-11993960D01*
X13569467Y-11993960D02*
X13550420Y-12003484D01*
X13550420Y-12003484D02*
X13531372Y-12003484D01*
X13531372Y-12003484D02*
X13512324Y-11993960D01*
X13512324Y-11993960D02*
X13502801Y-11984436D01*
X13502801Y-11984436D02*
X13493277Y-11965388D01*
X13493277Y-11965388D02*
X13483753Y-11927293D01*
X13483753Y-11927293D02*
X13483753Y-11879674D01*
X13483753Y-11879674D02*
X13493277Y-11841579D01*
X13493277Y-11841579D02*
X13502801Y-11822531D01*
X13502801Y-11822531D02*
X13512324Y-11813008D01*
X13512324Y-11813008D02*
X13531372Y-11803484D01*
X13683753Y-11984436D02*
X13693277Y-11993960D01*
X13693277Y-11993960D02*
X13683753Y-12003484D01*
X13683753Y-12003484D02*
X13674229Y-11993960D01*
X13674229Y-11993960D02*
X13683753Y-11984436D01*
X13683753Y-11984436D02*
X13683753Y-12003484D01*
X13864705Y-11803484D02*
X13826610Y-11803484D01*
X13826610Y-11803484D02*
X13807562Y-11813008D01*
X13807562Y-11813008D02*
X13798039Y-11822531D01*
X13798039Y-11822531D02*
X13778991Y-11851103D01*
X13778991Y-11851103D02*
X13769467Y-11889198D01*
X13769467Y-11889198D02*
X13769467Y-11965388D01*
X13769467Y-11965388D02*
X13778991Y-11984436D01*
X13778991Y-11984436D02*
X13788515Y-11993960D01*
X13788515Y-11993960D02*
X13807562Y-12003484D01*
X13807562Y-12003484D02*
X13845658Y-12003484D01*
X13845658Y-12003484D02*
X13864705Y-11993960D01*
X13864705Y-11993960D02*
X13874229Y-11984436D01*
X13874229Y-11984436D02*
X13883753Y-11965388D01*
X13883753Y-11965388D02*
X13883753Y-11917769D01*
X13883753Y-11917769D02*
X13874229Y-11898722D01*
X13874229Y-11898722D02*
X13864705Y-11889198D01*
X13864705Y-11889198D02*
X13845658Y-11879674D01*
X13845658Y-11879674D02*
X13807562Y-11879674D01*
X13807562Y-11879674D02*
X13788515Y-11889198D01*
X13788515Y-11889198D02*
X13778991Y-11898722D01*
X13778991Y-11898722D02*
X13769467Y-11917769D01*
X14064705Y-11803484D02*
X13969467Y-11803484D01*
X13969467Y-11803484D02*
X13959943Y-11898722D01*
X13959943Y-11898722D02*
X13969467Y-11889198D01*
X13969467Y-11889198D02*
X13988515Y-11879674D01*
X13988515Y-11879674D02*
X14036134Y-11879674D01*
X14036134Y-11879674D02*
X14055182Y-11889198D01*
X14055182Y-11889198D02*
X14064705Y-11898722D01*
X14064705Y-11898722D02*
X14074229Y-11917769D01*
X14074229Y-11917769D02*
X14074229Y-11965388D01*
X14074229Y-11965388D02*
X14064705Y-11984436D01*
X14064705Y-11984436D02*
X14055182Y-11993960D01*
X14055182Y-11993960D02*
X14036134Y-12003484D01*
X14036134Y-12003484D02*
X13988515Y-12003484D01*
X13988515Y-12003484D02*
X13969467Y-11993960D01*
X13969467Y-11993960D02*
X13959943Y-11984436D01*
X14198039Y-11803484D02*
X14217086Y-11803484D01*
X14217086Y-11803484D02*
X14236134Y-11813008D01*
X14236134Y-11813008D02*
X14245658Y-11822531D01*
X14245658Y-11822531D02*
X14255182Y-11841579D01*
X14255182Y-11841579D02*
X14264705Y-11879674D01*
X14264705Y-11879674D02*
X14264705Y-11927293D01*
X14264705Y-11927293D02*
X14255182Y-11965388D01*
X14255182Y-11965388D02*
X14245658Y-11984436D01*
X14245658Y-11984436D02*
X14236134Y-11993960D01*
X14236134Y-11993960D02*
X14217086Y-12003484D01*
X14217086Y-12003484D02*
X14198039Y-12003484D01*
X14198039Y-12003484D02*
X14178991Y-11993960D01*
X14178991Y-11993960D02*
X14169467Y-11984436D01*
X14169467Y-11984436D02*
X14159943Y-11965388D01*
X14159943Y-11965388D02*
X14150420Y-11927293D01*
X14150420Y-11927293D02*
X14150420Y-11879674D01*
X14150420Y-11879674D02*
X14159943Y-11841579D01*
X14159943Y-11841579D02*
X14169467Y-11822531D01*
X14169467Y-11822531D02*
X14178991Y-11813008D01*
X14178991Y-11813008D02*
X14198039Y-11803484D01*
X14350420Y-12003484D02*
X14350420Y-11870150D01*
X14350420Y-11889198D02*
X14359943Y-11879674D01*
X14359943Y-11879674D02*
X14378991Y-11870150D01*
X14378991Y-11870150D02*
X14407563Y-11870150D01*
X14407563Y-11870150D02*
X14426610Y-11879674D01*
X14426610Y-11879674D02*
X14436134Y-11898722D01*
X14436134Y-11898722D02*
X14436134Y-12003484D01*
X14436134Y-11898722D02*
X14445658Y-11879674D01*
X14445658Y-11879674D02*
X14464705Y-11870150D01*
X14464705Y-11870150D02*
X14493277Y-11870150D01*
X14493277Y-11870150D02*
X14512324Y-11879674D01*
X14512324Y-11879674D02*
X14521848Y-11898722D01*
X14521848Y-11898722D02*
X14521848Y-12003484D01*
X14617086Y-12003484D02*
X14617086Y-11870150D01*
X14617086Y-11889198D02*
X14626610Y-11879674D01*
X14626610Y-11879674D02*
X14645658Y-11870150D01*
X14645658Y-11870150D02*
X14674229Y-11870150D01*
X14674229Y-11870150D02*
X14693277Y-11879674D01*
X14693277Y-11879674D02*
X14702801Y-11898722D01*
X14702801Y-11898722D02*
X14702801Y-12003484D01*
X14702801Y-11898722D02*
X14712324Y-11879674D01*
X14712324Y-11879674D02*
X14731372Y-11870150D01*
X14731372Y-11870150D02*
X14759943Y-11870150D01*
X14759943Y-11870150D02*
X14778991Y-11879674D01*
X14778991Y-11879674D02*
X14788515Y-11898722D01*
X14788515Y-11898722D02*
X14788515Y-12003484D01*
X15178991Y-11793960D02*
X15007563Y-12051103D01*
X15436134Y-11803484D02*
X15455182Y-11803484D01*
X15455182Y-11803484D02*
X15474229Y-11813008D01*
X15474229Y-11813008D02*
X15483753Y-11822531D01*
X15483753Y-11822531D02*
X15493277Y-11841579D01*
X15493277Y-11841579D02*
X15502801Y-11879674D01*
X15502801Y-11879674D02*
X15502801Y-11927293D01*
X15502801Y-11927293D02*
X15493277Y-11965388D01*
X15493277Y-11965388D02*
X15483753Y-11984436D01*
X15483753Y-11984436D02*
X15474229Y-11993960D01*
X15474229Y-11993960D02*
X15455182Y-12003484D01*
X15455182Y-12003484D02*
X15436134Y-12003484D01*
X15436134Y-12003484D02*
X15417086Y-11993960D01*
X15417086Y-11993960D02*
X15407563Y-11984436D01*
X15407563Y-11984436D02*
X15398039Y-11965388D01*
X15398039Y-11965388D02*
X15388515Y-11927293D01*
X15388515Y-11927293D02*
X15388515Y-11879674D01*
X15388515Y-11879674D02*
X15398039Y-11841579D01*
X15398039Y-11841579D02*
X15407563Y-11822531D01*
X15407563Y-11822531D02*
X15417086Y-11813008D01*
X15417086Y-11813008D02*
X15436134Y-11803484D01*
X15588515Y-11984436D02*
X15598039Y-11993960D01*
X15598039Y-11993960D02*
X15588515Y-12003484D01*
X15588515Y-12003484D02*
X15578991Y-11993960D01*
X15578991Y-11993960D02*
X15588515Y-11984436D01*
X15588515Y-11984436D02*
X15588515Y-12003484D01*
X15721848Y-11803484D02*
X15740896Y-11803484D01*
X15740896Y-11803484D02*
X15759944Y-11813008D01*
X15759944Y-11813008D02*
X15769467Y-11822531D01*
X15769467Y-11822531D02*
X15778991Y-11841579D01*
X15778991Y-11841579D02*
X15788515Y-11879674D01*
X15788515Y-11879674D02*
X15788515Y-11927293D01*
X15788515Y-11927293D02*
X15778991Y-11965388D01*
X15778991Y-11965388D02*
X15769467Y-11984436D01*
X15769467Y-11984436D02*
X15759944Y-11993960D01*
X15759944Y-11993960D02*
X15740896Y-12003484D01*
X15740896Y-12003484D02*
X15721848Y-12003484D01*
X15721848Y-12003484D02*
X15702801Y-11993960D01*
X15702801Y-11993960D02*
X15693277Y-11984436D01*
X15693277Y-11984436D02*
X15683753Y-11965388D01*
X15683753Y-11965388D02*
X15674229Y-11927293D01*
X15674229Y-11927293D02*
X15674229Y-11879674D01*
X15674229Y-11879674D02*
X15683753Y-11841579D01*
X15683753Y-11841579D02*
X15693277Y-11822531D01*
X15693277Y-11822531D02*
X15702801Y-11813008D01*
X15702801Y-11813008D02*
X15721848Y-11803484D01*
X15864706Y-11822531D02*
X15874229Y-11813008D01*
X15874229Y-11813008D02*
X15893277Y-11803484D01*
X15893277Y-11803484D02*
X15940896Y-11803484D01*
X15940896Y-11803484D02*
X15959944Y-11813008D01*
X15959944Y-11813008D02*
X15969467Y-11822531D01*
X15969467Y-11822531D02*
X15978991Y-11841579D01*
X15978991Y-11841579D02*
X15978991Y-11860627D01*
X15978991Y-11860627D02*
X15969467Y-11889198D01*
X15969467Y-11889198D02*
X15855182Y-12003484D01*
X15855182Y-12003484D02*
X15978991Y-12003484D01*
X16159944Y-11803484D02*
X16064706Y-11803484D01*
X16064706Y-11803484D02*
X16055182Y-11898722D01*
X16055182Y-11898722D02*
X16064706Y-11889198D01*
X16064706Y-11889198D02*
X16083753Y-11879674D01*
X16083753Y-11879674D02*
X16131372Y-11879674D01*
X16131372Y-11879674D02*
X16150420Y-11889198D01*
X16150420Y-11889198D02*
X16159944Y-11898722D01*
X16159944Y-11898722D02*
X16169467Y-11917769D01*
X16169467Y-11917769D02*
X16169467Y-11965388D01*
X16169467Y-11965388D02*
X16159944Y-11984436D01*
X16159944Y-11984436D02*
X16150420Y-11993960D01*
X16150420Y-11993960D02*
X16131372Y-12003484D01*
X16131372Y-12003484D02*
X16083753Y-12003484D01*
X16083753Y-12003484D02*
X16064706Y-11993960D01*
X16064706Y-11993960D02*
X16055182Y-11984436D01*
X16340896Y-11803484D02*
X16302801Y-11803484D01*
X16302801Y-11803484D02*
X16283753Y-11813008D01*
X16283753Y-11813008D02*
X16274229Y-11822531D01*
X16274229Y-11822531D02*
X16255182Y-11851103D01*
X16255182Y-11851103D02*
X16245658Y-11889198D01*
X16245658Y-11889198D02*
X16245658Y-11965388D01*
X16245658Y-11965388D02*
X16255182Y-11984436D01*
X16255182Y-11984436D02*
X16264706Y-11993960D01*
X16264706Y-11993960D02*
X16283753Y-12003484D01*
X16283753Y-12003484D02*
X16321848Y-12003484D01*
X16321848Y-12003484D02*
X16340896Y-11993960D01*
X16340896Y-11993960D02*
X16350420Y-11984436D01*
X16350420Y-11984436D02*
X16359944Y-11965388D01*
X16359944Y-11965388D02*
X16359944Y-11917769D01*
X16359944Y-11917769D02*
X16350420Y-11898722D01*
X16350420Y-11898722D02*
X16340896Y-11889198D01*
X16340896Y-11889198D02*
X16321848Y-11879674D01*
X16321848Y-11879674D02*
X16283753Y-11879674D01*
X16283753Y-11879674D02*
X16264706Y-11889198D01*
X16264706Y-11889198D02*
X16255182Y-11898722D01*
X16255182Y-11898722D02*
X16245658Y-11917769D01*
X16436134Y-11803484D02*
X16436134Y-11841579D01*
X16512325Y-11803484D02*
X16512325Y-11841579D01*
X16807563Y-12079674D02*
X16798039Y-12070150D01*
X16798039Y-12070150D02*
X16778991Y-12041579D01*
X16778991Y-12041579D02*
X16769468Y-12022531D01*
X16769468Y-12022531D02*
X16759944Y-11993960D01*
X16759944Y-11993960D02*
X16750420Y-11946341D01*
X16750420Y-11946341D02*
X16750420Y-11908246D01*
X16750420Y-11908246D02*
X16759944Y-11860627D01*
X16759944Y-11860627D02*
X16769468Y-11832055D01*
X16769468Y-11832055D02*
X16778991Y-11813008D01*
X16778991Y-11813008D02*
X16798039Y-11784436D01*
X16798039Y-11784436D02*
X16807563Y-11774912D01*
X16874230Y-11822531D02*
X16883753Y-11813008D01*
X16883753Y-11813008D02*
X16902801Y-11803484D01*
X16902801Y-11803484D02*
X16950420Y-11803484D01*
X16950420Y-11803484D02*
X16969468Y-11813008D01*
X16969468Y-11813008D02*
X16978991Y-11822531D01*
X16978991Y-11822531D02*
X16988515Y-11841579D01*
X16988515Y-11841579D02*
X16988515Y-11860627D01*
X16988515Y-11860627D02*
X16978991Y-11889198D01*
X16978991Y-11889198D02*
X16864706Y-12003484D01*
X16864706Y-12003484D02*
X16988515Y-12003484D01*
X17226611Y-12003484D02*
X17226611Y-11803484D01*
X17312325Y-12003484D02*
X17312325Y-11898722D01*
X17312325Y-11898722D02*
X17302801Y-11879674D01*
X17302801Y-11879674D02*
X17283753Y-11870150D01*
X17283753Y-11870150D02*
X17255182Y-11870150D01*
X17255182Y-11870150D02*
X17236134Y-11879674D01*
X17236134Y-11879674D02*
X17226611Y-11889198D01*
X17436134Y-12003484D02*
X17417087Y-11993960D01*
X17417087Y-11993960D02*
X17407563Y-11984436D01*
X17407563Y-11984436D02*
X17398039Y-11965388D01*
X17398039Y-11965388D02*
X17398039Y-11908246D01*
X17398039Y-11908246D02*
X17407563Y-11889198D01*
X17407563Y-11889198D02*
X17417087Y-11879674D01*
X17417087Y-11879674D02*
X17436134Y-11870150D01*
X17436134Y-11870150D02*
X17464706Y-11870150D01*
X17464706Y-11870150D02*
X17483753Y-11879674D01*
X17483753Y-11879674D02*
X17493277Y-11889198D01*
X17493277Y-11889198D02*
X17502801Y-11908246D01*
X17502801Y-11908246D02*
X17502801Y-11965388D01*
X17502801Y-11965388D02*
X17493277Y-11984436D01*
X17493277Y-11984436D02*
X17483753Y-11993960D01*
X17483753Y-11993960D02*
X17464706Y-12003484D01*
X17464706Y-12003484D02*
X17436134Y-12003484D01*
X17617087Y-12003484D02*
X17598039Y-11993960D01*
X17598039Y-11993960D02*
X17588515Y-11974912D01*
X17588515Y-11974912D02*
X17588515Y-11803484D01*
X17769468Y-11993960D02*
X17750420Y-12003484D01*
X17750420Y-12003484D02*
X17712325Y-12003484D01*
X17712325Y-12003484D02*
X17693277Y-11993960D01*
X17693277Y-11993960D02*
X17683753Y-11974912D01*
X17683753Y-11974912D02*
X17683753Y-11898722D01*
X17683753Y-11898722D02*
X17693277Y-11879674D01*
X17693277Y-11879674D02*
X17712325Y-11870150D01*
X17712325Y-11870150D02*
X17750420Y-11870150D01*
X17750420Y-11870150D02*
X17769468Y-11879674D01*
X17769468Y-11879674D02*
X17778992Y-11898722D01*
X17778992Y-11898722D02*
X17778992Y-11917769D01*
X17778992Y-11917769D02*
X17683753Y-11936817D01*
X17855182Y-11993960D02*
X17874230Y-12003484D01*
X17874230Y-12003484D02*
X17912325Y-12003484D01*
X17912325Y-12003484D02*
X17931373Y-11993960D01*
X17931373Y-11993960D02*
X17940896Y-11974912D01*
X17940896Y-11974912D02*
X17940896Y-11965388D01*
X17940896Y-11965388D02*
X17931373Y-11946341D01*
X17931373Y-11946341D02*
X17912325Y-11936817D01*
X17912325Y-11936817D02*
X17883753Y-11936817D01*
X17883753Y-11936817D02*
X17864706Y-11927293D01*
X17864706Y-11927293D02*
X17855182Y-11908246D01*
X17855182Y-11908246D02*
X17855182Y-11898722D01*
X17855182Y-11898722D02*
X17864706Y-11879674D01*
X17864706Y-11879674D02*
X17883753Y-11870150D01*
X17883753Y-11870150D02*
X17912325Y-11870150D01*
X17912325Y-11870150D02*
X17931373Y-11879674D01*
X18007563Y-12079674D02*
X18017087Y-12070150D01*
X18017087Y-12070150D02*
X18036134Y-12041579D01*
X18036134Y-12041579D02*
X18045658Y-12022531D01*
X18045658Y-12022531D02*
X18055182Y-11993960D01*
X18055182Y-11993960D02*
X18064706Y-11946341D01*
X18064706Y-11946341D02*
X18064706Y-11908246D01*
X18064706Y-11908246D02*
X18055182Y-11860627D01*
X18055182Y-11860627D02*
X18045658Y-11832055D01*
X18045658Y-11832055D02*
X18036134Y-11813008D01*
X18036134Y-11813008D02*
X18017087Y-11784436D01*
X18017087Y-11784436D02*
X18007563Y-11774912D01*
X18369468Y-12079674D02*
X18359944Y-12070150D01*
X18359944Y-12070150D02*
X18340896Y-12041579D01*
X18340896Y-12041579D02*
X18331373Y-12022531D01*
X18331373Y-12022531D02*
X18321849Y-11993960D01*
X18321849Y-11993960D02*
X18312325Y-11946341D01*
X18312325Y-11946341D02*
X18312325Y-11908246D01*
X18312325Y-11908246D02*
X18321849Y-11860627D01*
X18321849Y-11860627D02*
X18331373Y-11832055D01*
X18331373Y-11832055D02*
X18340896Y-11813008D01*
X18340896Y-11813008D02*
X18359944Y-11784436D01*
X18359944Y-11784436D02*
X18369468Y-11774912D01*
X18445658Y-11870150D02*
X18445658Y-12003484D01*
X18445658Y-11889198D02*
X18455182Y-11879674D01*
X18455182Y-11879674D02*
X18474230Y-11870150D01*
X18474230Y-11870150D02*
X18502801Y-11870150D01*
X18502801Y-11870150D02*
X18521849Y-11879674D01*
X18521849Y-11879674D02*
X18531373Y-11898722D01*
X18531373Y-11898722D02*
X18531373Y-12003484D01*
X18655182Y-12003484D02*
X18636134Y-11993960D01*
X18636134Y-11993960D02*
X18626611Y-11984436D01*
X18626611Y-11984436D02*
X18617087Y-11965388D01*
X18617087Y-11965388D02*
X18617087Y-11908246D01*
X18617087Y-11908246D02*
X18626611Y-11889198D01*
X18626611Y-11889198D02*
X18636134Y-11879674D01*
X18636134Y-11879674D02*
X18655182Y-11870150D01*
X18655182Y-11870150D02*
X18683754Y-11870150D01*
X18683754Y-11870150D02*
X18702801Y-11879674D01*
X18702801Y-11879674D02*
X18712325Y-11889198D01*
X18712325Y-11889198D02*
X18721849Y-11908246D01*
X18721849Y-11908246D02*
X18721849Y-11965388D01*
X18721849Y-11965388D02*
X18712325Y-11984436D01*
X18712325Y-11984436D02*
X18702801Y-11993960D01*
X18702801Y-11993960D02*
X18683754Y-12003484D01*
X18683754Y-12003484D02*
X18655182Y-12003484D01*
X18778992Y-11870150D02*
X18855182Y-11870150D01*
X18807563Y-11803484D02*
X18807563Y-11974912D01*
X18807563Y-11974912D02*
X18817087Y-11993960D01*
X18817087Y-11993960D02*
X18836134Y-12003484D01*
X18836134Y-12003484D02*
X18855182Y-12003484D01*
X19074230Y-11870150D02*
X19074230Y-12070150D01*
X19074230Y-11879674D02*
X19093277Y-11870150D01*
X19093277Y-11870150D02*
X19131373Y-11870150D01*
X19131373Y-11870150D02*
X19150420Y-11879674D01*
X19150420Y-11879674D02*
X19159944Y-11889198D01*
X19159944Y-11889198D02*
X19169468Y-11908246D01*
X19169468Y-11908246D02*
X19169468Y-11965388D01*
X19169468Y-11965388D02*
X19159944Y-11984436D01*
X19159944Y-11984436D02*
X19150420Y-11993960D01*
X19150420Y-11993960D02*
X19131373Y-12003484D01*
X19131373Y-12003484D02*
X19093277Y-12003484D01*
X19093277Y-12003484D02*
X19074230Y-11993960D01*
X19283754Y-12003484D02*
X19264706Y-11993960D01*
X19264706Y-11993960D02*
X19255182Y-11974912D01*
X19255182Y-11974912D02*
X19255182Y-11803484D01*
X19445658Y-12003484D02*
X19445658Y-11898722D01*
X19445658Y-11898722D02*
X19436135Y-11879674D01*
X19436135Y-11879674D02*
X19417087Y-11870150D01*
X19417087Y-11870150D02*
X19378992Y-11870150D01*
X19378992Y-11870150D02*
X19359944Y-11879674D01*
X19445658Y-11993960D02*
X19426611Y-12003484D01*
X19426611Y-12003484D02*
X19378992Y-12003484D01*
X19378992Y-12003484D02*
X19359944Y-11993960D01*
X19359944Y-11993960D02*
X19350420Y-11974912D01*
X19350420Y-11974912D02*
X19350420Y-11955865D01*
X19350420Y-11955865D02*
X19359944Y-11936817D01*
X19359944Y-11936817D02*
X19378992Y-11927293D01*
X19378992Y-11927293D02*
X19426611Y-11927293D01*
X19426611Y-11927293D02*
X19445658Y-11917769D01*
X19512325Y-11870150D02*
X19588515Y-11870150D01*
X19540896Y-11803484D02*
X19540896Y-11974912D01*
X19540896Y-11974912D02*
X19550420Y-11993960D01*
X19550420Y-11993960D02*
X19569468Y-12003484D01*
X19569468Y-12003484D02*
X19588515Y-12003484D01*
X19731373Y-11993960D02*
X19712325Y-12003484D01*
X19712325Y-12003484D02*
X19674230Y-12003484D01*
X19674230Y-12003484D02*
X19655182Y-11993960D01*
X19655182Y-11993960D02*
X19645658Y-11974912D01*
X19645658Y-11974912D02*
X19645658Y-11898722D01*
X19645658Y-11898722D02*
X19655182Y-11879674D01*
X19655182Y-11879674D02*
X19674230Y-11870150D01*
X19674230Y-11870150D02*
X19712325Y-11870150D01*
X19712325Y-11870150D02*
X19731373Y-11879674D01*
X19731373Y-11879674D02*
X19740896Y-11898722D01*
X19740896Y-11898722D02*
X19740896Y-11917769D01*
X19740896Y-11917769D02*
X19645658Y-11936817D01*
X19912325Y-12003484D02*
X19912325Y-11803484D01*
X19912325Y-11993960D02*
X19893277Y-12003484D01*
X19893277Y-12003484D02*
X19855182Y-12003484D01*
X19855182Y-12003484D02*
X19836135Y-11993960D01*
X19836135Y-11993960D02*
X19826611Y-11984436D01*
X19826611Y-11984436D02*
X19817087Y-11965388D01*
X19817087Y-11965388D02*
X19817087Y-11908246D01*
X19817087Y-11908246D02*
X19826611Y-11889198D01*
X19826611Y-11889198D02*
X19836135Y-11879674D01*
X19836135Y-11879674D02*
X19855182Y-11870150D01*
X19855182Y-11870150D02*
X19893277Y-11870150D01*
X19893277Y-11870150D02*
X19912325Y-11879674D01*
X19988516Y-12079674D02*
X19998039Y-12070150D01*
X19998039Y-12070150D02*
X20017087Y-12041579D01*
X20017087Y-12041579D02*
X20026611Y-12022531D01*
X20026611Y-12022531D02*
X20036135Y-11993960D01*
X20036135Y-11993960D02*
X20045658Y-11946341D01*
X20045658Y-11946341D02*
X20045658Y-11908246D01*
X20045658Y-11908246D02*
X20036135Y-11860627D01*
X20036135Y-11860627D02*
X20026611Y-11832055D01*
X20026611Y-11832055D02*
X20017087Y-11813008D01*
X20017087Y-11813008D02*
X19998039Y-11784436D01*
X19998039Y-11784436D02*
X19988516Y-11774912D01*
M02*
