%TF.GenerationSoftware,KiCad,Pcbnew,7.0.11-7.0.11~ubuntu22.04.1*%
%TF.CreationDate,2024-10-26T23:49:30+02:00*%
%TF.ProjectId,C6-40-Flash-test,43362d34-302d-4466-9c61-73682d746573,1.0*%
%TF.SameCoordinates,Original*%
%TF.FileFunction,Legend,Bot*%
%TF.FilePolarity,Positive*%
%FSLAX46Y46*%
G04 Gerber Fmt 4.6, Leading zero omitted, Abs format (unit mm)*
G04 Created by KiCad (PCBNEW 7.0.11-7.0.11~ubuntu22.04.1) date 2024-10-26 23:49:30*
%MOMM*%
%LPD*%
G01*
G04 APERTURE LIST*
%ADD10C,0.004000*%
%ADD11C,0.100000*%
%ADD12C,0.254000*%
%ADD13C,0.200000*%
G04 APERTURE END LIST*
D10*
X133055400Y-102000000D02*
X133055400Y-102721004D01*
X135544600Y-102721004D02*
X135544600Y-103104036D01*
X132672368Y-104157313D02*
X132672368Y-101552645D01*
X133055400Y-107871251D02*
X133055400Y-108605819D01*
X133055400Y-102721004D02*
X135544600Y-102721004D01*
X134896900Y-108988851D02*
X132672368Y-108988851D01*
X134896900Y-108605819D02*
X134896900Y-108988851D01*
X132672368Y-105049819D02*
X134043968Y-105049819D01*
X134043968Y-106601251D02*
X132672368Y-106601251D01*
X135544600Y-103104036D02*
X133055400Y-103104036D01*
X133055400Y-108605819D02*
X134896900Y-108605819D01*
X133055400Y-105432851D02*
X133055400Y-106218219D01*
X134427000Y-106218219D02*
X134427000Y-107871251D01*
X135544600Y-102000000D02*
X133055400Y-102000000D01*
X134427000Y-103774281D02*
X134427000Y-105432851D01*
X133055400Y-103774281D02*
X134427000Y-103774281D01*
X134427000Y-105432851D02*
X133055400Y-105432851D01*
X134427000Y-107871251D02*
X133055400Y-107871251D01*
X134043968Y-104157313D02*
X132672368Y-104157313D01*
X133055400Y-106218219D02*
X134427000Y-106218219D01*
X132672368Y-108988851D02*
X132672368Y-107488219D01*
X132672368Y-101552645D02*
X135544600Y-101552645D01*
X133055400Y-103104036D02*
X133055400Y-103774281D01*
X134043968Y-107488219D02*
X134043968Y-106601251D01*
X134043968Y-105049819D02*
X134043968Y-104157313D01*
X132672368Y-106601251D02*
X132672368Y-105049819D01*
X135544600Y-101552645D02*
X135544600Y-102000000D01*
X132672368Y-107488219D02*
X134043968Y-107488219D01*
D11*
X136405639Y-84022419D02*
X136310401Y-84022419D01*
X136310401Y-84022419D02*
X136215163Y-84070038D01*
X136215163Y-84070038D02*
X136167544Y-84117657D01*
X136167544Y-84117657D02*
X136119925Y-84212895D01*
X136119925Y-84212895D02*
X136072306Y-84403371D01*
X136072306Y-84403371D02*
X136072306Y-84641466D01*
X136072306Y-84641466D02*
X136119925Y-84831942D01*
X136119925Y-84831942D02*
X136167544Y-84927180D01*
X136167544Y-84927180D02*
X136215163Y-84974800D01*
X136215163Y-84974800D02*
X136310401Y-85022419D01*
X136310401Y-85022419D02*
X136405639Y-85022419D01*
X136405639Y-85022419D02*
X136500877Y-84974800D01*
X136500877Y-84974800D02*
X136548496Y-84927180D01*
X136548496Y-84927180D02*
X136596115Y-84831942D01*
X136596115Y-84831942D02*
X136643734Y-84641466D01*
X136643734Y-84641466D02*
X136643734Y-84403371D01*
X136643734Y-84403371D02*
X136596115Y-84212895D01*
X136596115Y-84212895D02*
X136548496Y-84117657D01*
X136548496Y-84117657D02*
X136500877Y-84070038D01*
X136500877Y-84070038D02*
X136405639Y-84022419D01*
X149393734Y-105817657D02*
X149346115Y-105770038D01*
X149346115Y-105770038D02*
X149250877Y-105722419D01*
X149250877Y-105722419D02*
X149012782Y-105722419D01*
X149012782Y-105722419D02*
X148917544Y-105770038D01*
X148917544Y-105770038D02*
X148869925Y-105817657D01*
X148869925Y-105817657D02*
X148822306Y-105912895D01*
X148822306Y-105912895D02*
X148822306Y-106008133D01*
X148822306Y-106008133D02*
X148869925Y-106150990D01*
X148869925Y-106150990D02*
X149441353Y-106722419D01*
X149441353Y-106722419D02*
X148822306Y-106722419D01*
X148393734Y-106055752D02*
X148393734Y-106722419D01*
X148393734Y-106150990D02*
X148346115Y-106103371D01*
X148346115Y-106103371D02*
X148250877Y-106055752D01*
X148250877Y-106055752D02*
X148108020Y-106055752D01*
X148108020Y-106055752D02*
X148012782Y-106103371D01*
X148012782Y-106103371D02*
X147965163Y-106198609D01*
X147965163Y-106198609D02*
X147965163Y-106722419D01*
X147060401Y-106722419D02*
X147060401Y-105722419D01*
X147060401Y-106674800D02*
X147155639Y-106722419D01*
X147155639Y-106722419D02*
X147346115Y-106722419D01*
X147346115Y-106722419D02*
X147441353Y-106674800D01*
X147441353Y-106674800D02*
X147488972Y-106627180D01*
X147488972Y-106627180D02*
X147536591Y-106531942D01*
X147536591Y-106531942D02*
X147536591Y-106246228D01*
X147536591Y-106246228D02*
X147488972Y-106150990D01*
X147488972Y-106150990D02*
X147441353Y-106103371D01*
X147441353Y-106103371D02*
X147346115Y-106055752D01*
X147346115Y-106055752D02*
X147155639Y-106055752D01*
X147155639Y-106055752D02*
X147060401Y-106103371D01*
X145488972Y-106198609D02*
X145822305Y-106198609D01*
X145822305Y-106722419D02*
X145822305Y-105722419D01*
X145822305Y-105722419D02*
X145346115Y-105722419D01*
X144822305Y-106722419D02*
X144917543Y-106674800D01*
X144917543Y-106674800D02*
X144965162Y-106579561D01*
X144965162Y-106579561D02*
X144965162Y-105722419D01*
X144012781Y-106722419D02*
X144012781Y-106198609D01*
X144012781Y-106198609D02*
X144060400Y-106103371D01*
X144060400Y-106103371D02*
X144155638Y-106055752D01*
X144155638Y-106055752D02*
X144346114Y-106055752D01*
X144346114Y-106055752D02*
X144441352Y-106103371D01*
X144012781Y-106674800D02*
X144108019Y-106722419D01*
X144108019Y-106722419D02*
X144346114Y-106722419D01*
X144346114Y-106722419D02*
X144441352Y-106674800D01*
X144441352Y-106674800D02*
X144488971Y-106579561D01*
X144488971Y-106579561D02*
X144488971Y-106484323D01*
X144488971Y-106484323D02*
X144441352Y-106389085D01*
X144441352Y-106389085D02*
X144346114Y-106341466D01*
X144346114Y-106341466D02*
X144108019Y-106341466D01*
X144108019Y-106341466D02*
X144012781Y-106293847D01*
X143584209Y-106674800D02*
X143488971Y-106722419D01*
X143488971Y-106722419D02*
X143298495Y-106722419D01*
X143298495Y-106722419D02*
X143203257Y-106674800D01*
X143203257Y-106674800D02*
X143155638Y-106579561D01*
X143155638Y-106579561D02*
X143155638Y-106531942D01*
X143155638Y-106531942D02*
X143203257Y-106436704D01*
X143203257Y-106436704D02*
X143298495Y-106389085D01*
X143298495Y-106389085D02*
X143441352Y-106389085D01*
X143441352Y-106389085D02*
X143536590Y-106341466D01*
X143536590Y-106341466D02*
X143584209Y-106246228D01*
X143584209Y-106246228D02*
X143584209Y-106198609D01*
X143584209Y-106198609D02*
X143536590Y-106103371D01*
X143536590Y-106103371D02*
X143441352Y-106055752D01*
X143441352Y-106055752D02*
X143298495Y-106055752D01*
X143298495Y-106055752D02*
X143203257Y-106103371D01*
X142727066Y-106722419D02*
X142727066Y-105722419D01*
X142298495Y-106722419D02*
X142298495Y-106198609D01*
X142298495Y-106198609D02*
X142346114Y-106103371D01*
X142346114Y-106103371D02*
X142441352Y-106055752D01*
X142441352Y-106055752D02*
X142584209Y-106055752D01*
X142584209Y-106055752D02*
X142679447Y-106103371D01*
X142679447Y-106103371D02*
X142727066Y-106150990D01*
X148469925Y-89296895D02*
X147974687Y-89296895D01*
X147974687Y-89296895D02*
X148241353Y-89601657D01*
X148241353Y-89601657D02*
X148127068Y-89601657D01*
X148127068Y-89601657D02*
X148050877Y-89639752D01*
X148050877Y-89639752D02*
X148012782Y-89677847D01*
X148012782Y-89677847D02*
X147974687Y-89754038D01*
X147974687Y-89754038D02*
X147974687Y-89944514D01*
X147974687Y-89944514D02*
X148012782Y-90020704D01*
X148012782Y-90020704D02*
X148050877Y-90058800D01*
X148050877Y-90058800D02*
X148127068Y-90096895D01*
X148127068Y-90096895D02*
X148355639Y-90096895D01*
X148355639Y-90096895D02*
X148431830Y-90058800D01*
X148431830Y-90058800D02*
X148469925Y-90020704D01*
X147746115Y-89296895D02*
X147479448Y-90096895D01*
X147479448Y-90096895D02*
X147212782Y-89296895D01*
X147022306Y-89296895D02*
X146527068Y-89296895D01*
X146527068Y-89296895D02*
X146793734Y-89601657D01*
X146793734Y-89601657D02*
X146679449Y-89601657D01*
X146679449Y-89601657D02*
X146603258Y-89639752D01*
X146603258Y-89639752D02*
X146565163Y-89677847D01*
X146565163Y-89677847D02*
X146527068Y-89754038D01*
X146527068Y-89754038D02*
X146527068Y-89944514D01*
X146527068Y-89944514D02*
X146565163Y-90020704D01*
X146565163Y-90020704D02*
X146603258Y-90058800D01*
X146603258Y-90058800D02*
X146679449Y-90096895D01*
X146679449Y-90096895D02*
X146908020Y-90096895D01*
X146908020Y-90096895D02*
X146984211Y-90058800D01*
X146984211Y-90058800D02*
X147022306Y-90020704D01*
X148141353Y-99322419D02*
X147474687Y-99322419D01*
X147474687Y-99322419D02*
X147903258Y-100322419D01*
X136167544Y-94505752D02*
X136167544Y-95172419D01*
X136405639Y-94124800D02*
X136643734Y-94839085D01*
X136643734Y-94839085D02*
X136024687Y-94839085D01*
X147562782Y-84096895D02*
X147943734Y-84096895D01*
X147943734Y-84096895D02*
X147981830Y-84477847D01*
X147981830Y-84477847D02*
X147943734Y-84439752D01*
X147943734Y-84439752D02*
X147867544Y-84401657D01*
X147867544Y-84401657D02*
X147677068Y-84401657D01*
X147677068Y-84401657D02*
X147600877Y-84439752D01*
X147600877Y-84439752D02*
X147562782Y-84477847D01*
X147562782Y-84477847D02*
X147524687Y-84554038D01*
X147524687Y-84554038D02*
X147524687Y-84744514D01*
X147524687Y-84744514D02*
X147562782Y-84820704D01*
X147562782Y-84820704D02*
X147600877Y-84858800D01*
X147600877Y-84858800D02*
X147677068Y-84896895D01*
X147677068Y-84896895D02*
X147867544Y-84896895D01*
X147867544Y-84896895D02*
X147943734Y-84858800D01*
X147943734Y-84858800D02*
X147981830Y-84820704D01*
X147296115Y-84096895D02*
X147029448Y-84896895D01*
X147029448Y-84896895D02*
X146762782Y-84096895D01*
X136072306Y-87522419D02*
X136643734Y-87522419D01*
X136358020Y-87522419D02*
X136358020Y-86522419D01*
X136358020Y-86522419D02*
X136453258Y-86665276D01*
X136453258Y-86665276D02*
X136548496Y-86760514D01*
X136548496Y-86760514D02*
X136643734Y-86808133D01*
X136167544Y-99272419D02*
X136358020Y-99272419D01*
X136358020Y-99272419D02*
X136453258Y-99320038D01*
X136453258Y-99320038D02*
X136500877Y-99367657D01*
X136500877Y-99367657D02*
X136596115Y-99510514D01*
X136596115Y-99510514D02*
X136643734Y-99700990D01*
X136643734Y-99700990D02*
X136643734Y-100081942D01*
X136643734Y-100081942D02*
X136596115Y-100177180D01*
X136596115Y-100177180D02*
X136548496Y-100224800D01*
X136548496Y-100224800D02*
X136453258Y-100272419D01*
X136453258Y-100272419D02*
X136262782Y-100272419D01*
X136262782Y-100272419D02*
X136167544Y-100224800D01*
X136167544Y-100224800D02*
X136119925Y-100177180D01*
X136119925Y-100177180D02*
X136072306Y-100081942D01*
X136072306Y-100081942D02*
X136072306Y-99843847D01*
X136072306Y-99843847D02*
X136119925Y-99748609D01*
X136119925Y-99748609D02*
X136167544Y-99700990D01*
X136167544Y-99700990D02*
X136262782Y-99653371D01*
X136262782Y-99653371D02*
X136453258Y-99653371D01*
X136453258Y-99653371D02*
X136548496Y-99700990D01*
X136548496Y-99700990D02*
X136596115Y-99748609D01*
X136596115Y-99748609D02*
X136643734Y-99843847D01*
X136119925Y-96522419D02*
X136596115Y-96522419D01*
X136596115Y-96522419D02*
X136643734Y-96998609D01*
X136643734Y-96998609D02*
X136596115Y-96950990D01*
X136596115Y-96950990D02*
X136500877Y-96903371D01*
X136500877Y-96903371D02*
X136262782Y-96903371D01*
X136262782Y-96903371D02*
X136167544Y-96950990D01*
X136167544Y-96950990D02*
X136119925Y-96998609D01*
X136119925Y-96998609D02*
X136072306Y-97093847D01*
X136072306Y-97093847D02*
X136072306Y-97331942D01*
X136072306Y-97331942D02*
X136119925Y-97427180D01*
X136119925Y-97427180D02*
X136167544Y-97474800D01*
X136167544Y-97474800D02*
X136262782Y-97522419D01*
X136262782Y-97522419D02*
X136500877Y-97522419D01*
X136500877Y-97522419D02*
X136596115Y-97474800D01*
X136596115Y-97474800D02*
X136643734Y-97427180D01*
X148515009Y-87724687D02*
X148553104Y-87800877D01*
X148553104Y-87800877D02*
X148553104Y-87915163D01*
X148553104Y-87915163D02*
X148515009Y-88029449D01*
X148515009Y-88029449D02*
X148438819Y-88105639D01*
X148438819Y-88105639D02*
X148362628Y-88143734D01*
X148362628Y-88143734D02*
X148210247Y-88181830D01*
X148210247Y-88181830D02*
X148095961Y-88181830D01*
X148095961Y-88181830D02*
X147943580Y-88143734D01*
X147943580Y-88143734D02*
X147867390Y-88105639D01*
X147867390Y-88105639D02*
X147791200Y-88029449D01*
X147791200Y-88029449D02*
X147753104Y-87915163D01*
X147753104Y-87915163D02*
X147753104Y-87838972D01*
X147753104Y-87838972D02*
X147791200Y-87724687D01*
X147791200Y-87724687D02*
X147829295Y-87686591D01*
X147829295Y-87686591D02*
X148095961Y-87686591D01*
X148095961Y-87686591D02*
X148095961Y-87838972D01*
X147753104Y-87343734D02*
X148553104Y-87343734D01*
X148553104Y-87343734D02*
X147753104Y-86886591D01*
X147753104Y-86886591D02*
X148553104Y-86886591D01*
X147753104Y-86505639D02*
X148553104Y-86505639D01*
X148553104Y-86505639D02*
X148553104Y-86315163D01*
X148553104Y-86315163D02*
X148515009Y-86200877D01*
X148515009Y-86200877D02*
X148438819Y-86124687D01*
X148438819Y-86124687D02*
X148362628Y-86086592D01*
X148362628Y-86086592D02*
X148210247Y-86048496D01*
X148210247Y-86048496D02*
X148095961Y-86048496D01*
X148095961Y-86048496D02*
X147943580Y-86086592D01*
X147943580Y-86086592D02*
X147867390Y-86124687D01*
X147867390Y-86124687D02*
X147791200Y-86200877D01*
X147791200Y-86200877D02*
X147753104Y-86315163D01*
X147753104Y-86315163D02*
X147753104Y-86505639D01*
X136643734Y-89167657D02*
X136596115Y-89120038D01*
X136596115Y-89120038D02*
X136500877Y-89072419D01*
X136500877Y-89072419D02*
X136262782Y-89072419D01*
X136262782Y-89072419D02*
X136167544Y-89120038D01*
X136167544Y-89120038D02*
X136119925Y-89167657D01*
X136119925Y-89167657D02*
X136072306Y-89262895D01*
X136072306Y-89262895D02*
X136072306Y-89358133D01*
X136072306Y-89358133D02*
X136119925Y-89500990D01*
X136119925Y-89500990D02*
X136691353Y-90072419D01*
X136691353Y-90072419D02*
X136072306Y-90072419D01*
X136691353Y-91522419D02*
X136072306Y-91522419D01*
X136072306Y-91522419D02*
X136405639Y-91903371D01*
X136405639Y-91903371D02*
X136262782Y-91903371D01*
X136262782Y-91903371D02*
X136167544Y-91950990D01*
X136167544Y-91950990D02*
X136119925Y-91998609D01*
X136119925Y-91998609D02*
X136072306Y-92093847D01*
X136072306Y-92093847D02*
X136072306Y-92331942D01*
X136072306Y-92331942D02*
X136119925Y-92427180D01*
X136119925Y-92427180D02*
X136167544Y-92474800D01*
X136167544Y-92474800D02*
X136262782Y-92522419D01*
X136262782Y-92522419D02*
X136548496Y-92522419D01*
X136548496Y-92522419D02*
X136643734Y-92474800D01*
X136643734Y-92474800D02*
X136691353Y-92427180D01*
X148024687Y-95046895D02*
X148481830Y-95046895D01*
X148253258Y-95046895D02*
X148253258Y-94246895D01*
X148253258Y-94246895D02*
X148329449Y-94361180D01*
X148329449Y-94361180D02*
X148405639Y-94437371D01*
X148405639Y-94437371D02*
X148481830Y-94475466D01*
X147758020Y-94246895D02*
X147224686Y-94246895D01*
X147224686Y-94246895D02*
X147567544Y-95046895D01*
X148024687Y-97746895D02*
X148481830Y-97746895D01*
X148253258Y-97746895D02*
X148253258Y-96946895D01*
X148253258Y-96946895D02*
X148329449Y-97061180D01*
X148329449Y-97061180D02*
X148405639Y-97137371D01*
X148405639Y-97137371D02*
X148481830Y-97175466D01*
X147338972Y-96946895D02*
X147491353Y-96946895D01*
X147491353Y-96946895D02*
X147567544Y-96984990D01*
X147567544Y-96984990D02*
X147605639Y-97023085D01*
X147605639Y-97023085D02*
X147681829Y-97137371D01*
X147681829Y-97137371D02*
X147719925Y-97289752D01*
X147719925Y-97289752D02*
X147719925Y-97594514D01*
X147719925Y-97594514D02*
X147681829Y-97670704D01*
X147681829Y-97670704D02*
X147643734Y-97708800D01*
X147643734Y-97708800D02*
X147567544Y-97746895D01*
X147567544Y-97746895D02*
X147415163Y-97746895D01*
X147415163Y-97746895D02*
X147338972Y-97708800D01*
X147338972Y-97708800D02*
X147300877Y-97670704D01*
X147300877Y-97670704D02*
X147262782Y-97594514D01*
X147262782Y-97594514D02*
X147262782Y-97404038D01*
X147262782Y-97404038D02*
X147300877Y-97327847D01*
X147300877Y-97327847D02*
X147338972Y-97289752D01*
X147338972Y-97289752D02*
X147415163Y-97251657D01*
X147415163Y-97251657D02*
X147567544Y-97251657D01*
X147567544Y-97251657D02*
X147643734Y-97289752D01*
X147643734Y-97289752D02*
X147681829Y-97327847D01*
X147681829Y-97327847D02*
X147719925Y-97404038D01*
D12*
X145419762Y-110289318D02*
X145419762Y-109019318D01*
X144089285Y-110168365D02*
X144149761Y-110228842D01*
X144149761Y-110228842D02*
X144331190Y-110289318D01*
X144331190Y-110289318D02*
X144452142Y-110289318D01*
X144452142Y-110289318D02*
X144633571Y-110228842D01*
X144633571Y-110228842D02*
X144754523Y-110107889D01*
X144754523Y-110107889D02*
X144815000Y-109986937D01*
X144815000Y-109986937D02*
X144875476Y-109745032D01*
X144875476Y-109745032D02*
X144875476Y-109563603D01*
X144875476Y-109563603D02*
X144815000Y-109321699D01*
X144815000Y-109321699D02*
X144754523Y-109200746D01*
X144754523Y-109200746D02*
X144633571Y-109079794D01*
X144633571Y-109079794D02*
X144452142Y-109019318D01*
X144452142Y-109019318D02*
X144331190Y-109019318D01*
X144331190Y-109019318D02*
X144149761Y-109079794D01*
X144149761Y-109079794D02*
X144089285Y-109140270D01*
X143605476Y-109140270D02*
X143545000Y-109079794D01*
X143545000Y-109079794D02*
X143424047Y-109019318D01*
X143424047Y-109019318D02*
X143121666Y-109019318D01*
X143121666Y-109019318D02*
X143000714Y-109079794D01*
X143000714Y-109079794D02*
X142940238Y-109140270D01*
X142940238Y-109140270D02*
X142879761Y-109261222D01*
X142879761Y-109261222D02*
X142879761Y-109382175D01*
X142879761Y-109382175D02*
X142940238Y-109563603D01*
X142940238Y-109563603D02*
X143665952Y-110289318D01*
X143665952Y-110289318D02*
X142879761Y-110289318D01*
D13*
%TO.C,IC2*%
X139755000Y-112295000D02*
X141405000Y-112295000D01*
X141755000Y-107100000D02*
X141755000Y-112330000D01*
X141755000Y-112330000D02*
X146605000Y-112330000D01*
X146605000Y-107100000D02*
X141755000Y-107100000D01*
X146605000Y-112330000D02*
X146605000Y-107100000D01*
%TD*%
M02*
