%TF.GenerationSoftware,KiCad,Pcbnew,7.0.11-7.0.11~ubuntu22.04.1*%
%TF.CreationDate,2024-11-26T11:44:11+01:00*%
%TF.ProjectId,H-C6-ulp,482d4336-2d75-46c7-902e-6b696361645f,rev?*%
%TF.SameCoordinates,Original*%
%TF.FileFunction,Copper,L2,Inr*%
%TF.FilePolarity,Positive*%
%FSLAX46Y46*%
G04 Gerber Fmt 4.6, Leading zero omitted, Abs format (unit mm)*
G04 Created by KiCad (PCBNEW 7.0.11-7.0.11~ubuntu22.04.1) date 2024-11-26 11:44:11*
%MOMM*%
%LPD*%
G01*
G04 APERTURE LIST*
%TA.AperFunction,ComponentPad*%
%ADD10O,1.000000X2.100000*%
%TD*%
%TA.AperFunction,ComponentPad*%
%ADD11O,1.000000X1.600000*%
%TD*%
%TA.AperFunction,ComponentPad*%
%ADD12R,1.700000X1.700000*%
%TD*%
%TA.AperFunction,ComponentPad*%
%ADD13O,1.700000X1.700000*%
%TD*%
%TA.AperFunction,ComponentPad*%
%ADD14C,1.000000*%
%TD*%
%TA.AperFunction,ViaPad*%
%ADD15C,0.600000*%
%TD*%
%TA.AperFunction,ViaPad*%
%ADD16C,0.450000*%
%TD*%
%TA.AperFunction,ViaPad*%
%ADD17C,0.800000*%
%TD*%
%TA.AperFunction,Conductor*%
%ADD18C,0.200000*%
%TD*%
G04 APERTURE END LIST*
D10*
%TO.N,GND*%
%TO.C,J1*%
X127595000Y-74090000D03*
D11*
X127595000Y-78270000D03*
D10*
X136235000Y-74090000D03*
D11*
X136235000Y-78270000D03*
%TD*%
D12*
%TO.N,GND*%
%TO.C,J5*%
X142590000Y-49770000D03*
D13*
%TO.N,VDD33*%
X145130000Y-49770000D03*
%TO.N,/SCL*%
X147670000Y-49770000D03*
%TO.N,/SDA*%
X150210000Y-49770000D03*
%TD*%
D14*
%TO.N,unconnected-(U6-Pad4)*%
%TO.C,U6*%
X116450000Y-69990000D03*
%TO.N,unconnected-(U6-Pad5)*%
X116450000Y-73790000D03*
%TD*%
%TO.N,unconnected-(U4-Pad4)*%
%TO.C,U4*%
X116450000Y-53750000D03*
%TO.N,unconnected-(U4-Pad5)*%
X116450000Y-57550000D03*
%TD*%
%TO.N,unconnected-(U5-Pad4)*%
%TO.C,U5*%
X166980000Y-74500000D03*
%TO.N,unconnected-(U5-Pad5)*%
X166980000Y-70700000D03*
%TD*%
D15*
%TO.N,GND*%
X144975000Y-74421428D03*
X124500000Y-58150000D03*
X134100000Y-66700000D03*
X138750000Y-64000000D03*
X131910000Y-69130000D03*
D16*
X142675000Y-72450000D03*
D15*
X148775000Y-72750000D03*
X128100000Y-69720000D03*
X132410000Y-69620000D03*
X121050000Y-66450000D03*
X144975000Y-77185712D03*
X147900000Y-58850000D03*
X122350000Y-66550000D03*
X144975000Y-76264284D03*
X144975000Y-79028568D03*
X129950000Y-54200000D03*
X144975000Y-78107140D03*
D16*
X142675000Y-71818750D03*
D15*
X155600000Y-75500000D03*
X151850000Y-52850000D03*
D16*
X142675000Y-69925000D03*
D15*
X116750000Y-71850000D03*
X133410000Y-70580000D03*
D16*
X142675000Y-71187500D03*
D15*
X119500000Y-56650000D03*
X120050000Y-56650000D03*
X125570000Y-65850000D03*
X135740000Y-70740000D03*
D16*
X142675000Y-70556250D03*
D15*
X138750000Y-63050000D03*
D16*
X139075000Y-51725000D03*
D15*
X156250000Y-66250000D03*
X156100000Y-61300000D03*
X162975000Y-51325000D03*
X139250000Y-71590000D03*
X144975000Y-73500000D03*
X121150000Y-71850000D03*
X150300000Y-69350000D03*
X150350000Y-66875000D03*
X157125000Y-74500000D03*
D16*
X134520000Y-70780000D03*
D15*
X138750000Y-62220000D03*
X132910000Y-70100000D03*
X135815000Y-72320000D03*
X117750000Y-58500000D03*
X131130000Y-68030000D03*
X166990000Y-72510000D03*
X144975000Y-75342856D03*
X131410000Y-68650000D03*
X125248959Y-52486484D03*
X153680000Y-75600000D03*
X153675000Y-51875000D03*
D16*
X142675000Y-69225000D03*
D15*
X127617525Y-71880000D03*
X136240000Y-70250000D03*
%TO.N,ENABLE*%
X142800000Y-66800000D03*
X124950000Y-70750000D03*
%TO.N,VDD33*%
X123750000Y-53450000D03*
X144200000Y-67980000D03*
X138150000Y-67850000D03*
X153375000Y-65375000D03*
X118113679Y-67163679D03*
X163550000Y-70800000D03*
X136200000Y-66200000D03*
X154547702Y-51227298D03*
X141800000Y-65950000D03*
X126450000Y-52487525D03*
X141871293Y-57896293D03*
X161150000Y-66850000D03*
D16*
X139425000Y-50125000D03*
D15*
X134491404Y-58996490D03*
X142675000Y-54000000D03*
X145100000Y-59650000D03*
X152600000Y-65375000D03*
D17*
X132650000Y-53000000D03*
D15*
%TO.N,Net-(D2-A)*%
X146800000Y-68700000D03*
X146725000Y-57675000D03*
%TO.N,VDD_RTC*%
X133900000Y-55600000D03*
%TO.N,VBUS*%
X126025000Y-66750000D03*
X129577298Y-63727298D03*
%TO.N,SW19*%
X117750000Y-69150000D03*
X132800000Y-62450000D03*
D16*
%TO.N,/EPD_RST*%
X155170000Y-60910000D03*
D15*
X164500000Y-71600000D03*
%TO.N,/EPD_BUSY*%
X145910000Y-61950000D03*
X159000000Y-61500000D03*
%TO.N,unconnected-(J2-Pad19)*%
X158850000Y-60350000D03*
%TO.N,/RTC_EVI*%
X137750000Y-55850000D03*
X136300000Y-57400000D03*
D16*
%TO.N,/RTC_SQW*%
X136761103Y-50877219D03*
D15*
X133400000Y-63650000D03*
%TO.N,Net-(U1-GPIO8)*%
X141054720Y-59654720D03*
D16*
X143400000Y-56850000D03*
%TO.N,/SDA*%
X141755913Y-58930913D03*
X144775000Y-55675000D03*
D15*
%TO.N,/RTC_INT*%
X135550000Y-57350000D03*
X137200000Y-55250000D03*
D16*
%TO.N,/IO_21*%
X132000000Y-64750000D03*
D15*
X123300000Y-75400000D03*
D16*
%TO.N,/IO_22*%
X132701922Y-65034613D03*
D15*
X123050000Y-77800000D03*
%TO.N,/IO_23*%
X133000000Y-65750000D03*
X124850000Y-77800000D03*
%TO.N,/IO_TX*%
X132050000Y-58450000D03*
X132150000Y-56050000D03*
%TO.N,/IO_RX*%
X131050000Y-56000000D03*
X132050000Y-59650000D03*
D16*
%TO.N,Net-(J1-CC2)*%
X133460000Y-71910000D03*
D15*
X125300000Y-73050000D03*
%TO.N,BOOT*%
X119447702Y-65197702D03*
X139200000Y-57850000D03*
%TO.N,SW18*%
X120200000Y-52500000D03*
X132150000Y-61700000D03*
%TD*%
D18*
%TO.N,Net-(D2-A)*%
X146800000Y-57750000D02*
X146725000Y-57675000D01*
X146800000Y-68700000D02*
X146800000Y-57750000D01*
%TD*%
%TA.AperFunction,Conductor*%
%TO.N,GND*%
G36*
X168042539Y-48020185D02*
G01*
X168088294Y-48072989D01*
X168099500Y-48124500D01*
X168099500Y-54975500D01*
X168079815Y-55042539D01*
X168027011Y-55088294D01*
X167975500Y-55099500D01*
X163541275Y-55099500D01*
X163521879Y-55097973D01*
X163500000Y-55094508D01*
X163499998Y-55094508D01*
X163468481Y-55099500D01*
X163468480Y-55099500D01*
X163374699Y-55114352D01*
X163374698Y-55114352D01*
X163299337Y-55152751D01*
X163261658Y-55171950D01*
X163261657Y-55171951D01*
X163261652Y-55171954D01*
X163171954Y-55261652D01*
X163171951Y-55261657D01*
X163171950Y-55261658D01*
X163170435Y-55264632D01*
X163114352Y-55374698D01*
X163114352Y-55374699D01*
X163094508Y-55499996D01*
X163094508Y-55500000D01*
X163097973Y-55521876D01*
X163099500Y-55541275D01*
X163099500Y-69558724D01*
X163097973Y-69578123D01*
X163094508Y-69599999D01*
X163094508Y-69600000D01*
X163098736Y-69626693D01*
X163098739Y-69626722D01*
X163114352Y-69725301D01*
X163114354Y-69725304D01*
X163171950Y-69838342D01*
X163171952Y-69838344D01*
X163171954Y-69838347D01*
X163217860Y-69884253D01*
X163251345Y-69945576D01*
X163246361Y-70015268D01*
X163204489Y-70071201D01*
X163196152Y-70076927D01*
X163047740Y-70170182D01*
X163047737Y-70170184D01*
X162920184Y-70297737D01*
X162824211Y-70450476D01*
X162764631Y-70620745D01*
X162764630Y-70620750D01*
X162744435Y-70799996D01*
X162744435Y-70800003D01*
X162764630Y-70979249D01*
X162764631Y-70979254D01*
X162824211Y-71149523D01*
X162892710Y-71258538D01*
X162920184Y-71302262D01*
X163047738Y-71429816D01*
X163200478Y-71525789D01*
X163229411Y-71535913D01*
X163370745Y-71585368D01*
X163370750Y-71585369D01*
X163549996Y-71605565D01*
X163550000Y-71605565D01*
X163550001Y-71605565D01*
X163559678Y-71604474D01*
X163570021Y-71603309D01*
X163638843Y-71615363D01*
X163690223Y-71662711D01*
X163707126Y-71712645D01*
X163714630Y-71779250D01*
X163714631Y-71779254D01*
X163774211Y-71949523D01*
X163851455Y-72072455D01*
X163870184Y-72102262D01*
X163997738Y-72229816D01*
X164088080Y-72286582D01*
X164147966Y-72324211D01*
X164150478Y-72325789D01*
X164263120Y-72365204D01*
X164320745Y-72385368D01*
X164320750Y-72385369D01*
X164499996Y-72405565D01*
X164500000Y-72405565D01*
X164500004Y-72405565D01*
X164679249Y-72385369D01*
X164679252Y-72385368D01*
X164679255Y-72385368D01*
X164849522Y-72325789D01*
X165002262Y-72229816D01*
X165129816Y-72102262D01*
X165225789Y-71949522D01*
X165285368Y-71779255D01*
X165295873Y-71686024D01*
X165305565Y-71600003D01*
X165305565Y-71599996D01*
X165285369Y-71420750D01*
X165285368Y-71420745D01*
X165243909Y-71302262D01*
X165225789Y-71250478D01*
X165129816Y-71097738D01*
X165002262Y-70970184D01*
X164937124Y-70929255D01*
X164849523Y-70874211D01*
X164679254Y-70814631D01*
X164679249Y-70814630D01*
X164500004Y-70794435D01*
X164500001Y-70794435D01*
X164500000Y-70794435D01*
X164495622Y-70794928D01*
X164479973Y-70796691D01*
X164411151Y-70784634D01*
X164359773Y-70737283D01*
X164342873Y-70687353D01*
X164335369Y-70620749D01*
X164335368Y-70620745D01*
X164310102Y-70548538D01*
X164275789Y-70450478D01*
X164179816Y-70297738D01*
X164094259Y-70212181D01*
X164060774Y-70150858D01*
X164065758Y-70081166D01*
X164107630Y-70025233D01*
X164173094Y-70000816D01*
X164181940Y-70000500D01*
X166012554Y-70000500D01*
X166079593Y-70020185D01*
X166125348Y-70072989D01*
X166135292Y-70142147D01*
X166121912Y-70182953D01*
X166051188Y-70315267D01*
X165993975Y-70503870D01*
X165974659Y-70700000D01*
X165993975Y-70896129D01*
X166051188Y-71084733D01*
X166144086Y-71258532D01*
X166144090Y-71258539D01*
X166269116Y-71410883D01*
X166421460Y-71535909D01*
X166421467Y-71535913D01*
X166595266Y-71628811D01*
X166595269Y-71628811D01*
X166595273Y-71628814D01*
X166783868Y-71686024D01*
X166980000Y-71705341D01*
X167176132Y-71686024D01*
X167364727Y-71628814D01*
X167412444Y-71603309D01*
X167538532Y-71535913D01*
X167538538Y-71535910D01*
X167690883Y-71410883D01*
X167815910Y-71258538D01*
X167826946Y-71237889D01*
X167866142Y-71164562D01*
X167915104Y-71114718D01*
X167983242Y-71099257D01*
X168048921Y-71123089D01*
X168091290Y-71178646D01*
X168099500Y-71223015D01*
X168099500Y-73976984D01*
X168079815Y-74044023D01*
X168027011Y-74089778D01*
X167957853Y-74099722D01*
X167894297Y-74070697D01*
X167866142Y-74035438D01*
X167815911Y-73941463D01*
X167815909Y-73941460D01*
X167690883Y-73789116D01*
X167538539Y-73664090D01*
X167538532Y-73664086D01*
X167364733Y-73571188D01*
X167364727Y-73571186D01*
X167176132Y-73513976D01*
X167176129Y-73513975D01*
X166980000Y-73494659D01*
X166783870Y-73513975D01*
X166595266Y-73571188D01*
X166421467Y-73664086D01*
X166421460Y-73664090D01*
X166269116Y-73789116D01*
X166144090Y-73941460D01*
X166144086Y-73941467D01*
X166051188Y-74115266D01*
X165993975Y-74303870D01*
X165974659Y-74500000D01*
X165993975Y-74696129D01*
X166051188Y-74884733D01*
X166144086Y-75058532D01*
X166144090Y-75058539D01*
X166269116Y-75210883D01*
X166421460Y-75335909D01*
X166421467Y-75335913D01*
X166595266Y-75428811D01*
X166595269Y-75428811D01*
X166595273Y-75428814D01*
X166783868Y-75486024D01*
X166980000Y-75505341D01*
X167176132Y-75486024D01*
X167364727Y-75428814D01*
X167538538Y-75335910D01*
X167690883Y-75210883D01*
X167815910Y-75058538D01*
X167830923Y-75030450D01*
X167866142Y-74964562D01*
X167915104Y-74914718D01*
X167983242Y-74899257D01*
X168048921Y-74923089D01*
X168091290Y-74978646D01*
X168099500Y-75023015D01*
X168099500Y-80075500D01*
X168079815Y-80142539D01*
X168027011Y-80188294D01*
X167975500Y-80199500D01*
X115524500Y-80199500D01*
X115457461Y-80179815D01*
X115411706Y-80127011D01*
X115400500Y-80075500D01*
X115400500Y-78000000D01*
X116644341Y-78000000D01*
X116664936Y-78235403D01*
X116664938Y-78235413D01*
X116726094Y-78463655D01*
X116726096Y-78463659D01*
X116726097Y-78463663D01*
X116752368Y-78520000D01*
X116825964Y-78677828D01*
X116825965Y-78677830D01*
X116961505Y-78871402D01*
X117128597Y-79038494D01*
X117322169Y-79174034D01*
X117322171Y-79174035D01*
X117536337Y-79273903D01*
X117764592Y-79335063D01*
X117941032Y-79350499D01*
X117941033Y-79350500D01*
X117941034Y-79350500D01*
X118058967Y-79350500D01*
X118058967Y-79350499D01*
X118235408Y-79335063D01*
X118463663Y-79273903D01*
X118677829Y-79174035D01*
X118871401Y-79038495D01*
X119038495Y-78871401D01*
X119174035Y-78677830D01*
X119200669Y-78620713D01*
X126595000Y-78620713D01*
X126610418Y-78772338D01*
X126671299Y-78966381D01*
X126671304Y-78966391D01*
X126770005Y-79144215D01*
X126770005Y-79144216D01*
X126902478Y-79298530D01*
X126902479Y-79298531D01*
X127063304Y-79423018D01*
X127245907Y-79512589D01*
X127345000Y-79538244D01*
X127345000Y-78736110D01*
X127369457Y-78775610D01*
X127458962Y-78843201D01*
X127566840Y-78873895D01*
X127678521Y-78863546D01*
X127778922Y-78813552D01*
X127845000Y-78741069D01*
X127845000Y-79543365D01*
X127846944Y-79543069D01*
X127846945Y-79543069D01*
X128037660Y-79472436D01*
X128037664Y-79472434D01*
X128210267Y-79364850D01*
X128357668Y-79224735D01*
X128357669Y-79224733D01*
X128473856Y-79057804D01*
X128554059Y-78870907D01*
X128595000Y-78671690D01*
X128595000Y-78620713D01*
X135235000Y-78620713D01*
X135250418Y-78772338D01*
X135311299Y-78966381D01*
X135311304Y-78966391D01*
X135410005Y-79144215D01*
X135410005Y-79144216D01*
X135542478Y-79298530D01*
X135542479Y-79298531D01*
X135703304Y-79423018D01*
X135885907Y-79512589D01*
X135985000Y-79538244D01*
X135985000Y-78736110D01*
X136009457Y-78775610D01*
X136098962Y-78843201D01*
X136206840Y-78873895D01*
X136318521Y-78863546D01*
X136418922Y-78813552D01*
X136485000Y-78741069D01*
X136485000Y-79543366D01*
X136486944Y-79543069D01*
X136486945Y-79543069D01*
X136677660Y-79472436D01*
X136677664Y-79472434D01*
X136850267Y-79364850D01*
X136997668Y-79224735D01*
X136997669Y-79224733D01*
X137113856Y-79057804D01*
X137194059Y-78870907D01*
X137235000Y-78671690D01*
X137235000Y-78520000D01*
X136535000Y-78520000D01*
X136535000Y-78020000D01*
X137235000Y-78020000D01*
X137235000Y-78000000D01*
X164619341Y-78000000D01*
X164639936Y-78235403D01*
X164639938Y-78235413D01*
X164701094Y-78463655D01*
X164701096Y-78463659D01*
X164701097Y-78463663D01*
X164727368Y-78520000D01*
X164800964Y-78677828D01*
X164800965Y-78677830D01*
X164936505Y-78871402D01*
X165103597Y-79038494D01*
X165297169Y-79174034D01*
X165297171Y-79174035D01*
X165511337Y-79273903D01*
X165739592Y-79335063D01*
X165916032Y-79350499D01*
X165916033Y-79350500D01*
X165916034Y-79350500D01*
X166033967Y-79350500D01*
X166033967Y-79350499D01*
X166210408Y-79335063D01*
X166438663Y-79273903D01*
X166652829Y-79174035D01*
X166846401Y-79038495D01*
X167013495Y-78871401D01*
X167149035Y-78677830D01*
X167248903Y-78463663D01*
X167310063Y-78235408D01*
X167330659Y-78000000D01*
X167328843Y-77979249D01*
X167323128Y-77913920D01*
X167310063Y-77764592D01*
X167248903Y-77536337D01*
X167149035Y-77322171D01*
X167149034Y-77322169D01*
X167013494Y-77128597D01*
X166846402Y-76961505D01*
X166652830Y-76825965D01*
X166652828Y-76825964D01*
X166545746Y-76776031D01*
X166438663Y-76726097D01*
X166438659Y-76726096D01*
X166438655Y-76726094D01*
X166210413Y-76664938D01*
X166210403Y-76664936D01*
X166033967Y-76649500D01*
X166033966Y-76649500D01*
X165916034Y-76649500D01*
X165916033Y-76649500D01*
X165739596Y-76664936D01*
X165739586Y-76664938D01*
X165511344Y-76726094D01*
X165511335Y-76726098D01*
X165297171Y-76825964D01*
X165297169Y-76825965D01*
X165103597Y-76961505D01*
X164936506Y-77128597D01*
X164936501Y-77128604D01*
X164800967Y-77322165D01*
X164800965Y-77322169D01*
X164701098Y-77536335D01*
X164701094Y-77536344D01*
X164639938Y-77764586D01*
X164639936Y-77764596D01*
X164619341Y-77999999D01*
X164619341Y-78000000D01*
X137235000Y-78000000D01*
X137235000Y-77919286D01*
X137219581Y-77767661D01*
X137158700Y-77573618D01*
X137158695Y-77573608D01*
X137059994Y-77395784D01*
X137059994Y-77395783D01*
X136927521Y-77241469D01*
X136927520Y-77241468D01*
X136766695Y-77116981D01*
X136584093Y-77027411D01*
X136485000Y-77001753D01*
X136485000Y-77803889D01*
X136460543Y-77764390D01*
X136371038Y-77696799D01*
X136263160Y-77666105D01*
X136151479Y-77676454D01*
X136051078Y-77726448D01*
X135985000Y-77798930D01*
X135985000Y-76996633D01*
X135983053Y-76996931D01*
X135983047Y-76996933D01*
X135792342Y-77067562D01*
X135792335Y-77067565D01*
X135619732Y-77175149D01*
X135472331Y-77315264D01*
X135472330Y-77315266D01*
X135356143Y-77482195D01*
X135275940Y-77669092D01*
X135235000Y-77868309D01*
X135235000Y-78020000D01*
X135935000Y-78020000D01*
X135935000Y-78520000D01*
X135235000Y-78520000D01*
X135235000Y-78620713D01*
X128595000Y-78620713D01*
X128595000Y-78520000D01*
X127895000Y-78520000D01*
X127895000Y-78020000D01*
X128595000Y-78020000D01*
X128595000Y-77919286D01*
X128579581Y-77767661D01*
X128518700Y-77573618D01*
X128518695Y-77573608D01*
X128419994Y-77395784D01*
X128419994Y-77395783D01*
X128287521Y-77241469D01*
X128287520Y-77241468D01*
X128126695Y-77116981D01*
X127944093Y-77027411D01*
X127845000Y-77001753D01*
X127845000Y-77803889D01*
X127820543Y-77764390D01*
X127731038Y-77696799D01*
X127623160Y-77666105D01*
X127511479Y-77676454D01*
X127411078Y-77726448D01*
X127345000Y-77798930D01*
X127345000Y-76996633D01*
X127343053Y-76996931D01*
X127343047Y-76996933D01*
X127152342Y-77067562D01*
X127152335Y-77067565D01*
X126979732Y-77175149D01*
X126832331Y-77315264D01*
X126832330Y-77315266D01*
X126716143Y-77482195D01*
X126635940Y-77669092D01*
X126595000Y-77868309D01*
X126595000Y-78020000D01*
X127295000Y-78020000D01*
X127295000Y-78520000D01*
X126595000Y-78520000D01*
X126595000Y-78620713D01*
X119200669Y-78620713D01*
X119273903Y-78463663D01*
X119335063Y-78235408D01*
X119355659Y-78000000D01*
X119353843Y-77979249D01*
X119348128Y-77913920D01*
X119338161Y-77800003D01*
X122244435Y-77800003D01*
X122264630Y-77979249D01*
X122264631Y-77979254D01*
X122324211Y-78149523D01*
X122378177Y-78235408D01*
X122420184Y-78302262D01*
X122547738Y-78429816D01*
X122700478Y-78525789D01*
X122870745Y-78585368D01*
X122870750Y-78585369D01*
X123049996Y-78605565D01*
X123050000Y-78605565D01*
X123050004Y-78605565D01*
X123229249Y-78585369D01*
X123229252Y-78585368D01*
X123229255Y-78585368D01*
X123399522Y-78525789D01*
X123552262Y-78429816D01*
X123679816Y-78302262D01*
X123775789Y-78149522D01*
X123832958Y-77986141D01*
X123873680Y-77929366D01*
X123938633Y-77903619D01*
X124007194Y-77917075D01*
X124057597Y-77965462D01*
X124067042Y-77986142D01*
X124124211Y-78149523D01*
X124178177Y-78235408D01*
X124220184Y-78302262D01*
X124347738Y-78429816D01*
X124500478Y-78525789D01*
X124670745Y-78585368D01*
X124670750Y-78585369D01*
X124849996Y-78605565D01*
X124850000Y-78605565D01*
X124850004Y-78605565D01*
X125029249Y-78585369D01*
X125029252Y-78585368D01*
X125029255Y-78585368D01*
X125199522Y-78525789D01*
X125352262Y-78429816D01*
X125479816Y-78302262D01*
X125575789Y-78149522D01*
X125635368Y-77979255D01*
X125636922Y-77965462D01*
X125655565Y-77800003D01*
X125655565Y-77799996D01*
X125635369Y-77620750D01*
X125635368Y-77620745D01*
X125632958Y-77613857D01*
X125575789Y-77450478D01*
X125479816Y-77297738D01*
X125352262Y-77170184D01*
X125286077Y-77128597D01*
X125199523Y-77074211D01*
X125029254Y-77014631D01*
X125029249Y-77014630D01*
X124850004Y-76994435D01*
X124849996Y-76994435D01*
X124670750Y-77014630D01*
X124670745Y-77014631D01*
X124500476Y-77074211D01*
X124347737Y-77170184D01*
X124220184Y-77297737D01*
X124124209Y-77450480D01*
X124067041Y-77613857D01*
X124026320Y-77670633D01*
X123961367Y-77696380D01*
X123892805Y-77682924D01*
X123842403Y-77634536D01*
X123832959Y-77613857D01*
X123775790Y-77450480D01*
X123775789Y-77450478D01*
X123679816Y-77297738D01*
X123552262Y-77170184D01*
X123486077Y-77128597D01*
X123399523Y-77074211D01*
X123229254Y-77014631D01*
X123229249Y-77014630D01*
X123050004Y-76994435D01*
X123049996Y-76994435D01*
X122870750Y-77014630D01*
X122870745Y-77014631D01*
X122700476Y-77074211D01*
X122547737Y-77170184D01*
X122420184Y-77297737D01*
X122324211Y-77450476D01*
X122264631Y-77620745D01*
X122264630Y-77620750D01*
X122244435Y-77799996D01*
X122244435Y-77800003D01*
X119338161Y-77800003D01*
X119335063Y-77764592D01*
X119273903Y-77536337D01*
X119174035Y-77322171D01*
X119174034Y-77322169D01*
X119038494Y-77128597D01*
X118871402Y-76961505D01*
X118677830Y-76825965D01*
X118677828Y-76825964D01*
X118570746Y-76776031D01*
X118463663Y-76726097D01*
X118463659Y-76726096D01*
X118463655Y-76726094D01*
X118235413Y-76664938D01*
X118235403Y-76664936D01*
X118058967Y-76649500D01*
X118058966Y-76649500D01*
X117941034Y-76649500D01*
X117941033Y-76649500D01*
X117764596Y-76664936D01*
X117764586Y-76664938D01*
X117536344Y-76726094D01*
X117536335Y-76726098D01*
X117322171Y-76825964D01*
X117322169Y-76825965D01*
X117128597Y-76961505D01*
X116961506Y-77128597D01*
X116961501Y-77128604D01*
X116825967Y-77322165D01*
X116825965Y-77322169D01*
X116726098Y-77536335D01*
X116726094Y-77536344D01*
X116664938Y-77764586D01*
X116664936Y-77764596D01*
X116644341Y-77999999D01*
X116644341Y-78000000D01*
X115400500Y-78000000D01*
X115400500Y-75400003D01*
X122494435Y-75400003D01*
X122514630Y-75579249D01*
X122514631Y-75579254D01*
X122574211Y-75749523D01*
X122670184Y-75902262D01*
X122797738Y-76029816D01*
X122950478Y-76125789D01*
X123120745Y-76185368D01*
X123120750Y-76185369D01*
X123299996Y-76205565D01*
X123300000Y-76205565D01*
X123300004Y-76205565D01*
X123479249Y-76185369D01*
X123479252Y-76185368D01*
X123479255Y-76185368D01*
X123649522Y-76125789D01*
X123802262Y-76029816D01*
X123929816Y-75902262D01*
X124025789Y-75749522D01*
X124085368Y-75579255D01*
X124085369Y-75579249D01*
X124105565Y-75400003D01*
X124105565Y-75399996D01*
X124085369Y-75220750D01*
X124085368Y-75220745D01*
X124052847Y-75127806D01*
X124025789Y-75050478D01*
X123929816Y-74897738D01*
X123802262Y-74770184D01*
X123756914Y-74741690D01*
X123675785Y-74690713D01*
X126595000Y-74690713D01*
X126610418Y-74842338D01*
X126671299Y-75036381D01*
X126671304Y-75036391D01*
X126770005Y-75214215D01*
X126770005Y-75214216D01*
X126902478Y-75368530D01*
X126902479Y-75368531D01*
X127063304Y-75493018D01*
X127245907Y-75582589D01*
X127345000Y-75608244D01*
X127345000Y-74806110D01*
X127369457Y-74845610D01*
X127458962Y-74913201D01*
X127566840Y-74943895D01*
X127678521Y-74933546D01*
X127778922Y-74883552D01*
X127845000Y-74811069D01*
X127845000Y-75613366D01*
X127846944Y-75613069D01*
X127846945Y-75613069D01*
X128037660Y-75542436D01*
X128037664Y-75542434D01*
X128210267Y-75434850D01*
X128357668Y-75294735D01*
X128357669Y-75294733D01*
X128473855Y-75127806D01*
X128477234Y-75119931D01*
X128521758Y-75066084D01*
X128588325Y-75044857D01*
X128655801Y-75062988D01*
X128666663Y-75070440D01*
X128734767Y-75122698D01*
X128874764Y-75180687D01*
X128987280Y-75195500D01*
X128987287Y-75195500D01*
X129062713Y-75195500D01*
X129062720Y-75195500D01*
X129175236Y-75180687D01*
X129315233Y-75122698D01*
X129435451Y-75030451D01*
X129527698Y-74910233D01*
X129585687Y-74770236D01*
X129605466Y-74620000D01*
X134224534Y-74620000D01*
X134244312Y-74770234D01*
X134244313Y-74770236D01*
X134297755Y-74899257D01*
X134302302Y-74910233D01*
X134394549Y-75030451D01*
X134514767Y-75122698D01*
X134654764Y-75180687D01*
X134767280Y-75195500D01*
X134767287Y-75195500D01*
X134842713Y-75195500D01*
X134842720Y-75195500D01*
X134955236Y-75180687D01*
X135095233Y-75122698D01*
X135166256Y-75068199D01*
X135231425Y-75043006D01*
X135299869Y-75057044D01*
X135349859Y-75105858D01*
X135350161Y-75106398D01*
X135410005Y-75214215D01*
X135410005Y-75214216D01*
X135542478Y-75368530D01*
X135542479Y-75368531D01*
X135703304Y-75493018D01*
X135885907Y-75582589D01*
X135985000Y-75608244D01*
X135985000Y-74806110D01*
X136009457Y-74845610D01*
X136098962Y-74913201D01*
X136206840Y-74943895D01*
X136318521Y-74933546D01*
X136418922Y-74883552D01*
X136485000Y-74811069D01*
X136485000Y-75613366D01*
X136486944Y-75613069D01*
X136486945Y-75613069D01*
X136677660Y-75542436D01*
X136677664Y-75542434D01*
X136850267Y-75434850D01*
X136997668Y-75294735D01*
X136997669Y-75294733D01*
X137113856Y-75127804D01*
X137194059Y-74940907D01*
X137235000Y-74741690D01*
X137235000Y-74340000D01*
X136535000Y-74340000D01*
X136535000Y-73840000D01*
X137235000Y-73840000D01*
X137235000Y-73489286D01*
X137219581Y-73337661D01*
X137158700Y-73143618D01*
X137158695Y-73143608D01*
X137059994Y-72965784D01*
X137059994Y-72965783D01*
X136927521Y-72811469D01*
X136927520Y-72811468D01*
X136766695Y-72686981D01*
X136584093Y-72597411D01*
X136485000Y-72571753D01*
X136485000Y-73373889D01*
X136460543Y-73334390D01*
X136371038Y-73266799D01*
X136263160Y-73236105D01*
X136151479Y-73246454D01*
X136051078Y-73296448D01*
X135985000Y-73368930D01*
X135985000Y-72566633D01*
X135983053Y-72566931D01*
X135983047Y-72566933D01*
X135792342Y-72637562D01*
X135792335Y-72637565D01*
X135619732Y-72745149D01*
X135472331Y-72885264D01*
X135472330Y-72885266D01*
X135356143Y-73052195D01*
X135275940Y-73239092D01*
X135235000Y-73438309D01*
X135235000Y-73989615D01*
X135215315Y-74056654D01*
X135162511Y-74102409D01*
X135093353Y-74112353D01*
X135063548Y-74104176D01*
X134955239Y-74059314D01*
X134955237Y-74059313D01*
X134955236Y-74059313D01*
X134935039Y-74056654D01*
X134842727Y-74044500D01*
X134842720Y-74044500D01*
X134767280Y-74044500D01*
X134767272Y-74044500D01*
X134654764Y-74059313D01*
X134654763Y-74059313D01*
X134514770Y-74117300D01*
X134394549Y-74209549D01*
X134302300Y-74329770D01*
X134244313Y-74469763D01*
X134244312Y-74469765D01*
X134224534Y-74619999D01*
X134224534Y-74620000D01*
X129605466Y-74620000D01*
X129585687Y-74469764D01*
X129527698Y-74329767D01*
X129435451Y-74209549D01*
X129315233Y-74117302D01*
X129315229Y-74117300D01*
X129202719Y-74070697D01*
X129175236Y-74059313D01*
X129155039Y-74056654D01*
X129062727Y-74044500D01*
X129062720Y-74044500D01*
X128987280Y-74044500D01*
X128987272Y-74044500D01*
X128874764Y-74059313D01*
X128874760Y-74059314D01*
X128766452Y-74104176D01*
X128696982Y-74111645D01*
X128634503Y-74080369D01*
X128598852Y-74020280D01*
X128595000Y-73989615D01*
X128595000Y-73489286D01*
X128579581Y-73337661D01*
X128518700Y-73143618D01*
X128518695Y-73143608D01*
X128419994Y-72965784D01*
X128419994Y-72965783D01*
X128287521Y-72811469D01*
X128287520Y-72811468D01*
X128126695Y-72686981D01*
X127944093Y-72597411D01*
X127845000Y-72571753D01*
X127845000Y-73373889D01*
X127820543Y-73334390D01*
X127731038Y-73266799D01*
X127623160Y-73236105D01*
X127511479Y-73246454D01*
X127411078Y-73296448D01*
X127345000Y-73368930D01*
X127345000Y-72566633D01*
X127343053Y-72566931D01*
X127343047Y-72566933D01*
X127152342Y-72637562D01*
X127152335Y-72637565D01*
X126979732Y-72745149D01*
X126832331Y-72885264D01*
X126832330Y-72885266D01*
X126716143Y-73052195D01*
X126635940Y-73239092D01*
X126595000Y-73438309D01*
X126595000Y-73840000D01*
X127295000Y-73840000D01*
X127295000Y-74340000D01*
X126595000Y-74340000D01*
X126595000Y-74690713D01*
X123675785Y-74690713D01*
X123649523Y-74674211D01*
X123479254Y-74614631D01*
X123479249Y-74614630D01*
X123300004Y-74594435D01*
X123299996Y-74594435D01*
X123120750Y-74614630D01*
X123120745Y-74614631D01*
X122950476Y-74674211D01*
X122797737Y-74770184D01*
X122670184Y-74897737D01*
X122574211Y-75050476D01*
X122514631Y-75220745D01*
X122514630Y-75220750D01*
X122494435Y-75399996D01*
X122494435Y-75400003D01*
X115400500Y-75400003D01*
X115400500Y-74434834D01*
X115420185Y-74367795D01*
X115472989Y-74322040D01*
X115542147Y-74312096D01*
X115605703Y-74341121D01*
X115620353Y-74356169D01*
X115739116Y-74500883D01*
X115891460Y-74625909D01*
X115891467Y-74625913D01*
X116065266Y-74718811D01*
X116065269Y-74718811D01*
X116065273Y-74718814D01*
X116253868Y-74776024D01*
X116450000Y-74795341D01*
X116646132Y-74776024D01*
X116834727Y-74718814D01*
X117008538Y-74625910D01*
X117160883Y-74500883D01*
X117285910Y-74348538D01*
X117378814Y-74174727D01*
X117436024Y-73986132D01*
X117455341Y-73790000D01*
X117436024Y-73593868D01*
X117378814Y-73405273D01*
X117378811Y-73405269D01*
X117378811Y-73405266D01*
X117285913Y-73231467D01*
X117285909Y-73231460D01*
X117160883Y-73079116D01*
X117125409Y-73050003D01*
X124494435Y-73050003D01*
X124514630Y-73229249D01*
X124514631Y-73229254D01*
X124574211Y-73399523D01*
X124645010Y-73512198D01*
X124670184Y-73552262D01*
X124797738Y-73679816D01*
X124950478Y-73775789D01*
X124991091Y-73790000D01*
X125120745Y-73835368D01*
X125120750Y-73835369D01*
X125299996Y-73855565D01*
X125300000Y-73855565D01*
X125300004Y-73855565D01*
X125479249Y-73835369D01*
X125479252Y-73835368D01*
X125479255Y-73835368D01*
X125649522Y-73775789D01*
X125802262Y-73679816D01*
X125929816Y-73552262D01*
X126025789Y-73399522D01*
X126085368Y-73229255D01*
X126085414Y-73228847D01*
X126105565Y-73050003D01*
X126105565Y-73049996D01*
X126085369Y-72870750D01*
X126085368Y-72870745D01*
X126064626Y-72811468D01*
X126025789Y-72700478D01*
X125929816Y-72547738D01*
X125802262Y-72420184D01*
X125778996Y-72405565D01*
X125649523Y-72324211D01*
X125479254Y-72264631D01*
X125479249Y-72264630D01*
X125300004Y-72244435D01*
X125299996Y-72244435D01*
X125120750Y-72264630D01*
X125120745Y-72264631D01*
X124950476Y-72324211D01*
X124797737Y-72420184D01*
X124670184Y-72547737D01*
X124574211Y-72700476D01*
X124514631Y-72870745D01*
X124514630Y-72870750D01*
X124494435Y-73049996D01*
X124494435Y-73050003D01*
X117125409Y-73050003D01*
X117008539Y-72954090D01*
X117008532Y-72954086D01*
X116834733Y-72861188D01*
X116834727Y-72861186D01*
X116646132Y-72803976D01*
X116646129Y-72803975D01*
X116450000Y-72784659D01*
X116253870Y-72803975D01*
X116065266Y-72861188D01*
X115891467Y-72954086D01*
X115891460Y-72954090D01*
X115739116Y-73079116D01*
X115620353Y-73223830D01*
X115562607Y-73263164D01*
X115492763Y-73265035D01*
X115432994Y-73228847D01*
X115402279Y-73166091D01*
X115400500Y-73145165D01*
X115400500Y-71910003D01*
X132729909Y-71910003D01*
X132748212Y-72072455D01*
X132802210Y-72226774D01*
X132825998Y-72264632D01*
X132889192Y-72365204D01*
X133004796Y-72480808D01*
X133143225Y-72567789D01*
X133297539Y-72621786D01*
X133297542Y-72621786D01*
X133297544Y-72621787D01*
X133459996Y-72640091D01*
X133460000Y-72640091D01*
X133460004Y-72640091D01*
X133622455Y-72621787D01*
X133622456Y-72621786D01*
X133622461Y-72621786D01*
X133776775Y-72567789D01*
X133915204Y-72480808D01*
X134030808Y-72365204D01*
X134117789Y-72226775D01*
X134171786Y-72072461D01*
X134190091Y-71910000D01*
X134175359Y-71779254D01*
X134171787Y-71747544D01*
X134171786Y-71747542D01*
X134171786Y-71747539D01*
X134117789Y-71593225D01*
X134030808Y-71454796D01*
X133915204Y-71339192D01*
X133776774Y-71252210D01*
X133622455Y-71198212D01*
X133460004Y-71179909D01*
X133459996Y-71179909D01*
X133297544Y-71198212D01*
X133143225Y-71252210D01*
X133004795Y-71339192D01*
X132889192Y-71454795D01*
X132802210Y-71593225D01*
X132748212Y-71747544D01*
X132729909Y-71909996D01*
X132729909Y-71910003D01*
X115400500Y-71910003D01*
X115400500Y-70634834D01*
X115420185Y-70567795D01*
X115472989Y-70522040D01*
X115542147Y-70512096D01*
X115605703Y-70541121D01*
X115620353Y-70556169D01*
X115739116Y-70700883D01*
X115891460Y-70825909D01*
X115891467Y-70825913D01*
X116065266Y-70918811D01*
X116065269Y-70918811D01*
X116065273Y-70918814D01*
X116253868Y-70976024D01*
X116450000Y-70995341D01*
X116646132Y-70976024D01*
X116834727Y-70918814D01*
X117008538Y-70825910D01*
X117101030Y-70750003D01*
X124144435Y-70750003D01*
X124164630Y-70929249D01*
X124164631Y-70929254D01*
X124224211Y-71099523D01*
X124286222Y-71198212D01*
X124320184Y-71252262D01*
X124447738Y-71379816D01*
X124600478Y-71475789D01*
X124743367Y-71525788D01*
X124770745Y-71535368D01*
X124770750Y-71535369D01*
X124949996Y-71555565D01*
X124950000Y-71555565D01*
X124950004Y-71555565D01*
X125129249Y-71535369D01*
X125129252Y-71535368D01*
X125129255Y-71535368D01*
X125299522Y-71475789D01*
X125452262Y-71379816D01*
X125579816Y-71252262D01*
X125675789Y-71099522D01*
X125735368Y-70929255D01*
X125735369Y-70929249D01*
X125755565Y-70750003D01*
X125755565Y-70749996D01*
X125735369Y-70570750D01*
X125735368Y-70570745D01*
X125675788Y-70400476D01*
X125579815Y-70247737D01*
X125452262Y-70120184D01*
X125299523Y-70024211D01*
X125129254Y-69964631D01*
X125129249Y-69964630D01*
X124950004Y-69944435D01*
X124949996Y-69944435D01*
X124770750Y-69964630D01*
X124770745Y-69964631D01*
X124600476Y-70024211D01*
X124447737Y-70120184D01*
X124320184Y-70247737D01*
X124224211Y-70400476D01*
X124164631Y-70570745D01*
X124164630Y-70570750D01*
X124144435Y-70749996D01*
X124144435Y-70750003D01*
X117101030Y-70750003D01*
X117160883Y-70700883D01*
X117285910Y-70548538D01*
X117378814Y-70374727D01*
X117436024Y-70186132D01*
X117449603Y-70048252D01*
X117475763Y-69983466D01*
X117532798Y-69943107D01*
X117586889Y-69937187D01*
X117620489Y-69940972D01*
X117749997Y-69955565D01*
X117750000Y-69955565D01*
X117750004Y-69955565D01*
X117929249Y-69935369D01*
X117929252Y-69935368D01*
X117929255Y-69935368D01*
X118099522Y-69875789D01*
X118252262Y-69779816D01*
X118379816Y-69652262D01*
X118475789Y-69499522D01*
X118535368Y-69329255D01*
X118541017Y-69279117D01*
X118555565Y-69150003D01*
X118555565Y-69149996D01*
X118535369Y-68970750D01*
X118535368Y-68970745D01*
X118503352Y-68879249D01*
X118475789Y-68800478D01*
X118379816Y-68647738D01*
X118252262Y-68520184D01*
X118188017Y-68479816D01*
X118099523Y-68424211D01*
X117929254Y-68364631D01*
X117929249Y-68364630D01*
X117750004Y-68344435D01*
X117749996Y-68344435D01*
X117570750Y-68364630D01*
X117570745Y-68364631D01*
X117400476Y-68424211D01*
X117247737Y-68520184D01*
X117120184Y-68647737D01*
X117024209Y-68800480D01*
X116962822Y-68975914D01*
X116922101Y-69032690D01*
X116857148Y-69058437D01*
X116809786Y-69053620D01*
X116646130Y-69003975D01*
X116450000Y-68984659D01*
X116253870Y-69003975D01*
X116065266Y-69061188D01*
X115891467Y-69154086D01*
X115891460Y-69154090D01*
X115739116Y-69279116D01*
X115620353Y-69423830D01*
X115562607Y-69463164D01*
X115492763Y-69465035D01*
X115432994Y-69428847D01*
X115402279Y-69366091D01*
X115400500Y-69345165D01*
X115400500Y-67163682D01*
X117308114Y-67163682D01*
X117328309Y-67342928D01*
X117328310Y-67342933D01*
X117387890Y-67513202D01*
X117433236Y-67585369D01*
X117483863Y-67665941D01*
X117611417Y-67793495D01*
X117764157Y-67889468D01*
X117934424Y-67949047D01*
X117934429Y-67949048D01*
X118113675Y-67969244D01*
X118113679Y-67969244D01*
X118113683Y-67969244D01*
X118292928Y-67949048D01*
X118292931Y-67949047D01*
X118292934Y-67949047D01*
X118463201Y-67889468D01*
X118526009Y-67850003D01*
X137344435Y-67850003D01*
X137364630Y-68029249D01*
X137364631Y-68029254D01*
X137424211Y-68199523D01*
X137505895Y-68329522D01*
X137520184Y-68352262D01*
X137647738Y-68479816D01*
X137800478Y-68575789D01*
X137897719Y-68609815D01*
X137970745Y-68635368D01*
X137970750Y-68635369D01*
X138149996Y-68655565D01*
X138150000Y-68655565D01*
X138150004Y-68655565D01*
X138329249Y-68635369D01*
X138329252Y-68635368D01*
X138329255Y-68635368D01*
X138499522Y-68575789D01*
X138652262Y-68479816D01*
X138779816Y-68352262D01*
X138875789Y-68199522D01*
X138935368Y-68029255D01*
X138935369Y-68029249D01*
X138955565Y-67850003D01*
X138955565Y-67849996D01*
X138935369Y-67670750D01*
X138935368Y-67670745D01*
X138921277Y-67630476D01*
X138875789Y-67500478D01*
X138861500Y-67477738D01*
X138798582Y-67377604D01*
X138779816Y-67347738D01*
X138652262Y-67220184D01*
X138619379Y-67199522D01*
X138499523Y-67124211D01*
X138329254Y-67064631D01*
X138329249Y-67064630D01*
X138150004Y-67044435D01*
X138149996Y-67044435D01*
X137970750Y-67064630D01*
X137970745Y-67064631D01*
X137800476Y-67124211D01*
X137647737Y-67220184D01*
X137520184Y-67347737D01*
X137424211Y-67500476D01*
X137364631Y-67670745D01*
X137364630Y-67670750D01*
X137344435Y-67849996D01*
X137344435Y-67850003D01*
X118526009Y-67850003D01*
X118615941Y-67793495D01*
X118743495Y-67665941D01*
X118839468Y-67513201D01*
X118899047Y-67342934D01*
X118909044Y-67254211D01*
X118919244Y-67163682D01*
X118919244Y-67163675D01*
X118899048Y-66984429D01*
X118899047Y-66984424D01*
X118897236Y-66979249D01*
X118839468Y-66814157D01*
X118830574Y-66800003D01*
X118799157Y-66750003D01*
X125219435Y-66750003D01*
X125239630Y-66929249D01*
X125239631Y-66929254D01*
X125299211Y-67099523D01*
X125379174Y-67226783D01*
X125395184Y-67252262D01*
X125522738Y-67379816D01*
X125675478Y-67475789D01*
X125818367Y-67525788D01*
X125845745Y-67535368D01*
X125845750Y-67535369D01*
X126024996Y-67555565D01*
X126025000Y-67555565D01*
X126025004Y-67555565D01*
X126204249Y-67535369D01*
X126204252Y-67535368D01*
X126204255Y-67535368D01*
X126374522Y-67475789D01*
X126527262Y-67379816D01*
X126654816Y-67252262D01*
X126750789Y-67099522D01*
X126810368Y-66929255D01*
X126810759Y-66925788D01*
X126830565Y-66750003D01*
X126830565Y-66749996D01*
X126810369Y-66570750D01*
X126810368Y-66570745D01*
X126797462Y-66533863D01*
X126750789Y-66400478D01*
X126654816Y-66247738D01*
X126527262Y-66120184D01*
X126496395Y-66100789D01*
X126374523Y-66024211D01*
X126204254Y-65964631D01*
X126204249Y-65964630D01*
X126025004Y-65944435D01*
X126024996Y-65944435D01*
X125845750Y-65964630D01*
X125845745Y-65964631D01*
X125675476Y-66024211D01*
X125522737Y-66120184D01*
X125395184Y-66247737D01*
X125299211Y-66400476D01*
X125239631Y-66570745D01*
X125239630Y-66570750D01*
X125219435Y-66749996D01*
X125219435Y-66750003D01*
X118799157Y-66750003D01*
X118789962Y-66735369D01*
X118743495Y-66661417D01*
X118615941Y-66533863D01*
X118523517Y-66475789D01*
X118463202Y-66437890D01*
X118292933Y-66378310D01*
X118292928Y-66378309D01*
X118113683Y-66358114D01*
X118113675Y-66358114D01*
X117934429Y-66378309D01*
X117934424Y-66378310D01*
X117764155Y-66437890D01*
X117611416Y-66533863D01*
X117483863Y-66661416D01*
X117387890Y-66814155D01*
X117328310Y-66984424D01*
X117328309Y-66984429D01*
X117308114Y-67163675D01*
X117308114Y-67163682D01*
X115400500Y-67163682D01*
X115400500Y-65197705D01*
X118642137Y-65197705D01*
X118662332Y-65376951D01*
X118662333Y-65376956D01*
X118721913Y-65547225D01*
X118816487Y-65697737D01*
X118817886Y-65699964D01*
X118945440Y-65827518D01*
X119098180Y-65923491D01*
X119215754Y-65964632D01*
X119268447Y-65983070D01*
X119268452Y-65983071D01*
X119447698Y-66003267D01*
X119447702Y-66003267D01*
X119447706Y-66003267D01*
X119626951Y-65983071D01*
X119626954Y-65983070D01*
X119626957Y-65983070D01*
X119797224Y-65923491D01*
X119949964Y-65827518D01*
X120077518Y-65699964D01*
X120173491Y-65547224D01*
X120233070Y-65376957D01*
X120233290Y-65375003D01*
X120253267Y-65197705D01*
X120253267Y-65197698D01*
X120233071Y-65018452D01*
X120233070Y-65018447D01*
X120192333Y-64902027D01*
X120173491Y-64848180D01*
X120160842Y-64828050D01*
X120111802Y-64750003D01*
X131269909Y-64750003D01*
X131288212Y-64912455D01*
X131342210Y-65066774D01*
X131403698Y-65164631D01*
X131429192Y-65205204D01*
X131544796Y-65320808D01*
X131683225Y-65407789D01*
X131837539Y-65461786D01*
X131837542Y-65461786D01*
X131837544Y-65461787D01*
X131999997Y-65480091D01*
X131999999Y-65480091D01*
X131999999Y-65480090D01*
X132000000Y-65480091D01*
X132049755Y-65474484D01*
X132118575Y-65486537D01*
X132151320Y-65510023D01*
X132172144Y-65530847D01*
X132205629Y-65592170D01*
X132207683Y-65632411D01*
X132194435Y-65749996D01*
X132194435Y-65750003D01*
X132214630Y-65929249D01*
X132214631Y-65929254D01*
X132274211Y-66099523D01*
X132337347Y-66200003D01*
X132370184Y-66252262D01*
X132497738Y-66379816D01*
X132588080Y-66436582D01*
X132610192Y-66450476D01*
X132650478Y-66475789D01*
X132816444Y-66533863D01*
X132820745Y-66535368D01*
X132820750Y-66535369D01*
X132999996Y-66555565D01*
X133000000Y-66555565D01*
X133000004Y-66555565D01*
X133179249Y-66535369D01*
X133179252Y-66535368D01*
X133179255Y-66535368D01*
X133349522Y-66475789D01*
X133502262Y-66379816D01*
X133629816Y-66252262D01*
X133662653Y-66200003D01*
X135394435Y-66200003D01*
X135414630Y-66379249D01*
X135414631Y-66379254D01*
X135474211Y-66549523D01*
X135550384Y-66670750D01*
X135570184Y-66702262D01*
X135697738Y-66829816D01*
X135850478Y-66925789D01*
X136020745Y-66985368D01*
X136020750Y-66985369D01*
X136199996Y-67005565D01*
X136200000Y-67005565D01*
X136200004Y-67005565D01*
X136379249Y-66985369D01*
X136379252Y-66985368D01*
X136379255Y-66985368D01*
X136549522Y-66925789D01*
X136702262Y-66829816D01*
X136829816Y-66702262D01*
X136925789Y-66549522D01*
X136985368Y-66379255D01*
X136985369Y-66379249D01*
X137005565Y-66200003D01*
X137005565Y-66199996D01*
X136985369Y-66020750D01*
X136985368Y-66020745D01*
X136965733Y-65964631D01*
X136960614Y-65950003D01*
X140994435Y-65950003D01*
X141014630Y-66129249D01*
X141014631Y-66129254D01*
X141074211Y-66299523D01*
X141137646Y-66400478D01*
X141170184Y-66452262D01*
X141297738Y-66579816D01*
X141362876Y-66620745D01*
X141442450Y-66670745D01*
X141450478Y-66675789D01*
X141597359Y-66727185D01*
X141620745Y-66735368D01*
X141620750Y-66735369D01*
X141799996Y-66755565D01*
X141800000Y-66755565D01*
X141800003Y-66755565D01*
X141863832Y-66748373D01*
X141932654Y-66760427D01*
X141984034Y-66807776D01*
X142000936Y-66857709D01*
X142014630Y-66979250D01*
X142014631Y-66979254D01*
X142074211Y-67149523D01*
X142165656Y-67295056D01*
X142170184Y-67302262D01*
X142297738Y-67429816D01*
X142385466Y-67484939D01*
X142410192Y-67500476D01*
X142450478Y-67525789D01*
X142535573Y-67555565D01*
X142620745Y-67585368D01*
X142620750Y-67585369D01*
X142799996Y-67605565D01*
X142800000Y-67605565D01*
X142800004Y-67605565D01*
X142979249Y-67585369D01*
X142979252Y-67585368D01*
X142979255Y-67585368D01*
X143149522Y-67525789D01*
X143302262Y-67429816D01*
X143325973Y-67406104D01*
X143387292Y-67372621D01*
X143456984Y-67377604D01*
X143512918Y-67419475D01*
X143537336Y-67484939D01*
X143522485Y-67553212D01*
X143518646Y-67559759D01*
X143474211Y-67630476D01*
X143414631Y-67800745D01*
X143414630Y-67800750D01*
X143394435Y-67979996D01*
X143394435Y-67980003D01*
X143414630Y-68159249D01*
X143414631Y-68159254D01*
X143474211Y-68329523D01*
X143496271Y-68364631D01*
X143570184Y-68482262D01*
X143697738Y-68609816D01*
X143770547Y-68655565D01*
X143841269Y-68700003D01*
X143850478Y-68705789D01*
X144020745Y-68765368D01*
X144020750Y-68765369D01*
X144199996Y-68785565D01*
X144200000Y-68785565D01*
X144200004Y-68785565D01*
X144379249Y-68765369D01*
X144379252Y-68765368D01*
X144379255Y-68765368D01*
X144549522Y-68705789D01*
X144702262Y-68609816D01*
X144829816Y-68482262D01*
X144925789Y-68329522D01*
X144985368Y-68159255D01*
X144990063Y-68117587D01*
X145005565Y-67980003D01*
X145005565Y-67979996D01*
X144985369Y-67800750D01*
X144985368Y-67800745D01*
X144925788Y-67630476D01*
X144878718Y-67555565D01*
X144829816Y-67477738D01*
X144702262Y-67350184D01*
X144625995Y-67302262D01*
X144549523Y-67254211D01*
X144379254Y-67194631D01*
X144379249Y-67194630D01*
X144200004Y-67174435D01*
X144199996Y-67174435D01*
X144020750Y-67194630D01*
X144020745Y-67194631D01*
X143850476Y-67254211D01*
X143697739Y-67350183D01*
X143674027Y-67373895D01*
X143612703Y-67407379D01*
X143543011Y-67402393D01*
X143487079Y-67360521D01*
X143462663Y-67295056D01*
X143477516Y-67226783D01*
X143481346Y-67220251D01*
X143525789Y-67149522D01*
X143585368Y-66979255D01*
X143591002Y-66929254D01*
X143605565Y-66800003D01*
X143605565Y-66799996D01*
X143585369Y-66620750D01*
X143585368Y-66620745D01*
X143567872Y-66570745D01*
X143525789Y-66450478D01*
X143517879Y-66437890D01*
X143461232Y-66347737D01*
X143429816Y-66297738D01*
X143302262Y-66170184D01*
X143237124Y-66129255D01*
X143149523Y-66074211D01*
X142979254Y-66014631D01*
X142979249Y-66014630D01*
X142800004Y-65994435D01*
X142799994Y-65994435D01*
X142736165Y-66001626D01*
X142667343Y-65989571D01*
X142615964Y-65942221D01*
X142599063Y-65892289D01*
X142585369Y-65770750D01*
X142585368Y-65770745D01*
X142525788Y-65600476D01*
X142450145Y-65480091D01*
X142429816Y-65447738D01*
X142302262Y-65320184D01*
X142149523Y-65224211D01*
X141979254Y-65164631D01*
X141979249Y-65164630D01*
X141800004Y-65144435D01*
X141799996Y-65144435D01*
X141620750Y-65164630D01*
X141620745Y-65164631D01*
X141450476Y-65224211D01*
X141297737Y-65320184D01*
X141170184Y-65447737D01*
X141074211Y-65600476D01*
X141014631Y-65770745D01*
X141014630Y-65770750D01*
X140994435Y-65949996D01*
X140994435Y-65950003D01*
X136960614Y-65950003D01*
X136925789Y-65850478D01*
X136829816Y-65697738D01*
X136702262Y-65570184D01*
X136665723Y-65547225D01*
X136549523Y-65474211D01*
X136379254Y-65414631D01*
X136379249Y-65414630D01*
X136200004Y-65394435D01*
X136199996Y-65394435D01*
X136020750Y-65414630D01*
X136020745Y-65414631D01*
X135850476Y-65474211D01*
X135697737Y-65570184D01*
X135570184Y-65697737D01*
X135474211Y-65850476D01*
X135414631Y-66020745D01*
X135414630Y-66020750D01*
X135394435Y-66199996D01*
X135394435Y-66200003D01*
X133662653Y-66200003D01*
X133725789Y-66099522D01*
X133785368Y-65929255D01*
X133785369Y-65929249D01*
X133805565Y-65750003D01*
X133805565Y-65749996D01*
X133785369Y-65570750D01*
X133785368Y-65570745D01*
X133747242Y-65461787D01*
X133725789Y-65400478D01*
X133629816Y-65247738D01*
X133502262Y-65120184D01*
X133502260Y-65120182D01*
X133487596Y-65110968D01*
X133441306Y-65058632D01*
X133430351Y-65019859D01*
X133413709Y-64872157D01*
X133413708Y-64872155D01*
X133413708Y-64872152D01*
X133359711Y-64717838D01*
X133331584Y-64673074D01*
X133313467Y-64644241D01*
X133294467Y-64577004D01*
X133314835Y-64510169D01*
X133368102Y-64464955D01*
X133404576Y-64455049D01*
X133468735Y-64447820D01*
X133579249Y-64435369D01*
X133579252Y-64435368D01*
X133579255Y-64435368D01*
X133749522Y-64375789D01*
X133902262Y-64279816D01*
X134029816Y-64152262D01*
X134125789Y-63999522D01*
X134185368Y-63829255D01*
X134189978Y-63788342D01*
X134205565Y-63650003D01*
X134205565Y-63649996D01*
X134185369Y-63470750D01*
X134185368Y-63470745D01*
X134129701Y-63311658D01*
X134125789Y-63300478D01*
X134029816Y-63147738D01*
X133902262Y-63020184D01*
X133872541Y-63001509D01*
X133749523Y-62924211D01*
X133628364Y-62881816D01*
X133571588Y-62841094D01*
X133545841Y-62776141D01*
X133552277Y-62723822D01*
X133585368Y-62629255D01*
X133585369Y-62629249D01*
X133605565Y-62450003D01*
X133605565Y-62449996D01*
X133585369Y-62270750D01*
X133585368Y-62270745D01*
X133536054Y-62129815D01*
X133525789Y-62100478D01*
X133431239Y-61950003D01*
X145104435Y-61950003D01*
X145124630Y-62129249D01*
X145124631Y-62129254D01*
X145184211Y-62299523D01*
X145263550Y-62425789D01*
X145280184Y-62452262D01*
X145407738Y-62579816D01*
X145560478Y-62675789D01*
X145697737Y-62723818D01*
X145730745Y-62735368D01*
X145730750Y-62735369D01*
X145909996Y-62755565D01*
X145910000Y-62755565D01*
X145910003Y-62755565D01*
X146017566Y-62743445D01*
X146061616Y-62738482D01*
X146130438Y-62750536D01*
X146181818Y-62797885D01*
X146199500Y-62861702D01*
X146199500Y-68117587D01*
X146179815Y-68184626D01*
X146172450Y-68194896D01*
X146170186Y-68197734D01*
X146074211Y-68350476D01*
X146014631Y-68520745D01*
X146014630Y-68520750D01*
X145994435Y-68699996D01*
X145994435Y-68700003D01*
X146014630Y-68879249D01*
X146014631Y-68879254D01*
X146074211Y-69049523D01*
X146137347Y-69150003D01*
X146170184Y-69202262D01*
X146297738Y-69329816D01*
X146450478Y-69425789D01*
X146466691Y-69431462D01*
X146620745Y-69485368D01*
X146620750Y-69485369D01*
X146799996Y-69505565D01*
X146800000Y-69505565D01*
X146800004Y-69505565D01*
X146979249Y-69485369D01*
X146979252Y-69485368D01*
X146979255Y-69485368D01*
X147149522Y-69425789D01*
X147302262Y-69329816D01*
X147429816Y-69202262D01*
X147525789Y-69049522D01*
X147585368Y-68879255D01*
X147594244Y-68800478D01*
X147605565Y-68700003D01*
X147605565Y-68699996D01*
X147585369Y-68520750D01*
X147585368Y-68520745D01*
X147551589Y-68424211D01*
X147525789Y-68350478D01*
X147512621Y-68329522D01*
X147492645Y-68297730D01*
X147429816Y-68197738D01*
X147429814Y-68197736D01*
X147429813Y-68197734D01*
X147427550Y-68194896D01*
X147426659Y-68192715D01*
X147426111Y-68191842D01*
X147426264Y-68191745D01*
X147401144Y-68130209D01*
X147400500Y-68117587D01*
X147400500Y-66850003D01*
X160344435Y-66850003D01*
X160364630Y-67029249D01*
X160364631Y-67029254D01*
X160424211Y-67199523D01*
X160458574Y-67254211D01*
X160520184Y-67352262D01*
X160647738Y-67479816D01*
X160800478Y-67575789D01*
X160956770Y-67630478D01*
X160970745Y-67635368D01*
X160970750Y-67635369D01*
X161149996Y-67655565D01*
X161150000Y-67655565D01*
X161150004Y-67655565D01*
X161329249Y-67635369D01*
X161329252Y-67635368D01*
X161329255Y-67635368D01*
X161499522Y-67575789D01*
X161652262Y-67479816D01*
X161779816Y-67352262D01*
X161875789Y-67199522D01*
X161935368Y-67029255D01*
X161935369Y-67029249D01*
X161955565Y-66850003D01*
X161955565Y-66849996D01*
X161935369Y-66670750D01*
X161935368Y-66670745D01*
X161917872Y-66620745D01*
X161875789Y-66500478D01*
X161779816Y-66347738D01*
X161652262Y-66220184D01*
X161620144Y-66200003D01*
X161499523Y-66124211D01*
X161329254Y-66064631D01*
X161329249Y-66064630D01*
X161150004Y-66044435D01*
X161149996Y-66044435D01*
X160970750Y-66064630D01*
X160970745Y-66064631D01*
X160800476Y-66124211D01*
X160647737Y-66220184D01*
X160520184Y-66347737D01*
X160424211Y-66500476D01*
X160364631Y-66670745D01*
X160364630Y-66670750D01*
X160344435Y-66849996D01*
X160344435Y-66850003D01*
X147400500Y-66850003D01*
X147400500Y-65375003D01*
X151794435Y-65375003D01*
X151814630Y-65554249D01*
X151814631Y-65554254D01*
X151874211Y-65724523D01*
X151903258Y-65770750D01*
X151970184Y-65877262D01*
X152097738Y-66004816D01*
X152123089Y-66020745D01*
X152248461Y-66099522D01*
X152250478Y-66100789D01*
X152420742Y-66160367D01*
X152420745Y-66160368D01*
X152420750Y-66160369D01*
X152599996Y-66180565D01*
X152600000Y-66180565D01*
X152600004Y-66180565D01*
X152779249Y-66160369D01*
X152779252Y-66160368D01*
X152779255Y-66160368D01*
X152779256Y-66160367D01*
X152779259Y-66160367D01*
X152825465Y-66144198D01*
X152946547Y-66101829D01*
X153016323Y-66098267D01*
X153028437Y-66101824D01*
X153125955Y-66135947D01*
X153195740Y-66160367D01*
X153195750Y-66160369D01*
X153374996Y-66180565D01*
X153375000Y-66180565D01*
X153375004Y-66180565D01*
X153554249Y-66160369D01*
X153554252Y-66160368D01*
X153554255Y-66160368D01*
X153724522Y-66100789D01*
X153877262Y-66004816D01*
X154004816Y-65877262D01*
X154100789Y-65724522D01*
X154160368Y-65554255D01*
X154161160Y-65547225D01*
X154180565Y-65375003D01*
X154180565Y-65374996D01*
X154160369Y-65195750D01*
X154160368Y-65195745D01*
X154100788Y-65025476D01*
X154058051Y-64957461D01*
X154004816Y-64872738D01*
X153877262Y-64745184D01*
X153798095Y-64695440D01*
X153724523Y-64649211D01*
X153554254Y-64589631D01*
X153554249Y-64589630D01*
X153375004Y-64569435D01*
X153374996Y-64569435D01*
X153195750Y-64589630D01*
X153195742Y-64589632D01*
X153028454Y-64648169D01*
X152958676Y-64651730D01*
X152946546Y-64648169D01*
X152779257Y-64589632D01*
X152779249Y-64589630D01*
X152600004Y-64569435D01*
X152599996Y-64569435D01*
X152420750Y-64589630D01*
X152420745Y-64589631D01*
X152250476Y-64649211D01*
X152097737Y-64745184D01*
X151970184Y-64872737D01*
X151874211Y-65025476D01*
X151814631Y-65195745D01*
X151814630Y-65195750D01*
X151794435Y-65374996D01*
X151794435Y-65375003D01*
X147400500Y-65375003D01*
X147400500Y-60910003D01*
X154439909Y-60910003D01*
X154458212Y-61072455D01*
X154512210Y-61226774D01*
X154589938Y-61350476D01*
X154599192Y-61365204D01*
X154714796Y-61480808D01*
X154853225Y-61567789D01*
X155007539Y-61621786D01*
X155007542Y-61621786D01*
X155007544Y-61621787D01*
X155169996Y-61640091D01*
X155170000Y-61640091D01*
X155170004Y-61640091D01*
X155332455Y-61621787D01*
X155332456Y-61621786D01*
X155332461Y-61621786D01*
X155486775Y-61567789D01*
X155625204Y-61480808D01*
X155740808Y-61365204D01*
X155827789Y-61226775D01*
X155881786Y-61072461D01*
X155883009Y-61061607D01*
X155900091Y-60910003D01*
X155900091Y-60909996D01*
X155881787Y-60747544D01*
X155881786Y-60747542D01*
X155881786Y-60747539D01*
X155827789Y-60593225D01*
X155740808Y-60454796D01*
X155636015Y-60350003D01*
X158044435Y-60350003D01*
X158064630Y-60529249D01*
X158064631Y-60529254D01*
X158124211Y-60699523D01*
X158220184Y-60852262D01*
X158298514Y-60930592D01*
X158331999Y-60991915D01*
X158327015Y-61061607D01*
X158315827Y-61084244D01*
X158274212Y-61150474D01*
X158214631Y-61320745D01*
X158214630Y-61320750D01*
X158194435Y-61499996D01*
X158194435Y-61500003D01*
X158214630Y-61679249D01*
X158214631Y-61679254D01*
X158274211Y-61849523D01*
X158337347Y-61950003D01*
X158370184Y-62002262D01*
X158497738Y-62129816D01*
X158650478Y-62225789D01*
X158778955Y-62270745D01*
X158820745Y-62285368D01*
X158820750Y-62285369D01*
X158999996Y-62305565D01*
X159000000Y-62305565D01*
X159000004Y-62305565D01*
X159179249Y-62285369D01*
X159179252Y-62285368D01*
X159179255Y-62285368D01*
X159349522Y-62225789D01*
X159502262Y-62129816D01*
X159629816Y-62002262D01*
X159725789Y-61849522D01*
X159785368Y-61679255D01*
X159789781Y-61640091D01*
X159805565Y-61500003D01*
X159805565Y-61499996D01*
X159785369Y-61320750D01*
X159785368Y-61320745D01*
X159742326Y-61197738D01*
X159725789Y-61150478D01*
X159725786Y-61150474D01*
X159684171Y-61084244D01*
X159629816Y-60997738D01*
X159551484Y-60919406D01*
X159518000Y-60858082D01*
X159522984Y-60788391D01*
X159534167Y-60765762D01*
X159575789Y-60699522D01*
X159635368Y-60529255D01*
X159643671Y-60455565D01*
X159655565Y-60350003D01*
X159655565Y-60349996D01*
X159635369Y-60170750D01*
X159635368Y-60170745D01*
X159630552Y-60156982D01*
X159575789Y-60000478D01*
X159575188Y-59999522D01*
X159479815Y-59847737D01*
X159352262Y-59720184D01*
X159199523Y-59624211D01*
X159029254Y-59564631D01*
X159029249Y-59564630D01*
X158850004Y-59544435D01*
X158849996Y-59544435D01*
X158670750Y-59564630D01*
X158670745Y-59564631D01*
X158500476Y-59624211D01*
X158347737Y-59720184D01*
X158220184Y-59847737D01*
X158124211Y-60000476D01*
X158064631Y-60170745D01*
X158064630Y-60170750D01*
X158044435Y-60349996D01*
X158044435Y-60350003D01*
X155636015Y-60350003D01*
X155625204Y-60339192D01*
X155538220Y-60284536D01*
X155486774Y-60252210D01*
X155332455Y-60198212D01*
X155170004Y-60179909D01*
X155169996Y-60179909D01*
X155007544Y-60198212D01*
X154853225Y-60252210D01*
X154714795Y-60339192D01*
X154599192Y-60454795D01*
X154512210Y-60593225D01*
X154458212Y-60747544D01*
X154439909Y-60909996D01*
X154439909Y-60910003D01*
X147400500Y-60910003D01*
X147400500Y-58140280D01*
X147419507Y-58074307D01*
X147450788Y-58024524D01*
X147466432Y-57979816D01*
X147510368Y-57854255D01*
X147510847Y-57850003D01*
X147530565Y-57675003D01*
X147530565Y-57674996D01*
X147510369Y-57495750D01*
X147510368Y-57495745D01*
X147460723Y-57353868D01*
X147450789Y-57325478D01*
X147354816Y-57172738D01*
X147227262Y-57045184D01*
X147195195Y-57025035D01*
X147074523Y-56949211D01*
X146904254Y-56889631D01*
X146904249Y-56889630D01*
X146725004Y-56869435D01*
X146724996Y-56869435D01*
X146545750Y-56889630D01*
X146545745Y-56889631D01*
X146375476Y-56949211D01*
X146222737Y-57045184D01*
X146095184Y-57172737D01*
X145999211Y-57325476D01*
X145939631Y-57495745D01*
X145939630Y-57495750D01*
X145919435Y-57674996D01*
X145919435Y-57675003D01*
X145939630Y-57854249D01*
X145939631Y-57854254D01*
X145999211Y-58024523D01*
X146095184Y-58177262D01*
X146163181Y-58245259D01*
X146196666Y-58306582D01*
X146199500Y-58332940D01*
X146199500Y-61038297D01*
X146179815Y-61105336D01*
X146127011Y-61151091D01*
X146061617Y-61161517D01*
X145910004Y-61144435D01*
X145909996Y-61144435D01*
X145730750Y-61164630D01*
X145730745Y-61164631D01*
X145560476Y-61224211D01*
X145407737Y-61320184D01*
X145280184Y-61447737D01*
X145184211Y-61600476D01*
X145124631Y-61770745D01*
X145124630Y-61770750D01*
X145104435Y-61949996D01*
X145104435Y-61950003D01*
X133431239Y-61950003D01*
X133429816Y-61947738D01*
X133302262Y-61820184D01*
X133149521Y-61724210D01*
X133023986Y-61680284D01*
X132967210Y-61639562D01*
X132941720Y-61577126D01*
X132935368Y-61520745D01*
X132875789Y-61350478D01*
X132857106Y-61320745D01*
X132798061Y-61226775D01*
X132779816Y-61197738D01*
X132652262Y-61070184D01*
X132638612Y-61061607D01*
X132499523Y-60974211D01*
X132329254Y-60914631D01*
X132329249Y-60914630D01*
X132150004Y-60894435D01*
X132149996Y-60894435D01*
X131970750Y-60914630D01*
X131970745Y-60914631D01*
X131800476Y-60974211D01*
X131647737Y-61070184D01*
X131520184Y-61197737D01*
X131424211Y-61350476D01*
X131364631Y-61520745D01*
X131364630Y-61520750D01*
X131344435Y-61699996D01*
X131344435Y-61700003D01*
X131364630Y-61879249D01*
X131364631Y-61879254D01*
X131424211Y-62049523D01*
X131474662Y-62129815D01*
X131520184Y-62202262D01*
X131647738Y-62329816D01*
X131800478Y-62425789D01*
X131926012Y-62469715D01*
X131982788Y-62510437D01*
X132008278Y-62572872D01*
X132014630Y-62629249D01*
X132074210Y-62799521D01*
X132074211Y-62799522D01*
X132170184Y-62952262D01*
X132297738Y-63079816D01*
X132432276Y-63164352D01*
X132450478Y-63175789D01*
X132571633Y-63218183D01*
X132628409Y-63258905D01*
X132654157Y-63323858D01*
X132647721Y-63376179D01*
X132614632Y-63470742D01*
X132614630Y-63470750D01*
X132594435Y-63649996D01*
X132594435Y-63650003D01*
X132614630Y-63829249D01*
X132614631Y-63829254D01*
X132674211Y-63999523D01*
X132750022Y-64120175D01*
X132769022Y-64187412D01*
X132748654Y-64254247D01*
X132695386Y-64299461D01*
X132658908Y-64309368D01*
X132652161Y-64310128D01*
X132583339Y-64298071D01*
X132550600Y-64274588D01*
X132455204Y-64179192D01*
X132316774Y-64092210D01*
X132162455Y-64038212D01*
X132000004Y-64019909D01*
X131999996Y-64019909D01*
X131837544Y-64038212D01*
X131683225Y-64092210D01*
X131544795Y-64179192D01*
X131429192Y-64294795D01*
X131342210Y-64433225D01*
X131288212Y-64587544D01*
X131269909Y-64749996D01*
X131269909Y-64750003D01*
X120111802Y-64750003D01*
X120104475Y-64738342D01*
X120077518Y-64695440D01*
X119949964Y-64567886D01*
X119797225Y-64471913D01*
X119626956Y-64412333D01*
X119626951Y-64412332D01*
X119447706Y-64392137D01*
X119447698Y-64392137D01*
X119268452Y-64412332D01*
X119268447Y-64412333D01*
X119098178Y-64471913D01*
X118945439Y-64567886D01*
X118817886Y-64695439D01*
X118721913Y-64848178D01*
X118662333Y-65018447D01*
X118662332Y-65018452D01*
X118642137Y-65197698D01*
X118642137Y-65197705D01*
X115400500Y-65197705D01*
X115400500Y-65024500D01*
X115420185Y-64957461D01*
X115472989Y-64911706D01*
X115524500Y-64900500D01*
X115718725Y-64900500D01*
X115738120Y-64902026D01*
X115760000Y-64905492D01*
X115760003Y-64905492D01*
X115885300Y-64885647D01*
X115885301Y-64885647D01*
X115885302Y-64885646D01*
X115885304Y-64885646D01*
X115998342Y-64828050D01*
X116088050Y-64738342D01*
X116145646Y-64625304D01*
X116145646Y-64625302D01*
X116145647Y-64625301D01*
X116161260Y-64526724D01*
X116161260Y-64526714D01*
X116165492Y-64500000D01*
X116162026Y-64478121D01*
X116160500Y-64458724D01*
X116160500Y-63727301D01*
X128771733Y-63727301D01*
X128791928Y-63906547D01*
X128791929Y-63906552D01*
X128851509Y-64076821D01*
X128947482Y-64229560D01*
X129075036Y-64357114D01*
X129227776Y-64453087D01*
X129261693Y-64464955D01*
X129398043Y-64512666D01*
X129398048Y-64512667D01*
X129577294Y-64532863D01*
X129577298Y-64532863D01*
X129577302Y-64532863D01*
X129756547Y-64512667D01*
X129756550Y-64512666D01*
X129756553Y-64512666D01*
X129926820Y-64453087D01*
X130079560Y-64357114D01*
X130207114Y-64229560D01*
X130303087Y-64076820D01*
X130362666Y-63906553D01*
X130362667Y-63906547D01*
X130382863Y-63727301D01*
X130382863Y-63727294D01*
X130362667Y-63548048D01*
X130362666Y-63548043D01*
X130303086Y-63377774D01*
X130207113Y-63225035D01*
X130079560Y-63097482D01*
X129926821Y-63001509D01*
X129756552Y-62941929D01*
X129756547Y-62941928D01*
X129577302Y-62921733D01*
X129577294Y-62921733D01*
X129398048Y-62941928D01*
X129398043Y-62941929D01*
X129227774Y-63001509D01*
X129075035Y-63097482D01*
X128947482Y-63225035D01*
X128851509Y-63377774D01*
X128791929Y-63548043D01*
X128791928Y-63548048D01*
X128771733Y-63727294D01*
X128771733Y-63727301D01*
X116160500Y-63727301D01*
X116160500Y-63591275D01*
X116162027Y-63571876D01*
X116165492Y-63550000D01*
X116165492Y-63549996D01*
X116145647Y-63424699D01*
X116145647Y-63424698D01*
X116145646Y-63424696D01*
X116088050Y-63311658D01*
X116088046Y-63311654D01*
X116088045Y-63311652D01*
X115998347Y-63221954D01*
X115998344Y-63221952D01*
X115998342Y-63221950D01*
X115885304Y-63164354D01*
X115885303Y-63164353D01*
X115885300Y-63164352D01*
X115791520Y-63149500D01*
X115791519Y-63149500D01*
X115760002Y-63144508D01*
X115760000Y-63144508D01*
X115738120Y-63147973D01*
X115718725Y-63149500D01*
X115524500Y-63149500D01*
X115457461Y-63129815D01*
X115411706Y-63077011D01*
X115400500Y-63025500D01*
X115400500Y-59650003D01*
X131244435Y-59650003D01*
X131264630Y-59829249D01*
X131264631Y-59829254D01*
X131324211Y-59999523D01*
X131327177Y-60004243D01*
X131420184Y-60152262D01*
X131547738Y-60279816D01*
X131700478Y-60375789D01*
X131870745Y-60435368D01*
X131870750Y-60435369D01*
X132049996Y-60455565D01*
X132050000Y-60455565D01*
X132050004Y-60455565D01*
X132229249Y-60435369D01*
X132229252Y-60435368D01*
X132229255Y-60435368D01*
X132399522Y-60375789D01*
X132552262Y-60279816D01*
X132679816Y-60152262D01*
X132775789Y-59999522D01*
X132835368Y-59829255D01*
X132838433Y-59802055D01*
X132855565Y-59650003D01*
X132855565Y-59649996D01*
X132835369Y-59470750D01*
X132835368Y-59470745D01*
X132791722Y-59346012D01*
X132775789Y-59300478D01*
X132679816Y-59147738D01*
X132669759Y-59137681D01*
X132636274Y-59076358D01*
X132641258Y-59006666D01*
X132647796Y-58996493D01*
X133685839Y-58996493D01*
X133706034Y-59175739D01*
X133706035Y-59175744D01*
X133765615Y-59346013D01*
X133843990Y-59470745D01*
X133861588Y-59498752D01*
X133989142Y-59626306D01*
X134079484Y-59683072D01*
X134138547Y-59720184D01*
X134141882Y-59722279D01*
X134312149Y-59781858D01*
X134312154Y-59781859D01*
X134491400Y-59802055D01*
X134491404Y-59802055D01*
X134491408Y-59802055D01*
X134670653Y-59781859D01*
X134670656Y-59781858D01*
X134670659Y-59781858D01*
X134840926Y-59722279D01*
X134948441Y-59654723D01*
X140249155Y-59654723D01*
X140269350Y-59833969D01*
X140269351Y-59833974D01*
X140328931Y-60004243D01*
X140421938Y-60152262D01*
X140424904Y-60156982D01*
X140552458Y-60284536D01*
X140639442Y-60339192D01*
X140697684Y-60375788D01*
X140705198Y-60380509D01*
X140861976Y-60435368D01*
X140875465Y-60440088D01*
X140875470Y-60440089D01*
X141054716Y-60460285D01*
X141054720Y-60460285D01*
X141054724Y-60460285D01*
X141233969Y-60440089D01*
X141233972Y-60440088D01*
X141233975Y-60440088D01*
X141404242Y-60380509D01*
X141556982Y-60284536D01*
X141684536Y-60156982D01*
X141780509Y-60004242D01*
X141840088Y-59833975D01*
X141840621Y-59829249D01*
X141850587Y-59740792D01*
X141877653Y-59676377D01*
X141915228Y-59650003D01*
X144294435Y-59650003D01*
X144314630Y-59829249D01*
X144314631Y-59829254D01*
X144374211Y-59999523D01*
X144377177Y-60004243D01*
X144470184Y-60152262D01*
X144597738Y-60279816D01*
X144750478Y-60375789D01*
X144920745Y-60435368D01*
X144920750Y-60435369D01*
X145099996Y-60455565D01*
X145100000Y-60455565D01*
X145100004Y-60455565D01*
X145279249Y-60435369D01*
X145279252Y-60435368D01*
X145279255Y-60435368D01*
X145449522Y-60375789D01*
X145602262Y-60279816D01*
X145729816Y-60152262D01*
X145825789Y-59999522D01*
X145885368Y-59829255D01*
X145888433Y-59802055D01*
X145905565Y-59650003D01*
X145905565Y-59649996D01*
X145885369Y-59470750D01*
X145885368Y-59470745D01*
X145841722Y-59346012D01*
X145825789Y-59300478D01*
X145729816Y-59147738D01*
X145602262Y-59020184D01*
X145564558Y-58996493D01*
X145449523Y-58924211D01*
X145279254Y-58864631D01*
X145279249Y-58864630D01*
X145100004Y-58844435D01*
X145099996Y-58844435D01*
X144920750Y-58864630D01*
X144920745Y-58864631D01*
X144750476Y-58924211D01*
X144597737Y-59020184D01*
X144470184Y-59147737D01*
X144374211Y-59300476D01*
X144314631Y-59470745D01*
X144314630Y-59470750D01*
X144294435Y-59649996D01*
X144294435Y-59650003D01*
X141915228Y-59650003D01*
X141932851Y-59637633D01*
X142072688Y-59588702D01*
X142211117Y-59501721D01*
X142326721Y-59386117D01*
X142413702Y-59247688D01*
X142467699Y-59093374D01*
X142467704Y-59093334D01*
X142486004Y-58930916D01*
X142486004Y-58930909D01*
X142467700Y-58768457D01*
X142467699Y-58768455D01*
X142467699Y-58768452D01*
X142413702Y-58614138D01*
X142413700Y-58614132D01*
X142410682Y-58607865D01*
X142413309Y-58606599D01*
X142397852Y-58551932D01*
X142418210Y-58485094D01*
X142434156Y-58465507D01*
X142501109Y-58398555D01*
X142597082Y-58245815D01*
X142656661Y-58075548D01*
X142662410Y-58024523D01*
X142676858Y-57896296D01*
X142676858Y-57896289D01*
X142656662Y-57717043D01*
X142656661Y-57717038D01*
X142608741Y-57580091D01*
X142597082Y-57546771D01*
X142586075Y-57529254D01*
X142504861Y-57400003D01*
X142501109Y-57394031D01*
X142373555Y-57266477D01*
X142300773Y-57220745D01*
X142220816Y-57170504D01*
X142050547Y-57110924D01*
X142050542Y-57110923D01*
X141871297Y-57090728D01*
X141871289Y-57090728D01*
X141692043Y-57110923D01*
X141692038Y-57110924D01*
X141521769Y-57170504D01*
X141369030Y-57266477D01*
X141241477Y-57394030D01*
X141145504Y-57546769D01*
X141085924Y-57717038D01*
X141085923Y-57717043D01*
X141065728Y-57896289D01*
X141065728Y-57896296D01*
X141085923Y-58075542D01*
X141085924Y-58075547D01*
X141145504Y-58245816D01*
X141196939Y-58327674D01*
X141215939Y-58394911D01*
X141195571Y-58461746D01*
X141188898Y-58470952D01*
X141185106Y-58475707D01*
X141098123Y-58614138D01*
X141064017Y-58711608D01*
X141044127Y-58768452D01*
X141044126Y-58768454D01*
X141041828Y-58775024D01*
X141040203Y-58774455D01*
X141010397Y-58827724D01*
X140948731Y-58860573D01*
X140937512Y-58862360D01*
X140875470Y-58869350D01*
X140705198Y-58928930D01*
X140552457Y-59024904D01*
X140424904Y-59152457D01*
X140328931Y-59305196D01*
X140269351Y-59475465D01*
X140269350Y-59475470D01*
X140249155Y-59654716D01*
X140249155Y-59654723D01*
X134948441Y-59654723D01*
X134993666Y-59626306D01*
X135121220Y-59498752D01*
X135217193Y-59346012D01*
X135276772Y-59175745D01*
X135286054Y-59093368D01*
X135296969Y-58996493D01*
X135296969Y-58996486D01*
X135276773Y-58817240D01*
X135276772Y-58817235D01*
X135217192Y-58646966D01*
X135121219Y-58494227D01*
X134993666Y-58366674D01*
X134840927Y-58270701D01*
X134670658Y-58211121D01*
X134670653Y-58211120D01*
X134491408Y-58190925D01*
X134491400Y-58190925D01*
X134312154Y-58211120D01*
X134312149Y-58211121D01*
X134141880Y-58270701D01*
X133989141Y-58366674D01*
X133861588Y-58494227D01*
X133765615Y-58646966D01*
X133706035Y-58817235D01*
X133706034Y-58817240D01*
X133685839Y-58996486D01*
X133685839Y-58996493D01*
X132647796Y-58996493D01*
X132669759Y-58962319D01*
X132679816Y-58952262D01*
X132775789Y-58799522D01*
X132835368Y-58629255D01*
X132835369Y-58629249D01*
X132855565Y-58450003D01*
X132855565Y-58449996D01*
X132835369Y-58270750D01*
X132835368Y-58270745D01*
X132814504Y-58211120D01*
X132775789Y-58100478D01*
X132764317Y-58082221D01*
X132679815Y-57947737D01*
X132552262Y-57820184D01*
X132399523Y-57724211D01*
X132229254Y-57664631D01*
X132229249Y-57664630D01*
X132050004Y-57644435D01*
X132049996Y-57644435D01*
X131870750Y-57664630D01*
X131870745Y-57664631D01*
X131700476Y-57724211D01*
X131547737Y-57820184D01*
X131420184Y-57947737D01*
X131324211Y-58100476D01*
X131264631Y-58270745D01*
X131264630Y-58270750D01*
X131244435Y-58449996D01*
X131244435Y-58450003D01*
X131264630Y-58629249D01*
X131264631Y-58629254D01*
X131324211Y-58799523D01*
X131420184Y-58952262D01*
X131430241Y-58962319D01*
X131463726Y-59023642D01*
X131458742Y-59093334D01*
X131430241Y-59137681D01*
X131420184Y-59147737D01*
X131324211Y-59300476D01*
X131264631Y-59470745D01*
X131264630Y-59470750D01*
X131244435Y-59649996D01*
X131244435Y-59650003D01*
X115400500Y-59650003D01*
X115400500Y-58194834D01*
X115420185Y-58127795D01*
X115472989Y-58082040D01*
X115542147Y-58072096D01*
X115605703Y-58101121D01*
X115620353Y-58116169D01*
X115739116Y-58260883D01*
X115891460Y-58385909D01*
X115891467Y-58385913D01*
X116065266Y-58478811D01*
X116065269Y-58478811D01*
X116065273Y-58478814D01*
X116253868Y-58536024D01*
X116450000Y-58555341D01*
X116646132Y-58536024D01*
X116834727Y-58478814D01*
X116859642Y-58465497D01*
X116984881Y-58398555D01*
X117008538Y-58385910D01*
X117160883Y-58260883D01*
X117285910Y-58108538D01*
X117332362Y-58021632D01*
X117378811Y-57934733D01*
X117378811Y-57934732D01*
X117378814Y-57934727D01*
X117436024Y-57746132D01*
X117455341Y-57550000D01*
X117436024Y-57353868D01*
X117434852Y-57350003D01*
X134744435Y-57350003D01*
X134764630Y-57529249D01*
X134764631Y-57529254D01*
X134824211Y-57699523D01*
X134900028Y-57820184D01*
X134920184Y-57852262D01*
X135047738Y-57979816D01*
X135138080Y-58036582D01*
X135200092Y-58075547D01*
X135200478Y-58075789D01*
X135343367Y-58125788D01*
X135370745Y-58135368D01*
X135370750Y-58135369D01*
X135549996Y-58155565D01*
X135550000Y-58155565D01*
X135550004Y-58155565D01*
X135729246Y-58135369D01*
X135729245Y-58135369D01*
X135729255Y-58135368D01*
X135824775Y-58101943D01*
X135894553Y-58098382D01*
X135931701Y-58113991D01*
X135950476Y-58125788D01*
X135950478Y-58125789D01*
X136035573Y-58155565D01*
X136120745Y-58185368D01*
X136120750Y-58185369D01*
X136299996Y-58205565D01*
X136300000Y-58205565D01*
X136300004Y-58205565D01*
X136479249Y-58185369D01*
X136479252Y-58185368D01*
X136479255Y-58185368D01*
X136649522Y-58125789D01*
X136802262Y-58029816D01*
X136929816Y-57902262D01*
X136962653Y-57850003D01*
X138394435Y-57850003D01*
X138414630Y-58029249D01*
X138414631Y-58029254D01*
X138474211Y-58199523D01*
X138525770Y-58281578D01*
X138570184Y-58352262D01*
X138697738Y-58479816D01*
X138706138Y-58485094D01*
X138817933Y-58555340D01*
X138850478Y-58575789D01*
X138938528Y-58606599D01*
X139020745Y-58635368D01*
X139020750Y-58635369D01*
X139199996Y-58655565D01*
X139200000Y-58655565D01*
X139200004Y-58655565D01*
X139379249Y-58635369D01*
X139379252Y-58635368D01*
X139379255Y-58635368D01*
X139549522Y-58575789D01*
X139702262Y-58479816D01*
X139829816Y-58352262D01*
X139925789Y-58199522D01*
X139985368Y-58029255D01*
X139985901Y-58024523D01*
X140005565Y-57850003D01*
X140005565Y-57849996D01*
X139985369Y-57670750D01*
X139985368Y-57670745D01*
X139947242Y-57561787D01*
X139925789Y-57500478D01*
X139829816Y-57347738D01*
X139702262Y-57220184D01*
X139549523Y-57124211D01*
X139379254Y-57064631D01*
X139379249Y-57064630D01*
X139200004Y-57044435D01*
X139199996Y-57044435D01*
X139020750Y-57064630D01*
X139020745Y-57064631D01*
X138850476Y-57124211D01*
X138697737Y-57220184D01*
X138570184Y-57347737D01*
X138474211Y-57500476D01*
X138414631Y-57670745D01*
X138414630Y-57670750D01*
X138394435Y-57849996D01*
X138394435Y-57850003D01*
X136962653Y-57850003D01*
X137025789Y-57749522D01*
X137085368Y-57579255D01*
X137087336Y-57561787D01*
X137105565Y-57400003D01*
X137105565Y-57399996D01*
X137085369Y-57220750D01*
X137085368Y-57220745D01*
X137066483Y-57166774D01*
X137025789Y-57050478D01*
X137008626Y-57023164D01*
X136947631Y-56926091D01*
X136929816Y-56897738D01*
X136882081Y-56850003D01*
X142669909Y-56850003D01*
X142688212Y-57012455D01*
X142742210Y-57166774D01*
X142776126Y-57220750D01*
X142829192Y-57305204D01*
X142944796Y-57420808D01*
X143083225Y-57507789D01*
X143237539Y-57561786D01*
X143237542Y-57561786D01*
X143237544Y-57561787D01*
X143399996Y-57580091D01*
X143400000Y-57580091D01*
X143400004Y-57580091D01*
X143562455Y-57561787D01*
X143562456Y-57561786D01*
X143562461Y-57561786D01*
X143716775Y-57507789D01*
X143855204Y-57420808D01*
X143970808Y-57305204D01*
X144057789Y-57166775D01*
X144111786Y-57012461D01*
X144113136Y-57000478D01*
X144130091Y-56850003D01*
X144130091Y-56849996D01*
X144111787Y-56687544D01*
X144111786Y-56687542D01*
X144111786Y-56687539D01*
X144057789Y-56533225D01*
X143970808Y-56394796D01*
X143855204Y-56279192D01*
X143776623Y-56229816D01*
X143716774Y-56192210D01*
X143562455Y-56138212D01*
X143400004Y-56119909D01*
X143399996Y-56119909D01*
X143237544Y-56138212D01*
X143083225Y-56192210D01*
X142944795Y-56279192D01*
X142829192Y-56394795D01*
X142742210Y-56533225D01*
X142688212Y-56687544D01*
X142669909Y-56849996D01*
X142669909Y-56850003D01*
X136882081Y-56850003D01*
X136802262Y-56770184D01*
X136731608Y-56725789D01*
X136649523Y-56674211D01*
X136479254Y-56614631D01*
X136479249Y-56614630D01*
X136300004Y-56594435D01*
X136299996Y-56594435D01*
X136120746Y-56614631D01*
X136120745Y-56614631D01*
X136025221Y-56648055D01*
X135955442Y-56651616D01*
X135918299Y-56636008D01*
X135899523Y-56624211D01*
X135899521Y-56624210D01*
X135729262Y-56564633D01*
X135729249Y-56564630D01*
X135550004Y-56544435D01*
X135549996Y-56544435D01*
X135370750Y-56564630D01*
X135370745Y-56564631D01*
X135200476Y-56624211D01*
X135047737Y-56720184D01*
X134920184Y-56847737D01*
X134824211Y-57000476D01*
X134764631Y-57170745D01*
X134764630Y-57170750D01*
X134744435Y-57349996D01*
X134744435Y-57350003D01*
X117434852Y-57350003D01*
X117378814Y-57165273D01*
X117378811Y-57165269D01*
X117378811Y-57165266D01*
X117285913Y-56991467D01*
X117285909Y-56991460D01*
X117160883Y-56839116D01*
X117008539Y-56714090D01*
X117008532Y-56714086D01*
X116834733Y-56621188D01*
X116834727Y-56621186D01*
X116648295Y-56564632D01*
X116646129Y-56563975D01*
X116450000Y-56544659D01*
X116253870Y-56563975D01*
X116065266Y-56621188D01*
X115891467Y-56714086D01*
X115891460Y-56714090D01*
X115739116Y-56839116D01*
X115620353Y-56983830D01*
X115562607Y-57023164D01*
X115492763Y-57025035D01*
X115432994Y-56988847D01*
X115402279Y-56926091D01*
X115400500Y-56905165D01*
X115400500Y-56000003D01*
X130244435Y-56000003D01*
X130264630Y-56179249D01*
X130264631Y-56179254D01*
X130324211Y-56349523D01*
X130359127Y-56405091D01*
X130420184Y-56502262D01*
X130547738Y-56629816D01*
X130638080Y-56686582D01*
X130691557Y-56720184D01*
X130700478Y-56725789D01*
X130827352Y-56770184D01*
X130870745Y-56785368D01*
X130870750Y-56785369D01*
X131049996Y-56805565D01*
X131050000Y-56805565D01*
X131050004Y-56805565D01*
X131229249Y-56785369D01*
X131229252Y-56785368D01*
X131229255Y-56785368D01*
X131399522Y-56725789D01*
X131408443Y-56720184D01*
X131438341Y-56701397D01*
X131496460Y-56664878D01*
X131563696Y-56645878D01*
X131630531Y-56666245D01*
X131642125Y-56675686D01*
X131642295Y-56675475D01*
X131647737Y-56679815D01*
X131647738Y-56679816D01*
X131702285Y-56714090D01*
X131791557Y-56770184D01*
X131800478Y-56775789D01*
X131885573Y-56805565D01*
X131970745Y-56835368D01*
X131970750Y-56835369D01*
X132149996Y-56855565D01*
X132150000Y-56855565D01*
X132150004Y-56855565D01*
X132329249Y-56835369D01*
X132329252Y-56835368D01*
X132329255Y-56835368D01*
X132499522Y-56775789D01*
X132652262Y-56679816D01*
X132779816Y-56552262D01*
X132875789Y-56399522D01*
X132935368Y-56229255D01*
X132955565Y-56050000D01*
X132954824Y-56043429D01*
X132966876Y-55974610D01*
X133014222Y-55923229D01*
X133081831Y-55905601D01*
X133148238Y-55927324D01*
X133183037Y-55963571D01*
X133270179Y-56102256D01*
X133270184Y-56102262D01*
X133397738Y-56229816D01*
X133550478Y-56325789D01*
X133720745Y-56385368D01*
X133720750Y-56385369D01*
X133899996Y-56405565D01*
X133900000Y-56405565D01*
X133900004Y-56405565D01*
X134079249Y-56385369D01*
X134079252Y-56385368D01*
X134079255Y-56385368D01*
X134249522Y-56325789D01*
X134402262Y-56229816D01*
X134529816Y-56102262D01*
X134625789Y-55949522D01*
X134685368Y-55779255D01*
X134685369Y-55779249D01*
X134705565Y-55600003D01*
X134705565Y-55599996D01*
X134685369Y-55420750D01*
X134685368Y-55420745D01*
X134651589Y-55324211D01*
X134625789Y-55250478D01*
X134625491Y-55250003D01*
X136394435Y-55250003D01*
X136414630Y-55429249D01*
X136414631Y-55429254D01*
X136474211Y-55599523D01*
X136537646Y-55700478D01*
X136570184Y-55752262D01*
X136697738Y-55879816D01*
X136738601Y-55905492D01*
X136850479Y-55975790D01*
X136890483Y-55989787D01*
X136902874Y-55994123D01*
X136959651Y-56034844D01*
X136978963Y-56070211D01*
X137024210Y-56199521D01*
X137043245Y-56229815D01*
X137120184Y-56352262D01*
X137247738Y-56479816D01*
X137283461Y-56502262D01*
X137382721Y-56564632D01*
X137400478Y-56575789D01*
X137554878Y-56629816D01*
X137570745Y-56635368D01*
X137570750Y-56635369D01*
X137749996Y-56655565D01*
X137750000Y-56655565D01*
X137750004Y-56655565D01*
X137929249Y-56635369D01*
X137929252Y-56635368D01*
X137929255Y-56635368D01*
X138099522Y-56575789D01*
X138252262Y-56479816D01*
X138379816Y-56352262D01*
X138475789Y-56199522D01*
X138535368Y-56029255D01*
X138538664Y-56000003D01*
X138555565Y-55850003D01*
X138555565Y-55849996D01*
X138535848Y-55675003D01*
X144044909Y-55675003D01*
X144063212Y-55837455D01*
X144117210Y-55991774D01*
X144140761Y-56029255D01*
X144204192Y-56130204D01*
X144319796Y-56245808D01*
X144458225Y-56332789D01*
X144612539Y-56386786D01*
X144612542Y-56386786D01*
X144612544Y-56386787D01*
X144774996Y-56405091D01*
X144775000Y-56405091D01*
X144775004Y-56405091D01*
X144937455Y-56386787D01*
X144937456Y-56386786D01*
X144937461Y-56386786D01*
X145091775Y-56332789D01*
X145230204Y-56245808D01*
X145345808Y-56130204D01*
X145432789Y-55991775D01*
X145486786Y-55837461D01*
X145486787Y-55837455D01*
X145505091Y-55675003D01*
X145505091Y-55674996D01*
X145486787Y-55512544D01*
X145486786Y-55512542D01*
X145486786Y-55512539D01*
X145432789Y-55358225D01*
X145345808Y-55219796D01*
X145230204Y-55104192D01*
X145168074Y-55065153D01*
X145091774Y-55017210D01*
X144937455Y-54963212D01*
X144775004Y-54944909D01*
X144774996Y-54944909D01*
X144612544Y-54963212D01*
X144458225Y-55017210D01*
X144319795Y-55104192D01*
X144204192Y-55219795D01*
X144117210Y-55358225D01*
X144063212Y-55512544D01*
X144044909Y-55674996D01*
X144044909Y-55675003D01*
X138535848Y-55675003D01*
X138535369Y-55670750D01*
X138535368Y-55670745D01*
X138528276Y-55650476D01*
X138475789Y-55500478D01*
X138474067Y-55497738D01*
X138431033Y-55429249D01*
X138379816Y-55347738D01*
X138252262Y-55220184D01*
X138211283Y-55194435D01*
X138099524Y-55124212D01*
X138099523Y-55124211D01*
X138047122Y-55105875D01*
X137990346Y-55065153D01*
X137971037Y-55029790D01*
X137925789Y-54900478D01*
X137829816Y-54747738D01*
X137702262Y-54620184D01*
X137647720Y-54585913D01*
X137549523Y-54524211D01*
X137379254Y-54464631D01*
X137379249Y-54464630D01*
X137200004Y-54444435D01*
X137199996Y-54444435D01*
X137020750Y-54464630D01*
X137020745Y-54464631D01*
X136850476Y-54524211D01*
X136697737Y-54620184D01*
X136570184Y-54747737D01*
X136474211Y-54900476D01*
X136414631Y-55070745D01*
X136414630Y-55070750D01*
X136394435Y-55249996D01*
X136394435Y-55250003D01*
X134625491Y-55250003D01*
X134603265Y-55214632D01*
X134576447Y-55171951D01*
X134529816Y-55097738D01*
X134402262Y-54970184D01*
X134291326Y-54900478D01*
X134249523Y-54874211D01*
X134079254Y-54814631D01*
X134079249Y-54814630D01*
X133900004Y-54794435D01*
X133899996Y-54794435D01*
X133720750Y-54814630D01*
X133720745Y-54814631D01*
X133550476Y-54874211D01*
X133397737Y-54970184D01*
X133270184Y-55097737D01*
X133174211Y-55250476D01*
X133114631Y-55420745D01*
X133114630Y-55420750D01*
X133094435Y-55599996D01*
X133094435Y-55600000D01*
X133095176Y-55606574D01*
X133083120Y-55675396D01*
X133035770Y-55726775D01*
X132968160Y-55744398D01*
X132901754Y-55722671D01*
X132866961Y-55686428D01*
X132779815Y-55547737D01*
X132652262Y-55420184D01*
X132499523Y-55324211D01*
X132329254Y-55264631D01*
X132329249Y-55264630D01*
X132150004Y-55244435D01*
X132149996Y-55244435D01*
X131970750Y-55264630D01*
X131970745Y-55264631D01*
X131800476Y-55324211D01*
X131703539Y-55385121D01*
X131636302Y-55404121D01*
X131569467Y-55383753D01*
X131557874Y-55374312D01*
X131557705Y-55374525D01*
X131552262Y-55370184D01*
X131399523Y-55274211D01*
X131229254Y-55214631D01*
X131229249Y-55214630D01*
X131050004Y-55194435D01*
X131049996Y-55194435D01*
X130870750Y-55214630D01*
X130870745Y-55214631D01*
X130700476Y-55274211D01*
X130547737Y-55370184D01*
X130420184Y-55497737D01*
X130324211Y-55650476D01*
X130264631Y-55820745D01*
X130264630Y-55820750D01*
X130244435Y-55999996D01*
X130244435Y-56000003D01*
X115400500Y-56000003D01*
X115400500Y-54394834D01*
X115420185Y-54327795D01*
X115472989Y-54282040D01*
X115542147Y-54272096D01*
X115605703Y-54301121D01*
X115620353Y-54316169D01*
X115739116Y-54460883D01*
X115891460Y-54585909D01*
X115891467Y-54585913D01*
X116065266Y-54678811D01*
X116065269Y-54678811D01*
X116065273Y-54678814D01*
X116253868Y-54736024D01*
X116450000Y-54755341D01*
X116646132Y-54736024D01*
X116834727Y-54678814D01*
X117008538Y-54585910D01*
X117160883Y-54460883D01*
X117285910Y-54308538D01*
X117355014Y-54179254D01*
X117378811Y-54134733D01*
X117378811Y-54134732D01*
X117378814Y-54134727D01*
X117436024Y-53946132D01*
X117455341Y-53750000D01*
X117436024Y-53553868D01*
X117404517Y-53450003D01*
X122944435Y-53450003D01*
X122964630Y-53629249D01*
X122964631Y-53629254D01*
X123024211Y-53799523D01*
X123087660Y-53900500D01*
X123120184Y-53952262D01*
X123247738Y-54079816D01*
X123400478Y-54175789D01*
X123570745Y-54235368D01*
X123570750Y-54235369D01*
X123749996Y-54255565D01*
X123750000Y-54255565D01*
X123750004Y-54255565D01*
X123929249Y-54235369D01*
X123929252Y-54235368D01*
X123929255Y-54235368D01*
X124099522Y-54175789D01*
X124252262Y-54079816D01*
X124332075Y-54000003D01*
X141869435Y-54000003D01*
X141889630Y-54179249D01*
X141889631Y-54179254D01*
X141949211Y-54349523D01*
X141977682Y-54394834D01*
X142045184Y-54502262D01*
X142172738Y-54629816D01*
X142325478Y-54725789D01*
X142388202Y-54747737D01*
X142495745Y-54785368D01*
X142495750Y-54785369D01*
X142674996Y-54805565D01*
X142675000Y-54805565D01*
X142675004Y-54805565D01*
X142854249Y-54785369D01*
X142854252Y-54785368D01*
X142854255Y-54785368D01*
X143024522Y-54725789D01*
X143177262Y-54629816D01*
X143304816Y-54502262D01*
X143400789Y-54349522D01*
X143460368Y-54179255D01*
X143460759Y-54175788D01*
X143480565Y-54000003D01*
X143480565Y-53999996D01*
X143460369Y-53820750D01*
X143460368Y-53820745D01*
X143435613Y-53750000D01*
X143400789Y-53650478D01*
X143304816Y-53497738D01*
X143177262Y-53370184D01*
X143074422Y-53305565D01*
X143024523Y-53274211D01*
X142854254Y-53214631D01*
X142854249Y-53214630D01*
X142675004Y-53194435D01*
X142674996Y-53194435D01*
X142495750Y-53214630D01*
X142495745Y-53214631D01*
X142325476Y-53274211D01*
X142172737Y-53370184D01*
X142045184Y-53497737D01*
X141949211Y-53650476D01*
X141889631Y-53820745D01*
X141889630Y-53820750D01*
X141869435Y-53999996D01*
X141869435Y-54000003D01*
X124332075Y-54000003D01*
X124379816Y-53952262D01*
X124475789Y-53799522D01*
X124535368Y-53629255D01*
X124546302Y-53532214D01*
X124555565Y-53450003D01*
X124555565Y-53449996D01*
X124535369Y-53270750D01*
X124535368Y-53270745D01*
X124515733Y-53214631D01*
X124475789Y-53100478D01*
X124379816Y-52947738D01*
X124252262Y-52820184D01*
X124238830Y-52811744D01*
X124099523Y-52724211D01*
X123929254Y-52664631D01*
X123929249Y-52664630D01*
X123750004Y-52644435D01*
X123749996Y-52644435D01*
X123570750Y-52664630D01*
X123570745Y-52664631D01*
X123400476Y-52724211D01*
X123247737Y-52820184D01*
X123120184Y-52947737D01*
X123024211Y-53100476D01*
X122964631Y-53270745D01*
X122964630Y-53270750D01*
X122944435Y-53449996D01*
X122944435Y-53450003D01*
X117404517Y-53450003D01*
X117378814Y-53365273D01*
X117378811Y-53365269D01*
X117378811Y-53365266D01*
X117285913Y-53191467D01*
X117285909Y-53191460D01*
X117160883Y-53039116D01*
X117008539Y-52914090D01*
X117008532Y-52914086D01*
X116834733Y-52821188D01*
X116834727Y-52821186D01*
X116646132Y-52763976D01*
X116646129Y-52763975D01*
X116450000Y-52744659D01*
X116253870Y-52763975D01*
X116065266Y-52821188D01*
X115891467Y-52914086D01*
X115891460Y-52914090D01*
X115739116Y-53039116D01*
X115620353Y-53183830D01*
X115562607Y-53223164D01*
X115492763Y-53225035D01*
X115432994Y-53188847D01*
X115402279Y-53126091D01*
X115400500Y-53105165D01*
X115400500Y-52500003D01*
X119394435Y-52500003D01*
X119414630Y-52679249D01*
X119414631Y-52679254D01*
X119474211Y-52849523D01*
X119535924Y-52947738D01*
X119570184Y-53002262D01*
X119697738Y-53129816D01*
X119783701Y-53183830D01*
X119832721Y-53214632D01*
X119850478Y-53225789D01*
X119988860Y-53274211D01*
X120020745Y-53285368D01*
X120020750Y-53285369D01*
X120199996Y-53305565D01*
X120200000Y-53305565D01*
X120200004Y-53305565D01*
X120379249Y-53285369D01*
X120379252Y-53285368D01*
X120379255Y-53285368D01*
X120549522Y-53225789D01*
X120702262Y-53129816D01*
X120829816Y-53002262D01*
X120925789Y-52849522D01*
X120985368Y-52679255D01*
X120986774Y-52666779D01*
X121005565Y-52500003D01*
X121005565Y-52499996D01*
X121004160Y-52487528D01*
X125644435Y-52487528D01*
X125664630Y-52666774D01*
X125664631Y-52666779D01*
X125724211Y-52837048D01*
X125732050Y-52849523D01*
X125820184Y-52989787D01*
X125947738Y-53117341D01*
X125967592Y-53129816D01*
X126065697Y-53191460D01*
X126100478Y-53213314D01*
X126104245Y-53214632D01*
X126270745Y-53272893D01*
X126270750Y-53272894D01*
X126449996Y-53293090D01*
X126450000Y-53293090D01*
X126450004Y-53293090D01*
X126629249Y-53272894D01*
X126629252Y-53272893D01*
X126629255Y-53272893D01*
X126799522Y-53213314D01*
X126952262Y-53117341D01*
X127069603Y-53000000D01*
X131744540Y-53000000D01*
X131764326Y-53188256D01*
X131764327Y-53188259D01*
X131822818Y-53368277D01*
X131822821Y-53368284D01*
X131917467Y-53532216D01*
X132004836Y-53629249D01*
X132044129Y-53672888D01*
X132197265Y-53784148D01*
X132197270Y-53784151D01*
X132370192Y-53861142D01*
X132370197Y-53861144D01*
X132555354Y-53900500D01*
X132555355Y-53900500D01*
X132744644Y-53900500D01*
X132744646Y-53900500D01*
X132929803Y-53861144D01*
X133102730Y-53784151D01*
X133255871Y-53672888D01*
X133382533Y-53532216D01*
X133477179Y-53368284D01*
X133535674Y-53188256D01*
X133555460Y-53000000D01*
X133535674Y-52811744D01*
X133477179Y-52631716D01*
X133382533Y-52467784D01*
X133255871Y-52327112D01*
X133255870Y-52327111D01*
X133102734Y-52215851D01*
X133102729Y-52215848D01*
X132929807Y-52138857D01*
X132929802Y-52138855D01*
X132784001Y-52107865D01*
X132744646Y-52099500D01*
X132555354Y-52099500D01*
X132522897Y-52106398D01*
X132370197Y-52138855D01*
X132370192Y-52138857D01*
X132197270Y-52215848D01*
X132197265Y-52215851D01*
X132044129Y-52327111D01*
X131917466Y-52467785D01*
X131822821Y-52631715D01*
X131822818Y-52631722D01*
X131764327Y-52811740D01*
X131764326Y-52811744D01*
X131744540Y-53000000D01*
X127069603Y-53000000D01*
X127079816Y-52989787D01*
X127175789Y-52837047D01*
X127235368Y-52666780D01*
X127235610Y-52664631D01*
X127255565Y-52487528D01*
X127255565Y-52487521D01*
X127235369Y-52308275D01*
X127235368Y-52308270D01*
X127175788Y-52138001D01*
X127097034Y-52012666D01*
X127079816Y-51985263D01*
X126952262Y-51857709D01*
X126951313Y-51857113D01*
X126799523Y-51761736D01*
X126629254Y-51702156D01*
X126629249Y-51702155D01*
X126450004Y-51681960D01*
X126449996Y-51681960D01*
X126270750Y-51702155D01*
X126270745Y-51702156D01*
X126100476Y-51761736D01*
X125947737Y-51857709D01*
X125820184Y-51985262D01*
X125724211Y-52138001D01*
X125664631Y-52308270D01*
X125664630Y-52308275D01*
X125644435Y-52487521D01*
X125644435Y-52487528D01*
X121004160Y-52487528D01*
X120985369Y-52320750D01*
X120985368Y-52320745D01*
X120925788Y-52150476D01*
X120886582Y-52088080D01*
X120829816Y-51997738D01*
X120702262Y-51870184D01*
X120681460Y-51857113D01*
X120549523Y-51774211D01*
X120379254Y-51714631D01*
X120379249Y-51714630D01*
X120200004Y-51694435D01*
X120199996Y-51694435D01*
X120020750Y-51714630D01*
X120020745Y-51714631D01*
X119850476Y-51774211D01*
X119697737Y-51870184D01*
X119570184Y-51997737D01*
X119474211Y-52150476D01*
X119414631Y-52320745D01*
X119414630Y-52320750D01*
X119394435Y-52499996D01*
X119394435Y-52500003D01*
X115400500Y-52500003D01*
X115400500Y-50200000D01*
X116644341Y-50200000D01*
X116664936Y-50435403D01*
X116664938Y-50435413D01*
X116726094Y-50663655D01*
X116726096Y-50663659D01*
X116726097Y-50663663D01*
X116776031Y-50770746D01*
X116825964Y-50877828D01*
X116825965Y-50877830D01*
X116961505Y-51071402D01*
X117128597Y-51238494D01*
X117322169Y-51374034D01*
X117322171Y-51374035D01*
X117536337Y-51473903D01*
X117764592Y-51535063D01*
X117941032Y-51550499D01*
X117941033Y-51550500D01*
X117941034Y-51550500D01*
X118058967Y-51550500D01*
X118058967Y-51550499D01*
X118235408Y-51535063D01*
X118463663Y-51473903D01*
X118677829Y-51374035D01*
X118871401Y-51238495D01*
X119038495Y-51071401D01*
X119174035Y-50877830D01*
X119174319Y-50877222D01*
X136031012Y-50877222D01*
X136049315Y-51039674D01*
X136103313Y-51193993D01*
X136103314Y-51193994D01*
X136190295Y-51332423D01*
X136305899Y-51448027D01*
X136444328Y-51535008D01*
X136598642Y-51589005D01*
X136598645Y-51589005D01*
X136598647Y-51589006D01*
X136761099Y-51607310D01*
X136761103Y-51607310D01*
X136761107Y-51607310D01*
X136923558Y-51589006D01*
X136923559Y-51589005D01*
X136923564Y-51589005D01*
X137077878Y-51535008D01*
X137216307Y-51448027D01*
X137331911Y-51332423D01*
X137397964Y-51227301D01*
X153742137Y-51227301D01*
X153762332Y-51406547D01*
X153762333Y-51406552D01*
X153821913Y-51576821D01*
X153908505Y-51714630D01*
X153917886Y-51729560D01*
X154045440Y-51857114D01*
X154198180Y-51953087D01*
X154325785Y-51997738D01*
X154368447Y-52012666D01*
X154368452Y-52012667D01*
X154547698Y-52032863D01*
X154547702Y-52032863D01*
X154547706Y-52032863D01*
X154726951Y-52012667D01*
X154726954Y-52012666D01*
X154726957Y-52012666D01*
X154897224Y-51953087D01*
X155049964Y-51857114D01*
X155177518Y-51729560D01*
X155273491Y-51576820D01*
X155333070Y-51406553D01*
X155336734Y-51374034D01*
X155353267Y-51227301D01*
X155353267Y-51227294D01*
X155333071Y-51048048D01*
X155333070Y-51048043D01*
X155296676Y-50944035D01*
X155273491Y-50877776D01*
X155273138Y-50877215D01*
X155178990Y-50727379D01*
X155177518Y-50725036D01*
X155049964Y-50597482D01*
X155022466Y-50580204D01*
X154897225Y-50501509D01*
X154726956Y-50441929D01*
X154726951Y-50441928D01*
X154547706Y-50421733D01*
X154547698Y-50421733D01*
X154368452Y-50441928D01*
X154368447Y-50441929D01*
X154198178Y-50501509D01*
X154045439Y-50597482D01*
X153917886Y-50725035D01*
X153821913Y-50877774D01*
X153762333Y-51048043D01*
X153762332Y-51048048D01*
X153742137Y-51227294D01*
X153742137Y-51227301D01*
X137397964Y-51227301D01*
X137418892Y-51193994D01*
X137472889Y-51039680D01*
X137479930Y-50977190D01*
X137491194Y-50877222D01*
X137491194Y-50877215D01*
X137472890Y-50714763D01*
X137472889Y-50714761D01*
X137472889Y-50714758D01*
X137418892Y-50560444D01*
X137331911Y-50422015D01*
X137216307Y-50306411D01*
X137186139Y-50287455D01*
X137077877Y-50219429D01*
X136923558Y-50165431D01*
X136761107Y-50147128D01*
X136761099Y-50147128D01*
X136598647Y-50165431D01*
X136444328Y-50219429D01*
X136305898Y-50306411D01*
X136190295Y-50422014D01*
X136103313Y-50560444D01*
X136049315Y-50714763D01*
X136031012Y-50877215D01*
X136031012Y-50877222D01*
X119174319Y-50877222D01*
X119273903Y-50663663D01*
X119335063Y-50435408D01*
X119355659Y-50200000D01*
X119349097Y-50125003D01*
X138694909Y-50125003D01*
X138713212Y-50287455D01*
X138767210Y-50441774D01*
X138771018Y-50447834D01*
X138854192Y-50580204D01*
X138969796Y-50695808D01*
X139108225Y-50782789D01*
X139262539Y-50836786D01*
X139262542Y-50836786D01*
X139262544Y-50836787D01*
X139424996Y-50855091D01*
X139425000Y-50855091D01*
X139425004Y-50855091D01*
X139587455Y-50836787D01*
X139587456Y-50836786D01*
X139587461Y-50836786D01*
X139741775Y-50782789D01*
X139880204Y-50695808D01*
X139908168Y-50667844D01*
X141240000Y-50667844D01*
X141246401Y-50727372D01*
X141246403Y-50727379D01*
X141296645Y-50862086D01*
X141296649Y-50862093D01*
X141382809Y-50977187D01*
X141382812Y-50977190D01*
X141497906Y-51063350D01*
X141497913Y-51063354D01*
X141632620Y-51113596D01*
X141632627Y-51113598D01*
X141692155Y-51119999D01*
X141692172Y-51120000D01*
X142340000Y-51120000D01*
X142340000Y-50205501D01*
X142447685Y-50254680D01*
X142554237Y-50270000D01*
X142625763Y-50270000D01*
X142732315Y-50254680D01*
X142840000Y-50205501D01*
X142840000Y-51120000D01*
X143487828Y-51120000D01*
X143487844Y-51119999D01*
X143547372Y-51113598D01*
X143547379Y-51113596D01*
X143682086Y-51063354D01*
X143682093Y-51063350D01*
X143797187Y-50977190D01*
X143797190Y-50977187D01*
X143883350Y-50862093D01*
X143883354Y-50862086D01*
X143932422Y-50730529D01*
X143974293Y-50674595D01*
X144039757Y-50650178D01*
X144108030Y-50665030D01*
X144136285Y-50686181D01*
X144258599Y-50808495D01*
X144325145Y-50855091D01*
X144452165Y-50944032D01*
X144452167Y-50944033D01*
X144452170Y-50944035D01*
X144666337Y-51043903D01*
X144666343Y-51043904D01*
X144666344Y-51043905D01*
X144721285Y-51058626D01*
X144894592Y-51105063D01*
X145065319Y-51120000D01*
X145129999Y-51125659D01*
X145130000Y-51125659D01*
X145130001Y-51125659D01*
X145194681Y-51120000D01*
X145365408Y-51105063D01*
X145593663Y-51043903D01*
X145807830Y-50944035D01*
X146001401Y-50808495D01*
X146168495Y-50641401D01*
X146298425Y-50455842D01*
X146353002Y-50412217D01*
X146422500Y-50405023D01*
X146484855Y-50436546D01*
X146501575Y-50455842D01*
X146631500Y-50641395D01*
X146631505Y-50641401D01*
X146798599Y-50808495D01*
X146865145Y-50855091D01*
X146992165Y-50944032D01*
X146992167Y-50944033D01*
X146992170Y-50944035D01*
X147206337Y-51043903D01*
X147206343Y-51043904D01*
X147206344Y-51043905D01*
X147261285Y-51058626D01*
X147434592Y-51105063D01*
X147605319Y-51120000D01*
X147669999Y-51125659D01*
X147670000Y-51125659D01*
X147670001Y-51125659D01*
X147734681Y-51120000D01*
X147905408Y-51105063D01*
X148133663Y-51043903D01*
X148347830Y-50944035D01*
X148541401Y-50808495D01*
X148708495Y-50641401D01*
X148838425Y-50455842D01*
X148893002Y-50412217D01*
X148962500Y-50405023D01*
X149024855Y-50436546D01*
X149041575Y-50455842D01*
X149171500Y-50641395D01*
X149171505Y-50641401D01*
X149338599Y-50808495D01*
X149405145Y-50855091D01*
X149532165Y-50944032D01*
X149532167Y-50944033D01*
X149532170Y-50944035D01*
X149746337Y-51043903D01*
X149746343Y-51043904D01*
X149746344Y-51043905D01*
X149801285Y-51058626D01*
X149974592Y-51105063D01*
X150145319Y-51120000D01*
X150209999Y-51125659D01*
X150210000Y-51125659D01*
X150210001Y-51125659D01*
X150274681Y-51120000D01*
X150445408Y-51105063D01*
X150673663Y-51043903D01*
X150887830Y-50944035D01*
X151081401Y-50808495D01*
X151248495Y-50641401D01*
X151384035Y-50447830D01*
X151483903Y-50233663D01*
X151492923Y-50200000D01*
X164619341Y-50200000D01*
X164639936Y-50435403D01*
X164639938Y-50435413D01*
X164701094Y-50663655D01*
X164701096Y-50663659D01*
X164701097Y-50663663D01*
X164751031Y-50770746D01*
X164800964Y-50877828D01*
X164800965Y-50877830D01*
X164936505Y-51071402D01*
X165103597Y-51238494D01*
X165297169Y-51374034D01*
X165297171Y-51374035D01*
X165511337Y-51473903D01*
X165739592Y-51535063D01*
X165916032Y-51550499D01*
X165916033Y-51550500D01*
X165916034Y-51550500D01*
X166033967Y-51550500D01*
X166033967Y-51550499D01*
X166210408Y-51535063D01*
X166438663Y-51473903D01*
X166652829Y-51374035D01*
X166846401Y-51238495D01*
X167013495Y-51071401D01*
X167149035Y-50877830D01*
X167248903Y-50663663D01*
X167310063Y-50435408D01*
X167330659Y-50200000D01*
X167310063Y-49964592D01*
X167248903Y-49736337D01*
X167149035Y-49522171D01*
X167149034Y-49522169D01*
X167013494Y-49328597D01*
X166846402Y-49161505D01*
X166652830Y-49025965D01*
X166652828Y-49025964D01*
X166545746Y-48976031D01*
X166438663Y-48926097D01*
X166438659Y-48926096D01*
X166438655Y-48926094D01*
X166210413Y-48864938D01*
X166210403Y-48864936D01*
X166033967Y-48849500D01*
X166033966Y-48849500D01*
X165916034Y-48849500D01*
X165916033Y-48849500D01*
X165739596Y-48864936D01*
X165739586Y-48864938D01*
X165511344Y-48926094D01*
X165511335Y-48926098D01*
X165297171Y-49025964D01*
X165297169Y-49025965D01*
X165103597Y-49161505D01*
X164936506Y-49328597D01*
X164936501Y-49328604D01*
X164800967Y-49522165D01*
X164800965Y-49522169D01*
X164701098Y-49736335D01*
X164701094Y-49736344D01*
X164639938Y-49964586D01*
X164639936Y-49964596D01*
X164619341Y-50199999D01*
X164619341Y-50200000D01*
X151492923Y-50200000D01*
X151545063Y-50005408D01*
X151565659Y-49770000D01*
X151545063Y-49534592D01*
X151489868Y-49328599D01*
X151483905Y-49306344D01*
X151483904Y-49306343D01*
X151483903Y-49306337D01*
X151384035Y-49092171D01*
X151378425Y-49084158D01*
X151248494Y-48898597D01*
X151081402Y-48731506D01*
X151081395Y-48731501D01*
X150887834Y-48595967D01*
X150887830Y-48595965D01*
X150816727Y-48562809D01*
X150673663Y-48496097D01*
X150673659Y-48496096D01*
X150673655Y-48496094D01*
X150445413Y-48434938D01*
X150445403Y-48434936D01*
X150210001Y-48414341D01*
X150209999Y-48414341D01*
X149974596Y-48434936D01*
X149974586Y-48434938D01*
X149746344Y-48496094D01*
X149746335Y-48496098D01*
X149532171Y-48595964D01*
X149532169Y-48595965D01*
X149338597Y-48731505D01*
X149171505Y-48898597D01*
X149041575Y-49084158D01*
X148986998Y-49127783D01*
X148917500Y-49134977D01*
X148855145Y-49103454D01*
X148838425Y-49084158D01*
X148708494Y-48898597D01*
X148541402Y-48731506D01*
X148541395Y-48731501D01*
X148347834Y-48595967D01*
X148347830Y-48595965D01*
X148276727Y-48562809D01*
X148133663Y-48496097D01*
X148133659Y-48496096D01*
X148133655Y-48496094D01*
X147905413Y-48434938D01*
X147905403Y-48434936D01*
X147670001Y-48414341D01*
X147669999Y-48414341D01*
X147434596Y-48434936D01*
X147434586Y-48434938D01*
X147206344Y-48496094D01*
X147206335Y-48496098D01*
X146992171Y-48595964D01*
X146992169Y-48595965D01*
X146798597Y-48731505D01*
X146631505Y-48898597D01*
X146501575Y-49084158D01*
X146446998Y-49127783D01*
X146377500Y-49134977D01*
X146315145Y-49103454D01*
X146298425Y-49084158D01*
X146168494Y-48898597D01*
X146001402Y-48731506D01*
X146001395Y-48731501D01*
X145807834Y-48595967D01*
X145807830Y-48595965D01*
X145736727Y-48562809D01*
X145593663Y-48496097D01*
X145593659Y-48496096D01*
X145593655Y-48496094D01*
X145365413Y-48434938D01*
X145365403Y-48434936D01*
X145130001Y-48414341D01*
X145129999Y-48414341D01*
X144894596Y-48434936D01*
X144894586Y-48434938D01*
X144666344Y-48496094D01*
X144666335Y-48496098D01*
X144452171Y-48595964D01*
X144452169Y-48595965D01*
X144258600Y-48731503D01*
X144136284Y-48853819D01*
X144074961Y-48887303D01*
X144005269Y-48882319D01*
X143949336Y-48840447D01*
X143932421Y-48809470D01*
X143883354Y-48677913D01*
X143883350Y-48677906D01*
X143797190Y-48562812D01*
X143797187Y-48562809D01*
X143682093Y-48476649D01*
X143682086Y-48476645D01*
X143547379Y-48426403D01*
X143547372Y-48426401D01*
X143487844Y-48420000D01*
X142840000Y-48420000D01*
X142840000Y-49334498D01*
X142732315Y-49285320D01*
X142625763Y-49270000D01*
X142554237Y-49270000D01*
X142447685Y-49285320D01*
X142340000Y-49334498D01*
X142340000Y-48420000D01*
X141692155Y-48420000D01*
X141632627Y-48426401D01*
X141632620Y-48426403D01*
X141497913Y-48476645D01*
X141497906Y-48476649D01*
X141382812Y-48562809D01*
X141382809Y-48562812D01*
X141296649Y-48677906D01*
X141296645Y-48677913D01*
X141246403Y-48812620D01*
X141246401Y-48812627D01*
X141240000Y-48872155D01*
X141240000Y-49520000D01*
X142156314Y-49520000D01*
X142130507Y-49560156D01*
X142090000Y-49698111D01*
X142090000Y-49841889D01*
X142130507Y-49979844D01*
X142156314Y-50020000D01*
X141240000Y-50020000D01*
X141240000Y-50667844D01*
X139908168Y-50667844D01*
X139995808Y-50580204D01*
X140082789Y-50441775D01*
X140136786Y-50287461D01*
X140136787Y-50287455D01*
X140155091Y-50125003D01*
X140155091Y-50124996D01*
X140136787Y-49962544D01*
X140136786Y-49962542D01*
X140136786Y-49962539D01*
X140082789Y-49808225D01*
X139995808Y-49669796D01*
X139880204Y-49554192D01*
X139829243Y-49522171D01*
X139741774Y-49467210D01*
X139587455Y-49413212D01*
X139425004Y-49394909D01*
X139424996Y-49394909D01*
X139262544Y-49413212D01*
X139108225Y-49467210D01*
X138969795Y-49554192D01*
X138854192Y-49669795D01*
X138767210Y-49808225D01*
X138713212Y-49962544D01*
X138694909Y-50124996D01*
X138694909Y-50125003D01*
X119349097Y-50125003D01*
X119335063Y-49964592D01*
X119273903Y-49736337D01*
X119174035Y-49522171D01*
X119174034Y-49522169D01*
X119038494Y-49328597D01*
X118871402Y-49161505D01*
X118677830Y-49025965D01*
X118677828Y-49025964D01*
X118570746Y-48976031D01*
X118463663Y-48926097D01*
X118463659Y-48926096D01*
X118463655Y-48926094D01*
X118235413Y-48864938D01*
X118235403Y-48864936D01*
X118058967Y-48849500D01*
X118058966Y-48849500D01*
X117941034Y-48849500D01*
X117941033Y-48849500D01*
X117764596Y-48864936D01*
X117764586Y-48864938D01*
X117536344Y-48926094D01*
X117536335Y-48926098D01*
X117322171Y-49025964D01*
X117322169Y-49025965D01*
X117128597Y-49161505D01*
X116961506Y-49328597D01*
X116961501Y-49328604D01*
X116825967Y-49522165D01*
X116825965Y-49522169D01*
X116726098Y-49736335D01*
X116726094Y-49736344D01*
X116664938Y-49964586D01*
X116664936Y-49964596D01*
X116644341Y-50199999D01*
X116644341Y-50200000D01*
X115400500Y-50200000D01*
X115400500Y-48124500D01*
X115420185Y-48057461D01*
X115472989Y-48011706D01*
X115524500Y-48000500D01*
X167975500Y-48000500D01*
X168042539Y-48020185D01*
G37*
%TD.AperFunction*%
%TD*%
M02*
