M48
; DRILL file {KiCad 7.0.11-7.0.11~ubuntu22.04.1} date Tue 26 Nov 2024 11:25:41 CET
; FORMAT={-:-/ absolute / metric / decimal}
; #@! TF.CreationDate,2024-11-26T11:25:41+01:00
; #@! TF.GenerationSoftware,Kicad,Pcbnew,7.0.11-7.0.11~ubuntu22.04.1
; #@! TF.FileFunction,Plated,1,4,PTH
FMAT,2
METRIC
; #@! TA.AperFunction,Plated,PTH,ViaDrill
T1C0.200
; #@! TA.AperFunction,Plated,PTH,ViaDrill
T2C0.300
; #@! TA.AperFunction,Plated,PTH,ViaDrill
T3C0.500
; #@! TA.AperFunction,Plated,PTH,ComponentDrill
T4C0.500
; #@! TA.AperFunction,Plated,PTH,ComponentDrill
T5C0.600
; #@! TA.AperFunction,Plated,PTH,ComponentDrill
T6C1.000
%
G90
G05
T1
X132.0Y-64.75
X132.702Y-65.035
X133.46Y-71.91
X134.52Y-70.78
X136.761Y-50.877
X139.075Y-51.725
X139.425Y-50.125
X141.756Y-58.931
X142.675Y-69.225
X142.675Y-69.925
X142.675Y-70.556
X142.675Y-71.188
X142.675Y-71.819
X142.675Y-72.45
X143.4Y-56.85
X144.775Y-55.675
X155.17Y-60.91
T2
X116.75Y-71.85
X117.75Y-58.5
X117.75Y-69.15
X118.114Y-67.164
X119.448Y-65.198
X119.5Y-56.65
X120.05Y-56.65
X120.2Y-52.5
X121.05Y-66.45
X121.15Y-71.85
X122.35Y-66.55
X123.05Y-77.8
X123.3Y-75.4
X123.75Y-53.45
X124.5Y-58.15
X124.85Y-77.8
X124.95Y-70.75
X125.249Y-52.486
X125.3Y-73.05
X125.57Y-65.85
X126.025Y-66.75
X126.45Y-52.488
X127.618Y-71.88
X128.1Y-69.72
X129.577Y-63.727
X129.95Y-54.2
X131.05Y-56.0
X131.13Y-68.03
X131.41Y-68.65
X131.91Y-69.13
X132.05Y-58.45
X132.05Y-59.65
X132.15Y-56.05
X132.15Y-61.7
X132.41Y-69.62
X132.8Y-62.45
X132.91Y-70.1
X133.0Y-65.75
X133.4Y-63.65
X133.41Y-70.58
X133.9Y-55.6
X134.1Y-66.7
X134.491Y-58.996
X135.55Y-57.35
X135.74Y-70.74
X135.815Y-72.32
X136.2Y-66.2
X136.24Y-70.25
X136.3Y-57.4
X137.2Y-55.25
X137.75Y-55.85
X138.15Y-67.85
X138.75Y-62.22
X138.75Y-63.05
X138.75Y-64.0
X139.2Y-57.85
X139.25Y-71.59
X141.055Y-59.655
X141.8Y-65.95
X141.871Y-57.896
X142.675Y-54.0
X142.8Y-66.8
X144.2Y-67.98
X144.975Y-73.5
X144.975Y-74.421
X144.975Y-75.343
X144.975Y-76.264
X144.975Y-77.186
X144.975Y-78.107
X144.975Y-79.029
X145.1Y-59.65
X145.91Y-61.95
X146.725Y-57.675
X146.8Y-68.7
X147.9Y-58.85
X148.775Y-72.75
X150.3Y-69.35
X150.35Y-66.875
X151.85Y-52.85
X152.6Y-65.375
X153.375Y-65.375
X153.675Y-51.875
X153.68Y-75.6
X154.548Y-51.227
X155.6Y-75.5
X156.1Y-61.3
X156.25Y-66.25
X157.125Y-74.5
X158.85Y-60.35
X159.0Y-61.5
X161.15Y-66.85
X162.975Y-51.325
X163.55Y-70.8
X164.5Y-71.6
X166.99Y-72.51
T3
X132.65Y-53.0
T4
X116.45Y-53.75
X116.45Y-57.55
X116.45Y-69.99
X116.45Y-73.79
X166.98Y-70.7
X166.98Y-74.5
T6
X142.59Y-49.77
X145.13Y-49.77
X147.67Y-49.77
X150.21Y-49.77
T5
X127.595Y-73.54G85X127.595Y-74.64
G05
X127.595Y-77.97G85X127.595Y-78.57
G05
X136.235Y-73.54G85X136.235Y-74.64
G05
X136.235Y-77.97G85X136.235Y-78.57
G05
M30
