%TF.GenerationSoftware,KiCad,Pcbnew,7.0.11-7.0.11~ubuntu22.04.1*%
%TF.CreationDate,2024-11-26T11:44:11+01:00*%
%TF.ProjectId,H-C6-ulp,482d4336-2d75-46c7-902e-6b696361645f,rev?*%
%TF.SameCoordinates,Original*%
%TF.FileFunction,Copper,L4,Bot*%
%TF.FilePolarity,Positive*%
%FSLAX46Y46*%
G04 Gerber Fmt 4.6, Leading zero omitted, Abs format (unit mm)*
G04 Created by KiCad (PCBNEW 7.0.11-7.0.11~ubuntu22.04.1) date 2024-11-26 11:44:11*
%MOMM*%
%LPD*%
G01*
G04 APERTURE LIST*
G04 Aperture macros list*
%AMRotRect*
0 Rectangle, with rotation*
0 The origin of the aperture is its center*
0 $1 length*
0 $2 width*
0 $3 Rotation angle, in degrees counterclockwise*
0 Add horizontal line*
21,1,$1,$2,0,0,$3*%
%AMOutline5P*
0 Free polygon, 5 corners , with rotation*
0 The origin of the aperture is its center*
0 number of corners: always 5*
0 $1 to $10 corner X, Y*
0 $11 Rotation angle, in degrees counterclockwise*
0 create outline with 5 corners*
4,1,5,$1,$2,$3,$4,$5,$6,$7,$8,$9,$10,$1,$2,$11*%
%AMOutline6P*
0 Free polygon, 6 corners , with rotation*
0 The origin of the aperture is its center*
0 number of corners: always 6*
0 $1 to $12 corner X, Y*
0 $13 Rotation angle, in degrees counterclockwise*
0 create outline with 6 corners*
4,1,6,$1,$2,$3,$4,$5,$6,$7,$8,$9,$10,$11,$12,$1,$2,$13*%
%AMOutline7P*
0 Free polygon, 7 corners , with rotation*
0 The origin of the aperture is its center*
0 number of corners: always 7*
0 $1 to $14 corner X, Y*
0 $15 Rotation angle, in degrees counterclockwise*
0 create outline with 7 corners*
4,1,7,$1,$2,$3,$4,$5,$6,$7,$8,$9,$10,$11,$12,$13,$14,$1,$2,$15*%
%AMOutline8P*
0 Free polygon, 8 corners , with rotation*
0 The origin of the aperture is its center*
0 number of corners: always 8*
0 $1 to $16 corner X, Y*
0 $17 Rotation angle, in degrees counterclockwise*
0 create outline with 8 corners*
4,1,8,$1,$2,$3,$4,$5,$6,$7,$8,$9,$10,$11,$12,$13,$14,$15,$16,$1,$2,$17*%
%AMFreePoly0*
4,1,21,0.435355,0.485355,0.450000,0.450000,0.450000,0.206001,0.479746,0.140866,0.500000,0.000000,0.479746,-0.140866,0.452741,-0.200000,0.900000,-0.200000,0.935355,-0.214645,0.950000,-0.250000,0.950000,-1.150000,0.935355,-1.185355,0.900000,-1.200000,-0.900000,-1.200000,-0.935355,-1.185355,-0.950000,-1.150000,-0.950000,0.450000,-0.935355,0.485355,-0.900000,0.500000,0.400000,0.500000,
0.435355,0.485355,0.435355,0.485355,$1*%
%AMFreePoly1*
4,1,21,0.935355,0.485355,0.950000,0.450000,0.950000,-1.150000,0.935355,-1.185355,0.900000,-1.200000,-0.900000,-1.200000,-0.935355,-1.185355,-0.950000,-1.150000,-0.950000,-0.250000,-0.935355,-0.214645,-0.900000,-0.200000,-0.452741,-0.200000,-0.479746,-0.140866,-0.500000,0.000000,-0.479746,0.140866,-0.450000,0.206001,-0.450000,0.450000,-0.435355,0.485355,-0.400000,0.500000,0.900000,0.500000,
0.935355,0.485355,0.935355,0.485355,$1*%
G04 Aperture macros list end*
%TA.AperFunction,ComponentPad*%
%ADD10O,1.000000X2.100000*%
%TD*%
%TA.AperFunction,ComponentPad*%
%ADD11O,1.000000X1.600000*%
%TD*%
%TA.AperFunction,ComponentPad*%
%ADD12R,1.700000X1.700000*%
%TD*%
%TA.AperFunction,ComponentPad*%
%ADD13O,1.700000X1.700000*%
%TD*%
%TA.AperFunction,SMDPad,CuDef*%
%ADD14R,1.000000X0.800000*%
%TD*%
%TA.AperFunction,SMDPad,CuDef*%
%ADD15R,0.700000X1.100000*%
%TD*%
%TA.AperFunction,ComponentPad*%
%ADD16C,1.000000*%
%TD*%
%TA.AperFunction,SMDPad,CuDef*%
%ADD17FreePoly0,270.000000*%
%TD*%
%TA.AperFunction,SMDPad,CuDef*%
%ADD18FreePoly1,270.000000*%
%TD*%
%TA.AperFunction,SMDPad,CuDef*%
%ADD19FreePoly0,90.000000*%
%TD*%
%TA.AperFunction,SMDPad,CuDef*%
%ADD20FreePoly1,90.000000*%
%TD*%
%TA.AperFunction,SMDPad,CuDef*%
%ADD21Outline5P,-0.950000X1.225000X0.950000X1.225000X0.950000X-1.225000X-0.570000X-1.225000X-0.950000X-0.845000X45.000000*%
%TD*%
%TA.AperFunction,SMDPad,CuDef*%
%ADD22RotRect,4.100000X1.700000X135.000000*%
%TD*%
%TA.AperFunction,ViaPad*%
%ADD23C,0.600000*%
%TD*%
%TA.AperFunction,ViaPad*%
%ADD24C,0.450000*%
%TD*%
%TA.AperFunction,ViaPad*%
%ADD25C,0.800000*%
%TD*%
%TA.AperFunction,Conductor*%
%ADD26C,0.400000*%
%TD*%
%TA.AperFunction,Conductor*%
%ADD27C,0.300000*%
%TD*%
%TA.AperFunction,Conductor*%
%ADD28C,0.600000*%
%TD*%
%TA.AperFunction,Conductor*%
%ADD29C,0.200000*%
%TD*%
%TA.AperFunction,Conductor*%
%ADD30C,0.250000*%
%TD*%
G04 APERTURE END LIST*
D10*
%TO.P,J1,S1,SHIELD*%
%TO.N,GND*%
X127595000Y-74090000D03*
D11*
X127595000Y-78270000D03*
D10*
X136235000Y-74090000D03*
D11*
X136235000Y-78270000D03*
%TD*%
D12*
%TO.P,J5,1,Pin_1*%
%TO.N,GND*%
X142590000Y-49770000D03*
D13*
%TO.P,J5,2,Pin_2*%
%TO.N,VDD33*%
X145130000Y-49770000D03*
%TO.P,J5,3,Pin_3*%
%TO.N,/SCL*%
X147670000Y-49770000D03*
%TO.P,J5,4,Pin_4*%
%TO.N,/SDA*%
X150210000Y-49770000D03*
%TD*%
D14*
%TO.P,U6,1,1*%
%TO.N,GND*%
X117780000Y-73190000D03*
%TO.P,U6,2,2*%
%TO.N,SW19*%
X117780000Y-70590000D03*
D15*
%TO.P,U6,3,3*%
%TO.N,unconnected-(U6-Pad3)*%
X117820000Y-71890000D03*
D16*
%TO.P,U6,4,4*%
%TO.N,unconnected-(U6-Pad4)*%
X116450000Y-69990000D03*
D17*
X116450000Y-69990000D03*
D16*
%TO.P,U6,5,5*%
%TO.N,unconnected-(U6-Pad5)*%
X116450000Y-73790000D03*
D18*
X116450000Y-73790000D03*
%TD*%
D14*
%TO.P,U4,1,1*%
%TO.N,GND*%
X117780000Y-56950000D03*
%TO.P,U4,2,2*%
%TO.N,SW18*%
X117780000Y-54350000D03*
D15*
%TO.P,U4,3,3*%
%TO.N,unconnected-(U4-Pad3)*%
X117820000Y-55650000D03*
D16*
%TO.P,U4,4,4*%
%TO.N,unconnected-(U4-Pad4)*%
X116450000Y-53750000D03*
D17*
X116450000Y-53750000D03*
D16*
%TO.P,U4,5,5*%
%TO.N,unconnected-(U4-Pad5)*%
X116450000Y-57550000D03*
D18*
X116450000Y-57550000D03*
%TD*%
D14*
%TO.P,U5,1,1*%
%TO.N,GND*%
X165650000Y-71300000D03*
%TO.P,U5,2,2*%
%TO.N,/EPD_RST*%
X165650000Y-73900000D03*
D15*
%TO.P,U5,3,3*%
%TO.N,unconnected-(U5-Pad3)*%
X165610000Y-72600000D03*
D16*
%TO.P,U5,4,4*%
%TO.N,unconnected-(U5-Pad4)*%
X166980000Y-74500000D03*
D19*
X166980000Y-74500000D03*
D16*
%TO.P,U5,5,5*%
%TO.N,unconnected-(U5-Pad5)*%
X166980000Y-70700000D03*
D20*
X166980000Y-70700000D03*
%TD*%
D21*
%TO.P,C24,1*%
%TO.N,VDD_RTC*%
X125445860Y-62808418D03*
D22*
%TO.P,C24,2*%
%TO.N,GND*%
X123420000Y-66100000D03*
%TD*%
D23*
%TO.N,GND*%
X144975000Y-74421428D03*
X124500000Y-58150000D03*
X134100000Y-66700000D03*
X138750000Y-64000000D03*
X131910000Y-69130000D03*
D24*
X142675000Y-72450000D03*
D23*
X148775000Y-72750000D03*
X128100000Y-69720000D03*
X132410000Y-69620000D03*
X121050000Y-66450000D03*
X144975000Y-77185712D03*
X147900000Y-58850000D03*
X122350000Y-66550000D03*
X144975000Y-76264284D03*
X144975000Y-79028568D03*
X129950000Y-54200000D03*
X144975000Y-78107140D03*
D24*
X142675000Y-71818750D03*
D23*
X155600000Y-75500000D03*
X151850000Y-52850000D03*
D24*
X142675000Y-69925000D03*
D23*
X116750000Y-71850000D03*
X133410000Y-70580000D03*
D24*
X142675000Y-71187500D03*
D23*
X119500000Y-56650000D03*
X120050000Y-56650000D03*
X125570000Y-65850000D03*
X135740000Y-70740000D03*
D24*
X142675000Y-70556250D03*
D23*
X138750000Y-63050000D03*
D24*
X139075000Y-51725000D03*
D23*
X156250000Y-66250000D03*
X156100000Y-61300000D03*
X162975000Y-51325000D03*
X139250000Y-71590000D03*
X144975000Y-73500000D03*
X121150000Y-71850000D03*
X150300000Y-69350000D03*
X150350000Y-66875000D03*
X157125000Y-74500000D03*
D24*
X134520000Y-70780000D03*
D23*
X138750000Y-62220000D03*
X132910000Y-70100000D03*
X135815000Y-72320000D03*
X117750000Y-58500000D03*
X131130000Y-68030000D03*
X166990000Y-72510000D03*
X144975000Y-75342856D03*
X131410000Y-68650000D03*
X125248959Y-52486484D03*
X153680000Y-75600000D03*
X153675000Y-51875000D03*
D24*
X142675000Y-69225000D03*
D23*
X127617525Y-71880000D03*
X136240000Y-70250000D03*
%TO.N,ENABLE*%
X142800000Y-66800000D03*
X124950000Y-70750000D03*
%TO.N,VDD33*%
X123750000Y-53450000D03*
X144200000Y-67980000D03*
X138150000Y-67850000D03*
X153375000Y-65375000D03*
X118113679Y-67163679D03*
X163550000Y-70800000D03*
X136200000Y-66200000D03*
X154547702Y-51227298D03*
X141800000Y-65950000D03*
X126450000Y-52487525D03*
X141871293Y-57896293D03*
X161150000Y-66850000D03*
D24*
X139425000Y-50125000D03*
D23*
X134491404Y-58996490D03*
X142675000Y-54000000D03*
X145100000Y-59650000D03*
X152600000Y-65375000D03*
D25*
X132650000Y-53000000D03*
D23*
%TO.N,Net-(D2-A)*%
X146800000Y-68700000D03*
X146725000Y-57675000D03*
%TO.N,VDD_RTC*%
X133900000Y-55600000D03*
%TO.N,VBUS*%
X126025000Y-66750000D03*
X129577298Y-63727298D03*
%TO.N,SW19*%
X117750000Y-69150000D03*
X132800000Y-62450000D03*
D24*
%TO.N,/EPD_RST*%
X155170000Y-60910000D03*
D23*
X164500000Y-71600000D03*
%TO.N,/EPD_BUSY*%
X145910000Y-61950000D03*
X159000000Y-61500000D03*
%TO.N,unconnected-(J2-Pad19)*%
X158850000Y-60350000D03*
%TO.N,/RTC_EVI*%
X137750000Y-55850000D03*
X136300000Y-57400000D03*
D24*
%TO.N,/RTC_SQW*%
X136761103Y-50877219D03*
D23*
X133400000Y-63650000D03*
%TO.N,Net-(U1-GPIO8)*%
X141054720Y-59654720D03*
D24*
X143400000Y-56850000D03*
%TO.N,/SDA*%
X141755913Y-58930913D03*
X144775000Y-55675000D03*
D23*
%TO.N,/RTC_INT*%
X135550000Y-57350000D03*
X137200000Y-55250000D03*
D24*
%TO.N,/IO_21*%
X132000000Y-64750000D03*
D23*
X123300000Y-75400000D03*
D24*
%TO.N,/IO_22*%
X132701922Y-65034613D03*
D23*
X123050000Y-77800000D03*
%TO.N,/IO_23*%
X133000000Y-65750000D03*
X124850000Y-77800000D03*
%TO.N,/IO_TX*%
X132050000Y-58450000D03*
X132150000Y-56050000D03*
%TO.N,/IO_RX*%
X131050000Y-56000000D03*
X132050000Y-59650000D03*
D24*
%TO.N,Net-(J1-CC2)*%
X133460000Y-71910000D03*
D23*
X125300000Y-73050000D03*
%TO.N,BOOT*%
X119447702Y-65197702D03*
X139200000Y-57850000D03*
%TO.N,SW18*%
X120200000Y-52500000D03*
X132150000Y-61700000D03*
%TD*%
D26*
%TO.N,GND*%
X166158486Y-71170000D02*
X165650000Y-71170000D01*
D27*
X122970000Y-66550000D02*
X123420000Y-66100000D01*
X117780000Y-58470000D02*
X117750000Y-58500000D01*
D26*
X125570000Y-65850000D02*
X123670000Y-65850000D01*
D27*
X122350000Y-66550000D02*
X122970000Y-66550000D01*
X117780000Y-56950000D02*
X117780000Y-58470000D01*
D26*
X166990000Y-72510000D02*
X166990000Y-72001514D01*
D27*
X116750000Y-72160000D02*
X117780000Y-73190000D01*
D26*
X166990000Y-72001514D02*
X166158486Y-71170000D01*
D27*
X116750000Y-71850000D02*
X116750000Y-72160000D01*
D28*
X120050000Y-56650000D02*
X119500000Y-56650000D01*
D26*
X123670000Y-65850000D02*
X123420000Y-66100000D01*
D27*
%TO.N,ENABLE*%
X127330000Y-69800000D02*
X127515000Y-69985000D01*
X134280000Y-71340000D02*
X128870000Y-71340000D01*
X124950000Y-70750000D02*
X125900000Y-69800000D01*
X137980000Y-71620000D02*
X134560000Y-71620000D01*
X142800000Y-66800000D02*
X137980000Y-71620000D01*
X125900000Y-69800000D02*
X127330000Y-69800000D01*
X134560000Y-71620000D02*
X134280000Y-71340000D01*
X128870000Y-71340000D02*
X127515000Y-69985000D01*
D29*
%TO.N,VDD_RTC*%
X131400000Y-61400000D02*
X133900000Y-58900000D01*
X133900000Y-58900000D02*
X133900000Y-55600000D01*
X128600000Y-61400000D02*
X131400000Y-61400000D01*
X125445860Y-62808418D02*
X127191582Y-62808418D01*
X127191582Y-62808418D02*
X128600000Y-61400000D01*
D30*
%TO.N,SW19*%
X122457564Y-63774390D02*
X117750000Y-68481954D01*
X126600000Y-64950000D02*
X124150000Y-64950000D01*
X122974390Y-63774390D02*
X122457564Y-63774390D01*
D27*
X117750000Y-70560000D02*
X117780000Y-70590000D01*
D30*
X129100000Y-62450000D02*
X126600000Y-64950000D01*
X117750000Y-68481954D02*
X117750000Y-69150000D01*
X132800000Y-62450000D02*
X129100000Y-62450000D01*
X124150000Y-64950000D02*
X122974390Y-63774390D01*
D27*
X117750000Y-69150000D02*
X117750000Y-70560000D01*
D29*
%TO.N,/EPD_RST*%
X156560000Y-59520000D02*
X158940000Y-59520000D01*
X160100000Y-60680000D02*
X160100000Y-68220000D01*
X164350000Y-71450000D02*
X164500000Y-71600000D01*
X160100000Y-68400000D02*
X162875000Y-71175000D01*
X162875000Y-71175000D02*
X163150000Y-71450000D01*
X155170000Y-60910000D02*
X156560000Y-59520000D01*
X160100000Y-68220000D02*
X160100000Y-68400000D01*
X163150000Y-71450000D02*
X165600000Y-73900000D01*
X158940000Y-59520000D02*
X160100000Y-60680000D01*
X163150000Y-71450000D02*
X164350000Y-71450000D01*
%TO.N,/EPD_BUSY*%
X159000000Y-61500000D02*
X158300000Y-62200000D01*
X158300000Y-62200000D02*
X146160000Y-62200000D01*
X146160000Y-62200000D02*
X145910000Y-61950000D01*
D30*
%TO.N,/RTC_EVI*%
X137750000Y-55850000D02*
X137500000Y-56100000D01*
X137500000Y-56100000D02*
X137100000Y-56100000D01*
X136300000Y-56900000D02*
X136300000Y-57400000D01*
X137100000Y-56100000D02*
X136300000Y-56900000D01*
D29*
%TO.N,/RTC_SQW*%
X133400000Y-63650000D02*
X134269239Y-63650000D01*
X140125000Y-57794239D02*
X140125000Y-54241116D01*
X140125000Y-54241116D02*
X136761103Y-50877219D01*
X134269239Y-63650000D02*
X140125000Y-57794239D01*
%TO.N,Net-(U1-GPIO8)*%
X142950000Y-57300000D02*
X142950000Y-58550000D01*
X142950000Y-58550000D02*
X141845280Y-59654720D01*
X143400000Y-56850000D02*
X142950000Y-57300000D01*
X141845280Y-59654720D02*
X141054720Y-59654720D01*
%TO.N,/SDA*%
X144775000Y-55675000D02*
X143575000Y-55675000D01*
X143575000Y-55675000D02*
X142600000Y-56650000D01*
X142600000Y-58086826D02*
X141755913Y-58930913D01*
X142600000Y-56650000D02*
X142600000Y-58086826D01*
D30*
%TO.N,/RTC_INT*%
X135550000Y-56900000D02*
X135550000Y-57350000D01*
X137200000Y-55250000D02*
X135550000Y-56900000D01*
D29*
%TO.N,/IO_21*%
X132000000Y-64750000D02*
X129150000Y-67600000D01*
X123300000Y-69850000D02*
X123300000Y-75400000D01*
X125550000Y-67600000D02*
X124200000Y-68950000D01*
X129150000Y-67600000D02*
X125550000Y-67600000D01*
X124200000Y-68950000D02*
X123300000Y-69850000D01*
%TO.N,/IO_22*%
X132520413Y-65034613D02*
X129455026Y-68100000D01*
X123900000Y-70000000D02*
X123900000Y-76950000D01*
X123900000Y-76950000D02*
X123050000Y-77800000D01*
X129455026Y-68100000D02*
X125800000Y-68100000D01*
X132701922Y-65034613D02*
X132520413Y-65034613D01*
X125800000Y-68100000D02*
X123900000Y-70000000D01*
%TO.N,/IO_23*%
X124400000Y-77350000D02*
X124850000Y-77800000D01*
X129500000Y-68550000D02*
X126100000Y-68550000D01*
X133000000Y-65750000D02*
X131450000Y-67300000D01*
X130750000Y-67300000D02*
X129500000Y-68550000D01*
X126100000Y-68550000D02*
X124400000Y-70250000D01*
X131450000Y-67300000D02*
X130750000Y-67300000D01*
X124400000Y-70250000D02*
X124400000Y-77350000D01*
%TO.N,/IO_TX*%
X132050000Y-56150000D02*
X132150000Y-56050000D01*
X132050000Y-58450000D02*
X132050000Y-56150000D01*
%TO.N,/IO_RX*%
X132050000Y-59650000D02*
X131050000Y-58650000D01*
X131050000Y-58650000D02*
X131050000Y-56000000D01*
D27*
%TO.N,Net-(J1-CC2)*%
X133460000Y-71910000D02*
X128720000Y-71910000D01*
X126890000Y-72580000D02*
X125770000Y-72580000D01*
X125770000Y-72580000D02*
X125300000Y-73050000D01*
X128720000Y-71910000D02*
X128050000Y-72580000D01*
X128050000Y-72580000D02*
X126890000Y-72580000D01*
%TO.N,BOOT*%
X119450000Y-65195404D02*
X119447702Y-65197702D01*
X121256470Y-53993530D02*
X121256470Y-59293530D01*
D30*
X139750000Y-57300000D02*
X139750000Y-54650000D01*
D27*
X136200000Y-51200000D02*
X124050000Y-51200000D01*
X124050000Y-51200000D02*
X121256470Y-53993530D01*
X121256470Y-59293530D02*
X119450000Y-61100000D01*
D30*
X136300000Y-51200000D02*
X136200000Y-51200000D01*
X139750000Y-54650000D02*
X136300000Y-51200000D01*
X139200000Y-57850000D02*
X139750000Y-57300000D01*
D27*
X119450000Y-61100000D02*
X119450000Y-65195404D01*
D30*
%TO.N,SW18*%
X117880000Y-54350000D02*
X117780000Y-54350000D01*
X117780000Y-54350000D02*
X118350000Y-54350000D01*
X118700000Y-65750000D02*
X118700000Y-55170000D01*
X131950000Y-61900000D02*
X129050000Y-61900000D01*
X118350000Y-54350000D02*
X120200000Y-52500000D01*
X124250000Y-64450000D02*
X123174390Y-63374390D01*
X122225610Y-63374390D02*
X119700000Y-65900000D01*
X129050000Y-61900000D02*
X126500000Y-64450000D01*
X118700000Y-55170000D02*
X117880000Y-54350000D01*
X118850000Y-65900000D02*
X118700000Y-65750000D01*
X126500000Y-64450000D02*
X124250000Y-64450000D01*
X123174390Y-63374390D02*
X122225610Y-63374390D01*
X132150000Y-61700000D02*
X131950000Y-61900000D01*
X119700000Y-65900000D02*
X118850000Y-65900000D01*
%TD*%
%TA.AperFunction,Conductor*%
%TO.N,GND*%
G36*
X150542856Y-67244785D02*
G01*
X150588704Y-67297508D01*
X150600000Y-67349218D01*
X150600000Y-80000780D01*
X150580315Y-80067819D01*
X150527511Y-80113574D01*
X150475781Y-80124780D01*
X136548540Y-80100217D01*
X136481536Y-80080414D01*
X136435874Y-80027529D01*
X136424759Y-79976460D01*
X136418060Y-76533051D01*
X136410010Y-72394741D01*
X136429564Y-72327664D01*
X136482279Y-72281806D01*
X136534010Y-72270500D01*
X137894495Y-72270500D01*
X137910505Y-72272267D01*
X137910528Y-72272026D01*
X137918289Y-72272758D01*
X137918296Y-72272760D01*
X137988262Y-72270560D01*
X137992157Y-72270500D01*
X138020925Y-72270500D01*
X138025287Y-72269948D01*
X138036939Y-72269030D01*
X138082569Y-72267597D01*
X138102956Y-72261673D01*
X138121996Y-72257731D01*
X138143058Y-72255071D01*
X138185520Y-72238258D01*
X138196557Y-72234480D01*
X138240398Y-72221744D01*
X138258665Y-72210939D01*
X138276136Y-72202380D01*
X138295871Y-72194568D01*
X138332816Y-72167725D01*
X138342558Y-72161326D01*
X138381865Y-72138081D01*
X138396870Y-72123075D01*
X138411668Y-72110436D01*
X138428837Y-72097963D01*
X138457946Y-72062774D01*
X138465790Y-72054154D01*
X142898224Y-67621720D01*
X142959545Y-67588237D01*
X142972019Y-67586183D01*
X142979255Y-67585368D01*
X143149522Y-67525789D01*
X143302262Y-67429816D01*
X143325973Y-67406104D01*
X143387292Y-67372621D01*
X143456984Y-67377604D01*
X143512918Y-67419475D01*
X143537336Y-67484939D01*
X143522485Y-67553212D01*
X143518646Y-67559759D01*
X143474211Y-67630476D01*
X143414631Y-67800745D01*
X143414630Y-67800750D01*
X143394435Y-67979996D01*
X143394435Y-67980003D01*
X143414630Y-68159249D01*
X143414631Y-68159254D01*
X143474211Y-68329523D01*
X143568646Y-68479815D01*
X143570184Y-68482262D01*
X143697738Y-68609816D01*
X143770547Y-68655565D01*
X143841269Y-68700003D01*
X143850478Y-68705789D01*
X144020745Y-68765368D01*
X144020750Y-68765369D01*
X144199996Y-68785565D01*
X144200000Y-68785565D01*
X144200004Y-68785565D01*
X144379249Y-68765369D01*
X144379252Y-68765368D01*
X144379255Y-68765368D01*
X144549522Y-68705789D01*
X144558730Y-68700003D01*
X145994435Y-68700003D01*
X146014630Y-68879249D01*
X146014631Y-68879254D01*
X146074211Y-69049523D01*
X146170184Y-69202262D01*
X146297738Y-69329816D01*
X146450478Y-69425789D01*
X146620745Y-69485368D01*
X146620750Y-69485369D01*
X146799996Y-69505565D01*
X146800000Y-69505565D01*
X146800004Y-69505565D01*
X146979249Y-69485369D01*
X146979252Y-69485368D01*
X146979255Y-69485368D01*
X147149522Y-69425789D01*
X147302262Y-69329816D01*
X147429816Y-69202262D01*
X147525789Y-69049522D01*
X147585368Y-68879255D01*
X147585369Y-68879249D01*
X147605565Y-68700003D01*
X147605565Y-68699996D01*
X147585369Y-68520750D01*
X147585368Y-68520745D01*
X147525788Y-68350476D01*
X147486582Y-68288080D01*
X147429816Y-68197738D01*
X147302262Y-68070184D01*
X147237124Y-68029255D01*
X147149523Y-67974211D01*
X146979254Y-67914631D01*
X146979249Y-67914630D01*
X146800004Y-67894435D01*
X146799996Y-67894435D01*
X146620750Y-67914630D01*
X146620745Y-67914631D01*
X146450476Y-67974211D01*
X146297737Y-68070184D01*
X146170184Y-68197737D01*
X146074211Y-68350476D01*
X146014631Y-68520745D01*
X146014630Y-68520750D01*
X145994435Y-68699996D01*
X145994435Y-68700003D01*
X144558730Y-68700003D01*
X144702262Y-68609816D01*
X144829816Y-68482262D01*
X144925789Y-68329522D01*
X144985368Y-68159255D01*
X144995404Y-68070184D01*
X145005565Y-67980003D01*
X145005565Y-67979996D01*
X144985369Y-67800750D01*
X144985368Y-67800745D01*
X144925788Y-67630476D01*
X144881353Y-67559759D01*
X144829816Y-67477738D01*
X144798818Y-67446740D01*
X144765333Y-67385417D01*
X144770317Y-67315725D01*
X144812189Y-67259792D01*
X144877653Y-67235375D01*
X144886270Y-67235059D01*
X150475784Y-67225218D01*
X150542856Y-67244785D01*
G37*
%TD.AperFunction*%
%TA.AperFunction,Conductor*%
G36*
X141205889Y-67261223D02*
G01*
X141251736Y-67313946D01*
X141261802Y-67383087D01*
X141232889Y-67446694D01*
X141226714Y-67453337D01*
X137746873Y-70933181D01*
X137685550Y-70966666D01*
X137659192Y-70969500D01*
X136530995Y-70969500D01*
X136463956Y-70949815D01*
X136418201Y-70897011D01*
X136406995Y-70845743D01*
X136400241Y-67374021D01*
X136419795Y-67306945D01*
X136472510Y-67261087D01*
X136524020Y-67249781D01*
X137358081Y-67248313D01*
X137425151Y-67267879D01*
X137470998Y-67320602D01*
X137481064Y-67389743D01*
X137463289Y-67438283D01*
X137424212Y-67500474D01*
X137364631Y-67670745D01*
X137364630Y-67670750D01*
X137344435Y-67849996D01*
X137344435Y-67850003D01*
X137364630Y-68029249D01*
X137364631Y-68029254D01*
X137424211Y-68199523D01*
X137505895Y-68329522D01*
X137520184Y-68352262D01*
X137647738Y-68479816D01*
X137800478Y-68575789D01*
X137897719Y-68609815D01*
X137970745Y-68635368D01*
X137970750Y-68635369D01*
X138149996Y-68655565D01*
X138150000Y-68655565D01*
X138150004Y-68655565D01*
X138329249Y-68635369D01*
X138329252Y-68635368D01*
X138329255Y-68635368D01*
X138499522Y-68575789D01*
X138652262Y-68479816D01*
X138779816Y-68352262D01*
X138875789Y-68199522D01*
X138935368Y-68029255D01*
X138935369Y-68029249D01*
X138955565Y-67850003D01*
X138955565Y-67849996D01*
X138935369Y-67670750D01*
X138935368Y-67670745D01*
X138875788Y-67500475D01*
X138834961Y-67435501D01*
X138815960Y-67368264D01*
X138836327Y-67301429D01*
X138889595Y-67256215D01*
X138939733Y-67245528D01*
X141138818Y-67241657D01*
X141205889Y-67261223D01*
G37*
%TD.AperFunction*%
%TD*%
M02*
