%TF.GenerationSoftware,KiCad,Pcbnew,7.0.11-7.0.11~ubuntu22.04.1*%
%TF.CreationDate,2024-11-26T11:25:42+01:00*%
%TF.ProjectId,H-C6-ulp,482d4336-2d75-46c7-902e-6b696361645f,rev?*%
%TF.SameCoordinates,Original*%
%TF.FileFunction,Drillmap*%
%TF.FilePolarity,Positive*%
%FSLAX45Y45*%
G04 Gerber Fmt 4.5, Leading zero omitted, Abs format (unit mm)*
G04 Created by KiCad (PCBNEW 7.0.11-7.0.11~ubuntu22.04.1) date 2024-11-26 11:25:42*
%MOMM*%
%LPD*%
G01*
G04 APERTURE LIST*
%ADD10C,0.100000*%
%ADD11C,0.200000*%
G04 APERTURE END LIST*
D10*
X11500000Y-6450000D02*
X11500000Y-8030000D01*
X11576000Y-6355000D02*
X11576000Y-6450000D01*
X11500000Y-6355000D02*
X11576000Y-6355000D01*
X11540000Y-4760090D02*
G75*
G03*
X11500000Y-4800730I320J-40320D01*
G01*
X11500000Y-6450000D02*
X11576000Y-6450000D01*
X16850000Y-4800000D02*
X16850000Y-5550000D01*
X16819787Y-8059787D02*
G75*
G03*
X16849787Y-8029787I3J29997D01*
G01*
X16350000Y-6960000D02*
X16850000Y-6960000D01*
X16850000Y-6960000D02*
X16850000Y-8030000D01*
X16850000Y-4800000D02*
G75*
G03*
X16810000Y-4760000I-40000J0D01*
G01*
X16350000Y-5550000D02*
X16350000Y-6960000D01*
X11500000Y-8030000D02*
G75*
G03*
X11530000Y-8060000I30000J0D01*
G01*
X16350000Y-5550000D02*
X16850000Y-5550000D01*
X11530000Y-8060000D02*
X16819787Y-8060000D01*
X11500000Y-4800730D02*
X11500000Y-6355000D01*
X16810000Y-4760000D02*
X11540000Y-4760000D01*
D11*
D10*
X13190000Y-6465000D02*
X13210000Y-6485000D01*
X13210000Y-6465000D02*
X13190000Y-6485000D01*
X13260192Y-6493461D02*
X13280192Y-6513461D01*
X13280192Y-6493461D02*
X13260192Y-6513461D01*
X13336000Y-7181000D02*
X13356000Y-7201000D01*
X13356000Y-7181000D02*
X13336000Y-7201000D01*
X13442000Y-7068000D02*
X13462000Y-7088000D01*
X13462000Y-7068000D02*
X13442000Y-7088000D01*
X13666110Y-5077722D02*
X13686110Y-5097722D01*
X13686110Y-5077722D02*
X13666110Y-5097722D01*
X13897500Y-5162500D02*
X13917500Y-5182500D01*
X13917500Y-5162500D02*
X13897500Y-5182500D01*
X13932500Y-5002500D02*
X13952500Y-5022500D01*
X13952500Y-5002500D02*
X13932500Y-5022500D01*
X14165591Y-5883091D02*
X14185591Y-5903091D01*
X14185591Y-5883091D02*
X14165591Y-5903091D01*
X14257500Y-6912500D02*
X14277500Y-6932500D01*
X14277500Y-6912500D02*
X14257500Y-6932500D01*
X14257500Y-6982500D02*
X14277500Y-7002500D01*
X14277500Y-6982500D02*
X14257500Y-7002500D01*
X14257500Y-7045625D02*
X14277500Y-7065625D01*
X14277500Y-7045625D02*
X14257500Y-7065625D01*
X14257500Y-7108750D02*
X14277500Y-7128750D01*
X14277500Y-7108750D02*
X14257500Y-7128750D01*
X14257500Y-7171875D02*
X14277500Y-7191875D01*
X14277500Y-7171875D02*
X14257500Y-7191875D01*
X14257500Y-7235000D02*
X14277500Y-7255000D01*
X14277500Y-7235000D02*
X14257500Y-7255000D01*
X14330000Y-5675000D02*
X14350000Y-5695000D01*
X14350000Y-5675000D02*
X14330000Y-5695000D01*
X14467500Y-5557500D02*
X14487500Y-5577500D01*
X14487500Y-5557500D02*
X14467500Y-5577500D01*
X15507000Y-6081000D02*
X15527000Y-6101000D01*
X15527000Y-6081000D02*
X15507000Y-6101000D01*
X11690000Y-7185000D02*
G75*
G03*
X11660000Y-7185000I-15000J0D01*
G01*
X11660000Y-7185000D02*
G75*
G03*
X11690000Y-7185000I15000J0D01*
G01*
X11790000Y-5850000D02*
G75*
G03*
X11760000Y-5850000I-15000J0D01*
G01*
X11760000Y-5850000D02*
G75*
G03*
X11790000Y-5850000I15000J0D01*
G01*
X11790000Y-6915000D02*
G75*
G03*
X11760000Y-6915000I-15000J0D01*
G01*
X11760000Y-6915000D02*
G75*
G03*
X11790000Y-6915000I15000J0D01*
G01*
X11826368Y-6716368D02*
G75*
G03*
X11796368Y-6716368I-15000J0D01*
G01*
X11796368Y-6716368D02*
G75*
G03*
X11826368Y-6716368I15000J0D01*
G01*
X11959770Y-6519770D02*
G75*
G03*
X11929770Y-6519770I-15000J0D01*
G01*
X11929770Y-6519770D02*
G75*
G03*
X11959770Y-6519770I15000J0D01*
G01*
X11965000Y-5665000D02*
G75*
G03*
X11935000Y-5665000I-15000J0D01*
G01*
X11935000Y-5665000D02*
G75*
G03*
X11965000Y-5665000I15000J0D01*
G01*
X12020000Y-5665000D02*
G75*
G03*
X11990000Y-5665000I-15000J0D01*
G01*
X11990000Y-5665000D02*
G75*
G03*
X12020000Y-5665000I15000J0D01*
G01*
X12035000Y-5250000D02*
G75*
G03*
X12005000Y-5250000I-15000J0D01*
G01*
X12005000Y-5250000D02*
G75*
G03*
X12035000Y-5250000I15000J0D01*
G01*
X12120000Y-6645000D02*
G75*
G03*
X12090000Y-6645000I-15000J0D01*
G01*
X12090000Y-6645000D02*
G75*
G03*
X12120000Y-6645000I15000J0D01*
G01*
X12130000Y-7185000D02*
G75*
G03*
X12100000Y-7185000I-15000J0D01*
G01*
X12100000Y-7185000D02*
G75*
G03*
X12130000Y-7185000I15000J0D01*
G01*
X12250000Y-6655000D02*
G75*
G03*
X12220000Y-6655000I-15000J0D01*
G01*
X12220000Y-6655000D02*
G75*
G03*
X12250000Y-6655000I15000J0D01*
G01*
X12320000Y-7780000D02*
G75*
G03*
X12290000Y-7780000I-15000J0D01*
G01*
X12290000Y-7780000D02*
G75*
G03*
X12320000Y-7780000I15000J0D01*
G01*
X12345000Y-7540000D02*
G75*
G03*
X12315000Y-7540000I-15000J0D01*
G01*
X12315000Y-7540000D02*
G75*
G03*
X12345000Y-7540000I15000J0D01*
G01*
X12390000Y-5345000D02*
G75*
G03*
X12360000Y-5345000I-15000J0D01*
G01*
X12360000Y-5345000D02*
G75*
G03*
X12390000Y-5345000I15000J0D01*
G01*
X12465000Y-5815000D02*
G75*
G03*
X12435000Y-5815000I-15000J0D01*
G01*
X12435000Y-5815000D02*
G75*
G03*
X12465000Y-5815000I15000J0D01*
G01*
X12500000Y-7780000D02*
G75*
G03*
X12470000Y-7780000I-15000J0D01*
G01*
X12470000Y-7780000D02*
G75*
G03*
X12500000Y-7780000I15000J0D01*
G01*
X12510000Y-7075000D02*
G75*
G03*
X12480000Y-7075000I-15000J0D01*
G01*
X12480000Y-7075000D02*
G75*
G03*
X12510000Y-7075000I15000J0D01*
G01*
X12539896Y-5248648D02*
G75*
G03*
X12509896Y-5248648I-15000J0D01*
G01*
X12509896Y-5248648D02*
G75*
G03*
X12539896Y-5248648I15000J0D01*
G01*
X12545000Y-7305000D02*
G75*
G03*
X12515000Y-7305000I-15000J0D01*
G01*
X12515000Y-7305000D02*
G75*
G03*
X12545000Y-7305000I15000J0D01*
G01*
X12572000Y-6585000D02*
G75*
G03*
X12542000Y-6585000I-15000J0D01*
G01*
X12542000Y-6585000D02*
G75*
G03*
X12572000Y-6585000I15000J0D01*
G01*
X12617500Y-6675000D02*
G75*
G03*
X12587500Y-6675000I-15000J0D01*
G01*
X12587500Y-6675000D02*
G75*
G03*
X12617500Y-6675000I15000J0D01*
G01*
X12660000Y-5248753D02*
G75*
G03*
X12630000Y-5248753I-15000J0D01*
G01*
X12630000Y-5248753D02*
G75*
G03*
X12660000Y-5248753I15000J0D01*
G01*
X12776752Y-7188000D02*
G75*
G03*
X12746752Y-7188000I-15000J0D01*
G01*
X12746752Y-7188000D02*
G75*
G03*
X12776752Y-7188000I15000J0D01*
G01*
X12825000Y-6972000D02*
G75*
G03*
X12795000Y-6972000I-15000J0D01*
G01*
X12795000Y-6972000D02*
G75*
G03*
X12825000Y-6972000I15000J0D01*
G01*
X12972730Y-6372730D02*
G75*
G03*
X12942730Y-6372730I-15000J0D01*
G01*
X12942730Y-6372730D02*
G75*
G03*
X12972730Y-6372730I15000J0D01*
G01*
X13010000Y-5420000D02*
G75*
G03*
X12980000Y-5420000I-15000J0D01*
G01*
X12980000Y-5420000D02*
G75*
G03*
X13010000Y-5420000I15000J0D01*
G01*
X13120000Y-5600000D02*
G75*
G03*
X13090000Y-5600000I-15000J0D01*
G01*
X13090000Y-5600000D02*
G75*
G03*
X13120000Y-5600000I15000J0D01*
G01*
X13128000Y-6803000D02*
G75*
G03*
X13098000Y-6803000I-15000J0D01*
G01*
X13098000Y-6803000D02*
G75*
G03*
X13128000Y-6803000I15000J0D01*
G01*
X13156000Y-6865000D02*
G75*
G03*
X13126000Y-6865000I-15000J0D01*
G01*
X13126000Y-6865000D02*
G75*
G03*
X13156000Y-6865000I15000J0D01*
G01*
X13206000Y-6913000D02*
G75*
G03*
X13176000Y-6913000I-15000J0D01*
G01*
X13176000Y-6913000D02*
G75*
G03*
X13206000Y-6913000I15000J0D01*
G01*
X13220000Y-5845000D02*
G75*
G03*
X13190000Y-5845000I-15000J0D01*
G01*
X13190000Y-5845000D02*
G75*
G03*
X13220000Y-5845000I15000J0D01*
G01*
X13220000Y-5965000D02*
G75*
G03*
X13190000Y-5965000I-15000J0D01*
G01*
X13190000Y-5965000D02*
G75*
G03*
X13220000Y-5965000I15000J0D01*
G01*
X13230000Y-5605000D02*
G75*
G03*
X13200000Y-5605000I-15000J0D01*
G01*
X13200000Y-5605000D02*
G75*
G03*
X13230000Y-5605000I15000J0D01*
G01*
X13230000Y-6170000D02*
G75*
G03*
X13200000Y-6170000I-15000J0D01*
G01*
X13200000Y-6170000D02*
G75*
G03*
X13230000Y-6170000I15000J0D01*
G01*
X13256000Y-6962000D02*
G75*
G03*
X13226000Y-6962000I-15000J0D01*
G01*
X13226000Y-6962000D02*
G75*
G03*
X13256000Y-6962000I15000J0D01*
G01*
X13295000Y-6245000D02*
G75*
G03*
X13265000Y-6245000I-15000J0D01*
G01*
X13265000Y-6245000D02*
G75*
G03*
X13295000Y-6245000I15000J0D01*
G01*
X13306000Y-7010000D02*
G75*
G03*
X13276000Y-7010000I-15000J0D01*
G01*
X13276000Y-7010000D02*
G75*
G03*
X13306000Y-7010000I15000J0D01*
G01*
X13315000Y-6575000D02*
G75*
G03*
X13285000Y-6575000I-15000J0D01*
G01*
X13285000Y-6575000D02*
G75*
G03*
X13315000Y-6575000I15000J0D01*
G01*
X13355000Y-6365000D02*
G75*
G03*
X13325000Y-6365000I-15000J0D01*
G01*
X13325000Y-6365000D02*
G75*
G03*
X13355000Y-6365000I15000J0D01*
G01*
X13356000Y-7058000D02*
G75*
G03*
X13326000Y-7058000I-15000J0D01*
G01*
X13326000Y-7058000D02*
G75*
G03*
X13356000Y-7058000I15000J0D01*
G01*
X13405000Y-5560000D02*
G75*
G03*
X13375000Y-5560000I-15000J0D01*
G01*
X13375000Y-5560000D02*
G75*
G03*
X13405000Y-5560000I15000J0D01*
G01*
X13425000Y-6670000D02*
G75*
G03*
X13395000Y-6670000I-15000J0D01*
G01*
X13395000Y-6670000D02*
G75*
G03*
X13425000Y-6670000I15000J0D01*
G01*
X13464140Y-5899649D02*
G75*
G03*
X13434140Y-5899649I-15000J0D01*
G01*
X13434140Y-5899649D02*
G75*
G03*
X13464140Y-5899649I15000J0D01*
G01*
X13570000Y-5735000D02*
G75*
G03*
X13540000Y-5735000I-15000J0D01*
G01*
X13540000Y-5735000D02*
G75*
G03*
X13570000Y-5735000I15000J0D01*
G01*
X13589000Y-7074000D02*
G75*
G03*
X13559000Y-7074000I-15000J0D01*
G01*
X13559000Y-7074000D02*
G75*
G03*
X13589000Y-7074000I15000J0D01*
G01*
X13596500Y-7232000D02*
G75*
G03*
X13566500Y-7232000I-15000J0D01*
G01*
X13566500Y-7232000D02*
G75*
G03*
X13596500Y-7232000I15000J0D01*
G01*
X13635000Y-6620000D02*
G75*
G03*
X13605000Y-6620000I-15000J0D01*
G01*
X13605000Y-6620000D02*
G75*
G03*
X13635000Y-6620000I15000J0D01*
G01*
X13639000Y-7025000D02*
G75*
G03*
X13609000Y-7025000I-15000J0D01*
G01*
X13609000Y-7025000D02*
G75*
G03*
X13639000Y-7025000I15000J0D01*
G01*
X13645000Y-5740000D02*
G75*
G03*
X13615000Y-5740000I-15000J0D01*
G01*
X13615000Y-5740000D02*
G75*
G03*
X13645000Y-5740000I15000J0D01*
G01*
X13735000Y-5525000D02*
G75*
G03*
X13705000Y-5525000I-15000J0D01*
G01*
X13705000Y-5525000D02*
G75*
G03*
X13735000Y-5525000I15000J0D01*
G01*
X13790000Y-5585000D02*
G75*
G03*
X13760000Y-5585000I-15000J0D01*
G01*
X13760000Y-5585000D02*
G75*
G03*
X13790000Y-5585000I15000J0D01*
G01*
X13830000Y-6785000D02*
G75*
G03*
X13800000Y-6785000I-15000J0D01*
G01*
X13800000Y-6785000D02*
G75*
G03*
X13830000Y-6785000I15000J0D01*
G01*
X13890000Y-6222000D02*
G75*
G03*
X13860000Y-6222000I-15000J0D01*
G01*
X13860000Y-6222000D02*
G75*
G03*
X13890000Y-6222000I15000J0D01*
G01*
X13890000Y-6305000D02*
G75*
G03*
X13860000Y-6305000I-15000J0D01*
G01*
X13860000Y-6305000D02*
G75*
G03*
X13890000Y-6305000I15000J0D01*
G01*
X13890000Y-6400000D02*
G75*
G03*
X13860000Y-6400000I-15000J0D01*
G01*
X13860000Y-6400000D02*
G75*
G03*
X13890000Y-6400000I15000J0D01*
G01*
X13935000Y-5785000D02*
G75*
G03*
X13905000Y-5785000I-15000J0D01*
G01*
X13905000Y-5785000D02*
G75*
G03*
X13935000Y-5785000I15000J0D01*
G01*
X13940000Y-7159000D02*
G75*
G03*
X13910000Y-7159000I-15000J0D01*
G01*
X13910000Y-7159000D02*
G75*
G03*
X13940000Y-7159000I15000J0D01*
G01*
X14120472Y-5965472D02*
G75*
G03*
X14090472Y-5965472I-15000J0D01*
G01*
X14090472Y-5965472D02*
G75*
G03*
X14120472Y-5965472I15000J0D01*
G01*
X14195000Y-6595000D02*
G75*
G03*
X14165000Y-6595000I-15000J0D01*
G01*
X14165000Y-6595000D02*
G75*
G03*
X14195000Y-6595000I15000J0D01*
G01*
X14202129Y-5789629D02*
G75*
G03*
X14172129Y-5789629I-15000J0D01*
G01*
X14172129Y-5789629D02*
G75*
G03*
X14202129Y-5789629I15000J0D01*
G01*
X14282500Y-5400000D02*
G75*
G03*
X14252500Y-5400000I-15000J0D01*
G01*
X14252500Y-5400000D02*
G75*
G03*
X14282500Y-5400000I15000J0D01*
G01*
X14295000Y-6680000D02*
G75*
G03*
X14265000Y-6680000I-15000J0D01*
G01*
X14265000Y-6680000D02*
G75*
G03*
X14295000Y-6680000I15000J0D01*
G01*
X14435000Y-6798000D02*
G75*
G03*
X14405000Y-6798000I-15000J0D01*
G01*
X14405000Y-6798000D02*
G75*
G03*
X14435000Y-6798000I15000J0D01*
G01*
X14512500Y-7350000D02*
G75*
G03*
X14482500Y-7350000I-15000J0D01*
G01*
X14482500Y-7350000D02*
G75*
G03*
X14512500Y-7350000I15000J0D01*
G01*
X14512500Y-7442143D02*
G75*
G03*
X14482500Y-7442143I-15000J0D01*
G01*
X14482500Y-7442143D02*
G75*
G03*
X14512500Y-7442143I15000J0D01*
G01*
X14512500Y-7534286D02*
G75*
G03*
X14482500Y-7534286I-15000J0D01*
G01*
X14482500Y-7534286D02*
G75*
G03*
X14512500Y-7534286I15000J0D01*
G01*
X14512500Y-7626428D02*
G75*
G03*
X14482500Y-7626428I-15000J0D01*
G01*
X14482500Y-7626428D02*
G75*
G03*
X14512500Y-7626428I15000J0D01*
G01*
X14512500Y-7718571D02*
G75*
G03*
X14482500Y-7718571I-15000J0D01*
G01*
X14482500Y-7718571D02*
G75*
G03*
X14512500Y-7718571I15000J0D01*
G01*
X14512500Y-7810714D02*
G75*
G03*
X14482500Y-7810714I-15000J0D01*
G01*
X14482500Y-7810714D02*
G75*
G03*
X14512500Y-7810714I15000J0D01*
G01*
X14512500Y-7902857D02*
G75*
G03*
X14482500Y-7902857I-15000J0D01*
G01*
X14482500Y-7902857D02*
G75*
G03*
X14512500Y-7902857I15000J0D01*
G01*
X14525000Y-5965000D02*
G75*
G03*
X14495000Y-5965000I-15000J0D01*
G01*
X14495000Y-5965000D02*
G75*
G03*
X14525000Y-5965000I15000J0D01*
G01*
X14606000Y-6195000D02*
G75*
G03*
X14576000Y-6195000I-15000J0D01*
G01*
X14576000Y-6195000D02*
G75*
G03*
X14606000Y-6195000I15000J0D01*
G01*
X14687500Y-5767500D02*
G75*
G03*
X14657500Y-5767500I-15000J0D01*
G01*
X14657500Y-5767500D02*
G75*
G03*
X14687500Y-5767500I15000J0D01*
G01*
X14695000Y-6870000D02*
G75*
G03*
X14665000Y-6870000I-15000J0D01*
G01*
X14665000Y-6870000D02*
G75*
G03*
X14695000Y-6870000I15000J0D01*
G01*
X14805000Y-5885000D02*
G75*
G03*
X14775000Y-5885000I-15000J0D01*
G01*
X14775000Y-5885000D02*
G75*
G03*
X14805000Y-5885000I15000J0D01*
G01*
X14892500Y-7275000D02*
G75*
G03*
X14862500Y-7275000I-15000J0D01*
G01*
X14862500Y-7275000D02*
G75*
G03*
X14892500Y-7275000I15000J0D01*
G01*
X15045000Y-6935000D02*
G75*
G03*
X15015000Y-6935000I-15000J0D01*
G01*
X15015000Y-6935000D02*
G75*
G03*
X15045000Y-6935000I15000J0D01*
G01*
X15050000Y-6687500D02*
G75*
G03*
X15020000Y-6687500I-15000J0D01*
G01*
X15020000Y-6687500D02*
G75*
G03*
X15050000Y-6687500I15000J0D01*
G01*
X15200000Y-5285000D02*
G75*
G03*
X15170000Y-5285000I-15000J0D01*
G01*
X15170000Y-5285000D02*
G75*
G03*
X15200000Y-5285000I15000J0D01*
G01*
X15275000Y-6537500D02*
G75*
G03*
X15245000Y-6537500I-15000J0D01*
G01*
X15245000Y-6537500D02*
G75*
G03*
X15275000Y-6537500I15000J0D01*
G01*
X15352500Y-6537500D02*
G75*
G03*
X15322500Y-6537500I-15000J0D01*
G01*
X15322500Y-6537500D02*
G75*
G03*
X15352500Y-6537500I15000J0D01*
G01*
X15382500Y-5187500D02*
G75*
G03*
X15352500Y-5187500I-15000J0D01*
G01*
X15352500Y-5187500D02*
G75*
G03*
X15382500Y-5187500I15000J0D01*
G01*
X15383000Y-7560000D02*
G75*
G03*
X15353000Y-7560000I-15000J0D01*
G01*
X15353000Y-7560000D02*
G75*
G03*
X15383000Y-7560000I15000J0D01*
G01*
X15469770Y-5122730D02*
G75*
G03*
X15439770Y-5122730I-15000J0D01*
G01*
X15439770Y-5122730D02*
G75*
G03*
X15469770Y-5122730I15000J0D01*
G01*
X15575000Y-7550000D02*
G75*
G03*
X15545000Y-7550000I-15000J0D01*
G01*
X15545000Y-7550000D02*
G75*
G03*
X15575000Y-7550000I15000J0D01*
G01*
X15625000Y-6130000D02*
G75*
G03*
X15595000Y-6130000I-15000J0D01*
G01*
X15595000Y-6130000D02*
G75*
G03*
X15625000Y-6130000I15000J0D01*
G01*
X15640000Y-6625000D02*
G75*
G03*
X15610000Y-6625000I-15000J0D01*
G01*
X15610000Y-6625000D02*
G75*
G03*
X15640000Y-6625000I15000J0D01*
G01*
X15727500Y-7450000D02*
G75*
G03*
X15697500Y-7450000I-15000J0D01*
G01*
X15697500Y-7450000D02*
G75*
G03*
X15727500Y-7450000I15000J0D01*
G01*
X15900000Y-6035000D02*
G75*
G03*
X15870000Y-6035000I-15000J0D01*
G01*
X15870000Y-6035000D02*
G75*
G03*
X15900000Y-6035000I15000J0D01*
G01*
X15915000Y-6150000D02*
G75*
G03*
X15885000Y-6150000I-15000J0D01*
G01*
X15885000Y-6150000D02*
G75*
G03*
X15915000Y-6150000I15000J0D01*
G01*
X16130000Y-6685000D02*
G75*
G03*
X16100000Y-6685000I-15000J0D01*
G01*
X16100000Y-6685000D02*
G75*
G03*
X16130000Y-6685000I15000J0D01*
G01*
X16312500Y-5132500D02*
G75*
G03*
X16282500Y-5132500I-15000J0D01*
G01*
X16282500Y-5132500D02*
G75*
G03*
X16312500Y-5132500I15000J0D01*
G01*
X16370000Y-7080000D02*
G75*
G03*
X16340000Y-7080000I-15000J0D01*
G01*
X16340000Y-7080000D02*
G75*
G03*
X16370000Y-7080000I15000J0D01*
G01*
X16465000Y-7160000D02*
G75*
G03*
X16435000Y-7160000I-15000J0D01*
G01*
X16435000Y-7160000D02*
G75*
G03*
X16465000Y-7160000I15000J0D01*
G01*
X16714000Y-7251000D02*
G75*
G03*
X16684000Y-7251000I-15000J0D01*
G01*
X16684000Y-7251000D02*
G75*
G03*
X16714000Y-7251000I15000J0D01*
G01*
X13265000Y-5275000D02*
X13265000Y-5325000D01*
X13240000Y-5300000D02*
X13290000Y-5300000D01*
X11662679Y-5392679D02*
X11662679Y-5357321D01*
X11627321Y-5357321D01*
X11627321Y-5392679D01*
X11662679Y-5392679D01*
X11662679Y-5772679D02*
X11662679Y-5737321D01*
X11627321Y-5737321D01*
X11627321Y-5772679D01*
X11662679Y-5772679D01*
X11662679Y-7016679D02*
X11662679Y-6981321D01*
X11627321Y-6981321D01*
X11627321Y-7016679D01*
X11662679Y-7016679D01*
X11662679Y-7396679D02*
X11662679Y-7361321D01*
X11627321Y-7361321D01*
X11627321Y-7396679D01*
X11662679Y-7396679D01*
X16715679Y-7087679D02*
X16715679Y-7052321D01*
X16680321Y-7052321D01*
X16680321Y-7087679D01*
X16715679Y-7087679D01*
X16715679Y-7467679D02*
X16715679Y-7432321D01*
X16680321Y-7432321D01*
X16680321Y-7467679D01*
X16715679Y-7467679D01*
X12759500Y-7439000D02*
X12789500Y-7409000D01*
X12759500Y-7379000D01*
X12729500Y-7409000D01*
X12759500Y-7439000D01*
X12729500Y-7354000D02*
X12729500Y-7464000D01*
X12729500Y-7464000D02*
G75*
G03*
X12789500Y-7464000I30000J0D01*
G01*
X12789500Y-7464000D02*
X12789500Y-7354000D01*
X12789500Y-7354000D02*
G75*
G03*
X12729500Y-7354000I-30000J0D01*
G01*
X12759500Y-7857000D02*
X12789500Y-7827000D01*
X12759500Y-7797000D01*
X12729500Y-7827000D01*
X12759500Y-7857000D01*
X12729500Y-7797000D02*
X12729500Y-7857000D01*
X12729500Y-7857000D02*
G75*
G03*
X12789500Y-7857000I30000J0D01*
G01*
X12789500Y-7857000D02*
X12789500Y-7797000D01*
X12789500Y-7797000D02*
G75*
G03*
X12729500Y-7797000I-30000J0D01*
G01*
X13623500Y-7439000D02*
X13653500Y-7409000D01*
X13623500Y-7379000D01*
X13593500Y-7409000D01*
X13623500Y-7439000D01*
X13593500Y-7354000D02*
X13593500Y-7464000D01*
X13593500Y-7464000D02*
G75*
G03*
X13653500Y-7464000I30000J0D01*
G01*
X13653500Y-7464000D02*
X13653500Y-7354000D01*
X13653500Y-7354000D02*
G75*
G03*
X13593500Y-7354000I-30000J0D01*
G01*
X13623500Y-7857000D02*
X13653500Y-7827000D01*
X13623500Y-7797000D01*
X13593500Y-7827000D01*
X13623500Y-7857000D01*
X13593500Y-7797000D02*
X13593500Y-7857000D01*
X13593500Y-7857000D02*
G75*
G03*
X13653500Y-7857000I30000J0D01*
G01*
X13653500Y-7857000D02*
X13653500Y-7797000D01*
X13653500Y-7797000D02*
G75*
G03*
X13593500Y-7797000I-30000J0D01*
G01*
X14209000Y-4927000D02*
X14309000Y-5027000D01*
X14309000Y-4927000D02*
X14209000Y-5027000D01*
X14309000Y-4977000D02*
G75*
G03*
X14209000Y-4977000I-50000J0D01*
G01*
X14209000Y-4977000D02*
G75*
G03*
X14309000Y-4977000I50000J0D01*
G01*
X14463000Y-4927000D02*
X14563000Y-5027000D01*
X14563000Y-4927000D02*
X14463000Y-5027000D01*
X14563000Y-4977000D02*
G75*
G03*
X14463000Y-4977000I-50000J0D01*
G01*
X14463000Y-4977000D02*
G75*
G03*
X14563000Y-4977000I50000J0D01*
G01*
X14717000Y-4927000D02*
X14817000Y-5027000D01*
X14817000Y-4927000D02*
X14717000Y-5027000D01*
X14817000Y-4977000D02*
G75*
G03*
X14717000Y-4977000I-50000J0D01*
G01*
X14717000Y-4977000D02*
G75*
G03*
X14817000Y-4977000I50000J0D01*
G01*
X14971000Y-4927000D02*
X15071000Y-5027000D01*
X15071000Y-4927000D02*
X14971000Y-5027000D01*
X15071000Y-4977000D02*
G75*
G03*
X14971000Y-4977000I-50000J0D01*
G01*
X14971000Y-4977000D02*
G75*
G03*
X15071000Y-4977000I50000J0D01*
G01*
D11*
X11755775Y-8376484D02*
X11755775Y-8176484D01*
X11755775Y-8176484D02*
X11803394Y-8176484D01*
X11803394Y-8176484D02*
X11831966Y-8186008D01*
X11831966Y-8186008D02*
X11851014Y-8205055D01*
X11851014Y-8205055D02*
X11860537Y-8224103D01*
X11860537Y-8224103D02*
X11870061Y-8262198D01*
X11870061Y-8262198D02*
X11870061Y-8290769D01*
X11870061Y-8290769D02*
X11860537Y-8328865D01*
X11860537Y-8328865D02*
X11851014Y-8347912D01*
X11851014Y-8347912D02*
X11831966Y-8366960D01*
X11831966Y-8366960D02*
X11803394Y-8376484D01*
X11803394Y-8376484D02*
X11755775Y-8376484D01*
X11955775Y-8376484D02*
X11955775Y-8243150D01*
X11955775Y-8281246D02*
X11965299Y-8262198D01*
X11965299Y-8262198D02*
X11974823Y-8252674D01*
X11974823Y-8252674D02*
X11993871Y-8243150D01*
X11993871Y-8243150D02*
X12012918Y-8243150D01*
X12079585Y-8376484D02*
X12079585Y-8243150D01*
X12079585Y-8176484D02*
X12070061Y-8186008D01*
X12070061Y-8186008D02*
X12079585Y-8195531D01*
X12079585Y-8195531D02*
X12089109Y-8186008D01*
X12089109Y-8186008D02*
X12079585Y-8176484D01*
X12079585Y-8176484D02*
X12079585Y-8195531D01*
X12203394Y-8376484D02*
X12184347Y-8366960D01*
X12184347Y-8366960D02*
X12174823Y-8347912D01*
X12174823Y-8347912D02*
X12174823Y-8176484D01*
X12308156Y-8376484D02*
X12289109Y-8366960D01*
X12289109Y-8366960D02*
X12279585Y-8347912D01*
X12279585Y-8347912D02*
X12279585Y-8176484D01*
X12536728Y-8376484D02*
X12536728Y-8176484D01*
X12536728Y-8176484D02*
X12603395Y-8319341D01*
X12603395Y-8319341D02*
X12670061Y-8176484D01*
X12670061Y-8176484D02*
X12670061Y-8376484D01*
X12851014Y-8376484D02*
X12851014Y-8271722D01*
X12851014Y-8271722D02*
X12841490Y-8252674D01*
X12841490Y-8252674D02*
X12822442Y-8243150D01*
X12822442Y-8243150D02*
X12784347Y-8243150D01*
X12784347Y-8243150D02*
X12765299Y-8252674D01*
X12851014Y-8366960D02*
X12831966Y-8376484D01*
X12831966Y-8376484D02*
X12784347Y-8376484D01*
X12784347Y-8376484D02*
X12765299Y-8366960D01*
X12765299Y-8366960D02*
X12755775Y-8347912D01*
X12755775Y-8347912D02*
X12755775Y-8328865D01*
X12755775Y-8328865D02*
X12765299Y-8309817D01*
X12765299Y-8309817D02*
X12784347Y-8300293D01*
X12784347Y-8300293D02*
X12831966Y-8300293D01*
X12831966Y-8300293D02*
X12851014Y-8290769D01*
X12946252Y-8243150D02*
X12946252Y-8443150D01*
X12946252Y-8252674D02*
X12965299Y-8243150D01*
X12965299Y-8243150D02*
X13003395Y-8243150D01*
X13003395Y-8243150D02*
X13022442Y-8252674D01*
X13022442Y-8252674D02*
X13031966Y-8262198D01*
X13031966Y-8262198D02*
X13041490Y-8281246D01*
X13041490Y-8281246D02*
X13041490Y-8338388D01*
X13041490Y-8338388D02*
X13031966Y-8357436D01*
X13031966Y-8357436D02*
X13022442Y-8366960D01*
X13022442Y-8366960D02*
X13003395Y-8376484D01*
X13003395Y-8376484D02*
X12965299Y-8376484D01*
X12965299Y-8376484D02*
X12946252Y-8366960D01*
X13127204Y-8357436D02*
X13136728Y-8366960D01*
X13136728Y-8366960D02*
X13127204Y-8376484D01*
X13127204Y-8376484D02*
X13117680Y-8366960D01*
X13117680Y-8366960D02*
X13127204Y-8357436D01*
X13127204Y-8357436D02*
X13127204Y-8376484D01*
X13127204Y-8252674D02*
X13136728Y-8262198D01*
X13136728Y-8262198D02*
X13127204Y-8271722D01*
X13127204Y-8271722D02*
X13117680Y-8262198D01*
X13117680Y-8262198D02*
X13127204Y-8252674D01*
X13127204Y-8252674D02*
X13127204Y-8271722D01*
D10*
X11474999Y-8695000D02*
X11494999Y-8715000D01*
X11494999Y-8695000D02*
X11474999Y-8715000D01*
D11*
X11793871Y-8596484D02*
X11812918Y-8596484D01*
X11812918Y-8596484D02*
X11831966Y-8606008D01*
X11831966Y-8606008D02*
X11841490Y-8615531D01*
X11841490Y-8615531D02*
X11851014Y-8634579D01*
X11851014Y-8634579D02*
X11860537Y-8672674D01*
X11860537Y-8672674D02*
X11860537Y-8720293D01*
X11860537Y-8720293D02*
X11851014Y-8758389D01*
X11851014Y-8758389D02*
X11841490Y-8777436D01*
X11841490Y-8777436D02*
X11831966Y-8786960D01*
X11831966Y-8786960D02*
X11812918Y-8796484D01*
X11812918Y-8796484D02*
X11793871Y-8796484D01*
X11793871Y-8796484D02*
X11774823Y-8786960D01*
X11774823Y-8786960D02*
X11765299Y-8777436D01*
X11765299Y-8777436D02*
X11755775Y-8758389D01*
X11755775Y-8758389D02*
X11746252Y-8720293D01*
X11746252Y-8720293D02*
X11746252Y-8672674D01*
X11746252Y-8672674D02*
X11755775Y-8634579D01*
X11755775Y-8634579D02*
X11765299Y-8615531D01*
X11765299Y-8615531D02*
X11774823Y-8606008D01*
X11774823Y-8606008D02*
X11793871Y-8596484D01*
X11946252Y-8777436D02*
X11955775Y-8786960D01*
X11955775Y-8786960D02*
X11946252Y-8796484D01*
X11946252Y-8796484D02*
X11936728Y-8786960D01*
X11936728Y-8786960D02*
X11946252Y-8777436D01*
X11946252Y-8777436D02*
X11946252Y-8796484D01*
X12031966Y-8615531D02*
X12041490Y-8606008D01*
X12041490Y-8606008D02*
X12060537Y-8596484D01*
X12060537Y-8596484D02*
X12108156Y-8596484D01*
X12108156Y-8596484D02*
X12127204Y-8606008D01*
X12127204Y-8606008D02*
X12136728Y-8615531D01*
X12136728Y-8615531D02*
X12146252Y-8634579D01*
X12146252Y-8634579D02*
X12146252Y-8653627D01*
X12146252Y-8653627D02*
X12136728Y-8682198D01*
X12136728Y-8682198D02*
X12022442Y-8796484D01*
X12022442Y-8796484D02*
X12146252Y-8796484D01*
X12270061Y-8596484D02*
X12289109Y-8596484D01*
X12289109Y-8596484D02*
X12308156Y-8606008D01*
X12308156Y-8606008D02*
X12317680Y-8615531D01*
X12317680Y-8615531D02*
X12327204Y-8634579D01*
X12327204Y-8634579D02*
X12336728Y-8672674D01*
X12336728Y-8672674D02*
X12336728Y-8720293D01*
X12336728Y-8720293D02*
X12327204Y-8758389D01*
X12327204Y-8758389D02*
X12317680Y-8777436D01*
X12317680Y-8777436D02*
X12308156Y-8786960D01*
X12308156Y-8786960D02*
X12289109Y-8796484D01*
X12289109Y-8796484D02*
X12270061Y-8796484D01*
X12270061Y-8796484D02*
X12251014Y-8786960D01*
X12251014Y-8786960D02*
X12241490Y-8777436D01*
X12241490Y-8777436D02*
X12231966Y-8758389D01*
X12231966Y-8758389D02*
X12222442Y-8720293D01*
X12222442Y-8720293D02*
X12222442Y-8672674D01*
X12222442Y-8672674D02*
X12231966Y-8634579D01*
X12231966Y-8634579D02*
X12241490Y-8615531D01*
X12241490Y-8615531D02*
X12251014Y-8606008D01*
X12251014Y-8606008D02*
X12270061Y-8596484D01*
X12460537Y-8596484D02*
X12479585Y-8596484D01*
X12479585Y-8596484D02*
X12498633Y-8606008D01*
X12498633Y-8606008D02*
X12508156Y-8615531D01*
X12508156Y-8615531D02*
X12517680Y-8634579D01*
X12517680Y-8634579D02*
X12527204Y-8672674D01*
X12527204Y-8672674D02*
X12527204Y-8720293D01*
X12527204Y-8720293D02*
X12517680Y-8758389D01*
X12517680Y-8758389D02*
X12508156Y-8777436D01*
X12508156Y-8777436D02*
X12498633Y-8786960D01*
X12498633Y-8786960D02*
X12479585Y-8796484D01*
X12479585Y-8796484D02*
X12460537Y-8796484D01*
X12460537Y-8796484D02*
X12441490Y-8786960D01*
X12441490Y-8786960D02*
X12431966Y-8777436D01*
X12431966Y-8777436D02*
X12422442Y-8758389D01*
X12422442Y-8758389D02*
X12412918Y-8720293D01*
X12412918Y-8720293D02*
X12412918Y-8672674D01*
X12412918Y-8672674D02*
X12422442Y-8634579D01*
X12422442Y-8634579D02*
X12431966Y-8615531D01*
X12431966Y-8615531D02*
X12441490Y-8606008D01*
X12441490Y-8606008D02*
X12460537Y-8596484D01*
X12612918Y-8796484D02*
X12612918Y-8663150D01*
X12612918Y-8682198D02*
X12622442Y-8672674D01*
X12622442Y-8672674D02*
X12641490Y-8663150D01*
X12641490Y-8663150D02*
X12670061Y-8663150D01*
X12670061Y-8663150D02*
X12689109Y-8672674D01*
X12689109Y-8672674D02*
X12698633Y-8691722D01*
X12698633Y-8691722D02*
X12698633Y-8796484D01*
X12698633Y-8691722D02*
X12708156Y-8672674D01*
X12708156Y-8672674D02*
X12727204Y-8663150D01*
X12727204Y-8663150D02*
X12755775Y-8663150D01*
X12755775Y-8663150D02*
X12774823Y-8672674D01*
X12774823Y-8672674D02*
X12784347Y-8691722D01*
X12784347Y-8691722D02*
X12784347Y-8796484D01*
X12879585Y-8796484D02*
X12879585Y-8663150D01*
X12879585Y-8682198D02*
X12889109Y-8672674D01*
X12889109Y-8672674D02*
X12908156Y-8663150D01*
X12908156Y-8663150D02*
X12936728Y-8663150D01*
X12936728Y-8663150D02*
X12955776Y-8672674D01*
X12955776Y-8672674D02*
X12965299Y-8691722D01*
X12965299Y-8691722D02*
X12965299Y-8796484D01*
X12965299Y-8691722D02*
X12974823Y-8672674D01*
X12974823Y-8672674D02*
X12993871Y-8663150D01*
X12993871Y-8663150D02*
X13022442Y-8663150D01*
X13022442Y-8663150D02*
X13041490Y-8672674D01*
X13041490Y-8672674D02*
X13051014Y-8691722D01*
X13051014Y-8691722D02*
X13051014Y-8796484D01*
X13441490Y-8586960D02*
X13270061Y-8844103D01*
X13698633Y-8596484D02*
X13717680Y-8596484D01*
X13717680Y-8596484D02*
X13736728Y-8606008D01*
X13736728Y-8606008D02*
X13746252Y-8615531D01*
X13746252Y-8615531D02*
X13755776Y-8634579D01*
X13755776Y-8634579D02*
X13765299Y-8672674D01*
X13765299Y-8672674D02*
X13765299Y-8720293D01*
X13765299Y-8720293D02*
X13755776Y-8758389D01*
X13755776Y-8758389D02*
X13746252Y-8777436D01*
X13746252Y-8777436D02*
X13736728Y-8786960D01*
X13736728Y-8786960D02*
X13717680Y-8796484D01*
X13717680Y-8796484D02*
X13698633Y-8796484D01*
X13698633Y-8796484D02*
X13679585Y-8786960D01*
X13679585Y-8786960D02*
X13670061Y-8777436D01*
X13670061Y-8777436D02*
X13660538Y-8758389D01*
X13660538Y-8758389D02*
X13651014Y-8720293D01*
X13651014Y-8720293D02*
X13651014Y-8672674D01*
X13651014Y-8672674D02*
X13660538Y-8634579D01*
X13660538Y-8634579D02*
X13670061Y-8615531D01*
X13670061Y-8615531D02*
X13679585Y-8606008D01*
X13679585Y-8606008D02*
X13698633Y-8596484D01*
X13851014Y-8777436D02*
X13860538Y-8786960D01*
X13860538Y-8786960D02*
X13851014Y-8796484D01*
X13851014Y-8796484D02*
X13841490Y-8786960D01*
X13841490Y-8786960D02*
X13851014Y-8777436D01*
X13851014Y-8777436D02*
X13851014Y-8796484D01*
X13984347Y-8596484D02*
X14003395Y-8596484D01*
X14003395Y-8596484D02*
X14022442Y-8606008D01*
X14022442Y-8606008D02*
X14031966Y-8615531D01*
X14031966Y-8615531D02*
X14041490Y-8634579D01*
X14041490Y-8634579D02*
X14051014Y-8672674D01*
X14051014Y-8672674D02*
X14051014Y-8720293D01*
X14051014Y-8720293D02*
X14041490Y-8758389D01*
X14041490Y-8758389D02*
X14031966Y-8777436D01*
X14031966Y-8777436D02*
X14022442Y-8786960D01*
X14022442Y-8786960D02*
X14003395Y-8796484D01*
X14003395Y-8796484D02*
X13984347Y-8796484D01*
X13984347Y-8796484D02*
X13965299Y-8786960D01*
X13965299Y-8786960D02*
X13955776Y-8777436D01*
X13955776Y-8777436D02*
X13946252Y-8758389D01*
X13946252Y-8758389D02*
X13936728Y-8720293D01*
X13936728Y-8720293D02*
X13936728Y-8672674D01*
X13936728Y-8672674D02*
X13946252Y-8634579D01*
X13946252Y-8634579D02*
X13955776Y-8615531D01*
X13955776Y-8615531D02*
X13965299Y-8606008D01*
X13965299Y-8606008D02*
X13984347Y-8596484D01*
X14174823Y-8596484D02*
X14193871Y-8596484D01*
X14193871Y-8596484D02*
X14212919Y-8606008D01*
X14212919Y-8606008D02*
X14222442Y-8615531D01*
X14222442Y-8615531D02*
X14231966Y-8634579D01*
X14231966Y-8634579D02*
X14241490Y-8672674D01*
X14241490Y-8672674D02*
X14241490Y-8720293D01*
X14241490Y-8720293D02*
X14231966Y-8758389D01*
X14231966Y-8758389D02*
X14222442Y-8777436D01*
X14222442Y-8777436D02*
X14212919Y-8786960D01*
X14212919Y-8786960D02*
X14193871Y-8796484D01*
X14193871Y-8796484D02*
X14174823Y-8796484D01*
X14174823Y-8796484D02*
X14155776Y-8786960D01*
X14155776Y-8786960D02*
X14146252Y-8777436D01*
X14146252Y-8777436D02*
X14136728Y-8758389D01*
X14136728Y-8758389D02*
X14127204Y-8720293D01*
X14127204Y-8720293D02*
X14127204Y-8672674D01*
X14127204Y-8672674D02*
X14136728Y-8634579D01*
X14136728Y-8634579D02*
X14146252Y-8615531D01*
X14146252Y-8615531D02*
X14155776Y-8606008D01*
X14155776Y-8606008D02*
X14174823Y-8596484D01*
X14308157Y-8596484D02*
X14441490Y-8596484D01*
X14441490Y-8596484D02*
X14355776Y-8796484D01*
X14527204Y-8796484D02*
X14565299Y-8796484D01*
X14565299Y-8796484D02*
X14584347Y-8786960D01*
X14584347Y-8786960D02*
X14593871Y-8777436D01*
X14593871Y-8777436D02*
X14612919Y-8748865D01*
X14612919Y-8748865D02*
X14622442Y-8710770D01*
X14622442Y-8710770D02*
X14622442Y-8634579D01*
X14622442Y-8634579D02*
X14612919Y-8615531D01*
X14612919Y-8615531D02*
X14603395Y-8606008D01*
X14603395Y-8606008D02*
X14584347Y-8596484D01*
X14584347Y-8596484D02*
X14546252Y-8596484D01*
X14546252Y-8596484D02*
X14527204Y-8606008D01*
X14527204Y-8606008D02*
X14517680Y-8615531D01*
X14517680Y-8615531D02*
X14508157Y-8634579D01*
X14508157Y-8634579D02*
X14508157Y-8682198D01*
X14508157Y-8682198D02*
X14517680Y-8701246D01*
X14517680Y-8701246D02*
X14527204Y-8710770D01*
X14527204Y-8710770D02*
X14546252Y-8720293D01*
X14546252Y-8720293D02*
X14584347Y-8720293D01*
X14584347Y-8720293D02*
X14603395Y-8710770D01*
X14603395Y-8710770D02*
X14612919Y-8701246D01*
X14612919Y-8701246D02*
X14622442Y-8682198D01*
X14698633Y-8596484D02*
X14698633Y-8634579D01*
X14774823Y-8596484D02*
X14774823Y-8634579D01*
X15070062Y-8872674D02*
X15060538Y-8863150D01*
X15060538Y-8863150D02*
X15041490Y-8834579D01*
X15041490Y-8834579D02*
X15031966Y-8815531D01*
X15031966Y-8815531D02*
X15022442Y-8786960D01*
X15022442Y-8786960D02*
X15012919Y-8739341D01*
X15012919Y-8739341D02*
X15012919Y-8701246D01*
X15012919Y-8701246D02*
X15022442Y-8653627D01*
X15022442Y-8653627D02*
X15031966Y-8625055D01*
X15031966Y-8625055D02*
X15041490Y-8606008D01*
X15041490Y-8606008D02*
X15060538Y-8577436D01*
X15060538Y-8577436D02*
X15070062Y-8567912D01*
X15251014Y-8796484D02*
X15136728Y-8796484D01*
X15193871Y-8796484D02*
X15193871Y-8596484D01*
X15193871Y-8596484D02*
X15174823Y-8625055D01*
X15174823Y-8625055D02*
X15155776Y-8644103D01*
X15155776Y-8644103D02*
X15136728Y-8653627D01*
X15317681Y-8596484D02*
X15451014Y-8596484D01*
X15451014Y-8596484D02*
X15365300Y-8796484D01*
X15679585Y-8796484D02*
X15679585Y-8596484D01*
X15765300Y-8796484D02*
X15765300Y-8691722D01*
X15765300Y-8691722D02*
X15755776Y-8672674D01*
X15755776Y-8672674D02*
X15736728Y-8663150D01*
X15736728Y-8663150D02*
X15708157Y-8663150D01*
X15708157Y-8663150D02*
X15689109Y-8672674D01*
X15689109Y-8672674D02*
X15679585Y-8682198D01*
X15889109Y-8796484D02*
X15870062Y-8786960D01*
X15870062Y-8786960D02*
X15860538Y-8777436D01*
X15860538Y-8777436D02*
X15851014Y-8758389D01*
X15851014Y-8758389D02*
X15851014Y-8701246D01*
X15851014Y-8701246D02*
X15860538Y-8682198D01*
X15860538Y-8682198D02*
X15870062Y-8672674D01*
X15870062Y-8672674D02*
X15889109Y-8663150D01*
X15889109Y-8663150D02*
X15917681Y-8663150D01*
X15917681Y-8663150D02*
X15936728Y-8672674D01*
X15936728Y-8672674D02*
X15946252Y-8682198D01*
X15946252Y-8682198D02*
X15955776Y-8701246D01*
X15955776Y-8701246D02*
X15955776Y-8758389D01*
X15955776Y-8758389D02*
X15946252Y-8777436D01*
X15946252Y-8777436D02*
X15936728Y-8786960D01*
X15936728Y-8786960D02*
X15917681Y-8796484D01*
X15917681Y-8796484D02*
X15889109Y-8796484D01*
X16070062Y-8796484D02*
X16051014Y-8786960D01*
X16051014Y-8786960D02*
X16041490Y-8767912D01*
X16041490Y-8767912D02*
X16041490Y-8596484D01*
X16222443Y-8786960D02*
X16203395Y-8796484D01*
X16203395Y-8796484D02*
X16165300Y-8796484D01*
X16165300Y-8796484D02*
X16146252Y-8786960D01*
X16146252Y-8786960D02*
X16136728Y-8767912D01*
X16136728Y-8767912D02*
X16136728Y-8691722D01*
X16136728Y-8691722D02*
X16146252Y-8672674D01*
X16146252Y-8672674D02*
X16165300Y-8663150D01*
X16165300Y-8663150D02*
X16203395Y-8663150D01*
X16203395Y-8663150D02*
X16222443Y-8672674D01*
X16222443Y-8672674D02*
X16231966Y-8691722D01*
X16231966Y-8691722D02*
X16231966Y-8710770D01*
X16231966Y-8710770D02*
X16136728Y-8729817D01*
X16308157Y-8786960D02*
X16327204Y-8796484D01*
X16327204Y-8796484D02*
X16365300Y-8796484D01*
X16365300Y-8796484D02*
X16384347Y-8786960D01*
X16384347Y-8786960D02*
X16393871Y-8767912D01*
X16393871Y-8767912D02*
X16393871Y-8758389D01*
X16393871Y-8758389D02*
X16384347Y-8739341D01*
X16384347Y-8739341D02*
X16365300Y-8729817D01*
X16365300Y-8729817D02*
X16336728Y-8729817D01*
X16336728Y-8729817D02*
X16317681Y-8720293D01*
X16317681Y-8720293D02*
X16308157Y-8701246D01*
X16308157Y-8701246D02*
X16308157Y-8691722D01*
X16308157Y-8691722D02*
X16317681Y-8672674D01*
X16317681Y-8672674D02*
X16336728Y-8663150D01*
X16336728Y-8663150D02*
X16365300Y-8663150D01*
X16365300Y-8663150D02*
X16384347Y-8672674D01*
X16460538Y-8872674D02*
X16470062Y-8863150D01*
X16470062Y-8863150D02*
X16489109Y-8834579D01*
X16489109Y-8834579D02*
X16498633Y-8815531D01*
X16498633Y-8815531D02*
X16508157Y-8786960D01*
X16508157Y-8786960D02*
X16517681Y-8739341D01*
X16517681Y-8739341D02*
X16517681Y-8701246D01*
X16517681Y-8701246D02*
X16508157Y-8653627D01*
X16508157Y-8653627D02*
X16498633Y-8625055D01*
X16498633Y-8625055D02*
X16489109Y-8606008D01*
X16489109Y-8606008D02*
X16470062Y-8577436D01*
X16470062Y-8577436D02*
X16460538Y-8567912D01*
D10*
X11494999Y-8969000D02*
G75*
G03*
X11464999Y-8969000I-15000J0D01*
G01*
X11464999Y-8969000D02*
G75*
G03*
X11494999Y-8969000I15000J0D01*
G01*
D11*
X11793871Y-8860484D02*
X11812918Y-8860484D01*
X11812918Y-8860484D02*
X11831966Y-8870008D01*
X11831966Y-8870008D02*
X11841490Y-8879531D01*
X11841490Y-8879531D02*
X11851014Y-8898579D01*
X11851014Y-8898579D02*
X11860537Y-8936674D01*
X11860537Y-8936674D02*
X11860537Y-8984293D01*
X11860537Y-8984293D02*
X11851014Y-9022389D01*
X11851014Y-9022389D02*
X11841490Y-9041436D01*
X11841490Y-9041436D02*
X11831966Y-9050960D01*
X11831966Y-9050960D02*
X11812918Y-9060484D01*
X11812918Y-9060484D02*
X11793871Y-9060484D01*
X11793871Y-9060484D02*
X11774823Y-9050960D01*
X11774823Y-9050960D02*
X11765299Y-9041436D01*
X11765299Y-9041436D02*
X11755775Y-9022389D01*
X11755775Y-9022389D02*
X11746252Y-8984293D01*
X11746252Y-8984293D02*
X11746252Y-8936674D01*
X11746252Y-8936674D02*
X11755775Y-8898579D01*
X11755775Y-8898579D02*
X11765299Y-8879531D01*
X11765299Y-8879531D02*
X11774823Y-8870008D01*
X11774823Y-8870008D02*
X11793871Y-8860484D01*
X11946252Y-9041436D02*
X11955775Y-9050960D01*
X11955775Y-9050960D02*
X11946252Y-9060484D01*
X11946252Y-9060484D02*
X11936728Y-9050960D01*
X11936728Y-9050960D02*
X11946252Y-9041436D01*
X11946252Y-9041436D02*
X11946252Y-9060484D01*
X12022442Y-8860484D02*
X12146252Y-8860484D01*
X12146252Y-8860484D02*
X12079585Y-8936674D01*
X12079585Y-8936674D02*
X12108156Y-8936674D01*
X12108156Y-8936674D02*
X12127204Y-8946198D01*
X12127204Y-8946198D02*
X12136728Y-8955722D01*
X12136728Y-8955722D02*
X12146252Y-8974770D01*
X12146252Y-8974770D02*
X12146252Y-9022389D01*
X12146252Y-9022389D02*
X12136728Y-9041436D01*
X12136728Y-9041436D02*
X12127204Y-9050960D01*
X12127204Y-9050960D02*
X12108156Y-9060484D01*
X12108156Y-9060484D02*
X12051014Y-9060484D01*
X12051014Y-9060484D02*
X12031966Y-9050960D01*
X12031966Y-9050960D02*
X12022442Y-9041436D01*
X12270061Y-8860484D02*
X12289109Y-8860484D01*
X12289109Y-8860484D02*
X12308156Y-8870008D01*
X12308156Y-8870008D02*
X12317680Y-8879531D01*
X12317680Y-8879531D02*
X12327204Y-8898579D01*
X12327204Y-8898579D02*
X12336728Y-8936674D01*
X12336728Y-8936674D02*
X12336728Y-8984293D01*
X12336728Y-8984293D02*
X12327204Y-9022389D01*
X12327204Y-9022389D02*
X12317680Y-9041436D01*
X12317680Y-9041436D02*
X12308156Y-9050960D01*
X12308156Y-9050960D02*
X12289109Y-9060484D01*
X12289109Y-9060484D02*
X12270061Y-9060484D01*
X12270061Y-9060484D02*
X12251014Y-9050960D01*
X12251014Y-9050960D02*
X12241490Y-9041436D01*
X12241490Y-9041436D02*
X12231966Y-9022389D01*
X12231966Y-9022389D02*
X12222442Y-8984293D01*
X12222442Y-8984293D02*
X12222442Y-8936674D01*
X12222442Y-8936674D02*
X12231966Y-8898579D01*
X12231966Y-8898579D02*
X12241490Y-8879531D01*
X12241490Y-8879531D02*
X12251014Y-8870008D01*
X12251014Y-8870008D02*
X12270061Y-8860484D01*
X12460537Y-8860484D02*
X12479585Y-8860484D01*
X12479585Y-8860484D02*
X12498633Y-8870008D01*
X12498633Y-8870008D02*
X12508156Y-8879531D01*
X12508156Y-8879531D02*
X12517680Y-8898579D01*
X12517680Y-8898579D02*
X12527204Y-8936674D01*
X12527204Y-8936674D02*
X12527204Y-8984293D01*
X12527204Y-8984293D02*
X12517680Y-9022389D01*
X12517680Y-9022389D02*
X12508156Y-9041436D01*
X12508156Y-9041436D02*
X12498633Y-9050960D01*
X12498633Y-9050960D02*
X12479585Y-9060484D01*
X12479585Y-9060484D02*
X12460537Y-9060484D01*
X12460537Y-9060484D02*
X12441490Y-9050960D01*
X12441490Y-9050960D02*
X12431966Y-9041436D01*
X12431966Y-9041436D02*
X12422442Y-9022389D01*
X12422442Y-9022389D02*
X12412918Y-8984293D01*
X12412918Y-8984293D02*
X12412918Y-8936674D01*
X12412918Y-8936674D02*
X12422442Y-8898579D01*
X12422442Y-8898579D02*
X12431966Y-8879531D01*
X12431966Y-8879531D02*
X12441490Y-8870008D01*
X12441490Y-8870008D02*
X12460537Y-8860484D01*
X12612918Y-9060484D02*
X12612918Y-8927150D01*
X12612918Y-8946198D02*
X12622442Y-8936674D01*
X12622442Y-8936674D02*
X12641490Y-8927150D01*
X12641490Y-8927150D02*
X12670061Y-8927150D01*
X12670061Y-8927150D02*
X12689109Y-8936674D01*
X12689109Y-8936674D02*
X12698633Y-8955722D01*
X12698633Y-8955722D02*
X12698633Y-9060484D01*
X12698633Y-8955722D02*
X12708156Y-8936674D01*
X12708156Y-8936674D02*
X12727204Y-8927150D01*
X12727204Y-8927150D02*
X12755775Y-8927150D01*
X12755775Y-8927150D02*
X12774823Y-8936674D01*
X12774823Y-8936674D02*
X12784347Y-8955722D01*
X12784347Y-8955722D02*
X12784347Y-9060484D01*
X12879585Y-9060484D02*
X12879585Y-8927150D01*
X12879585Y-8946198D02*
X12889109Y-8936674D01*
X12889109Y-8936674D02*
X12908156Y-8927150D01*
X12908156Y-8927150D02*
X12936728Y-8927150D01*
X12936728Y-8927150D02*
X12955776Y-8936674D01*
X12955776Y-8936674D02*
X12965299Y-8955722D01*
X12965299Y-8955722D02*
X12965299Y-9060484D01*
X12965299Y-8955722D02*
X12974823Y-8936674D01*
X12974823Y-8936674D02*
X12993871Y-8927150D01*
X12993871Y-8927150D02*
X13022442Y-8927150D01*
X13022442Y-8927150D02*
X13041490Y-8936674D01*
X13041490Y-8936674D02*
X13051014Y-8955722D01*
X13051014Y-8955722D02*
X13051014Y-9060484D01*
X13441490Y-8850960D02*
X13270061Y-9108103D01*
X13698633Y-8860484D02*
X13717680Y-8860484D01*
X13717680Y-8860484D02*
X13736728Y-8870008D01*
X13736728Y-8870008D02*
X13746252Y-8879531D01*
X13746252Y-8879531D02*
X13755776Y-8898579D01*
X13755776Y-8898579D02*
X13765299Y-8936674D01*
X13765299Y-8936674D02*
X13765299Y-8984293D01*
X13765299Y-8984293D02*
X13755776Y-9022389D01*
X13755776Y-9022389D02*
X13746252Y-9041436D01*
X13746252Y-9041436D02*
X13736728Y-9050960D01*
X13736728Y-9050960D02*
X13717680Y-9060484D01*
X13717680Y-9060484D02*
X13698633Y-9060484D01*
X13698633Y-9060484D02*
X13679585Y-9050960D01*
X13679585Y-9050960D02*
X13670061Y-9041436D01*
X13670061Y-9041436D02*
X13660538Y-9022389D01*
X13660538Y-9022389D02*
X13651014Y-8984293D01*
X13651014Y-8984293D02*
X13651014Y-8936674D01*
X13651014Y-8936674D02*
X13660538Y-8898579D01*
X13660538Y-8898579D02*
X13670061Y-8879531D01*
X13670061Y-8879531D02*
X13679585Y-8870008D01*
X13679585Y-8870008D02*
X13698633Y-8860484D01*
X13851014Y-9041436D02*
X13860538Y-9050960D01*
X13860538Y-9050960D02*
X13851014Y-9060484D01*
X13851014Y-9060484D02*
X13841490Y-9050960D01*
X13841490Y-9050960D02*
X13851014Y-9041436D01*
X13851014Y-9041436D02*
X13851014Y-9060484D01*
X13984347Y-8860484D02*
X14003395Y-8860484D01*
X14003395Y-8860484D02*
X14022442Y-8870008D01*
X14022442Y-8870008D02*
X14031966Y-8879531D01*
X14031966Y-8879531D02*
X14041490Y-8898579D01*
X14041490Y-8898579D02*
X14051014Y-8936674D01*
X14051014Y-8936674D02*
X14051014Y-8984293D01*
X14051014Y-8984293D02*
X14041490Y-9022389D01*
X14041490Y-9022389D02*
X14031966Y-9041436D01*
X14031966Y-9041436D02*
X14022442Y-9050960D01*
X14022442Y-9050960D02*
X14003395Y-9060484D01*
X14003395Y-9060484D02*
X13984347Y-9060484D01*
X13984347Y-9060484D02*
X13965299Y-9050960D01*
X13965299Y-9050960D02*
X13955776Y-9041436D01*
X13955776Y-9041436D02*
X13946252Y-9022389D01*
X13946252Y-9022389D02*
X13936728Y-8984293D01*
X13936728Y-8984293D02*
X13936728Y-8936674D01*
X13936728Y-8936674D02*
X13946252Y-8898579D01*
X13946252Y-8898579D02*
X13955776Y-8879531D01*
X13955776Y-8879531D02*
X13965299Y-8870008D01*
X13965299Y-8870008D02*
X13984347Y-8860484D01*
X14241490Y-9060484D02*
X14127204Y-9060484D01*
X14184347Y-9060484D02*
X14184347Y-8860484D01*
X14184347Y-8860484D02*
X14165299Y-8889055D01*
X14165299Y-8889055D02*
X14146252Y-8908103D01*
X14146252Y-8908103D02*
X14127204Y-8917627D01*
X14431966Y-9060484D02*
X14317680Y-9060484D01*
X14374823Y-9060484D02*
X14374823Y-8860484D01*
X14374823Y-8860484D02*
X14355776Y-8889055D01*
X14355776Y-8889055D02*
X14336728Y-8908103D01*
X14336728Y-8908103D02*
X14317680Y-8917627D01*
X14546252Y-8946198D02*
X14527204Y-8936674D01*
X14527204Y-8936674D02*
X14517680Y-8927150D01*
X14517680Y-8927150D02*
X14508157Y-8908103D01*
X14508157Y-8908103D02*
X14508157Y-8898579D01*
X14508157Y-8898579D02*
X14517680Y-8879531D01*
X14517680Y-8879531D02*
X14527204Y-8870008D01*
X14527204Y-8870008D02*
X14546252Y-8860484D01*
X14546252Y-8860484D02*
X14584347Y-8860484D01*
X14584347Y-8860484D02*
X14603395Y-8870008D01*
X14603395Y-8870008D02*
X14612919Y-8879531D01*
X14612919Y-8879531D02*
X14622442Y-8898579D01*
X14622442Y-8898579D02*
X14622442Y-8908103D01*
X14622442Y-8908103D02*
X14612919Y-8927150D01*
X14612919Y-8927150D02*
X14603395Y-8936674D01*
X14603395Y-8936674D02*
X14584347Y-8946198D01*
X14584347Y-8946198D02*
X14546252Y-8946198D01*
X14546252Y-8946198D02*
X14527204Y-8955722D01*
X14527204Y-8955722D02*
X14517680Y-8965246D01*
X14517680Y-8965246D02*
X14508157Y-8984293D01*
X14508157Y-8984293D02*
X14508157Y-9022389D01*
X14508157Y-9022389D02*
X14517680Y-9041436D01*
X14517680Y-9041436D02*
X14527204Y-9050960D01*
X14527204Y-9050960D02*
X14546252Y-9060484D01*
X14546252Y-9060484D02*
X14584347Y-9060484D01*
X14584347Y-9060484D02*
X14603395Y-9050960D01*
X14603395Y-9050960D02*
X14612919Y-9041436D01*
X14612919Y-9041436D02*
X14622442Y-9022389D01*
X14622442Y-9022389D02*
X14622442Y-8984293D01*
X14622442Y-8984293D02*
X14612919Y-8965246D01*
X14612919Y-8965246D02*
X14603395Y-8955722D01*
X14603395Y-8955722D02*
X14584347Y-8946198D01*
X14698633Y-8860484D02*
X14698633Y-8898579D01*
X14774823Y-8860484D02*
X14774823Y-8898579D01*
X15070062Y-9136674D02*
X15060538Y-9127150D01*
X15060538Y-9127150D02*
X15041490Y-9098579D01*
X15041490Y-9098579D02*
X15031966Y-9079531D01*
X15031966Y-9079531D02*
X15022442Y-9050960D01*
X15022442Y-9050960D02*
X15012919Y-9003341D01*
X15012919Y-9003341D02*
X15012919Y-8965246D01*
X15012919Y-8965246D02*
X15022442Y-8917627D01*
X15022442Y-8917627D02*
X15031966Y-8889055D01*
X15031966Y-8889055D02*
X15041490Y-8870008D01*
X15041490Y-8870008D02*
X15060538Y-8841436D01*
X15060538Y-8841436D02*
X15070062Y-8831912D01*
X15155776Y-9060484D02*
X15193871Y-9060484D01*
X15193871Y-9060484D02*
X15212919Y-9050960D01*
X15212919Y-9050960D02*
X15222442Y-9041436D01*
X15222442Y-9041436D02*
X15241490Y-9012865D01*
X15241490Y-9012865D02*
X15251014Y-8974770D01*
X15251014Y-8974770D02*
X15251014Y-8898579D01*
X15251014Y-8898579D02*
X15241490Y-8879531D01*
X15241490Y-8879531D02*
X15231966Y-8870008D01*
X15231966Y-8870008D02*
X15212919Y-8860484D01*
X15212919Y-8860484D02*
X15174823Y-8860484D01*
X15174823Y-8860484D02*
X15155776Y-8870008D01*
X15155776Y-8870008D02*
X15146252Y-8879531D01*
X15146252Y-8879531D02*
X15136728Y-8898579D01*
X15136728Y-8898579D02*
X15136728Y-8946198D01*
X15136728Y-8946198D02*
X15146252Y-8965246D01*
X15146252Y-8965246D02*
X15155776Y-8974770D01*
X15155776Y-8974770D02*
X15174823Y-8984293D01*
X15174823Y-8984293D02*
X15212919Y-8984293D01*
X15212919Y-8984293D02*
X15231966Y-8974770D01*
X15231966Y-8974770D02*
X15241490Y-8965246D01*
X15241490Y-8965246D02*
X15251014Y-8946198D01*
X15431966Y-8860484D02*
X15336728Y-8860484D01*
X15336728Y-8860484D02*
X15327204Y-8955722D01*
X15327204Y-8955722D02*
X15336728Y-8946198D01*
X15336728Y-8946198D02*
X15355776Y-8936674D01*
X15355776Y-8936674D02*
X15403395Y-8936674D01*
X15403395Y-8936674D02*
X15422442Y-8946198D01*
X15422442Y-8946198D02*
X15431966Y-8955722D01*
X15431966Y-8955722D02*
X15441490Y-8974770D01*
X15441490Y-8974770D02*
X15441490Y-9022389D01*
X15441490Y-9022389D02*
X15431966Y-9041436D01*
X15431966Y-9041436D02*
X15422442Y-9050960D01*
X15422442Y-9050960D02*
X15403395Y-9060484D01*
X15403395Y-9060484D02*
X15355776Y-9060484D01*
X15355776Y-9060484D02*
X15336728Y-9050960D01*
X15336728Y-9050960D02*
X15327204Y-9041436D01*
X15679585Y-9060484D02*
X15679585Y-8860484D01*
X15765300Y-9060484D02*
X15765300Y-8955722D01*
X15765300Y-8955722D02*
X15755776Y-8936674D01*
X15755776Y-8936674D02*
X15736728Y-8927150D01*
X15736728Y-8927150D02*
X15708157Y-8927150D01*
X15708157Y-8927150D02*
X15689109Y-8936674D01*
X15689109Y-8936674D02*
X15679585Y-8946198D01*
X15889109Y-9060484D02*
X15870062Y-9050960D01*
X15870062Y-9050960D02*
X15860538Y-9041436D01*
X15860538Y-9041436D02*
X15851014Y-9022389D01*
X15851014Y-9022389D02*
X15851014Y-8965246D01*
X15851014Y-8965246D02*
X15860538Y-8946198D01*
X15860538Y-8946198D02*
X15870062Y-8936674D01*
X15870062Y-8936674D02*
X15889109Y-8927150D01*
X15889109Y-8927150D02*
X15917681Y-8927150D01*
X15917681Y-8927150D02*
X15936728Y-8936674D01*
X15936728Y-8936674D02*
X15946252Y-8946198D01*
X15946252Y-8946198D02*
X15955776Y-8965246D01*
X15955776Y-8965246D02*
X15955776Y-9022389D01*
X15955776Y-9022389D02*
X15946252Y-9041436D01*
X15946252Y-9041436D02*
X15936728Y-9050960D01*
X15936728Y-9050960D02*
X15917681Y-9060484D01*
X15917681Y-9060484D02*
X15889109Y-9060484D01*
X16070062Y-9060484D02*
X16051014Y-9050960D01*
X16051014Y-9050960D02*
X16041490Y-9031912D01*
X16041490Y-9031912D02*
X16041490Y-8860484D01*
X16222443Y-9050960D02*
X16203395Y-9060484D01*
X16203395Y-9060484D02*
X16165300Y-9060484D01*
X16165300Y-9060484D02*
X16146252Y-9050960D01*
X16146252Y-9050960D02*
X16136728Y-9031912D01*
X16136728Y-9031912D02*
X16136728Y-8955722D01*
X16136728Y-8955722D02*
X16146252Y-8936674D01*
X16146252Y-8936674D02*
X16165300Y-8927150D01*
X16165300Y-8927150D02*
X16203395Y-8927150D01*
X16203395Y-8927150D02*
X16222443Y-8936674D01*
X16222443Y-8936674D02*
X16231966Y-8955722D01*
X16231966Y-8955722D02*
X16231966Y-8974770D01*
X16231966Y-8974770D02*
X16136728Y-8993817D01*
X16308157Y-9050960D02*
X16327204Y-9060484D01*
X16327204Y-9060484D02*
X16365300Y-9060484D01*
X16365300Y-9060484D02*
X16384347Y-9050960D01*
X16384347Y-9050960D02*
X16393871Y-9031912D01*
X16393871Y-9031912D02*
X16393871Y-9022389D01*
X16393871Y-9022389D02*
X16384347Y-9003341D01*
X16384347Y-9003341D02*
X16365300Y-8993817D01*
X16365300Y-8993817D02*
X16336728Y-8993817D01*
X16336728Y-8993817D02*
X16317681Y-8984293D01*
X16317681Y-8984293D02*
X16308157Y-8965246D01*
X16308157Y-8965246D02*
X16308157Y-8955722D01*
X16308157Y-8955722D02*
X16317681Y-8936674D01*
X16317681Y-8936674D02*
X16336728Y-8927150D01*
X16336728Y-8927150D02*
X16365300Y-8927150D01*
X16365300Y-8927150D02*
X16384347Y-8936674D01*
X16460538Y-9136674D02*
X16470062Y-9127150D01*
X16470062Y-9127150D02*
X16489109Y-9098579D01*
X16489109Y-9098579D02*
X16498633Y-9079531D01*
X16498633Y-9079531D02*
X16508157Y-9050960D01*
X16508157Y-9050960D02*
X16517681Y-9003341D01*
X16517681Y-9003341D02*
X16517681Y-8965246D01*
X16517681Y-8965246D02*
X16508157Y-8917627D01*
X16508157Y-8917627D02*
X16498633Y-8889055D01*
X16498633Y-8889055D02*
X16489109Y-8870008D01*
X16489109Y-8870008D02*
X16470062Y-8841436D01*
X16470062Y-8841436D02*
X16460538Y-8831912D01*
D10*
X11469999Y-9208000D02*
X11469999Y-9258000D01*
X11444999Y-9233000D02*
X11494999Y-9233000D01*
D11*
X11793871Y-9124484D02*
X11812918Y-9124484D01*
X11812918Y-9124484D02*
X11831966Y-9134008D01*
X11831966Y-9134008D02*
X11841490Y-9143531D01*
X11841490Y-9143531D02*
X11851014Y-9162579D01*
X11851014Y-9162579D02*
X11860537Y-9200674D01*
X11860537Y-9200674D02*
X11860537Y-9248293D01*
X11860537Y-9248293D02*
X11851014Y-9286389D01*
X11851014Y-9286389D02*
X11841490Y-9305436D01*
X11841490Y-9305436D02*
X11831966Y-9314960D01*
X11831966Y-9314960D02*
X11812918Y-9324484D01*
X11812918Y-9324484D02*
X11793871Y-9324484D01*
X11793871Y-9324484D02*
X11774823Y-9314960D01*
X11774823Y-9314960D02*
X11765299Y-9305436D01*
X11765299Y-9305436D02*
X11755775Y-9286389D01*
X11755775Y-9286389D02*
X11746252Y-9248293D01*
X11746252Y-9248293D02*
X11746252Y-9200674D01*
X11746252Y-9200674D02*
X11755775Y-9162579D01*
X11755775Y-9162579D02*
X11765299Y-9143531D01*
X11765299Y-9143531D02*
X11774823Y-9134008D01*
X11774823Y-9134008D02*
X11793871Y-9124484D01*
X11946252Y-9305436D02*
X11955775Y-9314960D01*
X11955775Y-9314960D02*
X11946252Y-9324484D01*
X11946252Y-9324484D02*
X11936728Y-9314960D01*
X11936728Y-9314960D02*
X11946252Y-9305436D01*
X11946252Y-9305436D02*
X11946252Y-9324484D01*
X12136728Y-9124484D02*
X12041490Y-9124484D01*
X12041490Y-9124484D02*
X12031966Y-9219722D01*
X12031966Y-9219722D02*
X12041490Y-9210198D01*
X12041490Y-9210198D02*
X12060537Y-9200674D01*
X12060537Y-9200674D02*
X12108156Y-9200674D01*
X12108156Y-9200674D02*
X12127204Y-9210198D01*
X12127204Y-9210198D02*
X12136728Y-9219722D01*
X12136728Y-9219722D02*
X12146252Y-9238770D01*
X12146252Y-9238770D02*
X12146252Y-9286389D01*
X12146252Y-9286389D02*
X12136728Y-9305436D01*
X12136728Y-9305436D02*
X12127204Y-9314960D01*
X12127204Y-9314960D02*
X12108156Y-9324484D01*
X12108156Y-9324484D02*
X12060537Y-9324484D01*
X12060537Y-9324484D02*
X12041490Y-9314960D01*
X12041490Y-9314960D02*
X12031966Y-9305436D01*
X12270061Y-9124484D02*
X12289109Y-9124484D01*
X12289109Y-9124484D02*
X12308156Y-9134008D01*
X12308156Y-9134008D02*
X12317680Y-9143531D01*
X12317680Y-9143531D02*
X12327204Y-9162579D01*
X12327204Y-9162579D02*
X12336728Y-9200674D01*
X12336728Y-9200674D02*
X12336728Y-9248293D01*
X12336728Y-9248293D02*
X12327204Y-9286389D01*
X12327204Y-9286389D02*
X12317680Y-9305436D01*
X12317680Y-9305436D02*
X12308156Y-9314960D01*
X12308156Y-9314960D02*
X12289109Y-9324484D01*
X12289109Y-9324484D02*
X12270061Y-9324484D01*
X12270061Y-9324484D02*
X12251014Y-9314960D01*
X12251014Y-9314960D02*
X12241490Y-9305436D01*
X12241490Y-9305436D02*
X12231966Y-9286389D01*
X12231966Y-9286389D02*
X12222442Y-9248293D01*
X12222442Y-9248293D02*
X12222442Y-9200674D01*
X12222442Y-9200674D02*
X12231966Y-9162579D01*
X12231966Y-9162579D02*
X12241490Y-9143531D01*
X12241490Y-9143531D02*
X12251014Y-9134008D01*
X12251014Y-9134008D02*
X12270061Y-9124484D01*
X12460537Y-9124484D02*
X12479585Y-9124484D01*
X12479585Y-9124484D02*
X12498633Y-9134008D01*
X12498633Y-9134008D02*
X12508156Y-9143531D01*
X12508156Y-9143531D02*
X12517680Y-9162579D01*
X12517680Y-9162579D02*
X12527204Y-9200674D01*
X12527204Y-9200674D02*
X12527204Y-9248293D01*
X12527204Y-9248293D02*
X12517680Y-9286389D01*
X12517680Y-9286389D02*
X12508156Y-9305436D01*
X12508156Y-9305436D02*
X12498633Y-9314960D01*
X12498633Y-9314960D02*
X12479585Y-9324484D01*
X12479585Y-9324484D02*
X12460537Y-9324484D01*
X12460537Y-9324484D02*
X12441490Y-9314960D01*
X12441490Y-9314960D02*
X12431966Y-9305436D01*
X12431966Y-9305436D02*
X12422442Y-9286389D01*
X12422442Y-9286389D02*
X12412918Y-9248293D01*
X12412918Y-9248293D02*
X12412918Y-9200674D01*
X12412918Y-9200674D02*
X12422442Y-9162579D01*
X12422442Y-9162579D02*
X12431966Y-9143531D01*
X12431966Y-9143531D02*
X12441490Y-9134008D01*
X12441490Y-9134008D02*
X12460537Y-9124484D01*
X12612918Y-9324484D02*
X12612918Y-9191150D01*
X12612918Y-9210198D02*
X12622442Y-9200674D01*
X12622442Y-9200674D02*
X12641490Y-9191150D01*
X12641490Y-9191150D02*
X12670061Y-9191150D01*
X12670061Y-9191150D02*
X12689109Y-9200674D01*
X12689109Y-9200674D02*
X12698633Y-9219722D01*
X12698633Y-9219722D02*
X12698633Y-9324484D01*
X12698633Y-9219722D02*
X12708156Y-9200674D01*
X12708156Y-9200674D02*
X12727204Y-9191150D01*
X12727204Y-9191150D02*
X12755775Y-9191150D01*
X12755775Y-9191150D02*
X12774823Y-9200674D01*
X12774823Y-9200674D02*
X12784347Y-9219722D01*
X12784347Y-9219722D02*
X12784347Y-9324484D01*
X12879585Y-9324484D02*
X12879585Y-9191150D01*
X12879585Y-9210198D02*
X12889109Y-9200674D01*
X12889109Y-9200674D02*
X12908156Y-9191150D01*
X12908156Y-9191150D02*
X12936728Y-9191150D01*
X12936728Y-9191150D02*
X12955776Y-9200674D01*
X12955776Y-9200674D02*
X12965299Y-9219722D01*
X12965299Y-9219722D02*
X12965299Y-9324484D01*
X12965299Y-9219722D02*
X12974823Y-9200674D01*
X12974823Y-9200674D02*
X12993871Y-9191150D01*
X12993871Y-9191150D02*
X13022442Y-9191150D01*
X13022442Y-9191150D02*
X13041490Y-9200674D01*
X13041490Y-9200674D02*
X13051014Y-9219722D01*
X13051014Y-9219722D02*
X13051014Y-9324484D01*
X13441490Y-9114960D02*
X13270061Y-9372103D01*
X13698633Y-9124484D02*
X13717680Y-9124484D01*
X13717680Y-9124484D02*
X13736728Y-9134008D01*
X13736728Y-9134008D02*
X13746252Y-9143531D01*
X13746252Y-9143531D02*
X13755776Y-9162579D01*
X13755776Y-9162579D02*
X13765299Y-9200674D01*
X13765299Y-9200674D02*
X13765299Y-9248293D01*
X13765299Y-9248293D02*
X13755776Y-9286389D01*
X13755776Y-9286389D02*
X13746252Y-9305436D01*
X13746252Y-9305436D02*
X13736728Y-9314960D01*
X13736728Y-9314960D02*
X13717680Y-9324484D01*
X13717680Y-9324484D02*
X13698633Y-9324484D01*
X13698633Y-9324484D02*
X13679585Y-9314960D01*
X13679585Y-9314960D02*
X13670061Y-9305436D01*
X13670061Y-9305436D02*
X13660538Y-9286389D01*
X13660538Y-9286389D02*
X13651014Y-9248293D01*
X13651014Y-9248293D02*
X13651014Y-9200674D01*
X13651014Y-9200674D02*
X13660538Y-9162579D01*
X13660538Y-9162579D02*
X13670061Y-9143531D01*
X13670061Y-9143531D02*
X13679585Y-9134008D01*
X13679585Y-9134008D02*
X13698633Y-9124484D01*
X13851014Y-9305436D02*
X13860538Y-9314960D01*
X13860538Y-9314960D02*
X13851014Y-9324484D01*
X13851014Y-9324484D02*
X13841490Y-9314960D01*
X13841490Y-9314960D02*
X13851014Y-9305436D01*
X13851014Y-9305436D02*
X13851014Y-9324484D01*
X13984347Y-9124484D02*
X14003395Y-9124484D01*
X14003395Y-9124484D02*
X14022442Y-9134008D01*
X14022442Y-9134008D02*
X14031966Y-9143531D01*
X14031966Y-9143531D02*
X14041490Y-9162579D01*
X14041490Y-9162579D02*
X14051014Y-9200674D01*
X14051014Y-9200674D02*
X14051014Y-9248293D01*
X14051014Y-9248293D02*
X14041490Y-9286389D01*
X14041490Y-9286389D02*
X14031966Y-9305436D01*
X14031966Y-9305436D02*
X14022442Y-9314960D01*
X14022442Y-9314960D02*
X14003395Y-9324484D01*
X14003395Y-9324484D02*
X13984347Y-9324484D01*
X13984347Y-9324484D02*
X13965299Y-9314960D01*
X13965299Y-9314960D02*
X13955776Y-9305436D01*
X13955776Y-9305436D02*
X13946252Y-9286389D01*
X13946252Y-9286389D02*
X13936728Y-9248293D01*
X13936728Y-9248293D02*
X13936728Y-9200674D01*
X13936728Y-9200674D02*
X13946252Y-9162579D01*
X13946252Y-9162579D02*
X13955776Y-9143531D01*
X13955776Y-9143531D02*
X13965299Y-9134008D01*
X13965299Y-9134008D02*
X13984347Y-9124484D01*
X14241490Y-9324484D02*
X14127204Y-9324484D01*
X14184347Y-9324484D02*
X14184347Y-9124484D01*
X14184347Y-9124484D02*
X14165299Y-9153055D01*
X14165299Y-9153055D02*
X14146252Y-9172103D01*
X14146252Y-9172103D02*
X14127204Y-9181627D01*
X14336728Y-9324484D02*
X14374823Y-9324484D01*
X14374823Y-9324484D02*
X14393871Y-9314960D01*
X14393871Y-9314960D02*
X14403395Y-9305436D01*
X14403395Y-9305436D02*
X14422442Y-9276865D01*
X14422442Y-9276865D02*
X14431966Y-9238770D01*
X14431966Y-9238770D02*
X14431966Y-9162579D01*
X14431966Y-9162579D02*
X14422442Y-9143531D01*
X14422442Y-9143531D02*
X14412919Y-9134008D01*
X14412919Y-9134008D02*
X14393871Y-9124484D01*
X14393871Y-9124484D02*
X14355776Y-9124484D01*
X14355776Y-9124484D02*
X14336728Y-9134008D01*
X14336728Y-9134008D02*
X14327204Y-9143531D01*
X14327204Y-9143531D02*
X14317680Y-9162579D01*
X14317680Y-9162579D02*
X14317680Y-9210198D01*
X14317680Y-9210198D02*
X14327204Y-9229246D01*
X14327204Y-9229246D02*
X14336728Y-9238770D01*
X14336728Y-9238770D02*
X14355776Y-9248293D01*
X14355776Y-9248293D02*
X14393871Y-9248293D01*
X14393871Y-9248293D02*
X14412919Y-9238770D01*
X14412919Y-9238770D02*
X14422442Y-9229246D01*
X14422442Y-9229246D02*
X14431966Y-9210198D01*
X14498633Y-9124484D02*
X14631966Y-9124484D01*
X14631966Y-9124484D02*
X14546252Y-9324484D01*
X14698633Y-9124484D02*
X14698633Y-9162579D01*
X14774823Y-9124484D02*
X14774823Y-9162579D01*
X15070062Y-9400674D02*
X15060538Y-9391150D01*
X15060538Y-9391150D02*
X15041490Y-9362579D01*
X15041490Y-9362579D02*
X15031966Y-9343531D01*
X15031966Y-9343531D02*
X15022442Y-9314960D01*
X15022442Y-9314960D02*
X15012919Y-9267341D01*
X15012919Y-9267341D02*
X15012919Y-9229246D01*
X15012919Y-9229246D02*
X15022442Y-9181627D01*
X15022442Y-9181627D02*
X15031966Y-9153055D01*
X15031966Y-9153055D02*
X15041490Y-9134008D01*
X15041490Y-9134008D02*
X15060538Y-9105436D01*
X15060538Y-9105436D02*
X15070062Y-9095912D01*
X15251014Y-9324484D02*
X15136728Y-9324484D01*
X15193871Y-9324484D02*
X15193871Y-9124484D01*
X15193871Y-9124484D02*
X15174823Y-9153055D01*
X15174823Y-9153055D02*
X15155776Y-9172103D01*
X15155776Y-9172103D02*
X15136728Y-9181627D01*
X15489109Y-9324484D02*
X15489109Y-9124484D01*
X15574823Y-9324484D02*
X15574823Y-9219722D01*
X15574823Y-9219722D02*
X15565300Y-9200674D01*
X15565300Y-9200674D02*
X15546252Y-9191150D01*
X15546252Y-9191150D02*
X15517681Y-9191150D01*
X15517681Y-9191150D02*
X15498633Y-9200674D01*
X15498633Y-9200674D02*
X15489109Y-9210198D01*
X15698633Y-9324484D02*
X15679585Y-9314960D01*
X15679585Y-9314960D02*
X15670062Y-9305436D01*
X15670062Y-9305436D02*
X15660538Y-9286389D01*
X15660538Y-9286389D02*
X15660538Y-9229246D01*
X15660538Y-9229246D02*
X15670062Y-9210198D01*
X15670062Y-9210198D02*
X15679585Y-9200674D01*
X15679585Y-9200674D02*
X15698633Y-9191150D01*
X15698633Y-9191150D02*
X15727204Y-9191150D01*
X15727204Y-9191150D02*
X15746252Y-9200674D01*
X15746252Y-9200674D02*
X15755776Y-9210198D01*
X15755776Y-9210198D02*
X15765300Y-9229246D01*
X15765300Y-9229246D02*
X15765300Y-9286389D01*
X15765300Y-9286389D02*
X15755776Y-9305436D01*
X15755776Y-9305436D02*
X15746252Y-9314960D01*
X15746252Y-9314960D02*
X15727204Y-9324484D01*
X15727204Y-9324484D02*
X15698633Y-9324484D01*
X15879585Y-9324484D02*
X15860538Y-9314960D01*
X15860538Y-9314960D02*
X15851014Y-9295912D01*
X15851014Y-9295912D02*
X15851014Y-9124484D01*
X16031966Y-9314960D02*
X16012919Y-9324484D01*
X16012919Y-9324484D02*
X15974823Y-9324484D01*
X15974823Y-9324484D02*
X15955776Y-9314960D01*
X15955776Y-9314960D02*
X15946252Y-9295912D01*
X15946252Y-9295912D02*
X15946252Y-9219722D01*
X15946252Y-9219722D02*
X15955776Y-9200674D01*
X15955776Y-9200674D02*
X15974823Y-9191150D01*
X15974823Y-9191150D02*
X16012919Y-9191150D01*
X16012919Y-9191150D02*
X16031966Y-9200674D01*
X16031966Y-9200674D02*
X16041490Y-9219722D01*
X16041490Y-9219722D02*
X16041490Y-9238770D01*
X16041490Y-9238770D02*
X15946252Y-9257817D01*
X16108157Y-9400674D02*
X16117681Y-9391150D01*
X16117681Y-9391150D02*
X16136728Y-9362579D01*
X16136728Y-9362579D02*
X16146252Y-9343531D01*
X16146252Y-9343531D02*
X16155776Y-9314960D01*
X16155776Y-9314960D02*
X16165300Y-9267341D01*
X16165300Y-9267341D02*
X16165300Y-9229246D01*
X16165300Y-9229246D02*
X16155776Y-9181627D01*
X16155776Y-9181627D02*
X16146252Y-9153055D01*
X16146252Y-9153055D02*
X16136728Y-9134008D01*
X16136728Y-9134008D02*
X16117681Y-9105436D01*
X16117681Y-9105436D02*
X16108157Y-9095912D01*
D10*
X11487676Y-9514679D02*
X11487676Y-9479321D01*
X11452319Y-9479321D01*
X11452319Y-9514679D01*
X11487676Y-9514679D01*
D11*
X11793871Y-9388484D02*
X11812918Y-9388484D01*
X11812918Y-9388484D02*
X11831966Y-9398008D01*
X11831966Y-9398008D02*
X11841490Y-9407531D01*
X11841490Y-9407531D02*
X11851014Y-9426579D01*
X11851014Y-9426579D02*
X11860537Y-9464674D01*
X11860537Y-9464674D02*
X11860537Y-9512293D01*
X11860537Y-9512293D02*
X11851014Y-9550389D01*
X11851014Y-9550389D02*
X11841490Y-9569436D01*
X11841490Y-9569436D02*
X11831966Y-9578960D01*
X11831966Y-9578960D02*
X11812918Y-9588484D01*
X11812918Y-9588484D02*
X11793871Y-9588484D01*
X11793871Y-9588484D02*
X11774823Y-9578960D01*
X11774823Y-9578960D02*
X11765299Y-9569436D01*
X11765299Y-9569436D02*
X11755775Y-9550389D01*
X11755775Y-9550389D02*
X11746252Y-9512293D01*
X11746252Y-9512293D02*
X11746252Y-9464674D01*
X11746252Y-9464674D02*
X11755775Y-9426579D01*
X11755775Y-9426579D02*
X11765299Y-9407531D01*
X11765299Y-9407531D02*
X11774823Y-9398008D01*
X11774823Y-9398008D02*
X11793871Y-9388484D01*
X11946252Y-9569436D02*
X11955775Y-9578960D01*
X11955775Y-9578960D02*
X11946252Y-9588484D01*
X11946252Y-9588484D02*
X11936728Y-9578960D01*
X11936728Y-9578960D02*
X11946252Y-9569436D01*
X11946252Y-9569436D02*
X11946252Y-9588484D01*
X12136728Y-9388484D02*
X12041490Y-9388484D01*
X12041490Y-9388484D02*
X12031966Y-9483722D01*
X12031966Y-9483722D02*
X12041490Y-9474198D01*
X12041490Y-9474198D02*
X12060537Y-9464674D01*
X12060537Y-9464674D02*
X12108156Y-9464674D01*
X12108156Y-9464674D02*
X12127204Y-9474198D01*
X12127204Y-9474198D02*
X12136728Y-9483722D01*
X12136728Y-9483722D02*
X12146252Y-9502770D01*
X12146252Y-9502770D02*
X12146252Y-9550389D01*
X12146252Y-9550389D02*
X12136728Y-9569436D01*
X12136728Y-9569436D02*
X12127204Y-9578960D01*
X12127204Y-9578960D02*
X12108156Y-9588484D01*
X12108156Y-9588484D02*
X12060537Y-9588484D01*
X12060537Y-9588484D02*
X12041490Y-9578960D01*
X12041490Y-9578960D02*
X12031966Y-9569436D01*
X12270061Y-9388484D02*
X12289109Y-9388484D01*
X12289109Y-9388484D02*
X12308156Y-9398008D01*
X12308156Y-9398008D02*
X12317680Y-9407531D01*
X12317680Y-9407531D02*
X12327204Y-9426579D01*
X12327204Y-9426579D02*
X12336728Y-9464674D01*
X12336728Y-9464674D02*
X12336728Y-9512293D01*
X12336728Y-9512293D02*
X12327204Y-9550389D01*
X12327204Y-9550389D02*
X12317680Y-9569436D01*
X12317680Y-9569436D02*
X12308156Y-9578960D01*
X12308156Y-9578960D02*
X12289109Y-9588484D01*
X12289109Y-9588484D02*
X12270061Y-9588484D01*
X12270061Y-9588484D02*
X12251014Y-9578960D01*
X12251014Y-9578960D02*
X12241490Y-9569436D01*
X12241490Y-9569436D02*
X12231966Y-9550389D01*
X12231966Y-9550389D02*
X12222442Y-9512293D01*
X12222442Y-9512293D02*
X12222442Y-9464674D01*
X12222442Y-9464674D02*
X12231966Y-9426579D01*
X12231966Y-9426579D02*
X12241490Y-9407531D01*
X12241490Y-9407531D02*
X12251014Y-9398008D01*
X12251014Y-9398008D02*
X12270061Y-9388484D01*
X12460537Y-9388484D02*
X12479585Y-9388484D01*
X12479585Y-9388484D02*
X12498633Y-9398008D01*
X12498633Y-9398008D02*
X12508156Y-9407531D01*
X12508156Y-9407531D02*
X12517680Y-9426579D01*
X12517680Y-9426579D02*
X12527204Y-9464674D01*
X12527204Y-9464674D02*
X12527204Y-9512293D01*
X12527204Y-9512293D02*
X12517680Y-9550389D01*
X12517680Y-9550389D02*
X12508156Y-9569436D01*
X12508156Y-9569436D02*
X12498633Y-9578960D01*
X12498633Y-9578960D02*
X12479585Y-9588484D01*
X12479585Y-9588484D02*
X12460537Y-9588484D01*
X12460537Y-9588484D02*
X12441490Y-9578960D01*
X12441490Y-9578960D02*
X12431966Y-9569436D01*
X12431966Y-9569436D02*
X12422442Y-9550389D01*
X12422442Y-9550389D02*
X12412918Y-9512293D01*
X12412918Y-9512293D02*
X12412918Y-9464674D01*
X12412918Y-9464674D02*
X12422442Y-9426579D01*
X12422442Y-9426579D02*
X12431966Y-9407531D01*
X12431966Y-9407531D02*
X12441490Y-9398008D01*
X12441490Y-9398008D02*
X12460537Y-9388484D01*
X12612918Y-9588484D02*
X12612918Y-9455150D01*
X12612918Y-9474198D02*
X12622442Y-9464674D01*
X12622442Y-9464674D02*
X12641490Y-9455150D01*
X12641490Y-9455150D02*
X12670061Y-9455150D01*
X12670061Y-9455150D02*
X12689109Y-9464674D01*
X12689109Y-9464674D02*
X12698633Y-9483722D01*
X12698633Y-9483722D02*
X12698633Y-9588484D01*
X12698633Y-9483722D02*
X12708156Y-9464674D01*
X12708156Y-9464674D02*
X12727204Y-9455150D01*
X12727204Y-9455150D02*
X12755775Y-9455150D01*
X12755775Y-9455150D02*
X12774823Y-9464674D01*
X12774823Y-9464674D02*
X12784347Y-9483722D01*
X12784347Y-9483722D02*
X12784347Y-9588484D01*
X12879585Y-9588484D02*
X12879585Y-9455150D01*
X12879585Y-9474198D02*
X12889109Y-9464674D01*
X12889109Y-9464674D02*
X12908156Y-9455150D01*
X12908156Y-9455150D02*
X12936728Y-9455150D01*
X12936728Y-9455150D02*
X12955776Y-9464674D01*
X12955776Y-9464674D02*
X12965299Y-9483722D01*
X12965299Y-9483722D02*
X12965299Y-9588484D01*
X12965299Y-9483722D02*
X12974823Y-9464674D01*
X12974823Y-9464674D02*
X12993871Y-9455150D01*
X12993871Y-9455150D02*
X13022442Y-9455150D01*
X13022442Y-9455150D02*
X13041490Y-9464674D01*
X13041490Y-9464674D02*
X13051014Y-9483722D01*
X13051014Y-9483722D02*
X13051014Y-9588484D01*
X13441490Y-9378960D02*
X13270061Y-9636103D01*
X13698633Y-9388484D02*
X13717680Y-9388484D01*
X13717680Y-9388484D02*
X13736728Y-9398008D01*
X13736728Y-9398008D02*
X13746252Y-9407531D01*
X13746252Y-9407531D02*
X13755776Y-9426579D01*
X13755776Y-9426579D02*
X13765299Y-9464674D01*
X13765299Y-9464674D02*
X13765299Y-9512293D01*
X13765299Y-9512293D02*
X13755776Y-9550389D01*
X13755776Y-9550389D02*
X13746252Y-9569436D01*
X13746252Y-9569436D02*
X13736728Y-9578960D01*
X13736728Y-9578960D02*
X13717680Y-9588484D01*
X13717680Y-9588484D02*
X13698633Y-9588484D01*
X13698633Y-9588484D02*
X13679585Y-9578960D01*
X13679585Y-9578960D02*
X13670061Y-9569436D01*
X13670061Y-9569436D02*
X13660538Y-9550389D01*
X13660538Y-9550389D02*
X13651014Y-9512293D01*
X13651014Y-9512293D02*
X13651014Y-9464674D01*
X13651014Y-9464674D02*
X13660538Y-9426579D01*
X13660538Y-9426579D02*
X13670061Y-9407531D01*
X13670061Y-9407531D02*
X13679585Y-9398008D01*
X13679585Y-9398008D02*
X13698633Y-9388484D01*
X13851014Y-9569436D02*
X13860538Y-9578960D01*
X13860538Y-9578960D02*
X13851014Y-9588484D01*
X13851014Y-9588484D02*
X13841490Y-9578960D01*
X13841490Y-9578960D02*
X13851014Y-9569436D01*
X13851014Y-9569436D02*
X13851014Y-9588484D01*
X13984347Y-9388484D02*
X14003395Y-9388484D01*
X14003395Y-9388484D02*
X14022442Y-9398008D01*
X14022442Y-9398008D02*
X14031966Y-9407531D01*
X14031966Y-9407531D02*
X14041490Y-9426579D01*
X14041490Y-9426579D02*
X14051014Y-9464674D01*
X14051014Y-9464674D02*
X14051014Y-9512293D01*
X14051014Y-9512293D02*
X14041490Y-9550389D01*
X14041490Y-9550389D02*
X14031966Y-9569436D01*
X14031966Y-9569436D02*
X14022442Y-9578960D01*
X14022442Y-9578960D02*
X14003395Y-9588484D01*
X14003395Y-9588484D02*
X13984347Y-9588484D01*
X13984347Y-9588484D02*
X13965299Y-9578960D01*
X13965299Y-9578960D02*
X13955776Y-9569436D01*
X13955776Y-9569436D02*
X13946252Y-9550389D01*
X13946252Y-9550389D02*
X13936728Y-9512293D01*
X13936728Y-9512293D02*
X13936728Y-9464674D01*
X13936728Y-9464674D02*
X13946252Y-9426579D01*
X13946252Y-9426579D02*
X13955776Y-9407531D01*
X13955776Y-9407531D02*
X13965299Y-9398008D01*
X13965299Y-9398008D02*
X13984347Y-9388484D01*
X14241490Y-9588484D02*
X14127204Y-9588484D01*
X14184347Y-9588484D02*
X14184347Y-9388484D01*
X14184347Y-9388484D02*
X14165299Y-9417055D01*
X14165299Y-9417055D02*
X14146252Y-9436103D01*
X14146252Y-9436103D02*
X14127204Y-9445627D01*
X14336728Y-9588484D02*
X14374823Y-9588484D01*
X14374823Y-9588484D02*
X14393871Y-9578960D01*
X14393871Y-9578960D02*
X14403395Y-9569436D01*
X14403395Y-9569436D02*
X14422442Y-9540865D01*
X14422442Y-9540865D02*
X14431966Y-9502770D01*
X14431966Y-9502770D02*
X14431966Y-9426579D01*
X14431966Y-9426579D02*
X14422442Y-9407531D01*
X14422442Y-9407531D02*
X14412919Y-9398008D01*
X14412919Y-9398008D02*
X14393871Y-9388484D01*
X14393871Y-9388484D02*
X14355776Y-9388484D01*
X14355776Y-9388484D02*
X14336728Y-9398008D01*
X14336728Y-9398008D02*
X14327204Y-9407531D01*
X14327204Y-9407531D02*
X14317680Y-9426579D01*
X14317680Y-9426579D02*
X14317680Y-9474198D01*
X14317680Y-9474198D02*
X14327204Y-9493246D01*
X14327204Y-9493246D02*
X14336728Y-9502770D01*
X14336728Y-9502770D02*
X14355776Y-9512293D01*
X14355776Y-9512293D02*
X14393871Y-9512293D01*
X14393871Y-9512293D02*
X14412919Y-9502770D01*
X14412919Y-9502770D02*
X14422442Y-9493246D01*
X14422442Y-9493246D02*
X14431966Y-9474198D01*
X14498633Y-9388484D02*
X14631966Y-9388484D01*
X14631966Y-9388484D02*
X14546252Y-9588484D01*
X14698633Y-9388484D02*
X14698633Y-9426579D01*
X14774823Y-9388484D02*
X14774823Y-9426579D01*
X15070062Y-9664674D02*
X15060538Y-9655150D01*
X15060538Y-9655150D02*
X15041490Y-9626579D01*
X15041490Y-9626579D02*
X15031966Y-9607531D01*
X15031966Y-9607531D02*
X15022442Y-9578960D01*
X15022442Y-9578960D02*
X15012919Y-9531341D01*
X15012919Y-9531341D02*
X15012919Y-9493246D01*
X15012919Y-9493246D02*
X15022442Y-9445627D01*
X15022442Y-9445627D02*
X15031966Y-9417055D01*
X15031966Y-9417055D02*
X15041490Y-9398008D01*
X15041490Y-9398008D02*
X15060538Y-9369436D01*
X15060538Y-9369436D02*
X15070062Y-9359912D01*
X15231966Y-9388484D02*
X15193871Y-9388484D01*
X15193871Y-9388484D02*
X15174823Y-9398008D01*
X15174823Y-9398008D02*
X15165300Y-9407531D01*
X15165300Y-9407531D02*
X15146252Y-9436103D01*
X15146252Y-9436103D02*
X15136728Y-9474198D01*
X15136728Y-9474198D02*
X15136728Y-9550389D01*
X15136728Y-9550389D02*
X15146252Y-9569436D01*
X15146252Y-9569436D02*
X15155776Y-9578960D01*
X15155776Y-9578960D02*
X15174823Y-9588484D01*
X15174823Y-9588484D02*
X15212919Y-9588484D01*
X15212919Y-9588484D02*
X15231966Y-9578960D01*
X15231966Y-9578960D02*
X15241490Y-9569436D01*
X15241490Y-9569436D02*
X15251014Y-9550389D01*
X15251014Y-9550389D02*
X15251014Y-9502770D01*
X15251014Y-9502770D02*
X15241490Y-9483722D01*
X15241490Y-9483722D02*
X15231966Y-9474198D01*
X15231966Y-9474198D02*
X15212919Y-9464674D01*
X15212919Y-9464674D02*
X15174823Y-9464674D01*
X15174823Y-9464674D02*
X15155776Y-9474198D01*
X15155776Y-9474198D02*
X15146252Y-9483722D01*
X15146252Y-9483722D02*
X15136728Y-9502770D01*
X15489109Y-9588484D02*
X15489109Y-9388484D01*
X15574823Y-9588484D02*
X15574823Y-9483722D01*
X15574823Y-9483722D02*
X15565300Y-9464674D01*
X15565300Y-9464674D02*
X15546252Y-9455150D01*
X15546252Y-9455150D02*
X15517681Y-9455150D01*
X15517681Y-9455150D02*
X15498633Y-9464674D01*
X15498633Y-9464674D02*
X15489109Y-9474198D01*
X15698633Y-9588484D02*
X15679585Y-9578960D01*
X15679585Y-9578960D02*
X15670062Y-9569436D01*
X15670062Y-9569436D02*
X15660538Y-9550389D01*
X15660538Y-9550389D02*
X15660538Y-9493246D01*
X15660538Y-9493246D02*
X15670062Y-9474198D01*
X15670062Y-9474198D02*
X15679585Y-9464674D01*
X15679585Y-9464674D02*
X15698633Y-9455150D01*
X15698633Y-9455150D02*
X15727204Y-9455150D01*
X15727204Y-9455150D02*
X15746252Y-9464674D01*
X15746252Y-9464674D02*
X15755776Y-9474198D01*
X15755776Y-9474198D02*
X15765300Y-9493246D01*
X15765300Y-9493246D02*
X15765300Y-9550389D01*
X15765300Y-9550389D02*
X15755776Y-9569436D01*
X15755776Y-9569436D02*
X15746252Y-9578960D01*
X15746252Y-9578960D02*
X15727204Y-9588484D01*
X15727204Y-9588484D02*
X15698633Y-9588484D01*
X15879585Y-9588484D02*
X15860538Y-9578960D01*
X15860538Y-9578960D02*
X15851014Y-9559912D01*
X15851014Y-9559912D02*
X15851014Y-9388484D01*
X16031966Y-9578960D02*
X16012919Y-9588484D01*
X16012919Y-9588484D02*
X15974823Y-9588484D01*
X15974823Y-9588484D02*
X15955776Y-9578960D01*
X15955776Y-9578960D02*
X15946252Y-9559912D01*
X15946252Y-9559912D02*
X15946252Y-9483722D01*
X15946252Y-9483722D02*
X15955776Y-9464674D01*
X15955776Y-9464674D02*
X15974823Y-9455150D01*
X15974823Y-9455150D02*
X16012919Y-9455150D01*
X16012919Y-9455150D02*
X16031966Y-9464674D01*
X16031966Y-9464674D02*
X16041490Y-9483722D01*
X16041490Y-9483722D02*
X16041490Y-9502770D01*
X16041490Y-9502770D02*
X15946252Y-9521817D01*
X16117681Y-9578960D02*
X16136728Y-9588484D01*
X16136728Y-9588484D02*
X16174823Y-9588484D01*
X16174823Y-9588484D02*
X16193871Y-9578960D01*
X16193871Y-9578960D02*
X16203395Y-9559912D01*
X16203395Y-9559912D02*
X16203395Y-9550389D01*
X16203395Y-9550389D02*
X16193871Y-9531341D01*
X16193871Y-9531341D02*
X16174823Y-9521817D01*
X16174823Y-9521817D02*
X16146252Y-9521817D01*
X16146252Y-9521817D02*
X16127204Y-9512293D01*
X16127204Y-9512293D02*
X16117681Y-9493246D01*
X16117681Y-9493246D02*
X16117681Y-9483722D01*
X16117681Y-9483722D02*
X16127204Y-9464674D01*
X16127204Y-9464674D02*
X16146252Y-9455150D01*
X16146252Y-9455150D02*
X16174823Y-9455150D01*
X16174823Y-9455150D02*
X16193871Y-9464674D01*
X16270062Y-9664674D02*
X16279585Y-9655150D01*
X16279585Y-9655150D02*
X16298633Y-9626579D01*
X16298633Y-9626579D02*
X16308157Y-9607531D01*
X16308157Y-9607531D02*
X16317681Y-9578960D01*
X16317681Y-9578960D02*
X16327204Y-9531341D01*
X16327204Y-9531341D02*
X16327204Y-9493246D01*
X16327204Y-9493246D02*
X16317681Y-9445627D01*
X16317681Y-9445627D02*
X16308157Y-9417055D01*
X16308157Y-9417055D02*
X16298633Y-9398008D01*
X16298633Y-9398008D02*
X16279585Y-9369436D01*
X16279585Y-9369436D02*
X16270062Y-9359912D01*
D10*
X11464999Y-9791000D02*
X11494999Y-9761000D01*
X11464999Y-9731000D01*
X11434999Y-9761000D01*
X11464999Y-9791000D01*
D11*
X11793871Y-9652484D02*
X11812918Y-9652484D01*
X11812918Y-9652484D02*
X11831966Y-9662008D01*
X11831966Y-9662008D02*
X11841490Y-9671531D01*
X11841490Y-9671531D02*
X11851014Y-9690579D01*
X11851014Y-9690579D02*
X11860537Y-9728674D01*
X11860537Y-9728674D02*
X11860537Y-9776293D01*
X11860537Y-9776293D02*
X11851014Y-9814389D01*
X11851014Y-9814389D02*
X11841490Y-9833436D01*
X11841490Y-9833436D02*
X11831966Y-9842960D01*
X11831966Y-9842960D02*
X11812918Y-9852484D01*
X11812918Y-9852484D02*
X11793871Y-9852484D01*
X11793871Y-9852484D02*
X11774823Y-9842960D01*
X11774823Y-9842960D02*
X11765299Y-9833436D01*
X11765299Y-9833436D02*
X11755775Y-9814389D01*
X11755775Y-9814389D02*
X11746252Y-9776293D01*
X11746252Y-9776293D02*
X11746252Y-9728674D01*
X11746252Y-9728674D02*
X11755775Y-9690579D01*
X11755775Y-9690579D02*
X11765299Y-9671531D01*
X11765299Y-9671531D02*
X11774823Y-9662008D01*
X11774823Y-9662008D02*
X11793871Y-9652484D01*
X11946252Y-9833436D02*
X11955775Y-9842960D01*
X11955775Y-9842960D02*
X11946252Y-9852484D01*
X11946252Y-9852484D02*
X11936728Y-9842960D01*
X11936728Y-9842960D02*
X11946252Y-9833436D01*
X11946252Y-9833436D02*
X11946252Y-9852484D01*
X12127204Y-9652484D02*
X12089109Y-9652484D01*
X12089109Y-9652484D02*
X12070061Y-9662008D01*
X12070061Y-9662008D02*
X12060537Y-9671531D01*
X12060537Y-9671531D02*
X12041490Y-9700103D01*
X12041490Y-9700103D02*
X12031966Y-9738198D01*
X12031966Y-9738198D02*
X12031966Y-9814389D01*
X12031966Y-9814389D02*
X12041490Y-9833436D01*
X12041490Y-9833436D02*
X12051014Y-9842960D01*
X12051014Y-9842960D02*
X12070061Y-9852484D01*
X12070061Y-9852484D02*
X12108156Y-9852484D01*
X12108156Y-9852484D02*
X12127204Y-9842960D01*
X12127204Y-9842960D02*
X12136728Y-9833436D01*
X12136728Y-9833436D02*
X12146252Y-9814389D01*
X12146252Y-9814389D02*
X12146252Y-9766770D01*
X12146252Y-9766770D02*
X12136728Y-9747722D01*
X12136728Y-9747722D02*
X12127204Y-9738198D01*
X12127204Y-9738198D02*
X12108156Y-9728674D01*
X12108156Y-9728674D02*
X12070061Y-9728674D01*
X12070061Y-9728674D02*
X12051014Y-9738198D01*
X12051014Y-9738198D02*
X12041490Y-9747722D01*
X12041490Y-9747722D02*
X12031966Y-9766770D01*
X12270061Y-9652484D02*
X12289109Y-9652484D01*
X12289109Y-9652484D02*
X12308156Y-9662008D01*
X12308156Y-9662008D02*
X12317680Y-9671531D01*
X12317680Y-9671531D02*
X12327204Y-9690579D01*
X12327204Y-9690579D02*
X12336728Y-9728674D01*
X12336728Y-9728674D02*
X12336728Y-9776293D01*
X12336728Y-9776293D02*
X12327204Y-9814389D01*
X12327204Y-9814389D02*
X12317680Y-9833436D01*
X12317680Y-9833436D02*
X12308156Y-9842960D01*
X12308156Y-9842960D02*
X12289109Y-9852484D01*
X12289109Y-9852484D02*
X12270061Y-9852484D01*
X12270061Y-9852484D02*
X12251014Y-9842960D01*
X12251014Y-9842960D02*
X12241490Y-9833436D01*
X12241490Y-9833436D02*
X12231966Y-9814389D01*
X12231966Y-9814389D02*
X12222442Y-9776293D01*
X12222442Y-9776293D02*
X12222442Y-9728674D01*
X12222442Y-9728674D02*
X12231966Y-9690579D01*
X12231966Y-9690579D02*
X12241490Y-9671531D01*
X12241490Y-9671531D02*
X12251014Y-9662008D01*
X12251014Y-9662008D02*
X12270061Y-9652484D01*
X12460537Y-9652484D02*
X12479585Y-9652484D01*
X12479585Y-9652484D02*
X12498633Y-9662008D01*
X12498633Y-9662008D02*
X12508156Y-9671531D01*
X12508156Y-9671531D02*
X12517680Y-9690579D01*
X12517680Y-9690579D02*
X12527204Y-9728674D01*
X12527204Y-9728674D02*
X12527204Y-9776293D01*
X12527204Y-9776293D02*
X12517680Y-9814389D01*
X12517680Y-9814389D02*
X12508156Y-9833436D01*
X12508156Y-9833436D02*
X12498633Y-9842960D01*
X12498633Y-9842960D02*
X12479585Y-9852484D01*
X12479585Y-9852484D02*
X12460537Y-9852484D01*
X12460537Y-9852484D02*
X12441490Y-9842960D01*
X12441490Y-9842960D02*
X12431966Y-9833436D01*
X12431966Y-9833436D02*
X12422442Y-9814389D01*
X12422442Y-9814389D02*
X12412918Y-9776293D01*
X12412918Y-9776293D02*
X12412918Y-9728674D01*
X12412918Y-9728674D02*
X12422442Y-9690579D01*
X12422442Y-9690579D02*
X12431966Y-9671531D01*
X12431966Y-9671531D02*
X12441490Y-9662008D01*
X12441490Y-9662008D02*
X12460537Y-9652484D01*
X12612918Y-9852484D02*
X12612918Y-9719150D01*
X12612918Y-9738198D02*
X12622442Y-9728674D01*
X12622442Y-9728674D02*
X12641490Y-9719150D01*
X12641490Y-9719150D02*
X12670061Y-9719150D01*
X12670061Y-9719150D02*
X12689109Y-9728674D01*
X12689109Y-9728674D02*
X12698633Y-9747722D01*
X12698633Y-9747722D02*
X12698633Y-9852484D01*
X12698633Y-9747722D02*
X12708156Y-9728674D01*
X12708156Y-9728674D02*
X12727204Y-9719150D01*
X12727204Y-9719150D02*
X12755775Y-9719150D01*
X12755775Y-9719150D02*
X12774823Y-9728674D01*
X12774823Y-9728674D02*
X12784347Y-9747722D01*
X12784347Y-9747722D02*
X12784347Y-9852484D01*
X12879585Y-9852484D02*
X12879585Y-9719150D01*
X12879585Y-9738198D02*
X12889109Y-9728674D01*
X12889109Y-9728674D02*
X12908156Y-9719150D01*
X12908156Y-9719150D02*
X12936728Y-9719150D01*
X12936728Y-9719150D02*
X12955776Y-9728674D01*
X12955776Y-9728674D02*
X12965299Y-9747722D01*
X12965299Y-9747722D02*
X12965299Y-9852484D01*
X12965299Y-9747722D02*
X12974823Y-9728674D01*
X12974823Y-9728674D02*
X12993871Y-9719150D01*
X12993871Y-9719150D02*
X13022442Y-9719150D01*
X13022442Y-9719150D02*
X13041490Y-9728674D01*
X13041490Y-9728674D02*
X13051014Y-9747722D01*
X13051014Y-9747722D02*
X13051014Y-9852484D01*
X13441490Y-9642960D02*
X13270061Y-9900103D01*
X13698633Y-9652484D02*
X13717680Y-9652484D01*
X13717680Y-9652484D02*
X13736728Y-9662008D01*
X13736728Y-9662008D02*
X13746252Y-9671531D01*
X13746252Y-9671531D02*
X13755776Y-9690579D01*
X13755776Y-9690579D02*
X13765299Y-9728674D01*
X13765299Y-9728674D02*
X13765299Y-9776293D01*
X13765299Y-9776293D02*
X13755776Y-9814389D01*
X13755776Y-9814389D02*
X13746252Y-9833436D01*
X13746252Y-9833436D02*
X13736728Y-9842960D01*
X13736728Y-9842960D02*
X13717680Y-9852484D01*
X13717680Y-9852484D02*
X13698633Y-9852484D01*
X13698633Y-9852484D02*
X13679585Y-9842960D01*
X13679585Y-9842960D02*
X13670061Y-9833436D01*
X13670061Y-9833436D02*
X13660538Y-9814389D01*
X13660538Y-9814389D02*
X13651014Y-9776293D01*
X13651014Y-9776293D02*
X13651014Y-9728674D01*
X13651014Y-9728674D02*
X13660538Y-9690579D01*
X13660538Y-9690579D02*
X13670061Y-9671531D01*
X13670061Y-9671531D02*
X13679585Y-9662008D01*
X13679585Y-9662008D02*
X13698633Y-9652484D01*
X13851014Y-9833436D02*
X13860538Y-9842960D01*
X13860538Y-9842960D02*
X13851014Y-9852484D01*
X13851014Y-9852484D02*
X13841490Y-9842960D01*
X13841490Y-9842960D02*
X13851014Y-9833436D01*
X13851014Y-9833436D02*
X13851014Y-9852484D01*
X13984347Y-9652484D02*
X14003395Y-9652484D01*
X14003395Y-9652484D02*
X14022442Y-9662008D01*
X14022442Y-9662008D02*
X14031966Y-9671531D01*
X14031966Y-9671531D02*
X14041490Y-9690579D01*
X14041490Y-9690579D02*
X14051014Y-9728674D01*
X14051014Y-9728674D02*
X14051014Y-9776293D01*
X14051014Y-9776293D02*
X14041490Y-9814389D01*
X14041490Y-9814389D02*
X14031966Y-9833436D01*
X14031966Y-9833436D02*
X14022442Y-9842960D01*
X14022442Y-9842960D02*
X14003395Y-9852484D01*
X14003395Y-9852484D02*
X13984347Y-9852484D01*
X13984347Y-9852484D02*
X13965299Y-9842960D01*
X13965299Y-9842960D02*
X13955776Y-9833436D01*
X13955776Y-9833436D02*
X13946252Y-9814389D01*
X13946252Y-9814389D02*
X13936728Y-9776293D01*
X13936728Y-9776293D02*
X13936728Y-9728674D01*
X13936728Y-9728674D02*
X13946252Y-9690579D01*
X13946252Y-9690579D02*
X13955776Y-9671531D01*
X13955776Y-9671531D02*
X13965299Y-9662008D01*
X13965299Y-9662008D02*
X13984347Y-9652484D01*
X14127204Y-9671531D02*
X14136728Y-9662008D01*
X14136728Y-9662008D02*
X14155776Y-9652484D01*
X14155776Y-9652484D02*
X14203395Y-9652484D01*
X14203395Y-9652484D02*
X14222442Y-9662008D01*
X14222442Y-9662008D02*
X14231966Y-9671531D01*
X14231966Y-9671531D02*
X14241490Y-9690579D01*
X14241490Y-9690579D02*
X14241490Y-9709627D01*
X14241490Y-9709627D02*
X14231966Y-9738198D01*
X14231966Y-9738198D02*
X14117680Y-9852484D01*
X14117680Y-9852484D02*
X14241490Y-9852484D01*
X14308157Y-9652484D02*
X14431966Y-9652484D01*
X14431966Y-9652484D02*
X14365299Y-9728674D01*
X14365299Y-9728674D02*
X14393871Y-9728674D01*
X14393871Y-9728674D02*
X14412919Y-9738198D01*
X14412919Y-9738198D02*
X14422442Y-9747722D01*
X14422442Y-9747722D02*
X14431966Y-9766770D01*
X14431966Y-9766770D02*
X14431966Y-9814389D01*
X14431966Y-9814389D02*
X14422442Y-9833436D01*
X14422442Y-9833436D02*
X14412919Y-9842960D01*
X14412919Y-9842960D02*
X14393871Y-9852484D01*
X14393871Y-9852484D02*
X14336728Y-9852484D01*
X14336728Y-9852484D02*
X14317680Y-9842960D01*
X14317680Y-9842960D02*
X14308157Y-9833436D01*
X14603395Y-9652484D02*
X14565299Y-9652484D01*
X14565299Y-9652484D02*
X14546252Y-9662008D01*
X14546252Y-9662008D02*
X14536728Y-9671531D01*
X14536728Y-9671531D02*
X14517680Y-9700103D01*
X14517680Y-9700103D02*
X14508157Y-9738198D01*
X14508157Y-9738198D02*
X14508157Y-9814389D01*
X14508157Y-9814389D02*
X14517680Y-9833436D01*
X14517680Y-9833436D02*
X14527204Y-9842960D01*
X14527204Y-9842960D02*
X14546252Y-9852484D01*
X14546252Y-9852484D02*
X14584347Y-9852484D01*
X14584347Y-9852484D02*
X14603395Y-9842960D01*
X14603395Y-9842960D02*
X14612919Y-9833436D01*
X14612919Y-9833436D02*
X14622442Y-9814389D01*
X14622442Y-9814389D02*
X14622442Y-9766770D01*
X14622442Y-9766770D02*
X14612919Y-9747722D01*
X14612919Y-9747722D02*
X14603395Y-9738198D01*
X14603395Y-9738198D02*
X14584347Y-9728674D01*
X14584347Y-9728674D02*
X14546252Y-9728674D01*
X14546252Y-9728674D02*
X14527204Y-9738198D01*
X14527204Y-9738198D02*
X14517680Y-9747722D01*
X14517680Y-9747722D02*
X14508157Y-9766770D01*
X14698633Y-9652484D02*
X14698633Y-9690579D01*
X14774823Y-9652484D02*
X14774823Y-9690579D01*
X15070062Y-9928674D02*
X15060538Y-9919150D01*
X15060538Y-9919150D02*
X15041490Y-9890579D01*
X15041490Y-9890579D02*
X15031966Y-9871531D01*
X15031966Y-9871531D02*
X15022442Y-9842960D01*
X15022442Y-9842960D02*
X15012919Y-9795341D01*
X15012919Y-9795341D02*
X15012919Y-9757246D01*
X15012919Y-9757246D02*
X15022442Y-9709627D01*
X15022442Y-9709627D02*
X15031966Y-9681055D01*
X15031966Y-9681055D02*
X15041490Y-9662008D01*
X15041490Y-9662008D02*
X15060538Y-9633436D01*
X15060538Y-9633436D02*
X15070062Y-9623912D01*
X15184347Y-9652484D02*
X15203395Y-9652484D01*
X15203395Y-9652484D02*
X15222442Y-9662008D01*
X15222442Y-9662008D02*
X15231966Y-9671531D01*
X15231966Y-9671531D02*
X15241490Y-9690579D01*
X15241490Y-9690579D02*
X15251014Y-9728674D01*
X15251014Y-9728674D02*
X15251014Y-9776293D01*
X15251014Y-9776293D02*
X15241490Y-9814389D01*
X15241490Y-9814389D02*
X15231966Y-9833436D01*
X15231966Y-9833436D02*
X15222442Y-9842960D01*
X15222442Y-9842960D02*
X15203395Y-9852484D01*
X15203395Y-9852484D02*
X15184347Y-9852484D01*
X15184347Y-9852484D02*
X15165300Y-9842960D01*
X15165300Y-9842960D02*
X15155776Y-9833436D01*
X15155776Y-9833436D02*
X15146252Y-9814389D01*
X15146252Y-9814389D02*
X15136728Y-9776293D01*
X15136728Y-9776293D02*
X15136728Y-9728674D01*
X15136728Y-9728674D02*
X15146252Y-9690579D01*
X15146252Y-9690579D02*
X15155776Y-9671531D01*
X15155776Y-9671531D02*
X15165300Y-9662008D01*
X15165300Y-9662008D02*
X15184347Y-9652484D01*
X15489109Y-9852484D02*
X15489109Y-9652484D01*
X15574823Y-9852484D02*
X15574823Y-9747722D01*
X15574823Y-9747722D02*
X15565300Y-9728674D01*
X15565300Y-9728674D02*
X15546252Y-9719150D01*
X15546252Y-9719150D02*
X15517681Y-9719150D01*
X15517681Y-9719150D02*
X15498633Y-9728674D01*
X15498633Y-9728674D02*
X15489109Y-9738198D01*
X15698633Y-9852484D02*
X15679585Y-9842960D01*
X15679585Y-9842960D02*
X15670062Y-9833436D01*
X15670062Y-9833436D02*
X15660538Y-9814389D01*
X15660538Y-9814389D02*
X15660538Y-9757246D01*
X15660538Y-9757246D02*
X15670062Y-9738198D01*
X15670062Y-9738198D02*
X15679585Y-9728674D01*
X15679585Y-9728674D02*
X15698633Y-9719150D01*
X15698633Y-9719150D02*
X15727204Y-9719150D01*
X15727204Y-9719150D02*
X15746252Y-9728674D01*
X15746252Y-9728674D02*
X15755776Y-9738198D01*
X15755776Y-9738198D02*
X15765300Y-9757246D01*
X15765300Y-9757246D02*
X15765300Y-9814389D01*
X15765300Y-9814389D02*
X15755776Y-9833436D01*
X15755776Y-9833436D02*
X15746252Y-9842960D01*
X15746252Y-9842960D02*
X15727204Y-9852484D01*
X15727204Y-9852484D02*
X15698633Y-9852484D01*
X15879585Y-9852484D02*
X15860538Y-9842960D01*
X15860538Y-9842960D02*
X15851014Y-9823912D01*
X15851014Y-9823912D02*
X15851014Y-9652484D01*
X16031966Y-9842960D02*
X16012919Y-9852484D01*
X16012919Y-9852484D02*
X15974823Y-9852484D01*
X15974823Y-9852484D02*
X15955776Y-9842960D01*
X15955776Y-9842960D02*
X15946252Y-9823912D01*
X15946252Y-9823912D02*
X15946252Y-9747722D01*
X15946252Y-9747722D02*
X15955776Y-9728674D01*
X15955776Y-9728674D02*
X15974823Y-9719150D01*
X15974823Y-9719150D02*
X16012919Y-9719150D01*
X16012919Y-9719150D02*
X16031966Y-9728674D01*
X16031966Y-9728674D02*
X16041490Y-9747722D01*
X16041490Y-9747722D02*
X16041490Y-9766770D01*
X16041490Y-9766770D02*
X15946252Y-9785817D01*
X16117681Y-9842960D02*
X16136728Y-9852484D01*
X16136728Y-9852484D02*
X16174823Y-9852484D01*
X16174823Y-9852484D02*
X16193871Y-9842960D01*
X16193871Y-9842960D02*
X16203395Y-9823912D01*
X16203395Y-9823912D02*
X16203395Y-9814389D01*
X16203395Y-9814389D02*
X16193871Y-9795341D01*
X16193871Y-9795341D02*
X16174823Y-9785817D01*
X16174823Y-9785817D02*
X16146252Y-9785817D01*
X16146252Y-9785817D02*
X16127204Y-9776293D01*
X16127204Y-9776293D02*
X16117681Y-9757246D01*
X16117681Y-9757246D02*
X16117681Y-9747722D01*
X16117681Y-9747722D02*
X16127204Y-9728674D01*
X16127204Y-9728674D02*
X16146252Y-9719150D01*
X16146252Y-9719150D02*
X16174823Y-9719150D01*
X16174823Y-9719150D02*
X16193871Y-9728674D01*
X16441490Y-9776293D02*
X16593871Y-9776293D01*
X16517681Y-9852484D02*
X16517681Y-9700103D01*
X16927205Y-9719150D02*
X16927205Y-9852484D01*
X16879586Y-9642960D02*
X16831967Y-9785817D01*
X16831967Y-9785817D02*
X16955776Y-9785817D01*
X17174824Y-9842960D02*
X17193871Y-9852484D01*
X17193871Y-9852484D02*
X17231967Y-9852484D01*
X17231967Y-9852484D02*
X17251014Y-9842960D01*
X17251014Y-9842960D02*
X17260538Y-9823912D01*
X17260538Y-9823912D02*
X17260538Y-9814389D01*
X17260538Y-9814389D02*
X17251014Y-9795341D01*
X17251014Y-9795341D02*
X17231967Y-9785817D01*
X17231967Y-9785817D02*
X17203395Y-9785817D01*
X17203395Y-9785817D02*
X17184348Y-9776293D01*
X17184348Y-9776293D02*
X17174824Y-9757246D01*
X17174824Y-9757246D02*
X17174824Y-9747722D01*
X17174824Y-9747722D02*
X17184348Y-9728674D01*
X17184348Y-9728674D02*
X17203395Y-9719150D01*
X17203395Y-9719150D02*
X17231967Y-9719150D01*
X17231967Y-9719150D02*
X17251014Y-9728674D01*
X17374824Y-9852484D02*
X17355776Y-9842960D01*
X17355776Y-9842960D02*
X17346252Y-9823912D01*
X17346252Y-9823912D02*
X17346252Y-9652484D01*
X17479586Y-9852484D02*
X17460538Y-9842960D01*
X17460538Y-9842960D02*
X17451014Y-9833436D01*
X17451014Y-9833436D02*
X17441490Y-9814389D01*
X17441490Y-9814389D02*
X17441490Y-9757246D01*
X17441490Y-9757246D02*
X17451014Y-9738198D01*
X17451014Y-9738198D02*
X17460538Y-9728674D01*
X17460538Y-9728674D02*
X17479586Y-9719150D01*
X17479586Y-9719150D02*
X17508157Y-9719150D01*
X17508157Y-9719150D02*
X17527205Y-9728674D01*
X17527205Y-9728674D02*
X17536729Y-9738198D01*
X17536729Y-9738198D02*
X17546252Y-9757246D01*
X17546252Y-9757246D02*
X17546252Y-9814389D01*
X17546252Y-9814389D02*
X17536729Y-9833436D01*
X17536729Y-9833436D02*
X17527205Y-9842960D01*
X17527205Y-9842960D02*
X17508157Y-9852484D01*
X17508157Y-9852484D02*
X17479586Y-9852484D01*
X17603395Y-9719150D02*
X17679586Y-9719150D01*
X17631967Y-9652484D02*
X17631967Y-9823912D01*
X17631967Y-9823912D02*
X17641490Y-9842960D01*
X17641490Y-9842960D02*
X17660538Y-9852484D01*
X17660538Y-9852484D02*
X17679586Y-9852484D01*
X17736729Y-9842960D02*
X17755776Y-9852484D01*
X17755776Y-9852484D02*
X17793871Y-9852484D01*
X17793871Y-9852484D02*
X17812919Y-9842960D01*
X17812919Y-9842960D02*
X17822443Y-9823912D01*
X17822443Y-9823912D02*
X17822443Y-9814389D01*
X17822443Y-9814389D02*
X17812919Y-9795341D01*
X17812919Y-9795341D02*
X17793871Y-9785817D01*
X17793871Y-9785817D02*
X17765300Y-9785817D01*
X17765300Y-9785817D02*
X17746252Y-9776293D01*
X17746252Y-9776293D02*
X17736729Y-9757246D01*
X17736729Y-9757246D02*
X17736729Y-9747722D01*
X17736729Y-9747722D02*
X17746252Y-9728674D01*
X17746252Y-9728674D02*
X17765300Y-9719150D01*
X17765300Y-9719150D02*
X17793871Y-9719150D01*
X17793871Y-9719150D02*
X17812919Y-9728674D01*
X17889110Y-9928674D02*
X17898633Y-9919150D01*
X17898633Y-9919150D02*
X17917681Y-9890579D01*
X17917681Y-9890579D02*
X17927205Y-9871531D01*
X17927205Y-9871531D02*
X17936729Y-9842960D01*
X17936729Y-9842960D02*
X17946252Y-9795341D01*
X17946252Y-9795341D02*
X17946252Y-9757246D01*
X17946252Y-9757246D02*
X17936729Y-9709627D01*
X17936729Y-9709627D02*
X17927205Y-9681055D01*
X17927205Y-9681055D02*
X17917681Y-9662008D01*
X17917681Y-9662008D02*
X17898633Y-9633436D01*
X17898633Y-9633436D02*
X17889110Y-9623912D01*
D10*
X11394999Y-9975000D02*
X11494999Y-10075000D01*
X11494999Y-9975000D02*
X11394999Y-10075000D01*
X11494999Y-10025000D02*
G75*
G03*
X11394999Y-10025000I-50000J0D01*
G01*
X11394999Y-10025000D02*
G75*
G03*
X11494999Y-10025000I50000J0D01*
G01*
D11*
X11860537Y-10116484D02*
X11746252Y-10116484D01*
X11803394Y-10116484D02*
X11803394Y-9916484D01*
X11803394Y-9916484D02*
X11784347Y-9945055D01*
X11784347Y-9945055D02*
X11765299Y-9964103D01*
X11765299Y-9964103D02*
X11746252Y-9973627D01*
X11946252Y-10097436D02*
X11955775Y-10106960D01*
X11955775Y-10106960D02*
X11946252Y-10116484D01*
X11946252Y-10116484D02*
X11936728Y-10106960D01*
X11936728Y-10106960D02*
X11946252Y-10097436D01*
X11946252Y-10097436D02*
X11946252Y-10116484D01*
X12079585Y-9916484D02*
X12098633Y-9916484D01*
X12098633Y-9916484D02*
X12117680Y-9926008D01*
X12117680Y-9926008D02*
X12127204Y-9935531D01*
X12127204Y-9935531D02*
X12136728Y-9954579D01*
X12136728Y-9954579D02*
X12146252Y-9992674D01*
X12146252Y-9992674D02*
X12146252Y-10040293D01*
X12146252Y-10040293D02*
X12136728Y-10078389D01*
X12136728Y-10078389D02*
X12127204Y-10097436D01*
X12127204Y-10097436D02*
X12117680Y-10106960D01*
X12117680Y-10106960D02*
X12098633Y-10116484D01*
X12098633Y-10116484D02*
X12079585Y-10116484D01*
X12079585Y-10116484D02*
X12060537Y-10106960D01*
X12060537Y-10106960D02*
X12051014Y-10097436D01*
X12051014Y-10097436D02*
X12041490Y-10078389D01*
X12041490Y-10078389D02*
X12031966Y-10040293D01*
X12031966Y-10040293D02*
X12031966Y-9992674D01*
X12031966Y-9992674D02*
X12041490Y-9954579D01*
X12041490Y-9954579D02*
X12051014Y-9935531D01*
X12051014Y-9935531D02*
X12060537Y-9926008D01*
X12060537Y-9926008D02*
X12079585Y-9916484D01*
X12270061Y-9916484D02*
X12289109Y-9916484D01*
X12289109Y-9916484D02*
X12308156Y-9926008D01*
X12308156Y-9926008D02*
X12317680Y-9935531D01*
X12317680Y-9935531D02*
X12327204Y-9954579D01*
X12327204Y-9954579D02*
X12336728Y-9992674D01*
X12336728Y-9992674D02*
X12336728Y-10040293D01*
X12336728Y-10040293D02*
X12327204Y-10078389D01*
X12327204Y-10078389D02*
X12317680Y-10097436D01*
X12317680Y-10097436D02*
X12308156Y-10106960D01*
X12308156Y-10106960D02*
X12289109Y-10116484D01*
X12289109Y-10116484D02*
X12270061Y-10116484D01*
X12270061Y-10116484D02*
X12251014Y-10106960D01*
X12251014Y-10106960D02*
X12241490Y-10097436D01*
X12241490Y-10097436D02*
X12231966Y-10078389D01*
X12231966Y-10078389D02*
X12222442Y-10040293D01*
X12222442Y-10040293D02*
X12222442Y-9992674D01*
X12222442Y-9992674D02*
X12231966Y-9954579D01*
X12231966Y-9954579D02*
X12241490Y-9935531D01*
X12241490Y-9935531D02*
X12251014Y-9926008D01*
X12251014Y-9926008D02*
X12270061Y-9916484D01*
X12460537Y-9916484D02*
X12479585Y-9916484D01*
X12479585Y-9916484D02*
X12498633Y-9926008D01*
X12498633Y-9926008D02*
X12508156Y-9935531D01*
X12508156Y-9935531D02*
X12517680Y-9954579D01*
X12517680Y-9954579D02*
X12527204Y-9992674D01*
X12527204Y-9992674D02*
X12527204Y-10040293D01*
X12527204Y-10040293D02*
X12517680Y-10078389D01*
X12517680Y-10078389D02*
X12508156Y-10097436D01*
X12508156Y-10097436D02*
X12498633Y-10106960D01*
X12498633Y-10106960D02*
X12479585Y-10116484D01*
X12479585Y-10116484D02*
X12460537Y-10116484D01*
X12460537Y-10116484D02*
X12441490Y-10106960D01*
X12441490Y-10106960D02*
X12431966Y-10097436D01*
X12431966Y-10097436D02*
X12422442Y-10078389D01*
X12422442Y-10078389D02*
X12412918Y-10040293D01*
X12412918Y-10040293D02*
X12412918Y-9992674D01*
X12412918Y-9992674D02*
X12422442Y-9954579D01*
X12422442Y-9954579D02*
X12431966Y-9935531D01*
X12431966Y-9935531D02*
X12441490Y-9926008D01*
X12441490Y-9926008D02*
X12460537Y-9916484D01*
X12612918Y-10116484D02*
X12612918Y-9983150D01*
X12612918Y-10002198D02*
X12622442Y-9992674D01*
X12622442Y-9992674D02*
X12641490Y-9983150D01*
X12641490Y-9983150D02*
X12670061Y-9983150D01*
X12670061Y-9983150D02*
X12689109Y-9992674D01*
X12689109Y-9992674D02*
X12698633Y-10011722D01*
X12698633Y-10011722D02*
X12698633Y-10116484D01*
X12698633Y-10011722D02*
X12708156Y-9992674D01*
X12708156Y-9992674D02*
X12727204Y-9983150D01*
X12727204Y-9983150D02*
X12755775Y-9983150D01*
X12755775Y-9983150D02*
X12774823Y-9992674D01*
X12774823Y-9992674D02*
X12784347Y-10011722D01*
X12784347Y-10011722D02*
X12784347Y-10116484D01*
X12879585Y-10116484D02*
X12879585Y-9983150D01*
X12879585Y-10002198D02*
X12889109Y-9992674D01*
X12889109Y-9992674D02*
X12908156Y-9983150D01*
X12908156Y-9983150D02*
X12936728Y-9983150D01*
X12936728Y-9983150D02*
X12955776Y-9992674D01*
X12955776Y-9992674D02*
X12965299Y-10011722D01*
X12965299Y-10011722D02*
X12965299Y-10116484D01*
X12965299Y-10011722D02*
X12974823Y-9992674D01*
X12974823Y-9992674D02*
X12993871Y-9983150D01*
X12993871Y-9983150D02*
X13022442Y-9983150D01*
X13022442Y-9983150D02*
X13041490Y-9992674D01*
X13041490Y-9992674D02*
X13051014Y-10011722D01*
X13051014Y-10011722D02*
X13051014Y-10116484D01*
X13441490Y-9906960D02*
X13270061Y-10164103D01*
X13698633Y-9916484D02*
X13717680Y-9916484D01*
X13717680Y-9916484D02*
X13736728Y-9926008D01*
X13736728Y-9926008D02*
X13746252Y-9935531D01*
X13746252Y-9935531D02*
X13755776Y-9954579D01*
X13755776Y-9954579D02*
X13765299Y-9992674D01*
X13765299Y-9992674D02*
X13765299Y-10040293D01*
X13765299Y-10040293D02*
X13755776Y-10078389D01*
X13755776Y-10078389D02*
X13746252Y-10097436D01*
X13746252Y-10097436D02*
X13736728Y-10106960D01*
X13736728Y-10106960D02*
X13717680Y-10116484D01*
X13717680Y-10116484D02*
X13698633Y-10116484D01*
X13698633Y-10116484D02*
X13679585Y-10106960D01*
X13679585Y-10106960D02*
X13670061Y-10097436D01*
X13670061Y-10097436D02*
X13660538Y-10078389D01*
X13660538Y-10078389D02*
X13651014Y-10040293D01*
X13651014Y-10040293D02*
X13651014Y-9992674D01*
X13651014Y-9992674D02*
X13660538Y-9954579D01*
X13660538Y-9954579D02*
X13670061Y-9935531D01*
X13670061Y-9935531D02*
X13679585Y-9926008D01*
X13679585Y-9926008D02*
X13698633Y-9916484D01*
X13851014Y-10097436D02*
X13860538Y-10106960D01*
X13860538Y-10106960D02*
X13851014Y-10116484D01*
X13851014Y-10116484D02*
X13841490Y-10106960D01*
X13841490Y-10106960D02*
X13851014Y-10097436D01*
X13851014Y-10097436D02*
X13851014Y-10116484D01*
X13984347Y-9916484D02*
X14003395Y-9916484D01*
X14003395Y-9916484D02*
X14022442Y-9926008D01*
X14022442Y-9926008D02*
X14031966Y-9935531D01*
X14031966Y-9935531D02*
X14041490Y-9954579D01*
X14041490Y-9954579D02*
X14051014Y-9992674D01*
X14051014Y-9992674D02*
X14051014Y-10040293D01*
X14051014Y-10040293D02*
X14041490Y-10078389D01*
X14041490Y-10078389D02*
X14031966Y-10097436D01*
X14031966Y-10097436D02*
X14022442Y-10106960D01*
X14022442Y-10106960D02*
X14003395Y-10116484D01*
X14003395Y-10116484D02*
X13984347Y-10116484D01*
X13984347Y-10116484D02*
X13965299Y-10106960D01*
X13965299Y-10106960D02*
X13955776Y-10097436D01*
X13955776Y-10097436D02*
X13946252Y-10078389D01*
X13946252Y-10078389D02*
X13936728Y-10040293D01*
X13936728Y-10040293D02*
X13936728Y-9992674D01*
X13936728Y-9992674D02*
X13946252Y-9954579D01*
X13946252Y-9954579D02*
X13955776Y-9935531D01*
X13955776Y-9935531D02*
X13965299Y-9926008D01*
X13965299Y-9926008D02*
X13984347Y-9916484D01*
X14117680Y-9916484D02*
X14241490Y-9916484D01*
X14241490Y-9916484D02*
X14174823Y-9992674D01*
X14174823Y-9992674D02*
X14203395Y-9992674D01*
X14203395Y-9992674D02*
X14222442Y-10002198D01*
X14222442Y-10002198D02*
X14231966Y-10011722D01*
X14231966Y-10011722D02*
X14241490Y-10030770D01*
X14241490Y-10030770D02*
X14241490Y-10078389D01*
X14241490Y-10078389D02*
X14231966Y-10097436D01*
X14231966Y-10097436D02*
X14222442Y-10106960D01*
X14222442Y-10106960D02*
X14203395Y-10116484D01*
X14203395Y-10116484D02*
X14146252Y-10116484D01*
X14146252Y-10116484D02*
X14127204Y-10106960D01*
X14127204Y-10106960D02*
X14117680Y-10097436D01*
X14336728Y-10116484D02*
X14374823Y-10116484D01*
X14374823Y-10116484D02*
X14393871Y-10106960D01*
X14393871Y-10106960D02*
X14403395Y-10097436D01*
X14403395Y-10097436D02*
X14422442Y-10068865D01*
X14422442Y-10068865D02*
X14431966Y-10030770D01*
X14431966Y-10030770D02*
X14431966Y-9954579D01*
X14431966Y-9954579D02*
X14422442Y-9935531D01*
X14422442Y-9935531D02*
X14412919Y-9926008D01*
X14412919Y-9926008D02*
X14393871Y-9916484D01*
X14393871Y-9916484D02*
X14355776Y-9916484D01*
X14355776Y-9916484D02*
X14336728Y-9926008D01*
X14336728Y-9926008D02*
X14327204Y-9935531D01*
X14327204Y-9935531D02*
X14317680Y-9954579D01*
X14317680Y-9954579D02*
X14317680Y-10002198D01*
X14317680Y-10002198D02*
X14327204Y-10021246D01*
X14327204Y-10021246D02*
X14336728Y-10030770D01*
X14336728Y-10030770D02*
X14355776Y-10040293D01*
X14355776Y-10040293D02*
X14393871Y-10040293D01*
X14393871Y-10040293D02*
X14412919Y-10030770D01*
X14412919Y-10030770D02*
X14422442Y-10021246D01*
X14422442Y-10021246D02*
X14431966Y-10002198D01*
X14603395Y-9983150D02*
X14603395Y-10116484D01*
X14555776Y-9906960D02*
X14508157Y-10049817D01*
X14508157Y-10049817D02*
X14631966Y-10049817D01*
X14698633Y-9916484D02*
X14698633Y-9954579D01*
X14774823Y-9916484D02*
X14774823Y-9954579D01*
X15070062Y-10192674D02*
X15060538Y-10183150D01*
X15060538Y-10183150D02*
X15041490Y-10154579D01*
X15041490Y-10154579D02*
X15031966Y-10135531D01*
X15031966Y-10135531D02*
X15022442Y-10106960D01*
X15022442Y-10106960D02*
X15012919Y-10059341D01*
X15012919Y-10059341D02*
X15012919Y-10021246D01*
X15012919Y-10021246D02*
X15022442Y-9973627D01*
X15022442Y-9973627D02*
X15031966Y-9945055D01*
X15031966Y-9945055D02*
X15041490Y-9926008D01*
X15041490Y-9926008D02*
X15060538Y-9897436D01*
X15060538Y-9897436D02*
X15070062Y-9887912D01*
X15231966Y-9983150D02*
X15231966Y-10116484D01*
X15184347Y-9906960D02*
X15136728Y-10049817D01*
X15136728Y-10049817D02*
X15260538Y-10049817D01*
X15489109Y-10116484D02*
X15489109Y-9916484D01*
X15574823Y-10116484D02*
X15574823Y-10011722D01*
X15574823Y-10011722D02*
X15565300Y-9992674D01*
X15565300Y-9992674D02*
X15546252Y-9983150D01*
X15546252Y-9983150D02*
X15517681Y-9983150D01*
X15517681Y-9983150D02*
X15498633Y-9992674D01*
X15498633Y-9992674D02*
X15489109Y-10002198D01*
X15698633Y-10116484D02*
X15679585Y-10106960D01*
X15679585Y-10106960D02*
X15670062Y-10097436D01*
X15670062Y-10097436D02*
X15660538Y-10078389D01*
X15660538Y-10078389D02*
X15660538Y-10021246D01*
X15660538Y-10021246D02*
X15670062Y-10002198D01*
X15670062Y-10002198D02*
X15679585Y-9992674D01*
X15679585Y-9992674D02*
X15698633Y-9983150D01*
X15698633Y-9983150D02*
X15727204Y-9983150D01*
X15727204Y-9983150D02*
X15746252Y-9992674D01*
X15746252Y-9992674D02*
X15755776Y-10002198D01*
X15755776Y-10002198D02*
X15765300Y-10021246D01*
X15765300Y-10021246D02*
X15765300Y-10078389D01*
X15765300Y-10078389D02*
X15755776Y-10097436D01*
X15755776Y-10097436D02*
X15746252Y-10106960D01*
X15746252Y-10106960D02*
X15727204Y-10116484D01*
X15727204Y-10116484D02*
X15698633Y-10116484D01*
X15879585Y-10116484D02*
X15860538Y-10106960D01*
X15860538Y-10106960D02*
X15851014Y-10087912D01*
X15851014Y-10087912D02*
X15851014Y-9916484D01*
X16031966Y-10106960D02*
X16012919Y-10116484D01*
X16012919Y-10116484D02*
X15974823Y-10116484D01*
X15974823Y-10116484D02*
X15955776Y-10106960D01*
X15955776Y-10106960D02*
X15946252Y-10087912D01*
X15946252Y-10087912D02*
X15946252Y-10011722D01*
X15946252Y-10011722D02*
X15955776Y-9992674D01*
X15955776Y-9992674D02*
X15974823Y-9983150D01*
X15974823Y-9983150D02*
X16012919Y-9983150D01*
X16012919Y-9983150D02*
X16031966Y-9992674D01*
X16031966Y-9992674D02*
X16041490Y-10011722D01*
X16041490Y-10011722D02*
X16041490Y-10030770D01*
X16041490Y-10030770D02*
X15946252Y-10049817D01*
X16117681Y-10106960D02*
X16136728Y-10116484D01*
X16136728Y-10116484D02*
X16174823Y-10116484D01*
X16174823Y-10116484D02*
X16193871Y-10106960D01*
X16193871Y-10106960D02*
X16203395Y-10087912D01*
X16203395Y-10087912D02*
X16203395Y-10078389D01*
X16203395Y-10078389D02*
X16193871Y-10059341D01*
X16193871Y-10059341D02*
X16174823Y-10049817D01*
X16174823Y-10049817D02*
X16146252Y-10049817D01*
X16146252Y-10049817D02*
X16127204Y-10040293D01*
X16127204Y-10040293D02*
X16117681Y-10021246D01*
X16117681Y-10021246D02*
X16117681Y-10011722D01*
X16117681Y-10011722D02*
X16127204Y-9992674D01*
X16127204Y-9992674D02*
X16146252Y-9983150D01*
X16146252Y-9983150D02*
X16174823Y-9983150D01*
X16174823Y-9983150D02*
X16193871Y-9992674D01*
X16270062Y-10192674D02*
X16279585Y-10183150D01*
X16279585Y-10183150D02*
X16298633Y-10154579D01*
X16298633Y-10154579D02*
X16308157Y-10135531D01*
X16308157Y-10135531D02*
X16317681Y-10106960D01*
X16317681Y-10106960D02*
X16327204Y-10059341D01*
X16327204Y-10059341D02*
X16327204Y-10021246D01*
X16327204Y-10021246D02*
X16317681Y-9973627D01*
X16317681Y-9973627D02*
X16308157Y-9945055D01*
X16308157Y-9945055D02*
X16298633Y-9926008D01*
X16298633Y-9926008D02*
X16279585Y-9897436D01*
X16279585Y-9897436D02*
X16270062Y-9887912D01*
M02*
