%TF.GenerationSoftware,KiCad,Pcbnew,7.0.11-7.0.11~ubuntu22.04.1*%
%TF.CreationDate,2024-11-26T11:44:11+01:00*%
%TF.ProjectId,H-C6-ulp,482d4336-2d75-46c7-902e-6b696361645f,rev?*%
%TF.SameCoordinates,Original*%
%TF.FileFunction,Legend,Top*%
%TF.FilePolarity,Positive*%
%FSLAX46Y46*%
G04 Gerber Fmt 4.6, Leading zero omitted, Abs format (unit mm)*
G04 Created by KiCad (PCBNEW 7.0.11-7.0.11~ubuntu22.04.1) date 2024-11-26 11:44:11*
%MOMM*%
%LPD*%
G01*
G04 APERTURE LIST*
%ADD10C,0.000000*%
%ADD11C,0.034395*%
%ADD12C,0.100000*%
%ADD13C,0.120000*%
%ADD14C,0.112500*%
%ADD15C,0.300000*%
%ADD16C,0.150000*%
%ADD17C,0.160000*%
%ADD18C,0.360000*%
%ADD19C,0.140000*%
%ADD20C,0.254000*%
%ADD21C,0.250000*%
%ADD22C,0.200000*%
%ADD23C,0.152400*%
G04 APERTURE END LIST*
D10*
G36*
X151265200Y-63118652D02*
G01*
X151291579Y-63119596D01*
X151316917Y-63121168D01*
X151341214Y-63123370D01*
X151364469Y-63126201D01*
X151386683Y-63129661D01*
X151407856Y-63133750D01*
X151427987Y-63138468D01*
X151437660Y-63141058D01*
X151447067Y-63143794D01*
X151456208Y-63146676D01*
X151465083Y-63149705D01*
X151473693Y-63152880D01*
X151482036Y-63156202D01*
X151490114Y-63159670D01*
X151497927Y-63163284D01*
X151505473Y-63167045D01*
X151512754Y-63170953D01*
X151519769Y-63175007D01*
X151526518Y-63179207D01*
X151533002Y-63183554D01*
X151539220Y-63188047D01*
X151545172Y-63192687D01*
X151550858Y-63197473D01*
X151556311Y-63202379D01*
X151561564Y-63207377D01*
X151566616Y-63212467D01*
X151571467Y-63217649D01*
X151576117Y-63222924D01*
X151580567Y-63228290D01*
X151584816Y-63233749D01*
X151588865Y-63239299D01*
X151592713Y-63244942D01*
X151596360Y-63250677D01*
X151599807Y-63256505D01*
X151603052Y-63262424D01*
X151606098Y-63268436D01*
X151608942Y-63274539D01*
X151611586Y-63280735D01*
X151614029Y-63287023D01*
X151616383Y-63293338D01*
X151618585Y-63299790D01*
X151620635Y-63306376D01*
X151622533Y-63313098D01*
X151624279Y-63319956D01*
X151625874Y-63326950D01*
X151627316Y-63334079D01*
X151628607Y-63341343D01*
X151629746Y-63348743D01*
X151630733Y-63356279D01*
X151631569Y-63363950D01*
X151632252Y-63371757D01*
X151632783Y-63379699D01*
X151633163Y-63387777D01*
X151633391Y-63395990D01*
X151633467Y-63404340D01*
X151633467Y-63404344D01*
X151632689Y-63429218D01*
X151630354Y-63452991D01*
X151626463Y-63475663D01*
X151621015Y-63497234D01*
X151617707Y-63507607D01*
X151614011Y-63517704D01*
X151609925Y-63527526D01*
X151605450Y-63537073D01*
X151600586Y-63546345D01*
X151595333Y-63555341D01*
X151589690Y-63564063D01*
X151583659Y-63572509D01*
X151577238Y-63580680D01*
X151570429Y-63588575D01*
X151563230Y-63596196D01*
X151555642Y-63603541D01*
X151547665Y-63610611D01*
X151539299Y-63617405D01*
X151530544Y-63623925D01*
X151521399Y-63630169D01*
X151501943Y-63641832D01*
X151480930Y-63652394D01*
X151458361Y-63661855D01*
X151434235Y-63670215D01*
X151441714Y-63672083D01*
X151449052Y-63674217D01*
X151456248Y-63676617D01*
X151463304Y-63679283D01*
X151470219Y-63682214D01*
X151476993Y-63685411D01*
X151483625Y-63688874D01*
X151490117Y-63692602D01*
X151496468Y-63696597D01*
X151502677Y-63700857D01*
X151508746Y-63705383D01*
X151514674Y-63710174D01*
X151520461Y-63715231D01*
X151526106Y-63720554D01*
X151531611Y-63726143D01*
X151536975Y-63731998D01*
X151542344Y-63738112D01*
X151547691Y-63744482D01*
X151553017Y-63751107D01*
X151558321Y-63757986D01*
X151563603Y-63765120D01*
X151568864Y-63772510D01*
X151574103Y-63780154D01*
X151579320Y-63788053D01*
X151584516Y-63796207D01*
X151589689Y-63804616D01*
X151599972Y-63822198D01*
X151610168Y-63840801D01*
X151620277Y-63860423D01*
X151765362Y-64154759D01*
X151480745Y-64154759D01*
X151354404Y-63897215D01*
X151349962Y-63888270D01*
X151345488Y-63879655D01*
X151340981Y-63871371D01*
X151336441Y-63863418D01*
X151331870Y-63855795D01*
X151327265Y-63848504D01*
X151322628Y-63841543D01*
X151317959Y-63834912D01*
X151313257Y-63828613D01*
X151308522Y-63822645D01*
X151303755Y-63817007D01*
X151298955Y-63811700D01*
X151294123Y-63806724D01*
X151289258Y-63802078D01*
X151284361Y-63797764D01*
X151279431Y-63793780D01*
X151274458Y-63789998D01*
X151269257Y-63786459D01*
X151263828Y-63783164D01*
X151258172Y-63780114D01*
X151252287Y-63777307D01*
X151246175Y-63774745D01*
X151239835Y-63772426D01*
X151233268Y-63770352D01*
X151226472Y-63768521D01*
X151219449Y-63766935D01*
X151212198Y-63765593D01*
X151204719Y-63764494D01*
X151197013Y-63763640D01*
X151189078Y-63763030D01*
X151180916Y-63762664D01*
X151172526Y-63762542D01*
X151096860Y-63762542D01*
X151096860Y-64154759D01*
X150829598Y-64154759D01*
X150829598Y-63312017D01*
X151096861Y-63312017D01*
X151096861Y-63577888D01*
X151209319Y-63577888D01*
X151219962Y-63577761D01*
X151230199Y-63577379D01*
X151240028Y-63576741D01*
X151249451Y-63575849D01*
X151258468Y-63574702D01*
X151267077Y-63573301D01*
X151275280Y-63571644D01*
X151283076Y-63569732D01*
X151290465Y-63567566D01*
X151297448Y-63565144D01*
X151304024Y-63562468D01*
X151310193Y-63559536D01*
X151315955Y-63556350D01*
X151321311Y-63552909D01*
X151326260Y-63549213D01*
X151330802Y-63545261D01*
X151335089Y-63541042D01*
X151339099Y-63536540D01*
X151342833Y-63531757D01*
X151346291Y-63526691D01*
X151349472Y-63521344D01*
X151352376Y-63515715D01*
X151355003Y-63509803D01*
X151357354Y-63503610D01*
X151359429Y-63497135D01*
X151361227Y-63490377D01*
X151362748Y-63483338D01*
X151363993Y-63476016D01*
X151364961Y-63468413D01*
X151365652Y-63460527D01*
X151366067Y-63452359D01*
X151366205Y-63443913D01*
X151366056Y-63434972D01*
X151365608Y-63426373D01*
X151364862Y-63418116D01*
X151363818Y-63410200D01*
X151362476Y-63402627D01*
X151360836Y-63395394D01*
X151358897Y-63388504D01*
X151356660Y-63381955D01*
X151354124Y-63375748D01*
X151351291Y-63369883D01*
X151348159Y-63364359D01*
X151344728Y-63359177D01*
X151341000Y-63354337D01*
X151336973Y-63349839D01*
X151332648Y-63345682D01*
X151328025Y-63341867D01*
X151323087Y-63338252D01*
X151317818Y-63334871D01*
X151312218Y-63331722D01*
X151306288Y-63328807D01*
X151300027Y-63326126D01*
X151293435Y-63323677D01*
X151286512Y-63321462D01*
X151279258Y-63319479D01*
X151271674Y-63317730D01*
X151263758Y-63316214D01*
X151255512Y-63314932D01*
X151246935Y-63313882D01*
X151238027Y-63313066D01*
X151228789Y-63312483D01*
X151219219Y-63312133D01*
X151209319Y-63312017D01*
X151096861Y-63312017D01*
X150829598Y-63312017D01*
X150829598Y-63118338D01*
X151237780Y-63118338D01*
X151265200Y-63118652D01*
G37*
D11*
X145602952Y-64676953D02*
X153440753Y-64676953D01*
D10*
G36*
X152312722Y-62803526D02*
G01*
X152038470Y-62803526D01*
X152038470Y-61740000D01*
X152312722Y-61740000D01*
X152312722Y-62803526D01*
G37*
G36*
X148251611Y-62803526D02*
G01*
X147975934Y-62803526D01*
X147908974Y-62609768D01*
X147480144Y-62609768D01*
X147412471Y-62803526D01*
X147136794Y-62803526D01*
X147281648Y-62412447D01*
X147548529Y-62412447D01*
X147839877Y-62412447D01*
X147694559Y-61989316D01*
X147548529Y-62412447D01*
X147281648Y-62412447D01*
X147530720Y-61740000D01*
X147857685Y-61740000D01*
X148251611Y-62803526D01*
G37*
D11*
X153974952Y-60084008D02*
X145602952Y-60084008D01*
X153974952Y-64136446D02*
X153974952Y-60084008D01*
D10*
G36*
X152487364Y-63118673D02*
G01*
X152510416Y-63119665D01*
X152532811Y-63121319D01*
X152554551Y-63123635D01*
X152575634Y-63126613D01*
X152596061Y-63130252D01*
X152615832Y-63134552D01*
X152634946Y-63139515D01*
X152653404Y-63145139D01*
X152671206Y-63151424D01*
X152688352Y-63158372D01*
X152704842Y-63165980D01*
X152720675Y-63174251D01*
X152735853Y-63183183D01*
X152750374Y-63192776D01*
X152764238Y-63203032D01*
X152777436Y-63213946D01*
X152789782Y-63225516D01*
X152801277Y-63237743D01*
X152811920Y-63250626D01*
X152821712Y-63264165D01*
X152830653Y-63278360D01*
X152838741Y-63293212D01*
X152845979Y-63308720D01*
X152852365Y-63324884D01*
X152857899Y-63341705D01*
X152862582Y-63359182D01*
X152866414Y-63377315D01*
X152869394Y-63396104D01*
X152871523Y-63415550D01*
X152872800Y-63435652D01*
X152873226Y-63456410D01*
X152872800Y-63477170D01*
X152871523Y-63497280D01*
X152869394Y-63516738D01*
X152866414Y-63535546D01*
X152862582Y-63553704D01*
X152857899Y-63571210D01*
X152852365Y-63588066D01*
X152845979Y-63604270D01*
X152838741Y-63619824D01*
X152830653Y-63634728D01*
X152821712Y-63648981D01*
X152811920Y-63662582D01*
X152801277Y-63675534D01*
X152789782Y-63687834D01*
X152777436Y-63699484D01*
X152764238Y-63710483D01*
X152750292Y-63720738D01*
X152735701Y-63730332D01*
X152720464Y-63739264D01*
X152704582Y-63747534D01*
X152688054Y-63755143D01*
X152670881Y-63762090D01*
X152653063Y-63768376D01*
X152634599Y-63774000D01*
X152615490Y-63778962D01*
X152595735Y-63783263D01*
X152575335Y-63786902D01*
X152554290Y-63789879D01*
X152532600Y-63792195D01*
X152510264Y-63793849D01*
X152487282Y-63794842D01*
X152463655Y-63795173D01*
X152287332Y-63795173D01*
X152287332Y-64154763D01*
X152020070Y-64154763D01*
X152020070Y-63312017D01*
X152287332Y-63312017D01*
X152287332Y-63601494D01*
X152435194Y-63601494D01*
X152444690Y-63601350D01*
X152453915Y-63600919D01*
X152462869Y-63600200D01*
X152471552Y-63599194D01*
X152479964Y-63597901D01*
X152488104Y-63596320D01*
X152495973Y-63594452D01*
X152503571Y-63592296D01*
X152510898Y-63589853D01*
X152517954Y-63587122D01*
X152524739Y-63584104D01*
X152531252Y-63580798D01*
X152537494Y-63577205D01*
X152543465Y-63573325D01*
X152549165Y-63569157D01*
X152554594Y-63564701D01*
X152559806Y-63559885D01*
X152564682Y-63554809D01*
X152569221Y-63549473D01*
X152573424Y-63543876D01*
X152577291Y-63538019D01*
X152580821Y-63531901D01*
X152584016Y-63525524D01*
X152586874Y-63518885D01*
X152589396Y-63511987D01*
X152591581Y-63504828D01*
X152593431Y-63497409D01*
X152594944Y-63489730D01*
X152596121Y-63481791D01*
X152596961Y-63473591D01*
X152597466Y-63465131D01*
X152597634Y-63456410D01*
X152597466Y-63447692D01*
X152596961Y-63439239D01*
X152596121Y-63431053D01*
X152594944Y-63423132D01*
X152593431Y-63415477D01*
X152591581Y-63408087D01*
X152589396Y-63400964D01*
X152586874Y-63394106D01*
X152584016Y-63387514D01*
X152580821Y-63381188D01*
X152577291Y-63375127D01*
X152573424Y-63369332D01*
X152569221Y-63363803D01*
X152564682Y-63358539D01*
X152559806Y-63353542D01*
X152554594Y-63348809D01*
X152549165Y-63344354D01*
X152543465Y-63340186D01*
X152537494Y-63336305D01*
X152531252Y-63332712D01*
X152524739Y-63329407D01*
X152517954Y-63326388D01*
X152510898Y-63323658D01*
X152503571Y-63321214D01*
X152495973Y-63319059D01*
X152488104Y-63317190D01*
X152479964Y-63315610D01*
X152471552Y-63314316D01*
X152462869Y-63313310D01*
X152453915Y-63312592D01*
X152444690Y-63312161D01*
X152435194Y-63312017D01*
X152287332Y-63312017D01*
X152020070Y-63312017D01*
X152020070Y-63118342D01*
X152463655Y-63118342D01*
X152487364Y-63118673D01*
G37*
G36*
X148866664Y-61721590D02*
G01*
X148911697Y-61724061D01*
X148957309Y-61728180D01*
X149003500Y-61733945D01*
X149050270Y-61741358D01*
X149097618Y-61750418D01*
X149145545Y-61761125D01*
X149194052Y-61773480D01*
X149194052Y-61998580D01*
X149172066Y-61989005D01*
X149150276Y-61980048D01*
X149128680Y-61971709D01*
X149107279Y-61963987D01*
X149086073Y-61956883D01*
X149065062Y-61950397D01*
X149044245Y-61944529D01*
X149023623Y-61939278D01*
X149003196Y-61934646D01*
X148982964Y-61930630D01*
X148962927Y-61927233D01*
X148943084Y-61924453D01*
X148923436Y-61922292D01*
X148903983Y-61920747D01*
X148884725Y-61919821D01*
X148865662Y-61919512D01*
X148840596Y-61919968D01*
X148828765Y-61920539D01*
X148817401Y-61921337D01*
X148806504Y-61922364D01*
X148796075Y-61923619D01*
X148786113Y-61925102D01*
X148776619Y-61926814D01*
X148767592Y-61928753D01*
X148759033Y-61930921D01*
X148750941Y-61933317D01*
X148743317Y-61935941D01*
X148736160Y-61938793D01*
X148729471Y-61941874D01*
X148723249Y-61945182D01*
X148717495Y-61948719D01*
X148712146Y-61952378D01*
X148707143Y-61956232D01*
X148704771Y-61958232D01*
X148702485Y-61960281D01*
X148700286Y-61962378D01*
X148698172Y-61964524D01*
X148696145Y-61966719D01*
X148694204Y-61968962D01*
X148692350Y-61971254D01*
X148690581Y-61973595D01*
X148688899Y-61975985D01*
X148687303Y-61978423D01*
X148685794Y-61980910D01*
X148684371Y-61983446D01*
X148683034Y-61986030D01*
X148681783Y-61988663D01*
X148680618Y-61991345D01*
X148679540Y-61994075D01*
X148678548Y-61996855D01*
X148677642Y-61999682D01*
X148676823Y-62002559D01*
X148676090Y-62005484D01*
X148675443Y-62008458D01*
X148674882Y-62011481D01*
X148674019Y-62017672D01*
X148673502Y-62024058D01*
X148673329Y-62030640D01*
X148673463Y-62036166D01*
X148673864Y-62041525D01*
X148674531Y-62046717D01*
X148675466Y-62051742D01*
X148676668Y-62056601D01*
X148678138Y-62061292D01*
X148679874Y-62065816D01*
X148681877Y-62070174D01*
X148684148Y-62074365D01*
X148686686Y-62078388D01*
X148689491Y-62082245D01*
X148692563Y-62085935D01*
X148695902Y-62089457D01*
X148699508Y-62092813D01*
X148703381Y-62096002D01*
X148707522Y-62099024D01*
X148711968Y-62101848D01*
X148716760Y-62104623D01*
X148721897Y-62107347D01*
X148727378Y-62110021D01*
X148733205Y-62112645D01*
X148739377Y-62115219D01*
X148745894Y-62117742D01*
X148752756Y-62120216D01*
X148759963Y-62122639D01*
X148767514Y-62125013D01*
X148775411Y-62127336D01*
X148783653Y-62129609D01*
X148792240Y-62131832D01*
X148801173Y-62134005D01*
X148810450Y-62136128D01*
X148820072Y-62138201D01*
X148936896Y-62161707D01*
X148957901Y-62166128D01*
X148978178Y-62170845D01*
X148997726Y-62175857D01*
X149016544Y-62181163D01*
X149034634Y-62186765D01*
X149051995Y-62192661D01*
X149068626Y-62198852D01*
X149084529Y-62205338D01*
X149099702Y-62212119D01*
X149114146Y-62219195D01*
X149127862Y-62226566D01*
X149140848Y-62234232D01*
X149153105Y-62242193D01*
X149164634Y-62250448D01*
X149175433Y-62258998D01*
X149185503Y-62267844D01*
X149194992Y-62277007D01*
X149203868Y-62286688D01*
X149212133Y-62296887D01*
X149219785Y-62307602D01*
X149226825Y-62318836D01*
X149233253Y-62330587D01*
X149239068Y-62342855D01*
X149244272Y-62355641D01*
X149248863Y-62368944D01*
X149252842Y-62382765D01*
X149256209Y-62397104D01*
X149258964Y-62411960D01*
X149261106Y-62427333D01*
X149262637Y-62443224D01*
X149263555Y-62459632D01*
X149263861Y-62476558D01*
X149263438Y-62498964D01*
X149262169Y-62520590D01*
X149260054Y-62541437D01*
X149257094Y-62561506D01*
X149253287Y-62580795D01*
X149248635Y-62599304D01*
X149243136Y-62617035D01*
X149236792Y-62633987D01*
X149229602Y-62650159D01*
X149221566Y-62665552D01*
X149212684Y-62680166D01*
X149202956Y-62694001D01*
X149192382Y-62707057D01*
X149180962Y-62719334D01*
X149168696Y-62730831D01*
X149155585Y-62741549D01*
X149141666Y-62751555D01*
X149126980Y-62760915D01*
X149111525Y-62769630D01*
X149095303Y-62777700D01*
X149078312Y-62785123D01*
X149060554Y-62791902D01*
X149042027Y-62798034D01*
X149022733Y-62803522D01*
X149002670Y-62808363D01*
X148981840Y-62812559D01*
X148960242Y-62816110D01*
X148937875Y-62819015D01*
X148914741Y-62821275D01*
X148890838Y-62822888D01*
X148866168Y-62823857D01*
X148840729Y-62824180D01*
X148815516Y-62823882D01*
X148790276Y-62822989D01*
X148765007Y-62821500D01*
X148739710Y-62819416D01*
X148714386Y-62816736D01*
X148689034Y-62813461D01*
X148663654Y-62809591D01*
X148638246Y-62805125D01*
X148612810Y-62800063D01*
X148587347Y-62794407D01*
X148561855Y-62788154D01*
X148536336Y-62781306D01*
X148510789Y-62773863D01*
X148485215Y-62765824D01*
X148459612Y-62757190D01*
X148433982Y-62747960D01*
X148433982Y-62516449D01*
X148459676Y-62529648D01*
X148485114Y-62541994D01*
X148510297Y-62553489D01*
X148535223Y-62564133D01*
X148559894Y-62573925D01*
X148584308Y-62582865D01*
X148608467Y-62590954D01*
X148632369Y-62598192D01*
X148656016Y-62604578D01*
X148679406Y-62610112D01*
X148702540Y-62614796D01*
X148725419Y-62618627D01*
X148748041Y-62621607D01*
X148770408Y-62623736D01*
X148792518Y-62625013D01*
X148814372Y-62625439D01*
X148828163Y-62625272D01*
X148841397Y-62624771D01*
X148854074Y-62623936D01*
X148866195Y-62622767D01*
X148877759Y-62621264D01*
X148888767Y-62619427D01*
X148899219Y-62617256D01*
X148909114Y-62614751D01*
X148913930Y-62613298D01*
X148918586Y-62611789D01*
X148923080Y-62610225D01*
X148927412Y-62608605D01*
X148931583Y-62606930D01*
X148935593Y-62605199D01*
X148939441Y-62603412D01*
X148943128Y-62601570D01*
X148946654Y-62599672D01*
X148950018Y-62597719D01*
X148953221Y-62595710D01*
X148956262Y-62593646D01*
X148959142Y-62591526D01*
X148961860Y-62589351D01*
X148964418Y-62587120D01*
X148966813Y-62584834D01*
X148969084Y-62582435D01*
X148971266Y-62580048D01*
X148973358Y-62577671D01*
X148975362Y-62575306D01*
X148977276Y-62572952D01*
X148979101Y-62570609D01*
X148980838Y-62568277D01*
X148982485Y-62565957D01*
X148984043Y-62563647D01*
X148985512Y-62561349D01*
X148986893Y-62559061D01*
X148988184Y-62556785D01*
X148989386Y-62554520D01*
X148990499Y-62552266D01*
X148991523Y-62550023D01*
X148992458Y-62547791D01*
X148993321Y-62545556D01*
X148994128Y-62543305D01*
X148994879Y-62541037D01*
X148995575Y-62538752D01*
X148996215Y-62536451D01*
X148996799Y-62534133D01*
X148997328Y-62531799D01*
X148997801Y-62529447D01*
X148998218Y-62527079D01*
X148998580Y-62524695D01*
X148998886Y-62522294D01*
X148999137Y-62519876D01*
X148999331Y-62517442D01*
X148999470Y-62514990D01*
X148999554Y-62512523D01*
X148999582Y-62510038D01*
X148999437Y-62503466D01*
X148999003Y-62497106D01*
X148998280Y-62490956D01*
X148997267Y-62485019D01*
X148995964Y-62479292D01*
X148994373Y-62473777D01*
X148992492Y-62468473D01*
X148990321Y-62463381D01*
X148987862Y-62458500D01*
X148985112Y-62453831D01*
X148982074Y-62449373D01*
X148978746Y-62445127D01*
X148975128Y-62441092D01*
X148971221Y-62437268D01*
X148967025Y-62433657D01*
X148962540Y-62430256D01*
X148957795Y-62426989D01*
X148952645Y-62423778D01*
X148947088Y-62420623D01*
X148941125Y-62417523D01*
X148934755Y-62414479D01*
X148927980Y-62411491D01*
X148920798Y-62408558D01*
X148913210Y-62405681D01*
X148905216Y-62402860D01*
X148896815Y-62400094D01*
X148888008Y-62397384D01*
X148878795Y-62394730D01*
X148869176Y-62392131D01*
X148859150Y-62389588D01*
X148848718Y-62387100D01*
X148837880Y-62384668D01*
X148731741Y-62361162D01*
X148713064Y-62356827D01*
X148694966Y-62352191D01*
X148677447Y-62347255D01*
X148660506Y-62342018D01*
X148644145Y-62336481D01*
X148628362Y-62330643D01*
X148613158Y-62324504D01*
X148598532Y-62318065D01*
X148584486Y-62311326D01*
X148571018Y-62304286D01*
X148558129Y-62296946D01*
X148545819Y-62289305D01*
X148534088Y-62281363D01*
X148522935Y-62273121D01*
X148512361Y-62264578D01*
X148502366Y-62255735D01*
X148492964Y-62246503D01*
X148484168Y-62236791D01*
X148475979Y-62226602D01*
X148468396Y-62215933D01*
X148461420Y-62204786D01*
X148455051Y-62193161D01*
X148449288Y-62181056D01*
X148444132Y-62168473D01*
X148439583Y-62155412D01*
X148435640Y-62141872D01*
X148432303Y-62127853D01*
X148429574Y-62113356D01*
X148427451Y-62098379D01*
X148425934Y-62082925D01*
X148425024Y-62066991D01*
X148424721Y-62050579D01*
X148425133Y-62030330D01*
X148426368Y-62010722D01*
X148428427Y-61991753D01*
X148431310Y-61973424D01*
X148435016Y-61955735D01*
X148439547Y-61938686D01*
X148444900Y-61922277D01*
X148451078Y-61906508D01*
X148458079Y-61891379D01*
X148465903Y-61876890D01*
X148474551Y-61863041D01*
X148484023Y-61849832D01*
X148494319Y-61837264D01*
X148505438Y-61825335D01*
X148517381Y-61814046D01*
X148530148Y-61803397D01*
X148543643Y-61793392D01*
X148557773Y-61784031D01*
X148572537Y-61775316D01*
X148587936Y-61767247D01*
X148603970Y-61759823D01*
X148620637Y-61753045D01*
X148637939Y-61746912D01*
X148655876Y-61741425D01*
X148674447Y-61736583D01*
X148693653Y-61732387D01*
X148713492Y-61728836D01*
X148733967Y-61725931D01*
X148755075Y-61723672D01*
X148776819Y-61722058D01*
X148799196Y-61721090D01*
X148822208Y-61720767D01*
X148822209Y-61720767D01*
X148866664Y-61721590D01*
G37*
D11*
X145602952Y-60084008D02*
X145602952Y-64676953D01*
D10*
G36*
X150029532Y-63100154D02*
G01*
X150059501Y-63101813D01*
X150088624Y-63104579D01*
X150116901Y-63108451D01*
X150144333Y-63113430D01*
X150170918Y-63119514D01*
X150196657Y-63126706D01*
X150221550Y-63135003D01*
X150245597Y-63144407D01*
X150268798Y-63154917D01*
X150291153Y-63166534D01*
X150312662Y-63179257D01*
X150333325Y-63193086D01*
X150353142Y-63208022D01*
X150372113Y-63224064D01*
X150390238Y-63241213D01*
X150407386Y-63259356D01*
X150423429Y-63278384D01*
X150438364Y-63298296D01*
X150452194Y-63319092D01*
X150464917Y-63340771D01*
X150476534Y-63363335D01*
X150487044Y-63386783D01*
X150496448Y-63411115D01*
X150504746Y-63436330D01*
X150511937Y-63462430D01*
X150518022Y-63489414D01*
X150523001Y-63517281D01*
X150526873Y-63546033D01*
X150529639Y-63575669D01*
X150531299Y-63606188D01*
X150531852Y-63637592D01*
X150531296Y-63668912D01*
X150529628Y-63699353D01*
X150526849Y-63728916D01*
X150522958Y-63757600D01*
X150517955Y-63785405D01*
X150511840Y-63812332D01*
X150504613Y-63838380D01*
X150496275Y-63863550D01*
X150486825Y-63887841D01*
X150476263Y-63911253D01*
X150464589Y-63933787D01*
X150451803Y-63955442D01*
X150437906Y-63976219D01*
X150422897Y-63996117D01*
X150406776Y-64015136D01*
X150389543Y-64033277D01*
X150371421Y-64050426D01*
X150352459Y-64066468D01*
X150332655Y-64081404D01*
X150312011Y-64095233D01*
X150290527Y-64107956D01*
X150268202Y-64119573D01*
X150245036Y-64130083D01*
X150221030Y-64139487D01*
X150196183Y-64147784D01*
X150170495Y-64154976D01*
X150143967Y-64161060D01*
X150116598Y-64166039D01*
X150088388Y-64169911D01*
X150059338Y-64172677D01*
X150029448Y-64174336D01*
X149998716Y-64174889D01*
X149967982Y-64174336D01*
X149938083Y-64172677D01*
X149909020Y-64169911D01*
X149880791Y-64166039D01*
X149853398Y-64161060D01*
X149826840Y-64154976D01*
X149801117Y-64147784D01*
X149776229Y-64139487D01*
X149752177Y-64130083D01*
X149728960Y-64119573D01*
X149706577Y-64107956D01*
X149685031Y-64095233D01*
X149664319Y-64081404D01*
X149644442Y-64066468D01*
X149625401Y-64050426D01*
X149607195Y-64033277D01*
X149590046Y-64015136D01*
X149574004Y-63996117D01*
X149559068Y-63976219D01*
X149545239Y-63955442D01*
X149532515Y-63933787D01*
X149520899Y-63911253D01*
X149510388Y-63887841D01*
X149500984Y-63863550D01*
X149492686Y-63838380D01*
X149485495Y-63812332D01*
X149479410Y-63785405D01*
X149474431Y-63757600D01*
X149470559Y-63728916D01*
X149467793Y-63699353D01*
X149466134Y-63668912D01*
X149465581Y-63637592D01*
X149465581Y-63637588D01*
X149741868Y-63637588D01*
X149742117Y-63656868D01*
X149742866Y-63675660D01*
X149744113Y-63693964D01*
X149745859Y-63711780D01*
X149748105Y-63729107D01*
X149750849Y-63745947D01*
X149754092Y-63762298D01*
X149757834Y-63778161D01*
X149762075Y-63793537D01*
X149766815Y-63808423D01*
X149772054Y-63822822D01*
X149777792Y-63836733D01*
X149784029Y-63850156D01*
X149790765Y-63863090D01*
X149797999Y-63875537D01*
X149805733Y-63887495D01*
X149814053Y-63898844D01*
X149822871Y-63909460D01*
X149827467Y-63914493D01*
X149832188Y-63919344D01*
X149837034Y-63924011D01*
X149842004Y-63928496D01*
X149847100Y-63932797D01*
X149852320Y-63936915D01*
X149857664Y-63940851D01*
X149863134Y-63944603D01*
X149868728Y-63948172D01*
X149874447Y-63951558D01*
X149880290Y-63954762D01*
X149886259Y-63957782D01*
X149892352Y-63960619D01*
X149898570Y-63963273D01*
X149904912Y-63965744D01*
X149911380Y-63968032D01*
X149924689Y-63972059D01*
X149938496Y-63975353D01*
X149952803Y-63977916D01*
X149967609Y-63979746D01*
X149982914Y-63980844D01*
X149998717Y-63981211D01*
X150006898Y-63981110D01*
X150014955Y-63980809D01*
X150022886Y-63980308D01*
X150030693Y-63979605D01*
X150038375Y-63978702D01*
X150045933Y-63977599D01*
X150053365Y-63976294D01*
X150060673Y-63974790D01*
X150067857Y-63973084D01*
X150074915Y-63971178D01*
X150081849Y-63969071D01*
X150088658Y-63966763D01*
X150095342Y-63964255D01*
X150101902Y-63961546D01*
X150108336Y-63958637D01*
X150114646Y-63955526D01*
X150120818Y-63952234D01*
X150126838Y-63948780D01*
X150132706Y-63945163D01*
X150138422Y-63941382D01*
X150143986Y-63937440D01*
X150149399Y-63933334D01*
X150154660Y-63929066D01*
X150159768Y-63924635D01*
X150164725Y-63920041D01*
X150169530Y-63915285D01*
X150174184Y-63910366D01*
X150178685Y-63905284D01*
X150183034Y-63900040D01*
X150187232Y-63894632D01*
X150191278Y-63889062D01*
X150195172Y-63883330D01*
X150198930Y-63877374D01*
X150202569Y-63871311D01*
X150206089Y-63865139D01*
X150209489Y-63858858D01*
X150212770Y-63852469D01*
X150215932Y-63845972D01*
X150218975Y-63839366D01*
X150221898Y-63832652D01*
X150224702Y-63825829D01*
X150227386Y-63818898D01*
X150229951Y-63811858D01*
X150232397Y-63804711D01*
X150234724Y-63797454D01*
X150236931Y-63790089D01*
X150239019Y-63782616D01*
X150240987Y-63775039D01*
X150244567Y-63759376D01*
X150247669Y-63743279D01*
X150250294Y-63726749D01*
X150252442Y-63709784D01*
X150254112Y-63692386D01*
X150255305Y-63674554D01*
X150256021Y-63656288D01*
X150256260Y-63637588D01*
X150256021Y-63618888D01*
X150255305Y-63600623D01*
X150254112Y-63582790D01*
X150252442Y-63565392D01*
X150250294Y-63548427D01*
X150247669Y-63531897D01*
X150244567Y-63515800D01*
X150240987Y-63500138D01*
X150236931Y-63484931D01*
X150232397Y-63470201D01*
X150227386Y-63455948D01*
X150224701Y-63449001D01*
X150221897Y-63442173D01*
X150218974Y-63435464D01*
X150215932Y-63428875D01*
X150212770Y-63422405D01*
X150209489Y-63416055D01*
X150206088Y-63409824D01*
X150202569Y-63403712D01*
X150198930Y-63397720D01*
X150195171Y-63391847D01*
X150191277Y-63386030D01*
X150187232Y-63380382D01*
X150183034Y-63374902D01*
X150178684Y-63369590D01*
X150174183Y-63364446D01*
X150169530Y-63359470D01*
X150164725Y-63354663D01*
X150159768Y-63350023D01*
X150154659Y-63345551D01*
X150149398Y-63341248D01*
X150143986Y-63337112D01*
X150138422Y-63333145D01*
X150132705Y-63329346D01*
X150126837Y-63325714D01*
X150120817Y-63322251D01*
X150114646Y-63318956D01*
X150108336Y-63315845D01*
X150101901Y-63312936D01*
X150095342Y-63310227D01*
X150088657Y-63307719D01*
X150081848Y-63305411D01*
X150074915Y-63303304D01*
X150067856Y-63301398D01*
X150060673Y-63299692D01*
X150053365Y-63298188D01*
X150045932Y-63296883D01*
X150038375Y-63295780D01*
X150030693Y-63294877D01*
X150022886Y-63294174D01*
X150014954Y-63293673D01*
X150006898Y-63293372D01*
X149998717Y-63293271D01*
X149987979Y-63293450D01*
X149977457Y-63293987D01*
X149967153Y-63294882D01*
X149957065Y-63296135D01*
X149947195Y-63297746D01*
X149937541Y-63299715D01*
X149928105Y-63302042D01*
X149918885Y-63304726D01*
X149909882Y-63307769D01*
X149901097Y-63311170D01*
X149892528Y-63314928D01*
X149884176Y-63319045D01*
X149876041Y-63323519D01*
X149868123Y-63328351D01*
X149860422Y-63333542D01*
X149852937Y-63339090D01*
X149845773Y-63344849D01*
X149838858Y-63350847D01*
X149832193Y-63357084D01*
X149825777Y-63363559D01*
X149819611Y-63370273D01*
X149813694Y-63377226D01*
X149808027Y-63384417D01*
X149802609Y-63391847D01*
X149797440Y-63399516D01*
X149792522Y-63407423D01*
X149787852Y-63415569D01*
X149783432Y-63423953D01*
X149779261Y-63432576D01*
X149775340Y-63441438D01*
X149771669Y-63450539D01*
X149768247Y-63459878D01*
X149765052Y-63469439D01*
X149762064Y-63479206D01*
X149759282Y-63489180D01*
X149756706Y-63499360D01*
X149754336Y-63509745D01*
X149752172Y-63520337D01*
X149750214Y-63531135D01*
X149748463Y-63542139D01*
X149746917Y-63553349D01*
X149745577Y-63564765D01*
X149744444Y-63576387D01*
X149743516Y-63588216D01*
X149742280Y-63612490D01*
X149741868Y-63637588D01*
X149465581Y-63637588D01*
X149466134Y-63606272D01*
X149467793Y-63575831D01*
X149470559Y-63546268D01*
X149474431Y-63517584D01*
X149479410Y-63489779D01*
X149485495Y-63462852D01*
X149492686Y-63436804D01*
X149500984Y-63411634D01*
X149510388Y-63387343D01*
X149520899Y-63363931D01*
X149532515Y-63341397D01*
X149545239Y-63319742D01*
X149559068Y-63298966D01*
X149574004Y-63279068D01*
X149590046Y-63260048D01*
X149607195Y-63241907D01*
X149625401Y-63224675D01*
X149644442Y-63208554D01*
X149664319Y-63193545D01*
X149685031Y-63179648D01*
X149706577Y-63166863D01*
X149728960Y-63155190D01*
X149752177Y-63144628D01*
X149776229Y-63135178D01*
X149801117Y-63126839D01*
X149826840Y-63119613D01*
X149853398Y-63113498D01*
X149880791Y-63108495D01*
X149909020Y-63104604D01*
X149938083Y-63101824D01*
X149967982Y-63100156D01*
X149998716Y-63099600D01*
X150029532Y-63100154D01*
G37*
G36*
X153270298Y-63692496D02*
G01*
X153286009Y-63693721D01*
X153301492Y-63695739D01*
X153316726Y-63698529D01*
X153331694Y-63702072D01*
X153346374Y-63706348D01*
X153360749Y-63711336D01*
X153374797Y-63717017D01*
X153388501Y-63723371D01*
X153401840Y-63730378D01*
X153414796Y-63738018D01*
X153427347Y-63746271D01*
X153439476Y-63755118D01*
X153451163Y-63764537D01*
X153462388Y-63774510D01*
X153473132Y-63785016D01*
X153483376Y-63796035D01*
X153493099Y-63807548D01*
X153502283Y-63819535D01*
X153510909Y-63831975D01*
X153518955Y-63844848D01*
X153526404Y-63858136D01*
X153533236Y-63871817D01*
X153539432Y-63885872D01*
X153544971Y-63900281D01*
X153549835Y-63915024D01*
X153554004Y-63930081D01*
X153557458Y-63945432D01*
X153560179Y-63961057D01*
X153562146Y-63976936D01*
X153563341Y-63993050D01*
X153563743Y-64009378D01*
X153563341Y-64025706D01*
X153562146Y-64041820D01*
X153560179Y-64057700D01*
X153557458Y-64073325D01*
X153554004Y-64088676D01*
X153549835Y-64103733D01*
X153544972Y-64118476D01*
X153539432Y-64132885D01*
X153533237Y-64146940D01*
X153526405Y-64160621D01*
X153518956Y-64173908D01*
X153510909Y-64186782D01*
X153502284Y-64199222D01*
X153493100Y-64211208D01*
X153483377Y-64222721D01*
X153473133Y-64233741D01*
X153462389Y-64244247D01*
X153451164Y-64254219D01*
X153439478Y-64263639D01*
X153427349Y-64272485D01*
X153414797Y-64280738D01*
X153401842Y-64288378D01*
X153388502Y-64295385D01*
X153374799Y-64301739D01*
X153360750Y-64307421D01*
X153346376Y-64312409D01*
X153331695Y-64316685D01*
X153316728Y-64320228D01*
X153301494Y-64323018D01*
X153286011Y-64325036D01*
X153270300Y-64326261D01*
X153254381Y-64326674D01*
X153238461Y-64326261D01*
X153222750Y-64325036D01*
X153207267Y-64323018D01*
X153192033Y-64320228D01*
X153177065Y-64316685D01*
X153162385Y-64312409D01*
X153148010Y-64307421D01*
X153133962Y-64301739D01*
X153120258Y-64295385D01*
X153106919Y-64288378D01*
X153093963Y-64280738D01*
X153081412Y-64272485D01*
X153069282Y-64263639D01*
X153057596Y-64254219D01*
X153046371Y-64244247D01*
X153035626Y-64233741D01*
X153025383Y-64222721D01*
X153015660Y-64211208D01*
X153006476Y-64199222D01*
X152997850Y-64186782D01*
X152989804Y-64173908D01*
X152982354Y-64160621D01*
X152975522Y-64146940D01*
X152969327Y-64132885D01*
X152963788Y-64118476D01*
X152958924Y-64103733D01*
X152954755Y-64088676D01*
X152951301Y-64073325D01*
X152948580Y-64057700D01*
X152946613Y-64041820D01*
X152945418Y-64025706D01*
X152945016Y-64009378D01*
X152945418Y-63993050D01*
X152946613Y-63976936D01*
X152948580Y-63961057D01*
X152951301Y-63945432D01*
X152954755Y-63930081D01*
X152958924Y-63915024D01*
X152963788Y-63900281D01*
X152969327Y-63885872D01*
X152975522Y-63871817D01*
X152982354Y-63858136D01*
X152989803Y-63844848D01*
X152997850Y-63831975D01*
X153006475Y-63819535D01*
X153015659Y-63807548D01*
X153025382Y-63796035D01*
X153035626Y-63785016D01*
X153046370Y-63774510D01*
X153057595Y-63764537D01*
X153069281Y-63755118D01*
X153081411Y-63746271D01*
X153093962Y-63738018D01*
X153106918Y-63730378D01*
X153120257Y-63723371D01*
X153133960Y-63717017D01*
X153148009Y-63711336D01*
X153162383Y-63706348D01*
X153177064Y-63702072D01*
X153192031Y-63698529D01*
X153207265Y-63695739D01*
X153222748Y-63693721D01*
X153238459Y-63692496D01*
X153254379Y-63692083D01*
X153270298Y-63692496D01*
G37*
G36*
X151449352Y-62469441D02*
G01*
X151449352Y-61740000D01*
X151709357Y-61740000D01*
X151709357Y-62803526D01*
X151403049Y-62803526D01*
X151016247Y-62074085D01*
X151016247Y-62803526D01*
X150756242Y-62803526D01*
X150756242Y-61740000D01*
X151062550Y-61740000D01*
X151449352Y-62469441D01*
G37*
G36*
X150553925Y-62803526D02*
G01*
X150278249Y-62803526D01*
X150211288Y-62609768D01*
X149782458Y-62609768D01*
X149714786Y-62803526D01*
X149439109Y-62803526D01*
X149583963Y-62412447D01*
X149850843Y-62412447D01*
X150142191Y-62412447D01*
X149996873Y-61989316D01*
X149850843Y-62412447D01*
X149583963Y-62412447D01*
X149833034Y-61740000D01*
X150160000Y-61740000D01*
X150553925Y-62803526D01*
G37*
D11*
X153440753Y-64676953D02*
X153974952Y-64136446D01*
D10*
G36*
X147026370Y-61947291D02*
G01*
X146560498Y-61947291D01*
X146560498Y-62145322D01*
X146998589Y-62145322D01*
X146998589Y-62352612D01*
X146560498Y-62352612D01*
X146560498Y-62803526D01*
X146286246Y-62803526D01*
X146286246Y-61740000D01*
X147026370Y-61740000D01*
X147026370Y-61947291D01*
G37*
G36*
X148909502Y-63099901D02*
G01*
X148930737Y-63100804D01*
X148951782Y-63102309D01*
X148972638Y-63104416D01*
X148993303Y-63107125D01*
X149013779Y-63110436D01*
X149034065Y-63114349D01*
X149054161Y-63118864D01*
X149074068Y-63123981D01*
X149093784Y-63129700D01*
X149113311Y-63136021D01*
X149132648Y-63142944D01*
X149151795Y-63150469D01*
X149170752Y-63158597D01*
X149189520Y-63167326D01*
X149208097Y-63176657D01*
X149208097Y-63391160D01*
X149190010Y-63379307D01*
X149171848Y-63368219D01*
X149153609Y-63357896D01*
X149135294Y-63348337D01*
X149116904Y-63339543D01*
X149098437Y-63331514D01*
X149079895Y-63324249D01*
X149061277Y-63317750D01*
X149042583Y-63312014D01*
X149023812Y-63307044D01*
X149004966Y-63302838D01*
X148986044Y-63299397D01*
X148967047Y-63296720D01*
X148947973Y-63294809D01*
X148928823Y-63293662D01*
X148909597Y-63293279D01*
X148891630Y-63293643D01*
X148874172Y-63294733D01*
X148857224Y-63296550D01*
X148840786Y-63299093D01*
X148824858Y-63302364D01*
X148809439Y-63306361D01*
X148794531Y-63311085D01*
X148780132Y-63316535D01*
X148766243Y-63322712D01*
X148752863Y-63329616D01*
X148739994Y-63337247D01*
X148727634Y-63345604D01*
X148715784Y-63354688D01*
X148704444Y-63364499D01*
X148693613Y-63375036D01*
X148683293Y-63386300D01*
X148673542Y-63398102D01*
X148664419Y-63410424D01*
X148655927Y-63423266D01*
X148648063Y-63436630D01*
X148640828Y-63450513D01*
X148634222Y-63464918D01*
X148628246Y-63479843D01*
X148622899Y-63495289D01*
X148618180Y-63511255D01*
X148614091Y-63527742D01*
X148610631Y-63544749D01*
X148607800Y-63562277D01*
X148605598Y-63580326D01*
X148604025Y-63598896D01*
X148603082Y-63617985D01*
X148602767Y-63637596D01*
X148603082Y-63657207D01*
X148604025Y-63676297D01*
X148605598Y-63694866D01*
X148607800Y-63712915D01*
X148610631Y-63730443D01*
X148614091Y-63747450D01*
X148618180Y-63763937D01*
X148622899Y-63779904D01*
X148628246Y-63795349D01*
X148634222Y-63810274D01*
X148640828Y-63824679D01*
X148648063Y-63838563D01*
X148655927Y-63851926D01*
X148664419Y-63864768D01*
X148673542Y-63877090D01*
X148683293Y-63888892D01*
X148693613Y-63900072D01*
X148704444Y-63910531D01*
X148715784Y-63920269D01*
X148727634Y-63929285D01*
X148739994Y-63937580D01*
X148752863Y-63945154D01*
X148766243Y-63952006D01*
X148780132Y-63958137D01*
X148794531Y-63963547D01*
X148809439Y-63968235D01*
X148824858Y-63972202D01*
X148840786Y-63975448D01*
X148857224Y-63977973D01*
X148874172Y-63979776D01*
X148891630Y-63980858D01*
X148909597Y-63981219D01*
X148909596Y-63981211D01*
X148928985Y-63980828D01*
X148948275Y-63979681D01*
X148967469Y-63977769D01*
X148986564Y-63975093D01*
X149005562Y-63971652D01*
X149024462Y-63967446D01*
X149043265Y-63962476D01*
X149061970Y-63956740D01*
X149080578Y-63950240D01*
X149099088Y-63942976D01*
X149117500Y-63934947D01*
X149135814Y-63926153D01*
X149154031Y-63916594D01*
X149172151Y-63906271D01*
X149190173Y-63895182D01*
X149208097Y-63883330D01*
X149208097Y-64097833D01*
X149189519Y-64107164D01*
X149170752Y-64115893D01*
X149151794Y-64124021D01*
X149132647Y-64131546D01*
X149113310Y-64138469D01*
X149093784Y-64144790D01*
X149074067Y-64150509D01*
X149054161Y-64155626D01*
X149034065Y-64160141D01*
X149013779Y-64164054D01*
X148993303Y-64167365D01*
X148972637Y-64170074D01*
X148951782Y-64172181D01*
X148930737Y-64173686D01*
X148909502Y-64174588D01*
X148888077Y-64174889D01*
X148855965Y-64174328D01*
X148824711Y-64172644D01*
X148794313Y-64169838D01*
X148764772Y-64165909D01*
X148736088Y-64160857D01*
X148708261Y-64154683D01*
X148681291Y-64147386D01*
X148655177Y-64138966D01*
X148629921Y-64129424D01*
X148605521Y-64118759D01*
X148581979Y-64106972D01*
X148559293Y-64094062D01*
X148537464Y-64080029D01*
X148516492Y-64064873D01*
X148496377Y-64048595D01*
X148477118Y-64031194D01*
X148458877Y-64012736D01*
X148441813Y-63993460D01*
X148425925Y-63973364D01*
X148411214Y-63952449D01*
X148397680Y-63930715D01*
X148385323Y-63908162D01*
X148374143Y-63884790D01*
X148364140Y-63860600D01*
X148355313Y-63835590D01*
X148347664Y-63809761D01*
X148341191Y-63783114D01*
X148335895Y-63755647D01*
X148331776Y-63727362D01*
X148328834Y-63698258D01*
X148327068Y-63668334D01*
X148326480Y-63637592D01*
X148327066Y-63606850D01*
X148328823Y-63576927D01*
X148331751Y-63547822D01*
X148335852Y-63519537D01*
X148341123Y-63492070D01*
X148347566Y-63465423D01*
X148355180Y-63439594D01*
X148363966Y-63414585D01*
X148373923Y-63390394D01*
X148385052Y-63367022D01*
X148397352Y-63344469D01*
X148410824Y-63322735D01*
X148425467Y-63301821D01*
X148441281Y-63281725D01*
X148458267Y-63262448D01*
X148476425Y-63243990D01*
X148495685Y-63226505D01*
X148515809Y-63210149D01*
X148536794Y-63194920D01*
X148558642Y-63180820D01*
X148581352Y-63167848D01*
X148604925Y-63156003D01*
X148629360Y-63145287D01*
X148654657Y-63135698D01*
X148680816Y-63127238D01*
X148707838Y-63119906D01*
X148735722Y-63113701D01*
X148764469Y-63108625D01*
X148794077Y-63104677D01*
X148824548Y-63101857D01*
X148855882Y-63100164D01*
X148888077Y-63099600D01*
X148909502Y-63099901D01*
G37*
D12*
G36*
X155330134Y-64022445D02*
G01*
X155356754Y-64049066D01*
X155385942Y-64107441D01*
X155385942Y-64350400D01*
X155066895Y-64350400D01*
X155066895Y-64107441D01*
X155096082Y-64049065D01*
X155122703Y-64022445D01*
X155181079Y-63993257D01*
X155271758Y-63993257D01*
X155330134Y-64022445D01*
G37*
G36*
X155981181Y-66774211D02*
G01*
X154817080Y-66774211D01*
X154817080Y-66457544D01*
X154966895Y-66457544D01*
X154971348Y-66468296D01*
X154972174Y-66479905D01*
X155010269Y-66556095D01*
X155016484Y-66561485D01*
X155019634Y-66569089D01*
X155057729Y-66607185D01*
X155093084Y-66621829D01*
X155128440Y-66607186D01*
X155143084Y-66571831D01*
X155128441Y-66536475D01*
X155096082Y-66504115D01*
X155066895Y-66445741D01*
X155066895Y-66278870D01*
X155096083Y-66220493D01*
X155122704Y-66193873D01*
X155181079Y-66164687D01*
X155237353Y-66164687D01*
X155332743Y-66196483D01*
X155781540Y-66645280D01*
X155816895Y-66659925D01*
X155852250Y-66645280D01*
X155866895Y-66609925D01*
X155866895Y-66114687D01*
X155852250Y-66079332D01*
X155816895Y-66064687D01*
X155781540Y-66079332D01*
X155766895Y-66114687D01*
X155766895Y-66489215D01*
X155395107Y-66117427D01*
X155384355Y-66112973D01*
X155375563Y-66105348D01*
X155261277Y-66067253D01*
X155253068Y-66067836D01*
X155245466Y-66064687D01*
X155169276Y-66064687D01*
X155158525Y-66069140D01*
X155146916Y-66069965D01*
X155070725Y-66108061D01*
X155065333Y-66114277D01*
X155057729Y-66117427D01*
X155019635Y-66155522D01*
X155016485Y-66163124D01*
X155010269Y-66168516D01*
X154972174Y-66244708D01*
X154971349Y-66256315D01*
X154966895Y-66267068D01*
X154966895Y-66457544D01*
X154817080Y-66457544D01*
X154817080Y-65603637D01*
X154931366Y-65603637D01*
X154934079Y-65641808D01*
X154962989Y-65666882D01*
X155534416Y-65857359D01*
X155542624Y-65856775D01*
X155550228Y-65859925D01*
X155560980Y-65855470D01*
X155572588Y-65854646D01*
X155577979Y-65848429D01*
X155585583Y-65845280D01*
X155590036Y-65834527D01*
X155597662Y-65825736D01*
X155597078Y-65817528D01*
X155600228Y-65809925D01*
X155600228Y-65478972D01*
X155816895Y-65478972D01*
X155852250Y-65464327D01*
X155866895Y-65428972D01*
X155852250Y-65393617D01*
X155816895Y-65378972D01*
X155600228Y-65378972D01*
X155600228Y-65314686D01*
X155585583Y-65279331D01*
X155550228Y-65264686D01*
X155514873Y-65279331D01*
X155500228Y-65314686D01*
X155500228Y-65378972D01*
X155283561Y-65378972D01*
X155248206Y-65393617D01*
X155233561Y-65428972D01*
X155248206Y-65464327D01*
X155283561Y-65478972D01*
X155500228Y-65478972D01*
X155500228Y-65740553D01*
X154994611Y-65572014D01*
X154956440Y-65574727D01*
X154931366Y-65603637D01*
X154817080Y-65603637D01*
X154817080Y-64400400D01*
X154966895Y-64400400D01*
X154981540Y-64435755D01*
X155016895Y-64450400D01*
X155435942Y-64450400D01*
X155816895Y-64450400D01*
X155852250Y-64435755D01*
X155866895Y-64400400D01*
X155852250Y-64365045D01*
X155816895Y-64350400D01*
X155485942Y-64350400D01*
X155485942Y-64095638D01*
X155481488Y-64084885D01*
X155480663Y-64073277D01*
X155442568Y-63997087D01*
X155436351Y-63991695D01*
X155433202Y-63984092D01*
X155395107Y-63945998D01*
X155387504Y-63942848D01*
X155382113Y-63936632D01*
X155305922Y-63898536D01*
X155294313Y-63897710D01*
X155283561Y-63893257D01*
X155169276Y-63893257D01*
X155158523Y-63897710D01*
X155146915Y-63898536D01*
X155070724Y-63936632D01*
X155065332Y-63942848D01*
X155057729Y-63945998D01*
X155019635Y-63984093D01*
X155016485Y-63991695D01*
X155010269Y-63997087D01*
X154972174Y-64073277D01*
X154971348Y-64084885D01*
X154966895Y-64095638D01*
X154966895Y-64400400D01*
X154817080Y-64400400D01*
X154817080Y-63600400D01*
X154966895Y-63600400D01*
X154981540Y-63635755D01*
X155016895Y-63650400D01*
X155816895Y-63650400D01*
X155852250Y-63635755D01*
X155866895Y-63600400D01*
X155852250Y-63565045D01*
X155816895Y-63550400D01*
X155016895Y-63550400D01*
X154981540Y-63565045D01*
X154966895Y-63600400D01*
X154817080Y-63600400D01*
X154817080Y-63219448D01*
X154966895Y-63219448D01*
X154971850Y-63231410D01*
X154973483Y-63244255D01*
X154978912Y-63248459D01*
X154981540Y-63254803D01*
X154993501Y-63259757D01*
X155003739Y-63267686D01*
X155010550Y-63266820D01*
X155016895Y-63269448D01*
X155816895Y-63269448D01*
X155852250Y-63254803D01*
X155866895Y-63219448D01*
X155852250Y-63184093D01*
X155816895Y-63169448D01*
X155205173Y-63169448D01*
X155841702Y-62805717D01*
X155845906Y-62800287D01*
X155852250Y-62797660D01*
X155857204Y-62785698D01*
X155865133Y-62775461D01*
X155864267Y-62768649D01*
X155866895Y-62762305D01*
X155861939Y-62750342D01*
X155860307Y-62737498D01*
X155854877Y-62733293D01*
X155852250Y-62726950D01*
X155840288Y-62721995D01*
X155830051Y-62714067D01*
X155823239Y-62714932D01*
X155816895Y-62712305D01*
X155016895Y-62712305D01*
X154981540Y-62726950D01*
X154966895Y-62762305D01*
X154981540Y-62797660D01*
X155016895Y-62812305D01*
X155628617Y-62812305D01*
X154992088Y-63176036D01*
X154987883Y-63181465D01*
X154981540Y-63184093D01*
X154976585Y-63196054D01*
X154968657Y-63206292D01*
X154969522Y-63213103D01*
X154966895Y-63219448D01*
X154817080Y-63219448D01*
X154817080Y-61771829D01*
X154966895Y-61771829D01*
X154981540Y-61807184D01*
X155016895Y-61821829D01*
X155397847Y-61821829D01*
X155816895Y-61821829D01*
X155852250Y-61807184D01*
X155866895Y-61771829D01*
X155866895Y-61390877D01*
X155852250Y-61355522D01*
X155816895Y-61340877D01*
X155781540Y-61355522D01*
X155766895Y-61390877D01*
X155766895Y-61721829D01*
X155447847Y-61721829D01*
X155447847Y-61505163D01*
X155433202Y-61469808D01*
X155397847Y-61455163D01*
X155362492Y-61469808D01*
X155347847Y-61505163D01*
X155347847Y-61721829D01*
X155066895Y-61721829D01*
X155066895Y-61390877D01*
X155052250Y-61355522D01*
X155016895Y-61340877D01*
X154981540Y-61355522D01*
X154966895Y-61390877D01*
X154966895Y-61771829D01*
X154817080Y-61771829D01*
X154817080Y-61048019D01*
X154966895Y-61048019D01*
X154981540Y-61083374D01*
X155016895Y-61098019D01*
X155816895Y-61098019D01*
X155852250Y-61083374D01*
X155866895Y-61048019D01*
X155852250Y-61012664D01*
X155816895Y-60998019D01*
X155016895Y-60998019D01*
X154981540Y-61012664D01*
X154966895Y-61048019D01*
X154817080Y-61048019D01*
X154817080Y-60667067D01*
X154966895Y-60667067D01*
X154971850Y-60679029D01*
X154973483Y-60691874D01*
X154978912Y-60696078D01*
X154981540Y-60702422D01*
X154993501Y-60707376D01*
X155003739Y-60715305D01*
X155010550Y-60714439D01*
X155016895Y-60717067D01*
X155816895Y-60717067D01*
X155852250Y-60702422D01*
X155866895Y-60667067D01*
X155852250Y-60631712D01*
X155816895Y-60617067D01*
X155205173Y-60617067D01*
X155841702Y-60253336D01*
X155845906Y-60247906D01*
X155852250Y-60245279D01*
X155857204Y-60233317D01*
X155865133Y-60223080D01*
X155864267Y-60216268D01*
X155866895Y-60209924D01*
X155861939Y-60197961D01*
X155860307Y-60185117D01*
X155854877Y-60180912D01*
X155852250Y-60174569D01*
X155840288Y-60169614D01*
X155830051Y-60161686D01*
X155823239Y-60162551D01*
X155816895Y-60159924D01*
X155016895Y-60159924D01*
X154981540Y-60174569D01*
X154966895Y-60209924D01*
X154981540Y-60245279D01*
X155016895Y-60259924D01*
X155628617Y-60259924D01*
X154992088Y-60623655D01*
X154987883Y-60629084D01*
X154981540Y-60631712D01*
X154976585Y-60643673D01*
X154968657Y-60653911D01*
X154969522Y-60660722D01*
X154966895Y-60667067D01*
X154817080Y-60667067D01*
X154817080Y-59828972D01*
X154966895Y-59828972D01*
X154981540Y-59864327D01*
X155016895Y-59878972D01*
X155474038Y-59878972D01*
X155816895Y-59878972D01*
X155852250Y-59864327D01*
X155866895Y-59828972D01*
X155852250Y-59793617D01*
X155816895Y-59778972D01*
X155494748Y-59778972D01*
X155435872Y-59720096D01*
X155846895Y-59411829D01*
X155866392Y-59378900D01*
X155856895Y-59341829D01*
X155823966Y-59322332D01*
X155786895Y-59331829D01*
X155364443Y-59648667D01*
X155052250Y-59336474D01*
X155016895Y-59321829D01*
X154981540Y-59336474D01*
X154966895Y-59371829D01*
X154981540Y-59407184D01*
X155353328Y-59778972D01*
X155016895Y-59778972D01*
X154981540Y-59793617D01*
X154966895Y-59828972D01*
X154817080Y-59828972D01*
X154817080Y-59207543D01*
X155981181Y-59207543D01*
X155981181Y-66774211D01*
G37*
D13*
G36*
X153401804Y-80442188D02*
G01*
X150799169Y-80442188D01*
X150799169Y-79372591D01*
X150927740Y-79372591D01*
X151227740Y-80272590D01*
X151230678Y-80275977D01*
X151230996Y-80280450D01*
X151245366Y-80292913D01*
X151257828Y-80307282D01*
X151262299Y-80307599D01*
X151265687Y-80310538D01*
X151284661Y-80309189D01*
X151303635Y-80310538D01*
X151307022Y-80307599D01*
X151311494Y-80307282D01*
X151323958Y-80292910D01*
X151338326Y-80280449D01*
X151338643Y-80275978D01*
X151341582Y-80272591D01*
X151476478Y-79867902D01*
X151781804Y-79867902D01*
X151784714Y-79874929D01*
X151783595Y-79882454D01*
X151826452Y-80053883D01*
X151830511Y-80059361D01*
X151830995Y-80066164D01*
X151873852Y-80151878D01*
X151881313Y-80158349D01*
X151885092Y-80167471D01*
X151970806Y-80253186D01*
X151983707Y-80258529D01*
X151994259Y-80267681D01*
X152122831Y-80310538D01*
X152132680Y-80309837D01*
X152141804Y-80313617D01*
X152227518Y-80313617D01*
X152236641Y-80309837D01*
X152246492Y-80310538D01*
X152375064Y-80267681D01*
X152385614Y-80258530D01*
X152397476Y-80253617D01*
X152724661Y-80253617D01*
X152742235Y-80296043D01*
X152784661Y-80313617D01*
X153213233Y-80313617D01*
X153255659Y-80296043D01*
X153273233Y-80253617D01*
X153255659Y-80211191D01*
X153213233Y-80193617D01*
X152844661Y-80193617D01*
X152844661Y-79353617D01*
X152827087Y-79311191D01*
X152784661Y-79293617D01*
X152742235Y-79311191D01*
X152724661Y-79353617D01*
X152724661Y-80253617D01*
X152397476Y-80253617D01*
X152398517Y-80253186D01*
X152441374Y-80210328D01*
X152458947Y-80167901D01*
X152458947Y-79867902D01*
X152441373Y-79825476D01*
X152398947Y-79807902D01*
X152227518Y-79807902D01*
X152185092Y-79825476D01*
X152167518Y-79867902D01*
X152185092Y-79910328D01*
X152227518Y-79927902D01*
X152338947Y-79927902D01*
X152338947Y-80143049D01*
X152323678Y-80158318D01*
X152217781Y-80193617D01*
X152151541Y-80193617D01*
X152045643Y-80158317D01*
X151976830Y-80089505D01*
X151941272Y-80018389D01*
X151901804Y-79860514D01*
X151901804Y-79746718D01*
X151941272Y-79588843D01*
X151976830Y-79517729D01*
X152045642Y-79448916D01*
X152151541Y-79413617D01*
X152256211Y-79413617D01*
X152329257Y-79450140D01*
X152375063Y-79453394D01*
X152409755Y-79423307D01*
X152413010Y-79377500D01*
X152382923Y-79342808D01*
X152297209Y-79299951D01*
X152283278Y-79298961D01*
X152270376Y-79293617D01*
X152141804Y-79293617D01*
X152132680Y-79297396D01*
X152122831Y-79296696D01*
X151994259Y-79339553D01*
X151983709Y-79348702D01*
X151970807Y-79354047D01*
X151885092Y-79439761D01*
X151881313Y-79448884D01*
X151873852Y-79455355D01*
X151830995Y-79541069D01*
X151830511Y-79547871D01*
X151826452Y-79553350D01*
X151783595Y-79724779D01*
X151784714Y-79732303D01*
X151781804Y-79739331D01*
X151781804Y-79867902D01*
X151476478Y-79867902D01*
X151641582Y-79372591D01*
X151638326Y-79326785D01*
X151603635Y-79296696D01*
X151557828Y-79299952D01*
X151527740Y-79334644D01*
X151284661Y-80063880D01*
X151041582Y-79334643D01*
X151011494Y-79299952D01*
X150965687Y-79296696D01*
X150930996Y-79326784D01*
X150927740Y-79372591D01*
X150799169Y-79372591D01*
X150799169Y-79165046D01*
X153401804Y-79165046D01*
X153401804Y-80442188D01*
G37*
D12*
G36*
X160239029Y-48298607D02*
G01*
X160309211Y-48368789D01*
X160347217Y-48520811D01*
X160347217Y-48808502D01*
X160309211Y-48960523D01*
X160268645Y-49001089D01*
X160175429Y-48907873D01*
X160167826Y-48904723D01*
X160162435Y-48898507D01*
X160076721Y-48855650D01*
X160065112Y-48854824D01*
X160054360Y-48850371D01*
X159968646Y-48850371D01*
X159933291Y-48865016D01*
X159918646Y-48900371D01*
X159933291Y-48935726D01*
X159968646Y-48950371D01*
X160042557Y-48950371D01*
X160110456Y-48984320D01*
X160184237Y-49058102D01*
X160171129Y-49064657D01*
X160023306Y-49064657D01*
X159955407Y-49030707D01*
X159885222Y-48960523D01*
X159847217Y-48808502D01*
X159847217Y-48520811D01*
X159885222Y-48368790D01*
X159955406Y-48298607D01*
X160023306Y-48264657D01*
X160171129Y-48264657D01*
X160239029Y-48298607D01*
G37*
G36*
X163361501Y-49376376D02*
G01*
X159618646Y-49376376D01*
X159618646Y-48814657D01*
X159747217Y-48814657D01*
X159749643Y-48820513D01*
X159748710Y-48826784D01*
X159791567Y-48998212D01*
X159799573Y-49009017D01*
X159804719Y-49021440D01*
X159890433Y-49107155D01*
X159898036Y-49110304D01*
X159903428Y-49116521D01*
X159989142Y-49159378D01*
X160000750Y-49160203D01*
X160011503Y-49164657D01*
X160182931Y-49164657D01*
X160193683Y-49160202D01*
X160205291Y-49159378D01*
X160258773Y-49132637D01*
X160319005Y-49192869D01*
X160326607Y-49196018D01*
X160331999Y-49202235D01*
X160417713Y-49245092D01*
X160455885Y-49247805D01*
X160484795Y-49222732D01*
X160487508Y-49184560D01*
X160462435Y-49155650D01*
X160383977Y-49116421D01*
X160339356Y-49071800D01*
X160389716Y-49021440D01*
X160394861Y-49009015D01*
X160402867Y-48998212D01*
X160445724Y-48826784D01*
X160444790Y-48820513D01*
X160447217Y-48814657D01*
X160447217Y-48514657D01*
X160444790Y-48508800D01*
X160445724Y-48502530D01*
X160402867Y-48331101D01*
X160394860Y-48320295D01*
X160389715Y-48307873D01*
X160308080Y-48226238D01*
X160648577Y-48226238D01*
X160862863Y-49126238D01*
X160867246Y-49132295D01*
X160868232Y-49139709D01*
X160878049Y-49147223D01*
X160885298Y-49157240D01*
X160892681Y-49158423D01*
X160898620Y-49162969D01*
X160910874Y-49161340D01*
X160923084Y-49163298D01*
X160929143Y-49158912D01*
X160936555Y-49157928D01*
X160944069Y-49148111D01*
X160954086Y-49140862D01*
X160955269Y-49133478D01*
X160959815Y-49127540D01*
X161082931Y-48665853D01*
X161206048Y-49127540D01*
X161210593Y-49133478D01*
X161211777Y-49140862D01*
X161221794Y-49148111D01*
X161229309Y-49157928D01*
X161236720Y-49158912D01*
X161242779Y-49163297D01*
X161254986Y-49161340D01*
X161267243Y-49162969D01*
X161273181Y-49158423D01*
X161280565Y-49157240D01*
X161287813Y-49147223D01*
X161297631Y-49139709D01*
X161298616Y-49132295D01*
X161303000Y-49126238D01*
X161305757Y-49114657D01*
X161761502Y-49114657D01*
X161776147Y-49150012D01*
X161811502Y-49164657D01*
X161846857Y-49150012D01*
X161861502Y-49114657D01*
X162190073Y-49114657D01*
X162204718Y-49150012D01*
X162240073Y-49164657D01*
X162275428Y-49150012D01*
X162290073Y-49114657D01*
X162290073Y-48728942D01*
X162575787Y-48728942D01*
X162578213Y-48734798D01*
X162577280Y-48741069D01*
X162620137Y-48912498D01*
X162623520Y-48917063D01*
X162623923Y-48922732D01*
X162666780Y-49008446D01*
X162672996Y-49013837D01*
X162676146Y-49021440D01*
X162761860Y-49107155D01*
X162772613Y-49111608D01*
X162781405Y-49119234D01*
X162909976Y-49162091D01*
X162918184Y-49161507D01*
X162925787Y-49164657D01*
X163011501Y-49164657D01*
X163019103Y-49161507D01*
X163027312Y-49162091D01*
X163155885Y-49119234D01*
X163164676Y-49111609D01*
X163175429Y-49107155D01*
X163218286Y-49064297D01*
X163232930Y-49028941D01*
X163218285Y-48993586D01*
X163182930Y-48978942D01*
X163147574Y-48993587D01*
X163113062Y-49028099D01*
X163003388Y-49064657D01*
X162933901Y-49064657D01*
X162824225Y-49028098D01*
X162752593Y-48956467D01*
X162715820Y-48882920D01*
X162675787Y-48722787D01*
X162675787Y-48606525D01*
X162715820Y-48446392D01*
X162752593Y-48372847D01*
X162824224Y-48301215D01*
X162933901Y-48264657D01*
X163003388Y-48264657D01*
X163113064Y-48301215D01*
X163147575Y-48335726D01*
X163182930Y-48350371D01*
X163218285Y-48335726D01*
X163232930Y-48300371D01*
X163218285Y-48265016D01*
X163175428Y-48222159D01*
X163164676Y-48217705D01*
X163155885Y-48210080D01*
X163027312Y-48167223D01*
X163019103Y-48167806D01*
X163011501Y-48164657D01*
X162925787Y-48164657D01*
X162918184Y-48167806D01*
X162909976Y-48167223D01*
X162781405Y-48210080D01*
X162772614Y-48217703D01*
X162761861Y-48222158D01*
X162676146Y-48307872D01*
X162672996Y-48315475D01*
X162666780Y-48320867D01*
X162623923Y-48406581D01*
X162623520Y-48412249D01*
X162620137Y-48416815D01*
X162577280Y-48588244D01*
X162578213Y-48594514D01*
X162575787Y-48600371D01*
X162575787Y-48728942D01*
X162290073Y-48728942D01*
X162290073Y-48214657D01*
X162275428Y-48179302D01*
X162240073Y-48164657D01*
X162204718Y-48179302D01*
X162190073Y-48214657D01*
X162190073Y-49114657D01*
X161861502Y-49114657D01*
X161861502Y-48214657D01*
X161846857Y-48179302D01*
X161811502Y-48164657D01*
X161776147Y-48179302D01*
X161761502Y-48214657D01*
X161761502Y-49114657D01*
X161305757Y-49114657D01*
X161517286Y-48226238D01*
X161511229Y-48188452D01*
X161480227Y-48166016D01*
X161442441Y-48172074D01*
X161420006Y-48203076D01*
X161251615Y-48910313D01*
X161131243Y-48458917D01*
X161127099Y-48453503D01*
X161126202Y-48446749D01*
X161115884Y-48438851D01*
X161107983Y-48428529D01*
X161101225Y-48427631D01*
X161095814Y-48423489D01*
X161082934Y-48425200D01*
X161070048Y-48423488D01*
X161064633Y-48427632D01*
X161057879Y-48428530D01*
X161049981Y-48438847D01*
X161039660Y-48446748D01*
X161038762Y-48453504D01*
X161034619Y-48458917D01*
X160914247Y-48910313D01*
X160745857Y-48203076D01*
X160723422Y-48172074D01*
X160685636Y-48166017D01*
X160654634Y-48188452D01*
X160648577Y-48226238D01*
X160308080Y-48226238D01*
X160304001Y-48222159D01*
X160296397Y-48219009D01*
X160291006Y-48212793D01*
X160205291Y-48169936D01*
X160193683Y-48169111D01*
X160182931Y-48164657D01*
X160011503Y-48164657D01*
X160000750Y-48169110D01*
X159989142Y-48169936D01*
X159903428Y-48212793D01*
X159898037Y-48219008D01*
X159890434Y-48222158D01*
X159804719Y-48307872D01*
X159799572Y-48320296D01*
X159791567Y-48331101D01*
X159748710Y-48502530D01*
X159749643Y-48508800D01*
X159747217Y-48514657D01*
X159747217Y-48814657D01*
X159618646Y-48814657D01*
X159618646Y-48036086D01*
X163361501Y-48036086D01*
X163361501Y-49376376D01*
G37*
X145204425Y-53545887D02*
X145312175Y-53492012D01*
X145312175Y-53492012D02*
X145446862Y-53357325D01*
X145446862Y-53357325D02*
X145473799Y-53276513D01*
X145473799Y-53276513D02*
X145473799Y-53222638D01*
X145473799Y-53222638D02*
X145446862Y-53141826D01*
X145446862Y-53141826D02*
X145392987Y-53087951D01*
X145392987Y-53087951D02*
X145312175Y-53061013D01*
X145312175Y-53061013D02*
X145258300Y-53061013D01*
X145258300Y-53061013D02*
X145177488Y-53087951D01*
X145177488Y-53087951D02*
X145042801Y-53168763D01*
X145042801Y-53168763D02*
X144961989Y-53195700D01*
X144961989Y-53195700D02*
X144908114Y-53195700D01*
X144908114Y-53195700D02*
X144827302Y-53168763D01*
X144827302Y-53168763D02*
X144773427Y-53114888D01*
X144773427Y-53114888D02*
X144746490Y-53034076D01*
X144746490Y-53034076D02*
X144746490Y-52980201D01*
X144746490Y-52980201D02*
X144773427Y-52899389D01*
X144773427Y-52899389D02*
X144908114Y-52764702D01*
X144908114Y-52764702D02*
X145015864Y-52710827D01*
X146066422Y-52630015D02*
X146066422Y-52683890D01*
X146066422Y-52683890D02*
X146012548Y-52791639D01*
X146012548Y-52791639D02*
X145958673Y-52845514D01*
X145958673Y-52845514D02*
X145850923Y-52899389D01*
X145850923Y-52899389D02*
X145743174Y-52899389D01*
X145743174Y-52899389D02*
X145662361Y-52872451D01*
X145662361Y-52872451D02*
X145527674Y-52791639D01*
X145527674Y-52791639D02*
X145446862Y-52710827D01*
X145446862Y-52710827D02*
X145366050Y-52576140D01*
X145366050Y-52576140D02*
X145339113Y-52495328D01*
X145339113Y-52495328D02*
X145339113Y-52387578D01*
X145339113Y-52387578D02*
X145392987Y-52279829D01*
X145392987Y-52279829D02*
X145446862Y-52225954D01*
X145446862Y-52225954D02*
X145554612Y-52172079D01*
X145554612Y-52172079D02*
X145608487Y-52172079D01*
X146632108Y-52172079D02*
X146362734Y-52441453D01*
X146362734Y-52441453D02*
X145797048Y-51875768D01*
D14*
G36*
X125915977Y-77816781D02*
G01*
X124317762Y-77816781D01*
X124317762Y-77646245D01*
X124432048Y-77646245D01*
X124448523Y-77686020D01*
X124488298Y-77702495D01*
X124983536Y-77702495D01*
X125023311Y-77686020D01*
X125039786Y-77646245D01*
X125023311Y-77606470D01*
X124983536Y-77589995D01*
X124624098Y-77589995D01*
X124644040Y-77570053D01*
X125193953Y-77570053D01*
X125210428Y-77609828D01*
X125248523Y-77647924D01*
X125257074Y-77651466D01*
X125263142Y-77658462D01*
X125339334Y-77696557D01*
X125352393Y-77697485D01*
X125364489Y-77702495D01*
X125593060Y-77702495D01*
X125605154Y-77697485D01*
X125618216Y-77696557D01*
X125694407Y-77658462D01*
X125700474Y-77651466D01*
X125709026Y-77647924D01*
X125747121Y-77609828D01*
X125750662Y-77601276D01*
X125757658Y-77595210D01*
X125795753Y-77519020D01*
X125796681Y-77505958D01*
X125801691Y-77493864D01*
X125801691Y-77303388D01*
X125796681Y-77291292D01*
X125795753Y-77278233D01*
X125757658Y-77202041D01*
X125750662Y-77195973D01*
X125747120Y-77187422D01*
X125709026Y-77149327D01*
X125700473Y-77145784D01*
X125694407Y-77138790D01*
X125618216Y-77100695D01*
X125605154Y-77099766D01*
X125600162Y-77097698D01*
X125787774Y-76883286D01*
X125794117Y-76864528D01*
X125801691Y-76846245D01*
X125800926Y-76844398D01*
X125801567Y-76842503D01*
X125792789Y-76824754D01*
X125785216Y-76806470D01*
X125783368Y-76805704D01*
X125782482Y-76803912D01*
X125763724Y-76797568D01*
X125745441Y-76789995D01*
X125250203Y-76789995D01*
X125210428Y-76806470D01*
X125193953Y-76846245D01*
X125210428Y-76886020D01*
X125250203Y-76902495D01*
X125621480Y-76902495D01*
X125436443Y-77113966D01*
X125430101Y-77132716D01*
X125422525Y-77151007D01*
X125423289Y-77152853D01*
X125422649Y-77154749D01*
X125431425Y-77172495D01*
X125439000Y-77190782D01*
X125440847Y-77191547D01*
X125441734Y-77193339D01*
X125460484Y-77199680D01*
X125478775Y-77207257D01*
X125579780Y-77207257D01*
X125635930Y-77235331D01*
X125661115Y-77260515D01*
X125689191Y-77316667D01*
X125689191Y-77480584D01*
X125661114Y-77536736D01*
X125635931Y-77561919D01*
X125579780Y-77589995D01*
X125377769Y-77589995D01*
X125321616Y-77561919D01*
X125289978Y-77530280D01*
X125250204Y-77513804D01*
X125210429Y-77530279D01*
X125193953Y-77570053D01*
X124644040Y-77570053D01*
X124985216Y-77228877D01*
X124990226Y-77216780D01*
X124998804Y-77206890D01*
X125036900Y-77092604D01*
X125036243Y-77083368D01*
X125039786Y-77074816D01*
X125039786Y-76998626D01*
X125034776Y-76986530D01*
X125033848Y-76973471D01*
X124995753Y-76897279D01*
X124988757Y-76891211D01*
X124985215Y-76882660D01*
X124947121Y-76844565D01*
X124938568Y-76841022D01*
X124932502Y-76834028D01*
X124856311Y-76795933D01*
X124843249Y-76795004D01*
X124831155Y-76789995D01*
X124640679Y-76789995D01*
X124628584Y-76795004D01*
X124615523Y-76795933D01*
X124539333Y-76834028D01*
X124533266Y-76841023D01*
X124524715Y-76844565D01*
X124486619Y-76882660D01*
X124470143Y-76922434D01*
X124486618Y-76962209D01*
X124526392Y-76978685D01*
X124566167Y-76962210D01*
X124597806Y-76930571D01*
X124653959Y-76902495D01*
X124817875Y-76902495D01*
X124874025Y-76930569D01*
X124899210Y-76955753D01*
X124927286Y-77011905D01*
X124927286Y-77065689D01*
X124896277Y-77158715D01*
X124448523Y-77606470D01*
X124432048Y-77646245D01*
X124317762Y-77646245D01*
X124317762Y-76675709D01*
X125915977Y-76675709D01*
X125915977Y-77816781D01*
G37*
D15*
G36*
X134831910Y-61052357D02*
G01*
X135034371Y-61254818D01*
X135065984Y-61349656D01*
X135065984Y-61401986D01*
X135034371Y-61496824D01*
X134882418Y-61648777D01*
X134787580Y-61680390D01*
X134735250Y-61680390D01*
X134640410Y-61648777D01*
X134437952Y-61446319D01*
X134406339Y-61351479D01*
X134406339Y-61299148D01*
X134437951Y-61204309D01*
X134589904Y-61052357D01*
X134684743Y-61020745D01*
X134737075Y-61020745D01*
X134831910Y-61052357D01*
G37*
G36*
X135882685Y-61375822D02*
G01*
X133700755Y-63557752D01*
X132175424Y-62032421D01*
X132742633Y-62032421D01*
X132748883Y-62055746D01*
X132750330Y-62079855D01*
X132800837Y-62231378D01*
X132809961Y-62245198D01*
X132814516Y-62261118D01*
X132966039Y-62513656D01*
X132979343Y-62526520D01*
X132988597Y-62542548D01*
X133140120Y-62694071D01*
X133156147Y-62703324D01*
X133169012Y-62716629D01*
X133421549Y-62868152D01*
X133437470Y-62872706D01*
X133451290Y-62881831D01*
X133602813Y-62932338D01*
X133626921Y-62933784D01*
X133650247Y-62940035D01*
X133852278Y-62940035D01*
X133885579Y-62931111D01*
X133919360Y-62924199D01*
X134121390Y-62823184D01*
X134139459Y-62807160D01*
X134160374Y-62795086D01*
X134261389Y-62694071D01*
X134273464Y-62673155D01*
X134289487Y-62655087D01*
X134390503Y-62453056D01*
X134397415Y-62419275D01*
X134406339Y-62385974D01*
X134406339Y-62284959D01*
X134386243Y-62209959D01*
X134331339Y-62155055D01*
X134256339Y-62134959D01*
X134181339Y-62155055D01*
X134126435Y-62209959D01*
X134106339Y-62284959D01*
X134106339Y-62350563D01*
X134032045Y-62499151D01*
X133965454Y-62565742D01*
X133816868Y-62640035D01*
X133674590Y-62640035D01*
X133561776Y-62602431D01*
X133339195Y-62468882D01*
X133213787Y-62343474D01*
X133080236Y-62120891D01*
X133042633Y-62008078D01*
X133042633Y-61865800D01*
X133116926Y-61717213D01*
X133183517Y-61650621D01*
X133332104Y-61576329D01*
X133397709Y-61576329D01*
X133472709Y-61556233D01*
X133527613Y-61501329D01*
X133547709Y-61426329D01*
X133527613Y-61351329D01*
X133472709Y-61296425D01*
X133397709Y-61276329D01*
X133296694Y-61276329D01*
X133263392Y-61285252D01*
X133229612Y-61292165D01*
X133027581Y-61393180D01*
X133009510Y-61409204D01*
X132988596Y-61421279D01*
X132887581Y-61522295D01*
X132875506Y-61543208D01*
X132859484Y-61561278D01*
X132758469Y-61763308D01*
X132751556Y-61797088D01*
X132742633Y-61830390D01*
X132742633Y-62032421D01*
X132175424Y-62032421D01*
X132124916Y-61981913D01*
X133236084Y-60870745D01*
X133803293Y-60870745D01*
X133807170Y-60885214D01*
X133806206Y-60900163D01*
X133856714Y-61152700D01*
X133868107Y-61175743D01*
X133875177Y-61200457D01*
X134026699Y-61452996D01*
X134040003Y-61465860D01*
X134049257Y-61481888D01*
X134453318Y-61885949D01*
X134483174Y-61903186D01*
X134511950Y-61922186D01*
X134663473Y-61972693D01*
X134687581Y-61974139D01*
X134710907Y-61980390D01*
X134811923Y-61980390D01*
X134835248Y-61974140D01*
X134859357Y-61972693D01*
X135010879Y-61922186D01*
X135039654Y-61903186D01*
X135069511Y-61885949D01*
X135271542Y-61683918D01*
X135288784Y-61654053D01*
X135307778Y-61625286D01*
X135358286Y-61473764D01*
X135359733Y-61449657D01*
X135365984Y-61426329D01*
X135365984Y-61325314D01*
X135359733Y-61301985D01*
X135358286Y-61277879D01*
X135307778Y-61126357D01*
X135288784Y-61097589D01*
X135271542Y-61067725D01*
X135019004Y-60815187D01*
X134989147Y-60797949D01*
X134960372Y-60778950D01*
X134808849Y-60728443D01*
X134784743Y-60726995D01*
X134761415Y-60720745D01*
X134660400Y-60720745D01*
X134637071Y-60726995D01*
X134612965Y-60728443D01*
X134461443Y-60778951D01*
X134432675Y-60797944D01*
X134402811Y-60815187D01*
X134200780Y-61017217D01*
X134183542Y-61047073D01*
X134164543Y-61075849D01*
X134159445Y-61091142D01*
X134145792Y-61068388D01*
X134103293Y-60855891D01*
X134103293Y-60794070D01*
X134134905Y-60699234D01*
X134311897Y-60522243D01*
X134350720Y-60455000D01*
X134350720Y-60377354D01*
X134311897Y-60310111D01*
X134244654Y-60271288D01*
X134167008Y-60271288D01*
X134099765Y-60310111D01*
X133897735Y-60512141D01*
X133880497Y-60541997D01*
X133861498Y-60570773D01*
X133810991Y-60722296D01*
X133809543Y-60746401D01*
X133803293Y-60769730D01*
X133803293Y-60870745D01*
X133236084Y-60870745D01*
X134306846Y-59799983D01*
X135882685Y-61375822D01*
G37*
D16*
X119746303Y-62794295D02*
X119479636Y-62413342D01*
X119289160Y-62794295D02*
X119289160Y-61994295D01*
X119289160Y-61994295D02*
X119593922Y-61994295D01*
X119593922Y-61994295D02*
X119670112Y-62032390D01*
X119670112Y-62032390D02*
X119708207Y-62070485D01*
X119708207Y-62070485D02*
X119746303Y-62146676D01*
X119746303Y-62146676D02*
X119746303Y-62260961D01*
X119746303Y-62260961D02*
X119708207Y-62337152D01*
X119708207Y-62337152D02*
X119670112Y-62375247D01*
X119670112Y-62375247D02*
X119593922Y-62413342D01*
X119593922Y-62413342D02*
X119289160Y-62413342D01*
X120089160Y-62375247D02*
X120355826Y-62375247D01*
X120470112Y-62794295D02*
X120089160Y-62794295D01*
X120089160Y-62794295D02*
X120089160Y-61994295D01*
X120089160Y-61994295D02*
X120470112Y-61994295D01*
X120774874Y-62565723D02*
X121155827Y-62565723D01*
X120698684Y-62794295D02*
X120965351Y-61994295D01*
X120965351Y-61994295D02*
X121232017Y-62794295D01*
X121498684Y-62794295D02*
X121498684Y-61994295D01*
X121498684Y-61994295D02*
X121689160Y-61994295D01*
X121689160Y-61994295D02*
X121803446Y-62032390D01*
X121803446Y-62032390D02*
X121879636Y-62108580D01*
X121879636Y-62108580D02*
X121917731Y-62184771D01*
X121917731Y-62184771D02*
X121955827Y-62337152D01*
X121955827Y-62337152D02*
X121955827Y-62451438D01*
X121955827Y-62451438D02*
X121917731Y-62603819D01*
X121917731Y-62603819D02*
X121879636Y-62680009D01*
X121879636Y-62680009D02*
X121803446Y-62756200D01*
X121803446Y-62756200D02*
X121689160Y-62794295D01*
X121689160Y-62794295D02*
X121498684Y-62794295D01*
X122451065Y-62413342D02*
X122451065Y-62794295D01*
X122184398Y-61994295D02*
X122451065Y-62413342D01*
X122451065Y-62413342D02*
X122717731Y-61994295D01*
D17*
G36*
X117104904Y-68522887D02*
G01*
X117125229Y-68543212D01*
X117153834Y-68600421D01*
X117153834Y-68691223D01*
X117125228Y-68748433D01*
X117100730Y-68772932D01*
X117043520Y-68801537D01*
X116799548Y-68801537D01*
X116799548Y-68490108D01*
X117006565Y-68490108D01*
X117104904Y-68522887D01*
G37*
G36*
X117057872Y-68090141D02*
G01*
X117082373Y-68114642D01*
X117110977Y-68171850D01*
X117110977Y-68219795D01*
X117082373Y-68277003D01*
X117057872Y-68301503D01*
X117000663Y-68330108D01*
X116799548Y-68330108D01*
X116799548Y-68061537D01*
X117000663Y-68061537D01*
X117057872Y-68090141D01*
G37*
G36*
X118000729Y-68090141D02*
G01*
X118061597Y-68151008D01*
X118096691Y-68291383D01*
X118096691Y-68571690D01*
X118061597Y-68712064D01*
X118000730Y-68772931D01*
X117943520Y-68801537D01*
X117809862Y-68801537D01*
X117752652Y-68772932D01*
X117691784Y-68712063D01*
X117656691Y-68571690D01*
X117656691Y-68291383D01*
X117691784Y-68151008D01*
X117752651Y-68090142D01*
X117809862Y-68061537D01*
X117943520Y-68061537D01*
X118000729Y-68090141D01*
G37*
G36*
X118943586Y-68090141D02*
G01*
X119004454Y-68151008D01*
X119039548Y-68291383D01*
X119039548Y-68571690D01*
X119004454Y-68712064D01*
X118943587Y-68772931D01*
X118886377Y-68801537D01*
X118752719Y-68801537D01*
X118695509Y-68772932D01*
X118634641Y-68712063D01*
X118599548Y-68571690D01*
X118599548Y-68291383D01*
X118634641Y-68151008D01*
X118695508Y-68090142D01*
X118752719Y-68061537D01*
X118886377Y-68061537D01*
X118943586Y-68090141D01*
G37*
G36*
X120098333Y-69090108D02*
G01*
X116510977Y-69090108D01*
X116510977Y-68881537D01*
X116639548Y-68881537D01*
X116646656Y-68901068D01*
X116650266Y-68921537D01*
X116655795Y-68926176D01*
X116658264Y-68932960D01*
X116676265Y-68943353D01*
X116692186Y-68956712D01*
X116702577Y-68958544D01*
X116705656Y-68960322D01*
X116709156Y-68959704D01*
X116719548Y-68961537D01*
X117062405Y-68961537D01*
X117066899Y-68959900D01*
X117071551Y-68961012D01*
X117098182Y-68953091D01*
X117183897Y-68910234D01*
X117185097Y-68908966D01*
X117204689Y-68895248D01*
X117247546Y-68852390D01*
X117248284Y-68850807D01*
X117262531Y-68831599D01*
X117305388Y-68745885D01*
X117305934Y-68741133D01*
X117309009Y-68737470D01*
X117313834Y-68710108D01*
X117313834Y-68581537D01*
X117496691Y-68581537D01*
X117497955Y-68585012D01*
X117499080Y-68600940D01*
X117541937Y-68772368D01*
X117546354Y-68778909D01*
X117547043Y-68786774D01*
X117562979Y-68809534D01*
X117648694Y-68895248D01*
X117650275Y-68895985D01*
X117669486Y-68910234D01*
X117755200Y-68953091D01*
X117759951Y-68953637D01*
X117763615Y-68956712D01*
X117790977Y-68961537D01*
X117962405Y-68961537D01*
X117966899Y-68959900D01*
X117971551Y-68961012D01*
X117998182Y-68953091D01*
X118083897Y-68910234D01*
X118085099Y-68908964D01*
X118104689Y-68895248D01*
X118190403Y-68809533D01*
X118193739Y-68802378D01*
X118200128Y-68797743D01*
X118211445Y-68772368D01*
X118254302Y-68600940D01*
X118253917Y-68597262D01*
X118256691Y-68581537D01*
X118439548Y-68581537D01*
X118440812Y-68585012D01*
X118441937Y-68600940D01*
X118484794Y-68772368D01*
X118489211Y-68778909D01*
X118489900Y-68786774D01*
X118505836Y-68809534D01*
X118591551Y-68895248D01*
X118593132Y-68895985D01*
X118612343Y-68910234D01*
X118698057Y-68953091D01*
X118702808Y-68953637D01*
X118706472Y-68956712D01*
X118733834Y-68961537D01*
X118905262Y-68961537D01*
X118909756Y-68959900D01*
X118914408Y-68961012D01*
X118941039Y-68953091D01*
X119026754Y-68910234D01*
X119027956Y-68908964D01*
X119047546Y-68895248D01*
X119133260Y-68809533D01*
X119136596Y-68802378D01*
X119142985Y-68797743D01*
X119154302Y-68772368D01*
X119197159Y-68600940D01*
X119196774Y-68597262D01*
X119199548Y-68581537D01*
X119199548Y-68281537D01*
X119198283Y-68278061D01*
X119197159Y-68262134D01*
X119154302Y-68090705D01*
X119149884Y-68084163D01*
X119149196Y-68076299D01*
X119133260Y-68053540D01*
X119047546Y-67967825D01*
X119047160Y-67967645D01*
X119297906Y-67967645D01*
X119307409Y-68021537D01*
X119349329Y-68056712D01*
X119376691Y-68061537D01*
X119553834Y-68061537D01*
X119553834Y-68881537D01*
X119572550Y-68932960D01*
X119619942Y-68960322D01*
X119673834Y-68950819D01*
X119709009Y-68908899D01*
X119713834Y-68881537D01*
X119713834Y-68061537D01*
X119890977Y-68061537D01*
X119942400Y-68042821D01*
X119969762Y-67995429D01*
X119960259Y-67941537D01*
X119918339Y-67906362D01*
X119890977Y-67901537D01*
X119376691Y-67901537D01*
X119325268Y-67920253D01*
X119297906Y-67967645D01*
X119047160Y-67967645D01*
X119045958Y-67967084D01*
X119026754Y-67952840D01*
X118941039Y-67909983D01*
X118936287Y-67909436D01*
X118932624Y-67906362D01*
X118905262Y-67901537D01*
X118733834Y-67901537D01*
X118729339Y-67903173D01*
X118724688Y-67902062D01*
X118698057Y-67909983D01*
X118612343Y-67952840D01*
X118611141Y-67954108D01*
X118591552Y-67967825D01*
X118505837Y-68053539D01*
X118502500Y-68060694D01*
X118496111Y-68065330D01*
X118484794Y-68090705D01*
X118441937Y-68262134D01*
X118442321Y-68265811D01*
X118439548Y-68281537D01*
X118439548Y-68581537D01*
X118256691Y-68581537D01*
X118256691Y-68281537D01*
X118255426Y-68278061D01*
X118254302Y-68262134D01*
X118211445Y-68090705D01*
X118207027Y-68084163D01*
X118206339Y-68076299D01*
X118190403Y-68053540D01*
X118104689Y-67967825D01*
X118103101Y-67967084D01*
X118083897Y-67952840D01*
X117998182Y-67909983D01*
X117993430Y-67909436D01*
X117989767Y-67906362D01*
X117962405Y-67901537D01*
X117790977Y-67901537D01*
X117786482Y-67903173D01*
X117781831Y-67902062D01*
X117755200Y-67909983D01*
X117669486Y-67952840D01*
X117668284Y-67954108D01*
X117648695Y-67967825D01*
X117562980Y-68053539D01*
X117559643Y-68060694D01*
X117553254Y-68065330D01*
X117541937Y-68090705D01*
X117499080Y-68262134D01*
X117499464Y-68265811D01*
X117496691Y-68281537D01*
X117496691Y-68581537D01*
X117313834Y-68581537D01*
X117312197Y-68577042D01*
X117313309Y-68572391D01*
X117305388Y-68545760D01*
X117262531Y-68460045D01*
X117261264Y-68458845D01*
X117247546Y-68439253D01*
X117204689Y-68396396D01*
X117200353Y-68394374D01*
X117197850Y-68390300D01*
X117196229Y-68389422D01*
X117204689Y-68380963D01*
X117205428Y-68379377D01*
X117219674Y-68360171D01*
X117262531Y-68274457D01*
X117263077Y-68269705D01*
X117266152Y-68266042D01*
X117270977Y-68238680D01*
X117270977Y-68152965D01*
X117269340Y-68148470D01*
X117270452Y-68143819D01*
X117262531Y-68117188D01*
X117219674Y-68031474D01*
X117218407Y-68030274D01*
X117204689Y-68010682D01*
X117161832Y-67967825D01*
X117160244Y-67967084D01*
X117141040Y-67952840D01*
X117055325Y-67909983D01*
X117050573Y-67909436D01*
X117046910Y-67906362D01*
X117019548Y-67901537D01*
X116719548Y-67901537D01*
X116700016Y-67908645D01*
X116679548Y-67912255D01*
X116674908Y-67917784D01*
X116668125Y-67920253D01*
X116657731Y-67938254D01*
X116644373Y-67954175D01*
X116642540Y-67964566D01*
X116640763Y-67967645D01*
X116641380Y-67971145D01*
X116639548Y-67981537D01*
X116639548Y-68881537D01*
X116510977Y-68881537D01*
X116510977Y-67772966D01*
X120098333Y-67772966D01*
X120098333Y-69090108D01*
G37*
D12*
G36*
X136400456Y-49411130D02*
G01*
X136436600Y-49447275D01*
X136475312Y-49524698D01*
X136475312Y-49643948D01*
X136436600Y-49721371D01*
X136400456Y-49757516D01*
X136323033Y-49796228D01*
X136003884Y-49796228D01*
X136003884Y-49372419D01*
X136323033Y-49372419D01*
X136400456Y-49411130D01*
G37*
G36*
X138480073Y-50515276D02*
G01*
X135761027Y-50515276D01*
X135761027Y-50322419D01*
X135903884Y-50322419D01*
X135918529Y-50357774D01*
X135953884Y-50372419D01*
X135989239Y-50357774D01*
X136003884Y-50322419D01*
X136003884Y-49896228D01*
X136165946Y-49896228D01*
X136484350Y-50351092D01*
X136516623Y-50371658D01*
X136553985Y-50363381D01*
X136574551Y-50331108D01*
X136566274Y-50293746D01*
X136288012Y-49896228D01*
X136334836Y-49896228D01*
X136345588Y-49891774D01*
X136357197Y-49890949D01*
X136452434Y-49843331D01*
X136457826Y-49837113D01*
X136465429Y-49833964D01*
X136513048Y-49786346D01*
X136516197Y-49778742D01*
X136522414Y-49773351D01*
X136570033Y-49678113D01*
X136570858Y-49666504D01*
X136575312Y-49655752D01*
X136575312Y-49512895D01*
X136570858Y-49502142D01*
X136570033Y-49490534D01*
X136522414Y-49395296D01*
X136516197Y-49389904D01*
X136513048Y-49382301D01*
X136465429Y-49334683D01*
X136457826Y-49331533D01*
X136452434Y-49325316D01*
X136446640Y-49322419D01*
X136761027Y-49322419D01*
X136775672Y-49357774D01*
X136811027Y-49372419D01*
X137046741Y-49372419D01*
X137046741Y-50322419D01*
X137061386Y-50357774D01*
X137096741Y-50372419D01*
X137132096Y-50357774D01*
X137146741Y-50322419D01*
X137146741Y-49893847D01*
X137618170Y-49893847D01*
X137620596Y-49899703D01*
X137619663Y-49905974D01*
X137667282Y-50096450D01*
X137670665Y-50101015D01*
X137671068Y-50106684D01*
X137718686Y-50201921D01*
X137724902Y-50207312D01*
X137728052Y-50214916D01*
X137823291Y-50310155D01*
X137834043Y-50314608D01*
X137842835Y-50322234D01*
X137985691Y-50369853D01*
X137993899Y-50369269D01*
X138001503Y-50372419D01*
X138096741Y-50372419D01*
X138104344Y-50369269D01*
X138112552Y-50369853D01*
X138255409Y-50322234D01*
X138264199Y-50314609D01*
X138274954Y-50310155D01*
X138322573Y-50262535D01*
X138337216Y-50227180D01*
X138322572Y-50191824D01*
X138287216Y-50177181D01*
X138251861Y-50191825D01*
X138212588Y-50231098D01*
X138088628Y-50272419D01*
X138009616Y-50272419D01*
X137885656Y-50231099D01*
X137804500Y-50149942D01*
X137762965Y-50066872D01*
X137718170Y-49887692D01*
X137718170Y-49757145D01*
X137762965Y-49577965D01*
X137804501Y-49494893D01*
X137885654Y-49413739D01*
X138009616Y-49372419D01*
X138088628Y-49372419D01*
X138212589Y-49413739D01*
X138251861Y-49453012D01*
X138287217Y-49467656D01*
X138322572Y-49453012D01*
X138337216Y-49417657D01*
X138322572Y-49382301D01*
X138274953Y-49334683D01*
X138264200Y-49330229D01*
X138255409Y-49322604D01*
X138112552Y-49274985D01*
X138104344Y-49275568D01*
X138096741Y-49272419D01*
X138001503Y-49272419D01*
X137993899Y-49275568D01*
X137985691Y-49274985D01*
X137842835Y-49322604D01*
X137834043Y-49330229D01*
X137823291Y-49334683D01*
X137728053Y-49429921D01*
X137724903Y-49437523D01*
X137718686Y-49442916D01*
X137671068Y-49538153D01*
X137670665Y-49543821D01*
X137667282Y-49548387D01*
X137619663Y-49738863D01*
X137620596Y-49745133D01*
X137618170Y-49750990D01*
X137618170Y-49893847D01*
X137146741Y-49893847D01*
X137146741Y-49372419D01*
X137382455Y-49372419D01*
X137417810Y-49357774D01*
X137432455Y-49322419D01*
X137417810Y-49287064D01*
X137382455Y-49272419D01*
X136811027Y-49272419D01*
X136775672Y-49287064D01*
X136761027Y-49322419D01*
X136446640Y-49322419D01*
X136357197Y-49277698D01*
X136345588Y-49276872D01*
X136334836Y-49272419D01*
X135953884Y-49272419D01*
X135918529Y-49287064D01*
X135903884Y-49322419D01*
X135903884Y-50322419D01*
X135761027Y-50322419D01*
X135761027Y-49129562D01*
X138480073Y-49129562D01*
X138480073Y-50515276D01*
G37*
X141065864Y-52810827D02*
X140985051Y-52837765D01*
X140985051Y-52837765D02*
X140904239Y-52918577D01*
X140904239Y-52918577D02*
X140850364Y-53026326D01*
X140850364Y-53026326D02*
X140850364Y-53134076D01*
X140850364Y-53134076D02*
X140877302Y-53214888D01*
X140877302Y-53214888D02*
X140958114Y-53349575D01*
X140958114Y-53349575D02*
X141038926Y-53430387D01*
X141038926Y-53430387D02*
X141173613Y-53511200D01*
X141173613Y-53511200D02*
X141254425Y-53538137D01*
X141254425Y-53538137D02*
X141362175Y-53538137D01*
X141362175Y-53538137D02*
X141469925Y-53484262D01*
X141469925Y-53484262D02*
X141523799Y-53430387D01*
X141523799Y-53430387D02*
X141577674Y-53322638D01*
X141577674Y-53322638D02*
X141577674Y-53268763D01*
X141577674Y-53268763D02*
X141389112Y-53080201D01*
X141389112Y-53080201D02*
X141281363Y-53187951D01*
X141873986Y-53080201D02*
X141308300Y-52514516D01*
X141308300Y-52514516D02*
X142197235Y-52756952D01*
X142197235Y-52756952D02*
X141631549Y-52191267D01*
X142466608Y-52487578D02*
X141900923Y-51921893D01*
X141900923Y-51921893D02*
X142035610Y-51787206D01*
X142035610Y-51787206D02*
X142143360Y-51733331D01*
X142143360Y-51733331D02*
X142251109Y-51733331D01*
X142251109Y-51733331D02*
X142331921Y-51760269D01*
X142331921Y-51760269D02*
X142466608Y-51841081D01*
X142466608Y-51841081D02*
X142547421Y-51921893D01*
X142547421Y-51921893D02*
X142628233Y-52056580D01*
X142628233Y-52056580D02*
X142655170Y-52137392D01*
X142655170Y-52137392D02*
X142655170Y-52245142D01*
X142655170Y-52245142D02*
X142601295Y-52352891D01*
X142601295Y-52352891D02*
X142466608Y-52487578D01*
X115943884Y-52271466D02*
X116705789Y-52271466D01*
X116324836Y-52652419D02*
X116324836Y-51890514D01*
D13*
G36*
X155837694Y-79445787D02*
G01*
X155904768Y-79512861D01*
X155941804Y-79661004D01*
X155941804Y-79946229D01*
X155904768Y-80094371D01*
X155837692Y-80161447D01*
X155773353Y-80193617D01*
X155630255Y-80193617D01*
X155565916Y-80161447D01*
X155498839Y-80094371D01*
X155461804Y-79946229D01*
X155461804Y-79661004D01*
X155498839Y-79512862D01*
X155565915Y-79445787D01*
X155630255Y-79413617D01*
X155773353Y-79413617D01*
X155837694Y-79445787D01*
G37*
G36*
X157176089Y-80442188D02*
G01*
X153459169Y-80442188D01*
X153459169Y-79372591D01*
X153587740Y-79372591D01*
X153887740Y-80272590D01*
X153890678Y-80275977D01*
X153890996Y-80280450D01*
X153905366Y-80292913D01*
X153917828Y-80307282D01*
X153922299Y-80307599D01*
X153925687Y-80310538D01*
X153944661Y-80309189D01*
X153963635Y-80310538D01*
X153967022Y-80307599D01*
X153971494Y-80307282D01*
X153983958Y-80292910D01*
X153998326Y-80280449D01*
X153998643Y-80275978D01*
X154001582Y-80272591D01*
X154136478Y-79867902D01*
X154441804Y-79867902D01*
X154444714Y-79874929D01*
X154443595Y-79882454D01*
X154486452Y-80053883D01*
X154490511Y-80059361D01*
X154490995Y-80066164D01*
X154533852Y-80151878D01*
X154541313Y-80158349D01*
X154545092Y-80167471D01*
X154630806Y-80253186D01*
X154643707Y-80258529D01*
X154654259Y-80267681D01*
X154782831Y-80310538D01*
X154792680Y-80309837D01*
X154801804Y-80313617D01*
X154887518Y-80313617D01*
X154896641Y-80309837D01*
X154906492Y-80310538D01*
X155035064Y-80267681D01*
X155045614Y-80258530D01*
X155058517Y-80253186D01*
X155101374Y-80210328D01*
X155118947Y-80167901D01*
X155101373Y-80125475D01*
X155058947Y-80107902D01*
X155016520Y-80125476D01*
X154983678Y-80158318D01*
X154877781Y-80193617D01*
X154811541Y-80193617D01*
X154705643Y-80158317D01*
X154636830Y-80089505D01*
X154601272Y-80018389D01*
X154585079Y-79953617D01*
X155341804Y-79953617D01*
X155344714Y-79960644D01*
X155343595Y-79968169D01*
X155386452Y-80139597D01*
X155396060Y-80152564D01*
X155402235Y-80167471D01*
X155487949Y-80253186D01*
X155497072Y-80256964D01*
X155503543Y-80264426D01*
X155589257Y-80307283D01*
X155603187Y-80308272D01*
X155616090Y-80313617D01*
X155787518Y-80313617D01*
X155800420Y-80308272D01*
X155814351Y-80307283D01*
X155900066Y-80264426D01*
X155906536Y-80256964D01*
X155914619Y-80253617D01*
X156327518Y-80253617D01*
X156345092Y-80296043D01*
X156387518Y-80313617D01*
X156429944Y-80296043D01*
X156447518Y-80253617D01*
X156447518Y-79624070D01*
X156633147Y-80021847D01*
X156648283Y-80035708D01*
X156662145Y-80050845D01*
X156664947Y-80050968D01*
X156667014Y-80052861D01*
X156687518Y-80051959D01*
X156708022Y-80052861D01*
X156710088Y-80050968D01*
X156712891Y-80050845D01*
X156726754Y-80035706D01*
X156741889Y-80021847D01*
X156927518Y-79624070D01*
X156927518Y-80253617D01*
X156945092Y-80296043D01*
X156987518Y-80313617D01*
X157029944Y-80296043D01*
X157047518Y-80253617D01*
X157047518Y-79353617D01*
X157043436Y-79343764D01*
X157043905Y-79333112D01*
X157034993Y-79323380D01*
X157029944Y-79311191D01*
X157020093Y-79307110D01*
X157012891Y-79299246D01*
X156999708Y-79298666D01*
X156987518Y-79293617D01*
X156977665Y-79297698D01*
X156967014Y-79297230D01*
X156957283Y-79306141D01*
X156945092Y-79311191D01*
X156941011Y-79321042D01*
X156933147Y-79328244D01*
X156687518Y-79854591D01*
X156441889Y-79328244D01*
X156434024Y-79321042D01*
X156429944Y-79311191D01*
X156417752Y-79306141D01*
X156408022Y-79297230D01*
X156397370Y-79297698D01*
X156387518Y-79293617D01*
X156375327Y-79298666D01*
X156362145Y-79299246D01*
X156354943Y-79307110D01*
X156345092Y-79311191D01*
X156340042Y-79323382D01*
X156331131Y-79333113D01*
X156331599Y-79343764D01*
X156327518Y-79353617D01*
X156327518Y-80253617D01*
X155914619Y-80253617D01*
X155915660Y-80253186D01*
X156001374Y-80167471D01*
X156007549Y-80152561D01*
X156017156Y-80139597D01*
X156060013Y-79968169D01*
X156058893Y-79960644D01*
X156061804Y-79953617D01*
X156061804Y-79653617D01*
X156058893Y-79646589D01*
X156060013Y-79639065D01*
X156017156Y-79467636D01*
X156007546Y-79454667D01*
X156001373Y-79439762D01*
X155915659Y-79354048D01*
X155906537Y-79350269D01*
X155900066Y-79342808D01*
X155814351Y-79299951D01*
X155800420Y-79298961D01*
X155787518Y-79293617D01*
X155616090Y-79293617D01*
X155603187Y-79298961D01*
X155589257Y-79299951D01*
X155503543Y-79342808D01*
X155497073Y-79350268D01*
X155487950Y-79354047D01*
X155402235Y-79439761D01*
X155396060Y-79454669D01*
X155386452Y-79467636D01*
X155343595Y-79639065D01*
X155344714Y-79646589D01*
X155341804Y-79653617D01*
X155341804Y-79953617D01*
X154585079Y-79953617D01*
X154561804Y-79860514D01*
X154561804Y-79746718D01*
X154601272Y-79588843D01*
X154636830Y-79517729D01*
X154705642Y-79448916D01*
X154811541Y-79413617D01*
X154877781Y-79413617D01*
X154983680Y-79448916D01*
X155016521Y-79481757D01*
X155058947Y-79499330D01*
X155101373Y-79481757D01*
X155118946Y-79439331D01*
X155101373Y-79396905D01*
X155058516Y-79354048D01*
X155045615Y-79348704D01*
X155035064Y-79339553D01*
X154906492Y-79296696D01*
X154896641Y-79297396D01*
X154887518Y-79293617D01*
X154801804Y-79293617D01*
X154792680Y-79297396D01*
X154782831Y-79296696D01*
X154654259Y-79339553D01*
X154643709Y-79348702D01*
X154630807Y-79354047D01*
X154545092Y-79439761D01*
X154541313Y-79448884D01*
X154533852Y-79455355D01*
X154490995Y-79541069D01*
X154490511Y-79547871D01*
X154486452Y-79553350D01*
X154443595Y-79724779D01*
X154444714Y-79732303D01*
X154441804Y-79739331D01*
X154441804Y-79867902D01*
X154136478Y-79867902D01*
X154301582Y-79372591D01*
X154298326Y-79326785D01*
X154263635Y-79296696D01*
X154217828Y-79299952D01*
X154187740Y-79334644D01*
X153944661Y-80063880D01*
X153701582Y-79334643D01*
X153671494Y-79299952D01*
X153625687Y-79296696D01*
X153590996Y-79326784D01*
X153587740Y-79372591D01*
X153459169Y-79372591D01*
X153459169Y-79165046D01*
X157176089Y-79165046D01*
X157176089Y-80442188D01*
G37*
D14*
X120126393Y-75522435D02*
X120164489Y-75484340D01*
X120164489Y-75484340D02*
X120240679Y-75446245D01*
X120240679Y-75446245D02*
X120431155Y-75446245D01*
X120431155Y-75446245D02*
X120507346Y-75484340D01*
X120507346Y-75484340D02*
X120545441Y-75522435D01*
X120545441Y-75522435D02*
X120583536Y-75598626D01*
X120583536Y-75598626D02*
X120583536Y-75674816D01*
X120583536Y-75674816D02*
X120545441Y-75789102D01*
X120545441Y-75789102D02*
X120088298Y-76246245D01*
X120088298Y-76246245D02*
X120583536Y-76246245D01*
X121345441Y-76246245D02*
X120888298Y-76246245D01*
X121116870Y-76246245D02*
X121116870Y-75446245D01*
X121116870Y-75446245D02*
X121040679Y-75560530D01*
X121040679Y-75560530D02*
X120964489Y-75636721D01*
X120964489Y-75636721D02*
X120888298Y-75674816D01*
X121726394Y-75636721D02*
X121726394Y-76246245D01*
X121764489Y-75674816D02*
X121764489Y-76208150D01*
X121802584Y-75674816D02*
X121802584Y-76208150D01*
X121840680Y-75712911D02*
X121840680Y-76170054D01*
X121878775Y-75712911D02*
X121878775Y-76170054D01*
X121916870Y-75751007D02*
X121916870Y-76131959D01*
X121954965Y-75751007D02*
X121954965Y-76131959D01*
X121993061Y-75789102D02*
X121993061Y-76093864D01*
X122031156Y-75827197D02*
X122031156Y-76055769D01*
X122069251Y-75827197D02*
X122069251Y-76055769D01*
X122107346Y-75865292D02*
X122107346Y-76017673D01*
X122145442Y-75865292D02*
X122145442Y-76017673D01*
X122183537Y-75941483D02*
X122221632Y-75941483D01*
X122183537Y-75903388D02*
X122183537Y-75979578D01*
X121688299Y-75636721D02*
X122259727Y-75941483D01*
X122259727Y-75941483D02*
X121688299Y-76246245D01*
X122297823Y-75941483D02*
X121688299Y-76284340D01*
X121688299Y-76284340D02*
X121688299Y-75598626D01*
X121688299Y-75598626D02*
X122297823Y-75941483D01*
G36*
X122315977Y-77816781D02*
G01*
X120717762Y-77816781D01*
X120717762Y-77646245D01*
X120832048Y-77646245D01*
X120848523Y-77686020D01*
X120888298Y-77702495D01*
X121383536Y-77702495D01*
X121423311Y-77686020D01*
X121439786Y-77646245D01*
X121593953Y-77646245D01*
X121610428Y-77686020D01*
X121650203Y-77702495D01*
X122145441Y-77702495D01*
X122185216Y-77686020D01*
X122201691Y-77646245D01*
X122185216Y-77606470D01*
X122145441Y-77589995D01*
X121786003Y-77589995D01*
X122147121Y-77228877D01*
X122152131Y-77216780D01*
X122160709Y-77206890D01*
X122198805Y-77092604D01*
X122198148Y-77083368D01*
X122201691Y-77074816D01*
X122201691Y-76998626D01*
X122196681Y-76986530D01*
X122195753Y-76973471D01*
X122157658Y-76897279D01*
X122150662Y-76891211D01*
X122147120Y-76882660D01*
X122109026Y-76844565D01*
X122100473Y-76841022D01*
X122094407Y-76834028D01*
X122018216Y-76795933D01*
X122005154Y-76795004D01*
X121993060Y-76789995D01*
X121802584Y-76789995D01*
X121790489Y-76795004D01*
X121777428Y-76795933D01*
X121701238Y-76834028D01*
X121695171Y-76841023D01*
X121686620Y-76844565D01*
X121648524Y-76882660D01*
X121632048Y-76922434D01*
X121648523Y-76962209D01*
X121688297Y-76978685D01*
X121728072Y-76962210D01*
X121759711Y-76930571D01*
X121815864Y-76902495D01*
X121979780Y-76902495D01*
X122035930Y-76930569D01*
X122061115Y-76955753D01*
X122089191Y-77011905D01*
X122089191Y-77065689D01*
X122058182Y-77158715D01*
X121610428Y-77606470D01*
X121593953Y-77646245D01*
X121439786Y-77646245D01*
X121423311Y-77606470D01*
X121383536Y-77589995D01*
X121024098Y-77589995D01*
X121385216Y-77228877D01*
X121390226Y-77216780D01*
X121398804Y-77206890D01*
X121436900Y-77092604D01*
X121436243Y-77083368D01*
X121439786Y-77074816D01*
X121439786Y-76998626D01*
X121434776Y-76986530D01*
X121433848Y-76973471D01*
X121395753Y-76897279D01*
X121388757Y-76891211D01*
X121385215Y-76882660D01*
X121347121Y-76844565D01*
X121338568Y-76841022D01*
X121332502Y-76834028D01*
X121256311Y-76795933D01*
X121243249Y-76795004D01*
X121231155Y-76789995D01*
X121040679Y-76789995D01*
X121028584Y-76795004D01*
X121015523Y-76795933D01*
X120939333Y-76834028D01*
X120933266Y-76841023D01*
X120924715Y-76844565D01*
X120886619Y-76882660D01*
X120870143Y-76922434D01*
X120886618Y-76962209D01*
X120926392Y-76978685D01*
X120966167Y-76962210D01*
X120997806Y-76930571D01*
X121053959Y-76902495D01*
X121217875Y-76902495D01*
X121274025Y-76930569D01*
X121299210Y-76955753D01*
X121327286Y-77011905D01*
X121327286Y-77065689D01*
X121296277Y-77158715D01*
X120848523Y-77606470D01*
X120832048Y-77646245D01*
X120717762Y-77646245D01*
X120717762Y-76675709D01*
X122315977Y-76675709D01*
X122315977Y-77816781D01*
G37*
D16*
G36*
X137795744Y-57436765D02*
G01*
X137891924Y-57532946D01*
X137922883Y-57625821D01*
X137922883Y-57682293D01*
X137891924Y-57775168D01*
X137634228Y-58032864D01*
X137295827Y-57694463D01*
X137553524Y-57436766D01*
X137646398Y-57405808D01*
X137702871Y-57405808D01*
X137795744Y-57436765D01*
G37*
G36*
X138871666Y-58058118D02*
G01*
X136462451Y-60467333D01*
X135265419Y-59270302D01*
X135284830Y-59250891D01*
X135541478Y-59250891D01*
X135545950Y-59301998D01*
X135560890Y-59323335D01*
X136247794Y-60010238D01*
X136251858Y-60012133D01*
X136254205Y-60015953D01*
X136277110Y-60028356D01*
X136398328Y-60068762D01*
X136399962Y-60068717D01*
X136422045Y-60072611D01*
X136502857Y-60072611D01*
X136504395Y-60072050D01*
X136526574Y-60068762D01*
X136647792Y-60028356D01*
X136651302Y-60025569D01*
X136655771Y-60025179D01*
X136677108Y-60010238D01*
X136838733Y-59848614D01*
X136840628Y-59844549D01*
X136844448Y-59842203D01*
X136856851Y-59819298D01*
X136897257Y-59698080D01*
X136897212Y-59696445D01*
X136901106Y-59674363D01*
X136901106Y-59593550D01*
X136900545Y-59592011D01*
X136897257Y-59569833D01*
X136856851Y-59448615D01*
X136854064Y-59445104D01*
X136853674Y-59440636D01*
X136838733Y-59419299D01*
X136151829Y-58732395D01*
X136105332Y-58710714D01*
X136055778Y-58723991D01*
X136026351Y-58766017D01*
X136030823Y-58817124D01*
X136045763Y-58838461D01*
X136720148Y-59512846D01*
X136751106Y-59605720D01*
X136751106Y-59662193D01*
X136720148Y-59755066D01*
X136583561Y-59891652D01*
X136490687Y-59922611D01*
X136434215Y-59922611D01*
X136341340Y-59891652D01*
X135666956Y-59217269D01*
X135620459Y-59195588D01*
X135570905Y-59208865D01*
X135541478Y-59250891D01*
X135284830Y-59250891D01*
X136173765Y-58361956D01*
X136430412Y-58361956D01*
X136434884Y-58413063D01*
X136449824Y-58434400D01*
X137298352Y-59282928D01*
X137316009Y-59291161D01*
X137331974Y-59302340D01*
X137338717Y-59301749D01*
X137344849Y-59304609D01*
X137363668Y-59299566D01*
X137383081Y-59297868D01*
X137391183Y-59292194D01*
X137394403Y-59291332D01*
X137396314Y-59288601D01*
X137404418Y-59282928D01*
X137808479Y-58878867D01*
X137830161Y-58832370D01*
X137816883Y-58782815D01*
X137774858Y-58753389D01*
X137723750Y-58757860D01*
X137702413Y-58772801D01*
X137351385Y-59123829D01*
X136555890Y-58328334D01*
X136509393Y-58306653D01*
X136459839Y-58319930D01*
X136430412Y-58361956D01*
X136173765Y-58361956D01*
X136847794Y-57687927D01*
X137115047Y-57687927D01*
X137120089Y-57706746D01*
X137121788Y-57726159D01*
X137127461Y-57734261D01*
X137128324Y-57737481D01*
X137131054Y-57739392D01*
X137136728Y-57747496D01*
X137985256Y-58596024D01*
X138031753Y-58617705D01*
X138081307Y-58604428D01*
X138110734Y-58562403D01*
X138106263Y-58511295D01*
X138091322Y-58489958D01*
X137740294Y-58138930D01*
X138010510Y-57868715D01*
X138012404Y-57864651D01*
X138016226Y-57862304D01*
X138028628Y-57839399D01*
X138069034Y-57718180D01*
X138068989Y-57716545D01*
X138072883Y-57694463D01*
X138072883Y-57613651D01*
X138072322Y-57612112D01*
X138069034Y-57589934D01*
X138028628Y-57468716D01*
X138025841Y-57465205D01*
X138025451Y-57460737D01*
X138010510Y-57439400D01*
X137889292Y-57318181D01*
X137885227Y-57316285D01*
X137882881Y-57312466D01*
X137859976Y-57300063D01*
X137738758Y-57259657D01*
X137737123Y-57259701D01*
X137715041Y-57255808D01*
X137634228Y-57255808D01*
X137632689Y-57256368D01*
X137610511Y-57259657D01*
X137489293Y-57300063D01*
X137485780Y-57302850D01*
X137481314Y-57303241D01*
X137459977Y-57318181D01*
X137136728Y-57641430D01*
X137128494Y-57659087D01*
X137117316Y-57675052D01*
X137117906Y-57681795D01*
X137115047Y-57687927D01*
X136847794Y-57687927D01*
X137674635Y-56861086D01*
X138871666Y-58058118D01*
G37*
D12*
X130349833Y-51437047D02*
X129986178Y-51800702D01*
X130168005Y-51618874D02*
X129531609Y-50982478D01*
X129531609Y-50982478D02*
X129561914Y-51134001D01*
X129561914Y-51134001D02*
X129561914Y-51255219D01*
X129561914Y-51255219D02*
X129531609Y-51346133D01*
X129925569Y-50588518D02*
X130349833Y-50164254D01*
X130349833Y-50164254D02*
X130713488Y-51073392D01*
X132949833Y-51287047D02*
X132586178Y-51650702D01*
X132768005Y-51468874D02*
X132131609Y-50832478D01*
X132131609Y-50832478D02*
X132161914Y-50984001D01*
X132161914Y-50984001D02*
X132161914Y-51105219D01*
X132161914Y-51105219D02*
X132131609Y-51196133D01*
X132858919Y-50105168D02*
X132737701Y-50226386D01*
X132737701Y-50226386D02*
X132707396Y-50317300D01*
X132707396Y-50317300D02*
X132707396Y-50377909D01*
X132707396Y-50377909D02*
X132737701Y-50529432D01*
X132737701Y-50529432D02*
X132828615Y-50680955D01*
X132828615Y-50680955D02*
X133071051Y-50923392D01*
X133071051Y-50923392D02*
X133161965Y-50953696D01*
X133161965Y-50953696D02*
X133222574Y-50953696D01*
X133222574Y-50953696D02*
X133313488Y-50923392D01*
X133313488Y-50923392D02*
X133434706Y-50802173D01*
X133434706Y-50802173D02*
X133465011Y-50711260D01*
X133465011Y-50711260D02*
X133465011Y-50650651D01*
X133465011Y-50650651D02*
X133434706Y-50559737D01*
X133434706Y-50559737D02*
X133283183Y-50408214D01*
X133283183Y-50408214D02*
X133192270Y-50377909D01*
X133192270Y-50377909D02*
X133131660Y-50377909D01*
X133131660Y-50377909D02*
X133040747Y-50408214D01*
X133040747Y-50408214D02*
X132919528Y-50529432D01*
X132919528Y-50529432D02*
X132889224Y-50620346D01*
X132889224Y-50620346D02*
X132889224Y-50680955D01*
X132889224Y-50680955D02*
X132919528Y-50771869D01*
D16*
X120396303Y-65868104D02*
X120358207Y-65906200D01*
X120358207Y-65906200D02*
X120243922Y-65944295D01*
X120243922Y-65944295D02*
X120167731Y-65944295D01*
X120167731Y-65944295D02*
X120053445Y-65906200D01*
X120053445Y-65906200D02*
X119977255Y-65830009D01*
X119977255Y-65830009D02*
X119939160Y-65753819D01*
X119939160Y-65753819D02*
X119901064Y-65601438D01*
X119901064Y-65601438D02*
X119901064Y-65487152D01*
X119901064Y-65487152D02*
X119939160Y-65334771D01*
X119939160Y-65334771D02*
X119977255Y-65258580D01*
X119977255Y-65258580D02*
X120053445Y-65182390D01*
X120053445Y-65182390D02*
X120167731Y-65144295D01*
X120167731Y-65144295D02*
X120243922Y-65144295D01*
X120243922Y-65144295D02*
X120358207Y-65182390D01*
X120358207Y-65182390D02*
X120396303Y-65220485D01*
X120739160Y-65944295D02*
X120739160Y-65144295D01*
X120739160Y-65525247D02*
X121196303Y-65525247D01*
X121196303Y-65944295D02*
X121196303Y-65144295D01*
X121539159Y-65715723D02*
X121920112Y-65715723D01*
X121462969Y-65944295D02*
X121729636Y-65144295D01*
X121729636Y-65144295D02*
X121996302Y-65944295D01*
X122720112Y-65944295D02*
X122453445Y-65563342D01*
X122262969Y-65944295D02*
X122262969Y-65144295D01*
X122262969Y-65144295D02*
X122567731Y-65144295D01*
X122567731Y-65144295D02*
X122643921Y-65182390D01*
X122643921Y-65182390D02*
X122682016Y-65220485D01*
X122682016Y-65220485D02*
X122720112Y-65296676D01*
X122720112Y-65296676D02*
X122720112Y-65410961D01*
X122720112Y-65410961D02*
X122682016Y-65487152D01*
X122682016Y-65487152D02*
X122643921Y-65525247D01*
X122643921Y-65525247D02*
X122567731Y-65563342D01*
X122567731Y-65563342D02*
X122262969Y-65563342D01*
X123482016Y-65182390D02*
X123405826Y-65144295D01*
X123405826Y-65144295D02*
X123291540Y-65144295D01*
X123291540Y-65144295D02*
X123177254Y-65182390D01*
X123177254Y-65182390D02*
X123101064Y-65258580D01*
X123101064Y-65258580D02*
X123062969Y-65334771D01*
X123062969Y-65334771D02*
X123024873Y-65487152D01*
X123024873Y-65487152D02*
X123024873Y-65601438D01*
X123024873Y-65601438D02*
X123062969Y-65753819D01*
X123062969Y-65753819D02*
X123101064Y-65830009D01*
X123101064Y-65830009D02*
X123177254Y-65906200D01*
X123177254Y-65906200D02*
X123291540Y-65944295D01*
X123291540Y-65944295D02*
X123367731Y-65944295D01*
X123367731Y-65944295D02*
X123482016Y-65906200D01*
X123482016Y-65906200D02*
X123520112Y-65868104D01*
X123520112Y-65868104D02*
X123520112Y-65601438D01*
X123520112Y-65601438D02*
X123367731Y-65601438D01*
X123862969Y-65525247D02*
X124129635Y-65525247D01*
X124243921Y-65944295D02*
X123862969Y-65944295D01*
X123862969Y-65944295D02*
X123862969Y-65144295D01*
X123862969Y-65144295D02*
X124243921Y-65144295D01*
D13*
G36*
X159917518Y-80442188D02*
G01*
X157229169Y-80442188D01*
X157229169Y-79372591D01*
X157357740Y-79372591D01*
X157657740Y-80272590D01*
X157660678Y-80275977D01*
X157660996Y-80280450D01*
X157675366Y-80292913D01*
X157687828Y-80307282D01*
X157692299Y-80307599D01*
X157695687Y-80310538D01*
X157714661Y-80309189D01*
X157733635Y-80310538D01*
X157737022Y-80307599D01*
X157741494Y-80307282D01*
X157753958Y-80292910D01*
X157768326Y-80280449D01*
X157768643Y-80275978D01*
X157771582Y-80272591D01*
X157906478Y-79867902D01*
X158211804Y-79867902D01*
X158214714Y-79874929D01*
X158213595Y-79882454D01*
X158256452Y-80053883D01*
X158260511Y-80059361D01*
X158260995Y-80066164D01*
X158303852Y-80151878D01*
X158311313Y-80158349D01*
X158315092Y-80167471D01*
X158400806Y-80253186D01*
X158413707Y-80258529D01*
X158424259Y-80267681D01*
X158552831Y-80310538D01*
X158562680Y-80309837D01*
X158571804Y-80313617D01*
X158657518Y-80313617D01*
X158666641Y-80309837D01*
X158676492Y-80310538D01*
X158805064Y-80267681D01*
X158815614Y-80258530D01*
X158827476Y-80253617D01*
X159154661Y-80253617D01*
X159172235Y-80296043D01*
X159214661Y-80313617D01*
X159257087Y-80296043D01*
X159274661Y-80253617D01*
X159274661Y-79842188D01*
X159668947Y-79842188D01*
X159668947Y-80253617D01*
X159686521Y-80296043D01*
X159728947Y-80313617D01*
X159771373Y-80296043D01*
X159788947Y-80253617D01*
X159788947Y-79353617D01*
X159771373Y-79311191D01*
X159728947Y-79293617D01*
X159686521Y-79311191D01*
X159668947Y-79353617D01*
X159668947Y-79722188D01*
X159274661Y-79722188D01*
X159274661Y-79353617D01*
X159257087Y-79311191D01*
X159214661Y-79293617D01*
X159172235Y-79311191D01*
X159154661Y-79353617D01*
X159154661Y-80253617D01*
X158827476Y-80253617D01*
X158828517Y-80253186D01*
X158871374Y-80210328D01*
X158888947Y-80167901D01*
X158888947Y-79867902D01*
X158871373Y-79825476D01*
X158828947Y-79807902D01*
X158657518Y-79807902D01*
X158615092Y-79825476D01*
X158597518Y-79867902D01*
X158615092Y-79910328D01*
X158657518Y-79927902D01*
X158768947Y-79927902D01*
X158768947Y-80143049D01*
X158753678Y-80158318D01*
X158647781Y-80193617D01*
X158581541Y-80193617D01*
X158475643Y-80158317D01*
X158406830Y-80089505D01*
X158371272Y-80018389D01*
X158331804Y-79860514D01*
X158331804Y-79746718D01*
X158371272Y-79588843D01*
X158406830Y-79517729D01*
X158475642Y-79448916D01*
X158581541Y-79413617D01*
X158686211Y-79413617D01*
X158759257Y-79450140D01*
X158805063Y-79453394D01*
X158839755Y-79423307D01*
X158843010Y-79377500D01*
X158812923Y-79342808D01*
X158727209Y-79299951D01*
X158713278Y-79298961D01*
X158700376Y-79293617D01*
X158571804Y-79293617D01*
X158562680Y-79297396D01*
X158552831Y-79296696D01*
X158424259Y-79339553D01*
X158413709Y-79348702D01*
X158400807Y-79354047D01*
X158315092Y-79439761D01*
X158311313Y-79448884D01*
X158303852Y-79455355D01*
X158260995Y-79541069D01*
X158260511Y-79547871D01*
X158256452Y-79553350D01*
X158213595Y-79724779D01*
X158214714Y-79732303D01*
X158211804Y-79739331D01*
X158211804Y-79867902D01*
X157906478Y-79867902D01*
X158071582Y-79372591D01*
X158068326Y-79326785D01*
X158033635Y-79296696D01*
X157987828Y-79299952D01*
X157957740Y-79334644D01*
X157714661Y-80063880D01*
X157471582Y-79334643D01*
X157441494Y-79299952D01*
X157395687Y-79296696D01*
X157360996Y-79326784D01*
X157357740Y-79372591D01*
X157229169Y-79372591D01*
X157229169Y-79165046D01*
X159917518Y-79165046D01*
X159917518Y-80442188D01*
G37*
D12*
G36*
X121750456Y-67961130D02*
G01*
X121786600Y-67997275D01*
X121825312Y-68074698D01*
X121825312Y-68193948D01*
X121786600Y-68271371D01*
X121750456Y-68307516D01*
X121673033Y-68346228D01*
X121353884Y-68346228D01*
X121353884Y-67922419D01*
X121673033Y-67922419D01*
X121750456Y-67961130D01*
G37*
G36*
X123877693Y-69065276D02*
G01*
X121111027Y-69065276D01*
X121111027Y-68872419D01*
X121253884Y-68872419D01*
X121268529Y-68907774D01*
X121303884Y-68922419D01*
X121339239Y-68907774D01*
X121353884Y-68872419D01*
X121353884Y-68446228D01*
X121515946Y-68446228D01*
X121834350Y-68901092D01*
X121866623Y-68921658D01*
X121903985Y-68913381D01*
X121924551Y-68881108D01*
X121916274Y-68843746D01*
X121638012Y-68446228D01*
X121684836Y-68446228D01*
X121695588Y-68441774D01*
X121707197Y-68440949D01*
X121802434Y-68393331D01*
X121807826Y-68387113D01*
X121815429Y-68383964D01*
X121863048Y-68336346D01*
X121866197Y-68328742D01*
X121872414Y-68323351D01*
X121920033Y-68228113D01*
X121920858Y-68216504D01*
X121925312Y-68205752D01*
X121925312Y-68158133D01*
X122206265Y-68158133D01*
X122210718Y-68168885D01*
X122211544Y-68180494D01*
X122259162Y-68275731D01*
X122265379Y-68281123D01*
X122268529Y-68288726D01*
X122316147Y-68336345D01*
X122323750Y-68339494D01*
X122329142Y-68345711D01*
X122424380Y-68393330D01*
X122430048Y-68393732D01*
X122434614Y-68397116D01*
X122619766Y-68443404D01*
X122702837Y-68484939D01*
X122738981Y-68521084D01*
X122777693Y-68598507D01*
X122777693Y-68670138D01*
X122738981Y-68747561D01*
X122702835Y-68783708D01*
X122625414Y-68822419D01*
X122407235Y-68822419D01*
X122272076Y-68777366D01*
X122233905Y-68780079D01*
X122208831Y-68808989D01*
X122211544Y-68847160D01*
X122240454Y-68872234D01*
X122383310Y-68919853D01*
X122391518Y-68919269D01*
X122399122Y-68922419D01*
X122637217Y-68922419D01*
X122647969Y-68917965D01*
X122659578Y-68917140D01*
X122754815Y-68869522D01*
X122760206Y-68863304D01*
X122767811Y-68860155D01*
X122815430Y-68812535D01*
X122818578Y-68804932D01*
X122824795Y-68799541D01*
X122872414Y-68704303D01*
X122873239Y-68692694D01*
X122877693Y-68681942D01*
X122877693Y-68586704D01*
X122873239Y-68575951D01*
X122872414Y-68564343D01*
X122824795Y-68469105D01*
X122818578Y-68463713D01*
X122815429Y-68456110D01*
X122767810Y-68408492D01*
X122760207Y-68405342D01*
X122754815Y-68399125D01*
X122659578Y-68351507D01*
X122653909Y-68351104D01*
X122649344Y-68347721D01*
X122464193Y-68301433D01*
X122381121Y-68259897D01*
X122344976Y-68223753D01*
X122306265Y-68146330D01*
X122306265Y-68074698D01*
X122344976Y-67997274D01*
X122381121Y-67961130D01*
X122458545Y-67922419D01*
X122676723Y-67922419D01*
X122811881Y-67967472D01*
X122850053Y-67964759D01*
X122875127Y-67935849D01*
X122872413Y-67897677D01*
X122843504Y-67872604D01*
X122842949Y-67872419D01*
X123063408Y-67872419D01*
X123078053Y-67907774D01*
X123113408Y-67922419D01*
X123349122Y-67922419D01*
X123349122Y-68872419D01*
X123363767Y-68907774D01*
X123399122Y-68922419D01*
X123434477Y-68907774D01*
X123449122Y-68872419D01*
X123449122Y-67922419D01*
X123684836Y-67922419D01*
X123720191Y-67907774D01*
X123734836Y-67872419D01*
X123720191Y-67837064D01*
X123684836Y-67822419D01*
X123113408Y-67822419D01*
X123078053Y-67837064D01*
X123063408Y-67872419D01*
X122842949Y-67872419D01*
X122700647Y-67824985D01*
X122692439Y-67825568D01*
X122684836Y-67822419D01*
X122446741Y-67822419D01*
X122435988Y-67826872D01*
X122424380Y-67827698D01*
X122329142Y-67875317D01*
X122323750Y-67881533D01*
X122316147Y-67884683D01*
X122268529Y-67932302D01*
X122265379Y-67939904D01*
X122259162Y-67945297D01*
X122211544Y-68040534D01*
X122210718Y-68052142D01*
X122206265Y-68062895D01*
X122206265Y-68158133D01*
X121925312Y-68158133D01*
X121925312Y-68062895D01*
X121920858Y-68052142D01*
X121920033Y-68040534D01*
X121872414Y-67945296D01*
X121866197Y-67939904D01*
X121863048Y-67932301D01*
X121815429Y-67884683D01*
X121807826Y-67881533D01*
X121802434Y-67875316D01*
X121707197Y-67827698D01*
X121695588Y-67826872D01*
X121684836Y-67822419D01*
X121303884Y-67822419D01*
X121268529Y-67837064D01*
X121253884Y-67872419D01*
X121253884Y-68872419D01*
X121111027Y-68872419D01*
X121111027Y-67679562D01*
X123877693Y-67679562D01*
X123877693Y-69065276D01*
G37*
X142688740Y-53134076D02*
X143038926Y-52783890D01*
X143038926Y-52783890D02*
X143065864Y-53187951D01*
X143065864Y-53187951D02*
X143146676Y-53107139D01*
X143146676Y-53107139D02*
X143227488Y-53080201D01*
X143227488Y-53080201D02*
X143281363Y-53080201D01*
X143281363Y-53080201D02*
X143362175Y-53107139D01*
X143362175Y-53107139D02*
X143496862Y-53241826D01*
X143496862Y-53241826D02*
X143523799Y-53322638D01*
X143523799Y-53322638D02*
X143523799Y-53376513D01*
X143523799Y-53376513D02*
X143496862Y-53457325D01*
X143496862Y-53457325D02*
X143335238Y-53618949D01*
X143335238Y-53618949D02*
X143254425Y-53645887D01*
X143254425Y-53645887D02*
X143200551Y-53645887D01*
X143200551Y-52622265D02*
X143954798Y-52999389D01*
X143954798Y-52999389D02*
X143577674Y-52245142D01*
X143712361Y-52110455D02*
X144062547Y-51760269D01*
X144062547Y-51760269D02*
X144089485Y-52164330D01*
X144089485Y-52164330D02*
X144170297Y-52083517D01*
X144170297Y-52083517D02*
X144251109Y-52056580D01*
X144251109Y-52056580D02*
X144304984Y-52056580D01*
X144304984Y-52056580D02*
X144385796Y-52083517D01*
X144385796Y-52083517D02*
X144520483Y-52218204D01*
X144520483Y-52218204D02*
X144547421Y-52299017D01*
X144547421Y-52299017D02*
X144547421Y-52352891D01*
X144547421Y-52352891D02*
X144520483Y-52433704D01*
X144520483Y-52433704D02*
X144358859Y-52595328D01*
X144358859Y-52595328D02*
X144278047Y-52622265D01*
X144278047Y-52622265D02*
X144224172Y-52622265D01*
D18*
G36*
X134915530Y-58498137D02*
G01*
X130443868Y-58498137D01*
X130443868Y-58039297D01*
X130701011Y-58039297D01*
X130711396Y-58124823D01*
X130760337Y-58195726D01*
X130836622Y-58235764D01*
X130879699Y-58240994D01*
X131908270Y-58240994D01*
X131991920Y-58220376D01*
X132056407Y-58163246D01*
X132086958Y-58082691D01*
X132076573Y-57997165D01*
X132068968Y-57986148D01*
X132414313Y-57986148D01*
X132417600Y-57996697D01*
X132416933Y-58007727D01*
X132430274Y-58037369D01*
X132439944Y-58068401D01*
X132450040Y-58081288D01*
X132452292Y-58086290D01*
X132456610Y-58089672D01*
X132466706Y-58102559D01*
X132552420Y-58188273D01*
X132566520Y-58196796D01*
X132577447Y-58209131D01*
X132592854Y-58214974D01*
X132605825Y-58225136D01*
X132616691Y-58227127D01*
X132626148Y-58232844D01*
X132642595Y-58233838D01*
X132658002Y-58239682D01*
X132674359Y-58237695D01*
X132690567Y-58240666D01*
X132701115Y-58237378D01*
X132712145Y-58238046D01*
X132727171Y-58231283D01*
X132743528Y-58229297D01*
X132757087Y-58219937D01*
X132772820Y-58215035D01*
X132785705Y-58204939D01*
X132790708Y-58202688D01*
X132794091Y-58198369D01*
X132806978Y-58188273D01*
X132892692Y-58102559D01*
X132909503Y-58074749D01*
X132929555Y-58049156D01*
X132931361Y-58039297D01*
X133272440Y-58039297D01*
X133282825Y-58124823D01*
X133331766Y-58195726D01*
X133408051Y-58235764D01*
X133451128Y-58240994D01*
X134479699Y-58240994D01*
X134563349Y-58220376D01*
X134627836Y-58163246D01*
X134658387Y-58082691D01*
X134648002Y-57997165D01*
X134599061Y-57926262D01*
X134522776Y-57886224D01*
X134479699Y-57880994D01*
X134145413Y-57880994D01*
X134145413Y-56260994D01*
X134137295Y-56228058D01*
X134132663Y-56194456D01*
X134127089Y-56186654D01*
X134124795Y-56177344D01*
X134102301Y-56151953D01*
X134082584Y-56124352D01*
X134074022Y-56120033D01*
X134067665Y-56112857D01*
X134035947Y-56100827D01*
X134005661Y-56085551D01*
X133996074Y-56085705D01*
X133987110Y-56082306D01*
X133953435Y-56086394D01*
X133919519Y-56086943D01*
X133911102Y-56091535D01*
X133901584Y-56092691D01*
X133873670Y-56111958D01*
X133843890Y-56128207D01*
X133834840Y-56138761D01*
X133830681Y-56141632D01*
X133828002Y-56146735D01*
X133815644Y-56161148D01*
X133654104Y-56403458D01*
X133515930Y-56541631D01*
X133370629Y-56614283D01*
X133305031Y-56670135D01*
X133272902Y-56750073D01*
X133281602Y-56835786D01*
X133329139Y-56907638D01*
X133404622Y-56949168D01*
X133490759Y-56950863D01*
X133531627Y-56936277D01*
X133703055Y-56850561D01*
X133708653Y-56845794D01*
X133715677Y-56843606D01*
X133749835Y-56816845D01*
X133785413Y-56781267D01*
X133785413Y-57880994D01*
X133451128Y-57880994D01*
X133367478Y-57901612D01*
X133302991Y-57958742D01*
X133272440Y-58039297D01*
X132931361Y-58039297D01*
X132931546Y-58038286D01*
X132937263Y-58028831D01*
X132939225Y-57996386D01*
X132945085Y-57964413D01*
X132941797Y-57953863D01*
X132942465Y-57942834D01*
X132929125Y-57913193D01*
X132919455Y-57882160D01*
X132909358Y-57869272D01*
X132907107Y-57864271D01*
X132902788Y-57860888D01*
X132892693Y-57848002D01*
X132806979Y-57762287D01*
X132792878Y-57753762D01*
X132781951Y-57741428D01*
X132766546Y-57735585D01*
X132753573Y-57725422D01*
X132742703Y-57723430D01*
X132733251Y-57717716D01*
X132716805Y-57716720D01*
X132701396Y-57710877D01*
X132685038Y-57712863D01*
X132668830Y-57709893D01*
X132658281Y-57713180D01*
X132647254Y-57712513D01*
X132632227Y-57719275D01*
X132615870Y-57721262D01*
X132602311Y-57730621D01*
X132586577Y-57735524D01*
X132573689Y-57745620D01*
X132568690Y-57747871D01*
X132565308Y-57752187D01*
X132552419Y-57762286D01*
X132466705Y-57848002D01*
X132449889Y-57875818D01*
X132429843Y-57901406D01*
X132427851Y-57912274D01*
X132422135Y-57921730D01*
X132420172Y-57954175D01*
X132414313Y-57986148D01*
X132068968Y-57986148D01*
X132027632Y-57926262D01*
X131951347Y-57886224D01*
X131908270Y-57880994D01*
X131573984Y-57880994D01*
X131573984Y-56260994D01*
X131565866Y-56228058D01*
X131561234Y-56194456D01*
X131555660Y-56186654D01*
X131553366Y-56177344D01*
X131530872Y-56151953D01*
X131511155Y-56124352D01*
X131502593Y-56120033D01*
X131496236Y-56112857D01*
X131464518Y-56100827D01*
X131434232Y-56085551D01*
X131424645Y-56085705D01*
X131415681Y-56082306D01*
X131382006Y-56086394D01*
X131348090Y-56086943D01*
X131339673Y-56091535D01*
X131330155Y-56092691D01*
X131302241Y-56111958D01*
X131272461Y-56128207D01*
X131263411Y-56138761D01*
X131259252Y-56141632D01*
X131256573Y-56146735D01*
X131244215Y-56161148D01*
X131082675Y-56403458D01*
X130944501Y-56541631D01*
X130799200Y-56614283D01*
X130733602Y-56670135D01*
X130701473Y-56750073D01*
X130710173Y-56835786D01*
X130757710Y-56907638D01*
X130833193Y-56949168D01*
X130919330Y-56950863D01*
X130960198Y-56936277D01*
X131131626Y-56850561D01*
X131137224Y-56845794D01*
X131144248Y-56843606D01*
X131178406Y-56816845D01*
X131213984Y-56781267D01*
X131213984Y-57880994D01*
X130879699Y-57880994D01*
X130796049Y-57901612D01*
X130731562Y-57958742D01*
X130701011Y-58039297D01*
X130443868Y-58039297D01*
X130443868Y-55825163D01*
X134915530Y-55825163D01*
X134915530Y-58498137D01*
G37*
D16*
X153926667Y-54912295D02*
X153660000Y-54531342D01*
X153469524Y-54912295D02*
X153469524Y-54112295D01*
X153469524Y-54112295D02*
X153774286Y-54112295D01*
X153774286Y-54112295D02*
X153850476Y-54150390D01*
X153850476Y-54150390D02*
X153888571Y-54188485D01*
X153888571Y-54188485D02*
X153926667Y-54264676D01*
X153926667Y-54264676D02*
X153926667Y-54378961D01*
X153926667Y-54378961D02*
X153888571Y-54455152D01*
X153888571Y-54455152D02*
X153850476Y-54493247D01*
X153850476Y-54493247D02*
X153774286Y-54531342D01*
X153774286Y-54531342D02*
X153469524Y-54531342D01*
X154193333Y-54112295D02*
X154726667Y-54112295D01*
X154726667Y-54112295D02*
X154383809Y-54912295D01*
X128709524Y-66262295D02*
X128709524Y-65462295D01*
X128709524Y-65462295D02*
X128900000Y-65462295D01*
X128900000Y-65462295D02*
X129014286Y-65500390D01*
X129014286Y-65500390D02*
X129090476Y-65576580D01*
X129090476Y-65576580D02*
X129128571Y-65652771D01*
X129128571Y-65652771D02*
X129166667Y-65805152D01*
X129166667Y-65805152D02*
X129166667Y-65919438D01*
X129166667Y-65919438D02*
X129128571Y-66071819D01*
X129128571Y-66071819D02*
X129090476Y-66148009D01*
X129090476Y-66148009D02*
X129014286Y-66224200D01*
X129014286Y-66224200D02*
X128900000Y-66262295D01*
X128900000Y-66262295D02*
X128709524Y-66262295D01*
X129890476Y-65462295D02*
X129509524Y-65462295D01*
X129509524Y-65462295D02*
X129471428Y-65843247D01*
X129471428Y-65843247D02*
X129509524Y-65805152D01*
X129509524Y-65805152D02*
X129585714Y-65767057D01*
X129585714Y-65767057D02*
X129776190Y-65767057D01*
X129776190Y-65767057D02*
X129852381Y-65805152D01*
X129852381Y-65805152D02*
X129890476Y-65843247D01*
X129890476Y-65843247D02*
X129928571Y-65919438D01*
X129928571Y-65919438D02*
X129928571Y-66109914D01*
X129928571Y-66109914D02*
X129890476Y-66186104D01*
X129890476Y-66186104D02*
X129852381Y-66224200D01*
X129852381Y-66224200D02*
X129776190Y-66262295D01*
X129776190Y-66262295D02*
X129585714Y-66262295D01*
X129585714Y-66262295D02*
X129509524Y-66224200D01*
X129509524Y-66224200D02*
X129471428Y-66186104D01*
X143076667Y-67252295D02*
X142810000Y-66871342D01*
X142619524Y-67252295D02*
X142619524Y-66452295D01*
X142619524Y-66452295D02*
X142924286Y-66452295D01*
X142924286Y-66452295D02*
X143000476Y-66490390D01*
X143000476Y-66490390D02*
X143038571Y-66528485D01*
X143038571Y-66528485D02*
X143076667Y-66604676D01*
X143076667Y-66604676D02*
X143076667Y-66718961D01*
X143076667Y-66718961D02*
X143038571Y-66795152D01*
X143038571Y-66795152D02*
X143000476Y-66833247D01*
X143000476Y-66833247D02*
X142924286Y-66871342D01*
X142924286Y-66871342D02*
X142619524Y-66871342D01*
X143381428Y-66528485D02*
X143419524Y-66490390D01*
X143419524Y-66490390D02*
X143495714Y-66452295D01*
X143495714Y-66452295D02*
X143686190Y-66452295D01*
X143686190Y-66452295D02*
X143762381Y-66490390D01*
X143762381Y-66490390D02*
X143800476Y-66528485D01*
X143800476Y-66528485D02*
X143838571Y-66604676D01*
X143838571Y-66604676D02*
X143838571Y-66680866D01*
X143838571Y-66680866D02*
X143800476Y-66795152D01*
X143800476Y-66795152D02*
X143343333Y-67252295D01*
X143343333Y-67252295D02*
X143838571Y-67252295D01*
X147956667Y-68266104D02*
X147918571Y-68304200D01*
X147918571Y-68304200D02*
X147804286Y-68342295D01*
X147804286Y-68342295D02*
X147728095Y-68342295D01*
X147728095Y-68342295D02*
X147613809Y-68304200D01*
X147613809Y-68304200D02*
X147537619Y-68228009D01*
X147537619Y-68228009D02*
X147499524Y-68151819D01*
X147499524Y-68151819D02*
X147461428Y-67999438D01*
X147461428Y-67999438D02*
X147461428Y-67885152D01*
X147461428Y-67885152D02*
X147499524Y-67732771D01*
X147499524Y-67732771D02*
X147537619Y-67656580D01*
X147537619Y-67656580D02*
X147613809Y-67580390D01*
X147613809Y-67580390D02*
X147728095Y-67542295D01*
X147728095Y-67542295D02*
X147804286Y-67542295D01*
X147804286Y-67542295D02*
X147918571Y-67580390D01*
X147918571Y-67580390D02*
X147956667Y-67618485D01*
X148718571Y-68342295D02*
X148261428Y-68342295D01*
X148490000Y-68342295D02*
X148490000Y-67542295D01*
X148490000Y-67542295D02*
X148413809Y-67656580D01*
X148413809Y-67656580D02*
X148337619Y-67732771D01*
X148337619Y-67732771D02*
X148261428Y-67770866D01*
X134178025Y-71576587D02*
X134178025Y-71630462D01*
X134178025Y-71630462D02*
X134124151Y-71738211D01*
X134124151Y-71738211D02*
X134070276Y-71792086D01*
X134070276Y-71792086D02*
X133962526Y-71845961D01*
X133962526Y-71845961D02*
X133854777Y-71845961D01*
X133854777Y-71845961D02*
X133773964Y-71819023D01*
X133773964Y-71819023D02*
X133639277Y-71738211D01*
X133639277Y-71738211D02*
X133558465Y-71657399D01*
X133558465Y-71657399D02*
X133477653Y-71522712D01*
X133477653Y-71522712D02*
X133450716Y-71441900D01*
X133450716Y-71441900D02*
X133450716Y-71334150D01*
X133450716Y-71334150D02*
X133504590Y-71226401D01*
X133504590Y-71226401D02*
X133558465Y-71172526D01*
X133558465Y-71172526D02*
X133666215Y-71118651D01*
X133666215Y-71118651D02*
X133720090Y-71118651D01*
X134178025Y-70552966D02*
X133908651Y-70822340D01*
X133908651Y-70822340D02*
X134151088Y-71118651D01*
X134151088Y-71118651D02*
X134151088Y-71064776D01*
X134151088Y-71064776D02*
X134178025Y-70983964D01*
X134178025Y-70983964D02*
X134312712Y-70849277D01*
X134312712Y-70849277D02*
X134393525Y-70822340D01*
X134393525Y-70822340D02*
X134447399Y-70822340D01*
X134447399Y-70822340D02*
X134528212Y-70849277D01*
X134528212Y-70849277D02*
X134662899Y-70983964D01*
X134662899Y-70983964D02*
X134689836Y-71064776D01*
X134689836Y-71064776D02*
X134689836Y-71118651D01*
X134689836Y-71118651D02*
X134662899Y-71199463D01*
X134662899Y-71199463D02*
X134528212Y-71334150D01*
X134528212Y-71334150D02*
X134447399Y-71361088D01*
X134447399Y-71361088D02*
X134393525Y-71361088D01*
X133969537Y-65971900D02*
X134050350Y-65513964D01*
X133646289Y-65648651D02*
X134211974Y-65082966D01*
X134211974Y-65082966D02*
X134427473Y-65298465D01*
X134427473Y-65298465D02*
X134454411Y-65379277D01*
X134454411Y-65379277D02*
X134454411Y-65433152D01*
X134454411Y-65433152D02*
X134427473Y-65513964D01*
X134427473Y-65513964D02*
X134346661Y-65594777D01*
X134346661Y-65594777D02*
X134265849Y-65621714D01*
X134265849Y-65621714D02*
X134211974Y-65621714D01*
X134211974Y-65621714D02*
X134131162Y-65594777D01*
X134131162Y-65594777D02*
X133915663Y-65379277D01*
X135020096Y-65891088D02*
X134912346Y-65783338D01*
X134912346Y-65783338D02*
X134831534Y-65756401D01*
X134831534Y-65756401D02*
X134777659Y-65756401D01*
X134777659Y-65756401D02*
X134642972Y-65783338D01*
X134642972Y-65783338D02*
X134508285Y-65864151D01*
X134508285Y-65864151D02*
X134292786Y-66079650D01*
X134292786Y-66079650D02*
X134265849Y-66160462D01*
X134265849Y-66160462D02*
X134265849Y-66214337D01*
X134265849Y-66214337D02*
X134292786Y-66295149D01*
X134292786Y-66295149D02*
X134400536Y-66402899D01*
X134400536Y-66402899D02*
X134481348Y-66429836D01*
X134481348Y-66429836D02*
X134535223Y-66429836D01*
X134535223Y-66429836D02*
X134616035Y-66402899D01*
X134616035Y-66402899D02*
X134750722Y-66268212D01*
X134750722Y-66268212D02*
X134777659Y-66187399D01*
X134777659Y-66187399D02*
X134777659Y-66133525D01*
X134777659Y-66133525D02*
X134750722Y-66052712D01*
X134750722Y-66052712D02*
X134642972Y-65944963D01*
X134642972Y-65944963D02*
X134562160Y-65918025D01*
X134562160Y-65918025D02*
X134508285Y-65918025D01*
X134508285Y-65918025D02*
X134427473Y-65944963D01*
X146159524Y-70112295D02*
X146159524Y-69312295D01*
X146159524Y-69312295D02*
X146350000Y-69312295D01*
X146350000Y-69312295D02*
X146464286Y-69350390D01*
X146464286Y-69350390D02*
X146540476Y-69426580D01*
X146540476Y-69426580D02*
X146578571Y-69502771D01*
X146578571Y-69502771D02*
X146616667Y-69655152D01*
X146616667Y-69655152D02*
X146616667Y-69769438D01*
X146616667Y-69769438D02*
X146578571Y-69921819D01*
X146578571Y-69921819D02*
X146540476Y-69998009D01*
X146540476Y-69998009D02*
X146464286Y-70074200D01*
X146464286Y-70074200D02*
X146350000Y-70112295D01*
X146350000Y-70112295D02*
X146159524Y-70112295D01*
X146921428Y-69388485D02*
X146959524Y-69350390D01*
X146959524Y-69350390D02*
X147035714Y-69312295D01*
X147035714Y-69312295D02*
X147226190Y-69312295D01*
X147226190Y-69312295D02*
X147302381Y-69350390D01*
X147302381Y-69350390D02*
X147340476Y-69388485D01*
X147340476Y-69388485D02*
X147378571Y-69464676D01*
X147378571Y-69464676D02*
X147378571Y-69540866D01*
X147378571Y-69540866D02*
X147340476Y-69655152D01*
X147340476Y-69655152D02*
X146883333Y-70112295D01*
X146883333Y-70112295D02*
X147378571Y-70112295D01*
X122616667Y-50086104D02*
X122578571Y-50124200D01*
X122578571Y-50124200D02*
X122464286Y-50162295D01*
X122464286Y-50162295D02*
X122388095Y-50162295D01*
X122388095Y-50162295D02*
X122273809Y-50124200D01*
X122273809Y-50124200D02*
X122197619Y-50048009D01*
X122197619Y-50048009D02*
X122159524Y-49971819D01*
X122159524Y-49971819D02*
X122121428Y-49819438D01*
X122121428Y-49819438D02*
X122121428Y-49705152D01*
X122121428Y-49705152D02*
X122159524Y-49552771D01*
X122159524Y-49552771D02*
X122197619Y-49476580D01*
X122197619Y-49476580D02*
X122273809Y-49400390D01*
X122273809Y-49400390D02*
X122388095Y-49362295D01*
X122388095Y-49362295D02*
X122464286Y-49362295D01*
X122464286Y-49362295D02*
X122578571Y-49400390D01*
X122578571Y-49400390D02*
X122616667Y-49438485D01*
X122883333Y-49362295D02*
X123378571Y-49362295D01*
X123378571Y-49362295D02*
X123111905Y-49667057D01*
X123111905Y-49667057D02*
X123226190Y-49667057D01*
X123226190Y-49667057D02*
X123302381Y-49705152D01*
X123302381Y-49705152D02*
X123340476Y-49743247D01*
X123340476Y-49743247D02*
X123378571Y-49819438D01*
X123378571Y-49819438D02*
X123378571Y-50009914D01*
X123378571Y-50009914D02*
X123340476Y-50086104D01*
X123340476Y-50086104D02*
X123302381Y-50124200D01*
X123302381Y-50124200D02*
X123226190Y-50162295D01*
X123226190Y-50162295D02*
X122997619Y-50162295D01*
X122997619Y-50162295D02*
X122921428Y-50124200D01*
X122921428Y-50124200D02*
X122883333Y-50086104D01*
D19*
X123890476Y-57112815D02*
X123890476Y-57760434D01*
X123890476Y-57760434D02*
X123928571Y-57836624D01*
X123928571Y-57836624D02*
X123966666Y-57874720D01*
X123966666Y-57874720D02*
X124042857Y-57912815D01*
X124042857Y-57912815D02*
X124195238Y-57912815D01*
X124195238Y-57912815D02*
X124271428Y-57874720D01*
X124271428Y-57874720D02*
X124309523Y-57836624D01*
X124309523Y-57836624D02*
X124347619Y-57760434D01*
X124347619Y-57760434D02*
X124347619Y-57112815D01*
X124652380Y-57112815D02*
X125147618Y-57112815D01*
X125147618Y-57112815D02*
X124880952Y-57417577D01*
X124880952Y-57417577D02*
X124995237Y-57417577D01*
X124995237Y-57417577D02*
X125071428Y-57455672D01*
X125071428Y-57455672D02*
X125109523Y-57493767D01*
X125109523Y-57493767D02*
X125147618Y-57569958D01*
X125147618Y-57569958D02*
X125147618Y-57760434D01*
X125147618Y-57760434D02*
X125109523Y-57836624D01*
X125109523Y-57836624D02*
X125071428Y-57874720D01*
X125071428Y-57874720D02*
X124995237Y-57912815D01*
X124995237Y-57912815D02*
X124766666Y-57912815D01*
X124766666Y-57912815D02*
X124690475Y-57874720D01*
X124690475Y-57874720D02*
X124652380Y-57836624D01*
D16*
X125154819Y-58061099D02*
X125392914Y-58061099D01*
X125297676Y-58299194D02*
X125392914Y-58061099D01*
X125392914Y-58061099D02*
X125297676Y-57823004D01*
X125583390Y-58203956D02*
X125392914Y-58061099D01*
X125392914Y-58061099D02*
X125583390Y-57918242D01*
X124483333Y-49104819D02*
X124007143Y-49104819D01*
X124007143Y-49104819D02*
X124007143Y-48104819D01*
X124769048Y-48200057D02*
X124816667Y-48152438D01*
X124816667Y-48152438D02*
X124911905Y-48104819D01*
X124911905Y-48104819D02*
X125150000Y-48104819D01*
X125150000Y-48104819D02*
X125245238Y-48152438D01*
X125245238Y-48152438D02*
X125292857Y-48200057D01*
X125292857Y-48200057D02*
X125340476Y-48295295D01*
X125340476Y-48295295D02*
X125340476Y-48390533D01*
X125340476Y-48390533D02*
X125292857Y-48533390D01*
X125292857Y-48533390D02*
X124721429Y-49104819D01*
X124721429Y-49104819D02*
X125340476Y-49104819D01*
X121085714Y-51412295D02*
X120819047Y-51031342D01*
X120628571Y-51412295D02*
X120628571Y-50612295D01*
X120628571Y-50612295D02*
X120933333Y-50612295D01*
X120933333Y-50612295D02*
X121009523Y-50650390D01*
X121009523Y-50650390D02*
X121047618Y-50688485D01*
X121047618Y-50688485D02*
X121085714Y-50764676D01*
X121085714Y-50764676D02*
X121085714Y-50878961D01*
X121085714Y-50878961D02*
X121047618Y-50955152D01*
X121047618Y-50955152D02*
X121009523Y-50993247D01*
X121009523Y-50993247D02*
X120933333Y-51031342D01*
X120933333Y-51031342D02*
X120628571Y-51031342D01*
X121847618Y-51412295D02*
X121390475Y-51412295D01*
X121619047Y-51412295D02*
X121619047Y-50612295D01*
X121619047Y-50612295D02*
X121542856Y-50726580D01*
X121542856Y-50726580D02*
X121466666Y-50802771D01*
X121466666Y-50802771D02*
X121390475Y-50840866D01*
X122304761Y-50955152D02*
X122228571Y-50917057D01*
X122228571Y-50917057D02*
X122190476Y-50878961D01*
X122190476Y-50878961D02*
X122152380Y-50802771D01*
X122152380Y-50802771D02*
X122152380Y-50764676D01*
X122152380Y-50764676D02*
X122190476Y-50688485D01*
X122190476Y-50688485D02*
X122228571Y-50650390D01*
X122228571Y-50650390D02*
X122304761Y-50612295D01*
X122304761Y-50612295D02*
X122457142Y-50612295D01*
X122457142Y-50612295D02*
X122533333Y-50650390D01*
X122533333Y-50650390D02*
X122571428Y-50688485D01*
X122571428Y-50688485D02*
X122609523Y-50764676D01*
X122609523Y-50764676D02*
X122609523Y-50802771D01*
X122609523Y-50802771D02*
X122571428Y-50878961D01*
X122571428Y-50878961D02*
X122533333Y-50917057D01*
X122533333Y-50917057D02*
X122457142Y-50955152D01*
X122457142Y-50955152D02*
X122304761Y-50955152D01*
X122304761Y-50955152D02*
X122228571Y-50993247D01*
X122228571Y-50993247D02*
X122190476Y-51031342D01*
X122190476Y-51031342D02*
X122152380Y-51107533D01*
X122152380Y-51107533D02*
X122152380Y-51259914D01*
X122152380Y-51259914D02*
X122190476Y-51336104D01*
X122190476Y-51336104D02*
X122228571Y-51374200D01*
X122228571Y-51374200D02*
X122304761Y-51412295D01*
X122304761Y-51412295D02*
X122457142Y-51412295D01*
X122457142Y-51412295D02*
X122533333Y-51374200D01*
X122533333Y-51374200D02*
X122571428Y-51336104D01*
X122571428Y-51336104D02*
X122609523Y-51259914D01*
X122609523Y-51259914D02*
X122609523Y-51107533D01*
X122609523Y-51107533D02*
X122571428Y-51031342D01*
X122571428Y-51031342D02*
X122533333Y-50993247D01*
X122533333Y-50993247D02*
X122457142Y-50955152D01*
X151533333Y-52744819D02*
X151057143Y-52744819D01*
X151057143Y-52744819D02*
X151057143Y-51744819D01*
X151771429Y-51744819D02*
X152390476Y-51744819D01*
X152390476Y-51744819D02*
X152057143Y-52125771D01*
X152057143Y-52125771D02*
X152200000Y-52125771D01*
X152200000Y-52125771D02*
X152295238Y-52173390D01*
X152295238Y-52173390D02*
X152342857Y-52221009D01*
X152342857Y-52221009D02*
X152390476Y-52316247D01*
X152390476Y-52316247D02*
X152390476Y-52554342D01*
X152390476Y-52554342D02*
X152342857Y-52649580D01*
X152342857Y-52649580D02*
X152295238Y-52697200D01*
X152295238Y-52697200D02*
X152200000Y-52744819D01*
X152200000Y-52744819D02*
X151914286Y-52744819D01*
X151914286Y-52744819D02*
X151819048Y-52697200D01*
X151819048Y-52697200D02*
X151771429Y-52649580D01*
X148204819Y-52249999D02*
X148442914Y-52249999D01*
X148347676Y-52488094D02*
X148442914Y-52249999D01*
X148442914Y-52249999D02*
X148347676Y-52011904D01*
X148633390Y-52392856D02*
X148442914Y-52249999D01*
X148442914Y-52249999D02*
X148633390Y-52107142D01*
X155391667Y-71136104D02*
X155353571Y-71174200D01*
X155353571Y-71174200D02*
X155239286Y-71212295D01*
X155239286Y-71212295D02*
X155163095Y-71212295D01*
X155163095Y-71212295D02*
X155048809Y-71174200D01*
X155048809Y-71174200D02*
X154972619Y-71098009D01*
X154972619Y-71098009D02*
X154934524Y-71021819D01*
X154934524Y-71021819D02*
X154896428Y-70869438D01*
X154896428Y-70869438D02*
X154896428Y-70755152D01*
X154896428Y-70755152D02*
X154934524Y-70602771D01*
X154934524Y-70602771D02*
X154972619Y-70526580D01*
X154972619Y-70526580D02*
X155048809Y-70450390D01*
X155048809Y-70450390D02*
X155163095Y-70412295D01*
X155163095Y-70412295D02*
X155239286Y-70412295D01*
X155239286Y-70412295D02*
X155353571Y-70450390D01*
X155353571Y-70450390D02*
X155391667Y-70488485D01*
X155848809Y-70755152D02*
X155772619Y-70717057D01*
X155772619Y-70717057D02*
X155734524Y-70678961D01*
X155734524Y-70678961D02*
X155696428Y-70602771D01*
X155696428Y-70602771D02*
X155696428Y-70564676D01*
X155696428Y-70564676D02*
X155734524Y-70488485D01*
X155734524Y-70488485D02*
X155772619Y-70450390D01*
X155772619Y-70450390D02*
X155848809Y-70412295D01*
X155848809Y-70412295D02*
X156001190Y-70412295D01*
X156001190Y-70412295D02*
X156077381Y-70450390D01*
X156077381Y-70450390D02*
X156115476Y-70488485D01*
X156115476Y-70488485D02*
X156153571Y-70564676D01*
X156153571Y-70564676D02*
X156153571Y-70602771D01*
X156153571Y-70602771D02*
X156115476Y-70678961D01*
X156115476Y-70678961D02*
X156077381Y-70717057D01*
X156077381Y-70717057D02*
X156001190Y-70755152D01*
X156001190Y-70755152D02*
X155848809Y-70755152D01*
X155848809Y-70755152D02*
X155772619Y-70793247D01*
X155772619Y-70793247D02*
X155734524Y-70831342D01*
X155734524Y-70831342D02*
X155696428Y-70907533D01*
X155696428Y-70907533D02*
X155696428Y-71059914D01*
X155696428Y-71059914D02*
X155734524Y-71136104D01*
X155734524Y-71136104D02*
X155772619Y-71174200D01*
X155772619Y-71174200D02*
X155848809Y-71212295D01*
X155848809Y-71212295D02*
X156001190Y-71212295D01*
X156001190Y-71212295D02*
X156077381Y-71174200D01*
X156077381Y-71174200D02*
X156115476Y-71136104D01*
X156115476Y-71136104D02*
X156153571Y-71059914D01*
X156153571Y-71059914D02*
X156153571Y-70907533D01*
X156153571Y-70907533D02*
X156115476Y-70831342D01*
X156115476Y-70831342D02*
X156077381Y-70793247D01*
X156077381Y-70793247D02*
X156001190Y-70755152D01*
X119104819Y-56433333D02*
X119819104Y-56433333D01*
X119819104Y-56433333D02*
X119961961Y-56480952D01*
X119961961Y-56480952D02*
X120057200Y-56576190D01*
X120057200Y-56576190D02*
X120104819Y-56719047D01*
X120104819Y-56719047D02*
X120104819Y-56814285D01*
X119104819Y-56052380D02*
X119104819Y-55433333D01*
X119104819Y-55433333D02*
X119485771Y-55766666D01*
X119485771Y-55766666D02*
X119485771Y-55623809D01*
X119485771Y-55623809D02*
X119533390Y-55528571D01*
X119533390Y-55528571D02*
X119581009Y-55480952D01*
X119581009Y-55480952D02*
X119676247Y-55433333D01*
X119676247Y-55433333D02*
X119914342Y-55433333D01*
X119914342Y-55433333D02*
X120009580Y-55480952D01*
X120009580Y-55480952D02*
X120057200Y-55528571D01*
X120057200Y-55528571D02*
X120104819Y-55623809D01*
X120104819Y-55623809D02*
X120104819Y-55909523D01*
X120104819Y-55909523D02*
X120057200Y-56004761D01*
X120057200Y-56004761D02*
X120009580Y-56052380D01*
X141846666Y-71862295D02*
X141465714Y-71862295D01*
X141465714Y-71862295D02*
X141465714Y-71062295D01*
X142532380Y-71862295D02*
X142075237Y-71862295D01*
X142303809Y-71862295D02*
X142303809Y-71062295D01*
X142303809Y-71062295D02*
X142227618Y-71176580D01*
X142227618Y-71176580D02*
X142151428Y-71252771D01*
X142151428Y-71252771D02*
X142075237Y-71290866D01*
X140135714Y-58212295D02*
X139869047Y-57831342D01*
X139678571Y-58212295D02*
X139678571Y-57412295D01*
X139678571Y-57412295D02*
X139983333Y-57412295D01*
X139983333Y-57412295D02*
X140059523Y-57450390D01*
X140059523Y-57450390D02*
X140097618Y-57488485D01*
X140097618Y-57488485D02*
X140135714Y-57564676D01*
X140135714Y-57564676D02*
X140135714Y-57678961D01*
X140135714Y-57678961D02*
X140097618Y-57755152D01*
X140097618Y-57755152D02*
X140059523Y-57793247D01*
X140059523Y-57793247D02*
X139983333Y-57831342D01*
X139983333Y-57831342D02*
X139678571Y-57831342D01*
X140897618Y-58212295D02*
X140440475Y-58212295D01*
X140669047Y-58212295D02*
X140669047Y-57412295D01*
X140669047Y-57412295D02*
X140592856Y-57526580D01*
X140592856Y-57526580D02*
X140516666Y-57602771D01*
X140516666Y-57602771D02*
X140440475Y-57640866D01*
X141621428Y-57412295D02*
X141240476Y-57412295D01*
X141240476Y-57412295D02*
X141202380Y-57793247D01*
X141202380Y-57793247D02*
X141240476Y-57755152D01*
X141240476Y-57755152D02*
X141316666Y-57717057D01*
X141316666Y-57717057D02*
X141507142Y-57717057D01*
X141507142Y-57717057D02*
X141583333Y-57755152D01*
X141583333Y-57755152D02*
X141621428Y-57793247D01*
X141621428Y-57793247D02*
X141659523Y-57869438D01*
X141659523Y-57869438D02*
X141659523Y-58059914D01*
X141659523Y-58059914D02*
X141621428Y-58136104D01*
X141621428Y-58136104D02*
X141583333Y-58174200D01*
X141583333Y-58174200D02*
X141507142Y-58212295D01*
X141507142Y-58212295D02*
X141316666Y-58212295D01*
X141316666Y-58212295D02*
X141240476Y-58174200D01*
X141240476Y-58174200D02*
X141202380Y-58136104D01*
X137735714Y-74086104D02*
X137697618Y-74124200D01*
X137697618Y-74124200D02*
X137583333Y-74162295D01*
X137583333Y-74162295D02*
X137507142Y-74162295D01*
X137507142Y-74162295D02*
X137392856Y-74124200D01*
X137392856Y-74124200D02*
X137316666Y-74048009D01*
X137316666Y-74048009D02*
X137278571Y-73971819D01*
X137278571Y-73971819D02*
X137240475Y-73819438D01*
X137240475Y-73819438D02*
X137240475Y-73705152D01*
X137240475Y-73705152D02*
X137278571Y-73552771D01*
X137278571Y-73552771D02*
X137316666Y-73476580D01*
X137316666Y-73476580D02*
X137392856Y-73400390D01*
X137392856Y-73400390D02*
X137507142Y-73362295D01*
X137507142Y-73362295D02*
X137583333Y-73362295D01*
X137583333Y-73362295D02*
X137697618Y-73400390D01*
X137697618Y-73400390D02*
X137735714Y-73438485D01*
X138040475Y-73438485D02*
X138078571Y-73400390D01*
X138078571Y-73400390D02*
X138154761Y-73362295D01*
X138154761Y-73362295D02*
X138345237Y-73362295D01*
X138345237Y-73362295D02*
X138421428Y-73400390D01*
X138421428Y-73400390D02*
X138459523Y-73438485D01*
X138459523Y-73438485D02*
X138497618Y-73514676D01*
X138497618Y-73514676D02*
X138497618Y-73590866D01*
X138497618Y-73590866D02*
X138459523Y-73705152D01*
X138459523Y-73705152D02*
X138002380Y-74162295D01*
X138002380Y-74162295D02*
X138497618Y-74162295D01*
X138992857Y-73362295D02*
X139069047Y-73362295D01*
X139069047Y-73362295D02*
X139145238Y-73400390D01*
X139145238Y-73400390D02*
X139183333Y-73438485D01*
X139183333Y-73438485D02*
X139221428Y-73514676D01*
X139221428Y-73514676D02*
X139259523Y-73667057D01*
X139259523Y-73667057D02*
X139259523Y-73857533D01*
X139259523Y-73857533D02*
X139221428Y-74009914D01*
X139221428Y-74009914D02*
X139183333Y-74086104D01*
X139183333Y-74086104D02*
X139145238Y-74124200D01*
X139145238Y-74124200D02*
X139069047Y-74162295D01*
X139069047Y-74162295D02*
X138992857Y-74162295D01*
X138992857Y-74162295D02*
X138916666Y-74124200D01*
X138916666Y-74124200D02*
X138878571Y-74086104D01*
X138878571Y-74086104D02*
X138840476Y-74009914D01*
X138840476Y-74009914D02*
X138802380Y-73857533D01*
X138802380Y-73857533D02*
X138802380Y-73667057D01*
X138802380Y-73667057D02*
X138840476Y-73514676D01*
X138840476Y-73514676D02*
X138878571Y-73438485D01*
X138878571Y-73438485D02*
X138916666Y-73400390D01*
X138916666Y-73400390D02*
X138992857Y-73362295D01*
X162335714Y-76386104D02*
X162297618Y-76424200D01*
X162297618Y-76424200D02*
X162183333Y-76462295D01*
X162183333Y-76462295D02*
X162107142Y-76462295D01*
X162107142Y-76462295D02*
X161992856Y-76424200D01*
X161992856Y-76424200D02*
X161916666Y-76348009D01*
X161916666Y-76348009D02*
X161878571Y-76271819D01*
X161878571Y-76271819D02*
X161840475Y-76119438D01*
X161840475Y-76119438D02*
X161840475Y-76005152D01*
X161840475Y-76005152D02*
X161878571Y-75852771D01*
X161878571Y-75852771D02*
X161916666Y-75776580D01*
X161916666Y-75776580D02*
X161992856Y-75700390D01*
X161992856Y-75700390D02*
X162107142Y-75662295D01*
X162107142Y-75662295D02*
X162183333Y-75662295D01*
X162183333Y-75662295D02*
X162297618Y-75700390D01*
X162297618Y-75700390D02*
X162335714Y-75738485D01*
X163097618Y-76462295D02*
X162640475Y-76462295D01*
X162869047Y-76462295D02*
X162869047Y-75662295D01*
X162869047Y-75662295D02*
X162792856Y-75776580D01*
X162792856Y-75776580D02*
X162716666Y-75852771D01*
X162716666Y-75852771D02*
X162640475Y-75890866D01*
X163859523Y-76462295D02*
X163402380Y-76462295D01*
X163630952Y-76462295D02*
X163630952Y-75662295D01*
X163630952Y-75662295D02*
X163554761Y-75776580D01*
X163554761Y-75776580D02*
X163478571Y-75852771D01*
X163478571Y-75852771D02*
X163402380Y-75890866D01*
X146560714Y-76536104D02*
X146522618Y-76574200D01*
X146522618Y-76574200D02*
X146408333Y-76612295D01*
X146408333Y-76612295D02*
X146332142Y-76612295D01*
X146332142Y-76612295D02*
X146217856Y-76574200D01*
X146217856Y-76574200D02*
X146141666Y-76498009D01*
X146141666Y-76498009D02*
X146103571Y-76421819D01*
X146103571Y-76421819D02*
X146065475Y-76269438D01*
X146065475Y-76269438D02*
X146065475Y-76155152D01*
X146065475Y-76155152D02*
X146103571Y-76002771D01*
X146103571Y-76002771D02*
X146141666Y-75926580D01*
X146141666Y-75926580D02*
X146217856Y-75850390D01*
X146217856Y-75850390D02*
X146332142Y-75812295D01*
X146332142Y-75812295D02*
X146408333Y-75812295D01*
X146408333Y-75812295D02*
X146522618Y-75850390D01*
X146522618Y-75850390D02*
X146560714Y-75888485D01*
X147322618Y-76612295D02*
X146865475Y-76612295D01*
X147094047Y-76612295D02*
X147094047Y-75812295D01*
X147094047Y-75812295D02*
X147017856Y-75926580D01*
X147017856Y-75926580D02*
X146941666Y-76002771D01*
X146941666Y-76002771D02*
X146865475Y-76040866D01*
X148008333Y-75812295D02*
X147855952Y-75812295D01*
X147855952Y-75812295D02*
X147779761Y-75850390D01*
X147779761Y-75850390D02*
X147741666Y-75888485D01*
X147741666Y-75888485D02*
X147665476Y-76002771D01*
X147665476Y-76002771D02*
X147627380Y-76155152D01*
X147627380Y-76155152D02*
X147627380Y-76459914D01*
X147627380Y-76459914D02*
X147665476Y-76536104D01*
X147665476Y-76536104D02*
X147703571Y-76574200D01*
X147703571Y-76574200D02*
X147779761Y-76612295D01*
X147779761Y-76612295D02*
X147932142Y-76612295D01*
X147932142Y-76612295D02*
X148008333Y-76574200D01*
X148008333Y-76574200D02*
X148046428Y-76536104D01*
X148046428Y-76536104D02*
X148084523Y-76459914D01*
X148084523Y-76459914D02*
X148084523Y-76269438D01*
X148084523Y-76269438D02*
X148046428Y-76193247D01*
X148046428Y-76193247D02*
X148008333Y-76155152D01*
X148008333Y-76155152D02*
X147932142Y-76117057D01*
X147932142Y-76117057D02*
X147779761Y-76117057D01*
X147779761Y-76117057D02*
X147703571Y-76155152D01*
X147703571Y-76155152D02*
X147665476Y-76193247D01*
X147665476Y-76193247D02*
X147627380Y-76269438D01*
X136996104Y-71994285D02*
X137034200Y-72032381D01*
X137034200Y-72032381D02*
X137072295Y-72146666D01*
X137072295Y-72146666D02*
X137072295Y-72222857D01*
X137072295Y-72222857D02*
X137034200Y-72337143D01*
X137034200Y-72337143D02*
X136958009Y-72413333D01*
X136958009Y-72413333D02*
X136881819Y-72451428D01*
X136881819Y-72451428D02*
X136729438Y-72489524D01*
X136729438Y-72489524D02*
X136615152Y-72489524D01*
X136615152Y-72489524D02*
X136462771Y-72451428D01*
X136462771Y-72451428D02*
X136386580Y-72413333D01*
X136386580Y-72413333D02*
X136310390Y-72337143D01*
X136310390Y-72337143D02*
X136272295Y-72222857D01*
X136272295Y-72222857D02*
X136272295Y-72146666D01*
X136272295Y-72146666D02*
X136310390Y-72032381D01*
X136310390Y-72032381D02*
X136348485Y-71994285D01*
X137072295Y-71232381D02*
X137072295Y-71689524D01*
X137072295Y-71460952D02*
X136272295Y-71460952D01*
X136272295Y-71460952D02*
X136386580Y-71537143D01*
X136386580Y-71537143D02*
X136462771Y-71613333D01*
X136462771Y-71613333D02*
X136500866Y-71689524D01*
X136615152Y-70775238D02*
X136577057Y-70851428D01*
X136577057Y-70851428D02*
X136538961Y-70889523D01*
X136538961Y-70889523D02*
X136462771Y-70927619D01*
X136462771Y-70927619D02*
X136424676Y-70927619D01*
X136424676Y-70927619D02*
X136348485Y-70889523D01*
X136348485Y-70889523D02*
X136310390Y-70851428D01*
X136310390Y-70851428D02*
X136272295Y-70775238D01*
X136272295Y-70775238D02*
X136272295Y-70622857D01*
X136272295Y-70622857D02*
X136310390Y-70546666D01*
X136310390Y-70546666D02*
X136348485Y-70508571D01*
X136348485Y-70508571D02*
X136424676Y-70470476D01*
X136424676Y-70470476D02*
X136462771Y-70470476D01*
X136462771Y-70470476D02*
X136538961Y-70508571D01*
X136538961Y-70508571D02*
X136577057Y-70546666D01*
X136577057Y-70546666D02*
X136615152Y-70622857D01*
X136615152Y-70622857D02*
X136615152Y-70775238D01*
X136615152Y-70775238D02*
X136653247Y-70851428D01*
X136653247Y-70851428D02*
X136691342Y-70889523D01*
X136691342Y-70889523D02*
X136767533Y-70927619D01*
X136767533Y-70927619D02*
X136919914Y-70927619D01*
X136919914Y-70927619D02*
X136996104Y-70889523D01*
X136996104Y-70889523D02*
X137034200Y-70851428D01*
X137034200Y-70851428D02*
X137072295Y-70775238D01*
X137072295Y-70775238D02*
X137072295Y-70622857D01*
X137072295Y-70622857D02*
X137034200Y-70546666D01*
X137034200Y-70546666D02*
X136996104Y-70508571D01*
X136996104Y-70508571D02*
X136919914Y-70470476D01*
X136919914Y-70470476D02*
X136767533Y-70470476D01*
X136767533Y-70470476D02*
X136691342Y-70508571D01*
X136691342Y-70508571D02*
X136653247Y-70546666D01*
X136653247Y-70546666D02*
X136615152Y-70622857D01*
X149309524Y-76662295D02*
X149309524Y-75862295D01*
X149309524Y-75862295D02*
X149500000Y-75862295D01*
X149500000Y-75862295D02*
X149614286Y-75900390D01*
X149614286Y-75900390D02*
X149690476Y-75976580D01*
X149690476Y-75976580D02*
X149728571Y-76052771D01*
X149728571Y-76052771D02*
X149766667Y-76205152D01*
X149766667Y-76205152D02*
X149766667Y-76319438D01*
X149766667Y-76319438D02*
X149728571Y-76471819D01*
X149728571Y-76471819D02*
X149690476Y-76548009D01*
X149690476Y-76548009D02*
X149614286Y-76624200D01*
X149614286Y-76624200D02*
X149500000Y-76662295D01*
X149500000Y-76662295D02*
X149309524Y-76662295D01*
X150033333Y-75862295D02*
X150528571Y-75862295D01*
X150528571Y-75862295D02*
X150261905Y-76167057D01*
X150261905Y-76167057D02*
X150376190Y-76167057D01*
X150376190Y-76167057D02*
X150452381Y-76205152D01*
X150452381Y-76205152D02*
X150490476Y-76243247D01*
X150490476Y-76243247D02*
X150528571Y-76319438D01*
X150528571Y-76319438D02*
X150528571Y-76509914D01*
X150528571Y-76509914D02*
X150490476Y-76586104D01*
X150490476Y-76586104D02*
X150452381Y-76624200D01*
X150452381Y-76624200D02*
X150376190Y-76662295D01*
X150376190Y-76662295D02*
X150147619Y-76662295D01*
X150147619Y-76662295D02*
X150071428Y-76624200D01*
X150071428Y-76624200D02*
X150033333Y-76586104D01*
X146866667Y-59236104D02*
X146828571Y-59274200D01*
X146828571Y-59274200D02*
X146714286Y-59312295D01*
X146714286Y-59312295D02*
X146638095Y-59312295D01*
X146638095Y-59312295D02*
X146523809Y-59274200D01*
X146523809Y-59274200D02*
X146447619Y-59198009D01*
X146447619Y-59198009D02*
X146409524Y-59121819D01*
X146409524Y-59121819D02*
X146371428Y-58969438D01*
X146371428Y-58969438D02*
X146371428Y-58855152D01*
X146371428Y-58855152D02*
X146409524Y-58702771D01*
X146409524Y-58702771D02*
X146447619Y-58626580D01*
X146447619Y-58626580D02*
X146523809Y-58550390D01*
X146523809Y-58550390D02*
X146638095Y-58512295D01*
X146638095Y-58512295D02*
X146714286Y-58512295D01*
X146714286Y-58512295D02*
X146828571Y-58550390D01*
X146828571Y-58550390D02*
X146866667Y-58588485D01*
X147133333Y-58512295D02*
X147666667Y-58512295D01*
X147666667Y-58512295D02*
X147323809Y-59312295D01*
X154946667Y-68496104D02*
X154908571Y-68534200D01*
X154908571Y-68534200D02*
X154794286Y-68572295D01*
X154794286Y-68572295D02*
X154718095Y-68572295D01*
X154718095Y-68572295D02*
X154603809Y-68534200D01*
X154603809Y-68534200D02*
X154527619Y-68458009D01*
X154527619Y-68458009D02*
X154489524Y-68381819D01*
X154489524Y-68381819D02*
X154451428Y-68229438D01*
X154451428Y-68229438D02*
X154451428Y-68115152D01*
X154451428Y-68115152D02*
X154489524Y-67962771D01*
X154489524Y-67962771D02*
X154527619Y-67886580D01*
X154527619Y-67886580D02*
X154603809Y-67810390D01*
X154603809Y-67810390D02*
X154718095Y-67772295D01*
X154718095Y-67772295D02*
X154794286Y-67772295D01*
X154794286Y-67772295D02*
X154908571Y-67810390D01*
X154908571Y-67810390D02*
X154946667Y-67848485D01*
X155327619Y-68572295D02*
X155480000Y-68572295D01*
X155480000Y-68572295D02*
X155556190Y-68534200D01*
X155556190Y-68534200D02*
X155594286Y-68496104D01*
X155594286Y-68496104D02*
X155670476Y-68381819D01*
X155670476Y-68381819D02*
X155708571Y-68229438D01*
X155708571Y-68229438D02*
X155708571Y-67924676D01*
X155708571Y-67924676D02*
X155670476Y-67848485D01*
X155670476Y-67848485D02*
X155632381Y-67810390D01*
X155632381Y-67810390D02*
X155556190Y-67772295D01*
X155556190Y-67772295D02*
X155403809Y-67772295D01*
X155403809Y-67772295D02*
X155327619Y-67810390D01*
X155327619Y-67810390D02*
X155289524Y-67848485D01*
X155289524Y-67848485D02*
X155251428Y-67924676D01*
X155251428Y-67924676D02*
X155251428Y-68115152D01*
X155251428Y-68115152D02*
X155289524Y-68191342D01*
X155289524Y-68191342D02*
X155327619Y-68229438D01*
X155327619Y-68229438D02*
X155403809Y-68267533D01*
X155403809Y-68267533D02*
X155556190Y-68267533D01*
X155556190Y-68267533D02*
X155632381Y-68229438D01*
X155632381Y-68229438D02*
X155670476Y-68191342D01*
X155670476Y-68191342D02*
X155708571Y-68115152D01*
X131793081Y-68832079D02*
X131557379Y-70010590D01*
X132264485Y-69303483D02*
X131085974Y-69539185D01*
X132197142Y-70650353D02*
X131793081Y-70246292D01*
X131995111Y-70448323D02*
X132702218Y-69741216D01*
X132702218Y-69741216D02*
X132533859Y-69774888D01*
X132533859Y-69774888D02*
X132399172Y-69774888D01*
X132399172Y-69774888D02*
X132298157Y-69741216D01*
X127762295Y-60801785D02*
X127381342Y-61068452D01*
X127762295Y-61258928D02*
X126962295Y-61258928D01*
X126962295Y-61258928D02*
X126962295Y-60954166D01*
X126962295Y-60954166D02*
X127000390Y-60877976D01*
X127000390Y-60877976D02*
X127038485Y-60839881D01*
X127038485Y-60839881D02*
X127114676Y-60801785D01*
X127114676Y-60801785D02*
X127228961Y-60801785D01*
X127228961Y-60801785D02*
X127305152Y-60839881D01*
X127305152Y-60839881D02*
X127343247Y-60877976D01*
X127343247Y-60877976D02*
X127381342Y-60954166D01*
X127381342Y-60954166D02*
X127381342Y-61258928D01*
X127762295Y-60039881D02*
X127762295Y-60497024D01*
X127762295Y-60268452D02*
X126962295Y-60268452D01*
X126962295Y-60268452D02*
X127076580Y-60344643D01*
X127076580Y-60344643D02*
X127152771Y-60420833D01*
X127152771Y-60420833D02*
X127190866Y-60497024D01*
X127038485Y-59735119D02*
X127000390Y-59697023D01*
X127000390Y-59697023D02*
X126962295Y-59620833D01*
X126962295Y-59620833D02*
X126962295Y-59430357D01*
X126962295Y-59430357D02*
X127000390Y-59354166D01*
X127000390Y-59354166D02*
X127038485Y-59316071D01*
X127038485Y-59316071D02*
X127114676Y-59277976D01*
X127114676Y-59277976D02*
X127190866Y-59277976D01*
X127190866Y-59277976D02*
X127305152Y-59316071D01*
X127305152Y-59316071D02*
X127762295Y-59773214D01*
X127762295Y-59773214D02*
X127762295Y-59277976D01*
X131850000Y-75017342D02*
X131850000Y-75874485D01*
X131850000Y-75874485D02*
X131792857Y-76045914D01*
X131792857Y-76045914D02*
X131678571Y-76160200D01*
X131678571Y-76160200D02*
X131507143Y-76217342D01*
X131507143Y-76217342D02*
X131392857Y-76217342D01*
X133050000Y-76217342D02*
X132364286Y-76217342D01*
X132707143Y-76217342D02*
X132707143Y-75017342D01*
X132707143Y-75017342D02*
X132592857Y-75188771D01*
X132592857Y-75188771D02*
X132478572Y-75303057D01*
X132478572Y-75303057D02*
X132364286Y-75360200D01*
D12*
X141038704Y-72354285D02*
X141076800Y-72392381D01*
X141076800Y-72392381D02*
X141114895Y-72506666D01*
X141114895Y-72506666D02*
X141114895Y-72582857D01*
X141114895Y-72582857D02*
X141076800Y-72697143D01*
X141076800Y-72697143D02*
X141000609Y-72773333D01*
X141000609Y-72773333D02*
X140924419Y-72811428D01*
X140924419Y-72811428D02*
X140772038Y-72849524D01*
X140772038Y-72849524D02*
X140657752Y-72849524D01*
X140657752Y-72849524D02*
X140505371Y-72811428D01*
X140505371Y-72811428D02*
X140429180Y-72773333D01*
X140429180Y-72773333D02*
X140352990Y-72697143D01*
X140352990Y-72697143D02*
X140314895Y-72582857D01*
X140314895Y-72582857D02*
X140314895Y-72506666D01*
X140314895Y-72506666D02*
X140352990Y-72392381D01*
X140352990Y-72392381D02*
X140391085Y-72354285D01*
X141114895Y-71592381D02*
X141114895Y-72049524D01*
X141114895Y-71820952D02*
X140314895Y-71820952D01*
X140314895Y-71820952D02*
X140429180Y-71897143D01*
X140429180Y-71897143D02*
X140505371Y-71973333D01*
X140505371Y-71973333D02*
X140543466Y-72049524D01*
X141114895Y-71211428D02*
X141114895Y-71059047D01*
X141114895Y-71059047D02*
X141076800Y-70982857D01*
X141076800Y-70982857D02*
X141038704Y-70944761D01*
X141038704Y-70944761D02*
X140924419Y-70868571D01*
X140924419Y-70868571D02*
X140772038Y-70830476D01*
X140772038Y-70830476D02*
X140467276Y-70830476D01*
X140467276Y-70830476D02*
X140391085Y-70868571D01*
X140391085Y-70868571D02*
X140352990Y-70906666D01*
X140352990Y-70906666D02*
X140314895Y-70982857D01*
X140314895Y-70982857D02*
X140314895Y-71135238D01*
X140314895Y-71135238D02*
X140352990Y-71211428D01*
X140352990Y-71211428D02*
X140391085Y-71249523D01*
X140391085Y-71249523D02*
X140467276Y-71287619D01*
X140467276Y-71287619D02*
X140657752Y-71287619D01*
X140657752Y-71287619D02*
X140733942Y-71249523D01*
X140733942Y-71249523D02*
X140772038Y-71211428D01*
X140772038Y-71211428D02*
X140810133Y-71135238D01*
X140810133Y-71135238D02*
X140810133Y-70982857D01*
X140810133Y-70982857D02*
X140772038Y-70906666D01*
X140772038Y-70906666D02*
X140733942Y-70868571D01*
X140733942Y-70868571D02*
X140657752Y-70830476D01*
D20*
X139711461Y-78556190D02*
X139711461Y-77951428D01*
X140074318Y-78677142D02*
X138804318Y-78253809D01*
X138804318Y-78253809D02*
X140074318Y-77830475D01*
X140074318Y-77407143D02*
X138804318Y-77407143D01*
X138804318Y-77407143D02*
X140074318Y-76681428D01*
X140074318Y-76681428D02*
X138804318Y-76681428D01*
X138804318Y-76258095D02*
X138804318Y-75532381D01*
X140074318Y-75895238D02*
X138804318Y-75895238D01*
X140074318Y-74443809D02*
X140074318Y-75169524D01*
X140074318Y-74806667D02*
X138804318Y-74806667D01*
X138804318Y-74806667D02*
X138985746Y-74927619D01*
X138985746Y-74927619D02*
X139106699Y-75048571D01*
X139106699Y-75048571D02*
X139167175Y-75169524D01*
D16*
X136773809Y-55028628D02*
X136773809Y-55504819D01*
X136440476Y-54504819D02*
X136773809Y-55028628D01*
X136773809Y-55028628D02*
X137107142Y-54504819D01*
X137964285Y-55504819D02*
X137392857Y-55504819D01*
X137678571Y-55504819D02*
X137678571Y-54504819D01*
X137678571Y-54504819D02*
X137583333Y-54647676D01*
X137583333Y-54647676D02*
X137488095Y-54742914D01*
X137488095Y-54742914D02*
X137392857Y-54790533D01*
X131097781Y-66016343D02*
X131097781Y-66070218D01*
X131097781Y-66070218D02*
X131043907Y-66177967D01*
X131043907Y-66177967D02*
X130990032Y-66231842D01*
X130990032Y-66231842D02*
X130882282Y-66285717D01*
X130882282Y-66285717D02*
X130774533Y-66285717D01*
X130774533Y-66285717D02*
X130693720Y-66258779D01*
X130693720Y-66258779D02*
X130559033Y-66177967D01*
X130559033Y-66177967D02*
X130478221Y-66097155D01*
X130478221Y-66097155D02*
X130397409Y-65962468D01*
X130397409Y-65962468D02*
X130370472Y-65881656D01*
X130370472Y-65881656D02*
X130370472Y-65773906D01*
X130370472Y-65773906D02*
X130424346Y-65666157D01*
X130424346Y-65666157D02*
X130478221Y-65612282D01*
X130478221Y-65612282D02*
X130585971Y-65558407D01*
X130585971Y-65558407D02*
X130639846Y-65558407D01*
X131259406Y-65208221D02*
X131636530Y-65585344D01*
X130909220Y-65127409D02*
X131178594Y-65666157D01*
X131178594Y-65666157D02*
X131528780Y-65315970D01*
X143385714Y-61162295D02*
X143119047Y-60781342D01*
X142928571Y-61162295D02*
X142928571Y-60362295D01*
X142928571Y-60362295D02*
X143233333Y-60362295D01*
X143233333Y-60362295D02*
X143309523Y-60400390D01*
X143309523Y-60400390D02*
X143347618Y-60438485D01*
X143347618Y-60438485D02*
X143385714Y-60514676D01*
X143385714Y-60514676D02*
X143385714Y-60628961D01*
X143385714Y-60628961D02*
X143347618Y-60705152D01*
X143347618Y-60705152D02*
X143309523Y-60743247D01*
X143309523Y-60743247D02*
X143233333Y-60781342D01*
X143233333Y-60781342D02*
X142928571Y-60781342D01*
X144147618Y-61162295D02*
X143690475Y-61162295D01*
X143919047Y-61162295D02*
X143919047Y-60362295D01*
X143919047Y-60362295D02*
X143842856Y-60476580D01*
X143842856Y-60476580D02*
X143766666Y-60552771D01*
X143766666Y-60552771D02*
X143690475Y-60590866D01*
X144833333Y-60628961D02*
X144833333Y-61162295D01*
X144642857Y-60324200D02*
X144452380Y-60895628D01*
X144452380Y-60895628D02*
X144947619Y-60895628D01*
X159854819Y-64058333D02*
X160569104Y-64058333D01*
X160569104Y-64058333D02*
X160711961Y-64105952D01*
X160711961Y-64105952D02*
X160807200Y-64201190D01*
X160807200Y-64201190D02*
X160854819Y-64344047D01*
X160854819Y-64344047D02*
X160854819Y-64439285D01*
X159950057Y-63629761D02*
X159902438Y-63582142D01*
X159902438Y-63582142D02*
X159854819Y-63486904D01*
X159854819Y-63486904D02*
X159854819Y-63248809D01*
X159854819Y-63248809D02*
X159902438Y-63153571D01*
X159902438Y-63153571D02*
X159950057Y-63105952D01*
X159950057Y-63105952D02*
X160045295Y-63058333D01*
X160045295Y-63058333D02*
X160140533Y-63058333D01*
X160140533Y-63058333D02*
X160283390Y-63105952D01*
X160283390Y-63105952D02*
X160854819Y-63677380D01*
X160854819Y-63677380D02*
X160854819Y-63058333D01*
X160691667Y-51887295D02*
X160425000Y-51506342D01*
X160234524Y-51887295D02*
X160234524Y-51087295D01*
X160234524Y-51087295D02*
X160539286Y-51087295D01*
X160539286Y-51087295D02*
X160615476Y-51125390D01*
X160615476Y-51125390D02*
X160653571Y-51163485D01*
X160653571Y-51163485D02*
X160691667Y-51239676D01*
X160691667Y-51239676D02*
X160691667Y-51353961D01*
X160691667Y-51353961D02*
X160653571Y-51430152D01*
X160653571Y-51430152D02*
X160615476Y-51468247D01*
X160615476Y-51468247D02*
X160539286Y-51506342D01*
X160539286Y-51506342D02*
X160234524Y-51506342D01*
X161148809Y-51430152D02*
X161072619Y-51392057D01*
X161072619Y-51392057D02*
X161034524Y-51353961D01*
X161034524Y-51353961D02*
X160996428Y-51277771D01*
X160996428Y-51277771D02*
X160996428Y-51239676D01*
X160996428Y-51239676D02*
X161034524Y-51163485D01*
X161034524Y-51163485D02*
X161072619Y-51125390D01*
X161072619Y-51125390D02*
X161148809Y-51087295D01*
X161148809Y-51087295D02*
X161301190Y-51087295D01*
X161301190Y-51087295D02*
X161377381Y-51125390D01*
X161377381Y-51125390D02*
X161415476Y-51163485D01*
X161415476Y-51163485D02*
X161453571Y-51239676D01*
X161453571Y-51239676D02*
X161453571Y-51277771D01*
X161453571Y-51277771D02*
X161415476Y-51353961D01*
X161415476Y-51353961D02*
X161377381Y-51392057D01*
X161377381Y-51392057D02*
X161301190Y-51430152D01*
X161301190Y-51430152D02*
X161148809Y-51430152D01*
X161148809Y-51430152D02*
X161072619Y-51468247D01*
X161072619Y-51468247D02*
X161034524Y-51506342D01*
X161034524Y-51506342D02*
X160996428Y-51582533D01*
X160996428Y-51582533D02*
X160996428Y-51734914D01*
X160996428Y-51734914D02*
X161034524Y-51811104D01*
X161034524Y-51811104D02*
X161072619Y-51849200D01*
X161072619Y-51849200D02*
X161148809Y-51887295D01*
X161148809Y-51887295D02*
X161301190Y-51887295D01*
X161301190Y-51887295D02*
X161377381Y-51849200D01*
X161377381Y-51849200D02*
X161415476Y-51811104D01*
X161415476Y-51811104D02*
X161453571Y-51734914D01*
X161453571Y-51734914D02*
X161453571Y-51582533D01*
X161453571Y-51582533D02*
X161415476Y-51506342D01*
X161415476Y-51506342D02*
X161377381Y-51468247D01*
X161377381Y-51468247D02*
X161301190Y-51430152D01*
D19*
G36*
X125881904Y-53697101D02*
G01*
X124256190Y-53697101D01*
X124256190Y-53360434D01*
X124370476Y-53360434D01*
X124376711Y-53375486D01*
X124377866Y-53391739D01*
X124415961Y-53467929D01*
X124424664Y-53475477D01*
X124429073Y-53486121D01*
X124467168Y-53524217D01*
X124477812Y-53528625D01*
X124485361Y-53537330D01*
X124561552Y-53575425D01*
X124577804Y-53576579D01*
X124592857Y-53582815D01*
X124745238Y-53582815D01*
X124760290Y-53576579D01*
X124776543Y-53575425D01*
X124852733Y-53537330D01*
X124860281Y-53528625D01*
X124870926Y-53524217D01*
X124882328Y-53512815D01*
X125132380Y-53512815D01*
X125152883Y-53562312D01*
X125202380Y-53582815D01*
X125697618Y-53582815D01*
X125747115Y-53562312D01*
X125767618Y-53512815D01*
X125747115Y-53463318D01*
X125697618Y-53442815D01*
X125371374Y-53442815D01*
X125709021Y-53105169D01*
X125715255Y-53090116D01*
X125725931Y-53077808D01*
X125764026Y-52963522D01*
X125763209Y-52952029D01*
X125767618Y-52941386D01*
X125767618Y-52865196D01*
X125761382Y-52850143D01*
X125760228Y-52833891D01*
X125722133Y-52757700D01*
X125713428Y-52750151D01*
X125709020Y-52739507D01*
X125670925Y-52701413D01*
X125660282Y-52697004D01*
X125652733Y-52688300D01*
X125576542Y-52650205D01*
X125560289Y-52649050D01*
X125545237Y-52642815D01*
X125354761Y-52642815D01*
X125339708Y-52649050D01*
X125323456Y-52650205D01*
X125247266Y-52688300D01*
X125239717Y-52697003D01*
X125229074Y-52701412D01*
X125190978Y-52739507D01*
X125170476Y-52789004D01*
X125190977Y-52838502D01*
X125240474Y-52859004D01*
X125289972Y-52838503D01*
X125320035Y-52808440D01*
X125371286Y-52782815D01*
X125528712Y-52782815D01*
X125579964Y-52808440D01*
X125601992Y-52830469D01*
X125627618Y-52881720D01*
X125627618Y-52930026D01*
X125598340Y-53017859D01*
X125152883Y-53463318D01*
X125132380Y-53512815D01*
X124882328Y-53512815D01*
X124909021Y-53486121D01*
X124913428Y-53475478D01*
X124922133Y-53467930D01*
X124960228Y-53391740D01*
X124961382Y-53375488D01*
X124967619Y-53360434D01*
X124967619Y-52712815D01*
X124947116Y-52663318D01*
X124897619Y-52642815D01*
X124848122Y-52663318D01*
X124827619Y-52712815D01*
X124827619Y-53343908D01*
X124801992Y-53395160D01*
X124779962Y-53417190D01*
X124728713Y-53442815D01*
X124609382Y-53442815D01*
X124558131Y-53417190D01*
X124536101Y-53395159D01*
X124510476Y-53343909D01*
X124510476Y-52712815D01*
X124489973Y-52663318D01*
X124440476Y-52642815D01*
X124390979Y-52663318D01*
X124370476Y-52712815D01*
X124370476Y-53360434D01*
X124256190Y-53360434D01*
X124256190Y-52528529D01*
X125881904Y-52528529D01*
X125881904Y-53697101D01*
G37*
D16*
X154860714Y-69711104D02*
X154822618Y-69749200D01*
X154822618Y-69749200D02*
X154708333Y-69787295D01*
X154708333Y-69787295D02*
X154632142Y-69787295D01*
X154632142Y-69787295D02*
X154517856Y-69749200D01*
X154517856Y-69749200D02*
X154441666Y-69673009D01*
X154441666Y-69673009D02*
X154403571Y-69596819D01*
X154403571Y-69596819D02*
X154365475Y-69444438D01*
X154365475Y-69444438D02*
X154365475Y-69330152D01*
X154365475Y-69330152D02*
X154403571Y-69177771D01*
X154403571Y-69177771D02*
X154441666Y-69101580D01*
X154441666Y-69101580D02*
X154517856Y-69025390D01*
X154517856Y-69025390D02*
X154632142Y-68987295D01*
X154632142Y-68987295D02*
X154708333Y-68987295D01*
X154708333Y-68987295D02*
X154822618Y-69025390D01*
X154822618Y-69025390D02*
X154860714Y-69063485D01*
X155622618Y-69787295D02*
X155165475Y-69787295D01*
X155394047Y-69787295D02*
X155394047Y-68987295D01*
X155394047Y-68987295D02*
X155317856Y-69101580D01*
X155317856Y-69101580D02*
X155241666Y-69177771D01*
X155241666Y-69177771D02*
X155165475Y-69215866D01*
X156346428Y-68987295D02*
X155965476Y-68987295D01*
X155965476Y-68987295D02*
X155927380Y-69368247D01*
X155927380Y-69368247D02*
X155965476Y-69330152D01*
X155965476Y-69330152D02*
X156041666Y-69292057D01*
X156041666Y-69292057D02*
X156232142Y-69292057D01*
X156232142Y-69292057D02*
X156308333Y-69330152D01*
X156308333Y-69330152D02*
X156346428Y-69368247D01*
X156346428Y-69368247D02*
X156384523Y-69444438D01*
X156384523Y-69444438D02*
X156384523Y-69634914D01*
X156384523Y-69634914D02*
X156346428Y-69711104D01*
X156346428Y-69711104D02*
X156308333Y-69749200D01*
X156308333Y-69749200D02*
X156232142Y-69787295D01*
X156232142Y-69787295D02*
X156041666Y-69787295D01*
X156041666Y-69787295D02*
X155965476Y-69749200D01*
X155965476Y-69749200D02*
X155927380Y-69711104D01*
X145641666Y-73537295D02*
X145260714Y-73537295D01*
X145260714Y-73537295D02*
X145260714Y-72737295D01*
X146251190Y-73003961D02*
X146251190Y-73537295D01*
X146060714Y-72699200D02*
X145870237Y-73270628D01*
X145870237Y-73270628D02*
X146365476Y-73270628D01*
X144372295Y-55803332D02*
X143991342Y-56069999D01*
X144372295Y-56260475D02*
X143572295Y-56260475D01*
X143572295Y-56260475D02*
X143572295Y-55955713D01*
X143572295Y-55955713D02*
X143610390Y-55879523D01*
X143610390Y-55879523D02*
X143648485Y-55841428D01*
X143648485Y-55841428D02*
X143724676Y-55803332D01*
X143724676Y-55803332D02*
X143838961Y-55803332D01*
X143838961Y-55803332D02*
X143915152Y-55841428D01*
X143915152Y-55841428D02*
X143953247Y-55879523D01*
X143953247Y-55879523D02*
X143991342Y-55955713D01*
X143991342Y-55955713D02*
X143991342Y-56260475D01*
X144372295Y-55422380D02*
X144372295Y-55269999D01*
X144372295Y-55269999D02*
X144334200Y-55193809D01*
X144334200Y-55193809D02*
X144296104Y-55155713D01*
X144296104Y-55155713D02*
X144181819Y-55079523D01*
X144181819Y-55079523D02*
X144029438Y-55041428D01*
X144029438Y-55041428D02*
X143724676Y-55041428D01*
X143724676Y-55041428D02*
X143648485Y-55079523D01*
X143648485Y-55079523D02*
X143610390Y-55117618D01*
X143610390Y-55117618D02*
X143572295Y-55193809D01*
X143572295Y-55193809D02*
X143572295Y-55346190D01*
X143572295Y-55346190D02*
X143610390Y-55422380D01*
X143610390Y-55422380D02*
X143648485Y-55460475D01*
X143648485Y-55460475D02*
X143724676Y-55498571D01*
X143724676Y-55498571D02*
X143915152Y-55498571D01*
X143915152Y-55498571D02*
X143991342Y-55460475D01*
X143991342Y-55460475D02*
X144029438Y-55422380D01*
X144029438Y-55422380D02*
X144067533Y-55346190D01*
X144067533Y-55346190D02*
X144067533Y-55193809D01*
X144067533Y-55193809D02*
X144029438Y-55117618D01*
X144029438Y-55117618D02*
X143991342Y-55079523D01*
X143991342Y-55079523D02*
X143915152Y-55041428D01*
X153643809Y-59868485D02*
X153567619Y-59830390D01*
X153567619Y-59830390D02*
X153491428Y-59754200D01*
X153491428Y-59754200D02*
X153377142Y-59639914D01*
X153377142Y-59639914D02*
X153300952Y-59601819D01*
X153300952Y-59601819D02*
X153224761Y-59601819D01*
X153262857Y-59792295D02*
X153186666Y-59754200D01*
X153186666Y-59754200D02*
X153110476Y-59678009D01*
X153110476Y-59678009D02*
X153072380Y-59525628D01*
X153072380Y-59525628D02*
X153072380Y-59258961D01*
X153072380Y-59258961D02*
X153110476Y-59106580D01*
X153110476Y-59106580D02*
X153186666Y-59030390D01*
X153186666Y-59030390D02*
X153262857Y-58992295D01*
X153262857Y-58992295D02*
X153415238Y-58992295D01*
X153415238Y-58992295D02*
X153491428Y-59030390D01*
X153491428Y-59030390D02*
X153567619Y-59106580D01*
X153567619Y-59106580D02*
X153605714Y-59258961D01*
X153605714Y-59258961D02*
X153605714Y-59525628D01*
X153605714Y-59525628D02*
X153567619Y-59678009D01*
X153567619Y-59678009D02*
X153491428Y-59754200D01*
X153491428Y-59754200D02*
X153415238Y-59792295D01*
X153415238Y-59792295D02*
X153262857Y-59792295D01*
X154367618Y-59792295D02*
X153910475Y-59792295D01*
X154139047Y-59792295D02*
X154139047Y-58992295D01*
X154139047Y-58992295D02*
X154062856Y-59106580D01*
X154062856Y-59106580D02*
X153986666Y-59182771D01*
X153986666Y-59182771D02*
X153910475Y-59220866D01*
X147085714Y-73461104D02*
X147047618Y-73499200D01*
X147047618Y-73499200D02*
X146933333Y-73537295D01*
X146933333Y-73537295D02*
X146857142Y-73537295D01*
X146857142Y-73537295D02*
X146742856Y-73499200D01*
X146742856Y-73499200D02*
X146666666Y-73423009D01*
X146666666Y-73423009D02*
X146628571Y-73346819D01*
X146628571Y-73346819D02*
X146590475Y-73194438D01*
X146590475Y-73194438D02*
X146590475Y-73080152D01*
X146590475Y-73080152D02*
X146628571Y-72927771D01*
X146628571Y-72927771D02*
X146666666Y-72851580D01*
X146666666Y-72851580D02*
X146742856Y-72775390D01*
X146742856Y-72775390D02*
X146857142Y-72737295D01*
X146857142Y-72737295D02*
X146933333Y-72737295D01*
X146933333Y-72737295D02*
X147047618Y-72775390D01*
X147047618Y-72775390D02*
X147085714Y-72813485D01*
X147390475Y-72813485D02*
X147428571Y-72775390D01*
X147428571Y-72775390D02*
X147504761Y-72737295D01*
X147504761Y-72737295D02*
X147695237Y-72737295D01*
X147695237Y-72737295D02*
X147771428Y-72775390D01*
X147771428Y-72775390D02*
X147809523Y-72813485D01*
X147809523Y-72813485D02*
X147847618Y-72889676D01*
X147847618Y-72889676D02*
X147847618Y-72965866D01*
X147847618Y-72965866D02*
X147809523Y-73080152D01*
X147809523Y-73080152D02*
X147352380Y-73537295D01*
X147352380Y-73537295D02*
X147847618Y-73537295D01*
X148609523Y-73537295D02*
X148152380Y-73537295D01*
X148380952Y-73537295D02*
X148380952Y-72737295D01*
X148380952Y-72737295D02*
X148304761Y-72851580D01*
X148304761Y-72851580D02*
X148228571Y-72927771D01*
X148228571Y-72927771D02*
X148152380Y-72965866D01*
X155735714Y-76086104D02*
X155697618Y-76124200D01*
X155697618Y-76124200D02*
X155583333Y-76162295D01*
X155583333Y-76162295D02*
X155507142Y-76162295D01*
X155507142Y-76162295D02*
X155392856Y-76124200D01*
X155392856Y-76124200D02*
X155316666Y-76048009D01*
X155316666Y-76048009D02*
X155278571Y-75971819D01*
X155278571Y-75971819D02*
X155240475Y-75819438D01*
X155240475Y-75819438D02*
X155240475Y-75705152D01*
X155240475Y-75705152D02*
X155278571Y-75552771D01*
X155278571Y-75552771D02*
X155316666Y-75476580D01*
X155316666Y-75476580D02*
X155392856Y-75400390D01*
X155392856Y-75400390D02*
X155507142Y-75362295D01*
X155507142Y-75362295D02*
X155583333Y-75362295D01*
X155583333Y-75362295D02*
X155697618Y-75400390D01*
X155697618Y-75400390D02*
X155735714Y-75438485D01*
X156497618Y-76162295D02*
X156040475Y-76162295D01*
X156269047Y-76162295D02*
X156269047Y-75362295D01*
X156269047Y-75362295D02*
X156192856Y-75476580D01*
X156192856Y-75476580D02*
X156116666Y-75552771D01*
X156116666Y-75552771D02*
X156040475Y-75590866D01*
X156764285Y-75362295D02*
X157259523Y-75362295D01*
X157259523Y-75362295D02*
X156992857Y-75667057D01*
X156992857Y-75667057D02*
X157107142Y-75667057D01*
X157107142Y-75667057D02*
X157183333Y-75705152D01*
X157183333Y-75705152D02*
X157221428Y-75743247D01*
X157221428Y-75743247D02*
X157259523Y-75819438D01*
X157259523Y-75819438D02*
X157259523Y-76009914D01*
X157259523Y-76009914D02*
X157221428Y-76086104D01*
X157221428Y-76086104D02*
X157183333Y-76124200D01*
X157183333Y-76124200D02*
X157107142Y-76162295D01*
X157107142Y-76162295D02*
X156878571Y-76162295D01*
X156878571Y-76162295D02*
X156802380Y-76124200D01*
X156802380Y-76124200D02*
X156764285Y-76086104D01*
D20*
X155779667Y-49060318D02*
X155779667Y-49967461D01*
X155779667Y-49967461D02*
X155719190Y-50148889D01*
X155719190Y-50148889D02*
X155598238Y-50269842D01*
X155598238Y-50269842D02*
X155416809Y-50330318D01*
X155416809Y-50330318D02*
X155295857Y-50330318D01*
X156928714Y-49483651D02*
X156928714Y-50330318D01*
X156626333Y-48999842D02*
X156323952Y-49906984D01*
X156323952Y-49906984D02*
X157110143Y-49906984D01*
D13*
%TO.C,R7*%
X153846359Y-55170000D02*
X154153641Y-55170000D01*
X153846359Y-55930000D02*
X154153641Y-55930000D01*
%TO.C,C14*%
X159865000Y-74611252D02*
X159865000Y-74088748D01*
X161335000Y-74611252D02*
X161335000Y-74088748D01*
%TO.C,D5*%
X130500000Y-60540000D02*
X128500000Y-60540000D01*
X130500000Y-60540000D02*
X130500000Y-64550000D01*
X128500000Y-60540000D02*
X128500000Y-64550000D01*
%TO.C,R17*%
X165013641Y-71180000D02*
X164706359Y-71180000D01*
X165013641Y-70420000D02*
X164706359Y-70420000D01*
%TO.C,R2*%
X144746359Y-66440000D02*
X145053641Y-66440000D01*
X144746359Y-67200000D02*
X145053641Y-67200000D01*
%TO.C,TP1*%
X159150000Y-77700000D02*
G75*
G03*
X157250000Y-77700000I-950000J0D01*
G01*
X157250000Y-77700000D02*
G75*
G03*
X159150000Y-77700000I950000J0D01*
G01*
%TO.C,C1*%
X148197836Y-67180000D02*
X147982164Y-67180000D01*
X148197836Y-66460000D02*
X147982164Y-66460000D01*
%TO.C,C2*%
X130060000Y-58784420D02*
X130060000Y-59065580D01*
X129040000Y-58784420D02*
X129040000Y-59065580D01*
%TO.C,C5*%
X135740810Y-70108307D02*
X135588307Y-70260810D01*
X135231693Y-69599190D02*
X135079190Y-69751693D01*
%TO.C,R6*%
X136051697Y-66812770D02*
X136387230Y-67148303D01*
X135312770Y-67551697D02*
X135648303Y-67887230D01*
%TO.C,C23*%
X120090000Y-66887836D02*
X120090000Y-66672164D01*
X120810000Y-66887836D02*
X120810000Y-66672164D01*
%TO.C,TP10*%
X131900000Y-49250000D02*
G75*
G03*
X130500000Y-49250000I-700000J0D01*
G01*
X130500000Y-49250000D02*
G75*
G03*
X131900000Y-49250000I700000J0D01*
G01*
%TO.C,D2*%
X149060000Y-70800000D02*
X149060000Y-68800000D01*
X149060000Y-70800000D02*
X145050000Y-70800000D01*
X149060000Y-68800000D02*
X145050000Y-68800000D01*
%TO.C,C3*%
X123790000Y-50940580D02*
X123790000Y-50659420D01*
X124810000Y-50940580D02*
X124810000Y-50659420D01*
%TO.C,U3*%
X122861700Y-59500500D02*
X122861700Y-61481700D01*
X126138300Y-61481700D02*
X126138300Y-59500500D01*
D21*
%TO.C,L2*%
X128950000Y-48992525D02*
X125950000Y-48992525D01*
X128910000Y-52002525D02*
X125910000Y-52002525D01*
D13*
%TO.C,R18*%
X121396359Y-51670000D02*
X121703641Y-51670000D01*
X121396359Y-52430000D02*
X121703641Y-52430000D01*
%TO.C,L3*%
X146277500Y-53725250D02*
X146277500Y-56074750D01*
X150722500Y-56074750D02*
X150722500Y-53725250D01*
%TO.C,C8*%
X154865000Y-73561252D02*
X154865000Y-73038748D01*
X156335000Y-73561252D02*
X156335000Y-73038748D01*
%TO.C,TP6*%
X124000000Y-76350000D02*
G75*
G03*
X122600000Y-76350000I-700000J0D01*
G01*
X122600000Y-76350000D02*
G75*
G03*
X124000000Y-76350000I700000J0D01*
G01*
D22*
%TO.C,J3*%
X117201000Y-58150000D02*
X117201000Y-57350000D01*
X119451000Y-58150000D02*
X117201000Y-58150000D01*
X121451000Y-56950000D02*
X121451000Y-55350000D01*
D12*
X115663000Y-56650000D02*
X115663000Y-56650000D01*
X115763000Y-56650000D02*
X115763000Y-56650000D01*
D22*
X117201000Y-54150000D02*
X117201000Y-54950000D01*
X119451000Y-54150000D02*
X117201000Y-54150000D01*
D12*
X115763000Y-56650000D02*
G75*
G03*
X115663000Y-56650000I-50000J0D01*
G01*
X115663000Y-56650000D02*
G75*
G03*
X115763000Y-56650000I50000J0D01*
G01*
D13*
%TO.C,L1*%
X141190000Y-69522779D02*
X141190000Y-69197221D01*
X142210000Y-69522779D02*
X142210000Y-69197221D01*
%TO.C,R15*%
X143172500Y-58562742D02*
X143172500Y-59037258D01*
X142127500Y-58562742D02*
X142127500Y-59037258D01*
%TO.C,C20*%
X138890580Y-72960000D02*
X138609420Y-72960000D01*
X138890580Y-71940000D02*
X138609420Y-71940000D01*
%TO.C,TP2*%
X156150000Y-77700000D02*
G75*
G03*
X154250000Y-77700000I-950000J0D01*
G01*
X154250000Y-77700000D02*
G75*
G03*
X156150000Y-77700000I950000J0D01*
G01*
D22*
%TO.C,SW2*%
X118750000Y-70175000D02*
X118750000Y-70175000D01*
X118750000Y-70175000D02*
X118750000Y-70175000D01*
X118750000Y-70275000D02*
X118750000Y-70275000D01*
D12*
X119200000Y-72175000D02*
X119200000Y-72175000D01*
X119200000Y-72175000D02*
X119200000Y-73175000D01*
X117250000Y-72175000D02*
X117250000Y-72175000D01*
X117250000Y-72175000D02*
X117250000Y-73175000D01*
X119200000Y-73175000D02*
X119200000Y-72175000D01*
X119200000Y-73175000D02*
X119200000Y-73175000D01*
X117250000Y-73175000D02*
X117250000Y-72175000D01*
X117250000Y-73175000D02*
X117250000Y-73175000D01*
D22*
X118750000Y-70275000D02*
G75*
G03*
X118750000Y-70175000I0J50000D01*
G01*
X118750000Y-70175000D02*
G75*
G03*
X118750000Y-70275000I0J-50000D01*
G01*
X118750000Y-70175000D02*
G75*
G03*
X118750000Y-70275000I0J-50000D01*
G01*
D13*
%TO.C,C11*%
X161841252Y-78625000D02*
X161318748Y-78625000D01*
X161841252Y-77155000D02*
X161318748Y-77155000D01*
%TO.C,D1*%
X149685000Y-70800000D02*
X149685000Y-72800000D01*
X149685000Y-70800000D02*
X153695000Y-70800000D01*
X149685000Y-72800000D02*
X153695000Y-72800000D01*
%TO.C,C16*%
X147936252Y-75485000D02*
X147413748Y-75485000D01*
X147936252Y-74015000D02*
X147413748Y-74015000D01*
%TO.C,C18*%
X137515000Y-70151252D02*
X137515000Y-69628748D01*
X138985000Y-70151252D02*
X138985000Y-69628748D01*
%TO.C,C6*%
X165248752Y-54485000D02*
X164726248Y-54485000D01*
X165248752Y-53015000D02*
X164726248Y-53015000D01*
%TO.C,C17*%
X152360000Y-54434420D02*
X152360000Y-54715580D01*
X151340000Y-54434420D02*
X151340000Y-54715580D01*
%TO.C,D3*%
X154405000Y-75600000D02*
X154405000Y-73600000D01*
X154405000Y-75600000D02*
X150395000Y-75600000D01*
X154405000Y-73600000D02*
X150395000Y-73600000D01*
%TO.C,TP8*%
X125550000Y-78900000D02*
G75*
G03*
X124150000Y-78900000I-700000J0D01*
G01*
X124150000Y-78900000D02*
G75*
G03*
X125550000Y-78900000I700000J0D01*
G01*
%TO.C,C7*%
X149651248Y-58115000D02*
X150173752Y-58115000D01*
X149651248Y-59585000D02*
X150173752Y-59585000D01*
%TO.C,C9*%
X152088748Y-66140000D02*
X152611252Y-66140000D01*
X152088748Y-67610000D02*
X152611252Y-67610000D01*
%TO.C,R3*%
X129437742Y-52565025D02*
X129912258Y-52565025D01*
X129437742Y-53610025D02*
X129912258Y-53610025D01*
D23*
%TO.C,X1*%
X131247064Y-68091853D02*
G75*
G03*
X130993064Y-68091853I-127000J0D01*
G01*
X130993064Y-68091853D02*
G75*
G03*
X131247064Y-68091853I127000J0D01*
G01*
D13*
%TO.C,R20*%
X125822500Y-74512742D02*
X125822500Y-74987258D01*
X124777500Y-74512742D02*
X124777500Y-74987258D01*
%TO.C,R12*%
X126615000Y-63377064D02*
X126615000Y-62922936D01*
X128085000Y-63377064D02*
X128085000Y-62922936D01*
D22*
%TO.C,SW1*%
X122980000Y-70175000D02*
X122980000Y-70175000D01*
X122980000Y-70175000D02*
X122980000Y-70175000D01*
X122980000Y-70275000D02*
X122980000Y-70275000D01*
D12*
X123430000Y-72175000D02*
X123430000Y-72175000D01*
X123430000Y-72175000D02*
X123430000Y-73175000D01*
X121480000Y-72175000D02*
X121480000Y-72175000D01*
X121480000Y-72175000D02*
X121480000Y-73175000D01*
X123430000Y-73175000D02*
X123430000Y-72175000D01*
X123430000Y-73175000D02*
X123430000Y-73175000D01*
X121480000Y-73175000D02*
X121480000Y-72175000D01*
X121480000Y-73175000D02*
X121480000Y-73175000D01*
D22*
X122980000Y-70275000D02*
G75*
G03*
X122980000Y-70175000I0J50000D01*
G01*
X122980000Y-70175000D02*
G75*
G03*
X122980000Y-70275000I0J-50000D01*
G01*
X122980000Y-70175000D02*
G75*
G03*
X122980000Y-70275000I0J-50000D01*
G01*
D13*
%TO.C,R10*%
X122836359Y-66750000D02*
X123143641Y-66750000D01*
X122836359Y-67510000D02*
X123143641Y-67510000D01*
%TO.C,J1*%
X127215000Y-75320000D02*
X127215000Y-77320000D01*
X127215000Y-79220000D02*
X127215000Y-81120000D01*
X127215000Y-81120000D02*
X136615000Y-81120000D01*
X136615000Y-75320000D02*
X136615000Y-77320000D01*
X136615000Y-79220000D02*
X136615000Y-81120000D01*
%TO.C,C19*%
X139810000Y-69837836D02*
X139810000Y-69622164D01*
X140530000Y-69837836D02*
X140530000Y-69622164D01*
%TO.C,J5*%
X143860000Y-51100000D02*
X151540000Y-51100000D01*
X143860000Y-51100000D02*
X143860000Y-48440000D01*
X151540000Y-51100000D02*
X151540000Y-48440000D01*
X141260000Y-49770000D02*
X141260000Y-48440000D01*
X141260000Y-48440000D02*
X142590000Y-48440000D01*
X143860000Y-48440000D02*
X151540000Y-48440000D01*
D12*
%TO.C,ANT1*%
X141000000Y-74700000D02*
X141000000Y-74700000D01*
X140900000Y-74700000D02*
X140900000Y-74700000D01*
D22*
X143500000Y-75750000D02*
X143500000Y-77150000D01*
X141500000Y-75750000D02*
X141500000Y-77150000D01*
D12*
X140900000Y-74700000D02*
G75*
G03*
X141000000Y-74700000I50000J0D01*
G01*
X141000000Y-74700000D02*
G75*
G03*
X140900000Y-74700000I-50000J0D01*
G01*
D13*
%TO.C,TP7*%
X122600000Y-78900000D02*
G75*
G03*
X121200000Y-78900000I-700000J0D01*
G01*
X121200000Y-78900000D02*
G75*
G03*
X122600000Y-78900000I700000J0D01*
G01*
D12*
%TO.C,Y1*%
X135550000Y-54000000D02*
X135550000Y-54000000D01*
X135650000Y-54000000D02*
X135650000Y-54000000D01*
X135650000Y-54000000D02*
G75*
G03*
X135550000Y-54000000I-50000J0D01*
G01*
X135550000Y-54000000D02*
G75*
G03*
X135650000Y-54000000I50000J0D01*
G01*
D13*
%TO.C,C10*%
X164723752Y-73117500D02*
X164201248Y-73117500D01*
X164723752Y-71647500D02*
X164201248Y-71647500D01*
%TO.C,D6*%
X115265000Y-64580000D02*
X115265000Y-66500000D01*
X115265000Y-66500000D02*
X117950000Y-66500000D01*
X117950000Y-64580000D02*
X115265000Y-64580000D01*
%TO.C,C4*%
X131479190Y-66361693D02*
X131631693Y-66209190D01*
X131988307Y-66870810D02*
X132140810Y-66718307D01*
%TO.C,R14*%
X143677500Y-59037258D02*
X143677500Y-58562742D01*
X144722500Y-59037258D02*
X144722500Y-58562742D01*
%TO.C,J2*%
X156727400Y-71624800D02*
X159368359Y-71624800D01*
X162040439Y-71624800D02*
X162772599Y-71624800D01*
X162772599Y-71624800D02*
X162772599Y-55775200D01*
X156727400Y-69842755D02*
X156727400Y-71624800D01*
X156727400Y-55775200D02*
X156727400Y-57557248D01*
X159368359Y-55775200D02*
X156727400Y-55775200D01*
X162772599Y-55775200D02*
X162040439Y-55775200D01*
%TO.C,R19*%
X115620000Y-68103641D02*
X115620000Y-67796359D01*
X116380000Y-68103641D02*
X116380000Y-67796359D01*
%TO.C,R16*%
X118970000Y-66953641D02*
X118970000Y-66646359D01*
X119730000Y-66953641D02*
X119730000Y-66646359D01*
%TO.C,R8*%
X161687742Y-49627500D02*
X162162258Y-49627500D01*
X161687742Y-50672500D02*
X162162258Y-50672500D01*
%TO.C,R13*%
X124587742Y-63267500D02*
X125062258Y-63267500D01*
X124587742Y-64312500D02*
X125062258Y-64312500D01*
D16*
%TO.C,U2*%
X126570000Y-52595025D02*
X127730000Y-52595025D01*
X126570000Y-53455025D02*
X126570000Y-52595025D01*
X127730000Y-52595025D02*
X127730000Y-53455025D01*
X127730000Y-53455025D02*
X126570000Y-53455025D01*
D12*
X126850000Y-53955025D02*
G75*
G03*
X126750000Y-53955025I-50000J0D01*
G01*
X126750000Y-53955025D02*
G75*
G03*
X126850000Y-53955025I50000J0D01*
G01*
D13*
%TO.C,Q2*%
X125396913Y-66459413D02*
X124937294Y-66919033D01*
X125396913Y-66459413D02*
X125856533Y-65999794D01*
X127603087Y-68665587D02*
X127143467Y-69125206D01*
X127603087Y-68665587D02*
X128062706Y-68205967D01*
X124610257Y-67316780D02*
X124207206Y-67253141D01*
X124546618Y-66913730D01*
X124610257Y-67316780D01*
G36*
X124610257Y-67316780D02*
G01*
X124207206Y-67253141D01*
X124546618Y-66913730D01*
X124610257Y-67316780D01*
G37*
%TO.C,C15*%
X152088748Y-68615000D02*
X152611252Y-68615000D01*
X152088748Y-70085000D02*
X152611252Y-70085000D01*
%TO.C,R1*%
X129174940Y-70143867D02*
X128839407Y-69808334D01*
X129913867Y-69404940D02*
X129578334Y-69069407D01*
%TO.C,TP9*%
X134400000Y-49250000D02*
G75*
G03*
X133000000Y-49250000I-700000J0D01*
G01*
X133000000Y-49250000D02*
G75*
G03*
X134400000Y-49250000I700000J0D01*
G01*
%TO.C,U1*%
X138834404Y-66838927D02*
X138668234Y-67005097D01*
X142189625Y-63483705D02*
X141853750Y-63819581D01*
X138162652Y-66838927D02*
X138286396Y-66962670D01*
X141853750Y-63147829D02*
X142189625Y-63483705D01*
X135143306Y-63819581D02*
X134807431Y-63483705D01*
X138834404Y-60128483D02*
X138498528Y-59792608D01*
X134807431Y-63483705D02*
X135143306Y-63147829D01*
X138498528Y-59792608D02*
X138162652Y-60128483D01*
X138434888Y-67577853D02*
X138095477Y-67238442D01*
X138498528Y-67174802D01*
X138434888Y-67577853D01*
G36*
X138434888Y-67577853D02*
G01*
X138095477Y-67238442D01*
X138498528Y-67174802D01*
X138434888Y-67577853D01*
G37*
%TO.C,L4*%
X144824721Y-71310000D02*
X145150279Y-71310000D01*
X144824721Y-72330000D02*
X145150279Y-72330000D01*
%TO.C,R4*%
X141680000Y-54946359D02*
X141680000Y-55253641D01*
X140920000Y-54946359D02*
X140920000Y-55253641D01*
%TO.C,TP3*%
X153150000Y-77700000D02*
G75*
G03*
X151250000Y-77700000I-950000J0D01*
G01*
X151250000Y-77700000D02*
G75*
G03*
X153150000Y-77700000I950000J0D01*
G01*
%TO.C,R9*%
X142152500Y-55887258D02*
X142152500Y-55412742D01*
X143197500Y-55887258D02*
X143197500Y-55412742D01*
%TO.C,Q1*%
X152970000Y-56490000D02*
X154380000Y-56490000D01*
X152970000Y-58810000D02*
X154380000Y-58810000D01*
X154380000Y-56490000D02*
X154380000Y-57150000D01*
X154380000Y-58150000D02*
X154380000Y-58810000D01*
X152600000Y-56510000D02*
X152360000Y-56180000D01*
X152840000Y-56180000D01*
X152600000Y-56510000D01*
G36*
X152600000Y-56510000D02*
G01*
X152360000Y-56180000D01*
X152840000Y-56180000D01*
X152600000Y-56510000D01*
G37*
%TO.C,C12*%
X164723752Y-75192500D02*
X164201248Y-75192500D01*
X164723752Y-73722500D02*
X164201248Y-73722500D01*
%TO.C,D4*%
X115265000Y-61520000D02*
X115265000Y-63440000D01*
X115265000Y-63440000D02*
X117950000Y-63440000D01*
X117950000Y-61520000D02*
X115265000Y-61520000D01*
%TO.C,C21*%
X148140580Y-72330000D02*
X147859420Y-72330000D01*
X148140580Y-71310000D02*
X147859420Y-71310000D01*
%TO.C,C13*%
X157765000Y-74611252D02*
X157765000Y-74088748D01*
X159235000Y-74611252D02*
X159235000Y-74088748D01*
%TO.C,R11*%
X120637258Y-61572500D02*
X120162742Y-61572500D01*
X120637258Y-60527500D02*
X120162742Y-60527500D01*
D20*
%TO.C,J4*%
X159025000Y-53050000D02*
X159025000Y-50070000D01*
X159025000Y-53050000D02*
X157996000Y-53050000D01*
X157931000Y-48200000D02*
X154122000Y-48200000D01*
X153025000Y-53050000D02*
X154088000Y-53050000D01*
X153025000Y-53050000D02*
X153025000Y-50070000D01*
X158383370Y-53842000D02*
G75*
G03*
X158262630Y-53842000I-60370J0D01*
G01*
X158262630Y-53842000D02*
G75*
G03*
X158383370Y-53842000I60370J0D01*
G01*
%TD*%
M02*
