%TF.GenerationSoftware,KiCad,Pcbnew,7.0.11-7.0.11~ubuntu22.04.1*%
%TF.CreationDate,2024-11-26T11:44:11+01:00*%
%TF.ProjectId,H-C6-ulp,482d4336-2d75-46c7-902e-6b696361645f,rev?*%
%TF.SameCoordinates,Original*%
%TF.FileFunction,Legend,Bot*%
%TF.FilePolarity,Positive*%
%FSLAX46Y46*%
G04 Gerber Fmt 4.6, Leading zero omitted, Abs format (unit mm)*
G04 Created by KiCad (PCBNEW 7.0.11-7.0.11~ubuntu22.04.1) date 2024-11-26 11:44:11*
%MOMM*%
%LPD*%
G01*
G04 APERTURE LIST*
%ADD10C,0.100000*%
%ADD11C,0.120000*%
%ADD12C,0.200000*%
%ADD13C,0.150000*%
%ADD14C,0.250000*%
G04 APERTURE END LIST*
D10*
X147600000Y-54370000D02*
X147890000Y-53890000D01*
X143780000Y-54370000D02*
X147600000Y-54370000D01*
X139420000Y-53840000D02*
X139650000Y-54360000D01*
X143460000Y-54360000D02*
X143630000Y-54780000D01*
X139650000Y-54360000D02*
X143460000Y-54360000D01*
X143630000Y-54780000D02*
X143780000Y-54370000D01*
X146593344Y-52217321D02*
X146526000Y-52352008D01*
X146526000Y-52352008D02*
X146357641Y-52520367D01*
X146357641Y-52520367D02*
X146256626Y-52554039D01*
X146256626Y-52554039D02*
X146189283Y-52554039D01*
X146189283Y-52554039D02*
X146088267Y-52520367D01*
X146088267Y-52520367D02*
X146020924Y-52453024D01*
X146020924Y-52453024D02*
X145987252Y-52352008D01*
X145987252Y-52352008D02*
X145987252Y-52284665D01*
X145987252Y-52284665D02*
X146020924Y-52183649D01*
X146020924Y-52183649D02*
X146121939Y-52015291D01*
X146121939Y-52015291D02*
X146155611Y-51914275D01*
X146155611Y-51914275D02*
X146155611Y-51846932D01*
X146155611Y-51846932D02*
X146121939Y-51745917D01*
X146121939Y-51745917D02*
X146054596Y-51678573D01*
X146054596Y-51678573D02*
X145953580Y-51644901D01*
X145953580Y-51644901D02*
X145886237Y-51644901D01*
X145886237Y-51644901D02*
X145785222Y-51678573D01*
X145785222Y-51678573D02*
X145616863Y-51846932D01*
X145616863Y-51846932D02*
X145549519Y-51981619D01*
X145448504Y-53294817D02*
X145515847Y-53294817D01*
X145515847Y-53294817D02*
X145650534Y-53227474D01*
X145650534Y-53227474D02*
X145717878Y-53160130D01*
X145717878Y-53160130D02*
X145785221Y-53025443D01*
X145785221Y-53025443D02*
X145785221Y-52890756D01*
X145785221Y-52890756D02*
X145751550Y-52789741D01*
X145751550Y-52789741D02*
X145650534Y-52621382D01*
X145650534Y-52621382D02*
X145549519Y-52520367D01*
X145549519Y-52520367D02*
X145381160Y-52419352D01*
X145381160Y-52419352D02*
X145280145Y-52385680D01*
X145280145Y-52385680D02*
X145145458Y-52385680D01*
X145145458Y-52385680D02*
X145010771Y-52453024D01*
X145010771Y-52453024D02*
X144943428Y-52520367D01*
X144943428Y-52520367D02*
X144876084Y-52655054D01*
X144876084Y-52655054D02*
X144876084Y-52722398D01*
X144876084Y-54001924D02*
X145212802Y-53665207D01*
X145212802Y-53665207D02*
X144505695Y-52958100D01*
X148136115Y-56132419D02*
X148136115Y-55132419D01*
X148136115Y-55132419D02*
X147802782Y-55846704D01*
X147802782Y-55846704D02*
X147469449Y-55132419D01*
X147469449Y-55132419D02*
X147469449Y-56132419D01*
X146993258Y-56132419D02*
X146993258Y-55465752D01*
X146993258Y-55132419D02*
X147040877Y-55180038D01*
X147040877Y-55180038D02*
X146993258Y-55227657D01*
X146993258Y-55227657D02*
X146945639Y-55180038D01*
X146945639Y-55180038D02*
X146993258Y-55132419D01*
X146993258Y-55132419D02*
X146993258Y-55227657D01*
X146517068Y-55465752D02*
X146517068Y-56132419D01*
X146517068Y-55560990D02*
X146469449Y-55513371D01*
X146469449Y-55513371D02*
X146374211Y-55465752D01*
X146374211Y-55465752D02*
X146231354Y-55465752D01*
X146231354Y-55465752D02*
X146136116Y-55513371D01*
X146136116Y-55513371D02*
X146088497Y-55608609D01*
X146088497Y-55608609D02*
X146088497Y-56132419D01*
X145612306Y-56132419D02*
X145612306Y-55465752D01*
X145612306Y-55132419D02*
X145659925Y-55180038D01*
X145659925Y-55180038D02*
X145612306Y-55227657D01*
X145612306Y-55227657D02*
X145564687Y-55180038D01*
X145564687Y-55180038D02*
X145612306Y-55132419D01*
X145612306Y-55132419D02*
X145612306Y-55227657D01*
X144517068Y-55132419D02*
X143945640Y-55132419D01*
X144231354Y-56132419D02*
X144231354Y-55132419D01*
X143278973Y-55608609D02*
X143612306Y-55608609D01*
X143612306Y-56132419D02*
X143612306Y-55132419D01*
X143612306Y-55132419D02*
X143136116Y-55132419D01*
X142898020Y-55132419D02*
X142326592Y-55132419D01*
X142612306Y-56132419D02*
X142612306Y-55132419D01*
X141231353Y-56132419D02*
X141231353Y-55132419D01*
X140802782Y-55227657D02*
X140755163Y-55180038D01*
X140755163Y-55180038D02*
X140659925Y-55132419D01*
X140659925Y-55132419D02*
X140421830Y-55132419D01*
X140421830Y-55132419D02*
X140326592Y-55180038D01*
X140326592Y-55180038D02*
X140278973Y-55227657D01*
X140278973Y-55227657D02*
X140231354Y-55322895D01*
X140231354Y-55322895D02*
X140231354Y-55418133D01*
X140231354Y-55418133D02*
X140278973Y-55560990D01*
X140278973Y-55560990D02*
X140850401Y-56132419D01*
X140850401Y-56132419D02*
X140231354Y-56132419D01*
X139231354Y-56037180D02*
X139278973Y-56084800D01*
X139278973Y-56084800D02*
X139421830Y-56132419D01*
X139421830Y-56132419D02*
X139517068Y-56132419D01*
X139517068Y-56132419D02*
X139659925Y-56084800D01*
X139659925Y-56084800D02*
X139755163Y-55989561D01*
X139755163Y-55989561D02*
X139802782Y-55894323D01*
X139802782Y-55894323D02*
X139850401Y-55703847D01*
X139850401Y-55703847D02*
X139850401Y-55560990D01*
X139850401Y-55560990D02*
X139802782Y-55370514D01*
X139802782Y-55370514D02*
X139755163Y-55275276D01*
X139755163Y-55275276D02*
X139659925Y-55180038D01*
X139659925Y-55180038D02*
X139517068Y-55132419D01*
X139517068Y-55132419D02*
X139421830Y-55132419D01*
X139421830Y-55132419D02*
X139278973Y-55180038D01*
X139278973Y-55180038D02*
X139231354Y-55227657D01*
X152905639Y-50652419D02*
X152810401Y-50652419D01*
X152810401Y-50652419D02*
X152715163Y-50700038D01*
X152715163Y-50700038D02*
X152667544Y-50747657D01*
X152667544Y-50747657D02*
X152619925Y-50842895D01*
X152619925Y-50842895D02*
X152572306Y-51033371D01*
X152572306Y-51033371D02*
X152572306Y-51271466D01*
X152572306Y-51271466D02*
X152619925Y-51461942D01*
X152619925Y-51461942D02*
X152667544Y-51557180D01*
X152667544Y-51557180D02*
X152715163Y-51604800D01*
X152715163Y-51604800D02*
X152810401Y-51652419D01*
X152810401Y-51652419D02*
X152905639Y-51652419D01*
X152905639Y-51652419D02*
X153000877Y-51604800D01*
X153000877Y-51604800D02*
X153048496Y-51557180D01*
X153048496Y-51557180D02*
X153096115Y-51461942D01*
X153096115Y-51461942D02*
X153143734Y-51271466D01*
X153143734Y-51271466D02*
X153143734Y-51033371D01*
X153143734Y-51033371D02*
X153096115Y-50842895D01*
X153096115Y-50842895D02*
X153048496Y-50747657D01*
X153048496Y-50747657D02*
X153000877Y-50700038D01*
X153000877Y-50700038D02*
X152905639Y-50652419D01*
X152572306Y-53262419D02*
X153143734Y-53262419D01*
X152858020Y-53262419D02*
X152858020Y-52262419D01*
X152858020Y-52262419D02*
X152953258Y-52405276D01*
X152953258Y-52405276D02*
X153048496Y-52500514D01*
X153048496Y-52500514D02*
X153143734Y-52548133D01*
X153143734Y-53967657D02*
X153096115Y-53920038D01*
X153096115Y-53920038D02*
X153000877Y-53872419D01*
X153000877Y-53872419D02*
X152762782Y-53872419D01*
X152762782Y-53872419D02*
X152667544Y-53920038D01*
X152667544Y-53920038D02*
X152619925Y-53967657D01*
X152619925Y-53967657D02*
X152572306Y-54062895D01*
X152572306Y-54062895D02*
X152572306Y-54158133D01*
X152572306Y-54158133D02*
X152619925Y-54300990D01*
X152619925Y-54300990D02*
X153191353Y-54872419D01*
X153191353Y-54872419D02*
X152572306Y-54872419D01*
X153191353Y-55482419D02*
X152572306Y-55482419D01*
X152572306Y-55482419D02*
X152905639Y-55863371D01*
X152905639Y-55863371D02*
X152762782Y-55863371D01*
X152762782Y-55863371D02*
X152667544Y-55910990D01*
X152667544Y-55910990D02*
X152619925Y-55958609D01*
X152619925Y-55958609D02*
X152572306Y-56053847D01*
X152572306Y-56053847D02*
X152572306Y-56291942D01*
X152572306Y-56291942D02*
X152619925Y-56387180D01*
X152619925Y-56387180D02*
X152667544Y-56434800D01*
X152667544Y-56434800D02*
X152762782Y-56482419D01*
X152762782Y-56482419D02*
X153048496Y-56482419D01*
X153048496Y-56482419D02*
X153143734Y-56434800D01*
X153143734Y-56434800D02*
X153191353Y-56387180D01*
X152667544Y-57425752D02*
X152667544Y-58092419D01*
X152905639Y-57044800D02*
X153143734Y-57759085D01*
X153143734Y-57759085D02*
X152524687Y-57759085D01*
X152619925Y-58702419D02*
X153096115Y-58702419D01*
X153096115Y-58702419D02*
X153143734Y-59178609D01*
X153143734Y-59178609D02*
X153096115Y-59130990D01*
X153096115Y-59130990D02*
X153000877Y-59083371D01*
X153000877Y-59083371D02*
X152762782Y-59083371D01*
X152762782Y-59083371D02*
X152667544Y-59130990D01*
X152667544Y-59130990D02*
X152619925Y-59178609D01*
X152619925Y-59178609D02*
X152572306Y-59273847D01*
X152572306Y-59273847D02*
X152572306Y-59511942D01*
X152572306Y-59511942D02*
X152619925Y-59607180D01*
X152619925Y-59607180D02*
X152667544Y-59654800D01*
X152667544Y-59654800D02*
X152762782Y-59702419D01*
X152762782Y-59702419D02*
X153000877Y-59702419D01*
X153000877Y-59702419D02*
X153096115Y-59654800D01*
X153096115Y-59654800D02*
X153143734Y-59607180D01*
X152667544Y-60312419D02*
X152858020Y-60312419D01*
X152858020Y-60312419D02*
X152953258Y-60360038D01*
X152953258Y-60360038D02*
X153000877Y-60407657D01*
X153000877Y-60407657D02*
X153096115Y-60550514D01*
X153096115Y-60550514D02*
X153143734Y-60740990D01*
X153143734Y-60740990D02*
X153143734Y-61121942D01*
X153143734Y-61121942D02*
X153096115Y-61217180D01*
X153096115Y-61217180D02*
X153048496Y-61264800D01*
X153048496Y-61264800D02*
X152953258Y-61312419D01*
X152953258Y-61312419D02*
X152762782Y-61312419D01*
X152762782Y-61312419D02*
X152667544Y-61264800D01*
X152667544Y-61264800D02*
X152619925Y-61217180D01*
X152619925Y-61217180D02*
X152572306Y-61121942D01*
X152572306Y-61121942D02*
X152572306Y-60883847D01*
X152572306Y-60883847D02*
X152619925Y-60788609D01*
X152619925Y-60788609D02*
X152667544Y-60740990D01*
X152667544Y-60740990D02*
X152762782Y-60693371D01*
X152762782Y-60693371D02*
X152953258Y-60693371D01*
X152953258Y-60693371D02*
X153048496Y-60740990D01*
X153048496Y-60740990D02*
X153096115Y-60788609D01*
X153096115Y-60788609D02*
X153143734Y-60883847D01*
X153191353Y-61922419D02*
X152524687Y-61922419D01*
X152524687Y-61922419D02*
X152953258Y-62922419D01*
D11*
X123549148Y-56851379D02*
X124120576Y-56851379D01*
X123834862Y-56851379D02*
X123834862Y-55851379D01*
X123834862Y-55851379D02*
X123930100Y-55994236D01*
X123930100Y-55994236D02*
X124025338Y-56089474D01*
X124025338Y-56089474D02*
X124120576Y-56137093D01*
X122977719Y-56279950D02*
X123072957Y-56232331D01*
X123072957Y-56232331D02*
X123120576Y-56184712D01*
X123120576Y-56184712D02*
X123168195Y-56089474D01*
X123168195Y-56089474D02*
X123168195Y-56041855D01*
X123168195Y-56041855D02*
X123120576Y-55946617D01*
X123120576Y-55946617D02*
X123072957Y-55898998D01*
X123072957Y-55898998D02*
X122977719Y-55851379D01*
X122977719Y-55851379D02*
X122787243Y-55851379D01*
X122787243Y-55851379D02*
X122692005Y-55898998D01*
X122692005Y-55898998D02*
X122644386Y-55946617D01*
X122644386Y-55946617D02*
X122596767Y-56041855D01*
X122596767Y-56041855D02*
X122596767Y-56089474D01*
X122596767Y-56089474D02*
X122644386Y-56184712D01*
X122644386Y-56184712D02*
X122692005Y-56232331D01*
X122692005Y-56232331D02*
X122787243Y-56279950D01*
X122787243Y-56279950D02*
X122977719Y-56279950D01*
X122977719Y-56279950D02*
X123072957Y-56327569D01*
X123072957Y-56327569D02*
X123120576Y-56375188D01*
X123120576Y-56375188D02*
X123168195Y-56470426D01*
X123168195Y-56470426D02*
X123168195Y-56660902D01*
X123168195Y-56660902D02*
X123120576Y-56756140D01*
X123120576Y-56756140D02*
X123072957Y-56803760D01*
X123072957Y-56803760D02*
X122977719Y-56851379D01*
X122977719Y-56851379D02*
X122787243Y-56851379D01*
X122787243Y-56851379D02*
X122692005Y-56803760D01*
X122692005Y-56803760D02*
X122644386Y-56756140D01*
X122644386Y-56756140D02*
X122596767Y-56660902D01*
X122596767Y-56660902D02*
X122596767Y-56470426D01*
X122596767Y-56470426D02*
X122644386Y-56375188D01*
X122644386Y-56375188D02*
X122692005Y-56327569D01*
X122692005Y-56327569D02*
X122787243Y-56279950D01*
D10*
X143868854Y-51640214D02*
X143431121Y-52077947D01*
X143431121Y-52077947D02*
X143936198Y-52111619D01*
X143936198Y-52111619D02*
X143835183Y-52212634D01*
X143835183Y-52212634D02*
X143801511Y-52313649D01*
X143801511Y-52313649D02*
X143801511Y-52380993D01*
X143801511Y-52380993D02*
X143835183Y-52482008D01*
X143835183Y-52482008D02*
X144003541Y-52650367D01*
X144003541Y-52650367D02*
X144104557Y-52684039D01*
X144104557Y-52684039D02*
X144171900Y-52684039D01*
X144171900Y-52684039D02*
X144272915Y-52650367D01*
X144272915Y-52650367D02*
X144474946Y-52448337D01*
X144474946Y-52448337D02*
X144508618Y-52347321D01*
X144508618Y-52347321D02*
X144508618Y-52279978D01*
X143229091Y-52279978D02*
X143700495Y-53222787D01*
X143700495Y-53222787D02*
X142757686Y-52751382D01*
X142589328Y-52919741D02*
X142151595Y-53357474D01*
X142151595Y-53357474D02*
X142656671Y-53391146D01*
X142656671Y-53391146D02*
X142555656Y-53492161D01*
X142555656Y-53492161D02*
X142521984Y-53593176D01*
X142521984Y-53593176D02*
X142521984Y-53660520D01*
X142521984Y-53660520D02*
X142555656Y-53761535D01*
X142555656Y-53761535D02*
X142724015Y-53929894D01*
X142724015Y-53929894D02*
X142825030Y-53963565D01*
X142825030Y-53963565D02*
X142892373Y-53963565D01*
X142892373Y-53963565D02*
X142993389Y-53929894D01*
X142993389Y-53929894D02*
X143195419Y-53727863D01*
X143195419Y-53727863D02*
X143229091Y-53626848D01*
X143229091Y-53626848D02*
X143229091Y-53559504D01*
X148694906Y-52227321D02*
X148627562Y-52362008D01*
X148627562Y-52362008D02*
X148459203Y-52530367D01*
X148459203Y-52530367D02*
X148358188Y-52564039D01*
X148358188Y-52564039D02*
X148290845Y-52564039D01*
X148290845Y-52564039D02*
X148189829Y-52530367D01*
X148189829Y-52530367D02*
X148122486Y-52463024D01*
X148122486Y-52463024D02*
X148088814Y-52362008D01*
X148088814Y-52362008D02*
X148088814Y-52294665D01*
X148088814Y-52294665D02*
X148122486Y-52193649D01*
X148122486Y-52193649D02*
X148223501Y-52025291D01*
X148223501Y-52025291D02*
X148257173Y-51924275D01*
X148257173Y-51924275D02*
X148257173Y-51856932D01*
X148257173Y-51856932D02*
X148223501Y-51755917D01*
X148223501Y-51755917D02*
X148156158Y-51688573D01*
X148156158Y-51688573D02*
X148055142Y-51654901D01*
X148055142Y-51654901D02*
X147987799Y-51654901D01*
X147987799Y-51654901D02*
X147886784Y-51688573D01*
X147886784Y-51688573D02*
X147718425Y-51856932D01*
X147718425Y-51856932D02*
X147651081Y-51991619D01*
X148021470Y-52968100D02*
X147314364Y-52260993D01*
X147314364Y-52260993D02*
X147146005Y-52429352D01*
X147146005Y-52429352D02*
X147078661Y-52564039D01*
X147078661Y-52564039D02*
X147078661Y-52698726D01*
X147078661Y-52698726D02*
X147112333Y-52799741D01*
X147112333Y-52799741D02*
X147213348Y-52968100D01*
X147213348Y-52968100D02*
X147314364Y-53069115D01*
X147314364Y-53069115D02*
X147482722Y-53170130D01*
X147482722Y-53170130D02*
X147583738Y-53203802D01*
X147583738Y-53203802D02*
X147718425Y-53203802D01*
X147718425Y-53203802D02*
X147853112Y-53136459D01*
X147853112Y-53136459D02*
X148021470Y-52968100D01*
X147146005Y-53439504D02*
X146809287Y-53776222D01*
X147415379Y-53574191D02*
X146472570Y-53102787D01*
X146472570Y-53102787D02*
X146943974Y-54045596D01*
D11*
X163919148Y-72851379D02*
X164490576Y-72851379D01*
X164204862Y-72851379D02*
X164204862Y-71851379D01*
X164204862Y-71851379D02*
X164300100Y-71994236D01*
X164300100Y-71994236D02*
X164395338Y-72089474D01*
X164395338Y-72089474D02*
X164490576Y-72137093D01*
X163442957Y-72851379D02*
X163252481Y-72851379D01*
X163252481Y-72851379D02*
X163157243Y-72803760D01*
X163157243Y-72803760D02*
X163109624Y-72756140D01*
X163109624Y-72756140D02*
X163014386Y-72613283D01*
X163014386Y-72613283D02*
X162966767Y-72422807D01*
X162966767Y-72422807D02*
X162966767Y-72041855D01*
X162966767Y-72041855D02*
X163014386Y-71946617D01*
X163014386Y-71946617D02*
X163062005Y-71898998D01*
X163062005Y-71898998D02*
X163157243Y-71851379D01*
X163157243Y-71851379D02*
X163347719Y-71851379D01*
X163347719Y-71851379D02*
X163442957Y-71898998D01*
X163442957Y-71898998D02*
X163490576Y-71946617D01*
X163490576Y-71946617D02*
X163538195Y-72041855D01*
X163538195Y-72041855D02*
X163538195Y-72279950D01*
X163538195Y-72279950D02*
X163490576Y-72375188D01*
X163490576Y-72375188D02*
X163442957Y-72422807D01*
X163442957Y-72422807D02*
X163347719Y-72470426D01*
X163347719Y-72470426D02*
X163157243Y-72470426D01*
X163157243Y-72470426D02*
X163062005Y-72422807D01*
X163062005Y-72422807D02*
X163014386Y-72375188D01*
X163014386Y-72375188D02*
X162966767Y-72279950D01*
D12*
G36*
X161793471Y-76130357D02*
G01*
X161818140Y-76155025D01*
X161847945Y-76214635D01*
X161847945Y-76453135D01*
X161818140Y-76512743D01*
X161793471Y-76537413D01*
X161733862Y-76567219D01*
X161590600Y-76567219D01*
X161571755Y-76557796D01*
X161571755Y-76109974D01*
X161590600Y-76100552D01*
X161733862Y-76100552D01*
X161793471Y-76130357D01*
G37*
G36*
X135466992Y-76109974D02*
G01*
X135466992Y-76557796D01*
X135448147Y-76567219D01*
X135304885Y-76567219D01*
X135245275Y-76537414D01*
X135220608Y-76512746D01*
X135190802Y-76453134D01*
X135190802Y-76214635D01*
X135220607Y-76155025D01*
X135245275Y-76130356D01*
X135304885Y-76100552D01*
X135448147Y-76100552D01*
X135466992Y-76109974D01*
G37*
G36*
X139079185Y-76177976D02*
G01*
X139103854Y-76202644D01*
X139133659Y-76262254D01*
X139133659Y-76453135D01*
X139103854Y-76512743D01*
X139079185Y-76537413D01*
X139019576Y-76567219D01*
X138876314Y-76567219D01*
X138816704Y-76537414D01*
X138792037Y-76512746D01*
X138762231Y-76453134D01*
X138762231Y-76262254D01*
X138792036Y-76202644D01*
X138816704Y-76177975D01*
X138876314Y-76148171D01*
X139019576Y-76148171D01*
X139079185Y-76177976D01*
G37*
G36*
X146825790Y-76122707D02*
G01*
X146847945Y-76167016D01*
X146847945Y-76211904D01*
X146576459Y-76157607D01*
X146593910Y-76122706D01*
X146638219Y-76100552D01*
X146781481Y-76100552D01*
X146825790Y-76122707D01*
G37*
G36*
X147705088Y-76109974D02*
G01*
X147705088Y-76557796D01*
X147686243Y-76567219D01*
X147542981Y-76567219D01*
X147483371Y-76537414D01*
X147458704Y-76512746D01*
X147428898Y-76453134D01*
X147428898Y-76214635D01*
X147458703Y-76155025D01*
X147483371Y-76130356D01*
X147542981Y-76100552D01*
X147686243Y-76100552D01*
X147705088Y-76109974D01*
G37*
G36*
X151206743Y-76408421D02*
G01*
X151228898Y-76452730D01*
X151228898Y-76500754D01*
X151206743Y-76545063D01*
X151162434Y-76567219D01*
X150971553Y-76567219D01*
X150952708Y-76557796D01*
X150952708Y-76386266D01*
X151162434Y-76386266D01*
X151206743Y-76408421D01*
G37*
G36*
X155793471Y-76130357D02*
G01*
X155818140Y-76155025D01*
X155847945Y-76214635D01*
X155847945Y-76453135D01*
X155818140Y-76512743D01*
X155793471Y-76537413D01*
X155733862Y-76567219D01*
X155638219Y-76567219D01*
X155578609Y-76537414D01*
X155553942Y-76512746D01*
X155524136Y-76453134D01*
X155524136Y-76214635D01*
X155553941Y-76155025D01*
X155578609Y-76130356D01*
X155638219Y-76100552D01*
X155733862Y-76100552D01*
X155793471Y-76130357D01*
G37*
G36*
X158038421Y-76109974D02*
G01*
X158038421Y-76557796D01*
X158019576Y-76567219D01*
X157876314Y-76567219D01*
X157816704Y-76537414D01*
X157792037Y-76512746D01*
X157762231Y-76453134D01*
X157762231Y-76214635D01*
X157792036Y-76155025D01*
X157816704Y-76130356D01*
X157876314Y-76100552D01*
X158019576Y-76100552D01*
X158038421Y-76109974D01*
G37*
G36*
X162190802Y-77243409D02*
G01*
X134847945Y-77243409D01*
X134847945Y-76476742D01*
X134990802Y-76476742D01*
X134997925Y-76498665D01*
X135001359Y-76521463D01*
X135048978Y-76616701D01*
X135060351Y-76628248D01*
X135067710Y-76642690D01*
X135115328Y-76690310D01*
X135129771Y-76697669D01*
X135141319Y-76709043D01*
X135236556Y-76756662D01*
X135259354Y-76760095D01*
X135281278Y-76767219D01*
X135466992Y-76767219D01*
X135466992Y-77000552D01*
X135486090Y-77059331D01*
X135536090Y-77095658D01*
X135597894Y-77095658D01*
X135647894Y-77059331D01*
X135666992Y-77000552D01*
X135666992Y-76682112D01*
X135849060Y-76682112D01*
X135876699Y-76737391D01*
X135931552Y-76765867D01*
X135992666Y-76756662D01*
X136087904Y-76709043D01*
X136088470Y-76708484D01*
X136089258Y-76708354D01*
X136110451Y-76686835D01*
X136130368Y-76667219D01*
X136466993Y-76667219D01*
X136486091Y-76725998D01*
X136536091Y-76762325D01*
X136597895Y-76762325D01*
X136629919Y-76739057D01*
X136665128Y-76756662D01*
X136687926Y-76760095D01*
X136709850Y-76767219D01*
X136852707Y-76767219D01*
X136874630Y-76760095D01*
X136897428Y-76756662D01*
X136992666Y-76709043D01*
X136993232Y-76708484D01*
X136994020Y-76708354D01*
X137015213Y-76686835D01*
X137036699Y-76665674D01*
X137036829Y-76664887D01*
X137037388Y-76664321D01*
X137085007Y-76569082D01*
X137088440Y-76546284D01*
X137095564Y-76524361D01*
X137095564Y-76476742D01*
X138562231Y-76476742D01*
X138569354Y-76498665D01*
X138572788Y-76521463D01*
X138620407Y-76616701D01*
X138631780Y-76628248D01*
X138639139Y-76642690D01*
X138686757Y-76690310D01*
X138701200Y-76697669D01*
X138712748Y-76709043D01*
X138807985Y-76756662D01*
X138830783Y-76760095D01*
X138852707Y-76767219D01*
X139043183Y-76767219D01*
X139065106Y-76760095D01*
X139087904Y-76756662D01*
X139183142Y-76709043D01*
X139194690Y-76697668D01*
X139209132Y-76690310D01*
X139256751Y-76642690D01*
X139264108Y-76628249D01*
X139275483Y-76616701D01*
X139290023Y-76587622D01*
X139515842Y-76587622D01*
X139543901Y-76642690D01*
X139591519Y-76690310D01*
X139612061Y-76700776D01*
X139630608Y-76714468D01*
X139773465Y-76762087D01*
X139789672Y-76762210D01*
X139805088Y-76767219D01*
X139900326Y-76767219D01*
X139915741Y-76762210D01*
X139931949Y-76762087D01*
X140074805Y-76714468D01*
X140093352Y-76700776D01*
X140113894Y-76690310D01*
X140136985Y-76667219D01*
X141800326Y-76667219D01*
X141819424Y-76725998D01*
X141869424Y-76762325D01*
X141931228Y-76762325D01*
X141981228Y-76725998D01*
X142000326Y-76667219D01*
X142000326Y-76243409D01*
X142371754Y-76243409D01*
X142371754Y-76667219D01*
X142390852Y-76725998D01*
X142440852Y-76762325D01*
X142502656Y-76762325D01*
X142552656Y-76725998D01*
X142571754Y-76667219D01*
X142571754Y-75667219D01*
X142554972Y-75615569D01*
X142705169Y-75615569D01*
X142721883Y-75675070D01*
X143579025Y-76960784D01*
X143627520Y-76999098D01*
X143689274Y-77001589D01*
X143740698Y-76967306D01*
X143762150Y-76909345D01*
X143745435Y-76849844D01*
X143623685Y-76667219D01*
X143895564Y-76667219D01*
X143914662Y-76725998D01*
X143964662Y-76762325D01*
X144026466Y-76762325D01*
X144076466Y-76725998D01*
X144095564Y-76667219D01*
X144095564Y-76167016D01*
X144117719Y-76122706D01*
X144162028Y-76100552D01*
X144257671Y-76100552D01*
X144317280Y-76130357D01*
X144324135Y-76137211D01*
X144324135Y-76667219D01*
X144343233Y-76725998D01*
X144393233Y-76762325D01*
X144455037Y-76762325D01*
X144505037Y-76725998D01*
X144524135Y-76667219D01*
X144800325Y-76667219D01*
X144819423Y-76725998D01*
X144869423Y-76762325D01*
X144931227Y-76762325D01*
X144981227Y-76725998D01*
X144995486Y-76682112D01*
X145182393Y-76682112D01*
X145210032Y-76737391D01*
X145264885Y-76765867D01*
X145325999Y-76756662D01*
X145421237Y-76709043D01*
X145421803Y-76708484D01*
X145422591Y-76708354D01*
X145443784Y-76686835D01*
X145465270Y-76665674D01*
X145465400Y-76664887D01*
X145465959Y-76664321D01*
X145513578Y-76569082D01*
X145517011Y-76546284D01*
X145524135Y-76524361D01*
X145524135Y-76031454D01*
X145662363Y-76031454D01*
X145698690Y-76081454D01*
X145757469Y-76100552D01*
X145829100Y-76100552D01*
X145888709Y-76130357D01*
X145913378Y-76155025D01*
X145943183Y-76214635D01*
X145943183Y-76667219D01*
X145962281Y-76725998D01*
X146012281Y-76762325D01*
X146074085Y-76762325D01*
X146124085Y-76725998D01*
X146143183Y-76667219D01*
X146143183Y-76238647D01*
X146371755Y-76238647D01*
X146373618Y-76244383D01*
X146372436Y-76250297D01*
X146383021Y-76273322D01*
X146390853Y-76297426D01*
X146395732Y-76300970D01*
X146398251Y-76306450D01*
X146420347Y-76318855D01*
X146440853Y-76333753D01*
X146446885Y-76333753D01*
X146452143Y-76336705D01*
X146847945Y-76415865D01*
X146847945Y-76500754D01*
X146825790Y-76545063D01*
X146781481Y-76567219D01*
X146638219Y-76567219D01*
X146564095Y-76530157D01*
X146502981Y-76520952D01*
X146448128Y-76549428D01*
X146420489Y-76604707D01*
X146430620Y-76665674D01*
X146474653Y-76709043D01*
X146569890Y-76756662D01*
X146592688Y-76760095D01*
X146614612Y-76767219D01*
X146805088Y-76767219D01*
X146827011Y-76760095D01*
X146849809Y-76756662D01*
X146945047Y-76709043D01*
X146945613Y-76708484D01*
X146946401Y-76708354D01*
X146967594Y-76686835D01*
X146989080Y-76665674D01*
X146989210Y-76664887D01*
X146989769Y-76664321D01*
X147037388Y-76569082D01*
X147040821Y-76546284D01*
X147047945Y-76524361D01*
X147047945Y-76476742D01*
X147228898Y-76476742D01*
X147236021Y-76498665D01*
X147239455Y-76521463D01*
X147287074Y-76616701D01*
X147298447Y-76628248D01*
X147305806Y-76642690D01*
X147353424Y-76690310D01*
X147367867Y-76697669D01*
X147379415Y-76709043D01*
X147474652Y-76756662D01*
X147497450Y-76760095D01*
X147519374Y-76767219D01*
X147709850Y-76767219D01*
X147731773Y-76760095D01*
X147754571Y-76756662D01*
X147761572Y-76753161D01*
X147774186Y-76762325D01*
X147835990Y-76762325D01*
X147885990Y-76725998D01*
X147905088Y-76667219D01*
X148181279Y-76667219D01*
X148200377Y-76725998D01*
X148250377Y-76762325D01*
X148312181Y-76762325D01*
X148362181Y-76725998D01*
X148381279Y-76667219D01*
X148381279Y-76167016D01*
X148403434Y-76122706D01*
X148447743Y-76100552D01*
X148543386Y-76100552D01*
X148602995Y-76130357D01*
X148609850Y-76137211D01*
X148609850Y-76667219D01*
X148628948Y-76725998D01*
X148678948Y-76762325D01*
X148740752Y-76762325D01*
X148790752Y-76725998D01*
X148809850Y-76667219D01*
X149086040Y-76667219D01*
X149105138Y-76725998D01*
X149155138Y-76762325D01*
X149216942Y-76762325D01*
X149266942Y-76725998D01*
X149276000Y-76698121D01*
X149424268Y-76698121D01*
X149460595Y-76748121D01*
X149519374Y-76767219D01*
X149614612Y-76767219D01*
X149636535Y-76760095D01*
X149659333Y-76756662D01*
X149754571Y-76709043D01*
X149755137Y-76708484D01*
X149755925Y-76708354D01*
X149777118Y-76686835D01*
X149798604Y-76665674D01*
X149798734Y-76664887D01*
X149799293Y-76664321D01*
X149846912Y-76569082D01*
X149850345Y-76546284D01*
X149857469Y-76524361D01*
X149857469Y-76100552D01*
X149900326Y-76100552D01*
X149959105Y-76081454D01*
X149995432Y-76031454D01*
X149995697Y-76031454D01*
X150032024Y-76081454D01*
X150090803Y-76100552D01*
X150162434Y-76100552D01*
X150222043Y-76130357D01*
X150246712Y-76155025D01*
X150276517Y-76214635D01*
X150276517Y-76667219D01*
X150295615Y-76725998D01*
X150345615Y-76762325D01*
X150407419Y-76762325D01*
X150457419Y-76725998D01*
X150476517Y-76667219D01*
X150752708Y-76667219D01*
X150771806Y-76725998D01*
X150821806Y-76762325D01*
X150883610Y-76762325D01*
X150896222Y-76753161D01*
X150903224Y-76756662D01*
X150926022Y-76760095D01*
X150947946Y-76767219D01*
X151186041Y-76767219D01*
X151207964Y-76760095D01*
X151230762Y-76756662D01*
X151326000Y-76709043D01*
X151326566Y-76708484D01*
X151327354Y-76708354D01*
X151348547Y-76686835D01*
X151368464Y-76667219D01*
X151657469Y-76667219D01*
X151676567Y-76725998D01*
X151726567Y-76762325D01*
X151788371Y-76762325D01*
X151838371Y-76725998D01*
X151857469Y-76667219D01*
X151857469Y-76167016D01*
X151879624Y-76122706D01*
X151923934Y-76100552D01*
X152019577Y-76100552D01*
X152063886Y-76122707D01*
X152086041Y-76167016D01*
X152086041Y-76667219D01*
X152105139Y-76725998D01*
X152155139Y-76762325D01*
X152216943Y-76762325D01*
X152266943Y-76725998D01*
X152286041Y-76667219D01*
X152286041Y-76167016D01*
X152308196Y-76122706D01*
X152352505Y-76100552D01*
X152448148Y-76100552D01*
X152507757Y-76130357D01*
X152514612Y-76137211D01*
X152514612Y-76667219D01*
X152533710Y-76725998D01*
X152583710Y-76762325D01*
X152645514Y-76762325D01*
X152695514Y-76725998D01*
X152714612Y-76667219D01*
X152714612Y-76000552D01*
X152695514Y-75941773D01*
X152645514Y-75905446D01*
X152583710Y-75905446D01*
X152551684Y-75928713D01*
X152516476Y-75911109D01*
X152493678Y-75907675D01*
X152471755Y-75900552D01*
X152328898Y-75900552D01*
X152306974Y-75907675D01*
X152284176Y-75911109D01*
X152188939Y-75958728D01*
X152188372Y-75959286D01*
X152187586Y-75959417D01*
X152186041Y-75960985D01*
X152184496Y-75959417D01*
X152183709Y-75959286D01*
X152183143Y-75958728D01*
X152087905Y-75911109D01*
X152065107Y-75907675D01*
X152043184Y-75900552D01*
X151900327Y-75900552D01*
X151878403Y-75907675D01*
X151855606Y-75911109D01*
X151760367Y-75958728D01*
X151759800Y-75959286D01*
X151759014Y-75959417D01*
X151737852Y-75980902D01*
X151716334Y-76002096D01*
X151716203Y-76002883D01*
X151715645Y-76003450D01*
X151668026Y-76098688D01*
X151664592Y-76121485D01*
X151657469Y-76143409D01*
X151657469Y-76667219D01*
X151368464Y-76667219D01*
X151370033Y-76665674D01*
X151370163Y-76664887D01*
X151370722Y-76664321D01*
X151418341Y-76569082D01*
X151421774Y-76546284D01*
X151428898Y-76524361D01*
X151428898Y-76429123D01*
X151421774Y-76407199D01*
X151418341Y-76384401D01*
X151370722Y-76289164D01*
X151370163Y-76288597D01*
X151370033Y-76287811D01*
X151348530Y-76266633D01*
X151327353Y-76245131D01*
X151326566Y-76245000D01*
X151326000Y-76244442D01*
X151230762Y-76196823D01*
X151207964Y-76193389D01*
X151186041Y-76186266D01*
X150971553Y-76186266D01*
X150952708Y-76176843D01*
X150952708Y-76167016D01*
X150974863Y-76122706D01*
X151019172Y-76100552D01*
X151162434Y-76100552D01*
X151236557Y-76137614D01*
X151297672Y-76146819D01*
X151352524Y-76118343D01*
X151380164Y-76063064D01*
X151370033Y-76002097D01*
X151326000Y-75958728D01*
X151230762Y-75911109D01*
X151207964Y-75907675D01*
X151186041Y-75900552D01*
X150995565Y-75900552D01*
X150973641Y-75907675D01*
X150950843Y-75911109D01*
X150855606Y-75958728D01*
X150855039Y-75959286D01*
X150854253Y-75959417D01*
X150833075Y-75980919D01*
X150811573Y-76002097D01*
X150811442Y-76002883D01*
X150810884Y-76003450D01*
X150763265Y-76098688D01*
X150759831Y-76121485D01*
X150752708Y-76143409D01*
X150752708Y-76667219D01*
X150476517Y-76667219D01*
X150476517Y-76000552D01*
X150457419Y-75941773D01*
X150407419Y-75905446D01*
X150345615Y-75905446D01*
X150295615Y-75941773D01*
X150295122Y-75943289D01*
X150230762Y-75911109D01*
X150207964Y-75907675D01*
X150186041Y-75900552D01*
X150090803Y-75900552D01*
X150032024Y-75919650D01*
X149995697Y-75969650D01*
X149995697Y-76031454D01*
X149995432Y-76031454D01*
X149995432Y-75969650D01*
X149959105Y-75919650D01*
X149900326Y-75900552D01*
X149857469Y-75900552D01*
X149857469Y-75667219D01*
X149840687Y-75615569D01*
X152848027Y-75615569D01*
X152864741Y-75675070D01*
X153721883Y-76960784D01*
X153770378Y-76999098D01*
X153832132Y-77001589D01*
X153883556Y-76967306D01*
X153905008Y-76909345D01*
X153888293Y-76849844D01*
X153861781Y-76810076D01*
X161371755Y-76810076D01*
X161378878Y-76831999D01*
X161382312Y-76854797D01*
X161429931Y-76950035D01*
X161441304Y-76961582D01*
X161448663Y-76976025D01*
X161496282Y-77023643D01*
X161510723Y-77031001D01*
X161522272Y-77042376D01*
X161617509Y-77089995D01*
X161640307Y-77093428D01*
X161662231Y-77100552D01*
X161805088Y-77100552D01*
X161827011Y-77093428D01*
X161849809Y-77089995D01*
X161945047Y-77042376D01*
X161989080Y-76999007D01*
X161999211Y-76938040D01*
X161971571Y-76882761D01*
X161916719Y-76854285D01*
X161855604Y-76863490D01*
X161781481Y-76900552D01*
X161685838Y-76900552D01*
X161626228Y-76870747D01*
X161601560Y-76846078D01*
X161571755Y-76786468D01*
X161571755Y-76767219D01*
X161757469Y-76767219D01*
X161779392Y-76760095D01*
X161802190Y-76756662D01*
X161897428Y-76709043D01*
X161908976Y-76697668D01*
X161923418Y-76690310D01*
X161971037Y-76642690D01*
X161978394Y-76628249D01*
X161989769Y-76616701D01*
X162037388Y-76521464D01*
X162040821Y-76498665D01*
X162047945Y-76476742D01*
X162047945Y-76191028D01*
X162040821Y-76169104D01*
X162037388Y-76146306D01*
X161989769Y-76051069D01*
X161978394Y-76039520D01*
X161971036Y-76025079D01*
X161923418Y-75977460D01*
X161908975Y-75970101D01*
X161897428Y-75958728D01*
X161802190Y-75911109D01*
X161779392Y-75907675D01*
X161757469Y-75900552D01*
X161566993Y-75900552D01*
X161545069Y-75907675D01*
X161522271Y-75911109D01*
X161515269Y-75914609D01*
X161502657Y-75905446D01*
X161440853Y-75905446D01*
X161390853Y-75941773D01*
X161371755Y-76000552D01*
X161371755Y-76810076D01*
X153861781Y-76810076D01*
X153766543Y-76667219D01*
X154038421Y-76667219D01*
X154057519Y-76725998D01*
X154107519Y-76762325D01*
X154169323Y-76762325D01*
X154219323Y-76725998D01*
X154238421Y-76667219D01*
X154238421Y-76167016D01*
X154260576Y-76122706D01*
X154304886Y-76100552D01*
X154400529Y-76100552D01*
X154444838Y-76122707D01*
X154466993Y-76167016D01*
X154466993Y-76667219D01*
X154486091Y-76725998D01*
X154536091Y-76762325D01*
X154597895Y-76762325D01*
X154647895Y-76725998D01*
X154666993Y-76667219D01*
X154666993Y-76167016D01*
X154689148Y-76122706D01*
X154733457Y-76100552D01*
X154829100Y-76100552D01*
X154888709Y-76130357D01*
X154895564Y-76137211D01*
X154895564Y-76667219D01*
X154914662Y-76725998D01*
X154964662Y-76762325D01*
X155026466Y-76762325D01*
X155076466Y-76725998D01*
X155095564Y-76667219D01*
X155095564Y-76476742D01*
X155324136Y-76476742D01*
X155331259Y-76498665D01*
X155334693Y-76521463D01*
X155382312Y-76616701D01*
X155393685Y-76628248D01*
X155401044Y-76642690D01*
X155448662Y-76690310D01*
X155463105Y-76697669D01*
X155474653Y-76709043D01*
X155569890Y-76756662D01*
X155592688Y-76760095D01*
X155614612Y-76767219D01*
X155757469Y-76767219D01*
X155779392Y-76760095D01*
X155802190Y-76756662D01*
X155897428Y-76709043D01*
X155908976Y-76697668D01*
X155923418Y-76690310D01*
X155971037Y-76642690D01*
X155978394Y-76628249D01*
X155989769Y-76616701D01*
X155995766Y-76604707D01*
X156230013Y-76604707D01*
X156240144Y-76665674D01*
X156284177Y-76709043D01*
X156379414Y-76756662D01*
X156402212Y-76760095D01*
X156424136Y-76767219D01*
X156614612Y-76767219D01*
X156636535Y-76760095D01*
X156659333Y-76756662D01*
X156754571Y-76709043D01*
X156766119Y-76697668D01*
X156780561Y-76690310D01*
X156828180Y-76642690D01*
X156835537Y-76628249D01*
X156846912Y-76616701D01*
X156853284Y-76603958D01*
X157087270Y-76603958D01*
X157089748Y-76619602D01*
X157087271Y-76635243D01*
X157094460Y-76649353D01*
X157096939Y-76665000D01*
X157108139Y-76676199D01*
X157115329Y-76690311D01*
X157162948Y-76737929D01*
X157177059Y-76745119D01*
X157188260Y-76756320D01*
X157196229Y-76757582D01*
X157202757Y-76762325D01*
X157210826Y-76762325D01*
X157218015Y-76765988D01*
X157233658Y-76763510D01*
X157249302Y-76765988D01*
X157256491Y-76762325D01*
X157264561Y-76762325D01*
X157271089Y-76757582D01*
X157279058Y-76756320D01*
X157290257Y-76745120D01*
X157304370Y-76737930D01*
X157351988Y-76690311D01*
X157359177Y-76676200D01*
X157370379Y-76665000D01*
X157372856Y-76649354D01*
X157380047Y-76635244D01*
X157377569Y-76619600D01*
X157380047Y-76603958D01*
X157372856Y-76589846D01*
X157370379Y-76574201D01*
X157359178Y-76563000D01*
X157351989Y-76548890D01*
X157304370Y-76501270D01*
X157290257Y-76494079D01*
X157279057Y-76482879D01*
X157271089Y-76481617D01*
X157264561Y-76476874D01*
X157256492Y-76476874D01*
X157256233Y-76476742D01*
X157562231Y-76476742D01*
X157569354Y-76498665D01*
X157572788Y-76521463D01*
X157620407Y-76616701D01*
X157631780Y-76628248D01*
X157639139Y-76642690D01*
X157686757Y-76690310D01*
X157701200Y-76697669D01*
X157712748Y-76709043D01*
X157807985Y-76756662D01*
X157830783Y-76760095D01*
X157852707Y-76767219D01*
X158043183Y-76767219D01*
X158065106Y-76760095D01*
X158087904Y-76756662D01*
X158094905Y-76753161D01*
X158107519Y-76762325D01*
X158169323Y-76762325D01*
X158219323Y-76725998D01*
X158238421Y-76667219D01*
X158514612Y-76667219D01*
X158533710Y-76725998D01*
X158583710Y-76762325D01*
X158645514Y-76762325D01*
X158677538Y-76739057D01*
X158712747Y-76756662D01*
X158735545Y-76760095D01*
X158757469Y-76767219D01*
X158900326Y-76767219D01*
X158922249Y-76760095D01*
X158945047Y-76756662D01*
X159040285Y-76709043D01*
X159040851Y-76708484D01*
X159041639Y-76708354D01*
X159062832Y-76686835D01*
X159082749Y-76667219D01*
X159419374Y-76667219D01*
X159438472Y-76725998D01*
X159488472Y-76762325D01*
X159550276Y-76762325D01*
X159600276Y-76725998D01*
X159619374Y-76667219D01*
X159619374Y-76167016D01*
X159641529Y-76122706D01*
X159685838Y-76100552D01*
X159781481Y-76100552D01*
X159841090Y-76130357D01*
X159847945Y-76137211D01*
X159847945Y-76667219D01*
X159867043Y-76725998D01*
X159917043Y-76762325D01*
X159978847Y-76762325D01*
X160028847Y-76725998D01*
X160037905Y-76698121D01*
X160186173Y-76698121D01*
X160222500Y-76748121D01*
X160281279Y-76767219D01*
X160376517Y-76767219D01*
X160398440Y-76760095D01*
X160421238Y-76756662D01*
X160516476Y-76709043D01*
X160517042Y-76708484D01*
X160517830Y-76708354D01*
X160539023Y-76686835D01*
X160558940Y-76667219D01*
X160895564Y-76667219D01*
X160914662Y-76725998D01*
X160964662Y-76762325D01*
X161026466Y-76762325D01*
X161076466Y-76725998D01*
X161095564Y-76667219D01*
X161095564Y-76000552D01*
X161076466Y-75941773D01*
X161026466Y-75905446D01*
X160964662Y-75905446D01*
X160914662Y-75941773D01*
X160895564Y-76000552D01*
X160895564Y-76667219D01*
X160558940Y-76667219D01*
X160560509Y-76665674D01*
X160560639Y-76664887D01*
X160561198Y-76664321D01*
X160608817Y-76569082D01*
X160612250Y-76546284D01*
X160619374Y-76524361D01*
X160619374Y-76100552D01*
X160662231Y-76100552D01*
X160721010Y-76081454D01*
X160757337Y-76031454D01*
X160757337Y-75969650D01*
X160721010Y-75919650D01*
X160662231Y-75900552D01*
X160619374Y-75900552D01*
X160619374Y-75730481D01*
X160849176Y-75730481D01*
X160856366Y-75744592D01*
X160858844Y-75760237D01*
X160870043Y-75771436D01*
X160877234Y-75785549D01*
X160924853Y-75833167D01*
X160938964Y-75840357D01*
X160950165Y-75851558D01*
X160958134Y-75852820D01*
X160964662Y-75857563D01*
X160972731Y-75857563D01*
X160979920Y-75861226D01*
X160995563Y-75858748D01*
X161011207Y-75861226D01*
X161018396Y-75857563D01*
X161026466Y-75857563D01*
X161032994Y-75852820D01*
X161040963Y-75851558D01*
X161052162Y-75840358D01*
X161066275Y-75833168D01*
X161113893Y-75785549D01*
X161121083Y-75771437D01*
X161132284Y-75760237D01*
X161134761Y-75744593D01*
X161141952Y-75730482D01*
X161139474Y-75714838D01*
X161141952Y-75699194D01*
X161134761Y-75685082D01*
X161132284Y-75669439D01*
X161121083Y-75658238D01*
X161113893Y-75644127D01*
X161066275Y-75596508D01*
X161052162Y-75589317D01*
X161040963Y-75578118D01*
X161032994Y-75576855D01*
X161026466Y-75572113D01*
X161018396Y-75572113D01*
X161011207Y-75568450D01*
X160995563Y-75570927D01*
X160979920Y-75568450D01*
X160972731Y-75572113D01*
X160964662Y-75572113D01*
X160958134Y-75576855D01*
X160950165Y-75578118D01*
X160938964Y-75589318D01*
X160924853Y-75596509D01*
X160877234Y-75644127D01*
X160870043Y-75658239D01*
X160858844Y-75669439D01*
X160856366Y-75685083D01*
X160849176Y-75699195D01*
X160851653Y-75714838D01*
X160849176Y-75730481D01*
X160619374Y-75730481D01*
X160619374Y-75667219D01*
X160600276Y-75608440D01*
X160550276Y-75572113D01*
X160488472Y-75572113D01*
X160438472Y-75608440D01*
X160419374Y-75667219D01*
X160419374Y-75900552D01*
X160281279Y-75900552D01*
X160222500Y-75919650D01*
X160186173Y-75969650D01*
X160186173Y-76031454D01*
X160222500Y-76081454D01*
X160281279Y-76100552D01*
X160419374Y-76100552D01*
X160419374Y-76500754D01*
X160397219Y-76545063D01*
X160352910Y-76567219D01*
X160281279Y-76567219D01*
X160222500Y-76586317D01*
X160186173Y-76636317D01*
X160186173Y-76698121D01*
X160037905Y-76698121D01*
X160047945Y-76667219D01*
X160047945Y-75667219D01*
X160028847Y-75608440D01*
X159978847Y-75572113D01*
X159917043Y-75572113D01*
X159867043Y-75608440D01*
X159847945Y-75667219D01*
X159847945Y-75910828D01*
X159827011Y-75907675D01*
X159805088Y-75900552D01*
X159662231Y-75900552D01*
X159640307Y-75907675D01*
X159617509Y-75911109D01*
X159522272Y-75958728D01*
X159521705Y-75959286D01*
X159520919Y-75959417D01*
X159499741Y-75980919D01*
X159478239Y-76002097D01*
X159478108Y-76002883D01*
X159477550Y-76003450D01*
X159429931Y-76098688D01*
X159426497Y-76121485D01*
X159419374Y-76143409D01*
X159419374Y-76667219D01*
X159082749Y-76667219D01*
X159084318Y-76665674D01*
X159084448Y-76664887D01*
X159085007Y-76664321D01*
X159132626Y-76569082D01*
X159136059Y-76546284D01*
X159143183Y-76524361D01*
X159143183Y-76000552D01*
X159124085Y-75941773D01*
X159074085Y-75905446D01*
X159012281Y-75905446D01*
X158962281Y-75941773D01*
X158943183Y-76000552D01*
X158943183Y-76500754D01*
X158921028Y-76545063D01*
X158876719Y-76567219D01*
X158781076Y-76567219D01*
X158721466Y-76537414D01*
X158714612Y-76530559D01*
X158714612Y-76000552D01*
X158695514Y-75941773D01*
X158645514Y-75905446D01*
X158583710Y-75905446D01*
X158533710Y-75941773D01*
X158514612Y-76000552D01*
X158514612Y-76667219D01*
X158238421Y-76667219D01*
X158238421Y-75667219D01*
X158219323Y-75608440D01*
X158169323Y-75572113D01*
X158107519Y-75572113D01*
X158057519Y-75608440D01*
X158038421Y-75667219D01*
X158038421Y-75900552D01*
X157852707Y-75900552D01*
X157830783Y-75907675D01*
X157807985Y-75911109D01*
X157712748Y-75958728D01*
X157701199Y-75970102D01*
X157686758Y-75977461D01*
X157639139Y-76025079D01*
X157631780Y-76039521D01*
X157620407Y-76051069D01*
X157572788Y-76146307D01*
X157569354Y-76169104D01*
X157562231Y-76191028D01*
X157562231Y-76476742D01*
X157256233Y-76476742D01*
X157249303Y-76473211D01*
X157233658Y-76475688D01*
X157218015Y-76473211D01*
X157210826Y-76476874D01*
X157202757Y-76476874D01*
X157196230Y-76481615D01*
X157188261Y-76482878D01*
X157177059Y-76494079D01*
X157162947Y-76501270D01*
X157115329Y-76548890D01*
X157108138Y-76563001D01*
X157096939Y-76574201D01*
X157094461Y-76589844D01*
X157087270Y-76603958D01*
X156853284Y-76603958D01*
X156894531Y-76521464D01*
X156897964Y-76498665D01*
X156905088Y-76476742D01*
X156905088Y-76191028D01*
X156897964Y-76169104D01*
X156894531Y-76146306D01*
X156846912Y-76051069D01*
X156835537Y-76039520D01*
X156828179Y-76025079D01*
X156780561Y-75977460D01*
X156766118Y-75970101D01*
X156754571Y-75958728D01*
X156659333Y-75911109D01*
X156636535Y-75907675D01*
X156614612Y-75900552D01*
X156424136Y-75900552D01*
X156402212Y-75907675D01*
X156379414Y-75911109D01*
X156284177Y-75958728D01*
X156240144Y-76002097D01*
X156230013Y-76063064D01*
X156257652Y-76118343D01*
X156312505Y-76146819D01*
X156373619Y-76137614D01*
X156447743Y-76100552D01*
X156591005Y-76100552D01*
X156650614Y-76130357D01*
X156675283Y-76155025D01*
X156705088Y-76214635D01*
X156705088Y-76453135D01*
X156675283Y-76512743D01*
X156650614Y-76537413D01*
X156591005Y-76567219D01*
X156447743Y-76567219D01*
X156373619Y-76530157D01*
X156312505Y-76520952D01*
X156257652Y-76549428D01*
X156230013Y-76604707D01*
X155995766Y-76604707D01*
X156037388Y-76521464D01*
X156040821Y-76498665D01*
X156047945Y-76476742D01*
X156047945Y-76191028D01*
X156040821Y-76169104D01*
X156037388Y-76146306D01*
X155989769Y-76051069D01*
X155978394Y-76039520D01*
X155971036Y-76025079D01*
X155923418Y-75977460D01*
X155908975Y-75970101D01*
X155897428Y-75958728D01*
X155802190Y-75911109D01*
X155779392Y-75907675D01*
X155757469Y-75900552D01*
X155614612Y-75900552D01*
X155592688Y-75907675D01*
X155569890Y-75911109D01*
X155474653Y-75958728D01*
X155463104Y-75970102D01*
X155448663Y-75977461D01*
X155401044Y-76025079D01*
X155393685Y-76039521D01*
X155382312Y-76051069D01*
X155334693Y-76146307D01*
X155331259Y-76169104D01*
X155324136Y-76191028D01*
X155324136Y-76476742D01*
X155095564Y-76476742D01*
X155095564Y-76000552D01*
X155076466Y-75941773D01*
X155026466Y-75905446D01*
X154964662Y-75905446D01*
X154932636Y-75928713D01*
X154897428Y-75911109D01*
X154874630Y-75907675D01*
X154852707Y-75900552D01*
X154709850Y-75900552D01*
X154687926Y-75907675D01*
X154665128Y-75911109D01*
X154569891Y-75958728D01*
X154569324Y-75959286D01*
X154568538Y-75959417D01*
X154566993Y-75960985D01*
X154565448Y-75959417D01*
X154564661Y-75959286D01*
X154564095Y-75958728D01*
X154468857Y-75911109D01*
X154446059Y-75907675D01*
X154424136Y-75900552D01*
X154281279Y-75900552D01*
X154259355Y-75907675D01*
X154236558Y-75911109D01*
X154141319Y-75958728D01*
X154140752Y-75959286D01*
X154139966Y-75959417D01*
X154118804Y-75980902D01*
X154097286Y-76002096D01*
X154097155Y-76002883D01*
X154096597Y-76003450D01*
X154048978Y-76098688D01*
X154045544Y-76121485D01*
X154038421Y-76143409D01*
X154038421Y-76667219D01*
X153766543Y-76667219D01*
X153031151Y-75564130D01*
X152982656Y-75525817D01*
X152920903Y-75523326D01*
X152869479Y-75557608D01*
X152848027Y-75615569D01*
X149840687Y-75615569D01*
X149838371Y-75608440D01*
X149788371Y-75572113D01*
X149726567Y-75572113D01*
X149676567Y-75608440D01*
X149657469Y-75667219D01*
X149657469Y-75900552D01*
X149519374Y-75900552D01*
X149460595Y-75919650D01*
X149424268Y-75969650D01*
X149424268Y-76031454D01*
X149460595Y-76081454D01*
X149519374Y-76100552D01*
X149657469Y-76100552D01*
X149657469Y-76500754D01*
X149635314Y-76545063D01*
X149591005Y-76567219D01*
X149519374Y-76567219D01*
X149460595Y-76586317D01*
X149424268Y-76636317D01*
X149424268Y-76698121D01*
X149276000Y-76698121D01*
X149286040Y-76667219D01*
X149286040Y-76000552D01*
X149266942Y-75941773D01*
X149216942Y-75905446D01*
X149155138Y-75905446D01*
X149105138Y-75941773D01*
X149086040Y-76000552D01*
X149086040Y-76667219D01*
X148809850Y-76667219D01*
X148809850Y-76000552D01*
X148790752Y-75941773D01*
X148740752Y-75905446D01*
X148678948Y-75905446D01*
X148646922Y-75928713D01*
X148611714Y-75911109D01*
X148588916Y-75907675D01*
X148566993Y-75900552D01*
X148424136Y-75900552D01*
X148402212Y-75907675D01*
X148379414Y-75911109D01*
X148284177Y-75958728D01*
X148283610Y-75959286D01*
X148282824Y-75959417D01*
X148261646Y-75980919D01*
X148240144Y-76002097D01*
X148240013Y-76002883D01*
X148239455Y-76003450D01*
X148191836Y-76098688D01*
X148188402Y-76121485D01*
X148181279Y-76143409D01*
X148181279Y-76667219D01*
X147905088Y-76667219D01*
X147905088Y-75730481D01*
X149039652Y-75730481D01*
X149046842Y-75744592D01*
X149049320Y-75760237D01*
X149060519Y-75771436D01*
X149067710Y-75785549D01*
X149115329Y-75833167D01*
X149129440Y-75840357D01*
X149140641Y-75851558D01*
X149148610Y-75852820D01*
X149155138Y-75857563D01*
X149163207Y-75857563D01*
X149170396Y-75861226D01*
X149186039Y-75858748D01*
X149201683Y-75861226D01*
X149208872Y-75857563D01*
X149216942Y-75857563D01*
X149223470Y-75852820D01*
X149231439Y-75851558D01*
X149242638Y-75840358D01*
X149256751Y-75833168D01*
X149304369Y-75785549D01*
X149311559Y-75771437D01*
X149322760Y-75760237D01*
X149325237Y-75744593D01*
X149332428Y-75730482D01*
X149329950Y-75714838D01*
X149332428Y-75699194D01*
X149325237Y-75685082D01*
X149322760Y-75669439D01*
X149311559Y-75658238D01*
X149304369Y-75644127D01*
X149256751Y-75596508D01*
X149242638Y-75589317D01*
X149231439Y-75578118D01*
X149223470Y-75576855D01*
X149216942Y-75572113D01*
X149208872Y-75572113D01*
X149201683Y-75568450D01*
X149186039Y-75570927D01*
X149170396Y-75568450D01*
X149163207Y-75572113D01*
X149155138Y-75572113D01*
X149148610Y-75576855D01*
X149140641Y-75578118D01*
X149129440Y-75589318D01*
X149115329Y-75596509D01*
X149067710Y-75644127D01*
X149060519Y-75658239D01*
X149049320Y-75669439D01*
X149046842Y-75685083D01*
X149039652Y-75699195D01*
X149042129Y-75714838D01*
X149039652Y-75730481D01*
X147905088Y-75730481D01*
X147905088Y-75667219D01*
X147885990Y-75608440D01*
X147835990Y-75572113D01*
X147774186Y-75572113D01*
X147724186Y-75608440D01*
X147705088Y-75667219D01*
X147705088Y-75900552D01*
X147519374Y-75900552D01*
X147497450Y-75907675D01*
X147474652Y-75911109D01*
X147379415Y-75958728D01*
X147367866Y-75970102D01*
X147353425Y-75977461D01*
X147305806Y-76025079D01*
X147298447Y-76039521D01*
X147287074Y-76051069D01*
X147239455Y-76146307D01*
X147236021Y-76169104D01*
X147228898Y-76191028D01*
X147228898Y-76476742D01*
X147047945Y-76476742D01*
X147047945Y-76143409D01*
X147040821Y-76121485D01*
X147037388Y-76098687D01*
X146989769Y-76003450D01*
X146989210Y-76002883D01*
X146989080Y-76002097D01*
X146967577Y-75980919D01*
X146946400Y-75959417D01*
X146945613Y-75959286D01*
X146945047Y-75958728D01*
X146849809Y-75911109D01*
X146827011Y-75907675D01*
X146805088Y-75900552D01*
X146614612Y-75900552D01*
X146592688Y-75907675D01*
X146569890Y-75911109D01*
X146474653Y-75958728D01*
X146474086Y-75959286D01*
X146473300Y-75959417D01*
X146452122Y-75980919D01*
X146430620Y-76002097D01*
X146430489Y-76002883D01*
X146429931Y-76003450D01*
X146382312Y-76098688D01*
X146378878Y-76121485D01*
X146371755Y-76143409D01*
X146371755Y-76238647D01*
X146143183Y-76238647D01*
X146143183Y-76000552D01*
X146124085Y-75941773D01*
X146074085Y-75905446D01*
X146012281Y-75905446D01*
X145962281Y-75941773D01*
X145961788Y-75943289D01*
X145897428Y-75911109D01*
X145874630Y-75907675D01*
X145852707Y-75900552D01*
X145757469Y-75900552D01*
X145698690Y-75919650D01*
X145662363Y-75969650D01*
X145662363Y-76031454D01*
X145524135Y-76031454D01*
X145524135Y-75667219D01*
X145505037Y-75608440D01*
X145455037Y-75572113D01*
X145393233Y-75572113D01*
X145343233Y-75608440D01*
X145324135Y-75667219D01*
X145324135Y-76500754D01*
X145301980Y-76545063D01*
X145236557Y-76577776D01*
X145192524Y-76621145D01*
X145182393Y-76682112D01*
X144995486Y-76682112D01*
X145000325Y-76667219D01*
X145000325Y-76000552D01*
X144981227Y-75941773D01*
X144931227Y-75905446D01*
X144869423Y-75905446D01*
X144819423Y-75941773D01*
X144800325Y-76000552D01*
X144800325Y-76667219D01*
X144524135Y-76667219D01*
X144524135Y-76000552D01*
X144505037Y-75941773D01*
X144455037Y-75905446D01*
X144393233Y-75905446D01*
X144361207Y-75928713D01*
X144325999Y-75911109D01*
X144303201Y-75907675D01*
X144281278Y-75900552D01*
X144138421Y-75900552D01*
X144116497Y-75907675D01*
X144093699Y-75911109D01*
X143998462Y-75958728D01*
X143997895Y-75959286D01*
X143997109Y-75959417D01*
X143975931Y-75980919D01*
X143954429Y-76002097D01*
X143954298Y-76002883D01*
X143953740Y-76003450D01*
X143906121Y-76098688D01*
X143902687Y-76121485D01*
X143895564Y-76143409D01*
X143895564Y-76667219D01*
X143623685Y-76667219D01*
X142999194Y-75730481D01*
X144753937Y-75730481D01*
X144761127Y-75744592D01*
X144763605Y-75760237D01*
X144774804Y-75771436D01*
X144781995Y-75785549D01*
X144829614Y-75833167D01*
X144843725Y-75840357D01*
X144854926Y-75851558D01*
X144862895Y-75852820D01*
X144869423Y-75857563D01*
X144877492Y-75857563D01*
X144884681Y-75861226D01*
X144900324Y-75858748D01*
X144915968Y-75861226D01*
X144923157Y-75857563D01*
X144931227Y-75857563D01*
X144937755Y-75852820D01*
X144945724Y-75851558D01*
X144956923Y-75840358D01*
X144971036Y-75833168D01*
X145018654Y-75785549D01*
X145025844Y-75771437D01*
X145037045Y-75760237D01*
X145039522Y-75744593D01*
X145046713Y-75730482D01*
X145044235Y-75714838D01*
X145046713Y-75699194D01*
X145039522Y-75685082D01*
X145037045Y-75669439D01*
X145025844Y-75658238D01*
X145018654Y-75644127D01*
X144971036Y-75596508D01*
X144956923Y-75589317D01*
X144945724Y-75578118D01*
X144937755Y-75576855D01*
X144931227Y-75572113D01*
X144923157Y-75572113D01*
X144915968Y-75568450D01*
X144900324Y-75570927D01*
X144884681Y-75568450D01*
X144877492Y-75572113D01*
X144869423Y-75572113D01*
X144862895Y-75576855D01*
X144854926Y-75578118D01*
X144843725Y-75589318D01*
X144829614Y-75596509D01*
X144781995Y-75644127D01*
X144774804Y-75658239D01*
X144763605Y-75669439D01*
X144761127Y-75685083D01*
X144753937Y-75699195D01*
X144756414Y-75714838D01*
X144753937Y-75730481D01*
X142999194Y-75730481D01*
X142888293Y-75564130D01*
X142839798Y-75525817D01*
X142778045Y-75523326D01*
X142726621Y-75557608D01*
X142705169Y-75615569D01*
X142554972Y-75615569D01*
X142552656Y-75608440D01*
X142502656Y-75572113D01*
X142440852Y-75572113D01*
X142390852Y-75608440D01*
X142371754Y-75667219D01*
X142371754Y-76043409D01*
X142000326Y-76043409D01*
X142000326Y-75667219D01*
X141981228Y-75608440D01*
X141931228Y-75572113D01*
X141869424Y-75572113D01*
X141819424Y-75608440D01*
X141800326Y-75667219D01*
X141800326Y-76667219D01*
X140136985Y-76667219D01*
X140209132Y-76595071D01*
X140216490Y-76580629D01*
X140227864Y-76569082D01*
X140275483Y-76473845D01*
X140277143Y-76462823D01*
X140283054Y-76453377D01*
X140317106Y-76317168D01*
X140567125Y-76317168D01*
X140603452Y-76367168D01*
X140662231Y-76386266D01*
X141424135Y-76386266D01*
X141482914Y-76367168D01*
X141519241Y-76317168D01*
X141519241Y-76255364D01*
X141482914Y-76205364D01*
X141424135Y-76186266D01*
X140662231Y-76186266D01*
X140603452Y-76205364D01*
X140567125Y-76255364D01*
X140567125Y-76317168D01*
X140317106Y-76317168D01*
X140330673Y-76262901D01*
X140329812Y-76250484D01*
X140333659Y-76238647D01*
X140333659Y-76095790D01*
X140329812Y-76083952D01*
X140330673Y-76071536D01*
X140283054Y-75881060D01*
X140277143Y-75871613D01*
X140275483Y-75860592D01*
X140227864Y-75765355D01*
X140216490Y-75753807D01*
X140209132Y-75739365D01*
X140113894Y-75644127D01*
X140093350Y-75633659D01*
X140074805Y-75619970D01*
X139931949Y-75572351D01*
X139915741Y-75572227D01*
X139900326Y-75567219D01*
X139805088Y-75567219D01*
X139789672Y-75572227D01*
X139773465Y-75572351D01*
X139630608Y-75619970D01*
X139612059Y-75633662D01*
X139591520Y-75644128D01*
X139543901Y-75691746D01*
X139515843Y-75746814D01*
X139525511Y-75807856D01*
X139569213Y-75851558D01*
X139630255Y-75861226D01*
X139685323Y-75833168D01*
X139716249Y-75802240D01*
X139821314Y-75767219D01*
X139884099Y-75767219D01*
X139989163Y-75802240D01*
X140056236Y-75869313D01*
X140091688Y-75940218D01*
X140133659Y-76108099D01*
X140133659Y-76226337D01*
X140091688Y-76394218D01*
X140056235Y-76465124D01*
X139989164Y-76532197D01*
X139884099Y-76567219D01*
X139821314Y-76567219D01*
X139716249Y-76532197D01*
X139685323Y-76501270D01*
X139630256Y-76473211D01*
X139569214Y-76482878D01*
X139525511Y-76526580D01*
X139515842Y-76587622D01*
X139290023Y-76587622D01*
X139323102Y-76521464D01*
X139326535Y-76498665D01*
X139333659Y-76476742D01*
X139333659Y-76095790D01*
X139329812Y-76083952D01*
X139330673Y-76071536D01*
X139283054Y-75881060D01*
X139273907Y-75866443D01*
X139269245Y-75849844D01*
X139174007Y-75706987D01*
X139166091Y-75700733D01*
X139161512Y-75691746D01*
X139113894Y-75644127D01*
X139099451Y-75636768D01*
X139087904Y-75625395D01*
X138992666Y-75577776D01*
X138969868Y-75574342D01*
X138947945Y-75567219D01*
X138757469Y-75567219D01*
X138698690Y-75586317D01*
X138662363Y-75636317D01*
X138662363Y-75698121D01*
X138698690Y-75748121D01*
X138757469Y-75767219D01*
X138924338Y-75767219D01*
X138983947Y-75797024D01*
X139013089Y-75826165D01*
X139093227Y-75946372D01*
X139097517Y-75963534D01*
X139087904Y-75958728D01*
X139065106Y-75955294D01*
X139043183Y-75948171D01*
X138852707Y-75948171D01*
X138830783Y-75955294D01*
X138807985Y-75958728D01*
X138712748Y-76006347D01*
X138701199Y-76017721D01*
X138686758Y-76025080D01*
X138639139Y-76072698D01*
X138631780Y-76087140D01*
X138620407Y-76098688D01*
X138572788Y-76193926D01*
X138569354Y-76216723D01*
X138562231Y-76238647D01*
X138562231Y-76476742D01*
X137095564Y-76476742D01*
X137095564Y-76317168D01*
X137376649Y-76317168D01*
X137412976Y-76367168D01*
X137471755Y-76386266D01*
X138233659Y-76386266D01*
X138292438Y-76367168D01*
X138328765Y-76317168D01*
X138328765Y-76255364D01*
X138292438Y-76205364D01*
X138233659Y-76186266D01*
X137471755Y-76186266D01*
X137412976Y-76205364D01*
X137376649Y-76255364D01*
X137376649Y-76317168D01*
X137095564Y-76317168D01*
X137095564Y-76000552D01*
X137076466Y-75941773D01*
X137026466Y-75905446D01*
X136964662Y-75905446D01*
X136914662Y-75941773D01*
X136895564Y-76000552D01*
X136895564Y-76500754D01*
X136873409Y-76545063D01*
X136829100Y-76567219D01*
X136733457Y-76567219D01*
X136673847Y-76537414D01*
X136666993Y-76530559D01*
X136666993Y-76000552D01*
X136647895Y-75941773D01*
X136597895Y-75905446D01*
X136536091Y-75905446D01*
X136486091Y-75941773D01*
X136466993Y-76000552D01*
X136466993Y-76667219D01*
X136130368Y-76667219D01*
X136131937Y-76665674D01*
X136132067Y-76664887D01*
X136132626Y-76664321D01*
X136180245Y-76569082D01*
X136183678Y-76546284D01*
X136190802Y-76524361D01*
X136190802Y-75667219D01*
X136171704Y-75608440D01*
X136121704Y-75572113D01*
X136059900Y-75572113D01*
X136009900Y-75608440D01*
X135990802Y-75667219D01*
X135990802Y-76500754D01*
X135968647Y-76545063D01*
X135903224Y-76577776D01*
X135859191Y-76621145D01*
X135849060Y-76682112D01*
X135666992Y-76682112D01*
X135666992Y-76000552D01*
X135647894Y-75941773D01*
X135597894Y-75905446D01*
X135536090Y-75905446D01*
X135523476Y-75914609D01*
X135516475Y-75911109D01*
X135493677Y-75907675D01*
X135471754Y-75900552D01*
X135281278Y-75900552D01*
X135259354Y-75907675D01*
X135236556Y-75911109D01*
X135141319Y-75958728D01*
X135129770Y-75970102D01*
X135115329Y-75977461D01*
X135067710Y-76025079D01*
X135060351Y-76039521D01*
X135048978Y-76051069D01*
X135001359Y-76146307D01*
X134997925Y-76169104D01*
X134990802Y-76191028D01*
X134990802Y-76476742D01*
X134847945Y-76476742D01*
X134847945Y-75380469D01*
X162190802Y-75380469D01*
X162190802Y-77243409D01*
G37*
D10*
X141481083Y-51961619D02*
X141514755Y-51860604D01*
X141514755Y-51860604D02*
X141615770Y-51759588D01*
X141615770Y-51759588D02*
X141750457Y-51692245D01*
X141750457Y-51692245D02*
X141885144Y-51692245D01*
X141885144Y-51692245D02*
X141986160Y-51725917D01*
X141986160Y-51725917D02*
X142154518Y-51826932D01*
X142154518Y-51826932D02*
X142255534Y-51927947D01*
X142255534Y-51927947D02*
X142356549Y-52096306D01*
X142356549Y-52096306D02*
X142390221Y-52197321D01*
X142390221Y-52197321D02*
X142390221Y-52332008D01*
X142390221Y-52332008D02*
X142322877Y-52466695D01*
X142322877Y-52466695D02*
X142255534Y-52534039D01*
X142255534Y-52534039D02*
X142120847Y-52601382D01*
X142120847Y-52601382D02*
X142053503Y-52601382D01*
X142053503Y-52601382D02*
X141817801Y-52365680D01*
X141817801Y-52365680D02*
X141952488Y-52230993D01*
X141817801Y-52971772D02*
X141110694Y-52264665D01*
X141110694Y-52264665D02*
X141413740Y-53375833D01*
X141413740Y-53375833D02*
X140706633Y-52668726D01*
X141077022Y-53712550D02*
X140369915Y-53005443D01*
X140369915Y-53005443D02*
X140201557Y-53173802D01*
X140201557Y-53173802D02*
X140134213Y-53308489D01*
X140134213Y-53308489D02*
X140134213Y-53443176D01*
X140134213Y-53443176D02*
X140167885Y-53544191D01*
X140167885Y-53544191D02*
X140268900Y-53712550D01*
X140268900Y-53712550D02*
X140369915Y-53813565D01*
X140369915Y-53813565D02*
X140538274Y-53914581D01*
X140538274Y-53914581D02*
X140639289Y-53948252D01*
X140639289Y-53948252D02*
X140773976Y-53948252D01*
X140773976Y-53948252D02*
X140908664Y-53880909D01*
X140908664Y-53880909D02*
X141077022Y-53712550D01*
D11*
X124120576Y-71916617D02*
X124072957Y-71868998D01*
X124072957Y-71868998D02*
X123977719Y-71821379D01*
X123977719Y-71821379D02*
X123739624Y-71821379D01*
X123739624Y-71821379D02*
X123644386Y-71868998D01*
X123644386Y-71868998D02*
X123596767Y-71916617D01*
X123596767Y-71916617D02*
X123549148Y-72011855D01*
X123549148Y-72011855D02*
X123549148Y-72107093D01*
X123549148Y-72107093D02*
X123596767Y-72249950D01*
X123596767Y-72249950D02*
X124168195Y-72821379D01*
X124168195Y-72821379D02*
X123549148Y-72821379D01*
X122930100Y-71821379D02*
X122834862Y-71821379D01*
X122834862Y-71821379D02*
X122739624Y-71868998D01*
X122739624Y-71868998D02*
X122692005Y-71916617D01*
X122692005Y-71916617D02*
X122644386Y-72011855D01*
X122644386Y-72011855D02*
X122596767Y-72202331D01*
X122596767Y-72202331D02*
X122596767Y-72440426D01*
X122596767Y-72440426D02*
X122644386Y-72630902D01*
X122644386Y-72630902D02*
X122692005Y-72726140D01*
X122692005Y-72726140D02*
X122739624Y-72773760D01*
X122739624Y-72773760D02*
X122834862Y-72821379D01*
X122834862Y-72821379D02*
X122930100Y-72821379D01*
X122930100Y-72821379D02*
X123025338Y-72773760D01*
X123025338Y-72773760D02*
X123072957Y-72726140D01*
X123072957Y-72726140D02*
X123120576Y-72630902D01*
X123120576Y-72630902D02*
X123168195Y-72440426D01*
X123168195Y-72440426D02*
X123168195Y-72202331D01*
X123168195Y-72202331D02*
X123120576Y-72011855D01*
X123120576Y-72011855D02*
X123072957Y-71916617D01*
X123072957Y-71916617D02*
X123025338Y-71868998D01*
X123025338Y-71868998D02*
X122930100Y-71821379D01*
D10*
X160574687Y-50094919D02*
X160908020Y-49618728D01*
X161146115Y-50094919D02*
X161146115Y-49094919D01*
X161146115Y-49094919D02*
X160765163Y-49094919D01*
X160765163Y-49094919D02*
X160669925Y-49142538D01*
X160669925Y-49142538D02*
X160622306Y-49190157D01*
X160622306Y-49190157D02*
X160574687Y-49285395D01*
X160574687Y-49285395D02*
X160574687Y-49428252D01*
X160574687Y-49428252D02*
X160622306Y-49523490D01*
X160622306Y-49523490D02*
X160669925Y-49571109D01*
X160669925Y-49571109D02*
X160765163Y-49618728D01*
X160765163Y-49618728D02*
X161146115Y-49618728D01*
X159765163Y-50047300D02*
X159860401Y-50094919D01*
X159860401Y-50094919D02*
X160050877Y-50094919D01*
X160050877Y-50094919D02*
X160146115Y-50047300D01*
X160146115Y-50047300D02*
X160193734Y-49952061D01*
X160193734Y-49952061D02*
X160193734Y-49571109D01*
X160193734Y-49571109D02*
X160146115Y-49475871D01*
X160146115Y-49475871D02*
X160050877Y-49428252D01*
X160050877Y-49428252D02*
X159860401Y-49428252D01*
X159860401Y-49428252D02*
X159765163Y-49475871D01*
X159765163Y-49475871D02*
X159717544Y-49571109D01*
X159717544Y-49571109D02*
X159717544Y-49666347D01*
X159717544Y-49666347D02*
X160193734Y-49761585D01*
X159146115Y-50094919D02*
X159241353Y-50047300D01*
X159241353Y-50047300D02*
X159288972Y-49952061D01*
X159288972Y-49952061D02*
X159288972Y-49094919D01*
X158384210Y-50047300D02*
X158479448Y-50094919D01*
X158479448Y-50094919D02*
X158669924Y-50094919D01*
X158669924Y-50094919D02*
X158765162Y-50047300D01*
X158765162Y-50047300D02*
X158812781Y-49952061D01*
X158812781Y-49952061D02*
X158812781Y-49571109D01*
X158812781Y-49571109D02*
X158765162Y-49475871D01*
X158765162Y-49475871D02*
X158669924Y-49428252D01*
X158669924Y-49428252D02*
X158479448Y-49428252D01*
X158479448Y-49428252D02*
X158384210Y-49475871D01*
X158384210Y-49475871D02*
X158336591Y-49571109D01*
X158336591Y-49571109D02*
X158336591Y-49666347D01*
X158336591Y-49666347D02*
X158812781Y-49761585D01*
X158003257Y-49428252D02*
X157765162Y-50094919D01*
X157765162Y-50094919D02*
X157527067Y-49428252D01*
X156717543Y-50094919D02*
X156717543Y-49571109D01*
X156717543Y-49571109D02*
X156765162Y-49475871D01*
X156765162Y-49475871D02*
X156860400Y-49428252D01*
X156860400Y-49428252D02*
X157050876Y-49428252D01*
X157050876Y-49428252D02*
X157146114Y-49475871D01*
X156717543Y-50047300D02*
X156812781Y-50094919D01*
X156812781Y-50094919D02*
X157050876Y-50094919D01*
X157050876Y-50094919D02*
X157146114Y-50047300D01*
X157146114Y-50047300D02*
X157193733Y-49952061D01*
X157193733Y-49952061D02*
X157193733Y-49856823D01*
X157193733Y-49856823D02*
X157146114Y-49761585D01*
X157146114Y-49761585D02*
X157050876Y-49713966D01*
X157050876Y-49713966D02*
X156812781Y-49713966D01*
X156812781Y-49713966D02*
X156717543Y-49666347D01*
X156241352Y-49428252D02*
X156241352Y-50094919D01*
X156241352Y-49523490D02*
X156193733Y-49475871D01*
X156193733Y-49475871D02*
X156098495Y-49428252D01*
X156098495Y-49428252D02*
X155955638Y-49428252D01*
X155955638Y-49428252D02*
X155860400Y-49475871D01*
X155860400Y-49475871D02*
X155812781Y-49571109D01*
X155812781Y-49571109D02*
X155812781Y-50094919D01*
X155479447Y-49428252D02*
X155098495Y-49428252D01*
X155336590Y-49094919D02*
X155336590Y-49952061D01*
X155336590Y-49952061D02*
X155288971Y-50047300D01*
X155288971Y-50047300D02*
X155193733Y-50094919D01*
X155193733Y-50094919D02*
X155098495Y-50094919D01*
X154003256Y-50094919D02*
X154003256Y-49094919D01*
X153336590Y-49094919D02*
X153146114Y-49094919D01*
X153146114Y-49094919D02*
X153050876Y-49142538D01*
X153050876Y-49142538D02*
X152955638Y-49237776D01*
X152955638Y-49237776D02*
X152908019Y-49428252D01*
X152908019Y-49428252D02*
X152908019Y-49761585D01*
X152908019Y-49761585D02*
X152955638Y-49952061D01*
X152955638Y-49952061D02*
X153050876Y-50047300D01*
X153050876Y-50047300D02*
X153146114Y-50094919D01*
X153146114Y-50094919D02*
X153336590Y-50094919D01*
X153336590Y-50094919D02*
X153431828Y-50047300D01*
X153431828Y-50047300D02*
X153527066Y-49952061D01*
X153527066Y-49952061D02*
X153574685Y-49761585D01*
X153574685Y-49761585D02*
X153574685Y-49428252D01*
X153574685Y-49428252D02*
X153527066Y-49237776D01*
X153527066Y-49237776D02*
X153431828Y-49142538D01*
X153431828Y-49142538D02*
X153336590Y-49094919D01*
X152527066Y-50047300D02*
X152431828Y-50094919D01*
X152431828Y-50094919D02*
X152241352Y-50094919D01*
X152241352Y-50094919D02*
X152146114Y-50047300D01*
X152146114Y-50047300D02*
X152098495Y-49952061D01*
X152098495Y-49952061D02*
X152098495Y-49904442D01*
X152098495Y-49904442D02*
X152146114Y-49809204D01*
X152146114Y-49809204D02*
X152241352Y-49761585D01*
X152241352Y-49761585D02*
X152384209Y-49761585D01*
X152384209Y-49761585D02*
X152479447Y-49713966D01*
X152479447Y-49713966D02*
X152527066Y-49618728D01*
X152527066Y-49618728D02*
X152527066Y-49571109D01*
X152527066Y-49571109D02*
X152479447Y-49475871D01*
X152479447Y-49475871D02*
X152384209Y-49428252D01*
X152384209Y-49428252D02*
X152241352Y-49428252D01*
X152241352Y-49428252D02*
X152146114Y-49475871D01*
X151669923Y-49999680D02*
X151622304Y-50047300D01*
X151622304Y-50047300D02*
X151669923Y-50094919D01*
X151669923Y-50094919D02*
X151717542Y-50047300D01*
X151717542Y-50047300D02*
X151669923Y-49999680D01*
X151669923Y-49999680D02*
X151669923Y-50094919D01*
X151669923Y-49475871D02*
X151622304Y-49523490D01*
X151622304Y-49523490D02*
X151669923Y-49571109D01*
X151669923Y-49571109D02*
X151717542Y-49523490D01*
X151717542Y-49523490D02*
X151669923Y-49475871D01*
X151669923Y-49475871D02*
X151669923Y-49571109D01*
X161146115Y-51181109D02*
X160812782Y-51181109D01*
X160669925Y-51704919D02*
X161146115Y-51704919D01*
X161146115Y-51704919D02*
X161146115Y-50704919D01*
X161146115Y-50704919D02*
X160669925Y-50704919D01*
X160241353Y-51704919D02*
X160241353Y-50704919D01*
X160241353Y-50704919D02*
X159860401Y-50704919D01*
X159860401Y-50704919D02*
X159765163Y-50752538D01*
X159765163Y-50752538D02*
X159717544Y-50800157D01*
X159717544Y-50800157D02*
X159669925Y-50895395D01*
X159669925Y-50895395D02*
X159669925Y-51038252D01*
X159669925Y-51038252D02*
X159717544Y-51133490D01*
X159717544Y-51133490D02*
X159765163Y-51181109D01*
X159765163Y-51181109D02*
X159860401Y-51228728D01*
X159860401Y-51228728D02*
X160241353Y-51228728D01*
X159241353Y-51704919D02*
X159241353Y-50704919D01*
X159241353Y-50704919D02*
X159003258Y-50704919D01*
X159003258Y-50704919D02*
X158860401Y-50752538D01*
X158860401Y-50752538D02*
X158765163Y-50847776D01*
X158765163Y-50847776D02*
X158717544Y-50943014D01*
X158717544Y-50943014D02*
X158669925Y-51133490D01*
X158669925Y-51133490D02*
X158669925Y-51276347D01*
X158669925Y-51276347D02*
X158717544Y-51466823D01*
X158717544Y-51466823D02*
X158765163Y-51562061D01*
X158765163Y-51562061D02*
X158860401Y-51657300D01*
X158860401Y-51657300D02*
X159003258Y-51704919D01*
X159003258Y-51704919D02*
X159241353Y-51704919D01*
X158479449Y-51800157D02*
X157717544Y-51800157D01*
X157479448Y-51704919D02*
X157479448Y-50704919D01*
X157479448Y-50704919D02*
X157146115Y-51419204D01*
X157146115Y-51419204D02*
X156812782Y-50704919D01*
X156812782Y-50704919D02*
X156812782Y-51704919D01*
X156146115Y-50704919D02*
X155955639Y-50704919D01*
X155955639Y-50704919D02*
X155860401Y-50752538D01*
X155860401Y-50752538D02*
X155765163Y-50847776D01*
X155765163Y-50847776D02*
X155717544Y-51038252D01*
X155717544Y-51038252D02*
X155717544Y-51371585D01*
X155717544Y-51371585D02*
X155765163Y-51562061D01*
X155765163Y-51562061D02*
X155860401Y-51657300D01*
X155860401Y-51657300D02*
X155955639Y-51704919D01*
X155955639Y-51704919D02*
X156146115Y-51704919D01*
X156146115Y-51704919D02*
X156241353Y-51657300D01*
X156241353Y-51657300D02*
X156336591Y-51562061D01*
X156336591Y-51562061D02*
X156384210Y-51371585D01*
X156384210Y-51371585D02*
X156384210Y-51038252D01*
X156384210Y-51038252D02*
X156336591Y-50847776D01*
X156336591Y-50847776D02*
X156241353Y-50752538D01*
X156241353Y-50752538D02*
X156146115Y-50704919D01*
X155336591Y-51657300D02*
X155193734Y-51704919D01*
X155193734Y-51704919D02*
X154955639Y-51704919D01*
X154955639Y-51704919D02*
X154860401Y-51657300D01*
X154860401Y-51657300D02*
X154812782Y-51609680D01*
X154812782Y-51609680D02*
X154765163Y-51514442D01*
X154765163Y-51514442D02*
X154765163Y-51419204D01*
X154765163Y-51419204D02*
X154812782Y-51323966D01*
X154812782Y-51323966D02*
X154860401Y-51276347D01*
X154860401Y-51276347D02*
X154955639Y-51228728D01*
X154955639Y-51228728D02*
X155146115Y-51181109D01*
X155146115Y-51181109D02*
X155241353Y-51133490D01*
X155241353Y-51133490D02*
X155288972Y-51085871D01*
X155288972Y-51085871D02*
X155336591Y-50990633D01*
X155336591Y-50990633D02*
X155336591Y-50895395D01*
X155336591Y-50895395D02*
X155288972Y-50800157D01*
X155288972Y-50800157D02*
X155241353Y-50752538D01*
X155241353Y-50752538D02*
X155146115Y-50704919D01*
X155146115Y-50704919D02*
X154908020Y-50704919D01*
X154908020Y-50704919D02*
X154765163Y-50752538D01*
X154336591Y-51704919D02*
X154336591Y-50704919D01*
X161146115Y-52791109D02*
X160812782Y-52791109D01*
X160669925Y-53314919D02*
X161146115Y-53314919D01*
X161146115Y-53314919D02*
X161146115Y-52314919D01*
X161146115Y-52314919D02*
X160669925Y-52314919D01*
X160241353Y-53314919D02*
X160241353Y-52314919D01*
X160241353Y-52314919D02*
X159860401Y-52314919D01*
X159860401Y-52314919D02*
X159765163Y-52362538D01*
X159765163Y-52362538D02*
X159717544Y-52410157D01*
X159717544Y-52410157D02*
X159669925Y-52505395D01*
X159669925Y-52505395D02*
X159669925Y-52648252D01*
X159669925Y-52648252D02*
X159717544Y-52743490D01*
X159717544Y-52743490D02*
X159765163Y-52791109D01*
X159765163Y-52791109D02*
X159860401Y-52838728D01*
X159860401Y-52838728D02*
X160241353Y-52838728D01*
X159241353Y-53314919D02*
X159241353Y-52314919D01*
X159241353Y-52314919D02*
X159003258Y-52314919D01*
X159003258Y-52314919D02*
X158860401Y-52362538D01*
X158860401Y-52362538D02*
X158765163Y-52457776D01*
X158765163Y-52457776D02*
X158717544Y-52553014D01*
X158717544Y-52553014D02*
X158669925Y-52743490D01*
X158669925Y-52743490D02*
X158669925Y-52886347D01*
X158669925Y-52886347D02*
X158717544Y-53076823D01*
X158717544Y-53076823D02*
X158765163Y-53172061D01*
X158765163Y-53172061D02*
X158860401Y-53267300D01*
X158860401Y-53267300D02*
X159003258Y-53314919D01*
X159003258Y-53314919D02*
X159241353Y-53314919D01*
X158479449Y-53410157D02*
X157717544Y-53410157D01*
X156908020Y-53219680D02*
X156955639Y-53267300D01*
X156955639Y-53267300D02*
X157098496Y-53314919D01*
X157098496Y-53314919D02*
X157193734Y-53314919D01*
X157193734Y-53314919D02*
X157336591Y-53267300D01*
X157336591Y-53267300D02*
X157431829Y-53172061D01*
X157431829Y-53172061D02*
X157479448Y-53076823D01*
X157479448Y-53076823D02*
X157527067Y-52886347D01*
X157527067Y-52886347D02*
X157527067Y-52743490D01*
X157527067Y-52743490D02*
X157479448Y-52553014D01*
X157479448Y-52553014D02*
X157431829Y-52457776D01*
X157431829Y-52457776D02*
X157336591Y-52362538D01*
X157336591Y-52362538D02*
X157193734Y-52314919D01*
X157193734Y-52314919D02*
X157098496Y-52314919D01*
X157098496Y-52314919D02*
X156955639Y-52362538D01*
X156955639Y-52362538D02*
X156908020Y-52410157D01*
X156003258Y-53314919D02*
X156479448Y-53314919D01*
X156479448Y-53314919D02*
X156479448Y-52314919D01*
X155669924Y-53314919D02*
X155669924Y-52314919D01*
X155098496Y-53314919D02*
X155527067Y-52743490D01*
X155098496Y-52314919D02*
X155669924Y-52886347D01*
X161146115Y-54401109D02*
X160812782Y-54401109D01*
X160669925Y-54924919D02*
X161146115Y-54924919D01*
X161146115Y-54924919D02*
X161146115Y-53924919D01*
X161146115Y-53924919D02*
X160669925Y-53924919D01*
X160241353Y-54924919D02*
X160241353Y-53924919D01*
X160241353Y-53924919D02*
X159860401Y-53924919D01*
X159860401Y-53924919D02*
X159765163Y-53972538D01*
X159765163Y-53972538D02*
X159717544Y-54020157D01*
X159717544Y-54020157D02*
X159669925Y-54115395D01*
X159669925Y-54115395D02*
X159669925Y-54258252D01*
X159669925Y-54258252D02*
X159717544Y-54353490D01*
X159717544Y-54353490D02*
X159765163Y-54401109D01*
X159765163Y-54401109D02*
X159860401Y-54448728D01*
X159860401Y-54448728D02*
X160241353Y-54448728D01*
X159241353Y-54924919D02*
X159241353Y-53924919D01*
X159241353Y-53924919D02*
X159003258Y-53924919D01*
X159003258Y-53924919D02*
X158860401Y-53972538D01*
X158860401Y-53972538D02*
X158765163Y-54067776D01*
X158765163Y-54067776D02*
X158717544Y-54163014D01*
X158717544Y-54163014D02*
X158669925Y-54353490D01*
X158669925Y-54353490D02*
X158669925Y-54496347D01*
X158669925Y-54496347D02*
X158717544Y-54686823D01*
X158717544Y-54686823D02*
X158765163Y-54782061D01*
X158765163Y-54782061D02*
X158860401Y-54877300D01*
X158860401Y-54877300D02*
X159003258Y-54924919D01*
X159003258Y-54924919D02*
X159241353Y-54924919D01*
X158479449Y-55020157D02*
X157717544Y-55020157D01*
X156908020Y-54829680D02*
X156955639Y-54877300D01*
X156955639Y-54877300D02*
X157098496Y-54924919D01*
X157098496Y-54924919D02*
X157193734Y-54924919D01*
X157193734Y-54924919D02*
X157336591Y-54877300D01*
X157336591Y-54877300D02*
X157431829Y-54782061D01*
X157431829Y-54782061D02*
X157479448Y-54686823D01*
X157479448Y-54686823D02*
X157527067Y-54496347D01*
X157527067Y-54496347D02*
X157527067Y-54353490D01*
X157527067Y-54353490D02*
X157479448Y-54163014D01*
X157479448Y-54163014D02*
X157431829Y-54067776D01*
X157431829Y-54067776D02*
X157336591Y-53972538D01*
X157336591Y-53972538D02*
X157193734Y-53924919D01*
X157193734Y-53924919D02*
X157098496Y-53924919D01*
X157098496Y-53924919D02*
X156955639Y-53972538D01*
X156955639Y-53972538D02*
X156908020Y-54020157D01*
X156527067Y-54877300D02*
X156384210Y-54924919D01*
X156384210Y-54924919D02*
X156146115Y-54924919D01*
X156146115Y-54924919D02*
X156050877Y-54877300D01*
X156050877Y-54877300D02*
X156003258Y-54829680D01*
X156003258Y-54829680D02*
X155955639Y-54734442D01*
X155955639Y-54734442D02*
X155955639Y-54639204D01*
X155955639Y-54639204D02*
X156003258Y-54543966D01*
X156003258Y-54543966D02*
X156050877Y-54496347D01*
X156050877Y-54496347D02*
X156146115Y-54448728D01*
X156146115Y-54448728D02*
X156336591Y-54401109D01*
X156336591Y-54401109D02*
X156431829Y-54353490D01*
X156431829Y-54353490D02*
X156479448Y-54305871D01*
X156479448Y-54305871D02*
X156527067Y-54210633D01*
X156527067Y-54210633D02*
X156527067Y-54115395D01*
X156527067Y-54115395D02*
X156479448Y-54020157D01*
X156479448Y-54020157D02*
X156431829Y-53972538D01*
X156431829Y-53972538D02*
X156336591Y-53924919D01*
X156336591Y-53924919D02*
X156098496Y-53924919D01*
X156098496Y-53924919D02*
X155955639Y-53972538D01*
X161146115Y-56011109D02*
X160812782Y-56011109D01*
X160669925Y-56534919D02*
X161146115Y-56534919D01*
X161146115Y-56534919D02*
X161146115Y-55534919D01*
X161146115Y-55534919D02*
X160669925Y-55534919D01*
X160241353Y-56534919D02*
X160241353Y-55534919D01*
X160241353Y-55534919D02*
X159860401Y-55534919D01*
X159860401Y-55534919D02*
X159765163Y-55582538D01*
X159765163Y-55582538D02*
X159717544Y-55630157D01*
X159717544Y-55630157D02*
X159669925Y-55725395D01*
X159669925Y-55725395D02*
X159669925Y-55868252D01*
X159669925Y-55868252D02*
X159717544Y-55963490D01*
X159717544Y-55963490D02*
X159765163Y-56011109D01*
X159765163Y-56011109D02*
X159860401Y-56058728D01*
X159860401Y-56058728D02*
X160241353Y-56058728D01*
X159241353Y-56534919D02*
X159241353Y-55534919D01*
X159241353Y-55534919D02*
X159003258Y-55534919D01*
X159003258Y-55534919D02*
X158860401Y-55582538D01*
X158860401Y-55582538D02*
X158765163Y-55677776D01*
X158765163Y-55677776D02*
X158717544Y-55773014D01*
X158717544Y-55773014D02*
X158669925Y-55963490D01*
X158669925Y-55963490D02*
X158669925Y-56106347D01*
X158669925Y-56106347D02*
X158717544Y-56296823D01*
X158717544Y-56296823D02*
X158765163Y-56392061D01*
X158765163Y-56392061D02*
X158860401Y-56487300D01*
X158860401Y-56487300D02*
X159003258Y-56534919D01*
X159003258Y-56534919D02*
X159241353Y-56534919D01*
X158479449Y-56630157D02*
X157717544Y-56630157D01*
X157479448Y-56534919D02*
X157479448Y-55534919D01*
X157479448Y-55534919D02*
X157241353Y-55534919D01*
X157241353Y-55534919D02*
X157098496Y-55582538D01*
X157098496Y-55582538D02*
X157003258Y-55677776D01*
X157003258Y-55677776D02*
X156955639Y-55773014D01*
X156955639Y-55773014D02*
X156908020Y-55963490D01*
X156908020Y-55963490D02*
X156908020Y-56106347D01*
X156908020Y-56106347D02*
X156955639Y-56296823D01*
X156955639Y-56296823D02*
X157003258Y-56392061D01*
X157003258Y-56392061D02*
X157098496Y-56487300D01*
X157098496Y-56487300D02*
X157241353Y-56534919D01*
X157241353Y-56534919D02*
X157479448Y-56534919D01*
X155908020Y-56439680D02*
X155955639Y-56487300D01*
X155955639Y-56487300D02*
X156098496Y-56534919D01*
X156098496Y-56534919D02*
X156193734Y-56534919D01*
X156193734Y-56534919D02*
X156336591Y-56487300D01*
X156336591Y-56487300D02*
X156431829Y-56392061D01*
X156431829Y-56392061D02*
X156479448Y-56296823D01*
X156479448Y-56296823D02*
X156527067Y-56106347D01*
X156527067Y-56106347D02*
X156527067Y-55963490D01*
X156527067Y-55963490D02*
X156479448Y-55773014D01*
X156479448Y-55773014D02*
X156431829Y-55677776D01*
X156431829Y-55677776D02*
X156336591Y-55582538D01*
X156336591Y-55582538D02*
X156193734Y-55534919D01*
X156193734Y-55534919D02*
X156098496Y-55534919D01*
X156098496Y-55534919D02*
X155955639Y-55582538D01*
X155955639Y-55582538D02*
X155908020Y-55630157D01*
X161146115Y-57621109D02*
X160812782Y-57621109D01*
X160669925Y-58144919D02*
X161146115Y-58144919D01*
X161146115Y-58144919D02*
X161146115Y-57144919D01*
X161146115Y-57144919D02*
X160669925Y-57144919D01*
X160241353Y-58144919D02*
X160241353Y-57144919D01*
X160241353Y-57144919D02*
X159860401Y-57144919D01*
X159860401Y-57144919D02*
X159765163Y-57192538D01*
X159765163Y-57192538D02*
X159717544Y-57240157D01*
X159717544Y-57240157D02*
X159669925Y-57335395D01*
X159669925Y-57335395D02*
X159669925Y-57478252D01*
X159669925Y-57478252D02*
X159717544Y-57573490D01*
X159717544Y-57573490D02*
X159765163Y-57621109D01*
X159765163Y-57621109D02*
X159860401Y-57668728D01*
X159860401Y-57668728D02*
X160241353Y-57668728D01*
X159241353Y-58144919D02*
X159241353Y-57144919D01*
X159241353Y-57144919D02*
X159003258Y-57144919D01*
X159003258Y-57144919D02*
X158860401Y-57192538D01*
X158860401Y-57192538D02*
X158765163Y-57287776D01*
X158765163Y-57287776D02*
X158717544Y-57383014D01*
X158717544Y-57383014D02*
X158669925Y-57573490D01*
X158669925Y-57573490D02*
X158669925Y-57716347D01*
X158669925Y-57716347D02*
X158717544Y-57906823D01*
X158717544Y-57906823D02*
X158765163Y-58002061D01*
X158765163Y-58002061D02*
X158860401Y-58097300D01*
X158860401Y-58097300D02*
X159003258Y-58144919D01*
X159003258Y-58144919D02*
X159241353Y-58144919D01*
X158479449Y-58240157D02*
X157717544Y-58240157D01*
X157146115Y-57621109D02*
X157003258Y-57668728D01*
X157003258Y-57668728D02*
X156955639Y-57716347D01*
X156955639Y-57716347D02*
X156908020Y-57811585D01*
X156908020Y-57811585D02*
X156908020Y-57954442D01*
X156908020Y-57954442D02*
X156955639Y-58049680D01*
X156955639Y-58049680D02*
X157003258Y-58097300D01*
X157003258Y-58097300D02*
X157098496Y-58144919D01*
X157098496Y-58144919D02*
X157479448Y-58144919D01*
X157479448Y-58144919D02*
X157479448Y-57144919D01*
X157479448Y-57144919D02*
X157146115Y-57144919D01*
X157146115Y-57144919D02*
X157050877Y-57192538D01*
X157050877Y-57192538D02*
X157003258Y-57240157D01*
X157003258Y-57240157D02*
X156955639Y-57335395D01*
X156955639Y-57335395D02*
X156955639Y-57430633D01*
X156955639Y-57430633D02*
X157003258Y-57525871D01*
X157003258Y-57525871D02*
X157050877Y-57573490D01*
X157050877Y-57573490D02*
X157146115Y-57621109D01*
X157146115Y-57621109D02*
X157479448Y-57621109D01*
X156527067Y-58097300D02*
X156384210Y-58144919D01*
X156384210Y-58144919D02*
X156146115Y-58144919D01*
X156146115Y-58144919D02*
X156050877Y-58097300D01*
X156050877Y-58097300D02*
X156003258Y-58049680D01*
X156003258Y-58049680D02*
X155955639Y-57954442D01*
X155955639Y-57954442D02*
X155955639Y-57859204D01*
X155955639Y-57859204D02*
X156003258Y-57763966D01*
X156003258Y-57763966D02*
X156050877Y-57716347D01*
X156050877Y-57716347D02*
X156146115Y-57668728D01*
X156146115Y-57668728D02*
X156336591Y-57621109D01*
X156336591Y-57621109D02*
X156431829Y-57573490D01*
X156431829Y-57573490D02*
X156479448Y-57525871D01*
X156479448Y-57525871D02*
X156527067Y-57430633D01*
X156527067Y-57430633D02*
X156527067Y-57335395D01*
X156527067Y-57335395D02*
X156479448Y-57240157D01*
X156479448Y-57240157D02*
X156431829Y-57192538D01*
X156431829Y-57192538D02*
X156336591Y-57144919D01*
X156336591Y-57144919D02*
X156098496Y-57144919D01*
X156098496Y-57144919D02*
X155955639Y-57192538D01*
X155336591Y-57668728D02*
X155336591Y-58144919D01*
X155669924Y-57144919D02*
X155336591Y-57668728D01*
X155336591Y-57668728D02*
X155003258Y-57144919D01*
X161146115Y-59231109D02*
X160812782Y-59231109D01*
X160669925Y-59754919D02*
X161146115Y-59754919D01*
X161146115Y-59754919D02*
X161146115Y-58754919D01*
X161146115Y-58754919D02*
X160669925Y-58754919D01*
X160241353Y-59754919D02*
X160241353Y-58754919D01*
X160241353Y-58754919D02*
X159860401Y-58754919D01*
X159860401Y-58754919D02*
X159765163Y-58802538D01*
X159765163Y-58802538D02*
X159717544Y-58850157D01*
X159717544Y-58850157D02*
X159669925Y-58945395D01*
X159669925Y-58945395D02*
X159669925Y-59088252D01*
X159669925Y-59088252D02*
X159717544Y-59183490D01*
X159717544Y-59183490D02*
X159765163Y-59231109D01*
X159765163Y-59231109D02*
X159860401Y-59278728D01*
X159860401Y-59278728D02*
X160241353Y-59278728D01*
X159241353Y-59754919D02*
X159241353Y-58754919D01*
X159241353Y-58754919D02*
X159003258Y-58754919D01*
X159003258Y-58754919D02*
X158860401Y-58802538D01*
X158860401Y-58802538D02*
X158765163Y-58897776D01*
X158765163Y-58897776D02*
X158717544Y-58993014D01*
X158717544Y-58993014D02*
X158669925Y-59183490D01*
X158669925Y-59183490D02*
X158669925Y-59326347D01*
X158669925Y-59326347D02*
X158717544Y-59516823D01*
X158717544Y-59516823D02*
X158765163Y-59612061D01*
X158765163Y-59612061D02*
X158860401Y-59707300D01*
X158860401Y-59707300D02*
X159003258Y-59754919D01*
X159003258Y-59754919D02*
X159241353Y-59754919D01*
X158479449Y-59850157D02*
X157717544Y-59850157D01*
X156908020Y-59754919D02*
X157241353Y-59278728D01*
X157479448Y-59754919D02*
X157479448Y-58754919D01*
X157479448Y-58754919D02*
X157098496Y-58754919D01*
X157098496Y-58754919D02*
X157003258Y-58802538D01*
X157003258Y-58802538D02*
X156955639Y-58850157D01*
X156955639Y-58850157D02*
X156908020Y-58945395D01*
X156908020Y-58945395D02*
X156908020Y-59088252D01*
X156908020Y-59088252D02*
X156955639Y-59183490D01*
X156955639Y-59183490D02*
X157003258Y-59231109D01*
X157003258Y-59231109D02*
X157098496Y-59278728D01*
X157098496Y-59278728D02*
X157479448Y-59278728D01*
X156527067Y-59707300D02*
X156384210Y-59754919D01*
X156384210Y-59754919D02*
X156146115Y-59754919D01*
X156146115Y-59754919D02*
X156050877Y-59707300D01*
X156050877Y-59707300D02*
X156003258Y-59659680D01*
X156003258Y-59659680D02*
X155955639Y-59564442D01*
X155955639Y-59564442D02*
X155955639Y-59469204D01*
X155955639Y-59469204D02*
X156003258Y-59373966D01*
X156003258Y-59373966D02*
X156050877Y-59326347D01*
X156050877Y-59326347D02*
X156146115Y-59278728D01*
X156146115Y-59278728D02*
X156336591Y-59231109D01*
X156336591Y-59231109D02*
X156431829Y-59183490D01*
X156431829Y-59183490D02*
X156479448Y-59135871D01*
X156479448Y-59135871D02*
X156527067Y-59040633D01*
X156527067Y-59040633D02*
X156527067Y-58945395D01*
X156527067Y-58945395D02*
X156479448Y-58850157D01*
X156479448Y-58850157D02*
X156431829Y-58802538D01*
X156431829Y-58802538D02*
X156336591Y-58754919D01*
X156336591Y-58754919D02*
X156098496Y-58754919D01*
X156098496Y-58754919D02*
X155955639Y-58802538D01*
X155669924Y-58754919D02*
X155098496Y-58754919D01*
X155384210Y-59754919D02*
X155384210Y-58754919D01*
X161193734Y-61317300D02*
X161050877Y-61364919D01*
X161050877Y-61364919D02*
X160812782Y-61364919D01*
X160812782Y-61364919D02*
X160717544Y-61317300D01*
X160717544Y-61317300D02*
X160669925Y-61269680D01*
X160669925Y-61269680D02*
X160622306Y-61174442D01*
X160622306Y-61174442D02*
X160622306Y-61079204D01*
X160622306Y-61079204D02*
X160669925Y-60983966D01*
X160669925Y-60983966D02*
X160717544Y-60936347D01*
X160717544Y-60936347D02*
X160812782Y-60888728D01*
X160812782Y-60888728D02*
X161003258Y-60841109D01*
X161003258Y-60841109D02*
X161098496Y-60793490D01*
X161098496Y-60793490D02*
X161146115Y-60745871D01*
X161146115Y-60745871D02*
X161193734Y-60650633D01*
X161193734Y-60650633D02*
X161193734Y-60555395D01*
X161193734Y-60555395D02*
X161146115Y-60460157D01*
X161146115Y-60460157D02*
X161098496Y-60412538D01*
X161098496Y-60412538D02*
X161003258Y-60364919D01*
X161003258Y-60364919D02*
X160765163Y-60364919D01*
X160765163Y-60364919D02*
X160622306Y-60412538D01*
X159622306Y-61269680D02*
X159669925Y-61317300D01*
X159669925Y-61317300D02*
X159812782Y-61364919D01*
X159812782Y-61364919D02*
X159908020Y-61364919D01*
X159908020Y-61364919D02*
X160050877Y-61317300D01*
X160050877Y-61317300D02*
X160146115Y-61222061D01*
X160146115Y-61222061D02*
X160193734Y-61126823D01*
X160193734Y-61126823D02*
X160241353Y-60936347D01*
X160241353Y-60936347D02*
X160241353Y-60793490D01*
X160241353Y-60793490D02*
X160193734Y-60603014D01*
X160193734Y-60603014D02*
X160146115Y-60507776D01*
X160146115Y-60507776D02*
X160050877Y-60412538D01*
X160050877Y-60412538D02*
X159908020Y-60364919D01*
X159908020Y-60364919D02*
X159812782Y-60364919D01*
X159812782Y-60364919D02*
X159669925Y-60412538D01*
X159669925Y-60412538D02*
X159622306Y-60460157D01*
X158717544Y-61364919D02*
X159193734Y-61364919D01*
X159193734Y-61364919D02*
X159193734Y-60364919D01*
X161193734Y-62927300D02*
X161050877Y-62974919D01*
X161050877Y-62974919D02*
X160812782Y-62974919D01*
X160812782Y-62974919D02*
X160717544Y-62927300D01*
X160717544Y-62927300D02*
X160669925Y-62879680D01*
X160669925Y-62879680D02*
X160622306Y-62784442D01*
X160622306Y-62784442D02*
X160622306Y-62689204D01*
X160622306Y-62689204D02*
X160669925Y-62593966D01*
X160669925Y-62593966D02*
X160717544Y-62546347D01*
X160717544Y-62546347D02*
X160812782Y-62498728D01*
X160812782Y-62498728D02*
X161003258Y-62451109D01*
X161003258Y-62451109D02*
X161098496Y-62403490D01*
X161098496Y-62403490D02*
X161146115Y-62355871D01*
X161146115Y-62355871D02*
X161193734Y-62260633D01*
X161193734Y-62260633D02*
X161193734Y-62165395D01*
X161193734Y-62165395D02*
X161146115Y-62070157D01*
X161146115Y-62070157D02*
X161098496Y-62022538D01*
X161098496Y-62022538D02*
X161003258Y-61974919D01*
X161003258Y-61974919D02*
X160765163Y-61974919D01*
X160765163Y-61974919D02*
X160622306Y-62022538D01*
X160193734Y-62974919D02*
X160193734Y-61974919D01*
X160193734Y-61974919D02*
X159955639Y-61974919D01*
X159955639Y-61974919D02*
X159812782Y-62022538D01*
X159812782Y-62022538D02*
X159717544Y-62117776D01*
X159717544Y-62117776D02*
X159669925Y-62213014D01*
X159669925Y-62213014D02*
X159622306Y-62403490D01*
X159622306Y-62403490D02*
X159622306Y-62546347D01*
X159622306Y-62546347D02*
X159669925Y-62736823D01*
X159669925Y-62736823D02*
X159717544Y-62832061D01*
X159717544Y-62832061D02*
X159812782Y-62927300D01*
X159812782Y-62927300D02*
X159955639Y-62974919D01*
X159955639Y-62974919D02*
X160193734Y-62974919D01*
X159241353Y-62689204D02*
X158765163Y-62689204D01*
X159336591Y-62974919D02*
X159003258Y-61974919D01*
X159003258Y-61974919D02*
X158669925Y-62974919D01*
X161146115Y-66194919D02*
X161146115Y-65194919D01*
X161146115Y-65194919D02*
X160765163Y-65194919D01*
X160765163Y-65194919D02*
X160669925Y-65242538D01*
X160669925Y-65242538D02*
X160622306Y-65290157D01*
X160622306Y-65290157D02*
X160574687Y-65385395D01*
X160574687Y-65385395D02*
X160574687Y-65528252D01*
X160574687Y-65528252D02*
X160622306Y-65623490D01*
X160622306Y-65623490D02*
X160669925Y-65671109D01*
X160669925Y-65671109D02*
X160765163Y-65718728D01*
X160765163Y-65718728D02*
X161146115Y-65718728D01*
X160003258Y-66194919D02*
X160098496Y-66147300D01*
X160098496Y-66147300D02*
X160146115Y-66052061D01*
X160146115Y-66052061D02*
X160146115Y-65194919D01*
X159241353Y-66147300D02*
X159336591Y-66194919D01*
X159336591Y-66194919D02*
X159527067Y-66194919D01*
X159527067Y-66194919D02*
X159622305Y-66147300D01*
X159622305Y-66147300D02*
X159669924Y-66052061D01*
X159669924Y-66052061D02*
X159669924Y-65671109D01*
X159669924Y-65671109D02*
X159622305Y-65575871D01*
X159622305Y-65575871D02*
X159527067Y-65528252D01*
X159527067Y-65528252D02*
X159336591Y-65528252D01*
X159336591Y-65528252D02*
X159241353Y-65575871D01*
X159241353Y-65575871D02*
X159193734Y-65671109D01*
X159193734Y-65671109D02*
X159193734Y-65766347D01*
X159193734Y-65766347D02*
X159669924Y-65861585D01*
X158336591Y-66194919D02*
X158336591Y-65671109D01*
X158336591Y-65671109D02*
X158384210Y-65575871D01*
X158384210Y-65575871D02*
X158479448Y-65528252D01*
X158479448Y-65528252D02*
X158669924Y-65528252D01*
X158669924Y-65528252D02*
X158765162Y-65575871D01*
X158336591Y-66147300D02*
X158431829Y-66194919D01*
X158431829Y-66194919D02*
X158669924Y-66194919D01*
X158669924Y-66194919D02*
X158765162Y-66147300D01*
X158765162Y-66147300D02*
X158812781Y-66052061D01*
X158812781Y-66052061D02*
X158812781Y-65956823D01*
X158812781Y-65956823D02*
X158765162Y-65861585D01*
X158765162Y-65861585D02*
X158669924Y-65813966D01*
X158669924Y-65813966D02*
X158431829Y-65813966D01*
X158431829Y-65813966D02*
X158336591Y-65766347D01*
X157908019Y-66147300D02*
X157812781Y-66194919D01*
X157812781Y-66194919D02*
X157622305Y-66194919D01*
X157622305Y-66194919D02*
X157527067Y-66147300D01*
X157527067Y-66147300D02*
X157479448Y-66052061D01*
X157479448Y-66052061D02*
X157479448Y-66004442D01*
X157479448Y-66004442D02*
X157527067Y-65909204D01*
X157527067Y-65909204D02*
X157622305Y-65861585D01*
X157622305Y-65861585D02*
X157765162Y-65861585D01*
X157765162Y-65861585D02*
X157860400Y-65813966D01*
X157860400Y-65813966D02*
X157908019Y-65718728D01*
X157908019Y-65718728D02*
X157908019Y-65671109D01*
X157908019Y-65671109D02*
X157860400Y-65575871D01*
X157860400Y-65575871D02*
X157765162Y-65528252D01*
X157765162Y-65528252D02*
X157622305Y-65528252D01*
X157622305Y-65528252D02*
X157527067Y-65575871D01*
X156669924Y-66147300D02*
X156765162Y-66194919D01*
X156765162Y-66194919D02*
X156955638Y-66194919D01*
X156955638Y-66194919D02*
X157050876Y-66147300D01*
X157050876Y-66147300D02*
X157098495Y-66052061D01*
X157098495Y-66052061D02*
X157098495Y-65671109D01*
X157098495Y-65671109D02*
X157050876Y-65575871D01*
X157050876Y-65575871D02*
X156955638Y-65528252D01*
X156955638Y-65528252D02*
X156765162Y-65528252D01*
X156765162Y-65528252D02*
X156669924Y-65575871D01*
X156669924Y-65575871D02*
X156622305Y-65671109D01*
X156622305Y-65671109D02*
X156622305Y-65766347D01*
X156622305Y-65766347D02*
X157098495Y-65861585D01*
X155003257Y-66147300D02*
X155098495Y-66194919D01*
X155098495Y-66194919D02*
X155288971Y-66194919D01*
X155288971Y-66194919D02*
X155384209Y-66147300D01*
X155384209Y-66147300D02*
X155431828Y-66099680D01*
X155431828Y-66099680D02*
X155479447Y-66004442D01*
X155479447Y-66004442D02*
X155479447Y-65718728D01*
X155479447Y-65718728D02*
X155431828Y-65623490D01*
X155431828Y-65623490D02*
X155384209Y-65575871D01*
X155384209Y-65575871D02*
X155288971Y-65528252D01*
X155288971Y-65528252D02*
X155098495Y-65528252D01*
X155098495Y-65528252D02*
X155003257Y-65575871D01*
X154574685Y-66194919D02*
X154574685Y-65194919D01*
X154146114Y-66194919D02*
X154146114Y-65671109D01*
X154146114Y-65671109D02*
X154193733Y-65575871D01*
X154193733Y-65575871D02*
X154288971Y-65528252D01*
X154288971Y-65528252D02*
X154431828Y-65528252D01*
X154431828Y-65528252D02*
X154527066Y-65575871D01*
X154527066Y-65575871D02*
X154574685Y-65623490D01*
X153288971Y-66147300D02*
X153384209Y-66194919D01*
X153384209Y-66194919D02*
X153574685Y-66194919D01*
X153574685Y-66194919D02*
X153669923Y-66147300D01*
X153669923Y-66147300D02*
X153717542Y-66052061D01*
X153717542Y-66052061D02*
X153717542Y-65671109D01*
X153717542Y-65671109D02*
X153669923Y-65575871D01*
X153669923Y-65575871D02*
X153574685Y-65528252D01*
X153574685Y-65528252D02*
X153384209Y-65528252D01*
X153384209Y-65528252D02*
X153288971Y-65575871D01*
X153288971Y-65575871D02*
X153241352Y-65671109D01*
X153241352Y-65671109D02*
X153241352Y-65766347D01*
X153241352Y-65766347D02*
X153717542Y-65861585D01*
X152384209Y-66147300D02*
X152479447Y-66194919D01*
X152479447Y-66194919D02*
X152669923Y-66194919D01*
X152669923Y-66194919D02*
X152765161Y-66147300D01*
X152765161Y-66147300D02*
X152812780Y-66099680D01*
X152812780Y-66099680D02*
X152860399Y-66004442D01*
X152860399Y-66004442D02*
X152860399Y-65718728D01*
X152860399Y-65718728D02*
X152812780Y-65623490D01*
X152812780Y-65623490D02*
X152765161Y-65575871D01*
X152765161Y-65575871D02*
X152669923Y-65528252D01*
X152669923Y-65528252D02*
X152479447Y-65528252D01*
X152479447Y-65528252D02*
X152384209Y-65575871D01*
X151955637Y-66194919D02*
X151955637Y-65194919D01*
X151860399Y-65813966D02*
X151574685Y-66194919D01*
X151574685Y-65528252D02*
X151955637Y-65909204D01*
X150431827Y-66147300D02*
X150336589Y-66194919D01*
X150336589Y-66194919D02*
X150146113Y-66194919D01*
X150146113Y-66194919D02*
X150050875Y-66147300D01*
X150050875Y-66147300D02*
X150003256Y-66052061D01*
X150003256Y-66052061D02*
X150003256Y-66004442D01*
X150003256Y-66004442D02*
X150050875Y-65909204D01*
X150050875Y-65909204D02*
X150146113Y-65861585D01*
X150146113Y-65861585D02*
X150288970Y-65861585D01*
X150288970Y-65861585D02*
X150384208Y-65813966D01*
X150384208Y-65813966D02*
X150431827Y-65718728D01*
X150431827Y-65718728D02*
X150431827Y-65671109D01*
X150431827Y-65671109D02*
X150384208Y-65575871D01*
X150384208Y-65575871D02*
X150288970Y-65528252D01*
X150288970Y-65528252D02*
X150146113Y-65528252D01*
X150146113Y-65528252D02*
X150050875Y-65575871D01*
X149146113Y-66147300D02*
X149241351Y-66194919D01*
X149241351Y-66194919D02*
X149431827Y-66194919D01*
X149431827Y-66194919D02*
X149527065Y-66147300D01*
X149527065Y-66147300D02*
X149574684Y-66099680D01*
X149574684Y-66099680D02*
X149622303Y-66004442D01*
X149622303Y-66004442D02*
X149622303Y-65718728D01*
X149622303Y-65718728D02*
X149574684Y-65623490D01*
X149574684Y-65623490D02*
X149527065Y-65575871D01*
X149527065Y-65575871D02*
X149431827Y-65528252D01*
X149431827Y-65528252D02*
X149241351Y-65528252D01*
X149241351Y-65528252D02*
X149146113Y-65575871D01*
X148717541Y-66194919D02*
X148717541Y-65194919D01*
X148288970Y-66194919D02*
X148288970Y-65671109D01*
X148288970Y-65671109D02*
X148336589Y-65575871D01*
X148336589Y-65575871D02*
X148431827Y-65528252D01*
X148431827Y-65528252D02*
X148574684Y-65528252D01*
X148574684Y-65528252D02*
X148669922Y-65575871D01*
X148669922Y-65575871D02*
X148717541Y-65623490D01*
X147431827Y-66147300D02*
X147527065Y-66194919D01*
X147527065Y-66194919D02*
X147717541Y-66194919D01*
X147717541Y-66194919D02*
X147812779Y-66147300D01*
X147812779Y-66147300D02*
X147860398Y-66052061D01*
X147860398Y-66052061D02*
X147860398Y-65671109D01*
X147860398Y-65671109D02*
X147812779Y-65575871D01*
X147812779Y-65575871D02*
X147717541Y-65528252D01*
X147717541Y-65528252D02*
X147527065Y-65528252D01*
X147527065Y-65528252D02*
X147431827Y-65575871D01*
X147431827Y-65575871D02*
X147384208Y-65671109D01*
X147384208Y-65671109D02*
X147384208Y-65766347D01*
X147384208Y-65766347D02*
X147860398Y-65861585D01*
X146955636Y-66194919D02*
X146955636Y-65528252D01*
X146955636Y-65623490D02*
X146908017Y-65575871D01*
X146908017Y-65575871D02*
X146812779Y-65528252D01*
X146812779Y-65528252D02*
X146669922Y-65528252D01*
X146669922Y-65528252D02*
X146574684Y-65575871D01*
X146574684Y-65575871D02*
X146527065Y-65671109D01*
X146527065Y-65671109D02*
X146527065Y-66194919D01*
X146527065Y-65671109D02*
X146479446Y-65575871D01*
X146479446Y-65575871D02*
X146384208Y-65528252D01*
X146384208Y-65528252D02*
X146241351Y-65528252D01*
X146241351Y-65528252D02*
X146146112Y-65575871D01*
X146146112Y-65575871D02*
X146098493Y-65671109D01*
X146098493Y-65671109D02*
X146098493Y-66194919D01*
X145193732Y-66194919D02*
X145193732Y-65671109D01*
X145193732Y-65671109D02*
X145241351Y-65575871D01*
X145241351Y-65575871D02*
X145336589Y-65528252D01*
X145336589Y-65528252D02*
X145527065Y-65528252D01*
X145527065Y-65528252D02*
X145622303Y-65575871D01*
X145193732Y-66147300D02*
X145288970Y-66194919D01*
X145288970Y-66194919D02*
X145527065Y-66194919D01*
X145527065Y-66194919D02*
X145622303Y-66147300D01*
X145622303Y-66147300D02*
X145669922Y-66052061D01*
X145669922Y-66052061D02*
X145669922Y-65956823D01*
X145669922Y-65956823D02*
X145622303Y-65861585D01*
X145622303Y-65861585D02*
X145527065Y-65813966D01*
X145527065Y-65813966D02*
X145288970Y-65813966D01*
X145288970Y-65813966D02*
X145193732Y-65766347D01*
X144860398Y-65528252D02*
X144479446Y-65528252D01*
X144717541Y-65194919D02*
X144717541Y-66052061D01*
X144717541Y-66052061D02*
X144669922Y-66147300D01*
X144669922Y-66147300D02*
X144574684Y-66194919D01*
X144574684Y-66194919D02*
X144479446Y-66194919D01*
X144146112Y-66194919D02*
X144146112Y-65528252D01*
X144146112Y-65194919D02*
X144193731Y-65242538D01*
X144193731Y-65242538D02*
X144146112Y-65290157D01*
X144146112Y-65290157D02*
X144098493Y-65242538D01*
X144098493Y-65242538D02*
X144146112Y-65194919D01*
X144146112Y-65194919D02*
X144146112Y-65290157D01*
X143241351Y-66147300D02*
X143336589Y-66194919D01*
X143336589Y-66194919D02*
X143527065Y-66194919D01*
X143527065Y-66194919D02*
X143622303Y-66147300D01*
X143622303Y-66147300D02*
X143669922Y-66099680D01*
X143669922Y-66099680D02*
X143717541Y-66004442D01*
X143717541Y-66004442D02*
X143717541Y-65718728D01*
X143717541Y-65718728D02*
X143669922Y-65623490D01*
X143669922Y-65623490D02*
X143622303Y-65575871D01*
X143622303Y-65575871D02*
X143527065Y-65528252D01*
X143527065Y-65528252D02*
X143336589Y-65528252D01*
X143336589Y-65528252D02*
X143241351Y-65575871D01*
X142193731Y-65528252D02*
X141812779Y-65528252D01*
X142050874Y-66194919D02*
X142050874Y-65337776D01*
X142050874Y-65337776D02*
X142003255Y-65242538D01*
X142003255Y-65242538D02*
X141908017Y-65194919D01*
X141908017Y-65194919D02*
X141812779Y-65194919D01*
X141336588Y-66194919D02*
X141431826Y-66147300D01*
X141431826Y-66147300D02*
X141479445Y-66099680D01*
X141479445Y-66099680D02*
X141527064Y-66004442D01*
X141527064Y-66004442D02*
X141527064Y-65718728D01*
X141527064Y-65718728D02*
X141479445Y-65623490D01*
X141479445Y-65623490D02*
X141431826Y-65575871D01*
X141431826Y-65575871D02*
X141336588Y-65528252D01*
X141336588Y-65528252D02*
X141193731Y-65528252D01*
X141193731Y-65528252D02*
X141098493Y-65575871D01*
X141098493Y-65575871D02*
X141050874Y-65623490D01*
X141050874Y-65623490D02*
X141003255Y-65718728D01*
X141003255Y-65718728D02*
X141003255Y-66004442D01*
X141003255Y-66004442D02*
X141050874Y-66099680D01*
X141050874Y-66099680D02*
X141098493Y-66147300D01*
X141098493Y-66147300D02*
X141193731Y-66194919D01*
X141193731Y-66194919D02*
X141336588Y-66194919D01*
X140574683Y-66194919D02*
X140574683Y-65528252D01*
X140574683Y-65718728D02*
X140527064Y-65623490D01*
X140527064Y-65623490D02*
X140479445Y-65575871D01*
X140479445Y-65575871D02*
X140384207Y-65528252D01*
X140384207Y-65528252D02*
X140288969Y-65528252D01*
X138622302Y-66194919D02*
X138955635Y-65718728D01*
X139193730Y-66194919D02*
X139193730Y-65194919D01*
X139193730Y-65194919D02*
X138812778Y-65194919D01*
X138812778Y-65194919D02*
X138717540Y-65242538D01*
X138717540Y-65242538D02*
X138669921Y-65290157D01*
X138669921Y-65290157D02*
X138622302Y-65385395D01*
X138622302Y-65385395D02*
X138622302Y-65528252D01*
X138622302Y-65528252D02*
X138669921Y-65623490D01*
X138669921Y-65623490D02*
X138717540Y-65671109D01*
X138717540Y-65671109D02*
X138812778Y-65718728D01*
X138812778Y-65718728D02*
X139193730Y-65718728D01*
X138336587Y-65194919D02*
X137765159Y-65194919D01*
X138050873Y-66194919D02*
X138050873Y-65194919D01*
X136860397Y-66099680D02*
X136908016Y-66147300D01*
X136908016Y-66147300D02*
X137050873Y-66194919D01*
X137050873Y-66194919D02*
X137146111Y-66194919D01*
X137146111Y-66194919D02*
X137288968Y-66147300D01*
X137288968Y-66147300D02*
X137384206Y-66052061D01*
X137384206Y-66052061D02*
X137431825Y-65956823D01*
X137431825Y-65956823D02*
X137479444Y-65766347D01*
X137479444Y-65766347D02*
X137479444Y-65623490D01*
X137479444Y-65623490D02*
X137431825Y-65433014D01*
X137431825Y-65433014D02*
X137384206Y-65337776D01*
X137384206Y-65337776D02*
X137288968Y-65242538D01*
X137288968Y-65242538D02*
X137146111Y-65194919D01*
X137146111Y-65194919D02*
X137050873Y-65194919D01*
X137050873Y-65194919D02*
X136908016Y-65242538D01*
X136908016Y-65242538D02*
X136860397Y-65290157D01*
X136431825Y-66099680D02*
X136384206Y-66147300D01*
X136384206Y-66147300D02*
X136431825Y-66194919D01*
X136431825Y-66194919D02*
X136479444Y-66147300D01*
X136479444Y-66147300D02*
X136431825Y-66099680D01*
X136431825Y-66099680D02*
X136431825Y-66194919D01*
X160574687Y-67709680D02*
X160622306Y-67757300D01*
X160622306Y-67757300D02*
X160765163Y-67804919D01*
X160765163Y-67804919D02*
X160860401Y-67804919D01*
X160860401Y-67804919D02*
X161003258Y-67757300D01*
X161003258Y-67757300D02*
X161098496Y-67662061D01*
X161098496Y-67662061D02*
X161146115Y-67566823D01*
X161146115Y-67566823D02*
X161193734Y-67376347D01*
X161193734Y-67376347D02*
X161193734Y-67233490D01*
X161193734Y-67233490D02*
X161146115Y-67043014D01*
X161146115Y-67043014D02*
X161098496Y-66947776D01*
X161098496Y-66947776D02*
X161003258Y-66852538D01*
X161003258Y-66852538D02*
X160860401Y-66804919D01*
X160860401Y-66804919D02*
X160765163Y-66804919D01*
X160765163Y-66804919D02*
X160622306Y-66852538D01*
X160622306Y-66852538D02*
X160574687Y-66900157D01*
X160193734Y-66900157D02*
X160146115Y-66852538D01*
X160146115Y-66852538D02*
X160050877Y-66804919D01*
X160050877Y-66804919D02*
X159812782Y-66804919D01*
X159812782Y-66804919D02*
X159717544Y-66852538D01*
X159717544Y-66852538D02*
X159669925Y-66900157D01*
X159669925Y-66900157D02*
X159622306Y-66995395D01*
X159622306Y-66995395D02*
X159622306Y-67090633D01*
X159622306Y-67090633D02*
X159669925Y-67233490D01*
X159669925Y-67233490D02*
X160241353Y-67804919D01*
X160241353Y-67804919D02*
X159622306Y-67804919D01*
X158765163Y-66804919D02*
X158955639Y-66804919D01*
X158955639Y-66804919D02*
X159050877Y-66852538D01*
X159050877Y-66852538D02*
X159098496Y-66900157D01*
X159098496Y-66900157D02*
X159193734Y-67043014D01*
X159193734Y-67043014D02*
X159241353Y-67233490D01*
X159241353Y-67233490D02*
X159241353Y-67614442D01*
X159241353Y-67614442D02*
X159193734Y-67709680D01*
X159193734Y-67709680D02*
X159146115Y-67757300D01*
X159146115Y-67757300D02*
X159050877Y-67804919D01*
X159050877Y-67804919D02*
X158860401Y-67804919D01*
X158860401Y-67804919D02*
X158765163Y-67757300D01*
X158765163Y-67757300D02*
X158717544Y-67709680D01*
X158717544Y-67709680D02*
X158669925Y-67614442D01*
X158669925Y-67614442D02*
X158669925Y-67376347D01*
X158669925Y-67376347D02*
X158717544Y-67281109D01*
X158717544Y-67281109D02*
X158765163Y-67233490D01*
X158765163Y-67233490D02*
X158860401Y-67185871D01*
X158860401Y-67185871D02*
X159050877Y-67185871D01*
X159050877Y-67185871D02*
X159146115Y-67233490D01*
X159146115Y-67233490D02*
X159193734Y-67281109D01*
X159193734Y-67281109D02*
X159241353Y-67376347D01*
X157479448Y-67804919D02*
X157479448Y-67138252D01*
X157479448Y-66804919D02*
X157527067Y-66852538D01*
X157527067Y-66852538D02*
X157479448Y-66900157D01*
X157479448Y-66900157D02*
X157431829Y-66852538D01*
X157431829Y-66852538D02*
X157479448Y-66804919D01*
X157479448Y-66804919D02*
X157479448Y-66900157D01*
X157050877Y-67757300D02*
X156955639Y-67804919D01*
X156955639Y-67804919D02*
X156765163Y-67804919D01*
X156765163Y-67804919D02*
X156669925Y-67757300D01*
X156669925Y-67757300D02*
X156622306Y-67662061D01*
X156622306Y-67662061D02*
X156622306Y-67614442D01*
X156622306Y-67614442D02*
X156669925Y-67519204D01*
X156669925Y-67519204D02*
X156765163Y-67471585D01*
X156765163Y-67471585D02*
X156908020Y-67471585D01*
X156908020Y-67471585D02*
X157003258Y-67423966D01*
X157003258Y-67423966D02*
X157050877Y-67328728D01*
X157050877Y-67328728D02*
X157050877Y-67281109D01*
X157050877Y-67281109D02*
X157003258Y-67185871D01*
X157003258Y-67185871D02*
X156908020Y-67138252D01*
X156908020Y-67138252D02*
X156765163Y-67138252D01*
X156765163Y-67138252D02*
X156669925Y-67185871D01*
X155479448Y-67757300D02*
X155384210Y-67804919D01*
X155384210Y-67804919D02*
X155193734Y-67804919D01*
X155193734Y-67804919D02*
X155098496Y-67757300D01*
X155098496Y-67757300D02*
X155050877Y-67662061D01*
X155050877Y-67662061D02*
X155050877Y-67614442D01*
X155050877Y-67614442D02*
X155098496Y-67519204D01*
X155098496Y-67519204D02*
X155193734Y-67471585D01*
X155193734Y-67471585D02*
X155336591Y-67471585D01*
X155336591Y-67471585D02*
X155431829Y-67423966D01*
X155431829Y-67423966D02*
X155479448Y-67328728D01*
X155479448Y-67328728D02*
X155479448Y-67281109D01*
X155479448Y-67281109D02*
X155431829Y-67185871D01*
X155431829Y-67185871D02*
X155336591Y-67138252D01*
X155336591Y-67138252D02*
X155193734Y-67138252D01*
X155193734Y-67138252D02*
X155098496Y-67185871D01*
X154193734Y-67138252D02*
X154193734Y-67804919D01*
X154622305Y-67138252D02*
X154622305Y-67662061D01*
X154622305Y-67662061D02*
X154574686Y-67757300D01*
X154574686Y-67757300D02*
X154479448Y-67804919D01*
X154479448Y-67804919D02*
X154336591Y-67804919D01*
X154336591Y-67804919D02*
X154241353Y-67757300D01*
X154241353Y-67757300D02*
X154193734Y-67709680D01*
X153717543Y-67138252D02*
X153717543Y-68138252D01*
X153717543Y-67185871D02*
X153622305Y-67138252D01*
X153622305Y-67138252D02*
X153431829Y-67138252D01*
X153431829Y-67138252D02*
X153336591Y-67185871D01*
X153336591Y-67185871D02*
X153288972Y-67233490D01*
X153288972Y-67233490D02*
X153241353Y-67328728D01*
X153241353Y-67328728D02*
X153241353Y-67614442D01*
X153241353Y-67614442D02*
X153288972Y-67709680D01*
X153288972Y-67709680D02*
X153336591Y-67757300D01*
X153336591Y-67757300D02*
X153431829Y-67804919D01*
X153431829Y-67804919D02*
X153622305Y-67804919D01*
X153622305Y-67804919D02*
X153717543Y-67757300D01*
X152431829Y-67757300D02*
X152527067Y-67804919D01*
X152527067Y-67804919D02*
X152717543Y-67804919D01*
X152717543Y-67804919D02*
X152812781Y-67757300D01*
X152812781Y-67757300D02*
X152860400Y-67662061D01*
X152860400Y-67662061D02*
X152860400Y-67281109D01*
X152860400Y-67281109D02*
X152812781Y-67185871D01*
X152812781Y-67185871D02*
X152717543Y-67138252D01*
X152717543Y-67138252D02*
X152527067Y-67138252D01*
X152527067Y-67138252D02*
X152431829Y-67185871D01*
X152431829Y-67185871D02*
X152384210Y-67281109D01*
X152384210Y-67281109D02*
X152384210Y-67376347D01*
X152384210Y-67376347D02*
X152860400Y-67471585D01*
X151955638Y-67804919D02*
X151955638Y-67138252D01*
X151955638Y-67328728D02*
X151908019Y-67233490D01*
X151908019Y-67233490D02*
X151860400Y-67185871D01*
X151860400Y-67185871D02*
X151765162Y-67138252D01*
X151765162Y-67138252D02*
X151669924Y-67138252D01*
X150146114Y-67757300D02*
X150241352Y-67804919D01*
X150241352Y-67804919D02*
X150431828Y-67804919D01*
X150431828Y-67804919D02*
X150527066Y-67757300D01*
X150527066Y-67757300D02*
X150574685Y-67709680D01*
X150574685Y-67709680D02*
X150622304Y-67614442D01*
X150622304Y-67614442D02*
X150622304Y-67328728D01*
X150622304Y-67328728D02*
X150574685Y-67233490D01*
X150574685Y-67233490D02*
X150527066Y-67185871D01*
X150527066Y-67185871D02*
X150431828Y-67138252D01*
X150431828Y-67138252D02*
X150241352Y-67138252D01*
X150241352Y-67138252D02*
X150146114Y-67185871D01*
X149288971Y-67804919D02*
X149288971Y-67281109D01*
X149288971Y-67281109D02*
X149336590Y-67185871D01*
X149336590Y-67185871D02*
X149431828Y-67138252D01*
X149431828Y-67138252D02*
X149622304Y-67138252D01*
X149622304Y-67138252D02*
X149717542Y-67185871D01*
X149288971Y-67757300D02*
X149384209Y-67804919D01*
X149384209Y-67804919D02*
X149622304Y-67804919D01*
X149622304Y-67804919D02*
X149717542Y-67757300D01*
X149717542Y-67757300D02*
X149765161Y-67662061D01*
X149765161Y-67662061D02*
X149765161Y-67566823D01*
X149765161Y-67566823D02*
X149717542Y-67471585D01*
X149717542Y-67471585D02*
X149622304Y-67423966D01*
X149622304Y-67423966D02*
X149384209Y-67423966D01*
X149384209Y-67423966D02*
X149288971Y-67376347D01*
X148812780Y-67138252D02*
X148812780Y-68138252D01*
X148812780Y-67185871D02*
X148717542Y-67138252D01*
X148717542Y-67138252D02*
X148527066Y-67138252D01*
X148527066Y-67138252D02*
X148431828Y-67185871D01*
X148431828Y-67185871D02*
X148384209Y-67233490D01*
X148384209Y-67233490D02*
X148336590Y-67328728D01*
X148336590Y-67328728D02*
X148336590Y-67614442D01*
X148336590Y-67614442D02*
X148384209Y-67709680D01*
X148384209Y-67709680D02*
X148431828Y-67757300D01*
X148431828Y-67757300D02*
X148527066Y-67804919D01*
X148527066Y-67804919D02*
X148717542Y-67804919D01*
X148717542Y-67804919D02*
X148812780Y-67757300D01*
X147479447Y-67804919D02*
X147479447Y-67281109D01*
X147479447Y-67281109D02*
X147527066Y-67185871D01*
X147527066Y-67185871D02*
X147622304Y-67138252D01*
X147622304Y-67138252D02*
X147812780Y-67138252D01*
X147812780Y-67138252D02*
X147908018Y-67185871D01*
X147479447Y-67757300D02*
X147574685Y-67804919D01*
X147574685Y-67804919D02*
X147812780Y-67804919D01*
X147812780Y-67804919D02*
X147908018Y-67757300D01*
X147908018Y-67757300D02*
X147955637Y-67662061D01*
X147955637Y-67662061D02*
X147955637Y-67566823D01*
X147955637Y-67566823D02*
X147908018Y-67471585D01*
X147908018Y-67471585D02*
X147812780Y-67423966D01*
X147812780Y-67423966D02*
X147574685Y-67423966D01*
X147574685Y-67423966D02*
X147479447Y-67376347D01*
X146574685Y-67757300D02*
X146669923Y-67804919D01*
X146669923Y-67804919D02*
X146860399Y-67804919D01*
X146860399Y-67804919D02*
X146955637Y-67757300D01*
X146955637Y-67757300D02*
X147003256Y-67709680D01*
X147003256Y-67709680D02*
X147050875Y-67614442D01*
X147050875Y-67614442D02*
X147050875Y-67328728D01*
X147050875Y-67328728D02*
X147003256Y-67233490D01*
X147003256Y-67233490D02*
X146955637Y-67185871D01*
X146955637Y-67185871D02*
X146860399Y-67138252D01*
X146860399Y-67138252D02*
X146669923Y-67138252D01*
X146669923Y-67138252D02*
X146574685Y-67185871D01*
X146146113Y-67804919D02*
X146146113Y-67138252D01*
X146146113Y-66804919D02*
X146193732Y-66852538D01*
X146193732Y-66852538D02*
X146146113Y-66900157D01*
X146146113Y-66900157D02*
X146098494Y-66852538D01*
X146098494Y-66852538D02*
X146146113Y-66804919D01*
X146146113Y-66804919D02*
X146146113Y-66900157D01*
X145812780Y-67138252D02*
X145431828Y-67138252D01*
X145669923Y-66804919D02*
X145669923Y-67662061D01*
X145669923Y-67662061D02*
X145622304Y-67757300D01*
X145622304Y-67757300D02*
X145527066Y-67804919D01*
X145527066Y-67804919D02*
X145431828Y-67804919D01*
X144955637Y-67804919D02*
X145050875Y-67757300D01*
X145050875Y-67757300D02*
X145098494Y-67709680D01*
X145098494Y-67709680D02*
X145146113Y-67614442D01*
X145146113Y-67614442D02*
X145146113Y-67328728D01*
X145146113Y-67328728D02*
X145098494Y-67233490D01*
X145098494Y-67233490D02*
X145050875Y-67185871D01*
X145050875Y-67185871D02*
X144955637Y-67138252D01*
X144955637Y-67138252D02*
X144812780Y-67138252D01*
X144812780Y-67138252D02*
X144717542Y-67185871D01*
X144717542Y-67185871D02*
X144669923Y-67233490D01*
X144669923Y-67233490D02*
X144622304Y-67328728D01*
X144622304Y-67328728D02*
X144622304Y-67614442D01*
X144622304Y-67614442D02*
X144669923Y-67709680D01*
X144669923Y-67709680D02*
X144717542Y-67757300D01*
X144717542Y-67757300D02*
X144812780Y-67804919D01*
X144812780Y-67804919D02*
X144955637Y-67804919D01*
X144193732Y-67804919D02*
X144193732Y-67138252D01*
X144193732Y-67328728D02*
X144146113Y-67233490D01*
X144146113Y-67233490D02*
X144098494Y-67185871D01*
X144098494Y-67185871D02*
X144003256Y-67138252D01*
X144003256Y-67138252D02*
X143908018Y-67138252D01*
X142908017Y-66804919D02*
X142241351Y-67804919D01*
X142241351Y-66804919D02*
X142908017Y-67804919D01*
X141860398Y-67804919D02*
X141860398Y-66804919D01*
X141860398Y-67281109D02*
X141288970Y-67281109D01*
X141288970Y-67804919D02*
X141288970Y-66804919D01*
X140384208Y-67138252D02*
X140384208Y-67804919D01*
X140622303Y-66757300D02*
X140860398Y-67471585D01*
X140860398Y-67471585D02*
X140241351Y-67471585D01*
X139336589Y-67804919D02*
X139908017Y-67804919D01*
X139622303Y-67804919D02*
X139622303Y-66804919D01*
X139622303Y-66804919D02*
X139717541Y-66947776D01*
X139717541Y-66947776D02*
X139812779Y-67043014D01*
X139812779Y-67043014D02*
X139908017Y-67090633D01*
X138479446Y-67138252D02*
X138479446Y-67804919D01*
X138717541Y-66757300D02*
X138955636Y-67471585D01*
X138955636Y-67471585D02*
X138336589Y-67471585D01*
X137955636Y-67804919D02*
X137955636Y-66804919D01*
X137955636Y-67281109D02*
X137384208Y-67281109D01*
X137384208Y-67804919D02*
X137384208Y-66804919D01*
X136384208Y-66852538D02*
X136479446Y-66804919D01*
X136479446Y-66804919D02*
X136622303Y-66804919D01*
X136622303Y-66804919D02*
X136765160Y-66852538D01*
X136765160Y-66852538D02*
X136860398Y-66947776D01*
X136860398Y-66947776D02*
X136908017Y-67043014D01*
X136908017Y-67043014D02*
X136955636Y-67233490D01*
X136955636Y-67233490D02*
X136955636Y-67376347D01*
X136955636Y-67376347D02*
X136908017Y-67566823D01*
X136908017Y-67566823D02*
X136860398Y-67662061D01*
X136860398Y-67662061D02*
X136765160Y-67757300D01*
X136765160Y-67757300D02*
X136622303Y-67804919D01*
X136622303Y-67804919D02*
X136527065Y-67804919D01*
X136527065Y-67804919D02*
X136384208Y-67757300D01*
X136384208Y-67757300D02*
X136336589Y-67709680D01*
X136336589Y-67709680D02*
X136336589Y-67376347D01*
X136336589Y-67376347D02*
X136527065Y-67376347D01*
X161288972Y-68748252D02*
X160908020Y-68748252D01*
X161146115Y-68414919D02*
X161146115Y-69272061D01*
X161146115Y-69272061D02*
X161098496Y-69367300D01*
X161098496Y-69367300D02*
X161003258Y-69414919D01*
X161003258Y-69414919D02*
X160908020Y-69414919D01*
X160574686Y-69414919D02*
X160574686Y-68414919D01*
X160146115Y-69414919D02*
X160146115Y-68891109D01*
X160146115Y-68891109D02*
X160193734Y-68795871D01*
X160193734Y-68795871D02*
X160288972Y-68748252D01*
X160288972Y-68748252D02*
X160431829Y-68748252D01*
X160431829Y-68748252D02*
X160527067Y-68795871D01*
X160527067Y-68795871D02*
X160574686Y-68843490D01*
X159241353Y-69414919D02*
X159241353Y-68891109D01*
X159241353Y-68891109D02*
X159288972Y-68795871D01*
X159288972Y-68795871D02*
X159384210Y-68748252D01*
X159384210Y-68748252D02*
X159574686Y-68748252D01*
X159574686Y-68748252D02*
X159669924Y-68795871D01*
X159241353Y-69367300D02*
X159336591Y-69414919D01*
X159336591Y-69414919D02*
X159574686Y-69414919D01*
X159574686Y-69414919D02*
X159669924Y-69367300D01*
X159669924Y-69367300D02*
X159717543Y-69272061D01*
X159717543Y-69272061D02*
X159717543Y-69176823D01*
X159717543Y-69176823D02*
X159669924Y-69081585D01*
X159669924Y-69081585D02*
X159574686Y-69033966D01*
X159574686Y-69033966D02*
X159336591Y-69033966D01*
X159336591Y-69033966D02*
X159241353Y-68986347D01*
X158908019Y-68748252D02*
X158527067Y-68748252D01*
X158765162Y-68414919D02*
X158765162Y-69272061D01*
X158765162Y-69272061D02*
X158717543Y-69367300D01*
X158717543Y-69367300D02*
X158622305Y-69414919D01*
X158622305Y-69414919D02*
X158527067Y-69414919D01*
X157431828Y-69414919D02*
X157431828Y-68748252D01*
X157431828Y-68414919D02*
X157479447Y-68462538D01*
X157479447Y-68462538D02*
X157431828Y-68510157D01*
X157431828Y-68510157D02*
X157384209Y-68462538D01*
X157384209Y-68462538D02*
X157431828Y-68414919D01*
X157431828Y-68414919D02*
X157431828Y-68510157D01*
X157003257Y-69367300D02*
X156908019Y-69414919D01*
X156908019Y-69414919D02*
X156717543Y-69414919D01*
X156717543Y-69414919D02*
X156622305Y-69367300D01*
X156622305Y-69367300D02*
X156574686Y-69272061D01*
X156574686Y-69272061D02*
X156574686Y-69224442D01*
X156574686Y-69224442D02*
X156622305Y-69129204D01*
X156622305Y-69129204D02*
X156717543Y-69081585D01*
X156717543Y-69081585D02*
X156860400Y-69081585D01*
X156860400Y-69081585D02*
X156955638Y-69033966D01*
X156955638Y-69033966D02*
X157003257Y-68938728D01*
X157003257Y-68938728D02*
X157003257Y-68891109D01*
X157003257Y-68891109D02*
X156955638Y-68795871D01*
X156955638Y-68795871D02*
X156860400Y-68748252D01*
X156860400Y-68748252D02*
X156717543Y-68748252D01*
X156717543Y-68748252D02*
X156622305Y-68795871D01*
X155241352Y-69414919D02*
X155336590Y-69367300D01*
X155336590Y-69367300D02*
X155384209Y-69319680D01*
X155384209Y-69319680D02*
X155431828Y-69224442D01*
X155431828Y-69224442D02*
X155431828Y-68938728D01*
X155431828Y-68938728D02*
X155384209Y-68843490D01*
X155384209Y-68843490D02*
X155336590Y-68795871D01*
X155336590Y-68795871D02*
X155241352Y-68748252D01*
X155241352Y-68748252D02*
X155098495Y-68748252D01*
X155098495Y-68748252D02*
X155003257Y-68795871D01*
X155003257Y-68795871D02*
X154955638Y-68843490D01*
X154955638Y-68843490D02*
X154908019Y-68938728D01*
X154908019Y-68938728D02*
X154908019Y-69224442D01*
X154908019Y-69224442D02*
X154955638Y-69319680D01*
X154955638Y-69319680D02*
X155003257Y-69367300D01*
X155003257Y-69367300D02*
X155098495Y-69414919D01*
X155098495Y-69414919D02*
X155241352Y-69414919D01*
X154479447Y-68748252D02*
X154479447Y-69748252D01*
X154479447Y-68795871D02*
X154384209Y-68748252D01*
X154384209Y-68748252D02*
X154193733Y-68748252D01*
X154193733Y-68748252D02*
X154098495Y-68795871D01*
X154098495Y-68795871D02*
X154050876Y-68843490D01*
X154050876Y-68843490D02*
X154003257Y-68938728D01*
X154003257Y-68938728D02*
X154003257Y-69224442D01*
X154003257Y-69224442D02*
X154050876Y-69319680D01*
X154050876Y-69319680D02*
X154098495Y-69367300D01*
X154098495Y-69367300D02*
X154193733Y-69414919D01*
X154193733Y-69414919D02*
X154384209Y-69414919D01*
X154384209Y-69414919D02*
X154479447Y-69367300D01*
X153717542Y-68748252D02*
X153336590Y-68748252D01*
X153574685Y-68414919D02*
X153574685Y-69272061D01*
X153574685Y-69272061D02*
X153527066Y-69367300D01*
X153527066Y-69367300D02*
X153431828Y-69414919D01*
X153431828Y-69414919D02*
X153336590Y-69414919D01*
X153003256Y-69414919D02*
X153003256Y-68748252D01*
X153003256Y-68414919D02*
X153050875Y-68462538D01*
X153050875Y-68462538D02*
X153003256Y-68510157D01*
X153003256Y-68510157D02*
X152955637Y-68462538D01*
X152955637Y-68462538D02*
X153003256Y-68414919D01*
X153003256Y-68414919D02*
X153003256Y-68510157D01*
X152384209Y-69414919D02*
X152479447Y-69367300D01*
X152479447Y-69367300D02*
X152527066Y-69319680D01*
X152527066Y-69319680D02*
X152574685Y-69224442D01*
X152574685Y-69224442D02*
X152574685Y-68938728D01*
X152574685Y-68938728D02*
X152527066Y-68843490D01*
X152527066Y-68843490D02*
X152479447Y-68795871D01*
X152479447Y-68795871D02*
X152384209Y-68748252D01*
X152384209Y-68748252D02*
X152241352Y-68748252D01*
X152241352Y-68748252D02*
X152146114Y-68795871D01*
X152146114Y-68795871D02*
X152098495Y-68843490D01*
X152098495Y-68843490D02*
X152050876Y-68938728D01*
X152050876Y-68938728D02*
X152050876Y-69224442D01*
X152050876Y-69224442D02*
X152098495Y-69319680D01*
X152098495Y-69319680D02*
X152146114Y-69367300D01*
X152146114Y-69367300D02*
X152241352Y-69414919D01*
X152241352Y-69414919D02*
X152384209Y-69414919D01*
X151622304Y-68748252D02*
X151622304Y-69414919D01*
X151622304Y-68843490D02*
X151574685Y-68795871D01*
X151574685Y-68795871D02*
X151479447Y-68748252D01*
X151479447Y-68748252D02*
X151336590Y-68748252D01*
X151336590Y-68748252D02*
X151241352Y-68795871D01*
X151241352Y-68795871D02*
X151193733Y-68891109D01*
X151193733Y-68891109D02*
X151193733Y-69414919D01*
X150288971Y-69414919D02*
X150288971Y-68891109D01*
X150288971Y-68891109D02*
X150336590Y-68795871D01*
X150336590Y-68795871D02*
X150431828Y-68748252D01*
X150431828Y-68748252D02*
X150622304Y-68748252D01*
X150622304Y-68748252D02*
X150717542Y-68795871D01*
X150288971Y-69367300D02*
X150384209Y-69414919D01*
X150384209Y-69414919D02*
X150622304Y-69414919D01*
X150622304Y-69414919D02*
X150717542Y-69367300D01*
X150717542Y-69367300D02*
X150765161Y-69272061D01*
X150765161Y-69272061D02*
X150765161Y-69176823D01*
X150765161Y-69176823D02*
X150717542Y-69081585D01*
X150717542Y-69081585D02*
X150622304Y-69033966D01*
X150622304Y-69033966D02*
X150384209Y-69033966D01*
X150384209Y-69033966D02*
X150288971Y-68986347D01*
X149669923Y-69414919D02*
X149765161Y-69367300D01*
X149765161Y-69367300D02*
X149812780Y-69272061D01*
X149812780Y-69272061D02*
X149812780Y-68414919D01*
X149146113Y-69414919D02*
X149241351Y-69367300D01*
X149241351Y-69367300D02*
X149288970Y-69272061D01*
X149288970Y-69272061D02*
X149288970Y-68414919D01*
X148860398Y-68748252D02*
X148622303Y-69414919D01*
X148384208Y-68748252D02*
X148622303Y-69414919D01*
X148622303Y-69414919D02*
X148717541Y-69653014D01*
X148717541Y-69653014D02*
X148765160Y-69700633D01*
X148765160Y-69700633D02*
X148860398Y-69748252D01*
X147241350Y-69414919D02*
X147241350Y-68414919D01*
X146812779Y-69414919D02*
X146812779Y-68891109D01*
X146812779Y-68891109D02*
X146860398Y-68795871D01*
X146860398Y-68795871D02*
X146955636Y-68748252D01*
X146955636Y-68748252D02*
X147098493Y-68748252D01*
X147098493Y-68748252D02*
X147193731Y-68795871D01*
X147193731Y-68795871D02*
X147241350Y-68843490D01*
X145908017Y-69414919D02*
X145908017Y-68891109D01*
X145908017Y-68891109D02*
X145955636Y-68795871D01*
X145955636Y-68795871D02*
X146050874Y-68748252D01*
X146050874Y-68748252D02*
X146241350Y-68748252D01*
X146241350Y-68748252D02*
X146336588Y-68795871D01*
X145908017Y-69367300D02*
X146003255Y-69414919D01*
X146003255Y-69414919D02*
X146241350Y-69414919D01*
X146241350Y-69414919D02*
X146336588Y-69367300D01*
X146336588Y-69367300D02*
X146384207Y-69272061D01*
X146384207Y-69272061D02*
X146384207Y-69176823D01*
X146384207Y-69176823D02*
X146336588Y-69081585D01*
X146336588Y-69081585D02*
X146241350Y-69033966D01*
X146241350Y-69033966D02*
X146003255Y-69033966D01*
X146003255Y-69033966D02*
X145908017Y-68986347D01*
X145431826Y-68748252D02*
X145431826Y-69414919D01*
X145431826Y-68843490D02*
X145384207Y-68795871D01*
X145384207Y-68795871D02*
X145288969Y-68748252D01*
X145288969Y-68748252D02*
X145146112Y-68748252D01*
X145146112Y-68748252D02*
X145050874Y-68795871D01*
X145050874Y-68795871D02*
X145003255Y-68891109D01*
X145003255Y-68891109D02*
X145003255Y-69414919D01*
X144098493Y-69414919D02*
X144098493Y-68414919D01*
X144098493Y-69367300D02*
X144193731Y-69414919D01*
X144193731Y-69414919D02*
X144384207Y-69414919D01*
X144384207Y-69414919D02*
X144479445Y-69367300D01*
X144479445Y-69367300D02*
X144527064Y-69319680D01*
X144527064Y-69319680D02*
X144574683Y-69224442D01*
X144574683Y-69224442D02*
X144574683Y-68938728D01*
X144574683Y-68938728D02*
X144527064Y-68843490D01*
X144527064Y-68843490D02*
X144479445Y-68795871D01*
X144479445Y-68795871D02*
X144384207Y-68748252D01*
X144384207Y-68748252D02*
X144193731Y-68748252D01*
X144193731Y-68748252D02*
X144098493Y-68795871D01*
X143622302Y-69033966D02*
X142860398Y-69033966D01*
X142431826Y-69367300D02*
X142336588Y-69414919D01*
X142336588Y-69414919D02*
X142146112Y-69414919D01*
X142146112Y-69414919D02*
X142050874Y-69367300D01*
X142050874Y-69367300D02*
X142003255Y-69272061D01*
X142003255Y-69272061D02*
X142003255Y-69224442D01*
X142003255Y-69224442D02*
X142050874Y-69129204D01*
X142050874Y-69129204D02*
X142146112Y-69081585D01*
X142146112Y-69081585D02*
X142288969Y-69081585D01*
X142288969Y-69081585D02*
X142384207Y-69033966D01*
X142384207Y-69033966D02*
X142431826Y-68938728D01*
X142431826Y-68938728D02*
X142431826Y-68891109D01*
X142431826Y-68891109D02*
X142384207Y-68795871D01*
X142384207Y-68795871D02*
X142288969Y-68748252D01*
X142288969Y-68748252D02*
X142146112Y-68748252D01*
X142146112Y-68748252D02*
X142050874Y-68795871D01*
X141431826Y-69414919D02*
X141527064Y-69367300D01*
X141527064Y-69367300D02*
X141574683Y-69319680D01*
X141574683Y-69319680D02*
X141622302Y-69224442D01*
X141622302Y-69224442D02*
X141622302Y-68938728D01*
X141622302Y-68938728D02*
X141574683Y-68843490D01*
X141574683Y-68843490D02*
X141527064Y-68795871D01*
X141527064Y-68795871D02*
X141431826Y-68748252D01*
X141431826Y-68748252D02*
X141288969Y-68748252D01*
X141288969Y-68748252D02*
X141193731Y-68795871D01*
X141193731Y-68795871D02*
X141146112Y-68843490D01*
X141146112Y-68843490D02*
X141098493Y-68938728D01*
X141098493Y-68938728D02*
X141098493Y-69224442D01*
X141098493Y-69224442D02*
X141146112Y-69319680D01*
X141146112Y-69319680D02*
X141193731Y-69367300D01*
X141193731Y-69367300D02*
X141288969Y-69414919D01*
X141288969Y-69414919D02*
X141431826Y-69414919D01*
X140527064Y-69414919D02*
X140622302Y-69367300D01*
X140622302Y-69367300D02*
X140669921Y-69272061D01*
X140669921Y-69272061D02*
X140669921Y-68414919D01*
X139717540Y-69414919D02*
X139717540Y-68414919D01*
X139717540Y-69367300D02*
X139812778Y-69414919D01*
X139812778Y-69414919D02*
X140003254Y-69414919D01*
X140003254Y-69414919D02*
X140098492Y-69367300D01*
X140098492Y-69367300D02*
X140146111Y-69319680D01*
X140146111Y-69319680D02*
X140193730Y-69224442D01*
X140193730Y-69224442D02*
X140193730Y-68938728D01*
X140193730Y-68938728D02*
X140146111Y-68843490D01*
X140146111Y-68843490D02*
X140098492Y-68795871D01*
X140098492Y-68795871D02*
X140003254Y-68748252D01*
X140003254Y-68748252D02*
X139812778Y-68748252D01*
X139812778Y-68748252D02*
X139717540Y-68795871D01*
X138860397Y-69367300D02*
X138955635Y-69414919D01*
X138955635Y-69414919D02*
X139146111Y-69414919D01*
X139146111Y-69414919D02*
X139241349Y-69367300D01*
X139241349Y-69367300D02*
X139288968Y-69272061D01*
X139288968Y-69272061D02*
X139288968Y-68891109D01*
X139288968Y-68891109D02*
X139241349Y-68795871D01*
X139241349Y-68795871D02*
X139146111Y-68748252D01*
X139146111Y-68748252D02*
X138955635Y-68748252D01*
X138955635Y-68748252D02*
X138860397Y-68795871D01*
X138860397Y-68795871D02*
X138812778Y-68891109D01*
X138812778Y-68891109D02*
X138812778Y-68986347D01*
X138812778Y-68986347D02*
X139288968Y-69081585D01*
X138384206Y-69414919D02*
X138384206Y-68748252D01*
X138384206Y-68938728D02*
X138336587Y-68843490D01*
X138336587Y-68843490D02*
X138288968Y-68795871D01*
X138288968Y-68795871D02*
X138193730Y-68748252D01*
X138193730Y-68748252D02*
X138098492Y-68748252D01*
X137384206Y-69367300D02*
X137479444Y-69414919D01*
X137479444Y-69414919D02*
X137669920Y-69414919D01*
X137669920Y-69414919D02*
X137765158Y-69367300D01*
X137765158Y-69367300D02*
X137812777Y-69272061D01*
X137812777Y-69272061D02*
X137812777Y-68891109D01*
X137812777Y-68891109D02*
X137765158Y-68795871D01*
X137765158Y-68795871D02*
X137669920Y-68748252D01*
X137669920Y-68748252D02*
X137479444Y-68748252D01*
X137479444Y-68748252D02*
X137384206Y-68795871D01*
X137384206Y-68795871D02*
X137336587Y-68891109D01*
X137336587Y-68891109D02*
X137336587Y-68986347D01*
X137336587Y-68986347D02*
X137812777Y-69081585D01*
X136479444Y-69414919D02*
X136479444Y-68414919D01*
X136479444Y-69367300D02*
X136574682Y-69414919D01*
X136574682Y-69414919D02*
X136765158Y-69414919D01*
X136765158Y-69414919D02*
X136860396Y-69367300D01*
X136860396Y-69367300D02*
X136908015Y-69319680D01*
X136908015Y-69319680D02*
X136955634Y-69224442D01*
X136955634Y-69224442D02*
X136955634Y-68938728D01*
X136955634Y-68938728D02*
X136908015Y-68843490D01*
X136908015Y-68843490D02*
X136860396Y-68795871D01*
X136860396Y-68795871D02*
X136765158Y-68748252D01*
X136765158Y-68748252D02*
X136574682Y-68748252D01*
X136574682Y-68748252D02*
X136479444Y-68795871D01*
X136003253Y-69319680D02*
X135955634Y-69367300D01*
X135955634Y-69367300D02*
X136003253Y-69414919D01*
X136003253Y-69414919D02*
X136050872Y-69367300D01*
X136050872Y-69367300D02*
X136003253Y-69319680D01*
X136003253Y-69319680D02*
X136003253Y-69414919D01*
X132340000Y-48252500D02*
X162250000Y-48252500D01*
X162250000Y-77347500D01*
X132340000Y-77347500D01*
X132340000Y-48252500D01*
D13*
X124603184Y-64878428D02*
X124603184Y-64945772D01*
X124603184Y-64945772D02*
X124670528Y-65080459D01*
X124670528Y-65080459D02*
X124737871Y-65147802D01*
X124737871Y-65147802D02*
X124872558Y-65215146D01*
X124872558Y-65215146D02*
X125007245Y-65215146D01*
X125007245Y-65215146D02*
X125108260Y-65181474D01*
X125108260Y-65181474D02*
X125276619Y-65080459D01*
X125276619Y-65080459D02*
X125377634Y-64979444D01*
X125377634Y-64979444D02*
X125478650Y-64811085D01*
X125478650Y-64811085D02*
X125512321Y-64710070D01*
X125512321Y-64710070D02*
X125512321Y-64575383D01*
X125512321Y-64575383D02*
X125444978Y-64440696D01*
X125444978Y-64440696D02*
X125377634Y-64373352D01*
X125377634Y-64373352D02*
X125242947Y-64306009D01*
X125242947Y-64306009D02*
X125175604Y-64306009D01*
X124906230Y-64036635D02*
X124906230Y-63969291D01*
X124906230Y-63969291D02*
X124872558Y-63868276D01*
X124872558Y-63868276D02*
X124704199Y-63699917D01*
X124704199Y-63699917D02*
X124603184Y-63666245D01*
X124603184Y-63666245D02*
X124535841Y-63666245D01*
X124535841Y-63666245D02*
X124434825Y-63699917D01*
X124434825Y-63699917D02*
X124367482Y-63767261D01*
X124367482Y-63767261D02*
X124300138Y-63901948D01*
X124300138Y-63901948D02*
X124300138Y-64710070D01*
X124300138Y-64710070D02*
X123862406Y-64272337D01*
X123727718Y-63194841D02*
X123256314Y-63666245D01*
X124165451Y-63093825D02*
X123828734Y-63767260D01*
X123828734Y-63767260D02*
X123391001Y-63329528D01*
D14*
%TO.C,U6*%
X117940000Y-69800000D02*
X117080000Y-69800000D01*
X115800000Y-71080000D02*
X114920000Y-71080000D01*
X114920000Y-71080000D02*
X114920000Y-72610000D01*
X114920000Y-72610000D02*
X115850000Y-72610000D01*
X117950000Y-74090000D02*
X117050000Y-74090000D01*
%TO.C,U4*%
X117940000Y-53560000D02*
X117080000Y-53560000D01*
X115800000Y-54840000D02*
X114920000Y-54840000D01*
X114920000Y-54840000D02*
X114920000Y-56370000D01*
X114920000Y-56370000D02*
X115850000Y-56370000D01*
X117950000Y-57850000D02*
X117050000Y-57850000D01*
%TO.C,U5*%
X165490000Y-74690000D02*
X166350000Y-74690000D01*
X167630000Y-73410000D02*
X168510000Y-73410000D01*
X168510000Y-73410000D02*
X168510000Y-71880000D01*
X168510000Y-71880000D02*
X167580000Y-71880000D01*
X165480000Y-70400000D02*
X166380000Y-70400000D01*
%TO.C,C24*%
X124254386Y-61758364D02*
X123462426Y-60952262D01*
X121546167Y-64367588D02*
X120754207Y-63561486D01*
X123448284Y-61744222D02*
X124254386Y-60952262D01*
X125265548Y-67521285D02*
G75*
G03*
X126951836Y-63273188I190919J2382950D01*
G01*
%TD*%
M02*
